<svg width="92" height="63" viewBox="0 0 92 63" fill="none" xmlns="http://www.w3.org/2000/svg">
<path d="M34.5651 60.257C37.0048 57.3037 35.0359 47.0315 27.9737 40.2689C27.2461 40.0549 26.3901 39.7981 25.5341 39.4556L23.9932 38.728C23.4668 43.2746 24.6574 47.854 27.3317 51.5684C29.9426 55.2921 32.8959 55.2493 34.5651 60.257Z" fill="url(#paint0_linear_78_173003)"/>
<path d="M34.0943 58.2454C35.5068 55.9341 32.3823 46.1754 26.7753 40.1833C26.0905 40.1833 26.3901 39.7981 25.5341 39.4556L23.9932 38.728C23.4668 43.2746 24.6574 47.854 27.3317 51.5684C29.9426 55.2921 32.3395 54.3933 34.0943 58.2454Z" fill="url(#paint1_linear_78_173003)"/>
<path style="mix-blend-mode:screen" opacity="0.4" d="M24.7208 45.3621C26.6897 52.7239 31.0982 54.3075 34.0515 57.5176C34.7363 52.7239 31.569 51.2686 28.6585 44.6772C27.6313 42.0236 23.7792 40.5683 24.7208 45.3621Z" fill="url(#paint2_radial_78_173003)"/>
<path style="mix-blend-mode:screen" opacity="0.4" d="M24.5924 43.1362C24.7324 45.7606 25.5723 48.2997 27.0249 50.4899C28.4775 52.68 30.4898 54.4415 32.853 55.5914C30.6939 54.1947 28.846 52.3678 27.4246 50.2247C26.0033 48.0817 25.0392 45.6686 24.5924 43.1362Z" fill="url(#paint3_linear_78_173003)"/>
<path d="M34.9076 51.6538C33.6768 47.293 31.3141 43.3355 28.0594 40.1831C27.2328 39.9706 26.4184 39.7134 25.6197 39.4126C25.1061 39.1558 24.5925 38.9418 24.0789 38.6422H23.7793C23.2693 43.194 24.475 47.7723 27.1605 51.4826C28.0635 52.7323 29.1451 53.8427 30.3706 54.7783C32.2685 56.0936 33.6701 58.0076 34.3512 60.214C35.05 58.9097 35.4612 57.4708 35.5572 55.9942C35.6532 54.5176 35.4317 53.0376 34.9076 51.6538ZM28.0594 40.3115C31.2887 43.45 33.6484 47.3729 34.9076 51.6966C35.9859 54.3742 35.9859 57.3652 34.9076 60.0428C34.797 58.8243 34.4265 57.6437 33.8211 56.5805C33.2157 55.5173 32.3894 54.5963 31.3979 53.8794C30.1469 52.8492 29.0258 51.6707 28.0594 50.3697C26.0391 47.047 25.0142 43.2146 25.1061 39.327L25.5769 39.541C26.3827 39.8632 27.2128 40.1208 28.0594 40.3115ZM30.713 54.7355C29.5016 53.8145 28.4341 52.7181 27.5458 51.4826C24.9121 47.8304 23.7229 43.3329 24.2073 38.8562L25.0205 39.2414C24.9161 43.196 25.9725 47.0946 28.0594 50.4553C28.9635 51.7668 30.0436 52.9478 31.2695 53.965C32.1876 54.6467 32.9598 55.5055 33.5406 56.4905C34.1213 57.4756 34.4988 58.567 34.6508 59.7004C33.8451 57.6626 32.4236 55.927 30.5846 54.7355H30.713Z" fill="#600000"/>
<path d="M31.6973 52.9808C29.8791 51.2629 28.4293 49.1933 27.436 46.8976C26.4426 44.6019 25.9266 42.1282 25.9191 39.6268C25.9555 42.1235 26.4847 44.5885 27.4763 46.8801C28.4679 49.1718 29.9023 51.245 31.6973 52.9808Z" fill="black"/>
<path d="M34.0514 55.2066C33.4443 53.0597 32.26 51.1203 30.6273 49.5997C28.5496 46.7648 27.3312 43.392 27.1176 39.8838C27.3696 43.4066 28.666 46.7744 30.8413 49.5569C32.4025 51.1152 33.5119 53.0678 34.0514 55.2066Z" fill="black"/>
<path d="M73.6427 29.2262C75.1835 30.5958 76.2107 32.5219 77.5376 33.5063C81.8177 36.7592 88.3235 30.8098 90.3779 22.8916C92.304 15.8722 90.3779 8.12517 84.3858 7.82556C82.1222 7.97854 79.9204 8.62948 77.9375 9.7319C75.9546 10.8343 74.2396 12.361 72.9151 14.2029C73.0746 16.7152 73.003 19.2368 72.701 21.736C72.8572 24.25 73.1717 26.7517 73.6427 29.2262Z" fill="url(#paint4_radial_78_173003)"/>
<path d="M82.0313 28.5841C84.4379 28.033 86.608 26.7339 88.2305 24.8731C89.8529 23.0122 90.8443 20.6853 91.0624 18.2262C91.2119 17.0324 91.2119 15.8246 91.0624 14.6309C90.3776 10.8644 88.2803 8.03949 84.5994 7.86829C82.3161 8.04452 80.0956 8.69967 78.0824 9.79109C76.0691 10.8825 74.3084 12.3857 72.9147 14.2029C73.1406 16.292 73.2264 18.394 73.1715 20.4946C73.3256 23.035 73.6257 25.5645 74.0703 28.0704C76.5652 29.2359 79.4074 29.4193 82.0313 28.5841Z" fill="url(#paint5_radial_78_173003)"/>
<path d="M72.6152 21.5219C72.6384 23.118 72.8104 24.7085 73.1289 26.2728C73.1289 27.1716 73.4285 28.1132 73.5569 29.2261C74.2695 29.9162 74.9277 30.6603 75.5257 31.4517C76.077 32.2159 76.7083 32.919 77.409 33.549C78.1849 34.1717 79.1535 34.5046 80.1483 34.4906C84.1288 34.4906 88.7085 29.3117 90.5061 22.8915C91.1905 20.8329 91.4374 18.6541 91.231 16.4946C91.0247 14.3351 90.3696 12.2425 89.3077 10.3507C88.7566 9.5629 88.0277 8.91597 87.18 8.46236C86.3322 8.00876 85.3896 7.76124 84.4284 7.73987H83.9148C81.7345 7.94208 79.62 8.59421 77.7045 9.65505C75.7891 10.7159 74.1145 12.1624 72.7865 13.9032C73.0019 15.3218 73.0019 16.7648 72.7865 18.1834C72.6673 19.2921 72.6101 20.4067 72.6152 21.5219ZM73.0005 14.2029C74.2932 12.469 75.9375 11.0276 77.8256 9.97284C79.7138 8.91813 81.8033 8.2739 83.9576 8.08228H84.4712C85.4051 8.10373 86.3211 8.34325 87.146 8.78171C87.9709 9.22017 88.6819 9.84542 89.2221 10.6075C90.2733 12.4797 90.9228 14.5503 91.1291 16.6875C91.3355 18.8246 91.0941 20.9812 90.4205 23.0199C88.7085 29.3545 84.1288 34.4906 80.1911 34.4906C79.2454 34.4877 78.3273 34.1716 77.5802 33.5918C76.8578 33.0002 76.2236 32.3084 75.6969 31.5373C75.0989 30.7459 74.4407 30.0018 73.7281 29.3117C73.7281 28.1988 73.4285 27.2572 73.2573 26.3584C72.9558 24.8068 72.7982 23.2308 72.7865 21.6503C72.8018 20.5915 72.8732 19.5342 73.0005 18.483C73.1985 17.0631 73.1985 15.6227 73.0005 14.2029Z" fill="#993300"/>
<path d="M83.701 10.479C79.8167 10.9303 76.1828 12.6271 73.3431 15.3155C76.1863 12.6322 79.8184 10.9362 83.701 10.479Z" fill="#993300"/>
<path d="M86.3974 12.619C82.1096 12.6394 77.9628 14.1528 74.6699 16.8991C77.9872 14.1954 82.1184 12.6877 86.3974 12.619Z" fill="#993300"/>
<path d="M88.1949 15.3585C83.7127 14.9543 79.2374 16.2026 75.6114 18.8682C79.2528 16.2344 83.716 14.9895 88.1949 15.3585Z" fill="#993300"/>
<path d="M89.1796 18.483C84.6789 17.7943 80.0759 18.5589 76.0396 20.6658C80.0941 18.6139 84.6795 17.8521 89.1796 18.483Z" fill="#993300"/>
<path d="M88.3661 21.9072C84.331 22.6175 80.2029 22.6175 76.1678 21.9072C77.8649 22.389 79.6263 22.6056 81.3895 22.5493C83.7289 22.5298 86.0625 22.315 88.3661 21.9072Z" fill="#995000"/>
<path d="M87.0821 24.5606C83.3696 25.1855 79.5599 24.8766 75.9966 23.6617C78.023 24.626 80.2632 25.0534 82.5024 24.903C84.0361 24.9258 85.5688 24.8113 87.0821 24.5606Z" fill="#995000"/>
<path d="M81.946 27.2573C83.1401 27.2487 84.3303 27.1196 85.4985 26.8721C85.4985 26.8721 77.7943 27.9422 75.5687 25.3313C77.3734 26.7587 79.6529 27.4471 81.946 27.2573Z" fill="#993300"/>
<path d="M84.0863 29.3547C82.4555 29.6116 80.7897 29.5395 79.1872 29.1425C77.5848 28.7456 76.0779 28.0319 74.7556 27.0435C76.8891 28.8779 79.6507 29.8138 82.4598 29.6543C83.0135 29.633 83.5613 29.5321 84.0863 29.3547Z" fill="#993300"/>
<path d="M71.8022 4.61532C69.5337 1.70483 54.0397 -0.520827 45.1798 1.06282C38.7168 2.26125 35.0787 5.55694 34.5651 8.25342C42.7597 12.3308 51.1761 15.9461 59.775 19.0821C67.308 20.5374 73.771 7.09779 71.8022 4.61532Z" fill="url(#paint6_linear_78_173003)"/>
<path d="M59.7321 19.1679C60.1161 19.21 60.5036 19.21 60.8877 19.1679C65.1678 19.1679 68.9343 14.631 70.8176 10.6077C72.1872 7.78279 72.6152 5.21472 71.8876 4.27309C70.1328 2.09023 60.8877 -0.00702772 52.1135 -0.00702772C49.7918 -0.0326471 47.4722 0.139172 45.1797 0.506582C38.5455 1.70502 34.993 5.12912 34.4794 7.78279C42.685 12.0315 51.1149 15.8321 59.7321 19.1679ZM45.1797 1.36261C47.4576 0.993255 49.7632 0.821407 52.0707 0.848991C60.6309 0.848991 70.0472 2.77505 71.7164 5.12911C72.4012 6.02794 71.9732 8.46761 70.6464 11.2497C68.7631 15.1018 65.0822 19.5531 60.8449 19.5531H59.7321C51.1713 16.2319 42.7983 12.4455 34.6506 8.2108C35.207 5.64273 38.7167 2.34704 45.1797 1.36261Z" fill="#600000"/>
<path d="M48.2614 2.38965C46.0545 2.56796 43.908 3.19976 41.9564 4.24555C40.0047 5.29133 38.2899 6.72859 36.9191 8.46742C38.3037 6.74351 40.0218 5.31668 41.9708 4.27236C43.9197 3.22803 46.0593 2.58769 48.2614 2.38965Z" fill="#600000"/>
<path d="M53.7399 3.80212C48.8973 3.86856 44.279 5.85441 40.8995 9.32348C44.2817 5.85835 48.8983 3.87323 53.7399 3.80212Z" fill="#600000"/>
<path d="M58.9189 5.6427C58.9189 5.6427 50.0163 5.12909 45.8218 9.92282C50.0591 5.3431 58.8333 5.6427 58.9189 5.6427Z" fill="#600000"/>
<path d="M62.3003 7.8256C57.89 7.54372 53.5308 8.90023 50.0592 11.6349C53.5512 8.9391 57.8953 7.58726 62.3003 7.8256Z" fill="#600000"/>
<path d="M63.7557 9.10986C60.376 11.2709 56.5025 12.5375 52.499 12.7908C56.5156 12.6072 60.4066 11.3349 63.7557 9.10986Z" fill="#600000"/>
<path d="M63.1134 12.619C61.3266 13.9671 59.1455 14.6891 56.9072 14.6735C59.148 14.7054 61.3343 13.9817 63.1134 12.619Z" fill="#600000"/>
<path style="mix-blend-mode:screen" opacity="0.7" d="M34.5651 8.55309C37.7324 2.38972 45.3938 0.934474 52.4132 0.891673C59.4326 0.848871 69.5337 2.51812 70.7749 5.4714C71.5453 7.22625 65.81 16.3857 59.3898 16.5997C54.382 16.7709 31.355 15.1873 34.5651 8.55309Z" fill="url(#paint7_linear_78_173003)"/>
<path style="mix-blend-mode:screen" opacity="0.7" d="M36.6194 7.44029C39.7011 3.16017 53.7399 -1.89037 68.9343 4.82942C52.7982 -0.221124 42.2263 3.63099 36.6194 7.44029Z" fill="url(#paint8_linear_78_173003)"/>
<path d="M64.3117 6.9267C64.5797 7.3349 64.7819 7.78263 64.9109 8.25354C65.1948 10.3994 64.8185 12.5808 63.8322 14.5075C62.8459 16.4342 61.2963 18.015 59.3896 19.0394H59.7748C67.3078 20.4947 73.7708 7.05511 71.8019 4.57264C69.8331 2.09017 58.9616 0.292516 50.0161 0.549323C54.767 1.36255 61.9148 3.2458 64.3117 6.9267Z" fill="url(#paint9_linear_78_173003)"/>
<path d="M71.3314 5.0435C70.834 4.14004 70.0054 3.46488 69.0201 3.16025C66.1692 2.08358 63.1914 1.3787 60.1603 1.06299H59.3899H58.6194H50.0592C54.7673 1.70501 61.9579 3.71666 64.312 7.39756C64.5799 7.80576 64.7821 8.25349 64.9112 8.7244C65.1607 10.061 65.1137 11.4361 64.7735 12.7525C64.4333 14.069 63.8082 15.2946 62.9424 16.343C67.9073 14.203 72.4442 7.44037 71.3314 5.0435Z" fill="url(#paint10_linear_78_173003)"/>
<path d="M71.3314 9.92262C72.273 7.52575 72.5298 5.6425 71.8878 4.70087C71.6774 4.48159 71.4483 4.28108 71.203 4.10165C65.194 1.53376 58.6849 0.348948 52.1565 0.634758H50.0592C55.1953 1.36238 62.0007 3.41683 64.2692 6.96933C64.5531 7.35276 64.7569 7.78947 64.8684 8.25337C65.1601 10.3783 64.7958 12.5416 63.8244 14.4538C62.853 16.3661 61.3207 17.9361 59.4327 18.9537H59.7751C60.1591 18.9957 60.5466 18.9957 60.9307 18.9537C63.3586 18.7852 65.6209 17.6617 67.2225 15.8292C68.6822 14.3863 69.9095 12.7259 70.8606 10.907L71.3742 9.79421L71.3314 9.92262ZM70.8606 3.93045C68.0772 3.7288 65.2817 4.09278 62.6428 5.00048C61.7194 4.2838 60.7136 3.68028 59.6467 3.20283C62.5163 2.48344 65.5039 2.36685 68.4209 2.86042C69.271 3.12631 70.0892 3.48516 70.8606 3.93045ZM52.1565 0.634758C57.3263 0.603903 62.4779 1.25145 67.4793 2.56081C64.7741 2.23736 62.0325 2.41142 59.3899 3.07442C56.6587 1.88129 53.7795 1.06072 50.8296 0.634758H52.1565ZM64.4404 6.88374C63.9879 6.20809 63.4233 5.61462 62.7712 5.12888C65.5266 4.21508 68.438 3.86573 71.3314 4.10165C71.5749 4.26724 71.7914 4.46936 71.9734 4.70087C72.2744 5.18623 72.3956 5.7618 72.3158 6.32732C70.1016 7.46417 67.6566 8.07909 65.168 8.12497C64.959 7.68343 64.7005 7.26703 64.3976 6.88374H64.4404ZM65.0396 8.29618C67.4978 8.22722 69.9099 7.61323 72.1018 6.49853C71.9567 7.60111 71.6689 8.68017 71.2458 9.70862C69.344 10.6562 67.25 11.1541 65.1252 11.1639C65.2979 10.2104 65.254 9.23036 64.9968 8.29618H65.0396ZM63.456 15.3156C63.8279 14.7637 64.1433 14.1757 64.3976 13.5607C65.0512 13.7483 65.7295 13.8348 66.4093 13.8175C67.3682 13.8341 68.3231 13.6894 69.2341 13.3895C68.6201 14.3248 67.9178 15.1991 67.1369 16.0004C65.8594 16.0635 64.5847 15.8291 63.4132 15.3156H63.456ZM60.9307 19.1249H59.8179C61.3149 18.2417 62.5889 17.0262 63.5416 15.5724C64.6144 16.0673 65.7843 16.3159 66.9657 16.3C65.3878 18.0011 63.2056 19.0154 60.8879 19.1249H60.9307ZM70.8606 10.8214C70.4619 11.6384 70.0041 12.4251 69.4909 13.1755C67.924 13.7333 66.2285 13.8226 64.6116 13.4323C64.9031 12.7593 65.1184 12.0559 65.2536 11.3351C67.2866 11.2879 69.2859 10.8063 71.1174 9.92262L70.8606 10.8214Z" fill="#001038"/>
<path d="M30.5417 8.93841C31.141 9.49483 33.7946 8.93841 33.7946 8.93841C33.7946 8.93841 29.9425 4.35869 37.3043 0.378174C29.7285 1.3626 28.5301 7.14076 30.5417 8.93841Z" fill="url(#paint11_linear_78_173003)"/>
<path d="M30.5417 8.9385C31.141 9.49492 32.639 8.68169 32.639 8.68169C32.639 8.68169 29.1293 3.28875 37.3043 0.463867C29.7285 1.36269 28.5301 7.14085 30.5417 8.9385Z" fill="url(#paint12_linear_78_173003)"/>
<path style="mix-blend-mode:screen" opacity="0.7" d="M35.0359 1.10571C31.1838 2.38975 29.5145 5.38583 30.1993 7.8255C30.1993 7.8255 30.5417 7.8255 30.4989 7.52589C30.4441 6.10582 30.8589 4.70726 31.679 3.54667C32.4992 2.38608 33.679 1.52817 35.0359 1.10571Z" fill="url(#paint13_linear_78_173003)"/>
<path d="M31.5261 9.28069C32.3058 9.24183 33.0799 9.12716 33.8374 8.93828C33.4355 8.43944 33.1438 7.86115 32.9815 7.24147C32.8192 6.62179 32.79 5.97477 32.8958 5.34298C33.2199 4.29729 33.772 3.3365 34.5121 2.52979C35.2522 1.72307 36.1619 1.09051 37.1759 0.677645H37.5611H37.1331C35.5471 0.729651 34.0068 1.22148 32.6841 2.09822C31.3614 2.97495 30.3085 4.20208 29.6429 5.64258C29.4127 6.26059 29.3548 6.92954 29.4754 7.57789C29.5961 8.22625 29.8907 8.82963 30.3277 9.32349C30.5196 9.39928 30.7252 9.4346 30.9314 9.42723C31.1376 9.41987 31.3401 9.36998 31.5261 9.28069ZM29.9853 5.38578C30.5774 4.02705 31.5352 2.85943 32.7519 2.01303C33.9686 1.16663 35.3964 0.674693 36.8763 0.592041C35.8666 0.988158 34.9583 1.60498 34.2178 2.39737C33.4772 3.18975 32.9232 4.13767 32.5962 5.17177C32.4889 5.80741 32.5134 6.4583 32.668 7.0841C32.8226 7.70991 33.1041 8.2973 33.495 8.80987C32.7943 8.98566 32.0769 9.08609 31.3549 9.10948C31.0483 9.20495 30.7199 9.20495 30.4133 9.10948C29.9827 8.6002 29.7123 7.97494 29.6361 7.31236C29.56 6.64978 29.6814 5.97948 29.9853 5.38578Z" fill="#001038"/>
<path d="M26.2191 9.49503C26.8183 9.92304 29.1296 9.19542 29.1296 9.19542C29.1296 9.19542 25.3631 5.38612 31.6548 1.49121C25.0207 2.86085 24.3358 7.99699 26.2191 9.49503Z" fill="url(#paint14_linear_78_173003)"/>
<path d="M26.2191 9.49503C26.8183 9.92304 27.9311 9.19542 27.9311 9.19542C27.9311 9.19542 24.721 4.6157 31.6548 1.49121C25.0207 2.86085 24.3358 7.99699 26.2191 9.49503Z" fill="url(#paint15_linear_78_173003)"/>
<path style="mix-blend-mode:screen" opacity="0.7" d="M30.3706 1.96179C26.5185 3.24583 25.1917 5.8995 26.0905 8.33917C26.0905 8.12516 26.4329 8.33917 26.3901 8.03956C25.9193 5.6427 27.0749 3.54544 30.3706 1.96179Z" fill="url(#paint16_linear_78_173003)"/>
<path d="M26.1761 9.5377C26.3963 9.62365 26.6408 9.62365 26.8609 9.5377C27.6306 9.47965 28.3915 9.33609 29.1294 9.10969C28.753 8.68571 28.4646 8.19118 28.2809 7.65481C28.0972 7.11844 28.0219 6.55091 28.0594 5.9852C28.3189 5.05673 28.774 4.19448 29.3941 3.45629C30.0142 2.71809 30.7849 2.12101 31.6547 1.70508L32.0827 1.36267H31.6547C30.2423 1.50304 28.8984 2.03955 27.7777 2.91038C26.657 3.78122 25.8051 4.95094 25.3201 6.28481C25.1429 6.85268 25.1292 7.45898 25.2806 8.03428C25.432 8.60957 25.7424 9.1306 26.1761 9.5377ZM25.4913 6.37041C25.9163 5.13078 26.6779 4.03387 27.6908 3.20239C28.7037 2.3709 29.928 1.83764 31.2267 1.66228C30.4073 2.09819 29.6922 2.70656 29.1307 3.44547C28.5691 4.18438 28.1744 5.03625 27.9738 5.9424C27.9189 6.50928 27.9777 7.08141 28.1467 7.62528C28.3158 8.16914 28.5916 8.6738 28.9582 9.10969C28.2754 9.31465 27.572 9.44383 26.8609 9.4949C26.6656 9.55445 26.457 9.55445 26.2617 9.4949C25.8449 9.10437 25.5503 8.60137 25.4136 8.04681C25.2768 7.49225 25.3038 6.90994 25.4913 6.37041Z" fill="#001038"/>
<path d="M22.8375 11.8917C23.5224 12.1913 25.6624 10.8644 25.6624 10.8644C25.6624 10.8644 20.9115 7.99676 26.2188 2.3042C19.8843 5.64269 20.5263 10.8644 22.8375 11.8917Z" fill="url(#paint17_linear_78_173003)"/>
<path d="M22.8375 11.8917C23.5224 12.1913 23.9932 10.8644 23.9932 10.8644C23.9932 10.8644 20.3551 7.26914 26.2188 2.3042C19.8843 5.64269 20.5263 10.8644 22.8375 11.8917Z" fill="url(#paint18_linear_78_173003)"/>
<path style="mix-blend-mode:screen" opacity="0.7" d="M25.106 3.24573C23.8904 3.84204 22.8979 4.81215 22.274 6.0138C21.65 7.21544 21.4275 8.58538 21.6391 9.92271C21.6391 9.70871 22.1955 9.92271 22.1527 9.5375C21.9891 8.31593 22.1806 7.07309 22.7043 5.95741C23.228 4.84173 24.0618 3.90036 25.106 3.24573Z" fill="url(#paint19_linear_78_173003)"/>
<path d="M22.795 11.9772H23.0946C24.0266 11.7721 24.9121 11.3947 25.7055 10.8643C25.1931 10.5371 24.7564 10.1045 24.4243 9.59524C24.0921 9.08601 23.8723 8.51188 23.7795 7.91106C23.7599 6.88736 23.9687 5.87217 24.3908 4.9393C24.8128 4.00643 25.4374 3.17932 26.2191 2.51811L26.5187 2.21851H26.1335C24.7591 2.72149 23.5552 3.60353 22.6613 4.7625C21.7675 5.92146 21.2203 7.30993 21.083 8.76708C21.0273 9.41041 21.1595 10.0561 21.4633 10.6258C21.7672 11.1956 22.2298 11.665 22.795 11.9772ZM25.8767 2.73212C25.1761 3.39439 24.6262 4.19966 24.2643 5.09327C23.9024 5.98688 23.7371 6.9479 23.7795 7.91106C24.0129 9.08675 24.6673 10.1368 25.6199 10.8643C24.8867 11.3341 24.0747 11.6676 23.223 11.8488C22.7127 11.572 22.2924 11.1548 22.0117 10.6466C21.7311 10.1384 21.6019 9.56043 21.6394 8.98109C21.7111 7.65275 22.1435 6.36907 22.8901 5.26805C23.6367 4.16703 24.6692 3.2903 25.8767 2.73212Z" fill="#001038"/>
<path d="M42.3977 40.3117C53.74 46.6035 66.5804 45.9187 69.448 44.1638C70.2089 44.2446 70.9779 44.1297 71.6819 43.8301C72.386 43.5305 73.0019 43.056 73.4713 42.4518C75.5258 39.0705 72.4441 31.3663 67.95 26.1445C61.7866 19.3819 37.5183 37.5724 42.3977 40.3117Z" fill="url(#paint20_linear_78_173003)"/>
<path d="M43.1682 38.8136C46.3935 41.2247 50.1025 42.9093 54.0404 43.7515C57.9783 44.5938 62.0518 44.5738 65.9812 43.693C67.9929 43.693 71.631 43.0509 72.273 41.9809C74.3275 38.5996 70.4326 29.3974 66.6661 26.1017C60.5027 19.5103 38.8025 35.3039 43.1682 38.8136Z" fill="url(#paint21_linear_78_173003)"/>
<path d="M42.3549 40.3545C48.3609 43.6195 55.079 45.3542 61.915 45.4051C64.503 45.5984 67.0999 45.173 69.4908 44.1638C70.2621 44.2431 71.0407 44.1234 71.7525 43.8162C72.4644 43.509 73.0856 43.0245 73.5569 42.409C75.6542 38.9421 72.4013 31.1095 68.0356 26.0161C67.5155 25.502 66.8907 25.1059 66.2039 24.8548C65.517 24.6037 64.7841 24.5035 64.0551 24.5609C59.1123 25.1464 54.4144 27.0374 50.4443 30.0394C46.8681 32.0647 43.9093 35.0235 41.8841 38.5997C41.7345 38.8992 41.6998 39.2431 41.7866 39.5664C41.8733 39.8897 42.0755 40.1701 42.3549 40.3545ZM41.9269 38.6853C43.9452 35.1038 46.9056 32.1434 50.4871 30.125C54.4312 27.1414 59.1004 25.2649 64.0123 24.6893C64.7139 24.6417 65.4179 24.7387 66.0805 24.9743C66.7431 25.2099 67.3503 25.5791 67.8644 26.0589C72.1445 31.1523 75.4402 38.8993 73.3857 42.2806C72.9296 42.8865 72.3207 43.3604 71.6213 43.6537C70.9219 43.947 70.1571 44.0492 69.4052 43.9498C67.0652 45.0347 64.4875 45.5061 61.915 45.3195C55.1094 45.2442 48.4249 43.5106 42.4405 40.2689C42.1663 40.123 41.9596 39.8763 41.8638 39.5809C41.768 39.2854 41.7906 38.9644 41.9269 38.6853Z" fill="#600000"/>
<path d="M58.4055 41.6384C59.13 41.6483 59.8517 41.5472 60.5456 41.3388C60.5456 41.3388 53.3122 42.3661 50.1877 38.5568C51.2681 39.6134 52.5568 40.4331 53.9718 40.9637C55.3867 41.4943 56.8968 41.7241 58.4055 41.6384Z" fill="#600000"/>
<path d="M58.0203 43.4363C54.1862 43.637 50.42 42.3663 47.4912 39.8838C49.8094 42.0767 52.8611 43.3279 56.0515 43.3935C56.7061 43.45 57.3638 43.4643 58.0203 43.4363Z" fill="#600000"/>
<path d="M61.9153 36.4595C62.6117 36.4703 63.3054 36.3691 63.9697 36.1599C63.9697 36.1599 57.0787 37.1871 54.0826 33.3778C55.0932 34.4199 56.3149 35.234 57.6658 35.7655C59.0166 36.297 60.4655 36.5336 61.9153 36.4595Z" fill="#600000"/>
<path d="M60.2886 39.1132C60.9818 39.1184 61.6726 39.032 62.3431 38.8564C62.3431 38.8564 55.4093 39.8408 52.4132 36.0315C53.4269 37.0815 54.6553 37.9003 56.0145 38.4322C57.3736 38.964 58.8315 39.1963 60.2886 39.1132Z" fill="#600000"/>
<path d="M62.771 33.4636C63.4813 33.4711 64.1885 33.3701 64.8683 33.164C64.8683 33.164 57.9345 34.1913 54.9384 30.382C55.9456 31.4286 57.1667 32.2457 58.5184 32.7775C59.8702 33.3093 61.3207 33.5434 62.771 33.4636Z" fill="#600000"/>
<path d="M62.7711 30.81C63.4642 30.8151 64.155 30.7288 64.8256 30.5531C64.8256 30.5531 57.8918 31.5376 54.8957 27.7283C55.9128 28.7737 57.1417 29.5895 58.5 30.1211C59.8583 30.6526 61.3146 30.8874 62.7711 30.81Z" fill="#600000"/>
<path d="M69.448 44.1637C70.2089 44.2445 70.9779 44.1296 71.6819 43.83C72.386 43.5304 73.0019 43.056 73.4713 42.4517C75.5258 39.0704 72.4441 31.3662 67.95 26.1444C67.4425 25.6526 66.8374 25.2727 66.1738 25.0294C65.5103 24.7861 64.803 24.6848 64.0979 24.732C67.4364 27.8137 67.3936 38.7708 60.8022 45.4906C63.7504 45.8044 66.7296 45.3472 69.448 44.1637Z" fill="url(#paint22_linear_78_173003)"/>
<path d="M72.2729 41.9807C74.3273 38.5994 70.4324 29.3971 66.6659 26.1015C66.0125 25.4275 65.1814 24.9526 64.269 24.7318C67.2651 27.8991 67.3079 37.5722 61.7438 44.292C63.1875 44.242 64.622 44.0412 66.0239 43.6927C67.9928 43.6499 71.6309 43.0507 72.2729 41.9807Z" fill="url(#paint23_linear_78_173003)"/>
<path d="M68.0356 25.9307C67.5157 25.4289 66.8972 25.0405 66.2194 24.79C65.5416 24.5395 64.8192 24.4324 64.0979 24.4755C65.6118 26.3269 66.3756 28.6792 66.2379 31.0669C66.3546 36.294 64.4008 41.3555 60.8022 45.1485H62.0862C64.5973 45.3961 67.1317 45.0592 69.4908 44.164C70.2621 44.2433 71.0407 44.1236 71.7525 43.8164C72.4644 43.5092 73.0856 43.0247 73.5569 42.4092C75.6542 38.8567 72.4013 31.0241 68.0356 25.9307ZM70.09 37.1446C71.2947 37.1755 72.4959 37.0018 73.6425 36.631C73.8473 37.4013 73.9763 38.1897 74.0278 38.9851C71.0567 39.6726 67.9678 39.6726 64.9967 38.9851C65.2637 38.2702 65.4923 37.5415 65.6815 36.8022C67.1394 37.0346 68.6137 37.1491 70.09 37.1446ZM65.8099 36.5454C65.9831 35.9422 66.1119 35.327 66.1951 34.705C67.1876 34.8464 68.1887 34.9179 69.1912 34.919C70.4839 34.9598 71.7735 34.7714 73.0005 34.3626C73.2806 35.0583 73.5095 35.7735 73.6853 36.5026C71.0704 37.1297 68.3459 37.1443 65.7243 36.5454H65.8099ZM66.5803 31.3237C66.5803 30.8529 66.5803 30.3821 66.5803 29.954H68.5064C69.296 29.9552 70.084 29.8836 70.8605 29.74C71.3313 30.4676 71.7165 31.1953 72.1017 31.9229C70.3436 32.4653 68.4872 32.6115 66.666 32.3509L66.5803 31.3237ZM68.1212 26.1447C69.0628 27.2646 69.9211 28.4519 70.6893 29.6972C69.267 29.8559 67.8314 29.8559 66.4091 29.6972C66.3488 27.8588 65.6702 26.0945 64.4831 24.6895C65.7513 24.6822 66.975 25.1564 67.9072 26.0163L68.1212 26.1447ZM66.5803 32.4793H68.4208C69.6676 32.5109 70.9112 32.3374 72.1017 31.9657C72.4441 32.6933 72.7865 33.4209 73.0861 34.1486C70.8979 34.7508 68.6045 34.8677 66.3663 34.491C66.2379 33.8917 66.3235 33.1641 66.5803 32.4793ZM62.3002 45.3197H61.0162C61.643 44.6683 62.2156 43.9669 62.7282 43.2224C64.8389 43.7851 67.0077 44.1011 69.1912 44.164C66.8735 45.0516 64.3921 45.4311 61.915 45.2769L62.3002 45.3197ZM73.8138 42.2808C73.3577 42.8867 72.7487 43.3606 72.0493 43.6539C71.3499 43.9472 70.5851 44.0494 69.8332 43.95C67.5941 43.9132 65.3672 43.6115 63.1991 43.0512C63.5843 42.4948 63.9695 41.8956 64.3119 41.2964C66.3383 41.7358 68.4022 41.9795 70.4753 42.024C71.7222 42.0579 72.9661 41.8843 74.1562 41.5104C73.9543 41.7904 73.7086 42.0361 73.4285 42.238L73.8138 42.2808ZM74.199 41.3392C70.9816 42.1455 67.6149 42.1455 64.3975 41.3392C64.7399 40.6971 65.0395 40.0123 65.3391 39.2847C67.126 39.6681 68.9473 39.8689 70.7749 39.8839C72.0078 39.9179 73.2376 39.7443 74.413 39.3703C74.3251 40.0419 74.1225 40.6934 73.8138 41.2964L74.199 41.3392Z" fill="#001038"/>
<path d="M46.8917 41.1249C60.8449 37.1016 62.6425 28.2845 67.051 27.3857C68.1777 27.2068 69.3296 27.2709 70.4295 27.5735C71.5294 27.8762 72.5519 28.4105 73.4284 29.1405C74.4673 28.2189 75.2956 27.0843 75.8569 25.814C76.4182 24.5437 76.6994 23.1674 76.6813 21.7787C76.6813 20.3108 76.3412 18.8629 75.6877 17.5485C75.0343 16.2341 74.0851 15.089 72.9148 14.2029C70.0471 17.1134 67.7358 19.6815 64.9966 18.2262C53.0978 11.8061 42.6115 7.39754 29.9852 7.35474C20.6973 7.35474 9.78303 17.6698 9.0554 19.0395C8.04262 19.2035 7.12247 19.726 6.46256 20.5116C5.80265 21.2972 5.4469 22.2937 5.4601 23.3196C4.8592 25.0813 3.79465 26.6486 2.37842 27.8565L8.11378 35.8603C14.8336 43.6502 32.8101 45.191 46.8917 41.1249Z" fill="url(#paint24_linear_78_173003)"/>
<path d="M72.9148 14.2029C70.0471 17.1134 67.7358 19.6815 64.9966 18.2262C53.0978 11.8061 42.6115 7.39754 29.9852 7.35474C20.6973 7.35474 9.78303 17.6698 9.0554 19.0395C8.04262 19.2035 7.12247 19.726 6.46256 20.5116C5.80265 21.2972 5.4469 22.2937 5.4601 23.3196C4.85512 25.0551 3.78995 26.5937 2.37842 27.7709L7.89977 35.6035C8.6836 35.9355 9.50182 36.1795 10.3394 36.3311C19.0274 39.0336 28.214 39.7366 37.212 38.3877C46.21 37.0387 54.7866 33.6727 62.3001 28.5413C63.5176 27.4063 64.9832 26.5709 66.5802 26.1017C67.9726 25.8914 69.3937 25.9772 70.7507 26.3533C72.1077 26.7294 73.3702 27.3875 74.4556 28.2845C75.9635 26.4866 76.7828 24.2109 76.7669 21.8643C76.7703 20.3748 76.4234 18.9052 75.7543 17.5744C75.0851 16.2435 74.1125 15.0886 72.9148 14.2029Z" fill="url(#paint25_linear_78_173003)"/>
<g style="mix-blend-mode:screen">
<path d="M45.736 36.4168C63.8409 30.8526 62.8565 26.8721 66.7086 26.1017C68.1011 25.8803 69.5248 25.9607 70.8835 26.3373C72.2423 26.7139 73.5042 27.3779 74.584 28.2845C76.0919 26.4866 76.9112 24.2109 76.8953 21.8643C76.884 20.3637 76.5173 18.8871 75.8255 17.5554C75.1336 16.2238 74.1361 15.0749 72.9148 14.2029C70.0471 17.1134 67.7358 19.6815 64.9966 18.2262C53.0978 11.8061 42.6115 7.39754 29.9852 7.35474C20.6973 7.35474 9.78303 17.6698 9.0554 19.0395C8.04262 19.2035 7.12247 19.726 6.46256 20.5116C5.80265 21.2972 5.4469 22.2937 5.4601 23.3196C4.85512 25.0551 3.78995 26.5937 2.37842 27.7709L7.89977 35.6035C8.69039 35.9163 9.50668 36.1597 10.3394 36.3311C21.9452 39.3214 34.1159 39.3508 45.736 36.4168Z" fill="url(#paint26_radial_78_173003)"/>
</g>
<path style="mix-blend-mode:multiply" opacity="0.4" d="M31.6546 9.53764C31.6546 10.1797 30.7558 10.6505 29.6429 10.6077C28.5301 10.5649 27.6313 9.92285 27.6313 9.40923C27.6313 8.89562 28.5729 8.2964 29.6857 8.3392C30.7986 8.38201 31.6974 8.89562 31.6546 9.53764Z" fill="url(#paint27_linear_78_173003)"/>
<g style="mix-blend-mode:screen">
<path d="M72.915 14.203C70.0473 17.1135 67.7361 19.6816 64.9968 18.2263L60.0319 15.6154C61.4871 17.7127 63.1563 19.6388 64.5688 21.9072C65.4772 23.2765 65.9543 24.8866 65.9384 26.5297H66.7088C68.1012 26.3195 69.5223 26.4053 70.8793 26.7814C72.2363 27.1575 73.4988 27.8156 74.5843 28.7126C76.0922 26.9146 76.9114 24.639 76.8955 22.2924C76.9538 20.7199 76.6206 19.1575 75.9258 17.7456C75.231 16.3336 74.1965 15.1163 72.915 14.203Z" fill="url(#paint28_radial_78_173003)"/>
</g>
<path style="mix-blend-mode:screen" d="M10.1687 23.4907C9.72658 24.1244 9.05673 24.5628 8.29904 24.7144C7.54135 24.8659 6.7544 24.7189 6.10257 24.3039C5.84618 23.9947 5.65459 23.637 5.53921 23.2522C5.42383 22.8674 5.387 22.4634 5.43093 22.0641C5.47485 21.6648 5.59862 21.2784 5.79489 20.9279C5.99115 20.5774 6.2559 20.2699 6.57338 20.0238C6.79315 19.6802 7.08077 19.385 7.41862 19.1565C7.75647 18.9279 8.13743 18.7708 8.53815 18.6946C8.93888 18.6185 9.35093 18.625 9.74906 18.7137C10.1472 18.8024 10.523 18.9715 10.8535 19.2106C11.0987 19.5331 11.276 19.9021 11.3745 20.2951C11.4731 20.6881 11.4909 21.0971 11.4269 21.4972C11.3628 21.8973 11.2183 22.2802 11.0021 22.6229C10.7858 22.9655 10.5023 23.2608 10.1687 23.4907Z" fill="url(#paint29_radial_78_173003)"/>
<path d="M72.9579 13.9031L72.5299 14.2883C70.4326 16.4712 68.5922 18.3544 66.6233 18.3544C66.0804 18.354 65.5478 18.2061 65.0825 17.9264C52.6701 11.2495 42.4834 7.14053 30.0283 7.05493C25.0479 7.50337 20.2976 9.35893 16.3319 12.4051C13.6257 14.1874 11.1774 16.3333 9.05571 18.7825C8.04293 18.9465 7.12278 19.469 6.46287 20.2546C5.80296 21.0402 5.44721 22.0367 5.46041 23.0626C4.83656 24.9167 3.71049 26.5613 2.20752 27.8135L7.98568 35.8601C10.6209 38.5858 13.951 40.5394 17.616 41.5099C22.0248 42.7813 26.5958 43.4013 31.1839 43.3503C36.5515 43.3455 41.8934 42.6112 47.0632 41.1675C53.072 39.4262 58.3946 35.8678 62.3004 30.9808C64.0125 29.0547 65.2537 27.6423 66.9229 27.3855H68.1642C70.0127 27.3803 71.8029 28.0326 73.2147 29.226C74.296 28.2337 75.146 27.016 75.7046 25.659C76.2632 24.3019 76.5168 22.8387 76.4474 21.3728C76.378 19.9069 75.9873 18.4742 75.3029 17.176C74.6186 15.8779 73.6573 14.7459 72.4871 13.8603L72.9579 13.9031ZM73.6427 29.1403C72.183 27.8264 70.299 27.082 68.3354 27.0431C67.9084 27.001 67.4783 27.001 67.0513 27.0431C65.3393 27.2999 64.0125 28.7979 62.3432 30.6812C58.378 35.5747 52.9716 39.0941 46.892 40.7395C41.7373 42.1856 36.4092 42.92 31.0555 42.9223C20.6976 42.9223 12.0518 40.1403 7.94288 35.5177L2.37872 27.8135C3.86722 26.5308 4.98955 24.8768 5.63162 23.0198C5.66765 22.0687 6.01967 21.1567 6.63205 20.428C7.24442 19.6994 8.08219 19.1957 9.01291 18.9965C8.84582 19.254 8.70256 19.5262 8.5849 19.8097C8.8008 19.5212 9.00083 19.2211 9.18411 18.9109C10.0401 17.37 20.9972 7.26893 30.0283 7.26893C42.4406 7.26893 52.6273 11.5491 64.9969 18.0976C65.4861 18.3516 66.0293 18.4838 66.5805 18.4829C68.5922 18.4829 70.4754 16.5996 72.6155 14.4167L72.9151 14.0743C74.0598 14.9441 75.0001 16.0541 75.6699 17.3262C76.3397 18.5983 76.7227 20.0017 76.7921 21.4377C76.8614 22.8737 76.6154 24.3074 76.0713 25.6381C75.5272 26.9689 74.6983 28.1643 73.6427 29.1403Z" fill="#992800"/>
<path d="M36.6194 37.7005C38.0318 37.7005 38.7166 31.5372 38.8878 24.8602C38.8878 21.9497 37.8606 18.7824 37.775 16.2999C37.775 12.7474 38.5026 10.5218 37.775 10.4362C37.0474 10.3506 34.2225 16.514 33.8373 23.2765C33.4521 30.0391 35.2069 37.5293 36.6194 37.7005Z" fill="url(#paint30_linear_78_173003)"/>
<path d="M43.6389 36.417C44.9657 36.417 45.6077 31.1952 45.7361 25.6311C45.7361 23.1486 44.7945 20.4521 44.7517 18.312C44.7517 15.316 45.3937 13.4327 44.7517 13.3471C44.1097 13.2615 41.456 18.4833 41.1136 24.347C40.7712 30.2108 42.312 36.2886 43.6389 36.417Z" fill="url(#paint31_linear_78_173003)"/>
<path d="M50.2305 34.5761C51.5574 34.5761 52.1994 30.296 52.3278 25.5023C52.3278 23.4478 51.3862 21.2221 51.3434 19.3817C51.3434 16.8992 51.9854 15.1016 51.3434 15.1016C50.7013 15.1016 48.0477 19.3817 47.7053 24.3466C47.3629 29.3116 48.9037 34.4477 50.2305 34.5761Z" fill="url(#paint32_linear_78_173003)"/>
<path d="M56.5222 32.6075C57.8491 32.6075 58.4911 29.1406 58.6195 25.4169C58.3781 23.76 58.0495 22.117 57.635 20.4948C57.635 18.4831 58.2771 17.1991 57.635 17.1563C56.993 17.1135 54.3394 20.6232 53.9969 24.5609C53.6545 28.4986 55.1954 32.5219 56.5222 32.6075Z" fill="url(#paint33_linear_78_173003)"/>
<path d="M28.8296 32.0937C30.7984 31.6657 31.0124 14.1172 28.8296 14.6736C27.288 15.9224 26.0568 17.5114 25.2325 19.3159C24.4082 21.1205 24.0132 23.0915 24.0786 25.0743C24.9775 28.4556 27.3315 32.3933 28.8296 32.0937Z" fill="url(#paint34_linear_78_173003)"/>
<path style="mix-blend-mode:multiply" opacity="0.4" d="M66.5803 23.1485C66.5803 23.5766 66.0667 23.919 65.3391 24.0046C64.6114 24.0902 64.0122 23.7906 63.9694 23.3625C63.9266 22.9345 64.483 22.5921 65.2106 22.5493C65.9383 22.5065 66.5803 22.7633 66.5803 23.1485Z" fill="url(#paint35_linear_78_173003)"/>
<path style="mix-blend-mode:multiply" opacity="0.4" d="M73.0434 16.5569C73.0434 16.8137 73.0434 17.2845 72.6154 17.6269C72.1874 17.9693 71.631 18.0549 71.4598 17.6269C71.2886 17.1989 71.4598 16.8993 71.8878 16.5569C72.3158 16.2145 72.8294 16.3001 73.0434 16.5569Z" fill="url(#paint36_linear_78_173003)"/>
<path style="mix-blend-mode:multiply" opacity="0.4" d="M75.1408 19.9382C75.1408 20.1522 74.8412 20.3234 74.456 20.3662C74.0707 20.409 73.7283 20.3662 73.7283 19.981C73.7283 19.5957 74.0279 19.5957 74.4132 19.5529C74.7984 19.5101 75.1408 19.6813 75.1408 19.9382Z" fill="url(#paint37_linear_78_173003)"/>
<path style="mix-blend-mode:multiply" opacity="0.4" d="M71.8876 22.7629C71.8876 22.7629 71.8876 23.0625 71.4168 23.0625C70.946 23.0625 70.8604 22.7629 70.8604 22.7629C70.8604 22.7629 71.0744 22.5061 71.374 22.4633C71.6736 22.4205 71.8876 22.5061 71.8876 22.7629Z" fill="url(#paint38_linear_78_173003)"/>
<path style="mix-blend-mode:multiply" opacity="0.4" d="M75.6971 23.3623C75.6971 23.3623 75.4831 23.6619 75.1835 23.6619C74.8839 23.6619 74.6699 23.6619 74.6699 23.4051C74.6699 23.1483 74.8839 23.1055 75.1835 23.1055C75.4831 23.1055 75.6971 23.1911 75.6971 23.3623Z" fill="url(#paint39_linear_78_173003)"/>
<path style="mix-blend-mode:multiply" opacity="0.4" d="M68.806 20.1095C68.806 20.3236 68.592 20.5376 68.2068 20.6232C67.8216 20.7088 67.4792 20.6232 67.4364 20.3664C67.3936 20.1096 67.6504 19.9383 68.0356 19.8527C68.4208 19.7671 68.7632 19.8955 68.806 20.1095Z" fill="url(#paint40_linear_78_173003)"/>
<path style="mix-blend-mode:multiply" opacity="0.4" d="M72.915 26.0161C72.915 26.0161 72.4442 26.2729 72.1017 26.0161C71.7593 25.7593 71.5025 25.5881 71.5881 25.3741C71.6737 25.1601 72.0161 25.1173 72.4013 25.3741C72.7866 25.6309 72.9578 25.8449 72.915 26.0161Z" fill="url(#paint41_linear_78_173003)"/>
<path style="mix-blend-mode:multiply" opacity="0.4" d="M17.8727 34.448C17.8727 34.7904 17.1023 35.0044 16.289 34.8332C15.4758 34.662 14.8766 34.3196 14.9194 33.9344C14.9622 33.5492 15.6898 33.378 16.503 33.5064C17.3163 33.6348 17.9155 34.0628 17.8727 34.448Z" fill="url(#paint42_linear_78_173003)"/>
<path style="mix-blend-mode:multiply" opacity="0.4" d="M30.1138 8.59613C30.1138 8.98134 29.5146 9.36654 28.7014 9.45215C27.8882 9.53775 27.2033 9.45215 27.1605 8.93854C27.1177 8.42492 27.7597 8.16811 28.573 8.08251C29.3862 7.99691 30.071 8.25372 30.1138 8.59613Z" fill="url(#paint43_linear_78_173003)"/>
<path style="mix-blend-mode:multiply" opacity="0.4" d="M51.2148 13.7321C51.2148 14.0745 50.4016 14.2029 49.5884 13.9889C48.7752 13.7749 48.2188 13.3469 48.3472 12.9617C48.4756 12.5765 49.1604 12.4909 49.9308 12.7049C50.7012 12.9189 51.3004 13.3469 51.2148 13.7321Z" fill="url(#paint44_linear_78_173003)"/>
<path style="mix-blend-mode:multiply" opacity="0.4" d="M21.6821 30.4247C22.7931 30.4247 23.6938 29.9073 23.6938 29.269C23.6938 28.6308 22.7931 28.1134 21.6821 28.1134C20.5711 28.1134 19.6705 28.6308 19.6705 29.269C19.6705 29.9073 20.5711 30.4247 21.6821 30.4247Z" fill="url(#paint45_linear_78_173003)"/>
<path style="mix-blend-mode:multiply" opacity="0.4" d="M40.0865 18.868C40.8902 18.868 41.5418 18.5039 41.5418 18.0548C41.5418 17.6057 40.8902 17.2416 40.0865 17.2416C39.2828 17.2416 38.6313 17.6057 38.6313 18.0548C38.6313 18.5039 39.2828 18.868 40.0865 18.868Z" fill="url(#paint46_linear_78_173003)"/>
<path style="mix-blend-mode:multiply" opacity="0.4" d="M26.219 13.4754C26.219 14.0747 25.5769 14.8023 24.5069 15.0591C23.4369 15.3159 22.4097 15.0591 22.2813 14.3743C22.1528 13.6894 22.8805 13.0902 23.9933 12.8334C25.1061 12.5766 26.0478 12.8762 26.219 13.4754Z" fill="url(#paint47_linear_78_173003)"/>
<path style="mix-blend-mode:multiply" opacity="0.4" d="M37.9462 9.58039C37.9462 10.1796 36.9618 10.6076 35.849 10.522C34.7361 10.4364 33.8801 9.88 33.9229 9.23798C33.9657 8.59596 34.9502 8.16795 36.0202 8.25356C37.0902 8.33916 37.989 8.93837 37.9462 9.58039Z" fill="url(#paint48_linear_78_173003)"/>
<path style="mix-blend-mode:multiply" opacity="0.4" d="M23.3511 37.6152C23.3511 37.872 22.8803 38.0432 22.3667 37.9576C21.853 37.872 21.4678 37.6152 21.5106 37.3156C21.5534 37.016 22.0242 36.8448 22.4951 36.9304C22.9659 37.016 23.3939 37.3156 23.3511 37.6152Z" fill="url(#paint49_linear_78_173003)"/>
<path style="mix-blend-mode:multiply" opacity="0.4" d="M49.2032 32.7359C49.2032 33.0355 48.818 33.2923 48.3044 33.3351C47.7907 33.3779 47.3627 33.3351 47.3627 32.8643C47.3627 32.3935 47.7479 32.3079 48.2616 32.2651C48.7752 32.2223 49.2032 32.4791 49.2032 32.7359Z" fill="url(#paint50_linear_78_173003)"/>
<path style="mix-blend-mode:multiply" opacity="0.4" d="M33.4525 13.7321C33.4525 14.0317 33.0672 14.2457 32.5536 14.2457C32.04 14.2457 31.612 14.0317 31.612 13.7321C31.612 13.4325 32.04 13.2185 32.5536 13.2185C33.0672 13.2185 33.4525 13.4325 33.4525 13.7321Z" fill="url(#paint51_linear_78_173003)"/>
<path style="mix-blend-mode:multiply" opacity="0.4" d="M17.8299 14.2029C17.8299 14.5025 17.6159 14.8449 17.1023 15.0161C16.5887 15.1873 16.1607 15.0161 16.0751 14.8021C15.9895 14.5881 16.0751 14.1601 16.7599 14.0317C17.4447 13.9033 17.7443 13.9461 17.8299 14.2029Z" fill="url(#paint52_linear_78_173003)"/>
<path style="mix-blend-mode:multiply" opacity="0.4" d="M22.538 10.1795C22.538 10.4363 22.538 10.8215 21.9388 11.0355C21.3395 11.2495 20.9971 11.0355 20.8687 11.0355C20.7403 11.0355 20.8687 10.3935 21.4679 10.1795C22.0672 9.96548 22.4096 9.92267 22.538 10.1795Z" fill="url(#paint53_linear_78_173003)"/>
<path style="mix-blend-mode:multiply" opacity="0.4" d="M45.7363 10.6504C45.7363 10.9072 45.2227 11.0784 44.7519 10.9928C44.2811 10.9072 43.853 10.6076 43.8958 10.3508C43.9386 10.094 44.4095 9.87998 44.9231 9.96558C45.4367 10.0512 45.7791 10.3508 45.7363 10.6504Z" fill="url(#paint54_linear_78_173003)"/>
<path style="mix-blend-mode:multiply" opacity="0.4" d="M28.0594 33.5918C28.0594 33.8914 27.717 34.1482 27.2034 34.191C26.6898 34.2338 26.2618 34.191 26.219 33.763C26.1762 33.335 26.6042 33.2066 27.1178 33.1638C27.6314 33.121 28.0594 33.335 28.0594 33.5918Z" fill="url(#paint55_linear_78_173003)"/>
<path style="mix-blend-mode:multiply" opacity="0.4" d="M32.9815 23.8331C32.9815 24.1327 32.5963 24.3895 32.0827 24.4323C31.5691 24.4751 31.1411 24.4323 31.1411 23.9615C31.1411 23.4907 31.5263 23.4051 32.0399 23.3623C32.5535 23.3195 32.9815 23.5335 32.9815 23.8331Z" fill="url(#paint56_linear_78_173003)"/>
<path style="mix-blend-mode:multiply" opacity="0.4" d="M35.5924 33.0782C35.5924 33.3778 35.2072 33.6346 34.6936 33.6774C34.18 33.7202 33.752 33.6774 33.7092 33.2066C33.6664 32.7358 34.0944 32.6502 34.608 32.6074C35.1216 32.5646 35.5496 32.7786 35.5924 33.0782Z" fill="url(#paint57_linear_78_173003)"/>
<path style="mix-blend-mode:multiply" opacity="0.4" d="M47.2344 24.0901C47.2344 24.3041 46.9348 24.4753 46.5924 24.5181C46.25 24.5609 45.8648 24.5181 45.8648 24.1757C45.8648 23.8333 46.1216 23.7905 46.5068 23.7477C46.892 23.7049 47.1916 23.8761 47.2344 24.0901Z" fill="url(#paint58_linear_78_173003)"/>
<path style="mix-blend-mode:multiply" opacity="0.4" d="M41.756 36.2455C41.756 36.5451 41.3707 36.8019 40.8571 36.8447C40.3435 36.8875 39.9155 36.8447 39.8727 36.4167C39.8299 35.9887 40.2579 35.8603 40.7715 35.8175C41.2851 35.7747 41.7132 35.9887 41.756 36.2455Z" fill="url(#paint59_linear_78_173003)"/>
<path style="mix-blend-mode:multiply" opacity="0.4" d="M41.5845 12.662C41.5845 12.9188 41.1565 13.0472 40.7285 12.9616C40.3005 12.876 40.0437 12.6192 40.0865 12.3624C40.1293 12.1056 40.4717 12.02 40.8997 12.1056C41.3277 12.1912 41.6273 12.448 41.5845 12.662Z" fill="url(#paint60_linear_78_173003)"/>
<path style="mix-blend-mode:multiply" opacity="0.4" d="M47.0201 13.7322C47.0201 13.7322 46.7633 13.989 46.5065 13.7322C46.2497 13.4754 46.0357 13.5182 46.0357 13.3898C46.0357 13.2614 46.3353 13.133 46.5921 13.1758C46.8489 13.2186 47.0629 13.6038 47.0201 13.7322Z" fill="url(#paint61_linear_78_173003)"/>
<path style="mix-blend-mode:multiply" opacity="0.4" d="M22.4095 20.8802C22.4095 21.1798 22.1099 21.4794 21.6391 21.6078C21.1683 21.7362 20.6547 21.6078 20.6119 21.2654C20.5691 20.923 20.9115 20.6662 21.4251 20.5806C21.9387 20.495 22.3667 20.6234 22.4095 20.8802Z" fill="url(#paint62_linear_78_173003)"/>
<path d="M33.4952 54.6502C37.7753 57.9887 40.8998 56.9615 44.4095 61.9692C46.1643 57.6891 40.5574 47.1172 30.4991 41.9383C29.5156 42.0001 28.5293 42.0001 27.5458 41.9383L25.577 41.6387C26.5314 46.8002 29.3494 51.4309 33.4952 54.6502Z" fill="url(#paint63_linear_78_173003)"/>
<path d="M33.4952 54.6502C36.7909 57.2611 40.001 57.2611 42.7402 59.6152C42.855 57.9285 42.4678 56.2456 41.6274 54.7786C39.8298 51.4401 34.7792 51.0977 30.0711 41.9383C29.2315 42.0241 28.3854 42.0241 27.5458 41.9383L25.577 41.6387C26.5314 46.8002 29.3494 51.4309 33.4952 54.6502Z" fill="url(#paint64_linear_78_173003)"/>
<path style="mix-blend-mode:screen" opacity="0.4" d="M27.0322 45.4052C31.3123 55.9343 39.6157 56.1483 42.569 59.3584C43.2538 54.6075 33.4951 51.0122 30.6275 44.164C29.6002 41.7671 25.4913 41.4247 27.0322 45.4052Z" fill="url(#paint65_radial_78_173003)"/>
<path style="mix-blend-mode:screen" opacity="0.4" d="M26.6898 42.6656C27.081 46.0682 28.5309 49.262 30.8347 51.7962C33.1386 54.3305 36.1802 56.0773 39.5301 56.79C36.4159 55.6348 33.6245 53.7491 31.3901 51.2913C29.1558 48.8335 27.5439 45.8755 26.6898 42.6656Z" fill="url(#paint66_linear_78_173003)"/>
<path d="M41.9269 52.3388C39.1159 47.9064 35.1899 44.2903 30.5418 41.8525C29.5586 41.9205 28.5718 41.9205 27.5885 41.8525C26.9266 41.7946 26.2689 41.6945 25.6197 41.5529C26.5555 46.7672 29.3921 51.4492 33.5807 54.6928C34.9895 55.802 36.5638 56.6831 38.246 57.3037C40.7783 58.144 42.9607 59.7997 44.4522 62.0118C44.7524 60.3127 44.6822 58.5689 44.2464 56.8994C43.8106 55.2299 43.0194 53.6743 41.9269 52.3388ZM27.8026 41.9381C28.6776 44.7209 30.1124 47.2954 32.0187 49.5035C33.9251 51.7116 36.2627 53.5067 38.8881 54.7784C33.6958 52.1091 29.7717 47.4925 27.9738 41.9381H29.3434C30.7938 45.7569 33.3215 49.0725 36.6196 51.4827C38.8951 52.6347 40.8175 54.3796 42.1838 56.5333C40.8942 54.285 38.9545 52.4795 36.6196 51.3543C33.4071 48.9882 30.9411 45.7498 29.5146 42.0237H30.071C32.9717 44.349 35.4979 47.1062 37.5612 50.1987C35.6237 47.0758 33.1622 44.3102 30.285 42.0237C34.9121 44.4558 38.8224 48.0562 41.6273 52.4672C42.6659 53.7679 43.4323 55.2643 43.8808 56.8672C44.3293 58.4702 44.4509 60.1469 44.2382 61.7978C43.7414 60.4632 42.9536 59.2559 41.9319 58.2639C40.9102 57.2718 39.6803 56.5198 38.3316 56.0625C36.6398 55.3238 35.056 54.3591 33.6235 53.1948C30.2857 50.171 27.8927 46.2471 26.7325 41.8953H27.3317L27.8026 41.9381ZM38.1604 57.0041C36.4985 56.3871 34.9398 55.5212 33.5379 54.436C29.4434 51.2517 26.6448 46.6887 25.6625 41.5957H26.7325C27.886 46.0193 30.3117 50.0075 33.7091 53.0664C35.1483 54.2213 36.7308 55.1851 38.4172 55.9341C39.6924 56.369 40.8599 57.0713 41.8417 57.994C42.8234 58.9167 43.5967 60.0385 44.1098 61.2842C42.6143 59.2794 40.5367 57.7847 38.1604 57.0041Z" fill="#600000"/>
<path d="M1.77946 30.6386C2.77058 31.116 3.6356 31.8198 4.30473 32.693C4.77554 34.5335 3.2775 36.7163 5.24635 37.658C6.1648 38.0279 7.1784 38.0902 8.13524 37.8356C9.09209 37.5809 9.94063 37.0231 10.5537 36.2455L4.21913 28.6697C4.21913 28.6697 2.72108 26.7865 1.39425 27.8565C1.182 28.0385 1.01886 28.2708 0.919788 28.5322C0.820717 28.7937 0.788894 29.0758 0.827237 29.3527C0.865581 29.6296 0.972864 29.8925 1.13924 30.1172C1.30562 30.3418 1.52576 30.5211 1.77946 30.6386Z" fill="url(#paint67_linear_78_173003)"/>
<path d="M1.77946 30.6386C2.77058 31.116 3.6356 31.8198 4.30473 32.693C4.77554 34.5335 3.1919 36.6307 5.16075 37.5724C7.12961 38.514 10.5537 36.2455 10.5537 36.2455L11.2813 29.1833L4.21913 28.6697C4.21913 28.6697 2.72108 26.7865 1.39425 27.8565C1.182 28.0385 1.01886 28.2708 0.919788 28.5322C0.820717 28.7937 0.788894 29.0758 0.827237 29.3527C0.865581 29.6296 0.972864 29.8925 1.13924 30.1172C1.30562 30.3418 1.52576 30.5211 1.77946 30.6386Z" fill="url(#paint68_linear_78_173003)"/>
<g style="mix-blend-mode:screen">
<path d="M1.77946 30.6386C2.77058 31.116 3.6356 31.8198 4.30473 32.693C4.77554 34.5335 3.2347 36.5879 5.20355 37.5296C7.17241 38.4712 10.5537 36.2455 10.5537 36.2455L11.2813 29.1833L4.21913 28.6697C4.21913 28.6697 2.72108 26.7865 1.39425 27.8565C1.182 28.0385 1.01886 28.2708 0.919788 28.5322C0.820717 28.7937 0.788894 29.0758 0.827237 29.3527C0.865581 29.6296 0.972864 29.8925 1.13924 30.1172C1.30562 30.3418 1.52576 30.5211 1.77946 30.6386Z" fill="url(#paint69_radial_78_173003)"/>
</g>
<path style="mix-blend-mode:screen" d="M4.56132 29.5257C4.49202 29.9573 4.27476 30.3513 3.94678 30.6402C3.6188 30.9291 3.20053 31.095 2.76367 31.1093C2.26166 31.0067 1.80185 30.7562 1.44336 30.39C1.08487 30.0239 0.844101 29.5589 0.752014 29.0549C0.773957 28.6385 0.954954 28.2465 1.25763 27.9598C1.5603 27.673 1.96153 27.5135 2.37846 27.514C2.89922 27.599 3.38361 27.8349 3.77162 28.1925C4.15963 28.55 4.4342 29.0136 4.56132 29.5257Z" fill="url(#paint70_radial_78_173003)"/>
<path style="mix-blend-mode:screen" d="M7.08696 31.3235C6.74066 31.7113 6.31943 32.025 5.84865 32.2457C5.37788 32.4663 4.8673 32.5894 4.34769 32.6075C4.7757 34.448 3.27766 36.4596 5.20371 37.4013C7.12976 38.3429 10.5539 36.1172 10.5539 36.1172L7.08696 31.3235Z" fill="url(#paint71_radial_78_173003)"/>
<path d="M1.73659 30.6815C2.71364 31.1809 3.57419 31.881 4.26186 32.736C4.36854 33.4167 4.36854 34.1098 4.26186 34.7905C4.26186 35.9889 3.96225 37.1017 5.28909 37.7437C5.8355 38.0087 6.4368 38.1407 7.04393 38.129C7.7365 38.0882 8.4122 37.8989 9.02516 37.574C9.63812 37.249 10.174 36.796 10.5964 36.2457C9.97511 36.9994 9.1291 37.5346 8.18197 37.7733C7.23484 38.012 6.23619 37.9417 5.33189 37.5725C4.13345 37.0161 4.26186 35.9889 4.43306 34.7905C4.56099 34.0972 4.56099 33.3864 4.43306 32.6932C3.74342 31.8121 2.86615 31.0956 1.86499 30.5959C1.6116 30.4575 1.39434 30.2614 1.23076 30.0235C1.06718 29.7855 0.961878 29.5125 0.923363 29.2263C0.90413 28.9893 0.945043 28.7513 1.04231 28.5343C1.13958 28.3173 1.29005 28.1284 1.47978 27.9851C2.76381 26.9578 4.21906 28.6699 4.26186 28.7127C4.30466 28.7555 2.76381 26.701 1.39418 27.8567C1.18422 28.0159 1.01609 28.2237 0.904254 28.4623C0.792417 28.7009 0.740222 28.9631 0.752158 29.2263C0.789079 29.5296 0.897605 29.8197 1.06878 30.0727C1.23994 30.3257 1.46885 30.5344 1.73659 30.6815Z" fill="#992800"/>
<g style="mix-blend-mode:screen" opacity="0.3">
<path d="M12.0089 35.6036C16.9739 39.4557 27.4174 39.8838 37.3044 38.3857C46.8363 36.7795 55.88 33.0333 63.7556 27.4286C65.8956 25.5026 57.3782 20.4948 49.1604 18.8684C41.6449 17.5903 33.9444 17.9112 26.5613 19.81C20.1412 21.4364 7.34361 30.9383 12.0089 35.6036Z" fill="url(#paint72_radial_78_173003)"/>
</g>
<path style="mix-blend-mode:screen" opacity="0.7" d="M57.4637 14.8023C46.5066 8.8529 31.2266 5.64281 23.7791 8.8529C20.4114 10.1716 17.2538 11.9739 14.4057 14.2031C12.3317 15.6946 10.3848 17.3553 8.58473 19.168C7.77682 19.3813 7.06018 19.8516 6.54291 20.5078C6.02564 21.1641 5.73578 21.9707 5.71705 22.8061C5.14748 24.593 4.16507 26.2205 2.84937 27.557C3.40578 27.557 5.63144 29.7399 7.7715 30.0395C16.4633 30.9016 25.2138 31.0018 33.923 30.3391C41.9988 29.4551 49.8931 27.348 57.3353 24.0901C59.6894 22.4209 66.1951 19.5532 57.4637 14.8023Z" fill="url(#paint73_linear_78_173003)"/>
<path style="mix-blend-mode:screen" opacity="0.5" d="M13.507 15.8721C23.9076 7.3119 35.25 5.25745 56.3082 15.4013C39.7441 9.10956 28.0594 7.78271 13.507 15.8721Z" fill="url(#paint74_linear_78_173003)"/>
<path d="M16.3746 21.4364C16.6742 17.8839 13.1217 16.5143 11.5381 18.6971C12.0302 18.4598 12.5725 18.3452 13.1185 18.3631C13.6646 18.3811 14.1982 18.5312 14.6736 18.8004C15.149 19.0697 15.5521 19.4501 15.8483 19.9092C16.1446 20.3683 16.3251 20.8923 16.3746 21.4364Z" fill="black"/>
<path d="M9.9972 24.1757C9.95608 24.5851 9.99857 24.9987 10.1221 25.3912C10.2456 25.7838 10.4475 26.1472 10.7157 26.4594C10.9838 26.7716 11.3126 27.026 11.682 27.2073C12.0515 27.3886 12.4539 27.493 12.8649 27.5141C13.2703 27.4767 13.6643 27.3592 14.024 27.1686C14.3838 26.978 14.7022 26.7179 14.9609 26.4035C15.2196 26.0891 15.4134 25.7266 15.5312 25.3369C15.6489 24.9471 15.6883 24.5379 15.647 24.1329C15.647 21.9928 14.4057 20.3663 12.7365 20.4092C11.0672 20.452 9.9972 22.164 9.9972 24.1757Z" fill="black"/>
<path style="mix-blend-mode:multiply" d="M15.7753 23.6621C15.7753 25.8021 14.3629 27.557 12.7364 27.5142C11.11 27.4714 9.86873 25.6737 9.91154 23.5337C9.95434 21.3936 11.324 19.6388 12.9504 19.6816C14.5769 19.7244 15.8181 21.4792 15.7753 23.6621Z" fill="url(#paint75_linear_78_173003)"/>
<path d="M10.0827 24.2187C10.0341 25.0204 10.2959 25.8099 10.8139 26.4236C11.332 27.0373 12.0664 27.4279 12.8648 27.5144C13.6329 27.3626 14.3245 26.9489 14.8216 26.3439C15.3186 25.739 15.5903 24.9803 15.5903 24.1973C15.5903 23.4144 15.3186 22.6557 14.8216 22.0507C14.3245 21.4458 13.6329 21.0321 12.8648 20.8802C12.0541 20.9563 11.3064 21.3501 10.7851 21.9756C10.2639 22.6012 10.0113 23.4076 10.0827 24.2187Z" fill="url(#paint76_radial_78_173003)"/>
<path style="mix-blend-mode:screen" opacity="0.9" d="M11.7948 21.5649C11.8031 21.6913 11.8543 21.8111 11.9399 21.9045C12.0255 21.9979 12.1404 22.0593 12.2656 22.0785C12.3309 22.0845 12.3968 22.0767 12.459 22.0557C12.5211 22.0348 12.5782 22.001 12.6266 21.9567C12.6749 21.9124 12.7135 21.8584 12.7398 21.7983C12.7661 21.7382 12.7795 21.6733 12.7792 21.6077C12.7852 21.5424 12.7774 21.4765 12.7565 21.4143C12.7355 21.3522 12.7018 21.2951 12.6574 21.2467C12.6131 21.1984 12.5592 21.1598 12.499 21.1335C12.4389 21.1072 12.374 21.0938 12.3084 21.0941C12.0516 21.0513 11.8376 21.2653 11.7948 21.5649Z" fill="url(#paint77_radial_78_173003)"/>
<path d="M9.99735 24.2185C9.92484 23.3981 10.1748 22.5817 10.6942 21.9424C11.2135 21.3032 11.9615 20.8914 12.7794 20.7944C13.5688 20.9485 14.28 21.3722 14.7913 21.9929C15.3026 22.6137 15.5822 23.3929 15.5822 24.1971C15.5822 25.0014 15.3026 25.7806 14.7913 26.4013C14.28 27.0221 13.5688 27.4458 12.7794 27.5998C11.978 27.4836 11.2488 27.0727 10.7343 26.4474C10.2198 25.822 9.95701 25.0273 9.99735 24.2185ZM9.99735 24.2185C9.93767 25 10.1865 25.7737 10.6906 26.3737C11.1947 26.9738 11.9138 27.3525 12.6938 27.4286C13.4407 27.279 14.1127 26.8753 14.5955 26.2862C15.0783 25.697 15.3422 24.9588 15.3422 24.1971C15.3422 23.4354 15.0783 22.6972 14.5955 22.1081C14.1127 21.519 13.4407 21.1153 12.6938 20.9656C11.9369 21.0823 11.2534 21.4845 10.7838 22.0895C10.3141 22.6944 10.094 23.4563 10.1686 24.2185H9.99735Z" fill="black"/>
<path d="M14.9195 24.6038C14.931 24.8905 14.8858 25.1766 14.7866 25.4459C14.6873 25.7151 14.536 25.9621 14.3412 26.1728C14.1464 26.3835 13.912 26.5537 13.6513 26.6738C13.3907 26.7938 13.109 26.8612 12.8222 26.8722C12.2623 26.7873 11.7558 26.4921 11.4059 26.0468C11.056 25.6015 10.889 25.0395 10.939 24.4754C10.9275 24.1887 10.9727 23.9025 11.0719 23.6333C11.1712 23.364 11.3225 23.117 11.5173 22.9063C11.7121 22.6956 11.9465 22.5254 12.2071 22.4054C12.4678 22.2854 12.7495 22.2179 13.0362 22.2069C13.5962 22.2918 14.1027 22.587 14.4526 23.0323C14.8025 23.4777 14.9695 24.0396 14.9195 24.6038Z" fill="url(#paint78_radial_78_173003)"/>
<path d="M12.9507 23.0627C13.1589 23.0789 13.3618 23.1362 13.5478 23.2311C13.7339 23.3261 13.8992 23.4569 14.0345 23.616C14.1698 23.7751 14.2722 23.9594 14.3359 24.1583C14.3997 24.3572 14.4235 24.5667 14.4059 24.7748C14.3951 25.2027 14.2202 25.6102 13.9175 25.9129C13.6148 26.2156 13.2074 26.3904 12.7795 26.4012C12.5712 26.385 12.3683 26.3278 12.1823 26.2329C11.9963 26.1379 11.8309 26.0071 11.6956 25.848C11.5604 25.6889 11.4579 25.5046 11.3942 25.3057C11.3304 25.1068 11.3067 24.8973 11.3242 24.6892C11.3351 24.2612 11.5099 23.8538 11.8126 23.5511C12.1153 23.2484 12.5227 23.0736 12.9507 23.0627Z" fill="black"/>
<path style="mix-blend-mode:screen" opacity="0.5" d="M14.577 24.2614C14.5663 24.3673 14.5166 24.4655 14.4374 24.5367C14.3583 24.6079 14.2554 24.6471 14.149 24.6466C14.149 24.6466 13.7637 24.4326 13.8065 24.2614C13.8062 24.2126 13.8162 24.1642 13.836 24.1196C13.8559 24.075 13.885 24.0352 13.9215 24.0027C13.9579 23.9703 14.0009 23.9461 14.0475 23.9316C14.0942 23.9172 14.1433 23.9128 14.1918 23.9189C14.4486 23.9189 14.6198 24.0902 14.577 24.2614Z" fill="url(#paint79_radial_78_173003)"/>
<path style="mix-blend-mode:screen" d="M12.2659 22.7631C11.7523 23.0199 11.4099 23.4907 11.5811 23.7903C11.7523 24.09 12.2231 24.1756 12.7795 23.7903C13.3359 23.4051 13.5928 23.0627 13.4643 22.7631C13.3359 22.4635 12.7795 22.4207 12.2659 22.7631Z" fill="url(#paint80_linear_78_173003)"/>
<path d="M5.63163 35.6035C5.63163 36.6307 6.83006 36.6735 7.51488 36.4167C8.43918 35.9788 9.17612 35.2244 9.59224 34.2901C10.0084 33.3557 10.0762 32.3033 9.78334 31.3233L8.49931 31.0665C8.49931 31.3661 7.81449 31.3661 7.51488 31.3661C6.57579 31.4638 5.6291 31.4638 4.69 31.3661C5.15337 31.879 5.51633 32.4742 5.76003 33.121C6.05964 33.6346 5.54603 34.7046 5.63163 35.6035Z" fill="url(#paint81_radial_78_173003)"/>
<path d="M7.51484 36.2026C8.21159 35.9007 8.80747 35.4059 9.23216 34.7764C9.65685 34.147 9.89264 33.4092 9.91171 32.6501C9.52931 32.4734 9.09699 32.4365 8.69021 32.5461C8.28343 32.6556 7.92803 32.9045 7.68605 33.2493C7.38557 33.1045 7.04784 33.0556 6.71862 33.1092C6.38941 33.1628 6.08463 33.3163 5.8456 33.5489C5.72054 34.155 5.64893 34.7708 5.63159 35.3894C5.8028 36.4166 6.65882 36.4594 7.51484 36.2026Z" fill="url(#paint82_radial_78_173003)"/>
<path d="M7.51476 36.2026C8.54199 35.7318 10.3824 34.0197 9.31241 33.2493C8.24238 32.4789 7.77157 32.9925 6.91555 34.9185C6.91555 34.9185 7.55756 33.5489 7.51476 33.5489C7.25946 33.4284 6.97239 33.3925 6.69528 33.4464C6.41818 33.5003 6.16548 33.6412 5.97392 33.8485C5.6825 34.306 5.56129 34.8515 5.63151 35.3894C5.80271 36.4166 6.65874 36.4594 7.51476 36.2026Z" fill="url(#paint83_radial_78_173003)"/>
<g style="mix-blend-mode:screen">
<path d="M6.91548 34.9184C6.91548 34.9184 7.5575 33.5488 7.5147 33.5488C7.2594 33.4283 6.97233 33.3924 6.69522 33.4463C6.41811 33.5002 6.16542 33.641 5.97386 33.8484C5.68244 34.3059 5.56123 34.8513 5.63145 35.3892C5.6638 35.6656 5.80257 35.9186 6.01832 36.0944C6.23407 36.2702 6.50983 36.355 6.78708 36.3308C6.68642 35.8579 6.73118 35.3655 6.91548 34.9184Z" fill="url(#paint84_radial_78_173003)"/>
<path d="M9.31229 33.2493C8.75588 32.8641 7.77145 32.9925 6.91542 34.9185C6.77355 35.3787 6.77355 35.8709 6.91542 36.331C7.15595 36.3752 7.40252 36.3752 7.64304 36.331C8.54187 35.6034 10.3823 34.0197 9.31229 33.2493Z" fill="url(#paint85_radial_78_173003)"/>
</g>
<path d="M9.18401 32.3933C8.89008 32.3972 8.60042 32.4643 8.3346 32.5898C8.06878 32.7153 7.833 32.8964 7.64317 33.1209C7.432 33.0716 7.21232 33.0716 7.00115 33.1209C6.57043 33.1268 6.15778 33.295 5.84552 33.5917C5.98679 33.4532 6.15407 33.3441 6.33773 33.2707C6.52138 33.1972 6.71777 33.1608 6.91555 33.1637C7.09778 33.1146 7.28974 33.1146 7.47197 33.1637C7.21563 33.6881 7.00096 34.232 6.82995 34.7901C7.07607 34.2282 7.36215 33.6847 7.68597 33.1637C7.83953 32.9317 8.05001 32.743 8.2973 32.6157C8.54458 32.4883 8.82041 32.4264 9.09841 32.4361C9.3105 32.3956 9.52834 32.3956 9.74043 32.4361V32.222C9.54508 32.2399 9.35558 32.2982 9.18401 32.3933Z" fill="#DB4242"/>
<path d="M9.86887 31.3233L8.71324 31.1093H9.78327C10.0096 32.0533 9.90841 33.0461 9.49622 33.9249C9.08402 34.8038 8.38533 35.5164 7.51481 35.9459C7.28837 35.9868 7.05643 35.9868 6.82999 35.9459H6.65878C6.40417 35.9701 6.1501 35.8944 5.95038 35.7346C5.75066 35.5748 5.62096 35.3436 5.58875 35.0898C5.52736 34.7646 5.52736 34.4307 5.58875 34.1054C5.71577 33.5852 5.71577 33.042 5.58875 32.5218C5.33207 31.8684 4.97066 31.2613 4.51872 30.7241H4.21912C4.74284 31.2799 5.15029 31.9348 5.41755 32.6502C5.56643 33.1384 5.56643 33.66 5.41755 34.1482C5.37866 34.4895 5.37866 34.8341 5.41755 35.1754C5.45002 35.4746 5.59786 35.7492 5.82964 35.941C6.06143 36.1329 6.35888 36.2267 6.65878 36.2027C6.89716 36.2662 7.14803 36.2662 7.38641 36.2027C8.30503 35.8075 9.05628 35.1031 9.50975 34.2118C9.96322 33.3205 10.0903 32.2985 9.86887 31.3233Z" fill="#992800"/>
<path d="M8.67056 31.3235C7.6619 31.5744 6.61205 31.6127 5.58779 31.4358C4.56354 31.259 3.58731 30.8709 2.72119 30.2963C3.57125 30.9049 4.54794 31.3135 5.5782 31.4914C6.60846 31.6693 7.66561 31.6119 8.67056 31.3235Z" fill="#992800"/>
<path d="M10.9388 31.7085L10.1256 30.9381L7.98549 30.082C7.95216 30.3313 7.96907 30.5846 8.03523 30.8272C8.10139 31.0698 8.21546 31.2967 8.37071 31.4945C9.14113 32.2649 10.9388 31.7085 10.9388 31.7085Z" fill="url(#paint86_linear_78_173003)"/>
<path d="M10.9388 31.7085L10.2112 30.3388L7.98554 30.082C7.94165 30.6035 8.09432 31.1226 8.41356 31.5373C9.09837 32.1793 10.9388 31.7085 10.9388 31.7085Z" fill="url(#paint87_linear_78_173003)"/>
<g style="mix-blend-mode:screen">
<path d="M10.9388 31.7085L10.2112 30.3388L7.98553 30.082C7.94073 30.338 7.95197 30.6007 8.01847 30.8519C8.08497 31.1031 8.20516 31.337 8.37074 31.5373C9.05556 32.1365 10.9388 31.7085 10.9388 31.7085Z" fill="url(#paint88_radial_78_173003)"/>
</g>
<path d="M9.56922 31.9653C10.0374 31.9618 10.5012 31.8748 10.9389 31.7085C10.9389 31.7085 9.14121 32.1793 8.45639 31.4517C8.14263 31.0673 7.98931 30.5767 8.02838 30.082C7.94745 30.3297 7.93252 30.5942 7.98506 30.8494C8.0376 31.1046 8.1558 31.3417 8.32799 31.5373C8.49059 31.6956 8.68616 31.8161 8.90074 31.8901C9.11531 31.9641 9.34358 31.9898 9.56922 31.9653Z" fill="#992800"/>
<path style="mix-blend-mode:screen" opacity="0.4" d="M1.00903 28.8409C1.00903 28.0277 2.03626 27.7281 2.97789 28.1561C4.11863 28.8023 5.21921 29.5169 6.27358 30.2961C4.56153 29.5685 3.3631 28.8409 2.67828 28.5841C1.99346 28.3273 1.35144 28.4129 1.00903 28.8409Z" fill="url(#paint89_linear_78_173003)"/>
<path style="mix-blend-mode:screen" opacity="0.4" d="M4.81824 36.0315C4.81824 37.8719 7.38631 38.0432 9.82598 36.0315C7.64312 37.0587 5.63146 37.6151 4.81824 36.0315Z" fill="url(#paint90_linear_78_173003)"/>
<path style="mix-blend-mode:screen" opacity="0.4" d="M10.5538 27.0433C10.9818 28.7982 14.1919 29.7398 15.8184 26.7009C15.5279 27.1157 15.1479 27.46 14.7065 27.7082C14.2651 27.9565 13.7736 28.1025 13.2683 28.1353C12.7629 28.1682 12.2566 28.0871 11.7868 27.8981C11.317 27.7091 10.8956 27.417 10.5538 27.0433Z" fill="url(#paint91_linear_78_173003)"/>
<path d="M27.5027 41.9809H29.4288C30.4398 41.9799 31.4465 41.8504 32.4249 41.5957C30.8024 41.7573 29.168 41.7573 27.5455 41.5957C26.4629 41.4921 25.3898 41.3061 24.3354 41.0393C24.7318 41.2387 25.1478 41.3965 25.5767 41.5101C26.2073 41.7107 26.8508 41.868 27.5027 41.9809Z" fill="#992B00"/>
<path style="mix-blend-mode:screen" opacity="0.5" d="M67.7357 18.6973C72.3155 16.8141 77.2804 7.14102 84.5566 8.21105C90.4204 9.02427 90.9768 17.5417 89.4359 20.8374C86.3115 27.6 77.4516 29.6544 73.8563 27.0436C70.261 24.4327 70.2182 24.6039 68.4634 23.4055C66.7085 22.207 66.1949 19.3394 67.7357 18.6973Z" fill="url(#paint92_linear_78_173003)"/>
<path style="mix-blend-mode:screen" opacity="0.7" d="M70.561 17.7983C73.2574 14.3315 81.0473 4.95799 87.6815 10.4365C81.5181 7.52606 75.3975 13.0474 70.561 17.7983Z" fill="url(#paint93_linear_78_173003)"/>
<defs>
<linearGradient id="paint0_linear_78_173003" x1="25.2773" y1="51.3972" x2="35.6352" y2="46.475" gradientUnits="userSpaceOnUse">
<stop stop-color="#E10A00"/>
<stop offset="0.49" stop-color="#A50500"/>
<stop offset="1" stop-color="#6B0000"/>
</linearGradient>
<linearGradient id="paint1_linear_78_173003" x1="26.3045" y1="49.7707" x2="36.6196" y2="44.8914" gradientUnits="userSpaceOnUse">
<stop stop-color="#F51500"/>
<stop offset="0.1" stop-color="#E81400"/>
<stop offset="0.72" stop-color="#9F0E00"/>
<stop offset="1" stop-color="#820C00"/>
</linearGradient>
<radialGradient id="paint2_radial_78_173003" cx="0" cy="0" r="1" gradientUnits="userSpaceOnUse" gradientTransform="translate(26.0048 52.1246) scale(7.1478 7.1478)">
<stop stop-color="#E8E8E8"/>
<stop offset="0.07" stop-color="#CFCFCF"/>
<stop offset="0.26" stop-color="#919191"/>
<stop offset="0.44" stop-color="#5D5D5D"/>
<stop offset="0.61" stop-color="#353535"/>
<stop offset="0.77" stop-color="#181818"/>
<stop offset="0.9" stop-color="#060606"/>
<stop offset="1"/>
</radialGradient>
<linearGradient id="paint3_linear_78_173003" x1="27.1678" y1="50.3471" x2="29.3724" y2="48.9916" gradientUnits="userSpaceOnUse">
<stop stop-color="#E8E8E8"/>
<stop offset="0.07" stop-color="#CFCFCF"/>
<stop offset="0.26" stop-color="#919191"/>
<stop offset="0.44" stop-color="#5D5D5D"/>
<stop offset="0.61" stop-color="#353535"/>
<stop offset="0.77" stop-color="#181818"/>
<stop offset="0.9" stop-color="#060606"/>
<stop offset="1"/>
</linearGradient>
<radialGradient id="paint4_radial_78_173003" cx="0" cy="0" r="1" gradientUnits="userSpaceOnUse" gradientTransform="translate(83.1873 7.78276) scale(27.0504 27.0504)">
<stop stop-color="#FFA100"/>
<stop offset="1" stop-color="#FF7100"/>
</radialGradient>
<radialGradient id="paint5_radial_78_173003" cx="0" cy="0" r="1" gradientUnits="userSpaceOnUse" gradientTransform="translate(83.187 7.78268) scale(27.0504 27.0504)">
<stop stop-color="#FFD600"/>
<stop offset="1" stop-color="#FF8200"/>
</radialGradient>
<linearGradient id="paint6_linear_78_173003" x1="45.0942" y1="0.891612" x2="67.2224" y2="15.9148" gradientUnits="userSpaceOnUse">
<stop stop-color="#FF1700"/>
<stop offset="0.16" stop-color="#F31600"/>
<stop offset="0.44" stop-color="#D31300"/>
<stop offset="0.81" stop-color="#9F0F00"/>
<stop offset="1" stop-color="#820C00"/>
</linearGradient>
<linearGradient id="paint7_linear_78_173003" x1="50.4015" y1="0.549263" x2="55.1097" y2="16.7709" gradientUnits="userSpaceOnUse">
<stop stop-color="#E8E8E8"/>
<stop offset="0.07" stop-color="#CFCFCF"/>
<stop offset="0.26" stop-color="#919191"/>
<stop offset="0.44" stop-color="#5D5D5D"/>
<stop offset="0.61" stop-color="#353535"/>
<stop offset="0.77" stop-color="#181818"/>
<stop offset="0.9" stop-color="#060606"/>
<stop offset="1"/>
</linearGradient>
<linearGradient id="paint8_linear_78_173003" x1="51.5998" y1="0.592099" x2="52.7126" y2="6.62707" gradientUnits="userSpaceOnUse">
<stop stop-color="white"/>
<stop offset="0.15" stop-color="#CCCCCC"/>
<stop offset="0.39" stop-color="#848484"/>
<stop offset="0.6" stop-color="#4B4B4B"/>
<stop offset="0.77" stop-color="#222222"/>
<stop offset="0.92" stop-color="#090909"/>
<stop offset="1"/>
</linearGradient>
<linearGradient id="paint9_linear_78_173003" x1="48.0901" y1="0.677727" x2="69.7047" y2="14.3313" gradientUnits="userSpaceOnUse">
<stop stop-color="#0040B8"/>
<stop offset="0.35" stop-color="#0039A4"/>
<stop offset="1" stop-color="#002D81"/>
</linearGradient>
<linearGradient id="paint10_linear_78_173003" x1="50.8724" y1="-0.135445" x2="72.487" y2="13.5609" gradientUnits="userSpaceOnUse">
<stop stop-color="#006BFF"/>
<stop offset="0.01" stop-color="#006AFE"/>
<stop offset="0.69" stop-color="#0041A6"/>
<stop offset="1" stop-color="#003083"/>
</linearGradient>
<linearGradient id="paint11_linear_78_173003" x1="31.141" y1="2.43263" x2="36.4483" y2="6.79835" gradientUnits="userSpaceOnUse">
<stop stop-color="#0040B8"/>
<stop offset="0.35" stop-color="#0039A4"/>
<stop offset="1" stop-color="#002D81"/>
</linearGradient>
<linearGradient id="paint12_linear_78_173003" x1="31.141" y1="2.43272" x2="36.4483" y2="6.79844" gradientUnits="userSpaceOnUse">
<stop stop-color="#006BFF"/>
<stop offset="0.01" stop-color="#006AFE"/>
<stop offset="0.69" stop-color="#0041A6"/>
<stop offset="1" stop-color="#003083"/>
</linearGradient>
<linearGradient id="paint13_linear_78_173003" x1="30.8413" y1="3.33137" x2="32.9814" y2="4.70101" gradientUnits="userSpaceOnUse">
<stop stop-color="white"/>
<stop offset="0.15" stop-color="#CCCCCC"/>
<stop offset="0.39" stop-color="#848484"/>
<stop offset="0.6" stop-color="#4B4B4B"/>
<stop offset="0.77" stop-color="#222222"/>
<stop offset="0.92" stop-color="#090909"/>
<stop offset="1"/>
</linearGradient>
<linearGradient id="paint14_linear_78_173003" x1="27.1607" y1="3.07485" x2="30.8416" y2="8.211" gradientUnits="userSpaceOnUse">
<stop stop-color="#0040B8"/>
<stop offset="0.35" stop-color="#0039A4"/>
<stop offset="1" stop-color="#002D81"/>
</linearGradient>
<linearGradient id="paint15_linear_78_173003" x1="27.1607" y1="3.07485" x2="30.8416" y2="8.211" gradientUnits="userSpaceOnUse">
<stop stop-color="#006BFF"/>
<stop offset="0.01" stop-color="#006AFE"/>
<stop offset="0.69" stop-color="#0041A6"/>
<stop offset="1" stop-color="#003083"/>
</linearGradient>
<linearGradient id="paint16_linear_78_173003" x1="26.3473" y1="4.01625" x2="28.4874" y2="5.38589" gradientUnits="userSpaceOnUse">
<stop stop-color="white"/>
<stop offset="0.15" stop-color="#CCCCCC"/>
<stop offset="0.39" stop-color="#848484"/>
<stop offset="0.6" stop-color="#4B4B4B"/>
<stop offset="0.77" stop-color="#222222"/>
<stop offset="0.92" stop-color="#090909"/>
<stop offset="1"/>
</linearGradient>
<linearGradient id="paint17_linear_78_173003" x1="22.2811" y1="4.65827" x2="25.7052" y2="8.80998" gradientUnits="userSpaceOnUse">
<stop stop-color="#0040B8"/>
<stop offset="0.35" stop-color="#0039A4"/>
<stop offset="1" stop-color="#002D81"/>
</linearGradient>
<linearGradient id="paint18_linear_78_173003" x1="22.2811" y1="4.65827" x2="25.7052" y2="8.80998" gradientUnits="userSpaceOnUse">
<stop stop-color="#006BFF"/>
<stop offset="0.01" stop-color="#006AFE"/>
<stop offset="0.69" stop-color="#0041A6"/>
<stop offset="1" stop-color="#003083"/>
</linearGradient>
<linearGradient id="paint19_linear_78_173003" x1="22.0671" y1="5.59979" x2="24.036" y2="6.88383" gradientUnits="userSpaceOnUse">
<stop stop-color="white"/>
<stop offset="0.15" stop-color="#CCCCCC"/>
<stop offset="0.39" stop-color="#848484"/>
<stop offset="0.6" stop-color="#4B4B4B"/>
<stop offset="0.77" stop-color="#222222"/>
<stop offset="0.92" stop-color="#090909"/>
<stop offset="1"/>
</linearGradient>
<linearGradient id="paint20_linear_78_173003" x1="46.5066" y1="46.8603" x2="70.3897" y2="30.5958" gradientUnits="userSpaceOnUse">
<stop stop-color="#C01000"/>
<stop offset="0.36" stop-color="#BE1000"/>
<stop offset="0.54" stop-color="#B61000"/>
<stop offset="0.69" stop-color="#A90F00"/>
<stop offset="0.82" stop-color="#950E00"/>
<stop offset="0.93" stop-color="#7D0D00"/>
<stop offset="1" stop-color="#690C00"/>
</linearGradient>
<linearGradient id="paint21_linear_78_173003" x1="45.9503" y1="46.047" x2="69.8334" y2="29.7826" gradientUnits="userSpaceOnUse">
<stop stop-color="#FF1700"/>
<stop offset="0.16" stop-color="#F31600"/>
<stop offset="0.44" stop-color="#D31300"/>
<stop offset="0.81" stop-color="#9F0F00"/>
<stop offset="1" stop-color="#820C00"/>
</linearGradient>
<linearGradient id="paint22_linear_78_173003" x1="47.3626" y1="48.1442" x2="71.2457" y2="31.8798" gradientUnits="userSpaceOnUse">
<stop stop-color="#0040B8"/>
<stop offset="0.35" stop-color="#0039A4"/>
<stop offset="1" stop-color="#002D81"/>
</linearGradient>
<linearGradient id="paint23_linear_78_173003" x1="47.1486" y1="47.8017" x2="71.0316" y2="31.5372" gradientUnits="userSpaceOnUse">
<stop stop-color="#006BFF"/>
<stop offset="0.01" stop-color="#006AFE"/>
<stop offset="0.69" stop-color="#0041A6"/>
<stop offset="1" stop-color="#003083"/>
</linearGradient>
<linearGradient id="paint24_linear_78_173003" x1="30.3276" y1="6.0279" x2="49.9306" y2="43.5646" gradientUnits="userSpaceOnUse">
<stop stop-color="#FF8600"/>
<stop offset="1" stop-color="#F14603"/>
</linearGradient>
<linearGradient id="paint25_linear_78_173003" x1="25.0631" y1="5.51429" x2="59.4324" y2="48.2299" gradientUnits="userSpaceOnUse">
<stop offset="0.01" stop-color="#FF6E00"/>
<stop offset="1" stop-color="#FF5500"/>
</linearGradient>
<radialGradient id="paint26_radial_78_173003" cx="0" cy="0" r="1" gradientUnits="userSpaceOnUse" gradientTransform="translate(16.1176 11.8061) scale(62.0189 62.0189)">
<stop offset="0.01" stop-color="#FF6E00"/>
<stop offset="0.13" stop-color="#CB5800"/>
<stop offset="0.31" stop-color="#843900"/>
<stop offset="0.47" stop-color="#4B2000"/>
<stop offset="0.61" stop-color="#220F00"/>
<stop offset="0.71" stop-color="#090400"/>
<stop offset="0.78"/>
<stop offset="1"/>
</radialGradient>
<linearGradient id="paint27_linear_78_173003" x1="29.1607" y1="4.87453" x2="32.5921" y2="36.924" gradientUnits="userSpaceOnUse">
<stop stop-color="#FFB15C"/>
<stop offset="1" stop-color="#FF9723"/>
</linearGradient>
<radialGradient id="paint28_radial_78_173003" cx="0" cy="0" r="1" gradientUnits="userSpaceOnUse" gradientTransform="translate(78.1796 11.8489) scale(23.0698)">
<stop offset="0.01" stop-color="#FF6E00"/>
<stop offset="0.13" stop-color="#CB5800"/>
<stop offset="0.31" stop-color="#843900"/>
<stop offset="0.47" stop-color="#4B2000"/>
<stop offset="0.61" stop-color="#220F00"/>
<stop offset="0.71" stop-color="#090400"/>
<stop offset="0.78"/>
<stop offset="1"/>
</radialGradient>
<radialGradient id="paint29_radial_78_173003" cx="0" cy="0" r="1" gradientUnits="userSpaceOnUse" gradientTransform="translate(6.10257 19.6814) scale(5.82096 5.82097)">
<stop offset="0.01" stop-color="#FF6E00"/>
<stop offset="0.13" stop-color="#CB5800"/>
<stop offset="0.31" stop-color="#843900"/>
<stop offset="0.47" stop-color="#4B2000"/>
<stop offset="0.61" stop-color="#220F00"/>
<stop offset="0.71" stop-color="#090400"/>
<stop offset="0.78"/>
<stop offset="1"/>
</radialGradient>
<linearGradient id="paint30_linear_78_173003" x1="36.3198" y1="9.79417" x2="36.5766" y2="37.9145" gradientUnits="userSpaceOnUse">
<stop stop-color="#141414"/>
<stop offset="1"/>
</linearGradient>
<linearGradient id="paint31_linear_78_173003" x1="43.3392" y1="9.709" x2="43.5961" y2="37.8722" gradientUnits="userSpaceOnUse">
<stop stop-color="#141414"/>
<stop offset="1"/>
</linearGradient>
<linearGradient id="paint32_linear_78_173003" x1="49.9309" y1="9.66581" x2="50.1877" y2="37.7862" gradientUnits="userSpaceOnUse">
<stop stop-color="#141414"/>
<stop offset="1"/>
</linearGradient>
<linearGradient id="paint33_linear_78_173003" x1="56.2226" y1="9.62326" x2="56.4794" y2="37.7436" gradientUnits="userSpaceOnUse">
<stop stop-color="#141414"/>
<stop offset="1"/>
</linearGradient>
<linearGradient id="paint34_linear_78_173003" x1="27.0747" y1="9.87987" x2="27.3315" y2="38.0003" gradientUnits="userSpaceOnUse">
<stop stop-color="#141414"/>
<stop offset="1"/>
</linearGradient>
<linearGradient id="paint35_linear_78_173003" x1="64.5037" y1="20.3788" x2="69.0838" y2="40.6481" gradientUnits="userSpaceOnUse">
<stop stop-color="#FFB15C"/>
<stop offset="1" stop-color="#FF9723"/>
</linearGradient>
<linearGradient id="paint36_linear_78_173003" x1="70.5661" y1="15.5551" x2="82.2152" y2="26.6964" gradientUnits="userSpaceOnUse">
<stop stop-color="#FFB15C"/>
<stop offset="1" stop-color="#FF9723"/>
</linearGradient>
<linearGradient id="paint37_linear_78_173003" x1="72.9922" y1="18.5921" x2="75.0466" y2="29.6455" gradientUnits="userSpaceOnUse">
<stop stop-color="#FFB15C"/>
<stop offset="1" stop-color="#FF9723"/>
</linearGradient>
<linearGradient id="paint38_linear_78_173003" x1="69.9337" y1="21.7913" x2="71.4446" y2="29.6966" gradientUnits="userSpaceOnUse">
<stop stop-color="#FFB15C"/>
<stop offset="1" stop-color="#FF9723"/>
</linearGradient>
<linearGradient id="paint39_linear_78_173003" x1="73.7454" y1="22.502" x2="75.2562" y2="30.4073" gradientUnits="userSpaceOnUse">
<stop stop-color="#FFB15C"/>
<stop offset="1" stop-color="#FF9723"/>
</linearGradient>
<linearGradient id="paint40_linear_78_173003" x1="67.584" y1="18.7063" x2="71.2144" y2="29.3381" gradientUnits="userSpaceOnUse">
<stop stop-color="#FFB15C"/>
<stop offset="1" stop-color="#FF9723"/>
</linearGradient>
<linearGradient id="paint41_linear_78_173003" x1="72.649" y1="24.185" x2="69.9431" y2="35.0887" gradientUnits="userSpaceOnUse">
<stop stop-color="#FFB15C"/>
<stop offset="1" stop-color="#FF9723"/>
</linearGradient>
<linearGradient id="paint42_linear_78_173003" x1="17.115" y1="11.2895" x2="16.1104" y2="43.464" gradientUnits="userSpaceOnUse">
<stop stop-color="#FFB15C"/>
<stop offset="1" stop-color="#FF9723"/>
</linearGradient>
<linearGradient id="paint43_linear_78_173003" x1="28.336" y1="7.50021" x2="35.9891" y2="38.7614" gradientUnits="userSpaceOnUse">
<stop stop-color="#FFB15C"/>
<stop offset="1" stop-color="#FF9723"/>
</linearGradient>
<linearGradient id="paint44_linear_78_173003" x1="50.6681" y1="5.87362" x2="46.7906" y2="37.8295" gradientUnits="userSpaceOnUse">
<stop stop-color="#FFB15C"/>
<stop offset="1" stop-color="#FF9723"/>
</linearGradient>
<linearGradient id="paint45_linear_78_173003" x1="19.0285" y1="9.96566" x2="23.437" y2="41.8954" gradientUnits="userSpaceOnUse">
<stop stop-color="#FFB15C"/>
<stop offset="1" stop-color="#FF9723"/>
</linearGradient>
<linearGradient id="paint46_linear_78_173003" x1="38.1605" y1="4.31558" x2="41.285" y2="27.0431" gradientUnits="userSpaceOnUse">
<stop stop-color="#FFB15C"/>
<stop offset="1" stop-color="#FF9723"/>
</linearGradient>
<linearGradient id="paint47_linear_78_173003" x1="22.6167" y1="9.57503" x2="34.0006" y2="39.7242" gradientUnits="userSpaceOnUse">
<stop stop-color="#FFB15C"/>
<stop offset="1" stop-color="#FF9723"/>
</linearGradient>
<linearGradient id="paint48_linear_78_173003" x1="35.8231" y1="7.0783" x2="37.5747" y2="39.2574" gradientUnits="userSpaceOnUse">
<stop stop-color="#FFB15C"/>
<stop offset="1" stop-color="#FF9723"/>
</linearGradient>
<linearGradient id="paint49_linear_78_173003" x1="22.8709" y1="11.0031" x2="22.4099" y2="43.226" gradientUnits="userSpaceOnUse">
<stop stop-color="#FFB15C"/>
<stop offset="1" stop-color="#FF9723"/>
</linearGradient>
<linearGradient id="paint50_linear_78_173003" x1="43.4121" y1="6.6706" x2="49.3585" y2="38.3499" gradientUnits="userSpaceOnUse">
<stop stop-color="#FFB15C"/>
<stop offset="1" stop-color="#FF9723"/>
</linearGradient>
<linearGradient id="paint51_linear_78_173003" x1="31.7832" y1="8.21077" x2="36.1917" y2="40.1404" gradientUnits="userSpaceOnUse">
<stop stop-color="#FFB15C"/>
<stop offset="1" stop-color="#FF9723"/>
</linearGradient>
<linearGradient id="paint52_linear_78_173003" x1="13.3426" y1="10.9748" x2="27.7076" y2="39.911" gradientUnits="userSpaceOnUse">
<stop stop-color="#FFB15C"/>
<stop offset="1" stop-color="#FF9723"/>
</linearGradient>
<linearGradient id="paint53_linear_78_173003" x1="21.0189" y1="9.50583" x2="38.3656" y2="36.6658" gradientUnits="userSpaceOnUse">
<stop stop-color="#FFB15C"/>
<stop offset="1" stop-color="#FF9723"/>
</linearGradient>
<linearGradient id="paint54_linear_78_173003" x1="45.8163" y1="5.47702" x2="45.0365" y2="37.7435" gradientUnits="userSpaceOnUse">
<stop stop-color="#FFB15C"/>
<stop offset="1" stop-color="#FF9723"/>
</linearGradient>
<linearGradient id="paint55_linear_78_173003" x1="22.1503" y1="10.2585" x2="28.9514" y2="41.7654" gradientUnits="userSpaceOnUse">
<stop stop-color="#FFB15C"/>
<stop offset="1" stop-color="#FF9723"/>
</linearGradient>
<linearGradient id="paint56_linear_78_173003" x1="27.0352" y1="0.489212" x2="33.7937" y2="31.9993" gradientUnits="userSpaceOnUse">
<stop stop-color="#FFB15C"/>
<stop offset="1" stop-color="#FF9723"/>
</linearGradient>
<linearGradient id="paint57_linear_78_173003" x1="29.6225" y1="9.73692" x2="36.3809" y2="41.2471" gradientUnits="userSpaceOnUse">
<stop stop-color="#FFB15C"/>
<stop offset="1" stop-color="#FF9723"/>
</linearGradient>
<linearGradient id="paint58_linear_78_173003" x1="42.8458" y1="6.93538" x2="47.8136" y2="30.082" gradientUnits="userSpaceOnUse">
<stop stop-color="#FFB15C"/>
<stop offset="1" stop-color="#FF9723"/>
</linearGradient>
<linearGradient id="paint59_linear_78_173003" x1="35.7864" y1="12.9196" x2="42.545" y2="44.43" gradientUnits="userSpaceOnUse">
<stop stop-color="#FFB15C"/>
<stop offset="1" stop-color="#FF9723"/>
</linearGradient>
<linearGradient id="paint60_linear_78_173003" x1="41.1076" y1="8.34877" x2="39.4346" y2="34.6506" gradientUnits="userSpaceOnUse">
<stop stop-color="#FFB15C"/>
<stop offset="1" stop-color="#FF9723"/>
</linearGradient>
<linearGradient id="paint61_linear_78_173003" x1="46.7491" y1="10.8922" x2="45.6401" y2="28.1806" gradientUnits="userSpaceOnUse">
<stop stop-color="#FFB15C"/>
<stop offset="1" stop-color="#FF9723"/>
</linearGradient>
<linearGradient id="paint62_linear_78_173003" x1="17.8002" y1="10.3937" x2="28.3984" y2="40.7831" gradientUnits="userSpaceOnUse">
<stop stop-color="#FFB15C"/>
<stop offset="1" stop-color="#FF9723"/>
</linearGradient>
<linearGradient id="paint63_linear_78_173003" x1="30.4563" y1="54.051" x2="41.6274" y2="48.4013" gradientUnits="userSpaceOnUse">
<stop stop-color="#E10A00"/>
<stop offset="0.49" stop-color="#A50500"/>
<stop offset="1" stop-color="#6B0000"/>
</linearGradient>
<linearGradient id="paint64_linear_78_173003" x1="28.7015" y1="53.3234" x2="39.8726" y2="47.6736" gradientUnits="userSpaceOnUse">
<stop stop-color="#F51500"/>
<stop offset="0.1" stop-color="#E81400"/>
<stop offset="0.72" stop-color="#9F0E00"/>
<stop offset="1" stop-color="#820C00"/>
</linearGradient>
<radialGradient id="paint65_radial_78_173003" cx="0" cy="0" r="1" gradientUnits="userSpaceOnUse" gradientTransform="translate(29.0866 53.409) scale(10.8287 10.8287)">
<stop stop-color="#E8E8E8"/>
<stop offset="0.07" stop-color="#CFCFCF"/>
<stop offset="0.26" stop-color="#919191"/>
<stop offset="0.44" stop-color="#5D5D5D"/>
<stop offset="0.61" stop-color="#353535"/>
<stop offset="0.77" stop-color="#181818"/>
<stop offset="0.9" stop-color="#060606"/>
<stop offset="1"/>
</radialGradient>
<linearGradient id="paint66_linear_78_173003" x1="30.5998" y1="51.1905" x2="35.2714" y2="48.363" gradientUnits="userSpaceOnUse">
<stop stop-color="#E8E8E8"/>
<stop offset="0.07" stop-color="#CFCFCF"/>
<stop offset="0.26" stop-color="#919191"/>
<stop offset="0.44" stop-color="#5D5D5D"/>
<stop offset="0.61" stop-color="#353535"/>
<stop offset="0.77" stop-color="#181818"/>
<stop offset="0.9" stop-color="#060606"/>
<stop offset="1"/>
</linearGradient>
<linearGradient id="paint67_linear_78_173003" x1="0.966235" y1="15.7866" x2="11.5809" y2="53.9224" gradientUnits="userSpaceOnUse">
<stop stop-color="#FF7000"/>
<stop offset="1" stop-color="#F14603"/>
</linearGradient>
<linearGradient id="paint68_linear_78_173003" x1="1.13744" y1="24.732" x2="35.5068" y2="67.4904" gradientUnits="userSpaceOnUse">
<stop offset="0.01" stop-color="#FF6E00"/>
<stop offset="1" stop-color="#FF5500"/>
</linearGradient>
<radialGradient id="paint69_radial_78_173003" cx="0" cy="0" r="1" gradientUnits="userSpaceOnUse" gradientTransform="translate(17.1879 12.0629) scale(64.2446 64.2446)">
<stop offset="0.01" stop-color="#FF6E00"/>
<stop offset="0.13" stop-color="#CB5800"/>
<stop offset="0.31" stop-color="#843900"/>
<stop offset="0.47" stop-color="#4B2000"/>
<stop offset="0.61" stop-color="#220F00"/>
<stop offset="0.71" stop-color="#090400"/>
<stop offset="0.78"/>
<stop offset="1"/>
</radialGradient>
<radialGradient id="paint70_radial_78_173003" cx="0" cy="0" r="1" gradientUnits="userSpaceOnUse" gradientTransform="translate(1.00882 27.7708) scale(3.4241)">
<stop offset="0.01" stop-color="#FF6E00"/>
<stop offset="0.13" stop-color="#CB5800"/>
<stop offset="0.31" stop-color="#843900"/>
<stop offset="0.47" stop-color="#4B2000"/>
<stop offset="0.61" stop-color="#220F00"/>
<stop offset="0.71" stop-color="#090400"/>
<stop offset="0.78"/>
<stop offset="1"/>
</radialGradient>
<radialGradient id="paint71_radial_78_173003" cx="0" cy="0" r="1" gradientUnits="userSpaceOnUse" gradientTransform="translate(5.37491 36.7164) scale(6.50578)">
<stop offset="0.01" stop-color="#FF6E00"/>
<stop offset="0.13" stop-color="#CB5800"/>
<stop offset="0.31" stop-color="#843900"/>
<stop offset="0.47" stop-color="#4B2000"/>
<stop offset="0.61" stop-color="#220F00"/>
<stop offset="0.71" stop-color="#090400"/>
<stop offset="0.78"/>
<stop offset="1"/>
</radialGradient>
<radialGradient id="paint72_radial_78_173003" cx="0" cy="0" r="1" gradientUnits="userSpaceOnUse" gradientTransform="translate(15.579 73.9997) rotate(-7.5319) scale(20.6107 13.4119)">
<stop stop-color="#B3B3B3"/>
<stop offset="0.13" stop-color="#909090"/>
<stop offset="0.34" stop-color="#5D5D5D"/>
<stop offset="0.55" stop-color="#353535"/>
<stop offset="0.73" stop-color="#181818"/>
<stop offset="0.88" stop-color="#060606"/>
<stop offset="1"/>
</radialGradient>
<linearGradient id="paint73_linear_78_173003" x1="29.8141" y1="7.95407" x2="33.4094" y2="29.8683" gradientUnits="userSpaceOnUse">
<stop stop-color="#D4D4D4"/>
<stop offset="0.02" stop-color="#CFCFCF"/>
<stop offset="0.22" stop-color="#919191"/>
<stop offset="0.41" stop-color="#5D5D5D"/>
<stop offset="0.59" stop-color="#353535"/>
<stop offset="0.76" stop-color="#181818"/>
<stop offset="0.9" stop-color="#060606"/>
<stop offset="1"/>
</linearGradient>
<linearGradient id="paint74_linear_78_173003" x1="33.4523" y1="8.16793" x2="36.0204" y2="21.0939" gradientUnits="userSpaceOnUse">
<stop stop-color="white"/>
<stop offset="0.15" stop-color="#CCCCCC"/>
<stop offset="0.39" stop-color="#848484"/>
<stop offset="0.6" stop-color="#4B4B4B"/>
<stop offset="0.77" stop-color="#222222"/>
<stop offset="0.92" stop-color="#090909"/>
<stop offset="1"/>
</linearGradient>
<linearGradient id="paint75_linear_78_173003" x1="13.0317" y1="27.4474" x2="13.1439" y2="19.6995" gradientUnits="userSpaceOnUse">
<stop stop-color="#D6D6D6"/>
<stop offset="0.35" stop-color="#CFCFCF"/>
<stop offset="0.84" stop-color="#BDBDBD"/>
<stop offset="1" stop-color="#B6B6B6"/>
</linearGradient>
<radialGradient id="paint76_radial_78_173003" cx="0" cy="0" r="1" gradientUnits="userSpaceOnUse" gradientTransform="translate(15.1949 29.506) rotate(90.321) scale(3.20886 2.64263)">
<stop stop-color="white"/>
<stop offset="0.54" stop-color="#F6F6F6"/>
<stop offset="0.65" stop-color="#F3F3F4"/>
<stop offset="0.72" stop-color="#EBEBEC"/>
<stop offset="0.78" stop-color="#DCDCDF"/>
<stop offset="0.84" stop-color="#C7C7CD"/>
<stop offset="0.89" stop-color="#ACACB6"/>
<stop offset="0.93" stop-color="#8B8B99"/>
<stop offset="0.94" stop-color="#858594"/>
<stop offset="1" stop-color="#C5C5C5"/>
</radialGradient>
<radialGradient id="paint77_radial_78_173003" cx="0" cy="0" r="1" gradientUnits="userSpaceOnUse" gradientTransform="translate(14.5204 18.5817) rotate(-177.569) scale(0.454101 0.469158)">
<stop stop-color="white"/>
<stop offset="0.04" stop-color="#EDEDED"/>
<stop offset="0.19" stop-color="#AFAFAF"/>
<stop offset="0.34" stop-color="#7A7A7A"/>
<stop offset="0.49" stop-color="#4E4E4E"/>
<stop offset="0.63" stop-color="#2C2C2C"/>
<stop offset="0.76" stop-color="#141414"/>
<stop offset="0.88" stop-color="#050505"/>
<stop offset="0.98"/>
</radialGradient>
<radialGradient id="paint78_radial_78_173003" cx="0" cy="0" r="1" gradientUnits="userSpaceOnUse" gradientTransform="translate(13.0448 26.8055) rotate(1.14576) scale(4.62345 4.62345)">
<stop stop-color="#BC5807"/>
<stop offset="0.14" stop-color="#B24D07"/>
<stop offset="0.52" stop-color="#993206"/>
<stop offset="1" stop-color="#610800"/>
</radialGradient>
<radialGradient id="paint79_radial_78_173003" cx="0" cy="0" r="1" gradientUnits="userSpaceOnUse" gradientTransform="translate(12.6659 24.0345) rotate(2.2026) scale(0.400915 0.375649)">
<stop stop-color="white"/>
<stop offset="0.22" stop-color="#B3B3B3"/>
<stop offset="0.62" stop-color="#333333"/>
<stop offset="0.79"/>
<stop offset="1"/>
</radialGradient>
<linearGradient id="paint80_linear_78_173003" x1="12.3197" y1="22.6962" x2="12.7709" y2="23.8261" gradientUnits="userSpaceOnUse">
<stop stop-color="#B9B9B9"/>
<stop offset="0.04" stop-color="#ADADAD"/>
<stop offset="0.33" stop-color="#646464"/>
<stop offset="0.57" stop-color="#2E2E2E"/>
<stop offset="0.75" stop-color="#0D0D0D"/>
<stop offset="0.85"/>
<stop offset="0.98"/>
</linearGradient>
<radialGradient id="paint81_radial_78_173003" cx="0" cy="0" r="1" gradientUnits="userSpaceOnUse" gradientTransform="translate(9.69774 32.479) scale(5.64976)">
<stop stop-color="#130000"/>
<stop offset="0.25" stop-color="#1E0000"/>
<stop offset="0.7" stop-color="#3C0000"/>
<stop offset="1" stop-color="#540000"/>
</radialGradient>
<radialGradient id="paint82_radial_78_173003" cx="0" cy="0" r="1" gradientUnits="userSpaceOnUse" gradientTransform="translate(5.46039 35.6034) scale(7.1906 7.1906)">
<stop stop-color="#FD9F9F"/>
<stop offset="1" stop-color="#F37171"/>
</radialGradient>
<radialGradient id="paint83_radial_78_173003" cx="0" cy="0" r="1" gradientUnits="userSpaceOnUse" gradientTransform="translate(5.4603 35.5606) scale(7.36181 7.3618)">
<stop stop-color="#F5B8B8"/>
<stop offset="1" stop-color="#FF9999"/>
</radialGradient>
<radialGradient id="paint84_radial_78_173003" cx="0" cy="0" r="1" gradientUnits="userSpaceOnUse" gradientTransform="translate(5.16064 35.3892) scale(3.4669)">
<stop stop-color="#F5B8B8"/>
<stop offset="0.02" stop-color="#E6ADAD"/>
<stop offset="0.13" stop-color="#AA8080"/>
<stop offset="0.24" stop-color="#765959"/>
<stop offset="0.34" stop-color="#4C3939"/>
<stop offset="0.44" stop-color="#2B2020"/>
<stop offset="0.53" stop-color="#130E0E"/>
<stop offset="0.62" stop-color="#050404"/>
<stop offset="0.69"/>
<stop offset="1"/>
</radialGradient>
<radialGradient id="paint85_radial_78_173003" cx="0" cy="0" r="1" gradientUnits="userSpaceOnUse" gradientTransform="translate(6.87262 35.261) scale(2.69648 2.69647)">
<stop stop-color="#F5B8B8"/>
<stop offset="0.02" stop-color="#E6ADAD"/>
<stop offset="0.13" stop-color="#AA8080"/>
<stop offset="0.24" stop-color="#765959"/>
<stop offset="0.34" stop-color="#4C3939"/>
<stop offset="0.44" stop-color="#2B2020"/>
<stop offset="0.53" stop-color="#130E0E"/>
<stop offset="0.62" stop-color="#050404"/>
<stop offset="0.69"/>
<stop offset="1"/>
</radialGradient>
<linearGradient id="paint86_linear_78_173003" x1="2.54974" y1="21.9926" x2="36.6625" y2="67.8755" gradientUnits="userSpaceOnUse">
<stop stop-color="#FF6100"/>
<stop offset="0.15" stop-color="#FB5A01"/>
<stop offset="0.65" stop-color="#F24702"/>
<stop offset="1" stop-color="#EF4003"/>
</linearGradient>
<linearGradient id="paint87_linear_78_173003" x1="3.1062" y1="23.1482" x2="37.4756" y2="65.9066" gradientUnits="userSpaceOnUse">
<stop offset="0.01" stop-color="#FF6E00"/>
<stop offset="1" stop-color="#FF5500"/>
</linearGradient>
<radialGradient id="paint88_radial_78_173003" cx="0" cy="0" r="1" gradientUnits="userSpaceOnUse" gradientTransform="translate(16.1606 10.7787) scale(68.0967 68.0968)">
<stop offset="0.01" stop-color="#FF6E00"/>
<stop offset="0.13" stop-color="#CB5800"/>
<stop offset="0.31" stop-color="#843900"/>
<stop offset="0.47" stop-color="#4B2000"/>
<stop offset="0.61" stop-color="#220F00"/>
<stop offset="0.71" stop-color="#090400"/>
<stop offset="0.78"/>
<stop offset="1"/>
</radialGradient>
<linearGradient id="paint89_linear_78_173003" x1="3.3203" y1="27.8565" x2="3.96232" y2="31.1094" gradientUnits="userSpaceOnUse">
<stop stop-color="white"/>
<stop offset="0.15" stop-color="#CCCCCC"/>
<stop offset="0.39" stop-color="#848484"/>
<stop offset="0.6" stop-color="#4B4B4B"/>
<stop offset="0.77" stop-color="#222222"/>
<stop offset="0.92" stop-color="#090909"/>
<stop offset="1"/>
</linearGradient>
<linearGradient id="paint90_linear_78_173003" x1="7.1723" y1="35.5607" x2="8.24233" y2="39.156" gradientUnits="userSpaceOnUse">
<stop stop-color="white"/>
<stop offset="0.15" stop-color="#CCCCCC"/>
<stop offset="0.39" stop-color="#848484"/>
<stop offset="0.6" stop-color="#4B4B4B"/>
<stop offset="0.77" stop-color="#222222"/>
<stop offset="0.92" stop-color="#090909"/>
<stop offset="1"/>
</linearGradient>
<linearGradient id="paint91_linear_78_173003" x1="13.1219" y1="26.7865" x2="14.4059" y2="31.0666" gradientUnits="userSpaceOnUse">
<stop stop-color="white"/>
<stop offset="0.15" stop-color="#CCCCCC"/>
<stop offset="0.39" stop-color="#848484"/>
<stop offset="0.6" stop-color="#4B4B4B"/>
<stop offset="0.77" stop-color="#222222"/>
<stop offset="0.92" stop-color="#090909"/>
<stop offset="1"/>
</linearGradient>
<linearGradient id="paint92_linear_78_173003" x1="78.222" y1="9.49508" x2="78.6072" y2="25.5455" gradientUnits="userSpaceOnUse">
<stop stop-color="#E8E8E8"/>
<stop offset="0.07" stop-color="#CFCFCF"/>
<stop offset="0.26" stop-color="#919191"/>
<stop offset="0.44" stop-color="#5D5D5D"/>
<stop offset="0.61" stop-color="#353535"/>
<stop offset="0.77" stop-color="#181818"/>
<stop offset="0.9" stop-color="#060606"/>
<stop offset="1"/>
</linearGradient>
<linearGradient id="paint93_linear_78_173003" x1="77.88" y1="9.62332" x2="80.1056" y2="17.7127" gradientUnits="userSpaceOnUse">
<stop stop-color="white"/>
<stop offset="0.15" stop-color="#CCCCCC"/>
<stop offset="0.39" stop-color="#848484"/>
<stop offset="0.6" stop-color="#4B4B4B"/>
<stop offset="0.77" stop-color="#222222"/>
<stop offset="0.92" stop-color="#090909"/>
<stop offset="1"/>
</linearGradient>
</defs>
</svg>
