<svg width="180" height="78" viewBox="0 0 180 78" fill="none" xmlns="http://www.w3.org/2000/svg">
<path d="M179.726 64.1376C176.488 64.328 173.251 64.8994 170.204 64.1376C168.299 63.7567 166.966 62.614 166.014 61.0904C165.252 59.7573 164.49 58.4242 163.348 57.2815C161.062 55.1866 157.825 55.1866 154.968 54.6153C153.254 54.2344 151.731 53.663 150.588 52.5204C149.636 51.5681 149.064 50.0446 148.493 48.9019C147.35 46.4261 146.017 44.9025 143.541 43.9503C141.446 42.9981 138.399 41.8554 138.399 38.9987C138.59 36.142 140.685 33.8566 142.589 31.5713C143.732 30.2382 145.065 28.7146 145.636 27.191C145.827 26.4292 146.017 25.8579 146.398 25.0961C146.588 24.9057 146.779 24.5248 146.969 24.5248C147.16 24.3343 147.35 23.9535 147.731 23.763C148.112 23.3821 148.493 23.1917 148.874 23.0012C147.35 23.1917 145.827 23.5726 144.113 23.763C129.829 24.7152 126.782 24.9057 119.164 28.1433C111.546 31.3808 104.69 36.9038 101.072 44.5216C99.1674 46.807 105.643 51.7586 106.976 52.7108C108.309 53.8535 109.832 54.9962 111.165 55.9484C114.403 58.0433 117.831 59.3764 121.64 60.1382C129.639 61.8522 137.828 60.5191 145.827 61.8522C154.587 63.1854 163.157 66.6134 172.299 66.042C174.203 65.8516 176.108 65.6611 177.822 65.0898C178.393 65.0898 178.964 64.8994 179.536 64.8994C180.107 64.7089 180.107 64.1376 179.726 64.1376Z" fill="#86C5A9"/>
<path d="M179.726 64.1376C176.488 64.328 173.251 64.8994 170.204 64.1376C168.299 63.7567 166.966 62.614 166.014 61.0904C165.252 59.7573 164.49 58.4242 163.348 57.2815C161.062 55.1866 157.825 55.1866 154.968 54.6153C153.254 54.2344 151.731 53.663 150.588 52.5204C149.636 51.5681 149.064 50.0446 148.493 48.9019C147.35 46.4261 146.017 44.9025 143.541 43.9503C141.446 42.9981 138.399 41.8554 138.399 38.9987C138.59 36.142 140.685 33.8566 142.589 31.5713C143.732 30.2382 145.065 28.7146 145.636 27.191C145.827 26.4292 146.017 25.8579 146.398 25.0961C146.588 24.9057 146.779 24.5248 146.969 24.5248C147.16 24.3343 147.35 23.9535 147.731 23.763C148.112 23.3821 148.493 23.1917 148.874 23.0012C147.35 23.1917 145.827 23.5726 144.113 23.763C129.829 24.7152 126.782 24.9057 119.164 28.1433C111.546 31.3808 104.69 36.9038 101.072 44.5216C99.1674 46.807 105.643 51.7586 106.976 52.7108C108.309 53.8535 109.832 54.9962 111.165 55.9484C114.403 58.0433 117.831 59.3764 121.64 60.1382C129.639 61.8522 137.828 60.5191 145.827 61.8522C154.587 63.1854 163.157 66.6134 172.299 66.042C174.203 65.8516 176.108 65.6611 177.822 65.0898C178.393 65.0898 178.964 64.8994 179.536 64.8994C180.107 64.7089 180.107 64.1376 179.726 64.1376ZM152.492 62.4236C148.302 61.4713 144.303 60.7095 140.113 60.5191C136.114 60.3287 132.305 60.5191 128.306 60.3287C121.64 59.9478 115.355 58.2338 110.023 54.2344C108.118 52.7108 106.214 51.1872 104.5 49.6637C103.738 48.9019 101.072 46.6165 101.453 45.093C101.453 45.093 101.643 45.093 101.643 44.9025C105.643 37.6656 111.737 32.3331 119.355 28.905C123.164 27.191 127.163 26.0484 131.353 25.477C135.543 24.7152 139.732 24.9057 143.922 24.5248C144.874 24.5248 146.017 24.5248 146.969 23.9535C145.827 24.7152 145.446 26.8101 144.874 27.9528C143.732 30.2382 142.018 31.5713 140.494 33.4758C138.971 35.3802 137.637 37.4751 138.209 39.9509C138.59 42.0458 141.066 43.1885 142.78 43.9503C144.303 44.7121 145.827 45.2834 146.969 46.6165C147.731 47.7592 148.302 48.9019 148.874 50.235C150.016 52.7108 151.731 54.2344 154.397 54.9962C157.825 55.9484 161.824 55.5675 164.3 58.8051C165.252 60.1382 165.824 61.4713 166.776 62.8045C167.728 63.9471 169.061 64.5185 170.394 64.8994C171.156 65.0898 171.918 65.2802 172.68 65.2802C165.633 65.4707 158.967 63.7567 152.492 62.4236Z" fill="#3E7D7F"/>
<g opacity="0.6">
<path d="M160.682 60.1382C151.35 59.5668 142.018 57.8528 132.686 57.4719C127.925 57.2815 123.354 57.2815 118.784 56.5197C115.927 55.9483 113.641 54.8057 111.166 53.4725C111.547 53.663 111.927 53.663 112.118 53.8534C115.927 55.1865 119.926 55.7579 123.926 55.7579C132.115 56.1388 140.304 54.8057 148.493 54.0439C148.684 54.0439 148.684 53.663 148.493 53.663C140.875 53.8534 133.257 55.1866 125.449 54.9961C118.022 54.8057 110.023 53.4725 104.119 48.5209C105.833 48.9018 107.738 48.9018 109.452 49.0923C113.261 49.2827 117.26 48.9018 121.069 48.7114C129.258 48.14 137.257 48.9018 145.446 48.3305C145.636 48.3305 145.636 47.9496 145.446 47.9496C137.828 47.9496 130.401 47.7591 122.783 47.9496C119.164 47.9496 115.355 48.5209 111.737 48.5209C108.499 48.5209 104.691 48.5209 101.643 47.1878C101.834 47.1878 101.834 47.1878 102.024 46.9974C104.5 46.6165 107.166 46.6165 109.642 46.426C112.88 46.2356 116.308 45.8547 119.545 45.6642C126.401 45.2834 133.067 44.9025 139.923 44.3311C140.113 44.3311 140.113 43.9502 139.923 43.9502C133.067 44.3311 126.401 44.712 119.545 45.0929C116.117 45.2833 112.499 45.4738 109.071 45.8547C107.738 46.0451 106.405 46.0451 105.071 46.0451C114.594 43.1884 124.116 40.3317 134.019 40.5222C134.21 40.5222 134.21 40.3318 134.019 40.1413C122.973 39.57 112.499 42.998 102.024 46.2356C106.785 43.3789 111.356 40.7126 116.498 38.6177C121.831 36.5228 127.544 35.3801 133.257 34.8088C133.448 34.8088 133.448 34.4279 133.257 34.4279C122.402 34.9993 111.927 39.1891 102.786 45.0929C106.976 41.0935 112.308 38.0464 117.641 35.5706C123.735 32.7139 130.401 30.8095 137.257 30.2381C137.447 30.2381 137.447 29.8572 137.257 29.8572C130.591 29.8572 123.926 32.1426 117.831 34.8088C112.308 37.2846 106.595 40.5222 102.215 44.712C103.929 41.4744 106.976 38.8082 109.833 36.7133C112.88 34.4279 116.117 32.7139 119.355 31.1903C126.211 28.1432 133.638 26.6196 141.256 26.4292C141.447 26.4292 141.447 26.0483 141.256 26.0483C133.638 25.8578 126.02 27.5719 118.974 30.619C115.355 32.1426 112.118 34.047 109.071 36.3324C106.214 38.4273 103.167 41.284 101.643 44.5216C101.453 44.712 101.834 44.9025 101.834 44.9025C101.453 45.2834 101.262 45.4738 100.882 45.8547V46.0451H100.691C100.31 45.8547 100.12 46.2356 100.31 46.426V46.6165C100.31 46.8069 100.501 46.9974 100.691 46.9974H100.882C101.643 47.3783 102.596 47.7591 103.548 47.9496C103.548 47.9496 103.548 48.1401 103.548 48.3305C104.31 49.2827 105.452 50.2349 106.595 50.8063C106.595 50.9967 106.595 50.9967 106.785 51.1872C110.213 53.0916 113.832 55.377 117.831 56.1388C122.212 57.091 126.973 57.091 131.353 57.2815C141.256 57.4719 150.969 59.5668 161.063 59.7573C160.872 60.519 160.872 60.1382 160.682 60.1382Z" fill="#467D7F"/>
</g>
<path opacity="0.8" d="M157.826 61.4711C157.635 61.2807 157.635 61.0902 157.826 60.8998C158.587 60.138 159.349 59.7571 160.492 59.5667C156.302 57.2813 150.779 58.6144 146.208 57.2813C145.256 57.0909 143.923 56.5195 144.304 55.1864C144.494 54.8055 144.875 54.4246 145.256 54.0437C139.352 54.8055 133.448 55.7578 127.545 55.1864C125.831 54.996 118.403 54.996 118.403 52.1393C118.403 49.6635 126.783 50.4253 128.116 50.4253C133.639 50.6157 139.162 50.4253 144.304 48.5208C139.543 48.5208 134.591 49.0921 130.02 47.3781C129.83 47.1877 129.64 46.8068 129.83 46.6163C130.782 45.6641 132.115 45.0928 133.448 44.5214C129.64 44.7119 122.022 44.331 122.212 43.1883C122.212 42.8074 122.022 42.617 122.212 42.4265C124.688 40.7125 127.926 40.5221 130.973 40.1412C129.259 40.1412 127.545 40.3316 125.831 40.5221C122.783 40.9029 119.736 41.6647 116.689 41.2838C116.308 41.2838 116.118 40.9029 116.308 40.5221C118.403 38.2367 121.641 37.4749 124.497 36.7131C126.592 36.1418 128.878 35.5705 130.973 35.1896C129.64 35.1896 128.306 35.38 126.973 35.5705C124.878 35.9514 122.593 36.7131 120.308 36.5227C119.927 36.5227 119.736 35.9513 120.117 35.7609C123.926 33.0947 128.306 31.5711 132.877 30.6189C130.401 30.8093 128.116 31.3806 125.831 31.952C121.26 33.2851 117.261 35.7609 112.69 37.094C112.118 37.2845 111.928 36.5227 112.309 36.3322C112.309 36.1418 112.499 36.1418 112.69 35.9514C118.594 32.3329 123.736 30.6189 128.306 29.0953C131.544 28.1431 134.591 27.1908 137.829 26.6195C134.782 26.4291 130.02 27.0004 126.212 27.9526C120.689 29.4762 115.927 32.3329 110.785 35.1896C110.024 35.5705 109.452 34.9991 109.452 34.2373C109.452 34.0469 109.452 33.8564 109.643 33.4756C106.215 36.3322 103.358 39.7603 101.263 43.9501C99.3586 46.2354 105.834 51.187 107.167 52.1393C108.5 53.282 110.024 54.4246 111.357 55.3769C114.594 57.4718 118.022 58.8049 121.831 59.5667C129.83 61.2807 138.019 59.9476 146.018 61.2807C154.778 62.6138 163.349 66.0418 172.49 65.4705C173.252 65.4705 174.013 65.28 174.775 65.28C169.062 65.6609 161.634 65.28 157.826 61.4711Z" fill="#86C5A9"/>
<path d="M97.0726 43.1885C96.6917 42.8076 96.3108 42.4267 95.7395 42.0458C95.1682 39.3796 94.0255 36.5229 92.8828 34.0471C91.3592 30.8095 89.8357 27.3815 87.5503 24.7152C83.9318 20.5254 77.4567 22.2394 73.8382 18.24C72.886 17.2878 72.886 15.9547 72.1242 14.812C71.5528 14.0502 70.4102 13.6693 69.6484 13.4789C67.7439 13.2884 65.8395 13.6693 63.935 12.5267C62.7923 11.7649 62.0305 10.4318 61.2687 9.28908C60.1261 7.38462 58.7929 5.86104 56.5076 5.48015C55.1745 5.2897 53.8413 5.48015 52.6987 5.6706C51.3655 5.6706 49.6515 4.90881 50.4133 3.19479C50.7942 2.43301 51.7464 1.67122 52.5082 1.29033C52.6987 1.29033 52.6987 1.29033 52.8891 1.09989C53.0796 1.09989 53.0796 0.718994 52.6987 0.718994C50.6038 1.09989 48.6993 2.43301 46.7948 3.57569C44.8904 4.90881 42.9859 6.43237 41.4624 8.14639C38.4152 11.384 36.5107 16.526 37.2725 20.9063C37.2725 20.9063 37.2725 20.9063 37.2725 21.0967C37.2725 21.0967 37.2725 21.0967 37.2725 21.2872C37.2725 21.6681 37.8439 21.6681 38.0343 21.2872C43.5573 21.4776 48.8897 22.4299 54.2222 23.5725C59.3643 24.7152 64.5063 25.6674 69.2675 27.5719C71.7433 28.5241 74.0286 29.8573 76.314 31.1904C78.5993 32.3331 80.8847 33.4757 83.17 34.8088C87.3599 37.0942 91.5497 39.7605 95.1682 42.8076C95.3586 43.3789 95.3586 43.7598 95.549 44.3312C95.549 44.712 96.3108 44.5216 96.1204 44.3312C96.1204 44.1407 96.1204 43.9503 96.1204 43.7598C96.3108 43.9503 96.5013 43.9503 96.5013 44.1407C96.8822 44.1407 97.4535 43.5694 97.0726 43.1885Z" fill="#86C5A9"/>
<path d="M98.7866 46.4262L98.977 46.2358C99.3579 45.8549 98.7866 45.2835 98.4057 45.6644C98.2152 45.474 97.8344 45.6644 97.8344 46.0453V46.2358C96.5012 47.5689 94.5968 48.3307 92.6923 49.0925C90.2165 50.2351 87.9312 51.3778 85.4554 52.5205C80.1229 54.8058 74.7904 56.7103 69.077 57.853C57.4598 60.3288 45.8426 61.281 34.2254 62.8046C34.0349 62.8046 34.0349 63.3759 34.2254 63.3759C34.6062 63.3759 34.7967 63.3759 34.9871 63.3759C38.6056 64.3281 40.891 67.1848 43.1763 70.0415C45.2712 72.7078 47.9375 76.1358 51.3655 76.8976H51.5559C51.9368 77.088 52.3177 77.088 52.6986 77.088C52.8891 77.088 53.0795 76.7071 52.6986 76.7071C51.1751 76.3262 51.5559 75.374 52.5082 74.6122C53.6509 73.4696 54.984 73.4696 56.3171 73.8504C58.9833 74.4218 61.6496 75.7549 64.3158 76.1358C66.9821 76.5167 69.4579 75.9454 71.5528 74.0409C72.505 73.0887 73.2668 71.946 74.219 70.8033C75.3617 69.4702 76.6948 68.518 78.028 67.5657C81.0751 65.6613 84.884 65.2804 88.1216 63.9473C90.407 62.995 91.7401 61.281 92.6923 59.1861C94.0254 56.5199 96.8821 55.7581 98.2152 53.0918C99.9293 50.8065 99.3579 48.3307 98.7866 46.4262Z" fill="#86C5A9"/>
<path d="M97.0726 43.1885C96.6917 42.8076 96.3108 42.4267 95.7395 42.0458C95.1682 39.3796 94.0255 36.5229 92.8828 34.0471C91.3592 30.8095 89.8357 27.3815 87.5503 24.7152C83.9318 20.5254 77.4567 22.2394 73.8382 18.24C72.886 17.2878 72.886 15.9547 72.1242 14.812C71.5528 14.0502 70.4102 13.6693 69.6484 13.4789C67.7439 13.2884 65.8395 13.6693 63.935 12.5267C62.7923 11.7649 62.0305 10.4318 61.2687 9.28908C60.1261 7.38462 58.7929 5.86104 56.5076 5.48015C55.1745 5.2897 53.8413 5.48015 52.6987 5.6706C51.3655 5.6706 49.6515 4.90881 50.4133 3.19479C50.7942 2.43301 51.7464 1.67122 52.5082 1.29033C52.6987 1.29033 52.6987 1.29033 52.8891 1.09989C53.0796 1.09989 53.0796 0.718994 52.6987 0.718994C50.6038 1.09989 48.6993 2.43301 46.7948 3.57569C44.8904 4.90881 42.9859 6.43237 41.4624 8.14639C38.4152 11.384 36.5107 16.526 37.2725 20.9063C37.2725 20.9063 37.2725 20.9063 37.2725 21.0967C37.2725 21.0967 37.2725 21.0967 37.2725 21.2872C37.2725 21.6681 37.8439 21.6681 38.0343 21.2872C43.5573 21.4776 48.8897 22.4299 54.2222 23.5725C59.3643 24.7152 64.5063 25.6674 69.2675 27.5719C71.7433 28.5241 74.0286 29.8573 76.314 31.1904C78.5993 32.3331 80.8847 33.4757 83.17 34.8088C87.3599 37.0942 91.5497 39.7605 95.1682 42.8076C95.3586 43.3789 95.3586 43.7598 95.549 44.3312C95.549 44.712 96.3108 44.5216 96.1204 44.3312C96.1204 44.1407 96.1204 43.9503 96.1204 43.7598C96.3108 43.9503 96.5013 43.9503 96.5013 44.1407C96.8822 44.1407 97.4535 43.5694 97.0726 43.1885ZM83.9318 34.0471C81.456 32.714 79.1707 31.5713 76.6949 30.2382C74.4095 29.0955 72.3146 27.7623 70.0293 26.8101C65.0777 24.7152 59.7452 23.763 54.6031 22.6203C49.2706 21.4776 43.7477 20.3349 38.2248 20.5254C37.6534 16.1451 39.5579 11.5744 42.4146 8.33685C44.6999 5.86105 47.7471 3.38524 50.7942 1.86168C49.4611 3.00435 48.6993 4.52792 50.2229 5.86104C51.1751 6.62283 52.6987 6.43239 53.8414 6.43239C55.5554 6.24194 56.8885 6.24193 58.412 7.19416C60.507 8.52728 61.0783 11.384 62.9828 12.9075C64.1254 13.8598 65.4586 14.2407 66.7917 14.4311C68.6961 14.6216 70.9815 14.0502 71.9337 16.1451C72.5051 17.2878 72.886 18.24 73.6477 19.1923C74.4095 20.1445 75.3618 20.7158 76.5044 21.0967C79.1707 22.2394 82.0274 22.4299 84.5032 23.5725C87.9312 25.0961 89.4548 29.0955 91.1688 32.3331C92.6924 35.1897 93.835 38.2369 94.5968 41.284C91.3592 38.6178 87.7408 36.142 83.9318 34.0471Z" fill="#3E7D7F"/>
<path d="M98.7866 46.4262L98.977 46.2358C99.3579 45.8549 98.7866 45.2835 98.4057 45.6644C98.2152 45.474 97.8344 45.6644 97.8344 46.0453V46.2358C96.5012 47.5689 94.5968 48.3307 92.6923 49.0925C90.2165 50.2351 87.9312 51.3778 85.4554 52.5205C80.1229 54.8058 74.7904 56.7103 69.077 57.853C57.4598 60.3288 45.8426 61.281 34.2254 62.8046C34.0349 62.8046 34.0349 63.3759 34.2254 63.3759C34.6062 63.3759 34.7967 63.3759 34.9871 63.3759C38.6056 64.3281 40.891 67.1848 43.1763 70.0415C45.2712 72.7078 47.9375 76.1358 51.3655 76.8976H51.5559C51.9368 77.088 52.3177 77.088 52.6986 77.088C52.8891 77.088 53.0795 76.7071 52.6986 76.7071C51.1751 76.3262 51.5559 75.374 52.5082 74.6122C53.6509 73.4696 54.984 73.4696 56.3171 73.8504C58.9833 74.4218 61.6496 75.7549 64.3158 76.1358C66.9821 76.5167 69.4579 75.9454 71.5528 74.0409C72.505 73.0887 73.2668 71.946 74.219 70.8033C75.3617 69.4702 76.6948 68.518 78.028 67.5657C81.0751 65.6613 84.884 65.2804 88.1216 63.9473C90.407 62.995 91.7401 61.281 92.6923 59.1861C94.0254 56.5199 96.8821 55.7581 98.2152 53.0918C99.9293 50.8065 99.3579 48.3307 98.7866 46.4262ZM95.7395 54.8058C94.7872 55.5676 94.0254 56.139 93.2636 57.0912C92.3114 58.2339 91.9305 59.7574 90.9783 61.0906C88.6929 63.9473 83.9318 63.9473 80.6942 65.0899C77.8375 66.2326 75.5522 68.1371 73.4572 70.4224C72.505 71.3747 71.7432 72.5173 70.791 73.4696C69.2674 74.8027 67.1725 74.9931 65.2681 74.9931C62.0305 74.8027 59.1738 73.0887 56.1267 72.5173C54.2222 72.1364 52.5082 73.0887 51.5559 74.6122C51.3655 74.9931 51.1751 75.374 51.1751 75.7549C49.6515 74.9931 48.5088 74.2314 47.1757 73.0887C45.8426 71.7556 44.5094 70.232 43.1763 68.7084C41.2719 66.4231 39.1769 64.3281 36.5107 63.3759C47.747 62.6141 58.9833 61.0906 69.8388 58.8052C75.3617 57.6625 80.6942 55.7581 85.8362 53.4727C88.312 52.33 90.5974 51.1874 93.0732 50.0447C94.7872 49.2829 96.5012 48.5211 98.0248 47.3784C98.2152 48.5211 98.4057 49.4734 98.5961 50.616C98.7866 52.33 97.4535 53.6632 95.7395 54.8058Z" fill="#3E7D7F"/>
<g opacity="0.6">
<path d="M47.5572 5.09927C44.3196 9.28908 41.2724 13.2885 40.7011 18.8114C40.7011 19.1923 41.2725 19.1923 41.4629 18.8114C41.8438 13.4789 44.8909 9.66998 47.9381 5.28972C47.9381 5.09927 47.5572 4.90882 47.5572 5.09927Z" fill="#467D7F"/>
<path d="M49.2711 5.86072C45.6526 8.33652 44.51 13.4786 44.3195 17.4779C44.3195 17.8588 44.7004 17.8588 44.8908 17.4779C45.6526 13.4786 46.0335 8.90785 49.652 6.05116C49.652 6.05116 49.4616 5.86072 49.2711 5.86072Z" fill="#467D7F"/>
<path d="M50.2229 8.90801C48.6993 11.7647 47.5566 14.8118 47.7471 18.0494C47.7471 18.4303 48.3184 18.4303 48.3184 18.0494C48.3184 14.8118 49.0802 11.9551 50.6038 8.90801C50.4133 8.90801 50.2229 8.71756 50.2229 8.90801Z" fill="#467D7F"/>
<path d="M52.8897 8.90799C51.9375 12.1456 50.4139 15.3832 50.4139 19.0016C50.4139 19.3825 50.7948 19.3825 50.7948 19.0016C50.9852 15.5736 52.3183 12.336 53.0801 9.09843C53.2706 8.90798 52.8897 8.71754 52.8897 8.90799Z" fill="#467D7F"/>
<path d="M56.1271 7.1939C54.0322 10.6219 52.699 15.0022 52.699 19.0016C52.699 19.192 53.0799 19.192 53.0799 19.0016C53.4608 17.0971 53.6513 15.1926 54.0322 13.2882C54.6035 11.1933 55.3653 9.09836 56.508 7.1939C56.3175 7.1939 56.1271 7.00345 56.1271 7.1939Z" fill="#467D7F"/>
<path d="M56.6984 9.2886C55.7462 10.8122 54.9844 12.5262 54.413 14.2402C53.8417 15.5733 53.2704 17.4778 53.8417 18.8109C53.8417 19.0014 54.2226 19.0014 54.2226 18.8109C53.8417 15.3829 55.3653 12.3357 56.8888 9.47905C57.0793 9.2886 56.8888 9.09816 56.6984 9.2886Z" fill="#467D7F"/>
<path d="M57.4602 11.9552C56.508 14.2405 55.7462 16.5259 55.7462 19.0017C55.7462 19.1921 56.1271 19.1921 56.1271 19.0017C56.3175 16.5259 56.8889 14.431 57.6507 12.1456C57.8411 11.7647 57.6507 11.7647 57.4602 11.9552Z" fill="#467D7F"/>
<path d="M59.3645 14.8118C58.6028 16.3354 58.2219 18.0494 58.2219 19.7634C58.2219 19.9538 58.6028 19.9538 58.6028 19.7634C58.9837 18.0494 58.9837 16.5258 59.7454 15.0023C59.555 14.8118 59.3645 14.6213 59.3645 14.8118Z" fill="#467D7F"/>
<path d="M62.602 14.2403C61.4594 16.3352 60.6976 18.6205 60.6976 20.9059C60.6976 21.0963 61.0785 21.0963 61.0785 20.9059C61.2689 18.6205 61.6498 16.5256 62.7925 14.4307C62.9829 14.2403 62.7925 14.0498 62.602 14.2403Z" fill="#467D7F"/>
<path d="M64.5069 14.0499C63.1738 15.7639 62.0311 18.6206 62.7929 20.7155C62.9834 20.9059 63.1738 20.9059 63.1738 20.525C62.7929 18.0492 63.3643 15.9543 64.6974 14.0499C64.8878 14.0499 64.6974 13.8594 64.5069 14.0499Z" fill="#467D7F"/>
<path d="M66.6015 15.0023C65.078 16.5259 64.3162 18.8112 64.1257 21.0966C64.1257 21.287 64.5066 21.287 64.5066 21.0966C65.078 19.0017 65.4589 17.0972 66.792 15.3832C66.9824 15.1928 66.792 15.0023 66.6015 15.0023Z" fill="#467D7F"/>
<path d="M69.0771 15.764C67.9345 17.2875 66.7918 19.0016 66.4109 20.906C66.4109 21.0965 66.6013 21.2869 66.7918 20.906C67.3631 19.0016 68.1249 17.2875 69.458 15.764C69.2676 15.764 69.0771 15.5735 69.0771 15.764Z" fill="#467D7F"/>
<path d="M69.8391 16.3354C68.8869 18.0494 67.1729 19.9538 67.1729 22.0487C67.1729 22.2392 67.5538 22.2392 67.5538 22.0487C67.7442 21.0965 68.1251 20.1443 68.6965 19.192C69.2678 18.2398 69.8392 17.478 70.22 16.5258C70.22 16.3354 70.0296 16.1449 69.8391 16.3354Z" fill="#467D7F"/>
<path d="M71.5528 15.3828C70.4102 17.4777 69.2675 19.5727 68.8866 22.0485C68.8866 22.2389 69.2675 22.4293 69.2675 22.2389C69.8388 19.9535 70.7911 17.8586 71.9337 15.5733C71.9337 15.3828 71.7433 15.1924 71.5528 15.3828Z" fill="#467D7F"/>
<path d="M72.315 17.6685C71.5533 19.1921 70.601 20.7156 70.4106 22.4297C70.4106 22.6201 70.7915 22.6201 70.7915 22.4297C71.1724 20.7156 71.7437 19.1921 72.5055 17.6685C72.6959 17.6685 72.5055 17.4781 72.315 17.6685Z" fill="#467D7F"/>
<path d="M74.2193 19.7636C73.4575 20.9063 72.8862 22.4298 72.6957 23.7629C72.6957 23.9534 73.0766 23.9534 73.0766 23.7629C73.4575 22.4298 73.8384 21.2871 74.6002 19.954C74.6002 19.7636 74.4098 19.5731 74.2193 19.7636Z" fill="#467D7F"/>
<path d="M76.314 21.4776C75.7427 22.0489 75.3618 22.8107 74.9809 23.382C74.9809 23.5725 75.3618 23.7629 75.3618 23.5725C75.7427 22.8107 75.9331 22.2394 76.5045 21.668C76.6949 21.4776 76.5045 21.2871 76.314 21.4776Z" fill="#467D7F"/>
<path d="M78.7899 22.4293C78.5994 22.8102 78.0281 23.0007 78.0281 23.572C78.0281 23.7625 78.2185 23.9529 78.409 23.7625C78.5994 23.3816 78.7899 23.0007 79.1708 22.8102C79.1708 22.4293 78.9803 22.2389 78.7899 22.4293Z" fill="#467D7F"/>
</g>
<g opacity="0.6">
<path d="M49.461 73.0886C46.9852 70.2319 43.7476 68.5179 42.224 64.8994C42.224 64.709 41.8431 64.709 41.8431 64.8994C42.6049 68.5179 46.7947 70.6128 49.0801 73.2791C49.461 73.4695 49.6514 73.2791 49.461 73.0886Z" fill="#467D7F"/>
<path d="M52.3178 72.7078C47.7471 71.1842 44.8904 66.9944 42.2241 63.1855C42.0337 62.995 41.6528 63.1855 41.8432 63.3759C42.605 65.4708 44.5095 67.3753 46.033 69.0893C47.747 70.8033 49.842 72.3269 52.1273 73.0887C52.5082 73.0887 52.6987 72.7078 52.3178 72.7078Z" fill="#467D7F"/>
<path d="M54.4129 71.3744C49.8422 68.5177 46.9855 64.3279 43.367 60.7094C43.1766 60.5189 42.9861 60.7094 42.9861 60.8998C46.0333 64.8992 49.6518 69.089 54.032 71.7552C54.4129 71.7552 54.6034 71.5648 54.4129 71.3744Z" fill="#467D7F"/>
<path d="M60.3167 70.8032C55.1746 68.7083 51.937 64.1376 48.6995 59.9478C48.509 59.7573 48.1281 59.9478 48.3186 60.1382C49.6517 62.614 51.5561 64.8994 53.6511 66.8038C55.5555 68.7083 57.6504 70.4223 60.3167 71.3745C60.5071 71.3745 60.5071 70.9937 60.3167 70.8032Z" fill="#467D7F"/>
<path d="M65.2679 71.3746C62.2207 69.851 59.5545 67.7561 56.8882 65.8516C54.4124 63.9471 51.5557 62.614 50.0322 59.9478C49.8417 59.7573 49.4608 59.9478 49.6513 60.1382C50.6035 62.614 53.2697 64.1376 55.5551 65.4707C58.7927 67.5656 61.8398 70.0414 65.2679 71.9459C65.2679 71.7554 65.4583 71.3746 65.2679 71.3746Z" fill="#467D7F"/>
<path d="M69.2678 69.8508C67.5538 69.6603 66.2207 68.5177 64.8875 67.7559C63.5544 66.8037 62.4117 66.0419 61.0786 65.0896C58.0315 63.1852 54.9844 61.2807 52.3181 58.9954C52.1277 58.8049 51.7468 58.9954 51.9372 59.3763C54.413 62.2329 58.0315 63.947 61.2691 65.8514C62.6022 66.8037 63.9353 67.7559 65.4589 68.7081C66.6016 69.4699 67.9347 70.4221 69.4583 70.4221C69.4583 70.2317 69.4583 69.8508 69.2678 69.8508Z" fill="#467D7F"/>
<path d="M72.6959 67.3749C66.7921 67.3749 61.8405 62.6138 57.0793 59.9475C56.8889 59.7571 56.6984 60.138 56.8889 60.3284C59.3647 62.0424 62.0309 63.7565 64.6972 65.0896C67.173 66.4227 70.0297 67.7558 72.6959 67.5654C72.8863 67.7558 72.8863 67.3749 72.6959 67.3749Z" fill="#467D7F"/>
<path d="M75.9329 64.1371C72.124 62.2326 68.5055 60.1377 65.0775 57.6619C64.8871 57.4714 64.5062 57.8523 64.6966 58.0428C67.9342 60.8995 71.7431 62.8039 75.552 64.518C75.9329 64.518 76.1234 64.3275 75.9329 64.1371Z" fill="#467D7F"/>
<path d="M83.3606 63.3757C81.0753 62.8043 79.1708 61.4712 77.0759 60.3285C74.981 59.1858 72.6956 58.8049 70.7912 57.4718C70.6007 57.2814 70.4103 57.6623 70.6007 57.8527C72.3148 59.3763 74.7906 59.7572 76.8855 60.7094C78.9804 61.8521 80.8848 63.1852 83.3606 63.7566C83.5511 63.7566 83.5511 63.3757 83.3606 63.3757Z" fill="#467D7F"/>
<path d="M86.2173 62.4234C83.5511 62.4234 81.2657 60.1381 78.9804 59.1858C76.3141 58.0432 73.4574 57.4718 70.7912 55.9483C70.6007 55.7578 70.4103 56.1387 70.6007 56.3292C72.6956 58.2336 75.9332 58.6145 78.409 59.5667C80.8848 60.519 83.3606 63.1852 86.2173 62.8043C86.4078 62.6139 86.4078 62.4234 86.2173 62.4234Z" fill="#467D7F"/>
<path d="M87.7411 60.5189C83.1704 58.9953 79.171 56.5195 74.6003 54.615C74.4099 54.4246 74.2194 54.9959 74.4099 54.9959C78.4092 57.4717 82.98 59.3762 87.5507 60.8998C87.7411 60.8998 87.9316 60.5189 87.7411 60.5189Z" fill="#467D7F"/>
<path d="M90.407 58.6145C86.2172 57.4718 82.9796 54.4246 78.9802 53.4724C78.7898 53.4724 78.5993 53.8533 78.7898 53.8533C82.5987 55.3769 86.2172 58.0431 90.2165 58.9954C90.407 58.9954 90.5974 58.6145 90.407 58.6145Z" fill="#467D7F"/>
<path d="M92.1209 57.2816C90.5974 56.7102 89.0738 56.1389 87.5502 55.3771C87.3598 55.1867 87.1693 55.5675 87.3598 55.758C88.6929 56.7102 90.4069 57.2816 91.9305 57.6624C92.3114 57.6624 92.3114 57.2816 92.1209 57.2816Z" fill="#467D7F"/>
<path d="M93.8354 55.1865C91.3596 54.8056 89.6456 53.282 87.7411 51.7585C87.5507 51.568 87.1698 51.7584 87.3603 51.9489C88.6934 53.8534 91.3596 55.3769 93.645 55.5674C94.0259 55.5674 94.0259 55.1865 93.8354 55.1865Z" fill="#467D7F"/>
<path d="M95.5486 53.8535C92.5015 53.6631 90.4066 51.1873 87.9308 49.6637C87.7403 49.4733 87.3594 49.8542 87.7403 50.0446C89.8352 51.7586 92.6919 54.4249 95.5486 54.2344C95.9295 54.2344 95.9295 53.8535 95.5486 53.8535Z" fill="#467D7F"/>
</g>
<path opacity="0.8" d="M97.0729 43.1884C96.692 42.8076 96.3111 42.4267 95.7397 42.0458C95.1684 39.3795 94.0257 36.5228 92.883 34.047C92.5022 33.0948 92.1213 32.333 91.5499 31.3808C91.5499 31.1903 91.3595 31.1903 91.3595 30.9999C90.2168 29.6668 89.2646 28.5241 87.741 27.5719C85.0747 25.8579 82.4085 24.5247 79.7423 23.0012C77.8378 22.2394 75.9333 21.4776 74.2193 20.5254C72.8862 19.5731 71.7435 18.4305 70.6008 17.4782C69.4582 16.526 68.3155 17.8591 67.1728 17.0973C66.7919 16.9069 66.6015 15.7642 66.2206 15.7642C65.6492 15.7642 65.0779 15.9547 64.5066 15.9547C63.7448 15.9547 63.3639 15.5738 63.1734 15.0024C62.0308 15.5738 61.0785 15.1929 60.8881 14.0502C60.1263 15.0024 58.9836 16.1451 57.841 15.5738C56.1269 14.6215 56.6983 11.9553 57.0792 10.2413C56.8887 10.4317 56.5078 10.6222 56.3174 10.8126C56.1269 11.0031 55.7461 10.8126 55.7461 10.4317C55.7461 9.86039 55.7461 9.28904 55.7461 8.90815C54.9843 10.2413 54.6034 11.7648 54.032 13.2884C53.8416 13.6693 53.2702 13.4789 53.2702 13.098C53.2702 12.5266 53.2702 11.7649 53.2702 11.1935C52.6989 12.3362 52.1276 13.4789 51.1753 14.2406C50.9849 14.4311 50.604 14.4311 50.4136 14.2406C49.4613 13.098 49.6518 11.7648 49.8422 10.4317C48.89 11.7648 48.3186 13.098 47.5569 14.6215C47.3664 15.1929 46.6046 14.812 46.7951 14.2406C47.176 11.7648 47.7473 9.28904 48.89 7.19413C48.3186 7.76547 47.5569 8.33681 47.176 9.09859C46.2237 11.0031 45.2715 12.7171 44.7002 14.812C44.5097 15.3833 43.7479 15.1929 43.9384 14.6215C44.3193 12.5266 45.2715 10.2413 46.6046 8.52726C46.9855 7.95593 47.176 7.19414 47.5569 6.6228C46.2237 7.95593 45.0811 9.28904 44.1288 10.8126C43.1766 12.3362 42.2244 14.2406 41.0817 15.7642C40.8912 16.1451 40.3199 15.9547 40.3199 15.5738C40.3199 12.7171 41.4626 10.6222 42.7957 8.33682C42.6053 8.52727 42.4148 8.7177 42.2244 8.90815C39.1772 12.1457 37.2728 17.2878 38.0346 21.668C38.0346 21.668 38.0346 21.668 38.0346 21.8585C38.0346 21.8585 38.0346 21.8585 38.0346 22.0489C38.0346 22.4298 38.6059 22.4298 38.7963 22.0489C44.3193 22.2394 49.6518 23.1916 54.9843 24.3343C60.1263 25.477 65.2684 26.4292 70.0295 28.3337C72.5053 29.2859 74.7907 30.619 77.076 31.9521C79.3614 33.0948 81.6467 34.2375 83.9321 35.5706C88.1219 37.856 92.3117 40.5222 95.9302 43.5693C96.1206 44.1407 96.1206 44.5216 96.3111 45.0929C96.3111 45.4738 97.0729 45.2834 96.8824 45.0929C96.8824 44.9025 96.8824 44.712 96.8824 44.5216C97.0729 44.712 97.2633 44.712 97.2633 44.9025C96.8824 44.1407 97.4537 43.5693 97.0729 43.1884Z" fill="#86C5A9"/>
<path opacity="0.8" d="M98.7866 46.4262L98.977 46.2358C99.3579 45.8549 98.7866 45.2835 98.4057 45.6644C98.2152 45.474 97.8344 45.6644 97.8344 46.0453V46.2358C96.5012 47.5689 94.5968 48.3307 92.6923 49.0925C90.2165 50.2351 87.9312 51.3778 85.4554 52.5205C80.1229 54.8058 74.7904 56.7103 69.077 57.853C57.4598 60.3288 45.8426 61.281 34.2254 62.8046C34.0349 62.8046 34.0349 63.3759 34.2254 63.3759C34.6062 63.3759 34.7967 63.3759 34.9871 63.3759C38.6056 64.3281 40.891 67.1848 43.1763 70.0415C45.2712 72.7078 47.9375 76.1358 51.3655 76.8976H51.5559C51.9368 77.088 52.3177 77.088 52.6986 77.088C52.8891 77.088 53.0795 76.7071 52.6986 76.7071C51.1751 76.3262 51.5559 75.374 52.5082 74.6122C53.6509 73.4696 54.984 73.4696 56.3171 73.8504C58.9833 74.4218 61.6496 75.7549 64.3158 76.1358C66.9821 76.5167 69.4579 75.9454 71.5528 74.0409C72.505 73.0887 73.2668 71.946 74.219 70.8033C75.3617 69.4702 76.6948 68.518 78.028 67.5657C81.0751 65.6613 84.884 65.2804 88.1216 63.9473C90.407 62.995 91.7401 61.281 92.6923 59.1861C94.0254 56.5199 96.8821 55.7581 98.2152 53.0918C99.9293 50.8065 99.3579 48.3307 98.7866 46.4262Z" fill="#86C5A9"/>
<path d="M5.65894 39.7607C7.9443 42.0461 10.9914 40.3321 12.8959 37.0945C14.6099 34.0473 15.943 30.048 15.5621 26.62C15.1813 23.7633 13.4672 21.6684 10.9914 22.6206C8.51563 23.5728 6.23028 26.2391 4.89716 29.2862C3.18314 32.9047 2.9927 37.0945 5.65894 39.7607Z" fill="#386009"/>
<path d="M6.0399 38.9988C8.13481 41.0937 10.9915 39.5701 12.7055 36.523C14.2291 33.8567 15.3718 30.0478 15.1813 26.8102C14.8004 24.144 13.2768 22.2395 10.9915 23.0013C8.70614 23.7631 6.61124 26.2389 5.27811 29.0956C3.5641 32.714 3.5641 36.7134 6.0399 38.9988Z" fill="#E2EAEC"/>
<mask id="mask0_78_173897" style="mask-type:luminance" maskUnits="userSpaceOnUse" x="4" y="22" width="12" height="18">
<path d="M6.0399 38.9988C8.13481 41.0937 10.9915 39.5701 12.7055 36.523C14.2291 33.8567 15.3718 30.0478 15.1813 26.8102C14.8004 24.144 13.2768 22.2395 10.9915 23.0013C8.70614 23.7631 6.61124 26.2389 5.27811 29.0956C3.5641 32.714 3.5641 36.7134 6.0399 38.9988Z" fill="white"/>
</mask>
<g mask="url(#mask0_78_173897)">
<path d="M6.03983 30.0478C4.70671 33.0949 4.89715 36.142 6.23027 36.9038C7.5634 37.6656 9.84875 35.7611 10.9914 32.714C12.3245 29.6669 12.1341 26.6197 10.801 25.858C9.46786 25.2866 7.37295 27.1911 6.03983 30.0478Z" fill="#000445"/>
<path d="M6.42079 30.2381C5.27811 32.9044 5.46855 35.5706 6.61123 36.3324C7.94435 36.9037 9.84881 35.3802 10.9915 32.7139C12.1342 30.0477 11.9437 27.3814 10.801 26.6196C9.46792 25.8579 7.56346 27.5719 6.42079 30.2381Z" fill="url(#paint0_linear_78_173897)"/>
<path d="M7.3732 30.809C6.61141 32.3326 6.80186 34.0466 7.56364 34.4275C8.32542 34.8084 9.4681 33.8562 10.2299 32.1422C10.9917 30.6186 10.8012 28.9046 10.0394 28.5237C9.08721 28.1428 7.94454 29.095 7.3732 30.809Z" fill="black"/>
<path d="M6.03976 35.1896C5.84932 34.8087 6.03976 34.2374 6.23021 33.8565C6.42065 33.666 6.6111 33.666 6.6111 33.8565C6.6111 34.2374 6.80154 34.8087 7.18244 34.9991C7.56333 35.1896 8.13467 35.1896 8.89645 34.4278C9.46779 33.666 9.65823 33.4756 9.65823 33.8565C9.65823 34.2374 9.0869 35.1896 8.706 35.5705C7.94422 36.3323 7.18244 36.5227 6.6111 36.1418C6.42065 35.7609 6.23021 35.5705 6.03976 35.1896Z" fill="url(#paint1_linear_78_173897)"/>
<path d="M9.46787 26.4289C10.801 25.4767 10.801 27.0002 10.2297 28.5238C9.65832 29.8569 8.13475 30.9996 7.37297 30.6187C6.42074 30.0474 7.56341 27.762 9.46787 26.4289Z" fill="white"/>
</g>
<path d="M6.0399 38.9988C8.13481 41.0937 10.9915 39.5701 12.7055 36.523C14.2291 33.8567 15.3718 30.0478 15.1813 26.8102C14.8004 24.144 13.2768 22.2395 10.9915 23.0013C8.70614 23.7631 6.61124 26.2389 5.27811 29.0956C3.5641 32.714 3.5641 36.7134 6.0399 38.9988ZM5.46856 28.9051C6.23035 26.8102 7.75391 25.4771 9.08703 24.5249C10.4202 23.7631 9.46793 27.3816 9.27749 28.5242C8.70615 33.6663 6.23035 36.7134 5.46856 34.9994C4.51633 33.0949 4.51633 31.1905 5.46856 28.9051Z" fill="#C5D3D6"/>
<path d="M102.215 45.8553C102.025 45.6648 102.025 45.6648 102.215 45.8553C102.405 45.284 102.025 45.0935 101.834 45.0935C94.978 31.9527 81.0755 23.0018 67.1729 19.1928C59.936 17.2884 52.3181 16.5266 44.7003 17.2884C37.6538 18.0502 30.7977 20.3355 24.513 23.7635C15.3716 28.5247 7.56327 36.333 2.61167 45.2839H2.42122C0.707207 48.3311 1.27855 50.426 3.37345 51.7591C3.75435 54.0445 6.61104 55.568 8.32506 56.5203C10.9913 58.2343 13.848 59.377 16.7047 60.5196C24.8939 63.7572 33.6544 64.7095 42.6054 65.0903C59.3646 65.8521 76.1239 62.6145 91.1691 54.8063C95.1685 52.7113 99.1678 50.0451 101.644 46.0457C102.025 46.6171 102.405 46.2362 102.215 45.8553Z" fill="#E3E874"/>
<path d="M59.9353 35.1894C59.7449 35.1894 59.7449 35.1894 59.5544 35.1894C59.1735 34.9989 58.7926 34.8085 58.4118 34.618C58.0309 34.4276 57.65 34.8085 57.4595 35.1894C57.0786 37.4747 59.5544 39.5696 61.4589 40.5219C61.8398 40.7123 62.2207 40.7123 62.4111 40.3314C63.3634 39.3792 63.9347 38.0461 63.3634 36.7129C62.6016 35.5703 61.078 35.1894 59.9353 35.1894Z" fill="#C7E648"/>
<path opacity="0.7" d="M102.214 45.8549C102.024 45.6645 102.024 45.6645 102.214 45.8549C102.405 45.2836 102.024 45.0931 101.834 45.0931C101.072 43.5696 100.12 42.046 98.9769 40.5224C98.7864 40.1415 98.4056 39.7606 98.2151 39.5702C96.1202 40.332 94.2157 41.0938 91.9304 41.2842C90.2164 41.4747 88.3119 41.4747 86.7883 42.4269C84.8839 43.5696 85.0743 46.0454 85.8361 47.7594C86.9788 50.4256 89.0737 52.711 91.5495 54.425C91.7399 54.6154 91.9304 54.6154 91.9304 54.8059C92.5017 54.425 93.0731 54.0441 93.6444 53.8536C96.6915 51.9492 99.5482 49.6638 101.643 46.6167C102.024 46.6167 102.405 46.2358 102.214 45.8549Z" fill="#60CB00"/>
<path d="M73.6476 50.0449C70.7909 47.3787 66.7916 47.7596 63.554 46.0455C60.5069 44.3315 58.9833 40.7131 56.1266 38.8086C52.5081 36.3328 47.9374 38.8086 44.1285 38.0468C41.0813 37.4755 38.2247 35.1901 35.1775 36.7137C31.1782 38.6181 32.5113 45.6646 33.4635 48.9022C34.4157 51.7589 35.9393 54.2347 37.082 57.0914C37.6533 58.8054 38.0342 60.329 37.8438 62.043C37.8438 62.9952 37.4629 63.9475 37.082 64.8997C37.2724 64.8997 37.6533 64.8997 37.8438 64.8997C39.5578 65.0902 41.0814 65.0902 42.7954 65.0902C55.5553 65.6615 68.5056 63.9475 80.5037 59.5672C80.8846 59.3768 81.075 59.3768 81.4559 59.1863C80.8846 58.8054 80.3133 58.4245 79.7419 57.8532C77.0757 55.9487 76.1234 52.3303 73.6476 50.0449Z" fill="#A1D900"/>
<path d="M45.4614 31.0001C46.7945 31.7619 48.699 32.5236 50.2226 31.7619C53.8411 30.0478 51.3653 27.0007 49.2703 25.2867C46.7945 23.1918 46.0328 20.1447 44.8901 17.288H44.6996C44.3187 17.288 43.7474 17.4784 43.3665 17.4784C38.034 18.2402 32.7015 19.7638 27.7499 22.0491C27.369 22.2396 26.7977 22.43 26.4168 22.6205C27.7499 23.7631 29.0831 24.7154 30.4162 25.4772C32.7015 26.8103 35.1773 26.8103 37.6531 27.0007C40.8907 27.3816 42.9856 29.2861 45.4614 31.0001Z" fill="#C7E648"/>
<path d="M64.5061 31.7618C67.3628 34.2376 71.5526 40.7127 75.9329 37.4751C79.9323 34.2376 78.98 28.7146 79.1705 23.9535C78.5991 23.763 78.0278 23.3821 77.4564 23.1917C74.0284 21.6681 70.6004 20.335 66.9819 19.3828C61.0781 17.8592 54.9838 17.0974 49.08 17.0974C48.5086 17.0974 47.9373 17.0974 47.366 17.0974C48.6991 19.9541 50.0322 23.0012 51.7462 25.6675C55.1742 30.2382 60.5067 28.5242 64.5061 31.7618Z" fill="#A6CC1B"/>
<path opacity="0.3" d="M93.6443 37.0945C94.4061 36.904 94.9775 36.7136 95.7392 36.3327C95.3584 35.9518 94.9775 35.3804 94.4061 34.9995C91.5494 32.1429 88.3118 29.4766 84.8838 27.1912C84.5029 26.8104 83.9316 26.6199 83.3603 26.239C83.5507 28.3339 83.3602 30.4288 82.2176 32.1429C81.4558 33.2855 80.3131 34.6187 80.5036 35.9518C80.8845 38.0467 82.5985 38.8085 84.5029 38.8085C87.7405 39.1894 90.7876 38.0467 93.6443 37.0945Z" fill="#29A800"/>
<path opacity="0.4" d="M102.025 45.6644C102.215 45.4739 102.025 45.2835 101.834 45.093C101.453 45.6644 100.882 46.0453 100.311 46.4261C97.4538 48.3306 94.2162 49.8542 91.1691 50.9968C87.1697 52.5204 83.1704 53.6631 78.9805 54.6153C75.5525 55.3771 72.3149 56.1389 68.6965 55.758C68.3156 55.758 68.1251 55.5676 68.1251 55.3771C67.7442 55.1867 67.5538 54.8058 67.7442 54.4249C69.4582 46.9975 55.5557 47.1879 51.5563 47.9497C48.5092 48.521 45.462 49.8542 42.4149 50.4255C41.2722 50.616 39.9391 50.8064 38.9869 50.4255C38.7964 52.5204 39.7486 54.8058 40.1295 56.7102C40.32 57.2816 39.9391 57.8529 39.1773 57.8529C35.7493 57.472 30.7977 58.8051 27.7505 56.9007C27.3696 57.0911 26.9888 57.0911 26.6079 56.7102C25.4652 55.5676 25.0843 53.8535 23.9416 52.9013C22.9894 52.1395 22.2276 51.3777 21.0849 50.8064C21.2754 51.3777 20.704 51.9491 20.1327 51.9491C15.7524 52.33 10.039 53.0918 5.84923 51.3777C3.56388 50.4255 2.42121 49.2828 1.65942 47.3784C1.08808 49.4733 1.84986 50.9968 3.37343 51.9491C3.75432 54.2344 6.61102 55.758 8.32504 56.7102C10.9913 58.4242 13.848 59.5669 16.7047 60.7096C24.8938 63.9472 33.6544 64.8994 42.6053 65.2803C59.3646 66.0421 76.1239 62.8045 91.1691 54.9962C95.1685 52.9013 99.1678 50.2351 101.644 46.2357C102.025 46.6166 102.405 46.2357 102.025 45.6644C102.215 45.8548 102.215 45.8548 102.025 45.6644Z" fill="#454E00"/>
<path d="M102.596 46.2355C102.596 46.2355 102.786 45.0929 102.596 45.0929C101.644 43.1884 98.7868 39.5699 96.8824 37.475C91.7403 31.5712 85.8365 27.1909 78.79 23.5725C75.1715 21.668 71.1721 20.1444 67.1728 19.1922C59.9358 17.0973 52.1275 16.526 44.5097 17.2877C37.2727 18.0495 30.4167 20.3349 24.1319 23.7629C14.9905 28.7145 7.18224 36.5228 2.04019 45.6642H1.84975C-0.0547153 48.7114 0.707069 50.8063 2.80198 52.1394C3.18287 54.4247 6.03956 55.9483 7.75357 56.9005C10.4198 58.6146 13.2765 59.7572 16.3236 60.8999C24.7033 64.1375 33.4638 65.0897 42.4148 65.4706C59.3645 66.2324 76.3142 62.9948 91.3594 55.1865C93.8352 53.8534 96.1206 52.5203 98.2155 50.6158C99.7391 49.2827 102.405 47.1878 102.596 46.2355ZM82.9798 57.8528C74.6002 61.2808 65.8397 63.3757 56.8887 64.1375C47.9377 64.8993 38.7963 64.7088 30.0358 63.3757C22.4179 62.233 14.8001 59.7572 8.13447 55.7579C6.80134 54.9961 4.89689 53.8534 4.1351 52.3298C9.0867 54.9961 19.5612 54.4247 22.9893 53.663C23.3702 54.2343 23.751 54.9961 23.9415 55.7579C24.1319 56.1387 24.7033 55.9483 24.5128 55.5674C24.1319 54.0438 22.9893 52.3298 21.8466 51.3776C21.6561 51.1872 21.4657 51.3776 21.6561 51.568C22.037 51.9489 22.2275 52.3298 22.6084 52.9012C17.8472 53.6629 0.707068 54.6152 2.42108 47.1878C6.23001 41.0935 10.4198 35.3801 15.9428 30.619C21.4657 25.8578 28.1313 22.2393 35.1778 19.954C49.4613 15.3833 66.411 18.0495 79.9327 25.2865C88.6932 29.8572 96.5015 36.9037 101.263 45.6642C97.0728 51.9489 89.6454 55.1865 82.9798 57.8528Z" fill="#386009"/>
<path opacity="0.3" d="M29.8449 32.1426C30.4163 27.7624 28.5118 24.1439 23.7507 22.8108C19.5608 21.6681 15.1806 25.477 13.8475 29.4764C12.5143 33.2853 12.5143 38.0464 14.7997 40.9031C15.9424 42.4267 18.7991 42.998 20.894 42.8076C25.0838 42.4267 28.8927 38.6178 29.8449 32.1426Z" fill="#0C5F51"/>
<path d="M22.2276 21.6682C12.134 20.9064 8.32505 39.951 18.4187 40.7128C28.5123 41.4746 32.3213 22.43 22.2276 21.6682C26.4174 21.8586 18.0378 21.2873 22.2276 21.6682Z" fill="#C5D3D6"/>
<path d="M14.419 29.6663C13.4668 34.0466 15.7521 37.8555 19.3706 38.0459C22.9891 38.2364 26.4171 34.9988 27.3693 30.6185C28.3216 26.2383 26.0362 22.4293 22.4177 22.2389C18.9897 22.0484 15.3712 25.4765 14.419 29.6663Z" fill="#E2EAEC"/>
<path d="M17.8475 30.9998C16.7048 34.8088 17.657 38.2368 20.1328 38.6177C22.6086 38.9986 25.6558 36.1419 26.7984 32.333C27.9411 28.524 26.9889 25.096 24.5131 24.7151C22.0373 24.3342 19.1806 27.1909 17.8475 30.9998Z" fill="#000445"/>
<path d="M18.4187 30.9998C17.276 34.4278 18.2283 37.4749 20.5136 37.6654C22.799 38.0463 25.2748 35.5705 26.4174 32.1425C27.5601 28.7144 26.6079 25.6673 24.3225 25.4768C22.0372 25.2864 19.5614 27.7622 18.4187 30.9998Z" fill="url(#paint2_linear_78_173897)"/>
<path d="M19.9426 31.3805C19.3713 33.4754 19.7522 35.1894 21.0853 35.3799C22.4184 35.5703 23.942 34.0467 24.5134 32.1423C25.0847 30.0474 24.7038 28.3333 23.3707 28.1429C22.228 27.762 20.7044 29.2856 19.9426 31.3805Z" fill="black"/>
<path d="M19.1808 36.713C18.9903 36.3321 18.7999 35.5703 19.1808 34.999C19.5617 34.6181 19.7521 34.6181 19.9426 34.8085C20.133 35.1894 20.5139 35.7608 21.0852 35.7608C21.6566 35.7608 22.7993 35.7608 23.7515 34.4277C24.3228 33.4754 24.5133 33.0945 24.8942 33.4754C25.0846 33.8563 24.3228 35.1894 23.7515 35.7608C22.7993 36.713 21.4661 37.2844 20.5139 37.0939C20.133 37.2844 19.5617 37.0939 19.1808 36.713Z" fill="url(#paint3_linear_78_173897)"/>
<path d="M67.1731 49.8541C63.3642 47.5688 58.4126 47.1879 54.0324 47.3783C51.747 47.5688 49.2712 47.9497 46.9858 48.7114C44.51 49.4732 42.0342 50.4255 39.368 50.6159C39.1775 50.6159 39.1775 50.9968 39.368 50.9968C39.5584 50.9968 39.5585 50.9968 39.5585 50.9968V51.1872C40.3202 53.4726 41.082 55.5675 42.796 57.472C44.1292 59.186 46.0336 60.3287 47.9381 61.2809C51.3661 62.9949 55.5559 63.7567 59.3648 62.9949C59.5553 62.9949 59.5553 62.9949 59.7457 62.9949C59.9362 62.9949 60.1266 62.8045 60.3171 62.8045C60.5075 62.8045 60.5075 62.4236 60.3171 62.4236C60.1266 62.4236 59.9362 62.4236 59.5553 62.4236C58.0317 60.5191 61.4597 57.6624 62.7929 56.3293C64.6973 54.6153 66.7922 52.9013 66.9827 50.0446C67.3636 50.235 67.3636 49.8541 67.1731 49.8541Z" fill="#86C5A9"/>
<g opacity="0.6">
<path d="M64.126 50.9969C60.8884 49.2829 57.0795 49.6638 53.461 50.2351C51.3661 50.616 49.0808 51.1874 46.9859 51.3778C44.7005 51.5683 42.6056 50.9969 40.3202 50.9969C39.9393 50.9969 39.9394 51.5683 40.1298 51.5683C40.1298 51.5683 40.1298 51.7587 40.3202 51.7587C40.3202 51.7587 40.5107 51.7587 40.5107 51.9492C40.3203 52.1396 40.3203 52.1396 40.5107 52.3301C40.8916 52.7109 41.2725 52.9014 41.6534 53.0918V53.2823C42.9865 55.5676 46.0336 56.5199 48.319 57.0912C50.9852 57.853 54.0324 58.0434 56.6986 57.853C56.8891 57.853 56.8891 57.4721 56.6986 57.4721C52.1279 57.4721 45.8432 56.9008 42.4152 53.2823C44.5101 54.0441 46.7954 54.2345 48.8903 54.2345C52.5088 54.2345 55.9368 53.6632 59.5553 54.2345C59.7458 54.2345 59.9362 53.8536 59.7458 53.8536C54.4133 52.5205 48.6999 54.4249 43.5578 52.9014C49.4617 54.2345 55.9368 51.1874 62.0311 52.3301C62.2215 52.3301 62.412 52.1396 62.0311 51.9492C55.175 49.8542 48.1285 54.425 41.4629 51.5683C42.9865 51.7587 44.5101 51.9492 46.0336 51.7587C47.7476 51.7587 49.4617 51.3778 51.1757 50.9969C55.3655 50.2351 59.7457 49.2829 63.9356 50.9969C64.126 51.3778 64.3165 50.9969 64.126 50.9969Z" fill="#467D7F"/>
<path d="M56.8892 60.1384C51.5567 59.948 43.9389 58.8053 41.4631 53.2824C41.2726 52.9015 40.8917 53.2824 40.8917 53.4728C42.7962 59.3766 51.5567 60.9002 56.6988 60.5193C57.0796 60.5193 57.0796 60.1384 56.8892 60.1384Z" fill="#467D7F"/>
</g>
<path d="M67.1731 49.8541C63.3642 47.5688 58.4126 47.1879 54.0324 47.3783C51.747 47.5688 49.2712 47.9497 46.9858 48.7114C44.51 49.4732 42.0342 50.4255 39.368 50.6159C39.1775 50.6159 39.1775 50.9968 39.368 50.9968C39.5584 50.9968 39.5585 50.9968 39.5585 50.9968V51.1872C40.3202 53.4726 41.082 55.5675 42.796 57.472C44.1292 59.186 46.0336 60.3287 47.9381 61.2809C51.3661 62.9949 55.5559 63.7567 59.3648 62.9949C59.5553 62.9949 59.5553 62.9949 59.7457 62.9949C59.9362 62.9949 60.1266 62.8045 60.3171 62.8045C60.5075 62.8045 60.5075 62.4236 60.3171 62.4236C60.1266 62.4236 59.9362 62.4236 59.5553 62.4236C58.0317 60.5191 61.4597 57.6624 62.7929 56.3293C64.6973 54.6153 66.7922 52.9013 66.9827 50.0446C67.3636 50.235 67.3636 49.8541 67.1731 49.8541ZM60.698 57.8529C59.7457 58.8051 57.8413 61.2809 58.9839 62.8045C55.5559 62.9949 52.1279 62.614 48.8903 61.0904C47.1763 60.3287 45.4623 59.186 44.1291 57.6624C42.4151 55.7579 41.4629 53.4726 40.7011 51.1872C42.2247 51.1872 43.7483 50.6159 45.2718 50.0446C47.5572 49.2828 50.033 48.521 52.5088 48.3306C57.2699 47.7592 62.6024 48.1401 66.7922 50.6159C66.7922 50.6159 66.7922 50.6159 66.9827 50.6159C66.0304 53.8535 62.9833 55.3771 60.698 57.8529Z" fill="#3E7D7F"/>
<path d="M21.2753 55.1865C17.276 55.7578 13.0862 55.3769 9.08678 54.6151C8.70589 54.6151 8.51545 55.1865 8.89634 55.1865C12.5148 56.5196 17.276 57.0909 21.2753 56.71C22.2276 56.71 22.2276 55.1865 21.2753 55.1865Z" fill="#E3E874"/>
<path d="M22.7986 55.7581C22.2273 55.7581 22.2273 56.5198 22.7986 56.5198C23.37 56.7103 23.37 55.7581 22.7986 55.7581Z" fill="#E3E874"/>
<path opacity="0.4" d="M55.9363 41.2837C52.8891 39.3793 49.842 38.9984 46.414 40.1411C45.0808 40.522 43.5573 41.2837 42.4146 40.522C41.4624 39.9506 40.7006 39.3793 39.5579 38.9984C38.7961 38.6175 38.0343 38.6175 37.2726 38.808C35.3681 39.1888 34.6063 41.4742 35.3681 43.3787C36.3203 46.0449 39.3675 47.9494 42.2241 47.5685C44.3191 47.1876 46.414 46.4258 48.5089 45.8545C50.9847 45.0927 53.27 45.8545 55.7458 45.4736C58.6025 45.0927 57.6503 42.4264 55.9363 41.2837Z" fill="#E3E874"/>
<path opacity="0.4" d="M94.9782 43.7596C93.8355 43.1882 92.6928 42.9978 91.5501 43.1882C88.8839 42.9978 85.8368 45.4736 87.3603 48.3303C89.2648 51.7583 94.4068 47.759 95.5495 45.664C95.9304 45.0927 95.74 44.1405 94.9782 43.7596Z" fill="#E3E874"/>
<path opacity="0.4" d="M76.5051 29.6665C74.7911 24.7149 65.0783 20.3347 60.8885 24.5245C60.5076 24.7149 60.3172 24.9054 60.3172 25.2863C60.3172 25.2863 60.3172 25.2863 60.3172 25.4767C59.9363 26.0481 60.1267 27.0003 60.5076 27.3812C62.2216 28.9047 64.3166 29.857 66.221 30.9996C66.4115 31.1901 66.7923 31.3805 66.9828 31.571C68.5064 32.9041 69.8395 35.7608 71.9344 36.1417C75.3624 36.9035 77.4573 32.9041 76.5051 29.6665Z" fill="#E3E874"/>
<path opacity="0.4" d="M48.509 24.9057C47.5568 23.5726 45.8428 22.4299 44.1288 23.1917C43.1765 23.5726 42.7956 24.5248 42.7956 25.2866C42.4147 26.4292 43.367 27.5719 44.1288 28.3337C45.2714 29.4764 46.9855 30.4286 48.509 30.8095C49.4613 31 50.223 30.4286 50.223 29.4764C50.4135 27.7624 49.4613 26.0484 48.509 24.9057Z" fill="#E3E874"/>
<path d="M93.8349 38.2368C84.8839 29.8572 74.4094 23.5725 62.4113 21.4776C56.5075 20.5253 50.4132 20.1444 44.5094 20.9062C42.0336 21.2871 39.5577 21.8584 37.2724 22.4298C35.3679 22.8107 32.8921 23.382 31.9399 25.2865C31.3686 26.6196 32.7017 28.1432 34.0348 27.3814C42.6049 22.8107 53.8412 23.382 63.3635 24.9056C68.696 25.8578 73.8381 27.7623 78.7897 29.8572C84.3126 32.333 90.026 37.2846 95.3585 40.3317C96.1202 40.9031 94.4062 38.6177 93.8349 38.2368Z" fill="white"/>
<path d="M97.4532 41.4745C96.8819 41.284 96.3105 41.2841 95.9296 41.8554C95.5487 42.4267 95.9296 43.1885 96.501 43.379C97.0723 43.5694 97.4532 43.1885 97.6436 42.8076C98.215 42.6172 98.0245 41.8554 97.4532 41.4745Z" fill="white"/>
<path d="M30.4168 30.6186C29.8454 31.1899 30.2263 32.523 31.1785 32.523C31.369 32.523 31.369 32.523 31.5594 32.523C31.9403 32.523 32.1308 32.1421 32.1308 31.9517C32.1308 31.7612 32.1308 31.7612 32.1308 31.5708C32.3212 30.4281 30.9881 30.0472 30.4168 30.6186Z" fill="white"/>
<path d="M9.65784 38.0461C6.99159 40.7124 5.27758 44.7117 3.75401 48.1398C3.37312 49.2824 5.08714 49.8538 5.46803 48.7111C6.61071 45.0926 9.65784 39.5697 11.1814 36.3321C11.5623 35.5703 10.2292 37.4748 9.65784 38.0461Z" fill="white"/>
<path d="M139.352 27.9529C133.829 28.9051 128.497 30.0478 123.545 32.1427C123.164 32.3331 123.355 32.9045 123.736 32.9045C129.068 31.3809 134.401 30.6191 139.923 29.6669C140.876 29.4764 140.304 27.7624 139.352 27.9529Z" fill="#CCF8FF"/>
<path d="M135.924 31.3807C133.448 31.5712 130.592 31.7616 128.497 33.0948C127.925 33.4756 128.306 34.047 128.878 34.047C131.163 33.4756 133.448 33.0948 135.924 33.0948C137.067 33.0948 137.067 31.3807 135.924 31.3807Z" fill="#CCF8FF"/>
<path d="M133.068 37.0939C133.068 36.713 132.687 36.5226 132.306 36.5226C132.115 36.5226 131.925 36.5226 131.734 36.713C131.354 36.9035 131.354 37.6653 131.734 37.8557C131.544 37.6653 131.925 38.0462 131.925 38.0462C132.306 38.2366 132.496 38.2366 132.877 37.8557C133.068 37.6653 133.068 37.4748 133.068 37.0939Z" fill="#CCF8FF"/>
<path d="M133.829 41.2842C133.448 41.2842 133.067 41.2842 132.877 41.4746C132.115 41.4746 132.115 42.6173 132.877 42.8078C133.448 42.8078 134.019 42.8077 134.4 42.4269C134.591 42.046 134.4 41.2842 133.829 41.2842Z" fill="#CCF8FF"/>
<path d="M142.78 44.9026C141.827 44.5217 140.494 44.9026 139.542 44.9026C138.78 44.9026 137.447 44.7121 136.685 45.2834C136.495 45.4739 136.495 45.8548 136.685 46.0452C137.447 46.6166 138.59 46.4261 139.542 46.4261C140.494 46.4261 142.208 46.807 142.97 46.0452C143.351 45.8548 143.351 45.2835 142.78 44.9026Z" fill="#CCF8FF"/>
<path d="M144.303 49.6636C143.732 49.0923 142.97 49.2827 142.399 49.4732C141.637 49.6636 140.875 49.6636 140.114 49.854C139.542 50.0445 139.542 50.9967 140.304 50.9967C141.066 50.9967 141.637 50.9967 142.399 50.9967C143.161 50.9967 143.923 51.1872 144.494 50.6158C144.494 50.2349 144.494 49.8541 144.303 49.6636Z" fill="#CCF8FF"/>
<path d="M142.781 52.1394C142.209 51.949 141.828 52.1394 141.828 52.5203C141.828 52.9012 142.209 53.2821 142.59 53.0916C142.59 53.0916 142.59 53.0916 142.781 53.0916C143.162 52.7107 143.162 52.3299 142.781 52.1394Z" fill="#CCF8FF"/>
<path d="M152.683 54.9964C151.16 54.8059 149.446 54.8059 147.922 54.9964C147.351 54.9964 147.351 55.9486 147.922 55.9486C149.446 56.139 151.16 56.3295 152.683 55.9486C153.064 55.9486 153.064 54.9964 152.683 54.9964Z" fill="#CCF8FF"/>
<path d="M140.495 24.9057C132.496 24.1439 123.545 26.0483 117.07 30.9999C116.879 31.1904 117.07 31.5713 117.26 31.3808C120.879 29.4764 124.497 27.7624 128.306 26.8101C132.305 25.8579 136.305 25.8579 140.304 25.6675C141.066 25.6675 141.066 24.9057 140.495 24.9057Z" fill="#CCF8FF"/>
<path d="M143.542 25.0963C142.971 24.5249 142.209 25.0963 142.019 25.6676C141.828 26.239 142.59 26.6198 142.971 26.2389C143.161 26.2389 143.542 26.239 143.733 26.0485C143.733 25.8581 143.733 25.4772 143.542 25.0963Z" fill="#CCF8FF"/>
<path opacity="0.8" d="M58.7928 63.1854C57.0788 62.0427 55.5552 62.4236 53.8412 62.0427C53.4603 62.0427 53.4603 61.4714 53.6508 61.2809C54.7934 60.7096 56.317 60.5191 57.4597 59.9478C55.5552 59.3765 53.4603 59.9478 51.5558 59.3765C50.9845 59.186 51.175 58.6147 51.7463 58.6147C53.2699 58.4242 54.7934 58.2338 56.1266 58.0433C54.4125 57.8529 52.6985 57.2815 50.9845 56.7102C50.6036 56.5198 50.6036 56.1389 50.7941 55.9484C53.2699 53.6631 57.2692 54.4249 60.5068 54.6153C58.9833 53.4726 56.317 53.8535 54.4125 53.4726C54.0316 53.4726 54.0316 52.7108 54.4125 52.7108C56.317 51.9491 58.4119 51.9491 60.5068 52.1395C60.1259 51.9491 59.745 51.7586 59.3641 51.5682C59.3641 51.5682 59.1737 51.5682 59.1737 51.3777C58.6024 51.3777 58.2215 51.3777 57.6501 51.3777C56.1266 51.3777 54.603 51.3777 53.2699 51.5682C53.0794 51.5682 52.889 51.5682 52.6985 51.5682C52.3176 51.7586 52.1272 51.7586 52.1272 51.7586C51.9367 51.9491 51.7463 52.1395 51.3654 51.9491L51.175 51.7586C50.9845 51.5682 50.9845 51.3777 51.175 51.1873C51.9367 50.0446 55.1743 50.2351 56.317 50.2351C58.7928 50.2351 61.2686 50.4255 63.9348 50.6159C58.6024 48.1401 52.6985 49.4733 47.1756 51.1873C46.7947 51.3777 46.6043 50.8064 46.6043 50.6159C47.1756 49.4733 48.1278 48.7115 49.0801 48.1401C48.5087 48.3306 47.7469 48.521 47.1756 48.7115C44.6998 49.4733 42.224 50.4255 39.5578 50.6159C39.3673 50.6159 39.3673 50.9968 39.5578 50.9968C39.7482 50.9968 39.7482 50.9968 39.7482 50.9968V51.1873C40.51 53.4726 41.2718 55.5675 42.9858 57.472C44.3189 59.186 46.2234 60.3287 48.1278 61.2809C51.3654 63.1854 55.3648 63.9472 58.7928 63.1854C58.9833 63.1854 58.9833 63.1854 58.7928 63.1854Z" fill="#86C5A9"/>
<path d="M65.0783 50.2352C61.0789 48.3307 55.3655 46.9976 51.1757 49.2829C50.7948 49.4734 50.9852 50.0447 51.3661 49.8543C56.1273 48.5211 60.1267 50.2352 64.6974 51.1874C65.2687 51.1874 65.6496 50.4256 65.0783 50.2352Z" fill="#CCF8FF"/>
<path d="M63.5544 51.568C61.8404 50.6157 59.5551 50.4253 57.6506 50.2349C57.2697 50.2349 57.2697 50.8062 57.6506 50.8062C59.5551 50.9966 61.4595 51.9489 63.364 52.1393C63.7449 52.3298 63.9353 51.7584 63.5544 51.568Z" fill="#CCF8FF"/>
<path d="M62.221 52.9012C61.8401 52.7108 61.4592 52.7108 61.0783 52.5203C60.6975 52.3299 60.3166 52.3299 59.9357 52.1394C59.3643 51.949 58.9834 52.7108 59.5548 53.0917C59.9357 53.2821 60.3166 53.4726 60.507 53.663C60.8879 53.8534 61.2688 54.0439 61.8401 54.0439C62.6019 54.0439 62.7924 53.0917 62.221 52.9012Z" fill="#CCF8FF"/>
<path d="M60.3164 54.8053C59.9355 54.8053 59.5546 54.8053 59.1737 54.8053C58.9832 54.8053 58.7928 54.9957 58.6024 55.3766C58.6024 55.7575 58.6024 55.948 58.9832 56.1384C59.1737 56.3289 59.745 56.5193 59.9355 56.5193C60.3164 56.5193 60.6973 56.3289 60.6973 55.948C60.8877 55.3766 60.6973 54.8053 60.3164 54.8053Z" fill="#CCF8FF"/>
<path d="M58.6029 58.0437C58.222 57.6628 57.6507 57.8532 57.6507 58.2341C57.4602 58.615 57.8411 59.1864 58.4124 58.9959C58.7933 58.9959 58.9838 58.2341 58.6029 58.0437Z" fill="#CCF8FF"/>
<path d="M57.0794 61.281C56.5081 61.281 56.5081 62.2332 57.0794 62.2332C57.6508 62.2332 57.6508 61.281 57.0794 61.281Z" fill="#CCF8FF"/>
<path d="M47.7471 3.95654C44.8904 5.67056 42.7955 8.7177 40.891 11.3839C40.5101 11.9553 41.2719 12.3362 41.6528 11.9553C43.9382 9.47947 45.4618 6.62279 48.128 4.52788C48.5089 4.33743 48.128 3.7661 47.7471 3.95654Z" fill="#CCF8FF"/>
<path d="M48.1285 5.28905C47.3667 5.66994 46.6049 6.43172 46.0336 7.00306C45.4623 7.5744 44.8909 8.33619 44.7005 9.28842C44.51 9.66931 45.0814 10.0502 45.4623 9.66931C46.0336 9.09797 46.2241 8.33619 46.7954 7.76485C47.3667 7.19351 47.9381 6.62217 48.6999 6.05083C49.0807 5.66994 48.5094 5.0986 48.1285 5.28905Z" fill="#CCF8FF"/>
<path d="M50.0328 6.43248C49.271 6.81337 48.8901 7.3847 48.5092 8.14649C48.1283 8.52738 47.557 9.47961 48.1283 10.0509C48.3188 10.2414 48.5092 10.2414 48.8901 10.0509C49.271 9.8605 49.271 9.47962 49.271 9.28917C49.4614 8.52739 50.0328 7.76559 50.6041 7.19426C50.7945 6.81336 50.4137 6.24204 50.0328 6.43248Z" fill="#CCF8FF"/>
<path d="M51.5566 7.76538C50.9852 7.95583 50.4139 8.52716 50.9853 9.0985C51.3661 9.47939 51.9375 9.0985 51.9375 8.71761V8.52717C52.3184 8.33672 51.9375 7.76538 51.5566 7.76538Z" fill="#CCF8FF"/>
<path d="M54.6033 7.76587C54.032 7.57543 53.6511 8.14676 53.8415 8.7181C54.032 9.09899 54.6033 9.09899 54.7938 8.7181C54.7938 8.52766 54.7938 8.52766 54.9842 8.33722C54.9842 8.14677 54.7938 7.95632 54.6033 7.76587Z" fill="#CCF8FF"/>
<path d="M57.2699 7.3844C56.6986 7.3844 56.6986 8.33663 57.2699 8.33663C57.8413 8.33663 57.8413 7.3844 57.2699 7.3844Z" fill="#CCF8FF"/>
<path d="M59.1745 9.28906C58.9841 9.28906 58.7936 9.28906 58.6032 9.28906C58.4127 9.47951 58.2223 9.4795 58.0319 9.66995C57.651 10.0508 57.2701 10.6222 57.4605 11.1935C57.651 11.5744 58.2223 11.7649 58.4127 11.384C58.6032 11.0031 58.6032 10.8126 58.7936 10.4317C58.9841 10.2413 59.1745 10.0508 59.1745 9.86039C59.5554 9.86039 59.5554 9.47951 59.1745 9.28906Z" fill="#CCF8FF"/>
<path d="M59.9359 11.3842C59.7455 11.5746 59.555 11.765 59.555 11.9555C59.1741 12.7173 60.6977 12.9077 60.6977 12.1459V11.9555V11.765C60.6977 11.3842 60.1264 11.1937 59.9359 11.3842Z" fill="#CCF8FF"/>
<path d="M62.0307 12.7172C61.6498 12.5267 61.4594 12.7172 61.4594 12.9076C61.2689 13.0981 61.2689 13.2885 61.4594 13.2885C61.6498 13.479 61.8402 13.479 62.0307 13.479C62.0307 13.479 62.0307 13.479 62.2211 13.479C62.4116 13.479 62.4116 12.7172 62.0307 12.7172Z" fill="#CCF8FF"/>
<path d="M65.6495 14.0503C65.0781 14.0503 65.0781 14.8121 65.6495 14.8121C66.2208 14.8121 66.2208 14.0503 65.6495 14.0503Z" fill="#CCF8FF"/>
<path d="M68.8863 14.4313C68.6958 14.4313 68.5054 14.4313 68.315 14.6217C68.1245 14.8122 68.1245 15.1931 68.315 15.3835C68.5054 15.3835 68.6958 15.3835 68.8863 15.3835C69.4576 15.3835 69.4576 14.4313 68.8863 14.4313Z" fill="#CCF8FF"/>
<path d="M52.6987 70.6125C51.7464 70.0411 50.9846 69.4698 50.0324 68.708C49.2706 68.1367 48.5088 67.5653 47.5566 67.1844C47.1757 67.1844 46.9853 67.5653 47.1757 67.7558C48.5089 69.2794 50.2229 71.1838 52.1273 71.9456C52.8891 72.5169 53.27 71.1838 52.6987 70.6125Z" fill="#86C5A9"/>
<path d="M59.1739 71.1836C56.8885 70.0409 54.6032 68.7078 52.5083 67.1842C51.9369 66.8033 51.1751 67.3747 51.7465 67.946C53.4605 70.0409 56.1267 71.755 58.6025 72.7072C59.5548 73.0881 60.1261 71.5645 59.1739 71.1836Z" fill="#86C5A9"/>
<path d="M66.6016 73.2793C63.364 72.1366 61.0787 69.4703 57.8411 68.3277C57.2697 68.1372 57.0793 68.899 57.4602 69.2799C60.5073 70.9939 62.7927 73.6602 66.2207 74.9933C67.1729 75.1837 67.5538 73.6602 66.6016 73.2793Z" fill="#86C5A9"/>
<path d="M68.5058 70.6128C66.4109 69.851 64.316 68.8988 62.602 67.5657C62.2211 67.1848 61.4593 67.7561 61.8402 68.137C62.602 69.2797 63.9351 70.2319 65.2682 70.9937C66.2205 71.565 67.9345 72.7077 68.8867 71.7555C69.2676 71.3746 69.0772 70.8033 68.5058 70.6128Z" fill="#86C5A9"/>
<path d="M71.1722 68.5175C70.9817 67.9461 69.8391 67.7557 69.2677 67.5652C68.3155 67.1843 67.5537 66.8034 66.7919 66.2321C66.411 65.8512 65.8397 66.613 66.2206 66.9939C66.9824 67.7557 67.9346 68.327 68.6964 68.7079C69.2677 69.0888 70.4104 69.6601 70.9817 69.0888C71.3626 69.0888 71.3626 68.7079 71.1722 68.5175Z" fill="#86C5A9"/>
<path d="M74.9808 64.899C74.0285 64.1372 72.8859 63.9468 71.9336 64.3277C71.5527 64.3277 70.9814 64.5181 70.6005 64.7086C70.2196 64.899 70.2196 65.6608 70.6005 65.8512C71.9336 66.613 73.8381 66.9939 74.9808 65.8512C75.1712 65.6608 75.1712 65.0894 74.9808 64.899Z" fill="#86C5A9"/>
<path d="M79.7421 62.9949C79.5517 62.614 79.1708 62.4236 78.7899 62.4236C78.409 62.4236 77.8376 62.2331 77.4568 62.614C77.2663 62.614 77.0759 62.9949 77.0759 63.1854C77.0759 63.3758 77.0759 63.3758 77.0759 63.5663C77.0759 63.7567 77.2663 64.1376 77.6472 64.1376C78.2185 64.328 78.9803 64.1376 79.5517 64.1376C79.7421 63.9472 80.123 63.3758 79.7421 62.9949Z" fill="#86C5A9"/>
<path d="M82.2181 61.8522C82.0276 61.8522 82.0276 61.6618 81.8372 61.6618C81.6467 61.6618 81.6467 61.4713 81.6467 61.4713C81.2658 61.0904 80.6945 61.6618 81.0754 62.0427C81.4563 62.4236 81.8372 62.8044 82.2181 62.614C82.5989 62.4236 82.4085 62.0427 82.2181 61.8522Z" fill="#86C5A9"/>
<path d="M85.2651 60.8997C85.0747 60.5188 84.8842 60.5188 84.5034 60.5188C84.3129 60.5188 84.1225 60.5188 83.932 60.5188C83.3607 60.3284 82.9798 61.2806 83.5511 61.471C83.7416 61.6615 84.1225 61.6615 84.3129 61.6615C84.6938 61.6615 85.0747 61.6615 85.2651 61.2806C85.4556 61.2806 85.4556 60.8997 85.2651 60.8997Z" fill="#86C5A9"/>
<path d="M87.1696 59.3761C86.9791 59.3761 86.5982 59.1857 86.4078 59.1857C85.8365 58.9953 85.646 59.757 86.0269 59.9475C86.4078 60.1379 86.7887 60.1379 87.1696 60.1379C87.5505 59.9475 87.5505 59.5666 87.1696 59.3761Z" fill="#86C5A9"/>
<path d="M90.788 57.6626C90.5976 57.4722 90.4072 57.2817 90.2167 57.2817C90.0263 57.2817 90.0263 57.2817 89.8358 57.0913C89.6454 56.9008 89.074 56.9008 89.074 57.2817C89.074 57.4722 89.074 57.4722 89.074 57.6626C89.074 57.8531 89.2645 57.8531 89.4549 58.0435C89.8358 58.234 90.2167 58.4244 90.5976 58.234C90.9785 58.234 90.9785 58.0435 90.788 57.6626Z" fill="#86C5A9"/>
<path d="M92.8828 55.758C93.0732 55.3771 92.6923 54.9962 92.3114 55.1866C92.121 55.1866 92.121 55.1866 92.121 55.1866C91.9305 55.1866 91.9305 55.1866 91.7401 55.1866C91.3592 55.3771 91.1687 55.5675 90.9783 55.9484C90.7879 56.3293 91.1687 56.5198 91.3592 56.7102C91.7401 56.9006 92.121 56.9007 92.5019 56.9007C93.2636 56.9007 93.4541 56.1389 92.8828 55.758Z" fill="#86C5A9"/>
<path d="M45.6526 68.3272C45.0812 68.1367 44.7003 67.7558 44.3194 67.1845C44.129 66.8036 43.3672 66.9941 43.5577 67.5654C43.7481 68.3272 44.3194 69.2794 45.2717 69.4699C46.0335 69.4699 46.2239 68.5176 45.6526 68.3272Z" fill="#86C5A9"/>
<path d="M22.2274 25.8578C24.1319 24.7151 24.1319 26.81 23.1796 28.524C22.4179 30.4285 20.5134 31.9521 19.1803 31.1903C18.0376 30.619 19.7516 27.3814 22.2274 25.8578Z" fill="white"/>
<defs>
<linearGradient id="paint0_linear_78_173897" x1="13.0725" y1="27.6118" x2="4.87925" y2="36.5168" gradientUnits="userSpaceOnUse">
<stop stop-color="#000269"/>
<stop offset="0.3893" stop-color="#0055BB"/>
<stop offset="1" stop-color="#4A9369"/>
</linearGradient>
<linearGradient id="paint1_linear_78_173897" x1="9.1912" y1="34.9676" x2="6.48933" y2="33.3797" gradientUnits="userSpaceOnUse">
<stop stop-color="#000269"/>
<stop offset="0.1461" stop-color="#002569"/>
<stop offset="0.1538" stop-color="#062E6B"/>
<stop offset="0.1986" stop-color="#245E78"/>
<stop offset="0.2432" stop-color="#3E8582"/>
<stop offset="0.2869" stop-color="#52A48A"/>
<stop offset="0.3293" stop-color="#60BA8F"/>
<stop offset="0.37" stop-color="#68C893"/>
<stop offset="0.4069" stop-color="#6BCC94"/>
<stop offset="0.4802" stop-color="#68C793"/>
<stop offset="0.5652" stop-color="#61B990"/>
<stop offset="0.6562" stop-color="#54A28B"/>
<stop offset="0.7514" stop-color="#428184"/>
<stop offset="0.8499" stop-color="#2B577A"/>
<stop offset="0.9496" stop-color="#10246F"/>
<stop offset="1" stop-color="#000869"/>
</linearGradient>
<linearGradient id="paint2_linear_78_173897" x1="27.1214" y1="25.7694" x2="19.5161" y2="39.3957" gradientUnits="userSpaceOnUse">
<stop stop-color="#000269"/>
<stop offset="0.3893" stop-color="#0055BB"/>
<stop offset="1" stop-color="#4A9369"/>
</linearGradient>
<linearGradient id="paint3_linear_78_173897" x1="24.2824" y1="35.5934" x2="19.6141" y2="33.7774" gradientUnits="userSpaceOnUse">
<stop stop-color="#000269"/>
<stop offset="0.1461" stop-color="#002569"/>
<stop offset="0.1538" stop-color="#062E6B"/>
<stop offset="0.1986" stop-color="#245E78"/>
<stop offset="0.2432" stop-color="#3E8582"/>
<stop offset="0.2869" stop-color="#52A48A"/>
<stop offset="0.3293" stop-color="#60BA8F"/>
<stop offset="0.37" stop-color="#68C893"/>
<stop offset="0.4069" stop-color="#6BCC94"/>
<stop offset="0.4802" stop-color="#68C793"/>
<stop offset="0.5652" stop-color="#61B990"/>
<stop offset="0.6562" stop-color="#54A28B"/>
<stop offset="0.7514" stop-color="#428184"/>
<stop offset="0.8499" stop-color="#2B577A"/>
<stop offset="0.9496" stop-color="#10246F"/>
<stop offset="1" stop-color="#000869"/>
</linearGradient>
</defs>
</svg>
