<svg width="66" height="34" viewBox="0 0 66 34" fill="none" xmlns="http://www.w3.org/2000/svg">
<path fill-rule="evenodd" clip-rule="evenodd" d="M46.3105 25.3537C46.6539 22.9884 48.7647 22.2617 51.7591 22.7629C54.1476 24.4717 54.7586 25.9 54.2334 26.4913C53.6275 27.1779 50.9108 27.258 47.2195 25.7496C47.068 25.6895 46.4721 25.4239 46.3105 25.3537Z" fill="url(#paint0_linear_78_172294)"/>
<path opacity="0.62" fill-rule="evenodd" clip-rule="evenodd" d="M52.8953 23.665C54.3345 24.9629 54.6627 26.0053 54.2385 26.4914C53.678 27.1278 51.3047 27.2431 48.0275 26.0604C48.5476 26.0804 49.0273 26.1706 49.2091 26.2458C51.9662 27.3834 54.799 26.7469 52.8953 23.665Z" fill="#FFF3B1"/>
<path fill-rule="evenodd" clip-rule="evenodd" d="M47.1035 24.3364C47.159 24.2161 47.2247 24.1008 47.2903 23.9956C49.295 24.9728 51.027 25.7646 52.4914 26.386C52.8752 26.5464 53.2388 26.6967 53.5872 26.832C53.3751 26.8871 53.1226 26.9272 52.8348 26.9473C52.6732 26.8821 52.5066 26.812 52.3399 26.7418C50.8654 26.1204 49.1183 25.3186 47.1035 24.3364ZM54.1426 25.1332L53.9457 25.053C52.4106 24.4166 50.6281 23.6799 48.8304 22.9081C48.7294 22.868 48.6184 22.9131 48.5729 23.0084C48.5325 23.1086 48.578 23.2188 48.6739 23.2639C50.5524 24.0708 52.2945 24.7924 53.7942 25.4088L54.3598 25.6443C54.3194 25.489 54.2487 25.3186 54.1426 25.1332Z" fill="#FBED85"/>
<path fill-rule="evenodd" clip-rule="evenodd" d="M43.3668 12.9607C43.7101 15.3261 45.7098 16.163 48.7093 15.6568C51.0978 13.948 51.7088 12.5197 51.1836 11.9284C50.5726 11.2368 47.8054 11.1566 44.0636 12.7152C43.9424 12.7653 43.488 12.9056 43.3668 12.9607Z" fill="url(#paint1_linear_78_172294)"/>
<path opacity="0.62" fill-rule="evenodd" clip-rule="evenodd" d="M50.9158 13.5671C51.4157 12.8304 51.4713 12.2541 51.1834 11.9283C50.5876 11.2568 47.9618 11.1616 44.3715 12.5848C45.447 12.4245 47.1589 12.0236 48.1991 12.0135C49.6079 12.0035 50.6128 12.5147 50.9158 13.5671Z" fill="#FFF3B1"/>
<path fill-rule="evenodd" clip-rule="evenodd" d="M44.1696 14.3138C44.2352 14.429 44.3059 14.5343 44.3867 14.6345C45.5734 13.9329 46.7701 13.3015 47.9719 12.7402C48.8556 12.3243 49.7443 11.9484 50.6331 11.6127C50.4311 11.5475 50.1887 11.5024 49.9059 11.4774C49.204 11.758 48.5021 12.0587 47.8053 12.3894C46.5934 12.9607 45.3815 13.6022 44.1696 14.3138ZM45.4724 15.4714C45.4825 15.4614 45.4926 15.4564 45.5077 15.4463C47.068 14.5794 48.482 13.8126 49.7444 13.1411C50.315 12.8404 50.8452 12.5598 51.3501 12.3042C51.3703 12.4395 51.3552 12.5899 51.3148 12.7603C50.8805 12.9858 50.4159 13.2263 49.9312 13.4869C48.7647 14.1033 47.4468 14.8249 45.9672 15.6418C45.7905 15.5917 45.6289 15.5365 45.4724 15.4714Z" fill="#FBED85"/>
<path fill-rule="evenodd" clip-rule="evenodd" d="M43.2757 25.2835C34.9539 26.1104 30.6769 27.5085 30.4446 29.468C31.7625 32.6201 33.9389 34.0734 36.8576 33.3067C41.8214 32.0037 45.038 30.4552 46.0833 28.7714C46.9771 27.3432 45.8359 26.0703 43.2757 25.2835Z" fill="url(#paint2_linear_78_172294)"/>
<path opacity="0.7" fill-rule="evenodd" clip-rule="evenodd" d="M32.6311 32.5649C33.7875 33.467 35.2064 33.7426 36.8627 33.3066C41.8265 32.0037 45.0431 30.4552 46.0884 28.7713C46.5933 27.9595 46.4419 27.2028 45.7501 26.5513C46.0783 27.9846 45.3208 28.9167 43.7908 29.934C41.5437 31.4274 35.1105 34.1134 32.6311 32.5649Z" fill="url(#paint3_linear_78_172294)"/>
<path opacity="0.7" fill-rule="evenodd" clip-rule="evenodd" d="M40.7256 25.5741C40.5691 25.5941 40.4126 25.6142 40.256 25.6342C41.781 27.318 43.21 28.6861 44.5432 29.7335C44.6643 29.8287 44.7855 29.9189 44.9067 30.0091C45.0178 29.9239 45.1188 29.8387 45.2198 29.7586C45.0784 29.6533 44.932 29.5431 44.7855 29.4278C43.5181 28.4356 42.1648 27.1527 40.7256 25.5741ZM37.6504 26.0351C39.3319 28.0046 40.8216 29.5982 42.1244 30.821C42.3062 30.9913 42.488 31.1567 42.6647 31.3171C42.5384 31.3772 42.4072 31.4323 42.2759 31.4925C42.1395 31.3672 41.9981 31.2369 41.8567 31.1066C40.5085 29.8438 38.9583 28.18 37.206 26.1203C37.3525 26.0903 37.504 26.0652 37.6504 26.0351ZM34.8125 26.6616C34.6762 26.6966 34.5449 26.7367 34.4186 26.7718C35.7416 28.7763 37.0243 30.4401 38.2614 31.7631C38.5593 32.0788 38.8522 32.3745 39.14 32.6551C39.2814 32.61 39.4228 32.5649 39.5642 32.5198C39.2309 32.2091 38.8926 31.8683 38.5492 31.5025C37.3424 30.2146 36.1002 28.6009 34.8125 26.6616ZM31.8635 27.7891C31.9292 27.7841 31.9948 27.8091 32.0352 27.8643C33.4996 29.7235 34.7974 31.2018 35.9285 32.3043L35.9386 32.3143C36.3123 32.6752 36.6657 32.9959 37.004 33.2715L36.8627 33.3116C36.7516 33.3417 36.6455 33.3667 36.5395 33.3868C36.2618 33.1462 35.9739 32.8806 35.6709 32.59L35.6608 32.5799C34.5196 31.4724 33.2118 29.9791 31.7322 28.0998C31.6817 28.0347 31.6767 27.9445 31.7221 27.8743C31.7676 27.8442 31.813 27.8192 31.8635 27.7891Z" fill="#FBED85"/>
<path fill-rule="evenodd" clip-rule="evenodd" d="M28.9347 29.4378C24.1123 28.4155 21.128 28.5608 19.9716 29.8738C20.6735 32.4746 21.8147 33.8979 23.4003 33.7976C25.7433 33.6523 27.6774 32.9257 29.0256 31.7029C29.7124 31.0815 29.6063 30.2496 28.9347 29.4378Z" fill="url(#paint4_linear_78_172294)"/>
<path opacity="0.7" fill-rule="evenodd" clip-rule="evenodd" d="M21.027 32.4096C21.6582 33.3717 22.451 33.8578 23.4004 33.7977C25.7434 33.6524 27.6774 32.9257 29.0257 31.7029C29.3236 31.4323 29.4751 31.1216 29.4953 30.7959C28.2177 31.9635 27.334 32.3043 25.5616 32.8155C24.2285 33.1963 22.244 33.3467 21.027 32.4096Z" fill="url(#paint5_linear_78_172294)"/>
<path opacity="0.7" fill-rule="evenodd" clip-rule="evenodd" d="M24.2639 28.7816C24.0973 28.7766 23.9306 28.7715 23.7741 28.7715C24.779 30.1747 25.703 31.3374 26.5362 32.2594C26.7483 32.495 26.9553 32.7155 27.1573 32.9209C27.2836 32.8608 27.4048 32.8007 27.526 32.7405C27.2987 32.515 27.0664 32.2695 26.8241 32.0039C26.0515 31.1369 25.193 30.0645 24.2639 28.7816ZM21.532 29.0021C22.3602 30.5606 23.2035 31.8435 24.067 32.8558C24.3093 33.1364 24.5517 33.397 24.7941 33.6376C24.6376 33.6626 24.481 33.6877 24.3194 33.7127C24.1377 33.5223 23.9508 33.3218 23.769 33.1114C22.8752 32.064 22.0017 30.736 21.1533 29.1223C21.2695 29.0772 21.3957 29.0372 21.532 29.0021Z" fill="#FBED85"/>
<path fill-rule="evenodd" clip-rule="evenodd" d="M41.8518 12.6049C27.016 10.7156 17.4065 8.79629 13.0285 6.84688C14.3111 3.66469 16.0128 1.29433 18.2549 0.758114C19.3506 0.497524 18.5377 2.30662 16.7248 4.70705C19.0881 2.36174 21.4614 0.868364 22.9258 0.577707C25.1325 0.141721 23.7943 1.70526 20.8504 4.14578C23.6933 2.18134 26.5161 1.08887 29.1974 1.61506C34.0855 2.57222 37.5243 4.7321 40.0087 7.02228C41.67 8.55575 43.2556 9.18718 44.1393 9.8136C45.23 10.5954 44.3261 11.6878 41.8518 12.6049Z" fill="url(#paint6_linear_78_172294)"/>
<path opacity="0.7" fill-rule="evenodd" clip-rule="evenodd" d="M17.0529 1.24927C17.4366 1.02877 17.8356 0.8634 18.2547 0.763174C19.3505 0.502584 18.5375 2.31167 16.7246 4.7121C19.0879 2.3668 21.4612 0.873418 22.9256 0.582761C23.7234 0.42741 24.0567 0.527641 24.0214 0.838344C22.1025 1.72535 19.7393 2.91303 19.4363 3.05335C17.982 3.73489 15.4925 6.49614 16.6943 4.25607C17.6235 2.52215 17.7497 2.00598 17.0529 1.24927ZM21.85 3.49435C21.1229 4.08569 20.6129 4.50664 20.83 4.32623C23.1781 2.35177 28.4044 1.82557 31.6615 3.0333C35.2316 4.3563 39.9934 8.71114 43.7755 10.1795C44.0937 10.3047 44.3158 10.5603 44.5784 10.6956C44.6491 10.3799 44.5077 10.0792 44.1391 9.81364C43.2554 9.18722 41.6698 8.55579 40.0085 7.02232C37.5241 4.73215 34.0853 2.57227 29.1972 1.6151C26.829 1.15406 24.3546 1.95086 21.85 3.49435Z" fill="url(#paint7_linear_78_172294)"/>
<path opacity="0.7" fill-rule="evenodd" clip-rule="evenodd" d="M37.4536 12.0234L36.8628 11.9433C38.4938 10.8809 39.9532 9.99385 41.2459 9.28224C41.6095 9.08179 41.9579 8.89637 42.2962 8.72097C42.4325 8.80115 42.5638 8.88134 42.6951 8.95651C42.2962 9.15696 41.8771 9.38247 41.4378 9.62301C40.2562 10.2745 38.9281 11.0763 37.4536 12.0234ZM28.6975 1.53973C28.8642 1.55978 29.0308 1.58483 29.1975 1.61991L29.4196 1.66502C25.8142 3.1183 22.6228 5.14288 19.8556 7.73875C19.7748 7.81392 19.6536 7.80891 19.5779 7.72873C19.5022 7.64855 19.5072 7.52828 19.588 7.45311C22.2441 4.96247 25.2789 2.98801 28.6975 1.53973ZM32.505 2.51193C29.0561 4.28093 26.1576 6.29549 23.8095 8.56061C23.7338 8.63578 23.7287 8.75605 23.8044 8.83623C23.8802 8.9114 24.0014 8.91641 24.0822 8.84124C26.4706 6.53603 29.4449 4.4864 33.0049 2.69735C32.8433 2.6322 32.6767 2.57206 32.505 2.51193ZM36.2164 4.21578C35.3328 4.62671 34.3986 5.10279 33.4189 5.65905C31.6465 6.6563 29.7125 7.88909 27.6169 9.34739C27.526 9.40752 27.5058 9.53281 27.5715 9.618C27.6321 9.7082 27.7583 9.72825 27.8442 9.6631C29.9296 8.20481 31.8536 6.98204 33.6159 5.9948C34.6763 5.39846 35.6812 4.8873 36.6255 4.45633C36.4891 4.37615 36.3528 4.29596 36.2164 4.21578ZM39.6502 6.70141C39.0139 6.97202 38.3423 7.28773 37.6303 7.65857C36.0397 8.48544 34.2572 9.56288 32.2878 10.8959C32.1969 10.956 32.1767 11.0763 32.2373 11.1665C32.2979 11.2567 32.4191 11.2768 32.51 11.2166C34.4693 9.89363 36.2366 8.8212 37.8121 8.00435C38.5746 7.60846 39.2967 7.26768 39.9683 6.99206C39.8623 6.89183 39.7562 6.79662 39.6502 6.70141Z" fill="#FBED85"/>
<path fill-rule="evenodd" clip-rule="evenodd" d="M52.2034 17.3858C50.3148 19.5257 50.6582 20.2072 51.7843 21.6755C56.5713 23.2591 59.9243 26.2659 63.2974 26.732C65.7667 27.0777 65.9333 23.2892 63.9135 19.9316C62.6915 17.902 62.338 16.0678 63.2116 14.0032C64.2064 11.6479 64.1155 9.64332 62.8581 9.72851C58.9951 9.9891 55.0413 13.8278 52.2034 17.3858Z" fill="url(#paint8_linear_78_172294)"/>
<path opacity="0.7" fill-rule="evenodd" clip-rule="evenodd" d="M60.6262 25.9151C61.5301 26.316 62.4138 26.6117 63.2924 26.732C65.7617 27.0777 65.9284 23.2892 63.9085 19.9316C62.6865 17.902 62.333 16.0678 63.2066 14.0032C64.2014 11.6479 64.1105 9.64332 62.8531 9.72851C61.7624 9.80368 60.6666 10.1595 59.5911 10.7208C61.9088 10.3499 64.1509 10.3249 62.4744 13.8127C60.3939 18.1476 66.4838 22.3871 63.4641 25.1935C62.8531 25.7598 61.6816 25.8349 60.6262 25.9151Z" fill="url(#paint9_linear_78_172294)"/>
<path opacity="0.7" fill-rule="evenodd" clip-rule="evenodd" d="M65.2669 24.9428C65.282 24.8025 65.2972 24.6622 65.2972 24.5118C64.2266 23.8854 63.0046 23.269 61.6412 22.6627C59.2224 21.5902 56.3391 20.5529 53.0013 19.5506C52.8953 19.5206 52.7892 19.5757 52.7589 19.6809C52.7286 19.7862 52.7841 19.8914 52.8902 19.9215C56.2179 20.9237 59.0861 21.9511 61.4847 23.0135C62.9087 23.6499 64.166 24.2914 65.2669 24.9428ZM63.9186 19.9465C63.5348 19.8814 63.1309 19.8162 62.7117 19.7611C60.7424 19.4905 58.3741 19.3301 55.6119 19.27C55.5059 19.27 55.4201 19.1798 55.4201 19.0746C55.4201 18.9693 55.511 18.8841 55.617 18.8841C58.3993 18.9443 60.7777 19.1096 62.7622 19.3802C63.0753 19.4203 63.3732 19.4654 63.6661 19.5156C63.7419 19.6559 63.8227 19.7962 63.9085 19.9365L63.9186 19.9465ZM62.7723 15.5716C62.7925 15.4313 62.8178 15.286 62.8481 15.1457C62.3886 15.281 61.9088 15.4363 61.414 15.6017C59.4699 16.2532 57.243 17.1302 54.7232 18.2377C54.6222 18.2828 54.5818 18.393 54.6222 18.4932C54.6677 18.5885 54.7788 18.6336 54.8797 18.5935C57.3793 17.491 59.5961 16.619 61.5352 15.9675C61.9593 15.8222 62.3734 15.6919 62.7723 15.5716ZM63.8833 11.2168C62.5805 11.8382 61.2221 12.5999 59.8031 13.4969C57.8439 14.7347 55.7685 16.2281 53.587 17.9771C53.5012 18.0422 53.38 18.0322 53.3144 17.947C53.2487 17.8618 53.2588 17.7415 53.3447 17.6764C55.5413 15.9174 57.6267 14.414 59.5961 13.1712C61.0807 12.2341 62.5047 11.4423 63.863 10.8008C63.8731 10.9311 63.8833 11.0715 63.8833 11.2168Z" fill="#FBED85"/>
<path fill-rule="evenodd" clip-rule="evenodd" d="M24.6275 30.831C13.8717 31.0264 6.87295 29.3777 3.53514 24.0306C0.252878 22.011 0.131679 20.0265 2.30302 18.9741C4.7218 17.8015 4.68141 15.3159 5.55499 12.259C6.77701 7.9893 10.9682 6.37565 16.538 5.89457C25.6071 5.10779 33.6461 6.93191 41.2307 11.6526C45.1795 14.1081 49.7343 15.0352 54.2385 16.1878C57.6319 17.0598 57.7834 19.2848 54.592 21.2443C43.0738 28.3203 32.9644 30.6806 24.6275 30.831Z" fill="url(#paint10_linear_78_172294)"/>
<path opacity="0.49" fill-rule="evenodd" clip-rule="evenodd" d="M56.829 17.962C57.0814 18.7739 56.6219 19.721 55.4504 20.6481C49.4161 22.0713 38.62 23.1237 36.8829 23.229C34.3076 23.3843 16.543 25.4089 15.4523 23.3141C14.8564 22.1716 17.7448 17.3156 17.7195 16.4887C17.6993 15.747 20.6079 15.9074 21.3048 15.8924C27.2886 15.7721 33.5098 16.0227 39.5441 16.614C40.9378 16.7543 51.7086 17.1953 56.829 17.962Z" fill="url(#paint11_linear_78_172294)"/>
<path fill-rule="evenodd" clip-rule="evenodd" d="M20.2747 5.71434C27.8441 5.66924 34.7065 7.58858 41.2357 11.6478C45.1845 14.1033 49.7393 15.0304 54.2435 16.183C55.2282 16.4336 55.9402 16.8044 56.3795 17.2454C54.5516 18.8791 53.2286 21.1292 52.4055 18.6436C51.4763 15.8222 50.5977 16.2933 50.1129 17.5661C49.6938 18.6686 49.7948 19.9415 49.4514 20.4527C48.6738 21.6103 47.3053 21.1242 47.068 20.0167C46.4166 16.9999 46.5227 16.0477 45.3511 16.1329C44.316 16.2081 44.1594 18.1625 43.5282 20.1319C43.0485 21.6404 40.7105 21.2344 40.3571 19.7361C39.8672 17.6413 39.9329 15.7069 39.9329 15.6869C39.7965 12.2641 38.1302 12.1188 37.7514 14.2937C37.4434 16.0577 37.3778 17.7165 37.3525 17.9169C36.8122 22.0713 33.1058 20.8335 32.9846 17.3306C32.7977 11.9484 30.3689 7.36808 29.6518 16.3334C29.1671 22.367 24.5971 20.1019 24.476 14.419C24.4154 11.2018 23.6781 7.95942 20.2747 5.71434Z" fill="#003652"/>
<path fill-rule="evenodd" clip-rule="evenodd" d="M23.6782 5.82971C25.6576 5.98005 27.5866 6.27071 29.4802 6.71171C28.2885 8.2552 29.3388 12.2242 27.2281 12.0688C25.2688 11.9235 26.3595 8.46567 23.6782 5.82971ZM32.8786 7.67388C34.3783 8.17501 35.8528 8.77637 37.3122 9.47796C36.6305 10.9513 36.378 12.9959 35.9084 13.2014C34.9489 13.6223 33.8128 13.0661 33.5098 11.5827C33.2725 10.4451 33.1917 8.82649 32.8786 7.67388ZM41.0338 11.5226C41.1044 11.5627 41.1701 11.6078 41.2408 11.6479C42.2608 12.2843 43.3212 12.8155 44.412 13.2766C44.0888 13.6875 43.8565 14.1435 43.7656 14.4492C42.892 17.2756 41.362 16.2433 41.1247 14.2337C41.0287 13.4319 41.0439 12.4497 41.0338 11.5226ZM46.8964 14.1986C47.8003 14.4943 48.7143 14.7599 49.6383 15.0105C49.4465 15.697 49.5626 16.7294 49.1788 17.2606C48.5224 18.1726 47.4518 17.8218 47.1236 16.8146C46.8762 16.0729 46.8812 15.0355 46.8964 14.1986ZM52.2237 15.672C52.8953 15.8424 53.572 16.0077 54.2436 16.1781C54.7031 16.2984 55.102 16.4387 55.4454 16.6041C55.4 16.6592 55.3545 16.7143 55.304 16.7694C54.2082 18.0473 53.067 18.4031 52.8549 17.461C52.7035 16.7795 52.4712 16.1631 52.2237 15.672Z" fill="url(#paint12_linear_78_172294)"/>
<path fill-rule="evenodd" clip-rule="evenodd" d="M16.0279 30.4703C10.034 29.7236 5.87817 27.7942 3.53514 24.0307C0.252878 22.0111 0.131679 20.0266 2.30302 18.9743C4.7218 17.8016 4.68141 15.316 5.555 12.2591C6.44878 9.12698 8.9433 7.42313 12.4073 6.55116C19.5526 4.74708 21.5724 13.7374 21.835 19.2549C22.1026 24.8175 22.345 31.257 16.0279 30.4703Z" fill="url(#paint13_linear_78_172294)"/>
<path fill-rule="evenodd" clip-rule="evenodd" d="M10.6754 22.7476C11.8065 21.7052 16.3259 20.8433 18.3155 22.2715C21.2291 24.3663 17.3964 28.3703 12.9123 27.9043C10.1956 27.6286 8.5848 24.677 10.6754 22.7476Z" fill="#DBF7DE"/>
<path fill-rule="evenodd" clip-rule="evenodd" d="M9.41296 7.65861C10.3017 7.19256 11.3066 6.82673 12.4124 6.54609C19.5577 4.74201 21.5775 13.7323 21.8401 19.2498C22.0876 24.4716 22.3148 30.4602 17.1339 30.5303C22.0825 28.1149 20.8857 23.2489 20.9615 20.5879C21.0928 15.8221 19.6082 10.0841 17.1642 8.20485C14.9322 6.501 11.9378 6.66637 9.41296 7.65861Z" fill="#DBF7DE"/>
<path fill-rule="evenodd" clip-rule="evenodd" d="M3.51993 20.8735C3.80776 20.8735 4.04005 21.104 4.04005 21.3896C4.04005 21.6753 3.80776 21.9058 3.51993 21.9058C3.2321 21.9058 2.99982 21.6753 2.99982 21.3896C2.99982 21.104 3.23715 20.8735 3.51993 20.8735ZM4.07539 24.2762C3.96935 24.2361 3.91885 24.1208 3.95419 24.0156C3.99459 23.9103 4.11074 23.8602 4.21678 23.8953C4.96918 24.1759 5.71147 24.3764 6.44367 24.4917C7.17586 24.6069 7.90301 24.642 8.62511 24.5919C8.7362 24.5869 8.83719 24.6671 8.84224 24.7823C8.84729 24.8926 8.7665 24.9928 8.65035 24.9978C7.90301 25.0479 7.14051 25.0128 6.37802 24.8926C5.62057 24.7723 4.85304 24.5668 4.07539 24.2762Z" fill="#003652"/>
<path fill-rule="evenodd" clip-rule="evenodd" d="M31.0557 28.15C29.9144 28.6862 28.3036 28.0949 26.0717 26.0753C27.3139 25.4439 27.7178 23.5546 26.3948 22.0061C28.0208 20.8886 30.4345 20.3323 32.0252 20.8886C33.9895 21.5802 32.6311 27.4083 31.0557 28.15Z" fill="url(#paint14_linear_78_172294)"/>
<path opacity="0.7" fill-rule="evenodd" clip-rule="evenodd" d="M31.0555 28.1501C30.4849 28.4207 29.7931 28.4057 28.9599 28.0649C31.2676 27.8695 32.4139 25.6394 32.1412 22.2217C32.0705 21.3146 30.6919 20.8937 29.6315 20.7433C30.495 20.613 31.3332 20.6481 32.02 20.8887C33.9893 21.5802 32.631 27.4084 31.0555 28.1501Z" fill="#FFF3B1"/>
<path fill-rule="evenodd" clip-rule="evenodd" d="M26.8291 25.3989C26.8998 25.2937 26.9604 25.1784 27.0159 25.0582C28.7025 25.7597 30.1922 26.3411 31.4748 26.7971C31.6717 26.8672 31.8636 26.9324 32.0504 26.9975C31.9848 27.1178 31.9191 27.2331 31.8535 27.3383C31.6869 27.2782 31.5152 27.2231 31.3435 27.1579C30.0407 26.6918 28.5359 26.1055 26.8291 25.3989ZM27.2028 24.2914C27.2129 24.1661 27.2129 24.0358 27.2078 23.9005C28.849 24.0609 30.2528 24.2112 31.4293 24.3566C31.9494 24.4217 32.4241 24.4819 32.8584 24.542C32.8331 24.6673 32.8079 24.7976 32.7826 24.9229C32.3585 24.8627 31.8888 24.8026 31.3839 24.7424C30.1972 24.6021 28.8035 24.4518 27.2028 24.2914ZM27.0513 23.1388C27.0109 23.0185 26.9604 22.8933 26.8998 22.773C27.9956 22.5575 29.157 22.4072 30.3941 22.317C31.2071 22.2568 32.0504 22.2268 32.9291 22.2217C32.9543 22.347 32.9695 22.4773 32.9846 22.6076C32.1009 22.6126 31.2475 22.6427 30.4245 22.7028C29.2277 22.793 28.1067 22.9384 27.0513 23.1388Z" fill="#FBED85"/>
<path fill-rule="evenodd" clip-rule="evenodd" d="M12.7306 21.6103C15.4574 21.6103 17.6843 19.3402 17.6843 16.5539C17.6843 13.7676 15.4574 11.4974 12.7306 11.4974C10.0038 11.4974 7.77692 13.7676 7.77692 16.5539C7.77692 19.3402 10.0038 21.6103 12.7306 21.6103Z" fill="#1A987D"/>
<path fill-rule="evenodd" clip-rule="evenodd" d="M12.6496 21.2945C14.9371 21.2945 16.8004 19.4102 16.8004 17.105C16.8004 14.7998 14.9371 12.9155 12.6496 12.9155C10.3622 12.9155 8.49884 14.7998 8.49884 17.105C8.49884 19.4102 10.3622 21.2945 12.6496 21.2945Z" fill="#003652"/>
<path fill-rule="evenodd" clip-rule="evenodd" d="M12.6498 20.8585C14.6192 20.8585 16.23 19.2649 16.23 17.3055C16.23 15.3511 14.6242 13.7524 12.6498 13.7524C10.6805 13.7524 9.06964 15.346 9.06964 17.3055C9.06964 19.2599 10.6805 20.8585 12.6498 20.8585Z" fill="white"/>
<path fill-rule="evenodd" clip-rule="evenodd" d="M13.2203 20.5229C14.8513 20.5229 16.1844 19.1999 16.1844 17.5812C16.1844 15.9626 14.8513 14.6396 13.2203 14.6396C11.5893 14.6396 10.2562 15.9626 10.2562 17.5812C10.2562 19.2049 11.5842 20.5229 13.2203 20.5229Z" fill="url(#paint15_linear_78_172294)"/>
<path fill-rule="evenodd" clip-rule="evenodd" d="M13.2202 14.6396C14.4119 14.6396 15.437 15.3362 15.9066 16.3434C15.4673 17.4259 14.4018 18.1876 13.1546 18.1876C11.9628 18.1876 10.9378 17.491 10.4681 16.4838C10.9075 15.4063 11.9729 14.6396 13.2202 14.6396Z" fill="url(#paint16_linear_78_172294)"/>
<path fill-rule="evenodd" clip-rule="evenodd" d="M13.3111 19.2349C14.1948 19.2349 14.9119 18.5233 14.9119 17.6463C14.9119 16.7693 14.1948 16.0577 13.3111 16.0577C12.4274 16.0577 11.7104 16.7693 11.7104 17.6463C11.7104 18.5182 12.4325 19.2349 13.3111 19.2349Z" fill="#141414"/>
<path fill-rule="evenodd" clip-rule="evenodd" d="M12.0588 17.5462C12.5689 17.5462 12.9829 17.1353 12.9829 16.6291C12.9829 16.123 12.5689 15.712 12.0588 15.712C11.5488 15.712 11.1348 16.123 11.1348 16.6291C11.1348 17.1302 11.5488 17.5462 12.0588 17.5462Z" fill="white"/>
<path fill-rule="evenodd" clip-rule="evenodd" d="M36.7215 24.1058C37.5749 24.0005 38.5091 24.647 37.0901 25.3636C36.9891 25.4137 35.4187 25.9199 35.4187 24.9026C35.4187 24.4065 36.267 24.1659 36.7215 24.1058Z" fill="#00673F"/>
<path fill-rule="evenodd" clip-rule="evenodd" d="M38.1353 23.5897C38.4737 23.9405 39.2462 24.1761 40.3774 23.7401C41.2661 23.3993 40.9126 22.5023 40.0037 22.3369C39.3927 22.2267 37.4132 22.8431 38.1353 23.5897Z" fill="#00673F"/>
<path fill-rule="evenodd" clip-rule="evenodd" d="M41.251 24.7474C40.6804 24.597 39.9179 24.8426 39.6604 25.0731C39.2614 25.4289 39.524 26.0203 40.6703 25.8599C41.7913 25.6995 41.8468 24.9078 41.251 24.7474Z" fill="#00673F"/>
<defs>
<linearGradient id="paint0_linear_78_172294" x1="46.731" y1="25.621" x2="56.2567" y2="23.8219" gradientUnits="userSpaceOnUse">
<stop stop-color="#F18500"/>
<stop offset="1" stop-color="#F8E12B"/>
</linearGradient>
<linearGradient id="paint1_linear_78_172294" x1="43.7579" y1="12.8066" x2="53.1865" y2="14.5677" gradientUnits="userSpaceOnUse">
<stop stop-color="#F18500"/>
<stop offset="1" stop-color="#F8E12B"/>
</linearGradient>
<linearGradient id="paint2_linear_78_172294" x1="37.9732" y1="28.0044" x2="42.2415" y2="34.0955" gradientUnits="userSpaceOnUse">
<stop stop-color="#E23810"/>
<stop offset="1" stop-color="#F8DF16"/>
</linearGradient>
<linearGradient id="paint3_linear_78_172294" x1="33.9823" y1="28.7747" x2="49.1994" y2="31.8284" gradientUnits="userSpaceOnUse">
<stop stop-color="#F18500"/>
<stop offset="1" stop-color="#F8E12B"/>
</linearGradient>
<linearGradient id="paint4_linear_78_172294" x1="23.552" y1="28.3511" x2="27.6396" y2="35.7175" gradientUnits="userSpaceOnUse">
<stop stop-color="#E23810"/>
<stop offset="1" stop-color="#F8DF16"/>
</linearGradient>
<linearGradient id="paint5_linear_78_172294" x1="21.7826" y1="31.0542" x2="30.942" y2="33.6704" gradientUnits="userSpaceOnUse">
<stop stop-color="#F18500"/>
<stop offset="1" stop-color="#F8E12B"/>
</linearGradient>
<linearGradient id="paint6_linear_78_172294" x1="28.5292" y1="10.8919" x2="30.1089" y2="-1.46177" gradientUnits="userSpaceOnUse">
<stop stop-color="#E23810"/>
<stop offset="1" stop-color="#F8DF16"/>
</linearGradient>
<linearGradient id="paint7_linear_78_172294" x1="27.7394" y1="11.8976" x2="33.0604" y2="1.48437" gradientUnits="userSpaceOnUse">
<stop stop-color="#F18500"/>
<stop offset="1" stop-color="#F8E12B"/>
</linearGradient>
<linearGradient id="paint8_linear_78_172294" x1="52.7456" y1="20.9774" x2="70.0636" y2="16.3343" gradientUnits="userSpaceOnUse">
<stop stop-color="#E23810"/>
<stop offset="1" stop-color="#F8DF16"/>
</linearGradient>
<linearGradient id="paint9_linear_78_172294" x1="58.1168" y1="19.6063" x2="66.109" y2="17.3813" gradientUnits="userSpaceOnUse">
<stop stop-color="#F18500"/>
<stop offset="1" stop-color="#F8E12B"/>
</linearGradient>
<linearGradient id="paint10_linear_78_172294" x1="28.42" y1="33.4174" x2="29.3065" y2="5.72554" gradientUnits="userSpaceOnUse">
<stop stop-color="#00A241"/>
<stop offset="1" stop-color="#258C99"/>
</linearGradient>
<linearGradient id="paint11_linear_78_172294" x1="36.0677" y1="25.3412" x2="36.1905" y2="15.8983" gradientUnits="userSpaceOnUse">
<stop stop-color="#6BD180"/>
<stop offset="1" stop-color="#80D6DD"/>
</linearGradient>
<linearGradient id="paint12_linear_78_172294" x1="38.3225" y1="9.24897" x2="47.3964" y2="26.6929" gradientUnits="userSpaceOnUse">
<stop stop-color="#E23810"/>
<stop offset="1" stop-color="#F8DF16"/>
</linearGradient>
<linearGradient id="paint13_linear_78_172294" x1="10.6137" y1="32.5997" x2="12.5869" y2="5.87322" gradientUnits="userSpaceOnUse">
<stop stop-color="#6BD180"/>
<stop offset="1" stop-color="#80D6DD"/>
</linearGradient>
<linearGradient id="paint14_linear_78_172294" x1="26.5057" y1="24.1491" x2="34.7437" y2="24.9045" gradientUnits="userSpaceOnUse">
<stop stop-color="#F18500"/>
<stop offset="1" stop-color="#F8E12B"/>
</linearGradient>
<linearGradient id="paint15_linear_78_172294" x1="14.2585" y1="21.4271" x2="12.6143" y2="15.2556" gradientUnits="userSpaceOnUse">
<stop stop-color="#4BC35D"/>
<stop offset="1" stop-color="#3C52A9"/>
</linearGradient>
<linearGradient id="paint16_linear_78_172294" x1="13.0593" y1="19.1921" x2="13.2987" y2="13.9282" gradientUnits="userSpaceOnUse">
<stop stop-color="#BEF0C7"/>
<stop offset="1" stop-color="#3C52A9"/>
</linearGradient>
</defs>
</svg>
