<svg width="87" height="46" viewBox="0 0 87 46" fill="none" xmlns="http://www.w3.org/2000/svg">
<path d="M38.4705 43.4914C30.9375 42.3358 29.5251 38.5693 29.5251 38.5693C29.5251 38.5693 20.494 37.7132 21.9492 40.4525C23.4045 43.1918 28.7974 44.4758 31.5367 44.7326C33.9068 44.7746 36.2622 44.353 38.4705 43.4914Z" fill="url(#paint0_linear_78_172702)"/>
<path d="M36.1595 43.5343C28.6265 42.3787 28.9261 38.6122 28.9261 38.6122C28.9261 38.6122 20.3658 37.7134 21.9495 40.4526C23.5331 43.1919 28.1129 44.0479 30.8521 44.3903C32.6649 44.552 34.4894 44.2577 36.1595 43.5343Z" fill="url(#paint1_linear_78_172702)"/>
<path d="M32.3076 44.9469C34.4319 44.7949 36.5227 44.3335 38.5137 43.5772C31.1091 42.4644 29.6111 38.7407 29.6111 38.7407C29.6111 38.7407 28.2414 38.7407 26.7006 38.7407C23.9613 38.7407 22.4205 39.0831 21.9069 39.8107C21.8243 39.9693 21.7813 40.1455 21.7812 40.3243C21.7813 40.5031 21.8243 40.6793 21.9069 40.8379C23.4049 43.5772 28.8835 44.9041 31.5371 45.1181L32.3076 44.9469ZM21.9925 40.4099C21.9213 40.2785 21.884 40.1314 21.884 39.9819C21.884 39.8325 21.9213 39.6853 21.9925 39.5539C22.3777 38.8691 24.0041 38.5267 26.6578 38.5267C27.613 38.4748 28.5703 38.4748 29.5255 38.5267C29.5255 38.9119 31.4087 42.2504 38.0857 43.406C36.188 44.1059 34.198 44.5241 32.1792 44.6473H31.4087C28.8835 44.4332 23.4477 43.1064 21.9925 40.4099Z" fill="black"/>
<path d="M24.5604 40.795C26.9254 41.6672 29.4059 42.1864 31.9222 42.3359C29.41 42.1563 26.9337 41.638 24.5604 40.795Z" fill="black"/>
<path d="M34.2334 43.4485C30.6319 43.4191 27.0863 42.5547 23.8755 40.9232C26.9269 42.5202 30.3186 43.3571 33.7626 43.3629L34.2334 43.4485Z" fill="black"/>
<path d="M30.5526 41.3944C28.8627 41.3736 27.1869 41.0847 25.5876 40.5383C27.1134 41.0736 28.7219 41.3344 30.3386 41.3088L30.5526 41.3944Z" fill="black"/>
<path d="M39.6265 42.764C37.0847 43.9543 34.2557 44.3934 31.4727 44.0294C28.6896 43.6654 26.0687 42.5135 23.9185 40.7095C23.3362 40.0461 22.5629 39.5789 21.7048 39.372C20.8466 39.1651 19.9454 39.2287 19.1248 39.5539C22.5489 43.62 34.8328 48.7133 39.6265 42.764Z" fill="url(#paint2_linear_78_172702)"/>
<path d="M23.1481 40.1532C22.9435 39.8227 22.6677 39.5421 22.3409 39.3318C22.014 39.1215 21.6443 38.9869 21.2588 38.9376C20.8733 38.8884 20.4816 38.9259 20.1124 39.0473C19.7432 39.1688 19.4058 39.3711 19.1248 39.6396C22.4632 43.5345 33.1635 46.873 36.2452 43.9197C33.922 44.4557 31.5004 44.3912 29.209 43.7322C26.9175 43.0733 24.8317 41.8415 23.1481 40.1532Z" fill="url(#paint3_linear_78_172702)"/>
<path d="M39.7121 42.8498L39.9689 42.5074H39.6265C37.5652 43.4684 35.3087 43.9373 33.0351 43.8771C31.3706 43.9421 29.7098 43.6726 28.1512 43.0845C26.5927 42.4963 25.1679 41.6015 23.9613 40.453C23.5548 39.9776 23.049 39.5972 22.4796 39.3384C21.9102 39.0795 21.291 38.9487 20.6656 38.9549C20.1372 38.9515 19.6134 39.0534 19.1248 39.2545C22.8934 42.8747 27.8565 44.9909 33.0779 45.2039C34.2874 45.3042 35.5044 45.1462 36.6482 44.7404C37.792 44.3345 38.8364 43.6901 39.7121 42.8498ZM19.2532 39.5541C19.7221 39.4955 20.1966 39.4955 20.6656 39.5541C21.2701 39.5495 21.8687 39.673 22.422 39.9165C22.9752 40.1599 23.4707 40.5178 23.8757 40.9666C25.0889 42.1334 26.5261 43.0422 28.1004 43.6381C29.6746 44.2339 31.3534 44.5045 33.0351 44.4335C35.1922 44.4679 37.3335 44.0601 39.3269 43.235C38.5048 44.0507 37.5187 44.6824 36.434 45.0882C35.3493 45.494 34.1908 45.6648 33.0351 45.5891C27.85 45.3634 22.9356 43.2114 19.2532 39.5541Z" fill="#4C4C4C"/>
<path d="M54.7776 17.3403C59.4002 13.0602 57.3457 7.19641 52.1668 4.49994C40.3108 -2.09145 20.2799 2.35988 15.8713 6.16918C15.8713 5.91237 46.517 24.9161 54.7776 17.3403Z" fill="url(#paint4_linear_78_172702)"/>
<path d="M50.6259 15.5426C57.6025 15.5426 57.3457 7.19635 52.1667 4.32867C40.3108 -2.26271 20.2799 2.18861 15.8713 5.99792C15.8713 5.91232 39.412 15.9278 50.6259 15.5426Z" fill="url(#paint5_linear_78_172702)"/>
<path style="mix-blend-mode:screen" opacity="0.7" d="M49.7272 15.5853C56.7038 15.3285 55.5054 8.3947 50.3265 5.52702C45.0708 2.81339 39.2195 1.45836 33.306 1.58545C27.3926 1.71255 21.6049 3.31771 16.4707 6.25464C16.4707 6.25464 38.5133 15.9277 49.7272 15.5853Z" fill="url(#paint6_linear_78_172702)"/>
<path style="mix-blend-mode:screen" d="M53.1515 8.90843C44.096 3.25595 33.1793 1.39549 22.7627 3.72949C27.8618 2.01625 33.3058 1.59256 38.6086 2.49627C43.9114 3.39998 48.9077 5.60295 53.1515 8.90843Z" fill="url(#paint7_linear_78_172702)"/>
<path d="M54.8211 17.4259C55.7232 16.6606 56.4275 15.6892 56.8746 14.594C57.3216 13.4988 57.4981 12.312 57.3892 11.1341C57.1175 9.66326 56.5084 8.27548 55.6098 7.0798C54.7111 5.88412 53.5475 4.91312 52.2103 4.2431C47.442 1.88042 42.1634 0.733547 36.8446 0.904602C29.5124 0.611287 22.2412 2.34394 15.8292 5.91234C16.0432 5.91234 37.2298 19.0523 49.043 19.0523C51.1022 19.2254 53.1545 18.6477 54.8211 17.4259ZM36.8446 1.03301C42.0784 0.890248 47.2671 2.03674 51.9534 4.3715C53.2766 5.02705 54.427 5.98458 55.3117 7.16676C56.1965 8.34894 56.7908 9.72263 57.0468 11.1769C57.1708 12.3228 57.0089 13.4815 56.5757 14.5496C56.1425 15.6176 55.4515 16.5617 54.5643 17.2975C52.9633 18.5967 50.9285 19.2392 48.8717 19.0951C37.5294 19.0951 17.2845 6.89677 15.8292 5.99794C22.2487 2.45271 29.5173 0.735475 36.8446 1.03301Z" fill="black"/>
<path d="M22.7197 4.19998C26.237 3.05613 29.8677 2.29557 33.5484 1.93152C29.8622 2.25946 26.2275 3.02087 22.7197 4.19998Z" fill="black"/>
<path d="M39.3268 2.35999C34.9995 2.5809 30.7015 3.19694 26.4865 4.20044C30.7053 3.21679 35.0015 2.601 39.3268 2.35999Z" fill="black"/>
<path d="M42.7078 3.21593C38.6047 3.1722 34.5148 3.69063 30.5523 4.75678C34.5176 3.70505 38.6055 3.18687 42.7078 3.21593Z" fill="black"/>
<path d="M46.0465 3.94327C41.9331 3.87093 37.8291 4.36053 33.8482 5.39851C37.8324 4.37786 41.9341 3.88854 46.0465 3.94327Z" fill="black"/>
<path d="M48.0581 4.97038C44.2092 4.73879 40.3469 5.05584 36.5873 5.91201C40.3502 5.07737 44.2095 4.76057 48.0581 4.97038Z" fill="black"/>
<path d="M49.7272 5.91186C46.1617 5.68025 42.5817 5.99783 39.1125 6.85349C42.585 6.01784 46.1619 5.70053 49.7272 5.91186Z" fill="black"/>
<path d="M51.6107 6.85383C48.1086 6.52778 44.5766 6.80282 41.1672 7.66706C44.5823 6.83802 48.1084 6.56344 51.6107 6.85383Z" fill="black"/>
<path d="M52.9374 8.00967C49.7436 7.7455 46.5284 7.94735 43.3927 8.60889C46.5325 7.9783 49.7434 7.77672 52.9374 8.00967Z" fill="black"/>
<path d="M54.3927 9.16506C50.9231 8.90873 47.4346 9.15379 44.0349 9.89268V10.1923C47.4238 9.37488 50.9093 9.02921 54.3927 9.16506Z" fill="black"/>
<path d="M54.8634 11.2623C53.1232 12.126 51.1986 12.5521 49.2565 12.5036H49.8985C51.6283 12.4875 53.3296 12.0622 54.8634 11.2623Z" fill="black"/>
<path d="M54.9918 12.5037C53.6297 13.0673 52.1832 13.4 50.7117 13.4881H50.9685C52.353 13.3733 53.7107 13.0411 54.9918 12.5037Z" fill="black"/>
<path d="M55.1202 13.8303C54.1195 14.2586 53.0415 14.4771 51.9529 14.4723C53.0456 14.5245 54.1341 14.3038 55.1202 13.8303Z" fill="black"/>
<path d="M54.4784 10.1924C52.3478 10.8536 50.1523 11.2841 47.9298 11.4764C50.1573 11.3203 52.3569 10.889 54.4784 10.1924Z" fill="black"/>
<path d="M52.8519 10.1923C50.894 10.1406 48.9413 10.4155 47.0737 11.0055C48.9433 10.4245 50.8946 10.1499 52.8519 10.1923Z" fill="black"/>
<path d="M54.778 17.3404C55.3341 16.8988 55.8241 16.3799 56.2332 15.7995C53.9035 15.5541 51.7356 14.4929 50.1127 12.8035C45.6245 9.1142 40.3551 6.49542 34.7042 5.14573C29.0532 3.79603 23.1691 3.75086 17.4982 5.01364C16.9765 5.30649 16.4759 5.63543 16.0001 5.99807C16.0001 5.99807 46.5174 24.9162 54.778 17.3404Z" fill="url(#paint8_linear_78_172702)"/>
<path d="M50.7119 15.5854C51.58 15.5903 52.4398 15.4154 53.2371 15.0718C52.1072 14.4626 51.0577 13.7149 50.1127 12.8461C45.649 9.1885 40.4159 6.58786 34.8049 5.23886C29.194 3.88987 23.3506 3.82746 17.7121 5.05631L17.0701 5.39872C17.0701 5.39872 39.5408 15.9706 50.7119 15.5854Z" fill="url(#paint9_linear_78_172702)"/>
<path d="M49.0426 19.2234C51.1233 19.3476 53.1778 18.7084 54.8208 17.4257C55.3387 16.9418 55.8114 16.4117 56.2332 15.8421C53.9156 15.5977 51.7608 14.5355 50.1555 12.846C43.1847 7.15017 34.4611 4.0357 25.4592 4.02894C22.774 4.0103 20.0979 4.34122 17.4982 5.01337C16.9657 5.30481 16.4639 5.64895 16.0001 6.0406C16.2141 6.0406 37.4007 19.1806 49.2139 19.1806L49.0426 19.2234ZM17.4126 5.05617C19.9998 4.39927 22.6617 4.08272 25.3308 4.11455C34.3023 4.1043 42.9999 7.20517 49.9415 12.8888C51.553 14.5459 53.6822 15.603 55.9764 15.8849C55.6216 16.4043 55.2048 16.8786 54.7352 17.2973C53.1342 18.5965 51.0994 19.2391 49.0426 19.095C37.7003 19.095 17.4554 6.89662 16.0001 5.9978C16.4399 5.63965 16.9128 5.32434 17.4126 5.05617Z" fill="#962300"/>
<path d="M51.6107 5.14183C52.6427 5.55374 53.5788 6.17384 54.3606 6.96348C55.1424 7.75311 55.7531 8.69535 56.1547 9.73143C56.5563 10.7675 56.7401 11.8752 56.6947 12.9855C56.6493 14.0957 56.3757 15.1847 55.8908 16.1845C56.5649 15.199 57.0074 14.0738 57.1851 12.8931C57.3629 11.7124 57.2713 10.5068 56.9173 9.36649C56.5633 8.22618 55.9559 7.1807 55.1407 6.30828C54.3256 5.43586 53.3236 4.75909 52.2099 4.32861C45.5376 1.20877 38.0819 0.164983 30.8093 1.33253C37.9575 0.749515 45.133 2.06354 51.6107 5.14183Z" fill="url(#paint10_linear_78_172702)"/>
<path d="M52.4238 4.45697H52.167L51.6105 4.15737H51.3965H51.0113H50.7973H50.4121H50.1553H49.8129H49.5561H49.2137H48.9569H48.5717H48.3149H47.9724H47.6728H47.3304H47.0308H46.6884H46.3888H46.0036H45.7468H45.3616H45.062L44.6768 1.63209H44.42H43.9919H43.7351H43.3927H43.1359H42.7079H31.3656H30.7236C37.9002 1.03379 45.1072 2.34818 51.6105 5.4414C53.4094 6.43977 54.8923 7.92262 55.8907 9.72152C55.7415 8.64114 55.3529 7.60775 54.753 6.69689C54.1532 5.78603 53.3574 5.02074 52.4238 4.45697Z" fill="url(#paint11_linear_78_172702)"/>
<path d="M33.5058 1.33251C39.7548 1.13058 45.9576 2.46814 51.5679 5.22742C53.8872 6.42076 55.641 8.48223 56.4473 10.9628C56.6959 11.8246 56.7672 12.7279 56.6569 13.618C56.5465 14.5082 56.2568 15.3667 55.8053 16.1417L55.2916 16.9121L55.6341 16.5697L55.9337 16.2273C56.5585 15.4337 57.0013 14.5124 57.2306 13.5287C57.4598 12.545 57.4701 11.5229 57.2605 10.5348C56.9159 9.18657 56.287 7.92766 55.4159 6.84249C54.5448 5.75733 53.4517 4.871 52.21 4.24299C47.4417 1.88031 42.1631 0.733442 36.8443 0.904496C34.742 0.887567 32.6406 1.00193 30.5526 1.24691L29.6965 1.63212H30.5526C31.6226 1.33251 32.5642 1.33251 33.5058 1.33251ZM36.8443 1.0329C42.0782 0.890142 47.2668 2.03664 51.9532 4.37139C53.1894 4.97886 54.2781 5.84899 55.143 6.92096C56.008 7.99293 56.6284 9.24088 56.9609 10.5776C57.3224 12.1825 57.0624 13.8648 56.2333 15.2857C56.7061 13.8982 56.7061 12.3931 56.2333 11.0056C55.4282 8.49 53.658 6.39656 51.3111 5.18462C45.6698 2.42655 39.4397 1.08944 33.1634 1.28971H32.4786C34.1479 1.0757 35.5175 1.0329 36.8443 1.0329Z" fill="#4C4C4C"/>
<path d="M32.0507 39.3826C44.8911 46.83 58.1594 40.1103 59.4007 30.3088C59.9143 26.0287 55.7626 24.1026 51.6964 26.3711C51.6964 26.3711 26.4865 36.1298 32.0507 39.3826Z" fill="url(#paint12_linear_78_172702)"/>
<path d="M32.0504 39.3828C43.8635 45.4177 56.5755 40.8808 57.7311 31.1221C58.2447 26.842 54.6494 25.344 50.6261 27.6552C50.7117 27.6552 26.2722 36.4295 32.0504 39.3828Z" fill="url(#paint13_linear_78_172702)"/>
<path d="M32.0077 39.4255C35.4443 41.4651 39.3542 42.5717 43.35 42.6356C47.073 42.8674 50.7546 41.7483 53.7188 39.4839C56.683 37.2195 58.7307 33.9617 59.4861 30.3088C59.5904 29.6874 59.5563 29.0506 59.3861 28.4439C59.216 27.8372 58.9139 27.2756 58.5016 26.7991C58.0772 26.3145 57.5489 25.932 56.956 25.68C56.3631 25.428 55.721 25.3131 55.0775 25.3439C53.8702 25.3701 52.6904 25.7093 51.6534 26.3283C50.8402 26.6279 31.4941 34.1609 31.1945 38.1414C31.1935 38.4107 31.2696 38.6747 31.4136 38.9022C31.5577 39.1297 31.7638 39.3112 32.0077 39.4255ZM31.3229 38.1414C31.6225 34.2893 51.525 26.5423 51.739 26.4567C52.7478 25.8504 53.9006 25.5253 55.0775 25.5151C55.7002 25.4865 56.3215 25.5943 56.8982 25.8309C57.4748 26.0674 57.9928 26.4271 58.416 26.8847C58.8014 27.3583 59.081 27.9089 59.236 28.4995C59.3911 29.0901 59.4179 29.707 59.3149 30.3088C58.5786 33.9206 56.5615 37.1444 53.6355 39.3862C50.7095 41.6279 47.0717 42.7363 43.3928 42.5072C39.4232 42.4484 35.5397 41.3409 32.1361 39.2971C31.8956 39.2155 31.6872 39.0596 31.541 38.8519C31.3949 38.6441 31.3185 38.3954 31.3229 38.1414Z" fill="black"/>
<path d="M32.0503 39.3828C44.8907 46.8302 58.1591 40.1104 59.4003 30.309C59.519 29.5969 59.4556 28.8664 59.2162 28.1855C58.9767 27.5045 58.5689 26.8951 58.0306 26.4141C58.542 27.2925 58.7241 28.3242 58.5443 29.3245C57.3458 39.0832 44.2059 45.8458 31.2799 38.3984C31.3242 38.6106 31.4167 38.8098 31.5503 38.9805C31.6839 39.1512 31.855 39.2889 32.0503 39.3828Z" fill="url(#paint14_linear_78_172702)"/>
<path d="M57.2602 33.3906C53.4509 40.7524 42.2798 44.7329 31.2799 38.3984C31.3242 38.6106 31.4167 38.8097 31.5503 38.9804C31.6839 39.1512 31.855 39.2888 32.0503 39.3828C42.9218 44.9469 54.4782 41.5657 57.2602 33.3906Z" fill="url(#paint15_linear_78_172702)"/>
<path d="M32.0075 39.4254C35.4441 41.4651 39.3539 42.5717 43.3498 42.6355C47.0727 42.8674 50.7543 41.7483 53.7185 39.4839C56.6827 37.2195 58.7305 33.9617 59.4858 30.3088C59.607 29.5864 59.5408 28.845 59.2935 28.1556C59.0462 27.4662 58.6261 26.8517 58.0734 26.3711L57.7738 26.1143V26.4567C58.2898 27.3177 58.4868 28.3328 58.3302 29.3243C57.5748 32.9394 55.5392 36.1601 52.5979 38.3935C49.6567 40.627 46.0077 41.723 42.3225 41.4799C38.3898 41.432 34.5383 40.3548 31.1514 38.3554C31.1987 38.589 31.301 38.8079 31.4499 38.994C31.5988 39.1801 31.7899 39.328 32.0075 39.4254ZM42.4938 41.6511C46.2167 41.8829 49.8983 40.7639 52.8625 38.4995C55.8267 36.235 57.8745 32.9772 58.6298 29.3243C58.7616 28.4392 58.643 27.5347 58.2874 26.7135C58.7195 27.196 59.0364 27.7702 59.2144 28.393C59.3923 29.0158 59.4266 29.6708 59.3146 30.3088C58.5783 33.9205 56.5613 37.1444 53.6353 39.3861C50.7092 41.6278 47.0715 42.7363 43.3926 42.5071C39.4229 42.4483 35.5394 41.3409 32.1359 39.297C31.8228 39.1372 31.5681 38.8825 31.4082 38.5694C34.7809 40.5234 38.5965 41.5841 42.4938 41.6511Z" fill="#4C4C4C"/>
<path d="M44.5054 40.1532C41.609 40.3813 38.6964 40.0172 35.9452 39.0831C38.2548 39.948 40.7145 40.341 43.1786 40.2388C43.6227 40.2642 44.0683 40.2355 44.5054 40.1532Z" fill="black"/>
<path d="M47.6729 38.8689C44.7603 39.4252 41.7686 39.4252 38.8559 38.8689C40.0224 39.2126 41.2355 39.3715 42.4512 39.3397C44.2034 39.3647 45.9535 39.2069 47.6729 38.8689Z" fill="black"/>
<path d="M50.6688 37.0286C47.82 37.9188 44.8267 38.253 41.8517 38.013C42.4776 38.0823 43.1092 38.0823 43.735 38.013C46.0796 37.9921 48.4111 37.6611 50.6688 37.0286Z" fill="black"/>
<path d="M53.0229 35.4021C50.2847 36.4006 47.3734 36.8373 44.4627 36.6861C44.9611 36.7299 45.4624 36.7299 45.9607 36.6861C48.365 36.6068 50.7446 36.1742 53.0229 35.4021Z" fill="black"/>
<path d="M55.0348 33.3479C52.3521 34.6172 49.4403 35.3306 46.4746 35.4452H47.1166C49.8576 35.2098 52.5368 34.5002 55.0348 33.3479Z" fill="black"/>
<path d="M56.7894 31.5929C54.1071 32.9029 51.2041 33.7012 48.2292 33.947H48.6572C51.4888 33.6649 54.245 32.867 56.7894 31.5929Z" fill="black"/>
<path d="M57.5172 30.1378C55.0956 31.454 52.457 32.3239 49.7274 32.7059C52.4557 32.3185 55.0934 31.4489 57.5172 30.1378Z" fill="black"/>
<path d="M57.9453 28.6395C55.8835 29.9827 53.5667 30.8861 51.1399 31.2932V31.5928C53.6025 31.1356 55.9293 30.1258 57.9453 28.6395Z" fill="black"/>
<path d="M57.6885 27.5265C56.0851 28.6691 54.2641 29.4704 52.3384 29.8806C54.27 29.4887 56.0946 28.6858 57.6885 27.5265Z" fill="black"/>
<path d="M56.7469 26.8849C55.7002 27.67 54.5068 28.2376 53.2372 28.5541C54.5196 28.2742 55.7205 27.703 56.7469 26.8849Z" fill="black"/>
<path d="M55.8051 26.2855C55.33 26.7166 54.7307 26.9863 54.093 27.0559V27.3128C54.4355 27.2746 54.7657 27.1632 55.0611 26.9859C55.3565 26.8086 55.6103 26.5697 55.8051 26.2855Z" fill="black"/>
<path d="M33.9764 39.083C42.7934 40.9235 53.7505 30.5228 54.6493 25.4294C53.6095 25.5314 52.603 25.8523 51.6961 26.3711C51.6961 26.3711 34.5756 33.0481 31.6651 37.157C31.6651 38.0558 32.3499 38.7834 33.9764 39.083Z" fill="url(#paint16_linear_78_172702)"/>
<path d="M33.9766 39.1688C34.6674 39.3056 35.3696 39.3773 36.0738 39.3828C40.5908 39.0645 44.8707 37.2411 48.2294 34.2039C51.1858 32.0555 53.4357 29.0755 54.6923 25.6437C53.6365 25.7329 52.6134 26.0545 51.6963 26.5853C51.6963 26.5853 34.5758 33.3051 31.6653 37.3712C31.5797 38.1844 32.3929 38.8264 33.9766 39.1688ZM51.9531 26.4569C52.8176 25.947 53.7804 25.6261 54.778 25.5153C53.5306 28.9403 51.2966 31.9191 48.3578 34.0755C45.0254 37.1008 40.7765 38.9239 36.2878 39.2544C35.5903 39.3197 34.8881 39.3197 34.1906 39.2544C32.6925 38.9548 31.9649 38.3128 31.9649 37.414C34.5758 33.1339 51.5679 26.4997 51.9531 26.4569Z" fill="#962300"/>
<path d="M47.6726 32.8769C51.5675 29.7524 51.9527 25.0443 55.2056 24.7447C59.4857 24.3595 58.4157 27.7836 64.6218 32.1921C70.828 36.6006 78.2754 38.4839 84.4388 33.3049C85.9368 32.0637 86.0652 30.9509 85.3376 30.9937C84.61 31.0365 84.2248 31.7641 82.9835 32.1493C79.3026 33.3477 73.7813 29.1104 72.7969 21.9198C71.8124 14.7292 77.077 8.48024 81.3571 9.07946C81.9537 9.26437 82.5731 9.36521 83.1975 9.37907C83.754 9.37907 83.1975 8.43744 81.4427 7.70982C78.9123 7.03963 76.2684 6.91436 73.6859 7.34231C71.1034 7.77026 68.6413 8.74168 66.4623 10.1923C65.1782 11.0911 63.1238 13.2312 60.9837 14.772C59.4991 16.0245 57.6873 16.8265 55.762 17.0833C53.3586 16.8799 51.1093 15.8161 49.4274 14.0872C37.6143 4.24292 21.9062 2.91609 13.9024 6.63979C2.30329 11.9471 5.64178 23.0326 1.36166 24.2739C2.38889 24.7875 2.43169 25.6863 3.0309 26.2427C3.63012 26.7992 2.64569 27.5696 2.00367 28.126C1.77405 28.288 1.58669 28.5028 1.45737 28.7523C1.32805 29.0019 1.26056 29.2788 1.26056 29.5598C1.26056 29.8409 1.32805 30.1178 1.45737 30.3673C1.58669 30.6168 1.77405 30.8316 2.00367 30.9937C2.78004 31.4414 3.68705 31.6077 4.57175 31.4645C9.10867 33.0481 12.3616 38.3555 19.0814 40.0247C31.1513 43.6628 42.5792 37.0286 47.6726 32.8769Z" fill="url(#paint17_radial_78_172702)"/>
<path d="M75.8785 31.9353C74.143 29.8129 73.0844 27.2186 72.8397 24.4879C72.5307 23.5997 72.3155 22.6816 72.1976 21.7486C71.1704 14.3012 76.9058 8.39464 81.2287 8.90825C82.0847 8.90825 83.1548 9.37907 83.54 9.37907C83.9252 9.37907 83.1547 8.48024 81.6139 7.83822C79.067 7.12398 76.3964 6.96452 73.7826 7.37063C71.1687 7.77673 68.6724 8.73894 66.4623 10.1923C65.1782 11.0911 63.1238 13.2312 60.9837 14.772C59.4991 16.0245 57.6873 16.8265 55.762 17.0833C53.3586 16.8799 51.1093 15.8161 49.4274 14.0872C37.6143 4.24292 21.9062 2.91609 13.9024 6.63979C2.30329 11.9471 5.64178 23.0326 1.36166 24.2739C2.38889 24.7875 2.43169 25.6863 3.0309 26.2427C3.63012 26.7992 2.64569 27.5696 2.00367 28.126C1.77405 28.288 1.58669 28.5028 1.45737 28.7523C1.32805 29.0019 1.26056 29.2788 1.26056 29.5598C1.26056 29.8409 1.32805 30.1178 1.45737 30.3673C1.58669 30.6168 1.77405 30.8316 2.00367 30.9937C2.78004 31.4414 3.68705 31.6077 4.57175 31.4645L5.38497 31.1221C9.66509 32.7485 13.9452 35.9158 20.7934 36.1726C29.1062 36.9174 37.4405 34.9987 44.5909 30.6941C48.871 28.2972 51.7815 23.9743 54.9916 23.6747C55.6345 23.5405 56.2986 23.5435 56.9402 23.6837C57.5819 23.8238 58.1868 24.0979 58.7153 24.4879C60.6044 26.929 62.7576 29.1539 65.1355 31.1221C66.3767 31.9781 68.0459 32.6629 69.4156 33.3477C77.6334 34.8886 76.649 33.0909 75.8785 31.9353Z" fill="url(#paint18_radial_78_172702)"/>
<path style="mix-blend-mode:screen" opacity="0.5" d="M1.57635 29.7525C1.57635 30.9509 3.2456 31.6358 5.85647 29.2389C4.52964 30.0949 2.34678 31.3361 1.57635 29.7525Z" fill="url(#paint19_linear_78_172702)"/>
<path style="mix-blend-mode:screen" opacity="0.5" d="M58.5443 16.6123C63.6435 11.9442 70.1134 9.04699 76.9916 8.35168C74.2953 10.0143 72.1936 12.4866 70.9867 15.4154C69.7799 18.3442 69.5296 21.5794 70.2718 24.6589C70.6998 26.6706 65.264 27.3982 61.7116 25.4294C58.1591 23.4605 56.6182 17.9392 58.5443 16.6123Z" fill="url(#paint20_radial_78_172702)"/>
<path style="mix-blend-mode:screen" opacity="0.6" d="M26.2721 28.0832C32.5211 27.3984 48.8711 23.3751 51.3964 19.523C52.98 17.2545 50.4976 16.0133 45.7466 12.1611C35.3459 4.58533 21.3499 3.60091 14.5446 6.811C6.92595 10.4063 5.59911 15.3712 4.31508 22.091C3.54465 25.8575 17.7118 28.982 26.2721 28.0832Z" fill="url(#paint21_radial_78_172702)"/>
<path style="mix-blend-mode:screen" d="M7.01135 14.2154C12.0619 3.21544 31.408 2.14541 48.2289 14.8146C35.3457 6.16873 14.3304 3.17264 7.01135 14.2154Z" fill="url(#paint22_linear_78_172702)"/>
<g style="mix-blend-mode:screen" opacity="0.3">
<path d="M11.4627 31.8069C16.8128 37.0286 24.303 36.087 33.5909 34.6745C42.1511 33.2193 47.7153 26.7991 53.4079 23.8886C54.8631 23.161 53.1938 18.6669 45.3612 19.9081C38.1451 21.0625 30.8381 21.5496 23.5326 21.3634C19.5949 21.021 7.01137 27.5267 11.4627 31.8069Z" fill="url(#paint23_radial_78_172702)"/>
</g>
<path style="mix-blend-mode:multiply" opacity="0.7" d="M20.3227 8.26628C21.0082 8.26628 21.5639 7.94051 21.5639 7.53866C21.5639 7.1368 21.0082 6.81104 20.3227 6.81104C19.6371 6.81104 19.0814 7.1368 19.0814 7.53866C19.0814 7.94051 19.6371 8.26628 20.3227 8.26628Z" fill="url(#paint24_linear_78_172702)"/>
<path style="mix-blend-mode:multiply" opacity="0.7" d="M39.1127 16.7838C39.1127 17.2119 38.5135 17.5115 37.8287 17.4687C37.1439 17.4259 36.5874 17.1263 36.6302 16.6982C36.673 16.2702 37.1867 16.0134 37.8715 16.0134C38.5563 16.0134 39.1127 16.3986 39.1127 16.7838Z" fill="url(#paint25_linear_78_172702)"/>
<path style="mix-blend-mode:multiply" opacity="0.7" d="M35.4319 31.593C35.4319 31.9782 35.0467 32.4062 34.4047 32.5774C33.7626 32.7486 33.0778 32.5774 32.9922 32.1494C32.9066 31.7214 33.3774 31.2934 34.0622 31.165C34.7471 31.0366 35.3463 30.9938 35.4319 31.593Z" fill="url(#paint26_linear_78_172702)"/>
<path style="mix-blend-mode:multiply" opacity="0.7" d="M18.0119 12.889C18.3665 12.889 18.6539 12.7165 18.6539 12.5037C18.6539 12.291 18.3665 12.1185 18.0119 12.1185C17.6573 12.1185 17.3699 12.291 17.3699 12.5037C17.3699 12.7165 17.6573 12.889 18.0119 12.889Z" fill="url(#paint27_linear_78_172702)"/>
<path style="mix-blend-mode:multiply" opacity="0.7" d="M39.6262 21.2349C39.6262 21.2349 39.3694 21.6201 39.027 21.6201C38.6846 21.6201 38.385 21.6201 38.385 21.2349C38.385 20.8497 38.6846 20.8925 39.027 20.8925C39.3694 20.8925 39.6262 21.0637 39.6262 21.2349Z" fill="url(#paint28_linear_78_172702)"/>
<path style="mix-blend-mode:multiply" opacity="0.7" d="M40.2682 27.9975C40.2682 28.2115 40.2682 28.4255 39.7546 28.5111C39.241 28.5967 39.1126 28.5111 39.027 28.5111C38.9414 28.5111 39.027 28.0831 39.5406 27.9975C40.0542 27.9119 40.1826 27.8263 40.2682 27.9975Z" fill="url(#paint29_linear_78_172702)"/>
<path style="mix-blend-mode:multiply" opacity="0.7" d="M51.9529 23.4603C51.9529 23.6743 51.7389 23.8884 51.3965 23.9312C51.0541 23.974 50.7545 23.9312 50.7117 23.9312C50.6689 23.9312 50.9257 23.5031 51.2681 23.4603C51.6105 23.4175 51.6961 23.2463 51.9529 23.4603Z" fill="url(#paint30_linear_78_172702)"/>
<path style="mix-blend-mode:multiply" opacity="0.7" d="M53.5796 20.8926C53.5796 20.8926 53.28 21.235 52.9376 21.235C52.5952 21.235 52.3384 21.235 52.3384 20.8498C52.3384 20.4646 52.5952 20.5074 52.9376 20.5074C53.28 20.5074 53.5796 20.6786 53.5796 20.8926Z" fill="url(#paint31_linear_78_172702)"/>
<path style="mix-blend-mode:multiply" opacity="0.7" d="M38.4281 9.20772C38.4281 9.20772 38.0857 9.50733 37.7433 9.20772C37.4009 8.90811 37.1869 8.90811 37.2297 8.73691C37.2725 8.5657 37.5721 8.4373 37.9145 8.4801C38.2569 8.5229 38.4709 8.99371 38.4281 9.20772Z" fill="url(#paint32_linear_78_172702)"/>
<path style="mix-blend-mode:multiply" opacity="0.7" d="M41.3384 12.9743C41.3384 12.9743 40.996 13.2739 40.6536 13.2311C40.3112 13.1883 40.0544 12.9315 40.0972 12.7603C40.14 12.5891 40.4396 12.4179 40.782 12.5035C41.1244 12.5891 41.3812 12.7603 41.3384 12.9743Z" fill="url(#paint33_linear_78_172702)"/>
<path style="mix-blend-mode:multiply" opacity="0.7" d="M45.319 25.0017C45.319 25.2585 45.319 25.6009 44.677 25.7721C44.035 25.9433 43.821 25.7721 43.7354 25.7721C43.6498 25.7721 43.7354 25.1729 44.3346 25.0017C44.9338 24.8305 45.2334 24.7449 45.319 25.0017Z" fill="url(#paint34_linear_78_172702)"/>
<path style="mix-blend-mode:multiply" opacity="0.7" d="M51.9529 17.5543C51.9529 17.5543 51.6105 17.9823 51.1397 17.9823C50.6689 17.9823 50.3693 17.7683 50.3693 17.5543C50.3693 17.3403 50.7117 17.0835 51.1397 17.0835C51.5677 17.0835 51.9529 17.2975 51.9529 17.5543Z" fill="url(#paint35_linear_78_172702)"/>
<path style="mix-blend-mode:multiply" opacity="0.7" d="M36.7158 25.943C36.7158 26.1998 36.3734 26.4138 35.9026 26.4138C35.4318 26.4138 35.1321 26.4138 35.1321 25.943C35.1321 25.4722 35.4746 25.4722 35.9026 25.4722C36.3306 25.4722 36.7158 25.6862 36.7158 25.943Z" fill="url(#paint36_linear_78_172702)"/>
<path style="mix-blend-mode:multiply" opacity="0.7" d="M46.6028 15.0717C46.6028 15.0717 46.1748 15.2857 45.8751 15.0717C45.5755 14.8577 45.3615 14.6437 45.4471 14.4725C45.5327 14.3012 45.8751 14.4725 46.1747 14.4725C46.4744 14.4725 46.6884 14.9005 46.6028 15.0717Z" fill="url(#paint37_linear_78_172702)"/>
<path style="mix-blend-mode:multiply" opacity="0.7" d="M21.5642 16.9123C21.5642 16.9123 21.2646 17.2547 20.9222 17.2547C20.5797 17.2547 20.3229 17.2547 20.3229 16.9123C20.3229 16.5699 20.5797 16.5271 20.9222 16.5271C21.2646 16.5271 21.5642 16.6983 21.5642 16.9123Z" fill="url(#paint38_linear_78_172702)"/>
<path style="mix-blend-mode:multiply" opacity="0.7" d="M21.2645 30.0094C21.2645 30.0094 21.0077 30.3946 20.6653 30.3946C20.3229 30.3946 20.0233 30.3946 20.0233 30.0094C20.0233 29.6241 20.3229 29.6241 20.6653 29.6241C21.0077 29.6241 21.2645 29.7954 21.2645 30.0094Z" fill="url(#paint39_linear_78_172702)"/>
<path style="mix-blend-mode:multiply" opacity="0.7" d="M24.6459 11.5192C24.6459 11.8188 24.3035 12.0328 23.8327 12.0328C23.3619 12.0328 22.9767 12.0328 22.9767 11.5192C22.9767 11.0056 23.3619 11.0484 23.8327 11.0484C24.3035 11.0484 24.6459 11.2624 24.6459 11.5192Z" fill="url(#paint40_linear_78_172702)"/>
<path style="mix-blend-mode:multiply" opacity="0.7" d="M22.6338 33.9896C22.6338 34.2464 22.2486 34.5032 21.7778 34.5032C21.307 34.5032 20.9218 34.2464 20.9218 33.9896C20.9218 33.7328 21.307 33.5188 21.7778 33.5188C22.2486 33.5188 22.6338 33.7328 22.6338 33.9896Z" fill="url(#paint41_linear_78_172702)"/>
<path style="mix-blend-mode:multiply" opacity="0.7" d="M28.0272 6.16903C28.0272 6.16903 27.7704 6.42584 27.5564 6.42584C27.3424 6.42584 27.0856 6.42584 27.1284 6.12623C27.1712 5.82662 27.3424 5.86942 27.5992 5.86942C27.856 5.86942 28.0272 5.91222 28.0272 6.16903Z" fill="url(#paint42_linear_78_172702)"/>
<path style="mix-blend-mode:multiply" opacity="0.7" d="M45.4044 20.1223C45.4044 20.3791 44.8908 20.5503 44.42 20.4219C43.9492 20.2935 43.564 19.9939 43.6496 19.7371C43.7352 19.4803 44.1632 19.3091 44.634 19.3947C45.1048 19.4803 45.4472 19.8227 45.4044 20.1223Z" fill="url(#paint43_linear_78_172702)"/>
<path style="mix-blend-mode:multiply" opacity="0.7" d="M56.2332 18.2387C56.2332 18.2387 56.2332 18.5811 55.7623 18.6667C55.2915 18.7523 55.2059 18.6667 55.1631 18.4527C55.1203 18.2387 55.1631 18.0675 55.6339 18.0247C56.1048 17.9819 56.2332 18.0675 56.2332 18.2387Z" fill="url(#paint44_linear_78_172702)"/>
<path style="mix-blend-mode:multiply" opacity="0.7" d="M33.0776 10.6633C33.0776 10.9201 32.5212 11.0485 32.0504 10.9201C31.5796 10.7917 31.2372 10.4065 31.3228 10.1497C31.4084 9.8929 31.8792 9.7645 32.35 9.8929C32.8208 10.0213 33.1632 10.1925 33.0776 10.6633Z" fill="url(#paint45_linear_78_172702)"/>
<path style="mix-blend-mode:multiply" opacity="0.7" d="M29.3542 14.4725C29.3542 14.7721 28.9262 15.0289 28.4553 15.0289C27.9845 15.0289 27.5565 14.6865 27.5565 14.4725C27.5565 14.2585 27.9417 13.9589 28.4553 13.9589C28.969 13.9589 29.3542 14.0873 29.3542 14.4725Z" fill="url(#paint46_linear_78_172702)"/>
<path style="mix-blend-mode:multiply" opacity="0.7" d="M18.0117 32.8768C18.5081 32.8768 18.9105 32.6469 18.9105 32.3632C18.9105 32.0796 18.5081 31.8496 18.0117 31.8496C17.5153 31.8496 17.1129 32.0796 17.1129 32.3632C17.1129 32.6469 17.5153 32.8768 18.0117 32.8768Z" fill="url(#paint47_linear_78_172702)"/>
<path d="M47.6729 32.9196C49.1808 31.6417 50.4302 30.0872 51.3538 28.3398C52.5095 26.4566 53.4083 24.9585 55.1632 24.7873H55.7624C57.56 24.7873 58.2876 25.6862 59.4005 27.1842C60.8975 29.1625 62.7213 30.8706 64.7934 32.2347C68.0606 34.8229 72.0578 36.32 76.2213 36.5149C79.3719 36.5313 82.4186 35.3888 84.7816 33.3048C85.8944 32.3631 86.2368 31.5499 86.1084 31.1647C86.0787 31.0691 86.0129 30.9889 85.925 30.9409C85.8372 30.893 85.7341 30.8811 85.6376 30.9079C85.3399 30.9703 85.0612 31.1023 84.8244 31.2931C84.3362 31.5863 83.8201 31.8301 83.2835 32.0207C82.8689 32.1571 82.4359 32.2293 81.9995 32.2347C80.9544 32.1539 79.9358 31.8663 79.0027 31.3888C78.0695 30.9112 77.2406 30.2531 76.5638 29.4527C74.7014 27.3196 73.5103 24.6842 73.1397 21.8769C72.8978 20.1163 73.0239 18.3248 73.5102 16.6155C73.9964 14.9063 74.8322 13.3165 75.9645 11.947C76.5787 11.1536 77.3539 10.4994 78.2392 10.0272C79.1245 9.55507 80.0997 9.27577 81.1007 9.2077H81.8283H82.5987C82.954 9.25246 83.3135 9.25246 83.6687 9.2077C83.9256 9.2077 83.9684 9.2077 83.9684 8.90809C83.9684 8.60849 83.1979 7.88086 81.9567 7.41005C80.4405 6.83433 78.8271 6.55815 77.2058 6.59683C73.3365 6.71606 69.5868 7.96594 66.4199 10.1921C65.6368 10.7696 64.8933 11.3987 64.1942 12.0754C63.1491 12.9262 62.0636 13.7261 60.9413 14.4723C59.4555 15.7155 57.6423 16.5032 55.7196 16.7407C53.3632 16.5339 51.1601 15.4855 49.5134 13.7874C45.7052 10.6311 41.3541 8.19449 36.673 6.59683C32.5438 5.16149 28.2043 4.42378 23.8327 4.41397C20.3841 4.31836 16.9548 4.96043 13.7744 6.29722C11.2181 7.47111 8.99044 9.25677 7.28838 11.4963C5.58632 13.7359 4.4623 16.3603 4.01572 19.1376C3.3309 21.5772 2.81728 23.4177 1.23364 24.0597C1.74124 24.3198 2.14783 24.7414 2.38927 25.2582C2.50528 25.5249 2.66434 25.7707 2.86009 25.9858C3.2881 26.6706 2.86009 27.0986 2.08967 27.5694H1.87566C1.6375 27.7333 1.44028 27.9498 1.29926 28.2022C1.15824 28.4545 1.0772 28.7359 1.06244 29.0247C1.06642 29.3186 1.13344 29.6083 1.25896 29.8741C1.38449 30.1399 1.5656 30.3757 1.79006 30.5655C2.57567 31.0311 3.49749 31.2125 4.40093 31.0791C6.42648 31.9473 8.29265 33.148 9.92229 34.6316C12.4999 37.101 15.5805 38.9844 18.9533 40.153C21.2219 40.8033 23.57 41.1346 25.9299 41.1374C33.8756 40.8215 41.5047 37.9381 47.6729 32.9196ZM10.0507 34.974C8.38207 33.5658 6.50502 32.4252 4.48653 31.5927C3.61552 31.7605 2.71328 31.5923 1.96126 31.1219C1.74053 30.9681 1.56023 30.7633 1.43572 30.5248C1.31122 30.2863 1.2462 30.0213 1.2462 29.7523C1.2462 29.4833 1.31122 29.2182 1.43572 28.9797C1.56023 28.7413 1.74053 28.5364 1.96126 28.3826H2.17527C2.81729 27.9118 3.4593 27.3982 2.98849 26.585C2.79245 26.361 2.62031 26.1171 2.47488 25.8574C2.2494 25.3709 1.89391 24.9562 1.44765 24.6589C3.03129 24.0597 3.54491 22.1337 4.18692 19.7368C4.62493 16.9682 5.73602 14.3495 7.42262 12.1106C9.10921 9.87181 11.3197 8.08132 13.86 6.89644C17.0257 5.56057 20.4408 4.91841 23.8755 5.01318C33.1587 4.98978 42.1669 8.16379 49.385 14.0014C51.0353 15.7562 53.2763 16.8386 55.6768 17.0403C57.6078 16.7584 59.4268 15.9598 60.9413 14.7291C62.071 13.8713 63.1567 12.957 64.1942 11.9898C64.9211 11.3366 65.6934 10.7358 66.5055 10.1921C69.6161 8.21781 73.2219 7.16424 76.9062 7.15324C78.4982 7.13272 80.0802 7.40849 81.5715 7.96647C82.9411 8.48008 83.5403 9.0365 83.4975 9.33611C83.1739 9.4126 82.8368 9.4126 82.5131 9.33611H81.6999H80.9723C79.9454 9.41022 78.9458 9.70013 78.0386 10.1869C77.1315 10.6737 76.3372 11.3463 75.7077 12.161C74.5582 13.5459 73.7127 15.157 73.2261 16.8898C72.7394 18.6226 72.6225 20.4384 72.8828 22.2193C73.2395 25.0515 74.4486 27.7084 76.3497 29.8379C77.0601 30.6142 77.9179 31.2411 78.8733 31.682C79.8287 32.123 80.8623 32.3691 81.9139 32.4059C82.3538 32.471 82.8009 32.471 83.2407 32.4059C83.7243 32.1832 84.1833 31.9107 84.6104 31.5927L85.338 31.2503C85.338 31.2503 85.6376 31.2503 85.6804 31.2503C85.7232 31.2503 85.4236 32.406 84.3964 33.2192C82.0334 35.3032 78.9867 36.4457 75.8361 36.4293C71.7017 36.2196 67.7361 34.7231 64.4938 32.1491C62.6121 30.8021 60.9515 29.1704 59.5717 27.3126C58.4588 25.8146 57.6884 24.8301 55.8052 24.8301H55.2059C53.3655 24.8301 52.4239 26.585 51.311 28.4254C50.3455 30.0826 49.1168 31.5715 47.6729 32.834C41.5155 37.8485 33.906 40.7452 25.9727 41.0946C23.6145 41.1103 21.2658 40.7933 18.9961 40.153C15.7007 39.0645 12.6686 37.3006 10.0935 34.974H10.0507Z" fill="black"/>
<path d="M8.59526 18.3672C8.56611 18.7431 8.61365 19.1209 8.73499 19.4778C8.85632 19.8347 9.04893 20.1632 9.3011 20.4434C9.55328 20.7236 9.85977 20.9497 10.202 21.1078C10.5442 21.2659 10.9149 21.3529 11.2917 21.3633C12.0462 21.2773 12.7358 20.8956 13.2092 20.3018C13.6827 19.7081 13.9012 18.9507 13.817 18.196C13.817 16.1844 12.5758 14.7291 11.0349 14.8147C10.2499 14.9804 9.55878 15.4417 9.1046 16.1031C8.65043 16.7644 8.46806 17.5751 8.59526 18.3672Z" fill="black"/>
<path style="mix-blend-mode:multiply" d="M13.903 17.7257C13.903 19.7373 12.7045 21.3638 11.2065 21.3638C9.70845 21.3638 8.46722 19.7373 8.46722 17.7257C8.37956 16.8902 8.61428 16.0527 9.12342 15.3845C9.63256 14.7162 10.3777 14.2676 11.2065 14.1304C12.7045 14.1304 13.903 15.7568 13.903 17.7257Z" fill="url(#paint48_linear_78_172702)"/>
<path d="M8.68086 18.3674C8.61235 18.7379 8.62623 19.119 8.72148 19.4835C8.81674 19.8481 8.99105 20.1872 9.23205 20.4769C9.47305 20.7665 9.77483 20.9996 10.116 21.1595C10.4572 21.3195 10.8293 21.4024 11.2061 21.4024C11.5829 21.4024 11.9551 21.3195 12.2963 21.1595C12.6374 20.9996 12.9392 20.7665 13.1802 20.4769C13.4212 20.1872 13.5955 19.8481 13.6908 19.4835C13.786 19.119 13.7999 18.7379 13.7314 18.3674C13.7669 17.6207 13.5094 16.8895 13.0137 16.3299C12.518 15.7702 11.8233 15.4263 11.0777 15.3713C10.37 15.4676 9.72638 15.8323 9.28019 16.3901C8.834 16.9478 8.6194 17.6558 8.68086 18.3674Z" fill="url(#paint49_radial_78_172702)"/>
<path style="mix-blend-mode:screen" opacity="0.9" d="M10.1787 15.885C10.1787 16.0099 10.2283 16.1297 10.3166 16.2179C10.4049 16.3062 10.5247 16.3558 10.6495 16.3558C10.7711 16.3461 10.8853 16.2933 10.9716 16.2071C11.0578 16.1208 11.1106 16.0066 11.1203 15.885C11.1206 15.825 11.1083 15.7656 11.0842 15.7107C11.0601 15.6558 11.0246 15.6065 10.9802 15.5662C10.9359 15.5258 10.8835 15.4952 10.8265 15.4764C10.7695 15.4576 10.7092 15.451 10.6495 15.457C10.3927 15.4142 10.2215 15.6282 10.1787 15.885Z" fill="url(#paint50_radial_78_172702)"/>
<path d="M8.59539 18.3674C8.50985 17.6145 8.72135 16.8579 9.18493 16.2584C9.64851 15.659 10.3276 15.2639 11.0779 15.1573C11.8462 15.2123 12.5626 15.5653 13.0743 16.141C13.586 16.7167 13.8526 17.4696 13.8171 18.239C13.9019 18.9985 13.6846 19.7608 13.2121 20.3614C12.7397 20.962 12.0499 21.3527 11.2919 21.4491C10.5353 21.3735 9.83572 21.0131 9.33501 20.4408C8.8343 19.8686 8.5699 19.1274 8.59539 18.3674ZM8.59539 18.3674C8.55985 19.0915 8.80836 19.8009 9.28802 20.3445C9.76767 20.8881 10.4406 21.223 11.1635 21.2779C11.5187 21.2357 11.862 21.1232 12.1734 20.947C12.4848 20.7708 12.758 20.5344 12.9771 20.2516C13.1961 19.9688 13.3568 19.6452 13.4496 19.2996C13.5424 18.9541 13.5655 18.5936 13.5175 18.239C13.5536 17.5104 13.3065 16.7961 12.8278 16.2456C12.3491 15.6951 11.676 15.3512 10.9495 15.2858C10.2568 15.4213 9.64147 15.815 9.22822 16.3872C8.81497 16.9594 8.63465 17.6673 8.72379 18.3674H8.59539Z" fill="black"/>
<path d="M13.1321 18.7525C13.0906 19.1233 12.9423 19.474 12.7052 19.7621C12.4681 20.0502 12.1525 20.2633 11.7966 20.3753C11.4407 20.4874 11.0599 20.4937 10.7005 20.3935C10.3412 20.2932 10.0186 20.0907 9.77213 19.8106C9.52564 19.5305 9.36582 19.1849 9.31208 18.8157C9.25834 18.4464 9.31299 18.0696 9.46941 17.7308C9.62582 17.3921 9.87726 17.106 10.1932 16.9075C10.5091 16.709 10.8758 16.6065 11.2489 16.6124C11.5133 16.6288 11.7718 16.6971 12.0097 16.8136C12.2475 16.9301 12.46 17.0925 12.635 17.2913C12.81 17.4901 12.944 17.7216 13.0293 17.9723C13.1146 18.2231 13.1496 18.4882 13.1321 18.7525Z" fill="url(#paint51_radial_78_172702)"/>
<path d="M11.292 17.2546C11.4851 17.2597 11.6752 17.3043 11.8505 17.3858C12.0257 17.4672 12.1823 17.5838 12.3107 17.7282C12.4391 17.8727 12.5365 18.0419 12.5968 18.2255C12.6572 18.409 12.6792 18.603 12.6616 18.7955C12.6979 19.0045 12.688 19.2189 12.6326 19.4238C12.5773 19.6286 12.4778 19.8188 12.3412 19.9811C12.2046 20.1434 12.0342 20.2739 11.8418 20.3635C11.6495 20.453 11.4399 20.4994 11.2278 20.4994C11.0156 20.4994 10.806 20.453 10.6137 20.3635C10.4213 20.2739 10.2509 20.1434 10.1143 19.9811C9.97771 19.8188 9.87825 19.6286 9.82291 19.4238C9.76757 19.2189 9.75767 19.0045 9.79392 18.7955C9.79377 18.3941 9.95022 18.0086 10.23 17.7208C10.5098 17.433 10.8908 17.2658 11.292 17.2546Z" fill="black"/>
<path style="mix-blend-mode:screen" opacity="0.5" d="M12.8329 18.3244C12.8332 18.3732 12.8232 18.4215 12.8034 18.4661C12.7835 18.5107 12.7544 18.5505 12.7179 18.583C12.6815 18.6154 12.6385 18.6396 12.5919 18.6541C12.5452 18.6685 12.4961 18.6729 12.4477 18.6668C12.3525 18.6673 12.2605 18.6327 12.1893 18.5695C12.1182 18.5062 12.073 18.4189 12.0624 18.3244C12.0864 18.236 12.1356 18.1566 12.204 18.0958C12.2724 18.0349 12.3571 17.9954 12.4477 17.9819C12.5428 17.9814 12.6348 18.016 12.7059 18.0792C12.7771 18.1425 12.8223 18.2298 12.8329 18.3244Z" fill="url(#paint52_radial_78_172702)"/>
<path style="mix-blend-mode:screen" d="M10.6499 16.912C10.1791 17.1688 9.87951 17.5969 10.0079 17.8965C10.1363 18.1961 10.6499 18.1961 11.1207 17.8965C11.5915 17.5969 11.8912 17.2116 11.7628 16.9548C11.6344 16.698 11.1207 16.6552 10.6499 16.912Z" fill="url(#paint53_linear_78_172702)"/>
<path d="M3.37386 25.9433C3.60913 26.1833 3.74092 26.506 3.74092 26.8421C3.74092 27.1782 3.60913 27.5009 3.37386 27.7409C2.73185 28.4257 1.57621 28.9394 1.87582 29.7098C2.17543 30.4802 5.34272 30.523 5.29992 26.8849C5.38552 25.8577 3.37386 25.9433 3.37386 25.9433Z" fill="url(#paint54_linear_78_172702)"/>
<path d="M4.01549 28.1257C3.94812 28.0219 3.85023 27.9414 3.73526 27.8954C3.6203 27.8494 3.4939 27.8402 3.37347 27.8689C2.73145 28.4682 1.70423 28.9818 1.96103 29.7094C2.21784 30.437 4.65751 30.5226 5.25673 28.0829C4.87152 27.8261 4.3579 27.9973 4.01549 28.1257Z" fill="url(#paint55_radial_78_172702)"/>
<path d="M3.5878 28.4258C3.51718 28.3627 3.42574 28.3278 3.33099 28.3278C3.23624 28.3278 3.14481 28.3627 3.07418 28.4258C2.81738 28.4258 1.70455 29.2819 1.96135 29.9239C2.21816 30.5659 4.10142 30.6943 4.95744 29.1107C4.99387 29.0785 5.02306 29.039 5.04304 28.9947C5.06303 28.9505 5.07336 28.9024 5.07336 28.8539C5.07336 28.8053 5.06303 28.7573 5.04304 28.713C5.02306 28.6687 4.99387 28.6292 4.95744 28.5971C4.60241 28.5072 4.22791 28.5335 3.88894 28.6721C3.54998 28.8108 3.26441 29.0545 3.07418 29.3675C3.20064 29.0312 3.37352 28.7142 3.5878 28.4258Z" fill="url(#paint56_radial_78_172702)"/>
<path style="mix-blend-mode:screen" d="M3.5878 28.4258C3.51718 28.3627 3.42574 28.3278 3.33099 28.3278C3.23624 28.3278 3.14481 28.3627 3.07418 28.4258C2.81738 28.4258 1.70455 29.2819 1.96135 29.9239C2.04103 30.0336 2.14347 30.1249 2.26166 30.1913C2.37986 30.2578 2.51102 30.298 2.64617 30.3091C2.68048 29.9834 2.76721 29.6655 2.90298 29.3675C3.09945 29.0317 3.32886 28.7162 3.5878 28.4258Z" fill="url(#paint57_radial_78_172702)"/>
<path style="mix-blend-mode:screen" d="M4.8714 28.3827C4.51636 28.2995 4.14422 28.329 3.80672 28.4671C3.46921 28.6052 3.1831 28.8449 2.98814 29.1531C2.80431 29.4338 2.7007 29.7594 2.68854 30.0947C3.12962 30.1296 3.57127 30.0347 3.95912 29.8218C4.34696 29.6089 4.66407 29.2872 4.8714 28.8963C4.90783 28.8642 4.93702 28.8246 4.957 28.7804C4.97699 28.7361 4.98732 28.6881 4.98732 28.6395C4.98732 28.5909 4.97699 28.5429 4.957 28.4986C4.93702 28.4543 4.90783 28.4148 4.8714 28.3827Z" fill="url(#paint58_radial_78_172702)"/>
<path d="M4.05886 28.0405C4.05886 28.0405 3.75925 27.7837 3.45965 27.7837C3.54723 27.7448 3.64201 27.7246 3.73786 27.7246C3.8337 27.7246 3.92848 27.7448 4.01606 27.7837C3.58612 28.0257 3.23082 28.381 2.98883 28.8109C3.29794 28.4305 3.67535 28.1112 4.10166 27.8693C4.65808 27.6553 5.04329 27.6125 5.2573 27.8693C5.05954 27.7932 4.84558 27.7689 4.6358 27.7989C4.42601 27.8289 4.22739 27.912 4.05886 28.0405Z" fill="#E55151"/>
<path d="M3.54482 25.8577H3.24522C3.46502 26.0885 3.58763 26.395 3.58763 26.7137C3.58763 27.0324 3.46502 27.3389 3.24522 27.5697C3.05167 27.7776 2.83643 27.9641 2.60319 28.1261C2.04678 28.5541 1.49036 29.025 1.70437 29.5814C1.8215 29.7514 1.98361 29.8855 2.17258 29.9686C2.36155 30.0517 2.56993 30.0807 2.7744 30.0522C3.38484 30.0434 3.968 29.7979 4.40084 29.3674C4.72153 29.017 4.96678 28.6044 5.1214 28.1553C5.27602 27.7061 5.3367 27.23 5.29967 26.7565C5.47088 25.9433 3.97284 25.8577 3.54482 25.8577ZM4.48645 29.4102C4.07817 29.8199 3.52399 30.0508 2.9456 30.0522C2.47479 30.0522 2.08958 30.0522 2.00398 29.667C1.91838 29.2818 2.34639 28.8109 2.86 28.3829C3.09399 28.2057 3.30913 28.0049 3.50202 27.7837C3.71567 27.5414 3.83356 27.2294 3.83356 26.9063C3.83356 26.5832 3.71567 26.2712 3.50202 26.0289C3.93003 26.0289 5.29967 26.0289 5.29967 26.8849C5.37413 27.8012 5.08161 28.7095 4.48645 29.4102Z" fill="black"/>
<path d="M1.31888 23.9316C1.02686 24.0493 0.79047 24.2736 0.65759 24.559C0.52471 24.8445 0.505265 25.1697 0.603195 25.469C0.701125 25.7682 0.909114 26.019 1.18504 26.1707C1.46096 26.3223 1.7842 26.3634 2.0893 26.2857C4.87138 26.2857 5.72741 27.5697 5.72741 27.5697V25.4725L3.97256 24.1028C3.14024 23.7171 2.19387 23.656 1.31888 23.9316Z" fill="url(#paint59_radial_78_172702)"/>
<path style="mix-blend-mode:screen" opacity="0.5" d="M0.591187 24.9158C0.890795 23.4605 4.10089 23.9313 5.64173 26.157C3.88688 24.5306 1.78962 24.0169 0.591187 24.9158Z" fill="url(#paint60_linear_78_172702)"/>
<path d="M2.04676 26.1998C1.89198 26.2443 1.72961 26.256 1.57006 26.234C1.41051 26.2121 1.25731 26.157 1.12029 26.0724C0.983269 25.9877 0.865454 25.8754 0.774395 25.7426C0.683335 25.6097 0.621044 25.4593 0.59152 25.301C0.520878 25.0343 0.551832 24.7509 0.678373 24.5057C0.804914 24.2605 1.01802 24.0711 1.27634 23.9742C2.10593 23.6733 3.01482 23.6733 3.84441 23.9742C3.03409 23.5747 2.10616 23.4834 1.23354 23.7174C0.947005 23.8235 0.707718 24.0283 0.558661 24.2951C0.409604 24.5618 0.360545 24.8729 0.420311 25.1726C0.510678 25.5121 0.720785 25.8074 1.01185 26.004C1.30292 26.2007 1.6553 26.2854 2.00396 26.2426C2.66223 26.1203 3.34072 26.166 3.97664 26.3755C4.61256 26.5849 5.18538 26.9515 5.64206 27.4411C5.64206 27.4411 4.87164 26.0286 2.04676 26.1998Z" fill="black"/>
<path d="M4.48676 31.593C4.87016 31.4642 5.23116 31.2765 5.55679 31.0366C5.21728 31.2534 4.8592 31.4396 4.48676 31.593Z" fill="black"/>
<path d="M6.66908 28.1259C5.85586 28.3399 5.77025 30.4372 6.32667 32.406C7.68758 33.2738 8.9888 34.2319 10.2216 35.2737C7.4395 31.5928 7.99592 27.8263 6.66908 28.1259Z" fill="url(#paint61_linear_78_172702)"/>
<path d="M6.66913 28.126C5.98431 28.126 5.81311 29.838 6.11272 31.4645C7.02132 31.8084 7.9076 32.2087 8.76639 32.6629C7.26834 29.6668 7.78196 27.8692 6.66913 28.126Z" fill="url(#paint62_linear_78_172702)"/>
<path d="M7.91065 29.8812C7.61105 28.7684 7.39704 28.0408 6.84062 28.0408C6.63976 28.1034 6.47101 28.2415 6.36982 28.426C5.91489 29.6697 5.91489 31.0343 6.36982 32.2781C7.67798 33.1165 8.93566 34.0312 10.1363 35.0174L10.6927 35.4882L10.3931 35.0602C9.21865 33.5227 8.37358 31.7597 7.91065 29.8812ZM6.36982 32.2781C5.93551 31.0601 5.93551 29.7295 6.36982 28.5116C6.40704 28.4357 6.46108 28.3692 6.52783 28.3173C6.59457 28.2654 6.67227 28.2294 6.75503 28.212C7.18304 28.212 7.39704 28.9396 7.69665 29.9668C8.096 31.7064 8.80651 33.3594 9.79391 34.8462C8.71523 33.9096 7.57095 33.0514 6.36982 32.2781Z" fill="#4C4C4C"/>
<path d="M78.9178 8.39446C76.2889 9.56929 74.0879 11.5286 72.6167 14.0038C71.1454 16.4789 70.4759 19.3486 70.6999 22.2192C71.0683 25.073 72.3662 27.726 74.3931 29.7683C76.42 31.8107 79.063 33.1287 81.9139 33.5188C81.229 34.3748 76.5637 36.5577 68.1747 34.4176C70.6428 35.9661 73.5382 36.6926 76.4451 36.4927C79.3519 36.2927 82.1206 35.1767 84.3535 33.3048C85.8516 32.0635 85.98 30.9507 85.2523 30.9935C84.5247 31.0363 84.1395 31.7639 82.8983 32.1491C79.2174 33.3476 73.696 29.1102 72.7116 21.9196C71.7272 14.729 76.9917 8.48007 81.2718 9.07928C81.8684 9.2642 82.4879 9.36504 83.1123 9.37889C83.6687 9.37889 83.1123 8.43726 81.3574 7.70964C78.8398 7.05207 76.2117 6.9333 73.6451 7.36108C71.0784 7.78886 68.6309 8.75356 66.4626 10.1921C65.6922 10.7485 64.665 11.6902 63.5093 12.7174C68.0423 9.64686 73.4491 8.12994 78.9178 8.39446Z" fill="url(#paint63_linear_78_172702)"/>
<path d="M72.1981 21.7488C71.2564 14.2586 76.9062 8.3948 81.2291 8.90841C82.0851 8.90841 83.1552 9.37923 83.5404 9.37923H83.2408C80.5785 8.18049 77.6703 7.62924 74.7541 7.77058C71.8378 7.91193 68.9965 8.74187 66.4627 10.1924H66.2059L65.6495 10.6205L63.809 12.2469C68.3472 9.19148 73.7536 7.6897 79.2174 7.96679C76.5886 9.14161 74.3876 11.101 72.9163 13.5761C71.4451 16.0512 70.7755 18.9209 70.9996 21.7916C71.5036 24.6042 72.7947 27.2162 74.7233 29.3246C73.407 26.9831 72.5499 24.4118 72.1981 21.7488Z" fill="url(#paint64_linear_78_172702)"/>
<path d="M76.9917 8.35178H78.6182C76.048 9.57161 73.9076 11.5413 72.4789 14.0015C71.0501 16.4617 70.4001 19.2969 70.6144 22.1338C71.1427 24.9849 72.4459 27.6356 74.3809 29.7952C76.3208 31.9639 79.0149 33.311 81.9139 33.5617C79.8581 34.8524 77.4437 35.4522 75.0229 35.2737C72.7544 35.2531 70.4972 34.9512 68.3031 34.3749H67.7039L68.2603 34.6745C70.6565 35.9692 73.3271 36.6735 76.0501 36.729C79.2007 36.7454 82.2474 35.6029 84.6104 33.5189C85.7232 32.5773 86.0656 31.764 85.9372 31.3788C85.9075 31.2832 85.8417 31.203 85.7538 31.155C85.6659 31.1071 85.5628 31.0953 85.4664 31.122C85.1687 31.1844 84.89 31.3164 84.6531 31.5072C84.165 31.8004 83.6488 32.0442 83.1123 32.2349C82.6977 32.3712 82.2647 32.4434 81.8283 32.4489C80.7832 32.368 79.7645 32.0805 78.8314 31.6029C77.8983 31.1253 77.0693 30.4672 76.3925 29.6668C74.5302 27.5337 73.3391 24.8983 72.9684 22.091C72.7265 20.3304 72.8527 18.5389 73.3389 16.8296C73.8252 15.1204 74.6609 13.5307 75.7933 12.1611C76.4075 11.3677 77.1827 10.7135 78.068 10.2413C78.9532 9.76918 79.9285 9.48988 80.9294 9.42181H81.6571H82.4275C82.7828 9.46657 83.1422 9.46657 83.4975 9.42181C83.7543 9.42181 83.7971 9.42181 83.7971 9.1222C83.7971 8.8226 83.0267 8.09498 81.7855 7.62416C80.2693 7.04844 78.6559 6.77226 77.0345 6.81094C73.2458 6.89987 69.562 8.07334 66.4198 10.1922C65.6368 10.7697 64.8933 11.3988 64.1942 12.0755L63.4666 12.7175L62.9529 13.1455L63.5094 12.8459C67.5254 10.1786 72.1786 8.62753 76.9917 8.35178ZM64.1514 11.9899C64.892 11.335 65.6787 10.7343 66.5054 10.1922C69.616 8.21792 73.2219 7.16435 76.9061 7.15335C78.4982 7.13283 80.0802 7.40859 81.5715 7.96657C82.9411 8.48019 83.5403 9.0366 83.4975 9.33621C83.1738 9.41271 82.8368 9.41271 82.5131 9.33621H81.6999H80.9722C79.9454 9.41033 78.9458 9.70024 78.0386 10.187C77.1314 10.6738 76.3372 11.3465 75.7077 12.1611C74.5582 13.546 73.7127 15.1571 73.226 16.8899C72.7394 18.6227 72.6224 20.4385 72.8828 22.2194C73.2395 25.0516 74.4486 27.7086 76.3497 29.838C77.06 30.6143 77.9179 31.2412 78.8733 31.6821C79.8286 32.1231 80.8623 32.3692 81.9139 32.4061C82.3538 32.4711 82.8008 32.4711 83.2407 32.4061C83.7243 32.1833 84.1833 31.9108 84.6104 31.5928L85.338 31.2504C85.338 31.2504 85.6376 31.2504 85.6804 31.2504C85.7232 31.2504 85.4236 32.4061 84.3964 33.2193C82.0334 35.3033 78.9867 36.4458 75.8361 36.4294C73.4792 36.3212 71.173 35.7082 69.0735 34.6317C71.0765 35.1275 73.1308 35.3861 75.1941 35.4021C77.5783 35.5725 79.9492 34.9231 81.9139 33.5617C79.0694 33.159 76.4372 31.8293 74.4252 29.7787C72.4133 27.728 71.134 25.071 70.7856 22.2194C70.3113 19.2127 71.0334 16.1398 72.7972 13.6591C74.2339 11.2584 76.3904 9.37145 78.9606 8.26618H79.2602H78.9178C78.2765 8.22352 77.633 8.22352 76.9917 8.26618C72.4301 8.44219 67.9978 9.83097 64.1514 12.2895V11.9899Z" fill="#4C4C4C"/>
<path d="M77.6337 33.8614C75.0727 32.8745 72.8547 31.1628 71.2509 28.9357C69.647 26.7085 68.7268 24.0624 68.6026 21.3206C68.5883 19.1546 69.0439 17.0113 69.938 15.0383C70.8321 13.0654 72.1434 11.3099 73.7815 9.8927C69.2061 10.6053 64.9455 12.6611 61.5404 15.7993C62.4195 17.3492 62.7931 19.1348 62.6089 20.9072C62.4248 22.6795 61.6921 24.3502 60.5132 25.6863C62.2431 28.585 64.7913 30.9076 67.8375 32.3622C70.8837 33.8167 74.2919 34.3383 77.6337 33.8614Z" fill="url(#paint65_radial_78_172702)"/>
<path d="M77.6337 33.7758C75.073 32.8012 72.8535 31.0985 71.2488 28.8777C69.644 26.6569 68.7242 24.0151 68.6027 21.2779C68.6175 19.1621 69.0922 17.0747 69.9938 15.1606C70.8955 13.2464 72.2025 11.5512 73.8244 10.1924H73.5248C69.0478 10.8398 64.8549 12.7727 61.4549 15.7565C62.0143 16.5492 62.4054 17.448 62.6041 18.3976C62.8029 19.3472 62.8051 20.3274 62.6105 21.2779C62.409 22.8728 61.7216 24.3672 60.6417 25.558C61.8791 27.729 63.6274 29.5655 65.735 30.9082C68.5616 32.8815 71.9181 33.9556 75.3653 33.9898C76.1225 34.0165 76.8807 33.9879 77.6337 33.9042H77.8906L77.6337 33.7758ZM75.2369 33.7758C71.8235 33.7371 68.4997 32.6788 65.6922 30.737C63.618 29.4358 61.8978 27.642 60.6845 25.5152C60.8206 25.4082 60.9366 25.2778 61.0269 25.13C63.875 28.3755 67.5401 30.7992 71.6416 32.1494C67.6139 30.7698 64.0147 28.3654 61.1981 25.1728C61.3209 25.064 61.4225 24.9334 61.4977 24.7876C63.7995 26.9096 66.5284 28.5149 69.5015 29.4957C66.5549 28.4508 63.8583 26.8037 61.5833 24.6592C61.5833 24.6592 61.5833 24.274 61.9257 24.06C63.721 25.5021 65.7468 26.6308 67.9179 27.3985C65.7538 26.5858 63.7425 25.4137 61.9685 23.9316L62.2253 23.3752C63.8969 24.573 65.7873 25.431 67.7895 25.9004C65.7893 25.2898 63.918 24.3178 62.2681 23.0327C62.3867 22.7689 62.4868 22.4972 62.5677 22.2195C64.0063 23.179 65.6467 23.7941 67.3615 24.0172C65.6449 23.7439 64.0172 23.0694 62.6105 22.0483C62.6105 21.7915 62.6105 21.4919 62.6105 21.1923C63.9527 21.8218 65.409 22.1713 66.8907 22.2195C65.4091 22.0779 63.9621 21.6872 62.6105 21.0639C62.6316 20.922 62.6316 20.7778 62.6105 20.6359H66.2486H62.6533V20.1223C64.02 19.5864 65.4666 19.2826 66.9334 19.2234C65.4714 19.2132 64.0201 19.4744 62.6533 19.9939C62.6746 19.6946 62.6746 19.3943 62.6533 19.095C64.1502 18.2144 65.8101 17.6465 67.5327 17.4258C65.885 17.5176 64.2777 17.9706 62.8245 18.7526C62.8449 18.4534 62.8449 18.1531 62.8245 17.8538C64.5298 16.7823 66.4149 16.0283 68.3887 15.6281C66.3939 15.9287 64.484 16.643 62.7817 17.7254C62.7298 17.5054 62.6582 17.2905 62.5677 17.0834C64.3744 15.8847 66.3717 15.0018 68.4743 14.4725C66.2821 15.0419 64.2093 15.9985 62.3537 17.2974C62.2712 17.0894 62.171 16.8889 62.0541 16.6982C64.4567 14.7501 67.2203 13.2956 70.1863 12.418C67.186 13.2422 64.3979 14.7019 62.0113 16.6982L61.6261 16.1417C64.9353 13.0279 69.0888 10.9586 73.5676 10.1924C71.9987 11.592 70.742 13.3062 69.8793 15.2235C69.0165 17.1408 68.5669 19.2182 68.5599 21.3207C68.7115 24.0555 69.648 26.6888 71.2572 28.9052C72.8665 31.1217 75.0803 32.8276 77.6337 33.8186L75.2369 33.7758Z" fill="#962300"/>
<path style="mix-blend-mode:screen" opacity="0.8" d="M59.1007 16.8692C63.5292 12.1617 69.528 9.23839 75.9644 8.65137C69.7519 9.95913 63.9589 12.7821 59.1007 16.8692Z" fill="url(#paint66_linear_78_172702)"/>
<path d="M18.0545 19.2661C17.6693 19.2661 18.4826 21.5346 18.0545 23.8458C17.5051 26.0459 16.1444 27.957 14.2452 29.196C14.7589 29.7952 20.1518 26.4567 20.751 21.5774C20.7815 21.2314 20.729 20.8832 20.5979 20.5616C20.4668 20.24 20.2609 19.9543 19.9972 19.7283C19.7335 19.5022 19.4197 19.3424 19.0818 19.262C18.7439 19.1816 18.3918 19.183 18.0545 19.2661Z" fill="url(#paint67_linear_78_172702)"/>
<path d="M18.3968 19.1377H18.0116C17.7976 19.1377 18.0116 19.6085 18.0116 20.2933C18.2481 21.4369 18.2481 22.6167 18.0116 23.7602C17.5525 25.8174 16.3086 27.6141 14.5447 28.768C14.5447 28.768 14.2451 28.982 14.2023 29.0676C14.2023 29.0676 14.2023 29.0676 14.4591 29.0676C15.6792 28.7798 16.8015 28.1744 17.712 27.3127C19.254 25.8298 20.2877 23.8972 20.6653 21.7914C20.7069 21.5024 20.6864 21.2078 20.6052 20.9274C20.524 20.6469 20.384 20.387 20.1945 20.1649C19.9807 19.8802 19.711 19.6422 19.4018 19.4655C19.0927 19.2888 18.7507 19.1773 18.3968 19.1377ZM20.5797 21.5774C20.2638 23.2707 19.5254 24.8568 18.433 26.1887C17.3406 27.5205 15.9295 28.5549 14.3307 29.196H14.5875C16.3729 28.0168 17.6311 26.1909 18.0972 24.1026C18.3035 22.9275 18.3035 21.7253 18.0972 20.5501C18.0972 20.0365 18.0972 19.6085 18.0972 19.5657H18.3968C19.0503 19.6086 19.6628 19.8995 20.1089 20.3789C20.3986 20.7126 20.5649 21.1357 20.5797 21.5774Z" fill="#4C4C4C"/>
<path d="M26.2724 29.1106C26.7432 29.667 26.8716 30.3518 27.5564 30.737C28.0324 30.9976 28.5788 31.1007 29.1171 31.0315C29.6554 30.9623 30.1579 30.7244 30.5525 30.3518C37.5719 24.4453 33.8482 17.5115 36.1595 13.0173C26.8288 15.2002 26.2296 24.274 23.3191 25.8577C23.473 26.8533 23.9732 27.7626 24.7315 28.4258C25.0239 28.4123 25.3154 28.4672 25.5829 28.5861C25.8503 28.705 26.0864 28.8846 26.2724 29.1106Z" fill="url(#paint68_linear_78_172702)"/>
<path d="M26.8714 28.6826C27.3422 29.239 27.171 29.667 27.8558 30.0522C28.5406 30.4374 29.1826 30.309 30.0815 29.4958C35.988 24.1028 32.4783 16.313 35.9452 13.0173C26.6146 15.2002 26.0153 24.274 23.1049 25.8577C23.1693 26.331 23.3273 26.7867 23.5698 27.1983C23.8124 27.6098 24.1344 27.9689 24.5173 28.2546C24.9025 28.2546 25.3733 27.8694 25.9297 28.2546C26.2698 28.3307 26.5904 28.4765 26.8714 28.6826Z" fill="url(#paint69_linear_78_172702)"/>
<path style="mix-blend-mode:screen" opacity="0.5" d="M24.7744 24.7018C23.8756 27.2271 27.4709 28.9819 29.2685 28.6395C35.1751 26.1143 32.7782 16.6124 34.9611 13.8303C29.6109 14.8147 26.4864 20.8925 24.7744 24.7018Z" fill="url(#paint70_radial_78_172702)"/>
<path style="mix-blend-mode:screen" opacity="0.8" d="M34.8327 13.5736C32.6223 14.6183 30.6475 16.1019 29.0287 17.9341C27.4099 19.7663 26.1809 21.9088 25.4164 24.2311C27.4894 19.863 30.7533 16.1689 34.8327 13.5736Z" fill="url(#paint71_linear_78_172702)"/>
<path d="M26.2725 29.1532C26.4298 29.357 26.5728 29.5715 26.7005 29.7952C26.8994 30.1894 27.1937 30.5278 27.5565 30.7796C27.9109 30.9736 28.308 31.0766 28.7121 31.0792C29.3817 31.0867 30.0329 30.8595 30.5526 30.4372C32.1704 28.9804 33.4238 27.1643 34.2117 25.1348C34.9997 23.1054 35.3004 20.9193 35.0895 18.7525C34.9606 16.8356 35.2831 14.9151 36.0311 13.1455C33.6792 13.7622 31.5103 14.9358 29.7075 16.5673C27.9047 18.1988 26.521 20.2401 25.6732 22.519C25.1695 23.8408 24.346 25.0173 23.2764 25.9431C23.4416 26.9446 23.9574 27.8547 24.7316 28.5111C25.0191 28.5044 25.3048 28.558 25.5702 28.6686C25.8356 28.7792 26.0748 28.9443 26.2725 29.1532ZM24.8172 28.2971C24.0902 27.6746 23.6179 26.8061 23.4904 25.8575C24.5492 24.9049 25.3701 23.7176 25.8872 22.3906C26.727 20.1648 28.079 18.168 29.8338 16.5619C31.5887 14.9557 33.6971 13.7853 35.9883 13.1455C35.1957 14.9068 34.8011 16.8213 34.8327 18.7525C35.0366 20.8996 34.7322 23.0646 33.944 25.0723C33.1558 27.08 31.906 28.8738 30.2958 30.3088C29.8474 30.7044 29.2672 30.9182 28.6693 30.908C28.2825 30.9187 27.8995 30.8303 27.5565 30.6512C27.2123 30.4203 26.9442 30.0927 26.7861 29.7096L26.2725 29.0676C25.8933 28.6244 25.3554 28.3477 24.7744 28.2971H24.8172Z" fill="black"/>
<path d="M29.4824 19.4803C30.5763 17.9994 31.924 16.7242 33.463 15.7137C31.8808 16.6641 30.4995 17.9145 29.3968 19.3946C28.8859 20.1251 28.4144 20.8823 27.9844 21.6631C27.1172 23.7282 25.6191 25.4661 23.7043 26.6281C25.6246 25.4867 27.1484 23.7836 28.07 21.7487L29.4824 19.4803Z" fill="black"/>
<path d="M29.8249 21.449C30.6652 19.9999 31.803 18.7454 33.1633 17.7681C31.7435 18.6982 30.5571 19.9431 29.6964 21.4062C28.601 24.059 26.5121 26.1787 23.8755 27.3127C26.5551 26.2204 28.6938 24.1125 29.8249 21.449Z" fill="black"/>
<path d="M32.7781 19.9081C32.7781 19.9081 28.498 26.9703 24.2179 27.5695C28.4552 27.3127 32.7781 19.9081 32.7781 19.9081Z" fill="black"/>
<path d="M30.9805 24.3594C29.1707 26.2527 26.7996 27.5133 24.2179 27.9547C26.8078 27.5374 29.1861 26.273 30.9805 24.3594Z" fill="black"/>
<path d="M27.2996 28.8108L26.786 28.4684C26.5351 28.2672 26.2623 28.0949 25.9728 27.9547C26.8641 27.9491 27.7441 28.1545 28.5409 28.554C27.9815 28.2324 27.3748 28.0012 26.7432 27.8691H27.0428C28.3617 27.9316 29.6662 27.5717 30.7665 26.8419C29.6343 27.4853 28.3438 27.7968 27.0428 27.7407C26.4777 27.7009 25.9104 27.7736 25.3736 27.9547C25.0469 27.9988 24.7158 27.9988 24.3892 27.9547L25.3736 27.7407H25.5876C26 27.8022 26.3861 27.9804 26.7004 28.2544L27.214 28.6396C27.7866 28.8651 28.3963 28.9812 29.0117 28.982H29.7821C28.9518 29.0993 28.106 29.0409 27.2996 28.8108Z" fill="black"/>
<path d="M21.5212 25.0873C22.5619 25.7058 23.3744 26.6446 23.8373 27.7633C24.3002 28.882 24.3886 30.1204 24.0893 31.2935C25.6301 28.8538 24.4317 25.0873 21.5212 25.0873Z" fill="black"/>
<defs>
<linearGradient id="paint0_linear_78_172702" x1="22.5057" y1="42.6354" x2="34.4044" y2="40.8377" gradientUnits="userSpaceOnUse">
<stop stop-color="#2B2B2B"/>
<stop offset="1" stop-color="#0B0B0B"/>
</linearGradient>
<linearGradient id="paint1_linear_78_172702" x1="22.5059" y1="42.3787" x2="34.3618" y2="40.581" gradientUnits="userSpaceOnUse">
<stop stop-color="#333333"/>
<stop offset="1" stop-color="#151515"/>
</linearGradient>
<linearGradient id="paint2_linear_78_172702" x1="23.0197" y1="42.764" x2="36.7588" y2="41.3943" gradientUnits="userSpaceOnUse">
<stop stop-color="#EFEFEF"/>
<stop offset="0.27" stop-color="#D9D9D9"/>
<stop offset="1" stop-color="#A0A0A0"/>
</linearGradient>
<linearGradient id="paint3_linear_78_172702" x1="22.9769" y1="42.2932" x2="36.716" y2="40.9236" gradientUnits="userSpaceOnUse">
<stop stop-color="white"/>
<stop offset="1" stop-color="#C8C8C8"/>
</linearGradient>
<linearGradient id="paint4_linear_78_172702" x1="28.2837" y1="1.24704" x2="52.8944" y2="17.8539" gradientUnits="userSpaceOnUse">
<stop stop-color="#303030"/>
<stop offset="1" stop-color="#111111"/>
</linearGradient>
<linearGradient id="paint5_linear_78_172702" x1="28.2837" y1="1.24699" x2="52.8944" y2="17.8966" gradientUnits="userSpaceOnUse">
<stop stop-color="#3A3A3A"/>
<stop offset="1" stop-color="#1A1A1A"/>
</linearGradient>
<linearGradient id="paint6_linear_78_172702" x1="27.3422" y1="2.57373" x2="51.7817" y2="16.0561" gradientUnits="userSpaceOnUse">
<stop stop-color="#424343"/>
<stop offset="0.63" stop-color="#151515"/>
<stop offset="1"/>
</linearGradient>
<linearGradient id="paint7_linear_78_172702" x1="37.4615" y1="1.54408" x2="38.4445" y2="10.6922" gradientUnits="userSpaceOnUse">
<stop stop-color="#545555"/>
<stop offset="0.09" stop-color="#4B4C4C"/>
<stop offset="0.7" stop-color="#151515"/>
<stop offset="1"/>
</linearGradient>
<linearGradient id="paint8_linear_78_172702" x1="20.2374" y1="5.78407" x2="55.0776" y2="16.9552" gradientUnits="userSpaceOnUse">
<stop stop-color="#F57200"/>
<stop offset="0.71" stop-color="#ED4C00"/>
<stop offset="1" stop-color="#E93B00"/>
</linearGradient>
<linearGradient id="paint9_linear_78_172702" x1="20.6654" y1="4.41429" x2="55.5056" y2="15.6282" gradientUnits="userSpaceOnUse">
<stop stop-color="#FF9300"/>
<stop offset="1" stop-color="#FF4D00"/>
</linearGradient>
<linearGradient id="paint10_linear_78_172702" x1="31.6653" y1="1.63214" x2="57.8169" y2="11.562" gradientUnits="userSpaceOnUse">
<stop stop-color="#EFEFEF"/>
<stop offset="0.27" stop-color="#D9D9D9"/>
<stop offset="1" stop-color="#A0A0A0"/>
</linearGradient>
<linearGradient id="paint11_linear_78_172702" x1="32.5212" y1="-0.67917" x2="58.7155" y2="9.2507" gradientUnits="userSpaceOnUse">
<stop stop-color="white"/>
<stop offset="1" stop-color="#C8C8C8"/>
</linearGradient>
<linearGradient id="paint12_linear_78_172702" x1="36.3308" y1="42.9351" x2="57.2178" y2="27.0131" gradientUnits="userSpaceOnUse">
<stop stop-color="#2B2B2B"/>
<stop offset="1" stop-color="#0B0B0B"/>
</linearGradient>
<linearGradient id="paint13_linear_78_172702" x1="36.1593" y1="42.7213" x2="57.0463" y2="26.7992" gradientUnits="userSpaceOnUse">
<stop stop-color="#333333"/>
<stop offset="1" stop-color="#151515"/>
</linearGradient>
<linearGradient id="paint14_linear_78_172702" x1="32.0503" y1="40.4101" x2="59.9567" y2="32.1494" gradientUnits="userSpaceOnUse">
<stop stop-color="#EFEFEF"/>
<stop offset="0.27" stop-color="#D9D9D9"/>
<stop offset="1" stop-color="#A0A0A0"/>
</linearGradient>
<linearGradient id="paint15_linear_78_172702" x1="32.5211" y1="42.0365" x2="60.4275" y2="33.7758" gradientUnits="userSpaceOnUse">
<stop stop-color="white"/>
<stop offset="1" stop-color="#C8C8C8"/>
</linearGradient>
<linearGradient id="paint16_linear_78_172702" x1="35.3888" y1="39.083" x2="53.8789" y2="24.4878" gradientUnits="userSpaceOnUse">
<stop stop-color="#F26500"/>
<stop offset="1" stop-color="#E93B00"/>
</linearGradient>
<radialGradient id="paint17_radial_78_172702" cx="0" cy="0" r="1" gradientUnits="userSpaceOnUse" gradientTransform="translate(18.6105 5.48416) scale(36.381 36.381)">
<stop stop-color="#2B2B2B"/>
<stop offset="1" stop-color="#0B0B0B"/>
</radialGradient>
<radialGradient id="paint18_radial_78_172702" cx="0" cy="0" r="1" gradientUnits="userSpaceOnUse" gradientTransform="translate(18.6105 5.48416) scale(36.381)">
<stop stop-color="#333333"/>
<stop offset="1" stop-color="#151515"/>
</radialGradient>
<linearGradient id="paint19_linear_78_172702" x1="1.57635" y1="30.0093" x2="6.7553" y2="30.0521" gradientUnits="userSpaceOnUse">
<stop stop-color="#424343"/>
<stop offset="0.63" stop-color="#151515"/>
<stop offset="1"/>
</linearGradient>
<radialGradient id="paint20_radial_78_172702" cx="0" cy="0" r="1" gradientUnits="userSpaceOnUse" gradientTransform="translate(64.7932 11.0482) scale(16.4785 16.4785)">
<stop stop-color="#424343"/>
<stop offset="0.63" stop-color="#151515"/>
<stop offset="1"/>
</radialGradient>
<radialGradient id="paint21_radial_78_172702" cx="0" cy="0" r="1" gradientUnits="userSpaceOnUse" gradientTransform="translate(23.2332 2.35967) scale(27.6068 27.6068)">
<stop stop-color="#D5D5D5"/>
<stop offset="0.2" stop-color="#A5A5A5"/>
<stop offset="0.59" stop-color="#4D4D4D"/>
<stop offset="0.87" stop-color="#151515"/>
<stop offset="1"/>
</radialGradient>
<linearGradient id="paint22_linear_78_172702" x1="26.3575" y1="5.2271" x2="28.1123" y2="17.8963" gradientUnits="userSpaceOnUse">
<stop stop-color="#424343"/>
<stop offset="0.63" stop-color="#151515"/>
<stop offset="1"/>
</linearGradient>
<radialGradient id="paint23_radial_78_172702" cx="0" cy="0" r="1" gradientUnits="userSpaceOnUse" gradientTransform="translate(-174.942 225.925) rotate(-7.53077) scale(19.4087 7.58598)">
<stop stop-color="#353636"/>
<stop offset="0.56" stop-color="#151515"/>
<stop offset="1"/>
</radialGradient>
<linearGradient id="paint24_linear_78_172702" x1="19.809" y1="5.6982" x2="29.5677" y2="41.052" gradientUnits="userSpaceOnUse">
<stop stop-color="#5E5E5E"/>
<stop offset="0.54" stop-color="#3F3F3F"/>
<stop offset="1" stop-color="#2A2A2A"/>
</linearGradient>
<linearGradient id="paint25_linear_78_172702" x1="33.8054" y1="1.84625" x2="43.564" y2="37.1572" gradientUnits="userSpaceOnUse">
<stop stop-color="#5E5E5E"/>
<stop offset="0.54" stop-color="#3F3F3F"/>
<stop offset="1" stop-color="#2A2A2A"/>
</linearGradient>
<linearGradient id="paint26_linear_78_172702" x1="26.5292" y1="3.8578" x2="36.2879" y2="39.1688" gradientUnits="userSpaceOnUse">
<stop stop-color="#5E5E5E"/>
<stop offset="0.54" stop-color="#3F3F3F"/>
<stop offset="1" stop-color="#2A2A2A"/>
</linearGradient>
<linearGradient id="paint27_linear_78_172702" x1="16.3854" y1="6.63997" x2="26.1442" y2="41.951" gradientUnits="userSpaceOnUse">
<stop stop-color="#5E5E5E"/>
<stop offset="0.54" stop-color="#3F3F3F"/>
<stop offset="1" stop-color="#2A2A2A"/>
</linearGradient>
<linearGradient id="paint28_linear_78_172702" x1="33.6769" y1="1.88879" x2="43.4356" y2="37.1998" gradientUnits="userSpaceOnUse">
<stop stop-color="#5E5E5E"/>
<stop offset="0.54" stop-color="#3F3F3F"/>
<stop offset="1" stop-color="#2A2A2A"/>
</linearGradient>
<linearGradient id="paint29_linear_78_172702" x1="32.4784" y1="2.23123" x2="42.237" y2="37.5422" gradientUnits="userSpaceOnUse">
<stop stop-color="#5E5E5E"/>
<stop offset="0.54" stop-color="#3F3F3F"/>
<stop offset="1" stop-color="#2A2A2A"/>
</linearGradient>
<linearGradient id="paint30_linear_78_172702" x1="44.3343" y1="-1.06477" x2="54.093" y2="34.2463" gradientUnits="userSpaceOnUse">
<stop stop-color="#5E5E5E"/>
<stop offset="0.54" stop-color="#3F3F3F"/>
<stop offset="1" stop-color="#2A2A2A"/>
</linearGradient>
<linearGradient id="paint31_linear_78_172702" x1="46.6886" y1="-1.70643" x2="56.4473" y2="33.6046" gradientUnits="userSpaceOnUse">
<stop stop-color="#5E5E5E"/>
<stop offset="0.54" stop-color="#3F3F3F"/>
<stop offset="1" stop-color="#2A2A2A"/>
</linearGradient>
<linearGradient id="paint32_linear_78_172702" x1="35.6888" y1="1.33229" x2="45.4475" y2="36.6433" gradientUnits="userSpaceOnUse">
<stop stop-color="#5E5E5E"/>
<stop offset="0.54" stop-color="#3F3F3F"/>
<stop offset="1" stop-color="#2A2A2A"/>
</linearGradient>
<linearGradient id="paint33_linear_78_172702" x1="37.4007" y1="0.86155" x2="47.1594" y2="36.1726" gradientUnits="userSpaceOnUse">
<stop stop-color="#5E5E5E"/>
<stop offset="0.54" stop-color="#3F3F3F"/>
<stop offset="1" stop-color="#2A2A2A"/>
</linearGradient>
<linearGradient id="paint34_linear_78_172702" x1="37.7432" y1="0.733417" x2="47.5019" y2="36.0872" gradientUnits="userSpaceOnUse">
<stop stop-color="#5E5E5E"/>
<stop offset="0.54" stop-color="#3F3F3F"/>
<stop offset="1" stop-color="#2A2A2A"/>
</linearGradient>
<linearGradient id="paint35_linear_78_172702" x1="45.9608" y1="-1.53503" x2="55.7195" y2="33.8188" gradientUnits="userSpaceOnUse">
<stop stop-color="#5E5E5E"/>
<stop offset="0.54" stop-color="#3F3F3F"/>
<stop offset="1" stop-color="#2A2A2A"/>
</linearGradient>
<linearGradient id="paint36_linear_78_172702" x1="29.568" y1="3.00156" x2="39.3266" y2="38.3125" gradientUnits="userSpaceOnUse">
<stop stop-color="#5E5E5E"/>
<stop offset="0.54" stop-color="#3F3F3F"/>
<stop offset="1" stop-color="#2A2A2A"/>
</linearGradient>
<linearGradient id="paint37_linear_78_172702" x1="41.8518" y1="-0.379552" x2="51.6105" y2="34.9314" gradientUnits="userSpaceOnUse">
<stop stop-color="#5E5E5E"/>
<stop offset="0.54" stop-color="#3F3F3F"/>
<stop offset="1" stop-color="#2A2A2A"/>
</linearGradient>
<linearGradient id="paint38_linear_78_172702" x1="17.9689" y1="6.21201" x2="27.7276" y2="41.523" gradientUnits="userSpaceOnUse">
<stop stop-color="#5E5E5E"/>
<stop offset="0.54" stop-color="#3F3F3F"/>
<stop offset="1" stop-color="#2A2A2A"/>
</linearGradient>
<linearGradient id="paint39_linear_78_172702" x1="14.3735" y1="7.19628" x2="24.1322" y2="42.5501" gradientUnits="userSpaceOnUse">
<stop stop-color="#5E5E5E"/>
<stop offset="0.54" stop-color="#3F3F3F"/>
<stop offset="1" stop-color="#2A2A2A"/>
</linearGradient>
<linearGradient id="paint40_linear_78_172702" x1="22.0351" y1="5.09899" x2="31.7937" y2="40.41" gradientUnits="userSpaceOnUse">
<stop stop-color="#5E5E5E"/>
<stop offset="0.54" stop-color="#3F3F3F"/>
<stop offset="1" stop-color="#2A2A2A"/>
</linearGradient>
<linearGradient id="paint41_linear_78_172702" x1="14.3732" y1="7.196" x2="24.1319" y2="42.5499" gradientUnits="userSpaceOnUse">
<stop stop-color="#5E5E5E"/>
<stop offset="0.54" stop-color="#3F3F3F"/>
<stop offset="1" stop-color="#2A2A2A"/>
</linearGradient>
<linearGradient id="paint42_linear_78_172702" x1="26.9144" y1="3.72936" x2="36.6731" y2="39.0831" gradientUnits="userSpaceOnUse">
<stop stop-color="#5E5E5E"/>
<stop offset="0.54" stop-color="#3F3F3F"/>
<stop offset="1" stop-color="#2A2A2A"/>
</linearGradient>
<linearGradient id="paint43_linear_78_172702" x1="39.1126" y1="0.348185" x2="48.8713" y2="35.7019" gradientUnits="userSpaceOnUse">
<stop stop-color="#5E5E5E"/>
<stop offset="0.54" stop-color="#3F3F3F"/>
<stop offset="1" stop-color="#2A2A2A"/>
</linearGradient>
<linearGradient id="paint44_linear_78_172702" x1="50.027" y1="-2.64828" x2="59.7857" y2="32.6627" gradientUnits="userSpaceOnUse">
<stop stop-color="#5E5E5E"/>
<stop offset="0.54" stop-color="#3F3F3F"/>
<stop offset="1" stop-color="#2A2A2A"/>
</linearGradient>
<linearGradient id="paint45_linear_78_172702" x1="30.1244" y1="2.87351" x2="39.883" y2="38.1845" gradientUnits="userSpaceOnUse">
<stop stop-color="#5E5E5E"/>
<stop offset="0.54" stop-color="#3F3F3F"/>
<stop offset="1" stop-color="#2A2A2A"/>
</linearGradient>
<linearGradient id="paint46_linear_78_172702" x1="25.5877" y1="4.11459" x2="35.3463" y2="39.4256" gradientUnits="userSpaceOnUse">
<stop stop-color="#5E5E5E"/>
<stop offset="0.54" stop-color="#3F3F3F"/>
<stop offset="1" stop-color="#2A2A2A"/>
</linearGradient>
<linearGradient id="paint47_linear_78_172702" x1="11.2919" y1="8.05217" x2="21.0505" y2="43.3631" gradientUnits="userSpaceOnUse">
<stop stop-color="#5E5E5E"/>
<stop offset="0.54" stop-color="#3F3F3F"/>
<stop offset="1" stop-color="#2A2A2A"/>
</linearGradient>
<linearGradient id="paint48_linear_78_172702" x1="11.2065" y1="21.3638" x2="11.1637" y2="14.1732" gradientUnits="userSpaceOnUse">
<stop stop-color="#D6D6D6"/>
<stop offset="0.35" stop-color="#CFCFCF"/>
<stop offset="0.84" stop-color="#BDBDBD"/>
<stop offset="1" stop-color="#B6B6B6"/>
</linearGradient>
<radialGradient id="paint49_radial_78_172702" cx="0" cy="0" r="1" gradientUnits="userSpaceOnUse" gradientTransform="translate(13.3359 18.3084) rotate(89.0142) scale(3.20928 2.6428)">
<stop stop-color="white"/>
<stop offset="0.54" stop-color="#F6F6F6"/>
<stop offset="0.65" stop-color="#F3F3F4"/>
<stop offset="0.72" stop-color="#EBEBEC"/>
<stop offset="0.78" stop-color="#DCDCDF"/>
<stop offset="0.84" stop-color="#C7C7CD"/>
<stop offset="0.89" stop-color="#ACACB6"/>
<stop offset="0.93" stop-color="#8B8B99"/>
<stop offset="0.94" stop-color="#858594"/>
<stop offset="1" stop-color="#C5C5C5"/>
</radialGradient>
<radialGradient id="paint50_radial_78_172702" cx="0" cy="0" r="1" gradientUnits="userSpaceOnUse" gradientTransform="translate(12.3693 13.0216) rotate(-178.919) scale(0.453772 0.468792)">
<stop stop-color="white"/>
<stop offset="0.04" stop-color="#EDEDED"/>
<stop offset="0.19" stop-color="#AFAFAF"/>
<stop offset="0.34" stop-color="#7A7A7A"/>
<stop offset="0.49" stop-color="#4E4E4E"/>
<stop offset="0.63" stop-color="#2C2C2C"/>
<stop offset="0.76" stop-color="#141414"/>
<stop offset="0.88" stop-color="#050505"/>
<stop offset="0.98"/>
</radialGradient>
<radialGradient id="paint51_radial_78_172702" cx="0" cy="0" r="1" gradientUnits="userSpaceOnUse" gradientTransform="translate(11.2489 20.7213) scale(4.28012 4.28012)">
<stop stop-color="#BC5807"/>
<stop offset="0.14" stop-color="#B24D07"/>
<stop offset="0.52" stop-color="#993206"/>
<stop offset="1" stop-color="#610800"/>
</radialGradient>
<radialGradient id="paint52_radial_78_172702" cx="0" cy="0" r="1" gradientUnits="userSpaceOnUse" gradientTransform="translate(10.5541 18.8722) rotate(0.734519) scale(0.400653 0.375127)">
<stop stop-color="white"/>
<stop offset="0.22" stop-color="#B3B3B3"/>
<stop offset="0.62" stop-color="#333333"/>
<stop offset="0.79"/>
<stop offset="1"/>
</radialGradient>
<linearGradient id="paint53_linear_78_172702" x1="10.6246" y1="16.9218" x2="11.0842" y2="17.947" gradientUnits="userSpaceOnUse">
<stop stop-color="#B9B9B9"/>
<stop offset="0.04" stop-color="#ADADAD"/>
<stop offset="0.33" stop-color="#646464"/>
<stop offset="0.57" stop-color="#2E2E2E"/>
<stop offset="0.75" stop-color="#0D0D0D"/>
<stop offset="0.85"/>
<stop offset="0.98"/>
</linearGradient>
<linearGradient id="paint54_linear_78_172702" x1="5.64233" y1="28.0405" x2="2.73185" y2="28.0405" gradientUnits="userSpaceOnUse">
<stop stop-color="#130000"/>
<stop offset="1" stop-color="#540000"/>
</linearGradient>
<radialGradient id="paint55_radial_78_172702" cx="0" cy="0" r="1" gradientUnits="userSpaceOnUse" gradientTransform="translate(2.17504 29.4954) scale(4.53693)">
<stop stop-color="#FD9F9F"/>
<stop offset="1" stop-color="#F37171"/>
</radialGradient>
<radialGradient id="paint56_radial_78_172702" cx="0" cy="0" r="1" gradientUnits="userSpaceOnUse" gradientTransform="translate(2.17536 29.4959) scale(4.53693 4.53692)">
<stop stop-color="#F5B8B8"/>
<stop offset="1" stop-color="#FF9999"/>
</radialGradient>
<radialGradient id="paint57_radial_78_172702" cx="0" cy="0" r="1" gradientUnits="userSpaceOnUse" gradientTransform="translate(1.91855 29.2391) scale(2.18287 2.18286)">
<stop stop-color="#F5B8B8"/>
<stop offset="0.02" stop-color="#E6ADAD"/>
<stop offset="0.13" stop-color="#AA8080"/>
<stop offset="0.24" stop-color="#765959"/>
<stop offset="0.34" stop-color="#4C3939"/>
<stop offset="0.44" stop-color="#2B2020"/>
<stop offset="0.53" stop-color="#130E0E"/>
<stop offset="0.62" stop-color="#050404"/>
<stop offset="0.69"/>
<stop offset="1"/>
</radialGradient>
<radialGradient id="paint58_radial_78_172702" cx="0" cy="0" r="1" gradientUnits="userSpaceOnUse" gradientTransform="translate(2.81694 29.6239) scale(2.56807)">
<stop stop-color="#F5B8B8"/>
<stop offset="0.02" stop-color="#E6ADAD"/>
<stop offset="0.13" stop-color="#AA8080"/>
<stop offset="0.24" stop-color="#765959"/>
<stop offset="0.34" stop-color="#4C3939"/>
<stop offset="0.44" stop-color="#2B2020"/>
<stop offset="0.53" stop-color="#130E0E"/>
<stop offset="0.62" stop-color="#050404"/>
<stop offset="0.69"/>
<stop offset="1"/>
</radialGradient>
<radialGradient id="paint59_radial_78_172702" cx="0" cy="0" r="1" gradientUnits="userSpaceOnUse" gradientTransform="translate(18.6106 5.48432) scale(36.3811 36.381)">
<stop stop-color="#333333"/>
<stop offset="1" stop-color="#151515"/>
</radialGradient>
<linearGradient id="paint60_linear_78_172702" x1="2.73125" y1="23.8457" x2="3.71567" y2="26.8418" gradientUnits="userSpaceOnUse">
<stop stop-color="#424343"/>
<stop offset="0.63" stop-color="#151515"/>
<stop offset="1"/>
</linearGradient>
<linearGradient id="paint61_linear_78_172702" x1="6.92589" y1="28.2971" x2="8.29553" y2="33.8185" gradientUnits="userSpaceOnUse">
<stop stop-color="#EFEFEF"/>
<stop offset="0.27" stop-color="#D9D9D9"/>
<stop offset="1" stop-color="#A0A0A0"/>
</linearGradient>
<linearGradient id="paint62_linear_78_172702" x1="6.54073" y1="28.4256" x2="7.91037" y2="33.9041" gradientUnits="userSpaceOnUse">
<stop stop-color="white"/>
<stop offset="1" stop-color="#C8C8C8"/>
</linearGradient>
<linearGradient id="paint63_linear_78_172702" x1="69.3303" y1="9.29329" x2="82.7271" y2="34.7172" gradientUnits="userSpaceOnUse">
<stop stop-color="#EFEFEF"/>
<stop offset="0.27" stop-color="#D9D9D9"/>
<stop offset="1" stop-color="#A0A0A0"/>
</linearGradient>
<linearGradient id="paint64_linear_78_172702" x1="71.9413" y1="7.88118" x2="85.3808" y2="33.3479" gradientUnits="userSpaceOnUse">
<stop stop-color="white"/>
<stop offset="1" stop-color="#C8C8C8"/>
</linearGradient>
<radialGradient id="paint65_radial_78_172702" cx="0" cy="0" r="1" gradientUnits="userSpaceOnUse" gradientTransform="translate(61.2836 21.235) scale(13.0972)">
<stop stop-color="#FF9300"/>
<stop offset="1" stop-color="#FF4D00"/>
</radialGradient>
<linearGradient id="paint66_linear_78_172702" x1="67.2757" y1="10.7914" x2="67.7894" y2="14.9859" gradientUnits="userSpaceOnUse">
<stop stop-color="#616262"/>
<stop offset="0.2" stop-color="#4B4C4C"/>
<stop offset="0.74" stop-color="#151515"/>
<stop offset="1"/>
</linearGradient>
<linearGradient id="paint67_linear_78_172702" x1="16.3425" y1="18.3673" x2="18.1401" y2="30.1804" gradientUnits="userSpaceOnUse">
<stop stop-color="white"/>
<stop offset="1" stop-color="#C8C8C8"/>
</linearGradient>
<linearGradient id="paint68_linear_78_172702" x1="27.9416" y1="18.2819" x2="34.7898" y2="25.4297" gradientUnits="userSpaceOnUse">
<stop stop-color="#303030"/>
<stop offset="1" stop-color="#111111"/>
</linearGradient>
<linearGradient id="paint69_linear_78_172702" x1="27.9414" y1="18.2391" x2="34.8324" y2="25.3869" gradientUnits="userSpaceOnUse">
<stop stop-color="#3A3A3A"/>
<stop offset="1" stop-color="#1A1A1A"/>
</linearGradient>
<radialGradient id="paint70_radial_78_172702" cx="0" cy="0" r="1" gradientUnits="userSpaceOnUse" gradientTransform="translate(26.8717 19.8225) scale(10.7431 10.7431)">
<stop stop-color="#424343"/>
<stop offset="0.63" stop-color="#151515"/>
<stop offset="1"/>
</radialGradient>
<linearGradient id="paint71_linear_78_172702" x1="28.5409" y1="17.7253" x2="32.7355" y2="20.7214" gradientUnits="userSpaceOnUse">
<stop stop-color="#4F5050"/>
<stop offset="0.04" stop-color="#4B4C4C"/>
<stop offset="0.69" stop-color="#151515"/>
<stop offset="1"/>
</linearGradient>
</defs>
</svg>
