<svg width="99" height="56" viewBox="0 0 99 56" fill="none" xmlns="http://www.w3.org/2000/svg">
<path d="M33.0879 34.6295C27.9797 34.1001 22.8305 34.1001 17.7223 34.6295C12.6688 35.7831 7.68218 37.212 2.78464 38.9097C2.28109 39.2209 1.80817 39.5792 1.3722 39.9797C1.1234 40.141 0.924897 40.369 0.799277 40.6376C0.673658 40.9062 0.625973 41.2046 0.661654 41.499C0.697336 41.7934 0.814946 42.0718 1.0011 42.3026C1.18725 42.5334 1.43447 42.7074 1.71461 42.8046C3.25545 43.4038 5.99473 42.1197 10.2748 43.147C14.1874 44.1778 17.8353 46.0309 20.9751 48.5827C25.0191 50.9906 29.5548 52.4537 34.2435 52.8628C35.9556 52.8628 33.0879 45.9719 32.9595 37.54C32.9595 37.2404 33.0023 35.3144 33.0879 34.6295Z" fill="url(#paint0_radial_78_173365)"/>
<path d="M33.0875 34.6295C27.9793 34.1001 22.8301 34.1001 17.7219 34.6295C12.6685 35.7831 7.68183 37.212 2.78428 38.9097C2.28073 39.2209 1.80782 39.5792 1.37185 39.9797C1.12625 40.1872 0.935211 40.4517 0.81543 40.7501C0.81543 41.8629 1.07224 42.5478 3.81152 42.0341C6.90903 41.4601 10.0951 41.5771 13.1422 42.3766C18.5351 43.5322 22.002 45.715 27.5662 47.0847C30.3885 47.6807 33.3041 47.6807 36.1264 47.0847C35.6128 44.3026 33.0447 42.4622 32.9591 37.4116C32.9591 37.2404 33.0019 35.3144 33.0875 34.6295Z" fill="url(#paint1_radial_78_173365)"/>
<path d="M33.0447 37.583C32.9902 36.5993 32.9902 35.6134 33.0447 34.6297C33.0447 34.6297 29.0642 34.2873 24.784 34.2873C22.405 34.2414 20.0267 34.4133 17.679 34.8009C13.3929 35.7451 9.17472 36.9748 5.0527 38.4818L2.69862 39.2094C2.28386 39.4573 1.88372 39.7288 1.50019 40.0227C1.22726 40.2281 1.01537 40.504 0.887194 40.8206C0.759021 41.1373 0.719408 41.4829 0.772576 41.8203C0.823443 42.0992 0.950241 42.3586 1.13903 42.57C1.32781 42.7815 1.57127 42.9367 1.84261 43.0187C2.22417 43.0937 2.61666 43.0937 2.99822 43.0187H4.45347C5.13828 43.0187 5.90872 43.0187 6.80754 43.0187C7.97685 43.0105 9.14225 43.1543 10.2744 43.4468C14.1466 44.3959 17.777 46.1455 20.9319 48.5829C24.9747 51.0278 29.5331 52.4935 34.2431 52.863C34.3253 52.8587 34.4058 52.8374 34.4794 52.8006C34.553 52.7638 34.6183 52.7122 34.6711 52.649C35.0991 52.0498 34.6711 50.3805 34.2859 47.8125C33.5862 44.4435 33.1709 41.0216 33.0447 37.583ZM34.4999 52.863C34.4609 52.8856 34.4166 52.8974 34.3715 52.8974C34.3264 52.8974 34.2822 52.8856 34.2431 52.863C29.5638 52.3891 25.0547 50.8519 21.0603 48.3689C17.7881 45.9331 14.0405 44.2124 10.0604 43.3184C8.90825 43.0613 7.73124 42.9321 6.55073 42.9331C5.75248 42.8858 4.95211 42.8858 4.15386 42.9331H2.74143C2.3867 42.9859 2.02612 42.9859 1.6714 42.9331C1.43585 42.8505 1.22551 42.7087 1.06061 42.5213C0.895702 42.3339 0.78177 42.1073 0.729765 41.8631C0.696974 41.5666 0.738492 41.2666 0.850572 40.9901C0.962652 40.7137 1.14178 40.4694 1.37179 40.2795C1.80573 39.8948 2.26315 39.5374 2.74143 39.2094L5.0527 38.4818C9.18 36.9909 13.3971 35.7615 17.679 34.8009C20.0125 34.4149 22.3764 34.243 24.7412 34.2873C28.5933 34.2873 32.1887 34.5869 32.8735 34.6297C32.8735 35.4001 32.8735 37.155 32.8735 37.4974C33.0069 40.9943 33.4364 44.4737 34.1575 47.8981C34.5855 50.3806 34.8851 52.1354 34.4999 52.863Z" fill="#7F5B28"/>
<path d="M78.2427 15.4974C77.7719 15.1122 76.017 16.1394 74.9042 17.2095C74.9042 17.2095 78.1999 12.6297 77.8147 12.3301C77.4295 12.0305 74.6046 13.4857 73.2778 14.8982C73.2778 14.8982 77.2583 10.0189 76.5306 9.67644C75.803 9.33403 72.2505 12.1589 70.4957 13.5285C71.873 11.7743 73.1314 9.92968 74.2622 8.0072C73.0209 7.79319 69.9821 9.89044 67.1572 12.0305C68.6356 10.2072 69.833 8.17306 70.7097 5.99554C69.1688 5.99554 65.5735 8.47801 63.7331 9.80485C63.9471 9.80485 68.2272 5.18231 68.0132 4.96831C65.1707 5.71218 62.5261 7.071 60.2662 8.94882C60.2662 8.94882 64.0327 3.85548 63.6047 3.68428C60.9496 4.31827 58.5388 5.71712 56.6709 7.70759C57.7837 6.50916 60.951 2.27184 60.4374 2.27184C57.3629 3.02056 54.542 4.57132 52.2624 6.76596C52.2624 6.76596 56.5425 1.88662 56.5425 1.75822C54.0172 1.1162 46.8694 8.69202 44.3441 10.8749C44.3441 10.8749 54.274 0.645386 53.8888 0.645386C48.5487 3.17882 43.7516 6.72571 39.7644 11.0889C39.7644 11.0889 46.527 2.52864 46.0562 2.82825C40.4408 5.61999 36.0411 10.3699 33.6866 16.1822C39.3718 14.4017 45.4496 14.2977 51.1923 15.8826C58.1051 18.712 64.7037 22.2552 70.8809 26.4545C74.6046 26.4545 77.9003 19.6491 77.6007 19.4351C77.3011 19.2211 76.5306 19.7775 75.4178 20.6763C75.589 20.3339 78.5423 15.8826 78.2427 15.4974Z" fill="url(#paint2_linear_78_173365)"/>
<path d="M71.352 20.8902C71.352 20.8902 76.7022 13.9992 77.5582 12.33C74.9473 12.33 70.6244 17.9369 69.2548 19.3922C71.8021 16.2632 74.1878 13.0061 76.4026 9.63349C72.8017 11.4302 69.6106 13.951 67.0291 17.0381C69.2847 13.9064 71.6989 10.8921 74.2625 8.00705C70.168 9.48916 66.597 12.1376 63.9902 15.6257C65.745 13.2288 69.2976 8.22105 70.6244 5.99539C66.2629 7.57259 62.5157 10.4954 59.9241 14.3416C61.9927 10.837 64.7089 7.7577 67.9279 5.26777C66.3015 4.92536 61.3365 8.22106 60.2665 9.16269C58.5973 11.1315 58.1692 11.7308 57.2276 12.8436C59.0454 9.65373 61.1821 6.65656 63.605 3.89813C61.1025 4.52914 58.8129 5.8143 56.9708 7.62184C55.6792 8.97959 54.4647 10.4085 53.3327 11.902C55.397 8.64254 57.7155 5.55124 60.2665 2.6569C58.8969 2.35729 54.8736 5.09657 52.6479 6.93702C51.107 8.39226 49.823 10.1043 48.3678 11.5596C50.5008 8.06525 53.1898 4.94251 56.3288 2.31449C54.1031 1.75808 44.4729 11.1743 44.1304 11.4311C43.7776 12.0068 43.2936 12.4908 42.718 12.8436C45.7997 9.33389 49.7374 6.295 53.5895 1.20166C48.3736 3.81998 43.6523 7.32474 39.6363 11.5596L38.7803 12.5868C38.7803 12.5868 43.8736 5.78139 45.8425 2.8709C40.251 5.66049 35.8683 10.3931 33.5157 16.1821C39.2009 14.4016 45.2787 14.2975 51.0214 15.8825C57.3472 18.4401 63.3518 21.7296 68.9123 25.6839C72.1224 26.3688 77.4726 19.9914 77.1302 19.3922C76.7878 18.793 74.5621 21.2754 73.4921 22.6451C73.9629 22.003 77.1302 17.2521 78.029 15.4545C76.3598 15.4973 73.4065 18.6218 71.352 20.8902Z" fill="url(#paint3_linear_78_173365)"/>
<path d="M38.9514 11.8592L39.7218 10.8748L39.1226 11.5596L38.9514 11.8592Z" fill="#FFBC00"/>
<path d="M49.2238 6.25212L49.4806 5.95251L48.8813 6.46612L49.2238 6.25212Z" fill="#FFD05C"/>
<path d="M78.2857 15.4118C78.1736 15.3808 78.0553 15.3808 77.9433 15.4118C77.0398 15.5927 76.199 16.0058 75.5036 16.6103C75.8032 16.1822 76.2312 15.6258 76.5736 15.0266C78.2001 12.5869 77.986 12.4157 77.9004 12.3301C77.761 12.2872 77.6119 12.2872 77.4724 12.3301C76.2847 12.5538 75.1941 13.1364 74.348 13.9994C75.418 12.6297 76.8732 10.5753 76.7448 9.97606C74.8307 10.7277 73.0741 11.831 71.5659 13.229L73.2779 10.9605C74.99 8.60642 74.9472 8.47803 74.9044 8.39242C72.5698 9.05226 70.4175 10.2382 68.6126 11.8593C69.7313 9.97454 70.5405 7.92257 71.0095 5.78155C68.7822 6.33968 66.7159 7.4095 64.9745 8.90603C66.2469 7.73327 67.3554 6.39438 68.2702 4.92552H68.0134C65.4851 5.66033 63.1182 6.86558 61.0368 8.47802C62.1964 7.02561 63.1872 5.4461 63.9901 3.76989C61.8422 4.28919 59.8569 5.33335 58.2119 6.80877C59.4531 5.26793 61.2508 2.87106 61.0796 2.52865C58.3499 3.11516 55.8244 4.41481 53.7606 6.29516C55.0074 4.97824 56.1254 3.545 57.0991 2.01504H56.6711C54.7022 2.01504 50.7645 5.52474 47.8112 8.34962L49.6945 6.33796C54.5738 1.20181 54.4882 1.07341 54.4454 0.987809C49.7904 3.14537 45.558 6.11675 41.9474 9.76206L43.6595 7.622C46.8696 3.34188 46.8268 3.34188 46.784 3.34188C41.1209 6.13779 36.6867 10.9225 34.3288 16.7815C37.4544 15.777 40.7189 15.2715 44.0019 15.2834C46.6275 15.2788 49.239 15.6684 51.7489 16.439C57.7755 18.7464 63.5194 21.7333 68.8694 25.3417L71.6087 27.0109C74.8188 27.0109 77.8576 21.7464 78.3713 20.2056C78.3713 19.9916 78.3713 19.8631 78.3713 19.7775C77.844 19.9137 77.3588 20.1784 76.9588 20.548C78.0224 19.2643 78.8748 17.8195 79.4841 16.2678C79.4841 16.2678 78.5425 15.4546 78.2857 15.4118ZM75.1612 20.5908C75.7077 20.0449 76.3643 19.6217 77.0872 19.3495C76.5396 20.7938 75.7588 22.1385 74.776 23.33C73.7722 24.7938 72.2363 25.8074 70.4958 26.1549L67.7994 24.4857C62.4378 20.8968 56.6961 17.9111 50.6789 15.583C48.1435 14.7952 45.5012 14.4054 42.8463 14.4274C39.6 14.4465 36.3726 14.9219 33.2588 15.8398C34.3008 12.9498 36.0006 10.3416 38.2237 8.22121C40.1789 5.93587 42.6018 4.0968 45.3287 2.82826C44.7723 3.76989 41.391 8.05001 39.1226 10.8749C43.0703 6.57804 47.77 3.03874 52.9901 0.431396C52.2197 1.45863 47.0836 6.85158 43.5739 10.4469C44.0875 10.0189 44.8151 9.33404 45.6284 8.52082C48.6672 5.65314 53.2042 1.33022 55.3442 1.33022C55.0018 1.88663 52.7761 4.54031 51.3209 6.16676C53.5951 4.01029 56.3779 2.46428 59.4103 1.67264C58.3352 3.5604 57.0579 5.32563 55.601 6.93718C57.4454 5.01265 59.7857 3.63513 62.3636 2.95667C61.3845 4.73844 60.2683 6.44136 59.0251 8.05001L58.4259 8.82043L59.1963 8.17841C61.4095 6.39968 63.9352 5.04972 66.6437 4.1979C65.3467 5.8672 63.9152 7.42752 62.3636 8.86323C64.2798 7.21274 66.5062 5.96134 68.9122 5.18233C67.9498 7.26297 66.7583 9.22972 65.3597 11.0461C68.0072 9.27794 71.083 8.2576 74.2624 8.09282C73.9199 8.77764 71.2663 12.3729 70.3674 13.443C72.0599 11.8188 74.0319 10.5138 76.1884 9.59085C75.365 11.4387 74.2525 13.1436 72.8927 14.6414C74.005 13.3375 75.5045 12.4228 77.1728 12.0305H77.4724C76.6805 13.7033 75.7043 15.2825 74.562 16.7387C75.366 15.8928 76.388 15.2856 77.5152 14.9838C78.5425 15.9682 75.632 20.1199 75.1612 20.5908Z" fill="#B25400"/>
<path d="M38.8232 12.0303L39.6364 11.2171L39.508 11.0459L38.8232 12.0303Z" fill="#B25400"/>
<path d="M43.4023 11.5596L42.7175 12.3728L43.5307 11.688L44.344 10.8748L43.4023 11.5596Z" fill="#B25400"/>
<path d="M53.1614 5.52461L48.5817 11.046L52.4338 6.76584L53.461 5.56741C53.461 5.56741 53.4182 5.31061 53.1614 5.52461Z" fill="#B25400"/>
<path d="M57.1419 6.89419C55.6866 8.34943 53.2469 11.5167 53.2469 11.5167L57.5271 7.2366C57.5271 7.2366 57.1419 6.85139 57.1419 6.89419Z" fill="#B25400"/>
<path d="M57.1419 12.6296C57.1419 12.6296 60.3948 8.9059 60.8228 8.34949C60.3092 8.7347 57.1419 12.5868 57.1419 12.6296Z" fill="#B25400"/>
<path d="M59.8807 14.3418C61.1783 12.7915 62.6106 11.3592 64.1609 10.0616C62.5761 11.321 61.1401 12.757 59.8807 14.3418Z" fill="#B25400"/>
<path d="M63.4766 16.2679C64.7875 14.73 66.2188 13.2987 67.7567 11.9878V11.7738C66.2095 13.1523 64.778 14.6553 63.4766 16.2679Z" fill="#B25400"/>
<path d="M67.0291 17.0384C67.0291 17.0384 69.5972 14.4704 70.7956 13.3575C69.426 14.342 67.0719 17.0384 67.0291 17.0384Z" fill="#B25400"/>
<path d="M69.2546 19.3066L73.5348 14.7697C72.6787 15.3261 69.4258 19.1354 69.2546 19.3066Z" fill="#B25400"/>
<path d="M71.352 20.8902C71.352 20.8902 74.6477 17.5089 75.3325 16.9525C74.5193 17.3377 71.4804 20.7618 71.352 20.8902Z" fill="#B25400"/>
<path d="M73.4493 22.9021C74.1009 22.1164 74.8167 21.3863 75.5894 20.7192C74.7961 21.3639 74.0782 22.0962 73.4493 22.9021Z" fill="#B25400"/>
<path d="M21.9592 21.5322C17.0371 27.4388 14.0838 33.645 11.4301 35.0146C8.04914 36.3672 4.35505 36.7381 0.772642 36.0847C0.387431 36.0847 -0.939419 38.5671 2.01386 39.7656C4.69924 40.3236 7.48739 40.116 10.0605 39.1663C14.2324 37.5015 18.5249 36.1565 22.9009 35.143C26.2834 34.8919 29.6829 34.9923 33.0447 35.4426L36.0408 13.7424L34.3288 14.0848C29.5103 15.1684 25.1714 17.7808 21.9592 21.5322Z" fill="url(#paint4_radial_78_173365)"/>
<path d="M34.2007 13.9993C29.4167 15.1083 25.1125 17.7178 21.9168 21.4467C20.0243 23.7796 18.2528 26.2082 16.6094 28.7229C15.3092 31.1129 13.5492 33.2221 11.4305 34.929C9.09148 35.8732 6.59103 36.3529 4.06868 36.3415C2.98922 36.3475 1.91249 36.2326 0.858586 35.9991C0.858586 35.9991 0.25937 36.5127 0.173768 37.1547C0.0881653 37.7967 0.173778 39.0808 2.05703 39.8512C0.387784 39.1236 0.259381 38.0535 0.302182 37.4543C0.342776 37.0608 0.525369 36.6956 0.815792 36.4271C1.88423 36.6603 2.9751 36.7751 4.06868 36.7695C6.62495 36.8033 9.16056 36.3078 11.5161 35.3143C13.6766 33.6099 15.4678 31.4838 16.7806 29.0653C18.394 26.4858 20.1517 23.9994 22.0452 21.6179C25.2144 17.9547 29.4749 15.4044 34.2007 14.3417L35.7416 13.9993L32.7883 35.3999H31.2902V35.6139H32.9167C32.9167 35.6139 35.7844 14.7269 35.9128 13.8708L34.2007 13.9993Z" fill="black"/>
<path d="M1.50031 39.3804C3.27332 40.0036 5.20584 40.0036 6.97885 39.3804C5.19381 39.9286 3.28535 39.9286 1.50031 39.3804Z" fill="black"/>
<path d="M98.4021 14.5556C98.4021 14.256 96.6473 14.5557 95.3632 15.5829C97.9313 13.7852 98.5733 12.0304 98.3165 11.902C96.5725 12.0933 94.9143 12.7595 93.5228 13.828C91.2115 15.3261 76.4023 25.7696 74.519 26.4116C72.6358 27.0536 71.4373 26.4116 69.3401 25.1704C70.5581 26.6392 71.4261 28.3659 71.8784 30.2197C72.3308 32.0735 72.3556 34.0059 71.951 35.8707C72.7642 36.3415 81.6668 40.6216 84.7913 41.82C87.9158 43.0184 97.6317 44.6877 97.6317 42.7188C97.6317 40.75 93.908 40.1936 92.0247 39.7656C92.838 39.7656 96.5617 40.0224 96.7329 38.6955C96.9041 37.3687 93.1376 36.8551 90.6123 36.7695C91.1259 36.7695 95.5344 36.2131 95.3632 34.929C95.192 33.645 93.3088 33.7734 91.3399 33.7734C92.4099 33.4738 96.2621 32.4037 95.62 31.3765C94.978 30.3493 90.3555 30.8201 87.9158 31.1625C94.5072 28.7656 96.048 25.6412 95.6628 25.2559C95.2776 24.8707 93.4372 25.7268 91.7679 26.1548C94.2076 24.7423 97.1609 22.1743 96.7329 21.6606C96.3048 21.147 95.5344 21.4466 94.8068 21.6606C95.3204 21.2326 97.8457 18.579 97.4177 18.2366C96.9897 17.8941 95.4488 18.4506 93.1376 19.6062C95.2504 18.3407 97.05 16.6142 98.4021 14.5556Z" fill="url(#paint5_linear_78_173365)"/>
<path d="M71.2661 26.155C70.719 25.6673 70.0558 25.3284 69.3401 25.1705L71.2661 26.155Z" fill="#FFBC00"/>
<path d="M88.7295 30.9913H89.1147C88.7086 31.0696 88.3182 31.2142 87.9591 31.4193L88.7295 30.9913Z" fill="#FFBC00"/>
<path d="M93.1376 25.5127C92.7703 25.6596 92.4357 25.8778 92.1532 26.1547L93.1376 25.5127Z" fill="#FFBC00"/>
<path d="M94.9781 22.046L95.6201 21.618H95.2349L94.9781 22.046Z" fill="#FFBC00"/>
<path d="M98.3169 11.902C96.5729 12.0933 94.9147 12.7595 93.5232 13.828C91.2119 15.3261 76.4027 25.7696 74.5194 26.4116C73.4438 26.7589 72.2744 26.6666 71.2665 26.1548C72.0141 26.6283 72.6069 27.31 72.972 28.1161C73.337 28.9222 73.4583 29.8175 73.321 30.6917C72.9786 33.0458 73.321 35.8278 83.0369 39.7228C88.5154 41.9912 96.1769 43.1041 96.9473 41.82C97.7177 40.536 92.3675 39.8084 92.2819 39.7656C88.6866 39.3375 85.0057 38.3959 81.5388 37.6255C80.6684 37.4574 79.8483 37.0913 79.142 36.5555C81.9323 37.4232 84.7985 38.0251 87.7022 38.3531C90.3987 38.9095 97.2041 39.4231 96.9045 38.3531C96.6049 37.2831 93.6516 36.8551 90.9979 36.7267H91.6827C88.714 36.9188 85.7329 36.7028 82.8229 36.0847C81.7393 36.0049 80.6937 35.6515 79.784 35.0574C82.3065 35.6026 84.8684 35.9461 87.4454 36.0847C89.4999 36.2987 95.4064 35.6566 95.3208 34.5438C95.2352 33.431 93.3092 33.9018 92.1107 33.6878H91.7255C89.0832 34.1529 86.4047 34.3821 83.7217 34.3726C82.6429 34.423 81.5687 34.2023 80.5972 33.7306C83.1523 33.9441 85.7236 33.8579 88.2586 33.4738C90.6983 33.2598 96.0056 31.9329 95.7916 31.0341C95.5776 30.1353 90.1847 30.7773 88.0018 31.2909C85.8307 32.4258 83.3802 32.9159 80.9396 32.7034C83.3906 32.4372 85.7785 31.757 88.0018 30.6917C90.3131 29.7929 96.0912 26.4116 95.1496 25.3416C93.9128 25.4535 92.7153 25.8333 91.6399 26.4544C88.4135 28.9312 84.667 30.6434 80.6828 31.4621C83.53 30.6294 86.2302 29.3587 88.6866 27.6956C92.6243 25.2132 96.8617 22.0031 96.4765 21.575C96.0912 21.147 93.6516 22.8591 93.3092 23.0731C89.7344 25.3752 85.9683 27.3656 82.0524 29.0225C81.496 29.0225 80.9824 29.2793 80.0836 29.5361C82.9334 28.3034 85.6937 26.8732 88.3442 25.2559C93.352 22.6879 97.6749 19.0498 97.2041 18.4934C96.7333 17.9369 94.9356 19.1782 94.2508 19.5634C89.5274 22.8179 84.5459 25.6809 79.356 28.1236C83.2509 26.0692 94.0368 18.793 94.422 18.4506C96.2624 16.8241 98.2741 14.7269 98.1029 14.4701C97.9317 14.2132 97.2469 14.47 96.2624 14.9409C92.4271 17.848 88.4099 20.5071 84.2353 22.9019C87.4882 20.7618 95.6204 14.3416 96.3053 13.9992C97.7605 12.972 98.5309 11.9876 98.3169 11.902Z" fill="url(#paint6_linear_78_173365)"/>
<path style="mix-blend-mode:screen" opacity="0.31" d="M94.5499 20.6336C91.4944 21.6141 88.6074 23.0576 85.9896 24.9137C83.93 26.0975 81.7099 26.977 79.3982 27.5246C84.0266 25.1451 88.34 22.1976 92.2386 18.7503C90.0557 19.1783 88.9857 20.6336 87.2309 21.6608C85.9388 22.4452 84.462 22.8734 82.9507 22.902C86.8692 20.4254 90.526 17.5572 93.8651 14.3418C90.6122 16.011 86.0752 19.9488 84.2348 20.976C82.3943 22.0032 79.9547 23.8437 77.4722 25.5557C76.8873 25.983 76.2554 26.342 75.5889 26.6257C75.0313 27.1721 74.624 27.8531 74.4066 28.6029C74.1891 29.3527 74.1689 30.1459 74.3477 30.9059C74.5834 31.9995 75.0388 33.0338 75.6863 33.9461C76.3337 34.8584 77.1597 35.6297 78.1142 36.2132C79.5267 36.6412 80.8963 37.0264 82.3943 37.54C83.8924 38.0537 86.118 38.8241 87.4449 37.2404C84.834 36.8124 82.3943 35.9564 79.9547 35.3572C83.2504 35.7852 86.7172 37.3688 90.0129 35.6568C86.9657 34.8571 83.8601 34.2989 80.7251 33.9876C84.41 34.3246 88.1134 33.581 91.3826 31.8475C90.655 31.8475 90.1413 31.2911 89.4137 31.5907C86.6594 32.5211 83.7586 32.9417 80.8535 32.8319C84.7572 31.9864 88.381 30.1598 91.3826 27.5246C88.4751 29.3473 85.2524 30.6103 81.8807 31.2483C85.5529 29.6655 88.8819 27.3831 91.6822 24.5285C88.6326 27.3169 84.7209 28.9783 80.5967 29.2366C82.2878 28.5096 83.9192 27.6509 85.476 26.6685C88.7388 25.0403 91.7868 23.0131 94.5499 20.6336Z" fill="url(#paint7_linear_78_173365)"/>
<path d="M98.3591 14.8126L98.402 14.7697H98.3591V14.8126Z" fill="#FFD05C"/>
<path d="M98.5307 14.6843C98.5307 14.6843 98.5307 14.6843 98.1455 14.6843C97.5834 14.7358 97.0338 14.8805 96.5191 15.1123C97.9743 13.871 98.5735 12.7154 98.5307 12.2874C98.5461 12.2538 98.5541 12.2173 98.5541 12.1804C98.5541 12.1435 98.5461 12.107 98.5307 12.0734C96.8347 12.372 95.2264 13.0446 93.8226 14.0422L89.7993 16.7815C84.996 20.3092 80.0098 23.5809 74.8617 26.583C74.4498 26.7301 74.015 26.8025 73.5776 26.797C72.3155 26.6838 71.1052 26.241 70.0679 25.513L69.2119 25.0422L69.6827 25.5558C70.8586 27.0225 71.698 28.7295 72.1418 30.5563C72.5855 32.383 72.6227 34.285 72.2508 36.1277C73.0212 36.5985 81.9239 40.8786 85.0912 42.1198C88.3753 43.2403 91.8092 43.8607 95.2778 43.9603C97.2467 43.9603 98.2739 43.6179 98.3167 42.8903C98.3167 41.1782 95.7487 40.5362 93.6942 40.0654C95.9627 40.0654 97.1611 39.6802 97.2467 38.8669C97.2921 38.7736 97.3157 38.6711 97.3157 38.5673C97.3157 38.4635 97.2921 38.3611 97.2467 38.2677C96.5191 37.3689 93.951 37.0265 92.3674 36.8981C93.6399 36.803 94.865 36.3749 95.9199 35.6569C95.9936 35.4787 95.9936 35.2786 95.9199 35.1004C95.9199 33.902 94.3362 33.8592 92.5814 33.8164C93.9938 33.4312 96.0483 32.7036 96.3907 31.976C96.4225 31.9015 96.4389 31.8215 96.4389 31.7405C96.4389 31.6596 96.4225 31.5795 96.3907 31.5051C96.1339 30.9915 95.2778 30.7347 93.737 30.7347C92.3043 30.7547 90.8745 30.8691 89.4569 31.0771C94.6358 29.0227 96.2195 26.583 96.3479 25.7698C96.4763 24.9566 96.3479 25.3846 96.3479 25.3418C96.2244 25.2918 96.0862 25.2918 95.9627 25.3418C95.2607 25.4352 94.5715 25.6075 93.9082 25.8554L93.1806 26.1122C94.8852 25.1382 96.3482 23.7922 97.4607 22.1745C97.4834 22.1278 97.4952 22.0766 97.4952 22.0247C97.4952 21.9728 97.4834 21.9215 97.4607 21.8749C97.373 21.7808 97.2671 21.7057 97.1493 21.6542C97.0315 21.6027 96.9045 21.5758 96.7759 21.5753C96.5207 21.5352 96.2607 21.5352 96.0055 21.5753C96.8187 20.8048 98.2311 19.2212 98.2311 18.6648C98.2475 18.5944 98.2475 18.5212 98.2311 18.4508C98.0927 18.4018 97.9416 18.4018 97.8031 18.4508C96.8284 18.602 95.8872 18.9206 95.021 19.3924C96.444 18.0286 97.6302 16.4375 98.5307 14.6843ZM93.5658 19.692C94.7624 19.1132 96.0521 18.7509 97.3751 18.622H97.6747C97.6747 19.1356 95.6203 21.4041 95.1066 21.8321L94.2506 22.5597L95.2351 22.0033C95.6156 21.7856 96.0393 21.6541 96.4763 21.6181C96.5734 21.6006 96.6735 21.6115 96.7646 21.6495C96.8557 21.6874 96.9339 21.7508 96.9899 21.8321C95.6808 23.6168 93.9831 25.0804 92.025 26.1122L91.3401 26.5402L92.1105 26.3262L93.6942 25.8126C94.3287 25.5667 94.9893 25.3944 95.6631 25.299C95.7454 25.2656 95.8375 25.2656 95.9199 25.299C95.9462 25.3679 95.9462 25.4441 95.9199 25.513C95.9199 26.2834 94.0366 28.9371 88.2156 31.0343V31.2483C89.9143 30.9625 91.6302 30.7909 93.3518 30.7347C95.1494 30.7347 95.6631 31.0771 95.7915 31.3767C95.8142 31.4234 95.826 31.4746 95.826 31.5265C95.826 31.5784 95.8142 31.6297 95.7915 31.6763C94.5349 32.6441 93.069 33.3038 91.5113 33.6024H90.7409H92.1534C93.8654 33.6024 95.3207 33.6024 95.4491 34.7152C95.4755 34.7684 95.4892 34.827 95.4892 34.8864C95.4892 34.9458 95.4755 35.0044 95.4491 35.0576C94.7642 35.9565 91.5541 36.3417 91.1689 36.3845V36.5985C93.1979 36.5154 95.2109 36.989 96.9899 37.9681C97.0495 38.1194 97.0495 38.2877 96.9899 38.4389C96.9899 39.0809 95.7487 39.4234 93.6514 39.4234H91.3829L92.3674 39.6374L93.2234 39.8514C95.1494 40.2366 98.0171 40.8786 97.9315 42.505C97.9315 43.0615 96.8615 43.3611 95.1066 43.3611C91.6662 43.2588 88.2609 42.6383 85.0056 41.5206C82.0095 40.3222 73.4492 36.2133 72.1652 35.5712C72.5087 33.8414 72.4921 32.0594 72.1165 30.3362C71.741 28.6131 71.0145 26.9858 69.9823 25.5558C70.9901 26.2345 72.1534 26.6468 73.3636 26.7542C73.8311 26.744 74.2938 26.6572 74.7333 26.4974C79.8985 23.5005 84.8991 20.2287 89.7137 16.6959L93.737 13.9138C95.1039 12.9437 96.6674 12.2862 98.3167 11.9878C98.3167 12.2446 97.6747 13.871 95.3206 15.4975C96.1207 14.9299 97.0455 14.5629 98.0171 14.4275H98.2311C97.0085 16.4509 95.4276 18.2349 93.5658 19.692Z" fill="#B25400"/>
<path d="M93.6513 16.7384C91.6396 18.1937 88.9432 20.2481 87.6591 21.0185C86.5607 21.7214 85.4169 22.3505 84.235 22.9018C85.491 22.494 86.686 21.9181 87.7875 21.1897C89.0716 20.4193 91.7681 18.3649 93.7797 16.9096C94.9781 15.968 95.9626 15.2404 96.305 15.0264C95.663 15.0692 94.8497 15.7968 93.6513 16.7384Z" fill="#B25400"/>
<path d="M82.5656 26.7113C80.8536 27.5673 79.3555 28.1665 79.3555 28.1665C80.4929 27.8643 81.5971 27.4485 82.6512 26.9253C85.2193 25.6413 93.4799 20.0771 94.0792 19.5635C90.3671 22.143 86.5241 24.5288 82.5656 26.7113Z" fill="#B25400"/>
<path d="M84.4919 27.7814H84.2351C82.8885 28.5047 81.4481 29.0377 79.955 29.3651C81.4633 29.1923 82.9201 28.7116 84.2351 27.9526H84.4919C88.3767 26.1389 92.1121 24.0207 95.663 21.618C92.0943 23.9418 88.3607 26.0017 84.4919 27.7814Z" fill="#B25400"/>
<path d="M91.3825 26.369C88.8933 27.9333 86.3215 29.3621 83.6783 30.6491C82.6972 31.1611 81.6164 31.4532 80.511 31.5051C81.6315 31.5608 82.7485 31.3404 83.7639 30.8631C86.4166 29.5943 88.9894 28.165 91.4681 26.583L92.6237 25.8982L91.3825 26.369Z" fill="#B25400"/>
<path d="M88.1302 31.1197C87.0602 31.505 84.9201 32.3182 83.6361 32.6178C82.7313 32.7923 81.8015 32.7923 80.8968 32.6178C81.7983 32.9276 82.7774 32.9276 83.6789 32.6178C85.0057 32.2754 87.1458 31.505 87.959 31.1197L88.601 30.8629V30.6489L88.1302 31.1197Z" fill="#B25400"/>
<path d="M82.8228 34.287C82.0481 34.3206 81.2788 34.1431 80.5971 33.7734C80.5971 33.7734 80.9395 34.3726 82.8228 34.501H83.8928C86.6067 34.4826 89.3137 34.2248 91.9822 33.7306V33.5166C88.9641 34.0906 85.8944 34.3488 82.8228 34.287Z" fill="#B25400"/>
<path d="M82.1805 35.7424C81.2894 35.6937 80.4297 35.3972 79.698 34.8864C79.698 34.8864 80.2116 35.6996 82.1805 35.9992C84.8485 36.3786 87.5342 36.6214 90.2271 36.7268H91.2543V36.5984C88.2102 36.5853 85.1734 36.2988 82.1805 35.7424Z" fill="#B25400"/>
<path d="M92.5813 39.6371C89.2945 39.2195 86.0357 38.6049 82.8226 37.7967L81.881 37.5826C80.9614 37.3818 80.08 37.035 79.2701 36.5554C80.004 37.1597 80.8686 37.5846 81.7954 37.7967L82.737 38.0107C86.0206 38.8371 89.3508 39.4659 92.7097 39.8939V39.6371H92.5813Z" fill="#B25400"/>
<path d="M74.8192 43.8316C74.8192 43.8316 77.858 43.8316 78.1576 43.4892C78.4573 43.1468 77.43 41.6488 74.4767 40.9211C77.858 41.2635 76.6168 39.6371 73.4923 38.6527C76.146 38.6527 74.5624 36.9834 71.9943 36.213C68.3905 40.7402 63.8872 44.4711 58.7687 47.1701C51.3136 50.4315 43.3158 52.2749 35.1852 52.6059C36.4693 53.5903 39.8078 53.9755 48.0256 54.9599C51.7427 55.8224 55.608 55.8224 59.3251 54.9599C58.8672 54.3718 58.2397 53.9385 57.5275 53.7187C60.6796 54.6838 64.0484 54.6838 67.2005 53.7187C67.2005 53.4191 66.5585 52.6487 65.1033 52.1351C67.604 52.4825 70.1486 52.3371 72.5935 51.707C72.9787 51.1078 72.0799 50.637 69.897 50.1234C72.7224 50.566 75.6155 50.1484 78.2004 48.925C78.4144 48.497 77.6012 47.3841 76.0176 47.2129C76.0176 47.2129 78.5857 47.2129 78.7997 46.2713C79.0137 45.3297 76.9592 44.3024 74.8192 43.8316Z" fill="url(#paint8_linear_78_173365)"/>
<path d="M72.4219 40.5362C75.8032 40.9214 75.418 39.4234 72.4219 38.4818C75.0756 38.4818 74.3052 37.3689 71.7371 36.5985C68.2595 40.9975 63.8815 44.602 58.8968 47.1704C52.9608 49.8984 46.5488 51.4396 40.0214 51.7073C42.4778 53.0335 45.1658 53.8762 47.9396 54.1898C56.1575 55.1314 58.1691 54.8318 58.1263 54.575C58.0835 54.3182 54.531 53.291 52.8618 52.863C54.6889 52.6266 56.5433 52.7135 58.3403 53.1198C60.5625 53.6573 62.8808 53.6573 65.1029 53.1198C65.1029 52.4777 60.8228 51.7929 58.9395 51.4933C60.9833 51.4032 63.0311 51.4891 65.0601 51.7501C67.6282 52.1353 70.4103 51.4933 70.3675 51.0653C67.9918 50.2859 65.5058 49.8957 63.0057 49.9097C65.4347 49.4746 67.9 49.2739 70.3675 49.3105C73.7916 49.5673 75.6748 48.9252 75.6748 48.4544C75.6748 47.9836 71.0095 46.9564 69.4258 46.614C69.4258 46.614 76.2312 46.614 76.3596 45.758C76.4881 44.9019 73.4492 44.2599 71.3519 43.6607C72.551 43.4259 73.7683 43.297 74.99 43.2755C76.1456 43.2755 76.8304 43.2755 76.9161 43.0187C77.0017 42.7619 75.3752 41.2638 72.4219 40.5362Z" fill="url(#paint9_linear_78_173365)"/>
<path d="M75.6322 43.9603H75.8891C77.9863 43.9603 78.2003 43.6178 78.2431 43.4894C78.2859 43.361 78.2431 43.2326 78.2431 42.933C77.9256 42.443 77.5112 42.0232 77.0254 41.6993C76.5396 41.3755 75.9927 41.1544 75.4182 41.0498C76.1459 41.0498 76.5311 40.8358 76.6167 40.5362C76.7023 40.2366 75.6322 39.2521 74.0914 38.6957C74.605 38.6957 74.9046 38.4389 74.9474 38.1821C74.9902 37.9253 73.749 36.5985 72.0369 36.0848C68.4098 40.5778 63.911 44.2904 58.8114 46.9991C51.3896 50.2645 43.4164 52.0944 35.3135 52.3921H34.8855H35.0995C36.4263 53.3765 39.3796 53.7617 47.9399 54.7462H48.2395C50.3974 55.0202 52.57 55.1632 54.7453 55.1742C57.9553 55.1742 59.6246 54.7462 59.6246 54.4894C59.6246 54.2325 59.2394 53.9329 58.6402 53.5477C60.0481 53.844 61.4816 54.0017 62.9203 54.0185C64.3847 54.1225 65.8526 53.873 67.2004 53.2909C67.2004 53.2909 67.2004 53.2909 67.2004 52.9913C66.8589 52.4806 66.3644 52.091 65.788 51.8785H67.6284C68.0992 51.8785 72.2081 51.8785 72.5934 51.2365C72.6346 51.1572 72.6562 51.0691 72.6562 50.9797C72.6562 50.8902 72.6346 50.8022 72.5934 50.7228C72.5934 50.4232 71.9941 50.1236 71.0097 49.824H71.6089C73.9667 50.1807 76.3774 49.8384 78.5427 48.8396C78.6179 48.6322 78.6179 48.405 78.5427 48.1976C78.199 47.6621 77.6627 47.279 77.0447 47.1275C77.8151 47.1275 79.0563 46.7423 79.2703 46.1859C79.3127 46.061 79.3127 45.9256 79.2703 45.8007C78.5427 45.0731 76.7879 44.3027 75.6322 43.9603ZM76.1031 46.9991H74.9902H76.0602C76.4636 47.0217 76.8569 47.1331 77.2121 47.3255C77.5673 47.5179 77.8755 47.7865 78.1147 48.112C78.1674 48.2498 78.1674 48.4022 78.1147 48.54C76.1305 49.4936 73.9344 49.921 71.7373 49.7812C71.1247 49.8269 70.5095 49.8269 69.8969 49.7812V49.9952C70.9669 50.252 72.3794 50.6372 72.5934 51.0653C72.6325 51.176 72.6325 51.2969 72.5934 51.4077C71.0586 51.8882 69.4444 52.0627 67.8424 51.9213C66.9731 51.9803 66.1008 51.9803 65.2315 51.9213C66.0315 52.1012 66.7432 52.5555 67.2432 53.2053C65.8814 53.7328 64.4197 53.9521 62.9631 53.8473C61.1858 53.8516 59.4156 53.6214 57.6985 53.1625V53.3765C58.339 53.627 58.9216 54.0057 59.4106 54.4894C57.8971 54.9303 56.3184 55.1041 54.7453 55.003C52.585 54.9717 50.4278 54.8289 48.2823 54.575H47.9827C43.845 54.5417 39.7295 53.9661 35.7415 52.8629C43.7692 52.5185 51.6637 50.69 59.0254 47.47C64.1289 44.7487 68.628 41.0213 72.2509 36.5129C73.8774 37.0265 75.033 37.8825 74.9474 38.3533C74.8618 38.8241 74.4766 38.7385 73.7918 38.7385H72.893L73.6634 38.9953C75.6322 39.5945 76.6595 40.4078 76.5739 40.7502C76.4883 41.0926 76.1887 41.0498 75.5466 41.0498H74.6906V41.2638C76.9591 41.8202 78.0291 42.719 78.2859 43.3182C78.316 43.378 78.3317 43.444 78.3317 43.5108C78.3317 43.5777 78.316 43.6437 78.2859 43.7035C78.2859 43.7035 77.9435 44.0031 76.1031 44.0031H74.1342L75.033 44.2599C76.4905 44.5492 77.8476 45.213 78.9707 46.1859C78.9872 46.2563 78.9872 46.3295 78.9707 46.3999C78.5427 46.5711 77.0447 46.9135 76.1031 46.9991Z" fill="#B25400"/>
<path d="M57.7409 53.7616V53.5476C56.4216 53.1524 55.052 52.9506 53.6748 52.9484C55.0593 53.0453 56.4257 53.3186 57.7409 53.7616Z" fill="#B25400"/>
<path d="M65.3599 52.2209V52.0069C63.6891 51.6264 61.9801 51.4397 60.2665 51.4505C61.9866 51.5281 63.6938 51.7864 65.3599 52.2209Z" fill="#B25400"/>
<path d="M64.4606 49.7382C66.368 49.6761 68.2765 49.8196 70.1531 50.1662V49.9522C68.2716 49.6477 66.3597 49.5758 64.4606 49.7382Z" fill="#B25400"/>
<path d="M76.3596 47.2557V47.0417C74.7254 46.8536 73.0823 46.7536 71.4374 46.7421C71.4374 46.7421 74.8615 46.9989 76.3596 47.2557Z" fill="#B25400"/>
<path d="M72.7211 43.6174C73.531 43.6898 74.333 43.833 75.1179 44.0455V43.8314C74.3361 43.6291 73.5264 43.5568 72.7211 43.6174Z" fill="#B25400"/>
<path d="M74.9471 41.1778V40.921C74.3843 40.7965 73.8112 40.7248 73.235 40.707L74.9471 41.1778Z" fill="#B25400"/>
<path d="M65.7022 21.7462C59.443 17.2957 52.233 14.3649 44.644 13.1859C41.1537 12.9299 37.6448 13.2187 34.2433 14.042C32.3501 19.2888 31.0438 24.7292 30.3484 30.2636C30.4611 37.9536 31.7752 45.5786 34.2433 52.8627C40.6937 53.2655 47.1654 52.5561 53.3754 50.7654C59.924 48.7537 70.7955 42.7616 73.1924 36.9834C75.5892 31.2052 74.2624 27.4387 65.7022 21.7462Z" fill="url(#paint10_radial_78_173365)"/>
<path d="M65.7019 22.3026C59.4427 17.8522 52.2327 14.9213 44.6437 13.7424C41.1513 13.5133 37.6443 13.8164 34.243 14.6412C32.3471 19.8725 31.0407 25.2991 30.3481 30.8201C30.0753 36.5216 30.8589 42.2243 32.6593 47.6409C37.8585 47.4269 43.0152 46.6082 48.025 45.2013C56.5852 43.2324 75.7601 36.641 73.3205 29.3648C71.3902 26.4287 68.7757 24.0051 65.7019 22.3026Z" fill="url(#paint11_radial_78_173365)"/>
<path d="M65.7018 21.6179C59.4449 17.1633 52.2339 14.232 44.6436 13.0577C43.8595 13.0145 43.0736 13.0145 42.2895 13.0577C39.5494 13.0633 36.8196 13.3937 34.1573 14.0421C32.2431 19.2853 30.9223 24.7264 30.2196 30.2637C30.3322 37.9852 31.6611 45.6407 34.1573 52.9484C35.269 53.0191 36.3841 53.0191 37.4958 52.9484C42.853 52.9129 48.1805 52.1497 53.3323 50.6799C57.3705 49.342 61.2243 47.5014 64.803 45.2014C68.4064 43.2121 71.3739 40.2445 73.3632 36.6411C73.9825 35.4626 74.3413 34.1648 74.4151 32.8356C74.489 31.5063 74.2762 30.1767 73.7912 28.9369C71.7971 25.8183 69.0038 23.291 65.7018 21.6179ZM73.0636 36.9835C70.7095 42.6761 59.8808 48.7111 53.2894 50.6799C48.1674 52.152 42.8679 52.9152 37.5386 52.9484C36.3402 52.9484 35.2273 52.9484 34.2857 52.9484C31.8047 45.6985 30.5041 38.0973 30.4336 30.4349C31.1127 24.9296 32.4048 19.5173 34.2857 14.2989C36.9143 13.7112 39.5964 13.3957 42.2895 13.3573H44.6008C52.1647 14.5321 59.3477 17.464 65.5734 21.9175C74.7329 27.7385 75.2465 31.719 73.1064 36.9835H73.0636Z" fill="#AA5100"/>
<path d="M20.8466 33.9446C22.525 33.9446 23.8855 32.5649 23.8855 30.8629C23.8855 29.161 22.525 27.7812 20.8466 27.7812C19.1683 27.7812 17.8077 29.161 17.8077 30.8629C17.8077 32.5649 19.1683 33.9446 20.8466 33.9446Z" fill="url(#paint12_radial_78_173365)"/>
<path d="M20.6755 28.4234C20.1235 28.4235 19.5839 28.5878 19.1256 28.8954C18.6672 29.2031 18.3107 29.6401 18.1014 30.151C17.8922 30.6618 17.8396 31.2234 17.9505 31.7642C18.0613 32.305 18.3306 32.8006 18.724 33.1879C19.1173 33.5752 19.617 33.8368 20.1595 33.9392C20.702 34.0417 21.2626 33.9805 21.7702 33.7633C22.2777 33.5462 22.7092 33.1829 23.0097 32.7198C23.3102 32.2567 23.4661 31.7147 23.4576 31.1627C23.4577 30.7993 23.3854 30.4396 23.2451 30.1044C23.1048 29.7693 22.8991 29.4654 22.6402 29.2104C22.3813 28.9555 22.0743 28.7546 21.737 28.6195C21.3997 28.4844 21.0389 28.4178 20.6755 28.4234Z" fill="url(#paint13_radial_78_173365)"/>
<path d="M20.6754 28.2949C20.2988 28.2949 19.9259 28.3691 19.578 28.5132C19.2301 28.6573 18.9139 28.8685 18.6477 29.1348C18.3814 29.4011 18.1701 29.7172 18.026 30.0651C17.8819 30.4131 17.8077 30.786 17.8077 31.1626C17.8077 31.9231 18.1099 32.6525 18.6477 33.1903C19.1854 33.7281 19.9149 34.0302 20.6754 34.0302C21.436 34.0302 22.1654 33.7281 22.7032 33.1903C23.241 32.6525 23.5431 31.9231 23.5431 31.1626C23.5489 30.7844 23.4786 30.4089 23.3366 30.0584C23.1945 29.7078 22.9835 29.3894 22.716 29.1219C22.4486 28.8545 22.1301 28.6435 21.7796 28.5014C21.4291 28.3593 21.0536 28.2891 20.6754 28.2949ZM20.6754 33.8162C20.1506 33.8162 19.6375 33.6606 19.2011 33.369C18.7647 33.0774 18.4246 32.663 18.2237 32.1781C18.0229 31.6932 17.9703 31.1596 18.0727 30.6449C18.1751 30.1301 18.4279 29.6573 18.799 29.2861C19.1701 28.915 19.6429 28.6623 20.1577 28.5599C20.6725 28.4575 21.206 28.51 21.6909 28.7109C22.1758 28.9117 22.5903 29.2519 22.8819 29.6883C23.1734 30.1247 23.3291 30.6377 23.3291 31.1626C23.3291 31.8664 23.0495 32.5413 22.5519 33.039C22.0542 33.5367 21.3792 33.8162 20.6754 33.8162Z" fill="black"/>
<g style="mix-blend-mode:screen" opacity="0.2">
<path d="M69.3404 29.2366C64.6322 25.9409 39.3795 29.2366 35.0994 31.3338C30.8193 33.4311 34.543 45.501 35.9126 46.6566C37.2823 47.8123 47.5974 45.501 58.8113 41.3065C70.0252 37.112 74.2625 32.5323 69.3404 29.2366Z" fill="url(#paint14_radial_78_173365)" style="mix-blend-mode:screen"/>
<path d="M69.3404 29.2366C64.6322 25.9409 39.3795 29.2366 35.0994 31.3338C30.8193 33.4311 34.543 45.501 35.9126 46.6566C37.2823 47.8123 47.5974 45.501 58.8113 41.3065C70.0252 37.112 74.2625 32.5323 69.3404 29.2366Z" stroke="black" stroke-width="3.375" stroke-miterlimit="10"/>
</g>
<path style="mix-blend-mode:screen" opacity="0.31" d="M43.2314 20.6335C27.1382 21.2755 30.9047 40.4076 30.9047 40.4076C30.9047 44.6877 34.0292 49.6955 45.1575 47.0846C56.2858 44.4737 70.5814 38.2248 72.0366 32.7462C73.4919 27.2677 64.0756 19.8202 43.2314 20.6335Z" fill="url(#paint15_radial_78_173365)"/>
<path d="M42.5036 23.8865C41.6048 23.5013 38.7799 25.0849 36.7682 27.653C35.3021 29.9674 34.2856 32.5376 33.7722 35.2288C33.8989 35.9282 34.085 36.6155 34.3286 37.2832C36.7254 37.6685 43.5308 37.7541 44.6865 36.1276C45.827 33.8681 46.1881 31.2948 45.7137 28.8086C45.2254 26.8546 44.0949 25.1212 42.5036 23.8865Z" fill="url(#paint16_radial_78_173365)"/>
<path d="M42.5036 23.8865C41.6048 23.5013 38.7799 25.0849 36.7682 27.653C35.3021 29.9674 34.2856 32.5376 33.7722 35.2288C33.8989 35.9282 34.085 36.6155 34.3286 37.2832C37.7333 37.409 41.0762 36.3502 43.7876 34.2872C44.3777 33.5165 44.8005 32.6312 45.029 31.6878C45.2575 30.7445 45.2866 29.7638 45.1145 28.8086C44.8149 27.1822 43.6592 24.3573 42.5036 23.8865Z" fill="url(#paint17_radial_78_173365)"/>
<path d="M42.5465 23.7581H42.2041C39.9601 24.336 37.9998 25.7037 36.6827 27.6102C35.2268 29.9453 34.2113 32.5275 33.6866 35.2288C33.7824 35.9486 33.9694 36.6534 34.2431 37.326C35.4642 37.4757 36.6937 37.5472 37.924 37.54C39.636 37.54 43.7449 37.54 44.6866 36.0848C45.848 33.8169 46.2243 31.2277 45.7566 28.723C45.2648 26.7587 44.1359 25.0127 42.5465 23.7581ZM44.6009 36.042C44.0017 36.898 41.5193 37.4116 38.0096 37.4116C36.8078 37.4177 35.6068 37.3462 34.4143 37.1976C34.1705 36.5625 33.9982 35.9021 33.9006 35.2288C34.408 32.5559 35.4096 30.0012 36.8539 27.6958C38.1405 25.8517 40.0342 24.5186 42.2041 23.9293H42.4609C44.0211 25.1662 45.1336 26.8799 45.6282 28.8086C46.0995 31.2669 45.738 33.8121 44.6009 36.042Z" fill="#B25400"/>
<path d="M36.7689 30.392C35.7695 32.1161 34.883 33.9032 34.1152 35.7421H34.3292C35.0769 33.9705 35.9494 32.2541 36.9401 30.606C37.7501 29.5173 38.6837 28.5263 39.7221 27.6527C38.5947 28.3983 37.597 29.3237 36.7689 30.392Z" fill="#B25400"/>
<path d="M34.6713 37.1545C36.3182 36.9178 37.948 36.5747 39.5506 36.1272C40.6531 35.7211 41.6695 35.1113 42.5467 34.3296C41.6164 35.0138 40.5931 35.5615 39.5078 35.956C37.9244 36.4637 36.3085 36.8641 34.6713 37.1545Z" fill="#B25400"/>
<path d="M34.9282 36.6842C36.6581 36.2309 38.359 35.6735 40.0216 35.0149C41.0949 34.3856 42.0507 33.5746 42.8464 32.618C41.963 33.4669 40.9866 34.2135 39.936 34.8437C38.3048 35.5562 36.6326 36.1708 34.9282 36.6842Z" fill="#B25400"/>
<path d="M33.9009 36.9834C35.0268 35.1768 36.363 33.5102 37.8815 32.0184C38.8821 31.0741 39.9714 30.2284 41.1343 29.4932C39.9027 30.1377 38.7531 30.9281 37.7102 31.8472C36.2546 33.4133 34.977 35.1358 33.9009 36.9834Z" fill="#B25400"/>
<path d="M33.473 37.3688C34.9189 35.7479 36.644 34.3997 38.5664 33.3883C39.7025 32.7498 40.9293 32.2879 42.2045 32.0187C40.8974 32.146 39.6302 32.5392 38.4808 33.1743C36.5789 34.2686 34.8839 35.6884 33.473 37.3688Z" fill="#B25400"/>
<path d="M32.9163 33.6023C32.7926 34.6258 32.7926 35.6605 32.9163 36.684C33.2919 37.5335 33.8641 38.2817 34.5855 38.8668C34.8667 37.8588 34.8667 36.7931 34.5855 35.7852C34.1833 34.9516 33.6153 34.2088 32.9163 33.6023Z" fill="url(#paint18_radial_78_173365)"/>
<path d="M32.9164 33.6023C33.6652 34.1989 34.2658 34.9606 34.6712 35.828C34.965 36.8196 34.965 37.8752 34.6712 38.8668C34.9986 37.8511 34.9986 36.7581 34.6712 35.7424C34.5856 34.7579 32.9164 33.6023 32.9164 33.6023Z" fill="#B25400"/>
<path d="M20.376 29.6219C19.9621 29.6853 19.5901 29.91 19.3415 30.2469C19.0928 30.5838 18.9877 31.0054 19.0491 31.4196C19.0711 31.8473 19.2566 32.2502 19.5673 32.545C19.878 32.8397 20.2901 33.0038 20.7184 33.0032C21.126 32.9108 21.4856 32.6724 21.7296 32.3331C21.9736 31.9938 22.0851 31.5769 22.043 31.1611C22.0009 30.7453 21.8081 30.3593 21.501 30.0757C21.194 29.7922 20.7938 29.6308 20.376 29.6219Z" fill="url(#paint19_radial_78_173365)"/>
<g style="mix-blend-mode:screen">
<path d="M20.6753 30.0069C20.2473 30.0069 19.9049 30.3493 19.9477 30.5205C19.9905 30.6917 20.3757 30.8629 20.8037 30.7773C21.2317 30.6917 21.5742 30.4777 21.5314 30.2637C21.4886 30.0497 21.1033 29.9213 20.6753 30.0069Z" fill="url(#paint20_linear_78_173365)"/>
</g>
<path d="M20.2902 30.5206C20.153 30.568 20.027 30.6429 19.9196 30.7406C19.8123 30.8383 19.726 30.9568 19.666 31.089C19.6059 31.2211 19.5734 31.364 19.5703 31.5091C19.5672 31.6542 19.5937 31.7984 19.6482 31.933C19.7191 32.2088 19.8894 32.4488 20.1263 32.6067C20.3633 32.7647 20.6503 32.8296 20.9322 32.789C21.202 32.6835 21.42 32.4769 21.5399 32.2131C21.6598 31.9494 21.6721 31.6493 21.5742 31.3766C21.5488 31.2347 21.4949 31.0995 21.416 30.9789C21.337 30.8584 21.2344 30.755 21.1145 30.6751C20.9946 30.5951 20.8598 30.5402 20.7181 30.5137C20.5764 30.4871 20.4309 30.4895 20.2902 30.5206Z" fill="black"/>
<g style="mix-blend-mode:screen" opacity="0.5">
<path d="M21.1458 31.4623C21.0891 31.4705 21.0359 31.4948 20.9926 31.5322C20.9493 31.5697 20.9176 31.6189 20.9014 31.6738C20.8851 31.7287 20.8849 31.7872 20.9009 31.8422C20.9168 31.8973 20.9482 31.9466 20.9914 31.9843C21.0345 32.022 21.0875 32.0466 21.1442 32.0551C21.2008 32.0636 21.2587 32.0557 21.311 32.0323C21.3633 32.0089 21.4078 31.971 21.4392 31.923C21.4706 31.8751 21.4876 31.8192 21.4882 31.7619C21.4777 31.6787 21.4371 31.6022 21.374 31.547C21.3109 31.4918 21.2297 31.4616 21.1458 31.4623Z" fill="url(#paint21_radial_78_173365)"/>
</g>
<path d="M66.8149 41.1353C67.012 41.3127 67.2458 41.4442 67.4997 41.5205C68.6981 41.8202 70.025 40.7073 70.453 39.0381C70.5124 38.6552 70.5124 38.2654 70.453 37.8824C69.3217 39.0545 68.1057 40.1417 66.8149 41.1353Z" fill="#161616"/>
<path d="M69.9821 35.7424C69.8015 35.5432 69.5612 35.408 69.2973 35.3572C68.0988 35.0148 66.772 36.1276 66.3012 37.8397C66.2183 38.3786 66.2183 38.9271 66.3012 39.4661C66.3408 39.7633 66.4275 40.0522 66.558 40.3221C66.6784 40.6094 66.8528 40.8709 67.0716 41.0925C68.4214 40.1057 69.6948 39.0183 70.8809 37.8397C70.8883 37.3064 70.7711 36.7787 70.5385 36.2988C70.3933 36.077 70.2039 35.8876 69.9821 35.7424Z" fill="#1E1E1E"/>
<path style="mix-blend-mode:screen" opacity="0.49" d="M31.9751 33.6023C33.3019 34.0731 34.6716 37.8824 34.3292 39.0809C34.5923 38.5746 34.7396 38.0161 34.7606 37.4459C34.7815 36.8757 34.6755 36.308 34.4503 35.7838C34.225 35.2595 33.8861 34.7919 33.4581 34.4146C33.03 34.0374 32.5235 33.7599 31.9751 33.6023Z" fill="url(#paint22_linear_78_173365)"/>
<path style="mix-blend-mode:screen" opacity="0.75" d="M35.3989 13.0147C35.3989 13.0147 36.6401 13.4427 37.4961 12.7579C40.1625 9.83255 42.6631 6.76034 44.9863 3.55566C41.0788 5.89495 37.7906 9.13907 35.3989 13.0147Z" fill="url(#paint23_linear_78_173365)"/>
<path style="mix-blend-mode:screen" opacity="0.49" d="M35.9554 12.6298C35.6558 13.0578 36.8114 12.6298 37.3679 12.1162C37.9243 11.6026 41.648 6.20961 43.5312 4.49756C40.7584 6.96668 38.2222 9.68923 35.9554 12.6298Z" fill="url(#paint24_linear_78_173365)"/>
<path style="mix-blend-mode:screen" opacity="0.75" d="M39.5074 12.0302C39.5074 12.287 41.3907 12.6722 42.3751 12.0302C45.3881 9.08514 48.2454 5.98498 50.9354 2.74231C46.4846 4.95269 42.581 8.12522 39.5074 12.0302Z" fill="url(#paint25_linear_78_173365)"/>
<path style="mix-blend-mode:screen" opacity="0.49" d="M40.7063 11.2171C40.321 11.6451 41.4767 11.6023 42.1615 10.8747C42.8463 10.1471 47.5116 5.18211 49.5233 3.55566C46.3526 5.82996 43.4008 8.39486 40.7063 11.2171Z" fill="url(#paint26_linear_78_173365)"/>
<path style="mix-blend-mode:screen" opacity="0.75" d="M44.0018 12.1161C44.0018 12.3729 45.5427 13.0578 46.4415 12.4585C49.1312 9.60188 51.6468 6.5861 53.9745 3.42749C50.0141 5.50042 46.5977 8.47699 44.0018 12.1161Z" fill="url(#paint27_linear_78_173365)"/>
<path style="mix-blend-mode:screen" opacity="0.49" d="M44.5586 11.8166C44.259 12.2018 45.3718 12.0734 45.971 11.3886C46.5703 10.7037 50.6792 5.86721 52.4768 4.28357C49.5928 6.52416 46.9401 9.04773 44.5586 11.8166Z" fill="url(#paint28_linear_78_173365)"/>
<path style="mix-blend-mode:screen" opacity="0.75" d="M48.0677 12.4155C48.4558 12.7356 48.9235 12.9445 49.421 13.0199C49.9184 13.0952 50.427 13.0343 50.8926 12.8435C53.6517 9.89938 56.2383 6.79826 58.6396 3.55566C54.4683 5.63714 50.8465 8.67249 48.0677 12.4155Z" fill="url(#paint29_linear_78_173365)"/>
<path style="mix-blend-mode:screen" opacity="0.49" d="M48.5819 12.1161C48.2395 12.5013 49.3523 12.4157 49.9943 11.7309C50.6363 11.046 55.0877 6.03831 57.0137 4.41187C53.9439 6.68107 51.1182 9.26299 48.5819 12.1161Z" fill="url(#paint30_linear_78_173365)"/>
<path style="mix-blend-mode:screen" opacity="0.51" d="M52.5621 13.6569C52.5621 13.8709 53.8033 14.0421 54.6593 13.3573C57.2394 10.576 59.6547 7.64623 61.8927 4.58301C58.1088 6.82733 54.9111 9.93704 52.5621 13.6569Z" fill="url(#paint31_linear_78_173365)"/>
<path style="mix-blend-mode:screen" opacity="0.49" d="M53.1183 13.3144C52.8187 13.6996 53.9315 13.3143 54.488 12.8007C55.0444 12.2871 58.7681 7.15098 60.4801 5.52454C57.7627 7.85887 55.2955 10.4695 53.1183 13.3144Z" fill="url(#paint32_linear_78_173365)"/>
<path style="mix-blend-mode:screen" opacity="0.51" d="M55.644 15.2405C55.644 15.4545 56.8852 15.5829 57.6984 14.9409C60.2396 12.2354 62.6124 9.37666 64.8034 6.38062C61.0972 8.57407 57.9594 11.6092 55.644 15.2405Z" fill="url(#paint33_linear_78_173365)"/>
<path style="mix-blend-mode:screen" opacity="0.49" d="M56.2002 14.8982C55.9006 15.2834 57.0134 14.8982 57.5699 14.3846C58.1263 13.871 61.85 8.94888 63.3908 7.36523C60.7449 9.62613 58.3357 12.1501 56.2002 14.8982Z" fill="url(#paint34_linear_78_173365)"/>
<path style="mix-blend-mode:screen" opacity="0.51" d="M58.7259 17.0811C58.7259 17.2951 59.9243 17.5091 60.7803 16.8243C63.4347 14.1373 65.9083 11.2777 68.185 8.26404C64.3813 10.4167 61.1402 13.4378 58.7259 17.0811Z" fill="url(#paint35_linear_78_173365)"/>
<path style="mix-blend-mode:screen" opacity="0.49" d="M59.2821 16.7388C58.9825 17.1668 60.0954 16.9528 60.6518 16.268C61.2082 15.5832 64.9319 10.7038 66.7723 9.07739C64.0247 11.3733 61.5153 13.94 59.2821 16.7388Z" fill="url(#paint36_linear_78_173365)"/>
<path style="mix-blend-mode:screen" opacity="0.51" d="M62.0208 19.0072C62.0208 19.2212 63.2192 19.4352 64.0753 18.7504C66.7219 16.0441 69.2086 13.1859 71.5227 10.1902C67.6986 12.3307 64.4409 15.3536 62.0208 19.0072Z" fill="url(#paint37_linear_78_173365)"/>
<path style="mix-blend-mode:screen" opacity="0.49" d="M62.5777 18.6219C62.2781 19.0071 63.3909 18.6219 63.9473 18.1511C64.5037 17.6802 68.2274 12.5869 70.0679 10.9604C67.3203 13.2563 64.8109 15.8231 62.5777 18.6219Z" fill="url(#paint38_linear_78_173365)"/>
<path style="mix-blend-mode:screen" opacity="0.51" d="M65.317 20.4624C65.317 20.6764 66.5154 20.8476 67.3714 20.2056C70.0171 17.4984 72.5037 14.6402 74.8188 11.6454C70.9878 13.7764 67.7281 16.8012 65.317 20.4624Z" fill="url(#paint39_linear_78_173365)"/>
<path style="mix-blend-mode:screen" opacity="0.49" d="M65.7023 20.1198C65.4027 20.505 66.5155 20.1198 67.0719 19.6062C67.6284 19.0926 71.3521 14.0848 73.1925 12.4584C70.4355 14.7441 67.9251 17.3118 65.7023 20.1198Z" fill="url(#paint40_linear_78_173365)"/>
<path style="mix-blend-mode:screen" opacity="0.51" d="M67.9276 21.7892C67.9276 21.7892 68.9548 22.1316 69.6397 21.5324C71.8232 19.2493 73.8808 16.8489 75.803 14.3418C72.6276 16.1689 69.9291 18.7207 67.9276 21.7892Z" fill="url(#paint41_linear_78_173365)"/>
<path style="mix-blend-mode:screen" opacity="0.49" d="M68.3561 21.4896C68.3561 21.832 69.0838 21.4896 69.5118 21.0616C69.9398 20.6336 73.1499 16.3106 74.5623 14.8982C72.296 16.9005 70.2185 19.1069 68.3561 21.4896Z" fill="url(#paint42_linear_78_173365)"/>
<path style="mix-blend-mode:screen" opacity="0.51" d="M69.3828 24.1432C69.3828 24.1432 70.4528 24.4856 71.1377 23.8864C73.3134 21.5335 75.3568 19.0615 77.2582 16.4818C74.0685 18.3825 71.3707 21.007 69.3828 24.1432Z" fill="url(#paint43_linear_78_173365)"/>
<path style="mix-blend-mode:screen" opacity="0.49" d="M69.9822 23.8436C69.7254 24.186 70.7099 23.8436 71.1379 23.4156C71.5659 22.9876 74.776 18.6646 76.1884 17.2522C73.9008 19.2325 71.8213 21.441 69.9822 23.8436Z" fill="url(#paint44_linear_78_173365)"/>
<path style="mix-blend-mode:screen" opacity="0.29" d="M63.4765 46.8707C62.3636 46.8707 59.924 48.0263 60.3092 48.5827C62.4255 49.1671 64.6365 49.3271 66.815 49.0535C69.5614 49.0692 72.3061 48.9119 75.0328 48.5827C71.3634 47.1318 67.409 46.546 63.4765 46.8707Z" fill="url(#paint45_linear_78_173365)"/>
<path style="mix-blend-mode:screen" opacity="0.29" d="M67.8426 43.9172C66.9437 44.1312 64.7609 45.3297 65.0177 45.8861C66.6754 46.3485 68.4152 46.4362 70.111 46.1429C71.9426 46.1145 73.7654 45.8848 75.5468 45.4581C73.21 44.1325 70.5094 43.5924 67.8426 43.9172Z" fill="url(#paint46_linear_78_173365)"/>
<path style="mix-blend-mode:screen" opacity="0.29" d="M70.496 41.4777C69.8968 41.4777 68.6555 42.7618 68.8267 43.147C68.9979 43.5322 71.0524 43.147 72.2508 43.147C73.5603 43.1037 74.8636 42.9462 76.1457 42.6762C74.4388 41.6836 72.4589 41.2636 70.496 41.4777Z" fill="url(#paint47_linear_78_173365)"/>
<path style="mix-blend-mode:screen" opacity="0.29" d="M51.3205 51.964C53.4579 52.4571 55.6352 52.7579 57.8263 52.8628C59.8017 52.9667 61.7826 52.8519 63.7328 52.5204C60.9905 51.4582 58.1056 50.8091 55.1726 50.5944C54.231 50.6372 51.1065 51.6644 51.3205 51.964Z" fill="url(#paint48_linear_78_173365)"/>
<path style="mix-blend-mode:screen" opacity="0.29" d="M48.5815 52.2207C47.8538 52.2207 45.2001 52.6487 45.4142 52.9483C47.1092 53.5606 48.8809 53.9351 50.6787 54.0612C52.4886 54.1814 54.3045 54.1814 56.1145 54.0612C53.7658 52.9108 51.1959 52.2829 48.5815 52.2207Z" fill="url(#paint49_linear_78_173365)"/>
<path style="mix-blend-mode:screen" opacity="0.29" d="M58.3833 49.1819C57.7412 49.1819 55.7724 50.0807 55.9008 50.4231C57.3013 50.7603 58.7413 50.9043 60.1809 50.8511C61.6056 50.9574 63.0363 50.9574 64.461 50.8511C62.6052 49.7984 60.5164 49.2247 58.3833 49.1819Z" fill="url(#paint50_linear_78_173365)"/>
<path style="mix-blend-mode:screen" opacity="0.59" d="M19.8618 25.1702C27.994 28.7655 69.2971 34.9289 71.2232 26.1547C71.266 26.1547 40.3207 -1.62332 19.8618 25.1702Z" fill="url(#paint51_linear_78_173365)"/>
<path style="mix-blend-mode:screen" opacity="0.25" d="M19.006 34.1589C22.9009 37.2834 23.6713 34.1589 24.2705 32.832C22.9009 35.7425 19.006 34.1589 19.006 34.1589Z" fill="url(#paint52_linear_78_173365)"/>
<path style="mix-blend-mode:screen" opacity="0.4" d="M41.9477 24.5286C35.1851 25.8126 34.5431 35.1005 34.5431 35.1005C34.5431 35.1005 43.1033 30.8204 44.6442 30.478C46.185 30.1356 44.3018 24.229 41.9477 24.5286Z" fill="url(#paint53_linear_78_173365)"/>
<path style="mix-blend-mode:screen" opacity="0.49" d="M35.1852 32.8319C35.7632 31.202 36.7146 29.73 37.9631 28.5334C39.2117 27.3369 40.7229 26.449 42.3758 25.9409C38.6949 24.7853 36.5121 28.6802 35.1852 32.8319Z" fill="url(#paint54_linear_78_173365)"/>
<path style="mix-blend-mode:screen" opacity="0.49" d="M36.1265 33.2599C38.1155 30.9773 40.5284 29.1023 43.2315 27.7385C41.6198 27.8046 40.0689 28.3721 38.7952 29.3619C37.5215 30.3517 36.5885 31.7144 36.1265 33.2599Z" fill="url(#paint55_linear_78_173365)"/>
<path style="mix-blend-mode:screen" opacity="0.49" d="M84.2778 22.6023C85.4334 21.6607 92.838 15.2833 96.3049 13.3145C91.2046 16.0022 86.3991 19.2155 81.9665 22.9019C81.3673 23.4155 83.165 23.5011 84.2778 22.6023Z" fill="url(#paint56_linear_78_173365)"/>
<path style="mix-blend-mode:screen" opacity="0.49" d="M82.8226 25.5557C87.0805 23.3901 91.0137 20.6383 94.5073 17.3806C92.5813 17.8086 87.2739 22.0888 81.667 24.828C80.8966 25.1704 81.667 26.1549 82.8226 25.5557Z" fill="url(#paint57_linear_78_173365)"/>
<path style="mix-blend-mode:screen" opacity="0.49" d="M81.3247 27.8239C80.6826 28.2519 80.8538 28.7227 82.1379 28.2947C86.6123 25.9841 90.9047 23.3371 94.9782 20.3765C90.2308 22.481 85.6643 24.9718 81.3247 27.8239Z" fill="url(#paint58_linear_78_173365)"/>
<path style="mix-blend-mode:screen" opacity="0.49" d="M82.5227 30.5207C86.2721 28.7172 89.8286 26.5374 93.1373 24.0149C92.8805 23.7581 83.5071 28.8514 80.8962 29.8358C80.3826 30.0498 81.581 30.8631 82.5227 30.5207Z" fill="url(#paint59_linear_78_173365)"/>
<path style="mix-blend-mode:screen" opacity="0.49" d="M82.8227 32.2325C86.6582 30.852 90.265 28.9043 93.523 26.4544C93.309 26.1548 85.348 30.7345 82.3519 31.4621C81.8811 31.4621 81.9239 32.4893 82.8227 32.2325Z" fill="url(#paint60_linear_78_173365)"/>
<path style="mix-blend-mode:screen" opacity="0.49" d="M69.9823 42.7618C70.6243 42.7618 75.5464 42.7618 75.3324 42.7618C73.9693 42.2248 72.5174 41.9489 71.0523 41.9486C70.6671 41.9058 69.4259 42.7618 69.9823 42.7618Z" fill="url(#paint61_linear_78_173365)"/>
<path style="mix-blend-mode:screen" opacity="0.49" d="M66.0446 45.5008C66.6438 45.5008 74.0912 45.5008 73.92 45.5008C71.59 44.9666 69.2053 44.708 66.815 44.7304C66.4726 44.6448 65.4454 45.5008 66.0446 45.5008Z" fill="url(#paint62_linear_78_173365)"/>
<path style="mix-blend-mode:screen" opacity="0.49" d="M61.165 48.3259C64.9618 48.7624 68.7961 48.7624 72.593 48.3259C68.9549 48.1119 62.4919 47.5127 62.2351 47.5127C61.9782 47.5127 60.5658 48.3259 61.165 48.3259Z" fill="url(#paint63_linear_78_173365)"/>
<path style="mix-blend-mode:screen" opacity="0.49" d="M56.7568 50.1662C59.7047 50.6075 62.679 50.8506 65.6594 50.8938C64.8462 50.3374 59.6245 50.0806 57.8268 49.3101C57.6128 49.2245 56.3288 50.0378 56.7568 50.1662Z" fill="url(#paint64_linear_78_173365)"/>
<path style="mix-blend-mode:screen" opacity="0.49" d="M52.4765 51.4504C55.9045 52.1172 59.3853 52.4753 62.8772 52.5204C62.1068 51.964 56.4143 51.75 54.103 50.894C53.889 50.8084 52.0485 51.322 52.4765 51.4504Z" fill="url(#paint65_linear_78_173365)"/>
<path style="mix-blend-mode:screen" opacity="0.49" d="M45.8855 52.8626C48.9595 53.654 52.1286 54.0141 55.3018 53.9326C52.6907 53.247 50.0283 52.7747 47.3407 52.5201C47.0839 52.5201 45.5003 52.5629 45.8855 52.8626Z" fill="url(#paint66_linear_78_173365)"/>
<path style="mix-blend-mode:screen" opacity="0.4" d="M20.2469 26.5401C35.2701 6.97993 66.6434 24.4856 66.6434 24.4856C38.4374 5.22509 24.5698 20.0771 20.2469 26.5401Z" fill="url(#paint67_linear_78_173365)"/>
<path style="mix-blend-mode:screen" opacity="0.14" d="M1.8855 37.2403C3.51194 40.6216 9.3757 39.466 12.7998 36.1703C9.41491 37.8495 5.53205 38.2302 1.8855 37.2403Z" fill="url(#paint68_linear_78_173365)"/>
<path style="mix-blend-mode:screen" opacity="0.14" d="M3.3407 41.0497C3.3407 42.7189 5.13835 42.4621 9.63248 40.7928C7.58438 41.3707 5.42908 41.4586 3.3407 41.0497Z" fill="url(#paint69_linear_78_173365)"/>
<defs>
<radialGradient id="paint0_radial_78_173365" cx="0" cy="0" r="1" gradientUnits="userSpaceOnUse" gradientTransform="translate(22.3876 21.3612) scale(32.9141 32.9141)">
<stop stop-color="#FED575"/>
<stop offset="0.14" stop-color="#FECF6E"/>
<stop offset="0.81" stop-color="#FDB64F"/>
</radialGradient>
<radialGradient id="paint1_radial_78_173365" cx="0" cy="0" r="1" gradientUnits="userSpaceOnUse" gradientTransform="translate(25.5973 21.3184) scale(51.5754)">
<stop stop-color="#FFF99F"/>
<stop offset="0.4" stop-color="#FEDC7D"/>
<stop offset="0.81" stop-color="#FDC25E"/>
</radialGradient>
<linearGradient id="paint2_linear_78_173365" x1="33.5154" y1="13.5285" x2="78.2855" y2="13.5285" gradientUnits="userSpaceOnUse">
<stop stop-color="#FFE500"/>
<stop offset="0.28" stop-color="#FFB100"/>
<stop offset="0.56" stop-color="#FF8100"/>
<stop offset="0.7" stop-color="#FF6F00"/>
</linearGradient>
<linearGradient id="paint3_linear_78_173365" x1="45.7569" y1="6.76582" x2="81.4959" y2="30.2637" gradientUnits="userSpaceOnUse">
<stop stop-color="#FFE500"/>
<stop offset="0.21" stop-color="#FFD000"/>
<stop offset="0.74" stop-color="#FFA000"/>
<stop offset="1" stop-color="#FF8E00"/>
</linearGradient>
<radialGradient id="paint4_radial_78_173365" cx="0" cy="0" r="1" gradientUnits="userSpaceOnUse" gradientTransform="translate(23.6713 21.7891) scale(49.521)">
<stop stop-color="#4A4A4A"/>
<stop offset="1" stop-color="#232323"/>
</radialGradient>
<linearGradient id="paint5_linear_78_173365" x1="69.3401" y1="27.7812" x2="98.4449" y2="27.7812" gradientUnits="userSpaceOnUse">
<stop stop-color="#FFE500"/>
<stop offset="0.28" stop-color="#FFB100"/>
<stop offset="0.56" stop-color="#FF8100"/>
<stop offset="0.7" stop-color="#FF6F00"/>
</linearGradient>
<linearGradient id="paint6_linear_78_173365" x1="76.4883" y1="17.5517" x2="101.784" y2="32.8746" gradientUnits="userSpaceOnUse">
<stop stop-color="#FFE500"/>
<stop offset="0.21" stop-color="#FFD000"/>
<stop offset="0.74" stop-color="#FFA000"/>
<stop offset="1" stop-color="#FF8E00"/>
</linearGradient>
<linearGradient id="paint7_linear_78_173365" x1="79.3126" y1="20.5908" x2="95.1491" y2="31.4195" gradientUnits="userSpaceOnUse">
<stop stop-color="white"/>
<stop offset="0.09" stop-color="#D7D7D7"/>
<stop offset="0.23" stop-color="#9F9F9F"/>
<stop offset="0.36" stop-color="#6E6E6E"/>
<stop offset="0.5" stop-color="#474747"/>
<stop offset="0.63" stop-color="#282828"/>
<stop offset="0.76" stop-color="#121212"/>
<stop offset="0.89" stop-color="#040404"/>
<stop offset="1"/>
</linearGradient>
<linearGradient id="paint8_linear_78_173365" x1="35.1852" y1="45.8005" x2="78.9281" y2="45.8005" gradientUnits="userSpaceOnUse">
<stop stop-color="#FFE500"/>
<stop offset="0.28" stop-color="#FFB100"/>
<stop offset="0.56" stop-color="#FF8100"/>
<stop offset="0.7" stop-color="#FF6F00"/>
</linearGradient>
<linearGradient id="paint9_linear_78_173365" x1="40.749" y1="43.6607" x2="53.5894" y2="44.8163" gradientUnits="userSpaceOnUse">
<stop stop-color="#FFC24F"/>
<stop offset="0.06" stop-color="#FFBF46"/>
<stop offset="0.31" stop-color="#FFB428"/>
<stop offset="0.55" stop-color="#FFAC12"/>
<stop offset="0.79" stop-color="#FFA804"/>
<stop offset="1" stop-color="#FFA600"/>
</linearGradient>
<radialGradient id="paint10_radial_78_173365" cx="0" cy="0" r="1" gradientUnits="userSpaceOnUse" gradientTransform="translate(26.4107 22.645) scale(39.0347 39.0347)">
<stop stop-color="#FFE500"/>
<stop offset="0.39" stop-color="#FFB100"/>
<stop offset="0.8" stop-color="#FF8100"/>
<stop offset="1" stop-color="#FF6F00"/>
</radialGradient>
<radialGradient id="paint11_radial_78_173365" cx="0" cy="0" r="1" gradientUnits="userSpaceOnUse" gradientTransform="translate(23.8423 21.4466) scale(38.6495 38.6495)">
<stop stop-color="#FFC303"/>
<stop offset="0.34" stop-color="#FEB307"/>
<stop offset="1" stop-color="#FA8A12"/>
</radialGradient>
<radialGradient id="paint12_radial_78_173365" cx="0" cy="0" r="1" gradientUnits="userSpaceOnUse" gradientTransform="translate(18.407 27.3104) scale(7.4474 7.44741)">
<stop stop-color="#4A4A4A"/>
<stop offset="1" stop-color="#232323"/>
</radialGradient>
<radialGradient id="paint13_radial_78_173365" cx="0" cy="0" r="1" gradientUnits="userSpaceOnUse" gradientTransform="translate(18.7067 29.1939) scale(5.56416 5.56415)">
<stop stop-color="white"/>
<stop offset="0.54" stop-color="#ECECEC"/>
<stop offset="0.66" stop-color="#E9E9EA"/>
<stop offset="0.73" stop-color="#E1E1E2"/>
<stop offset="0.8" stop-color="#D2D2D6"/>
<stop offset="0.85" stop-color="#BDBDC4"/>
<stop offset="0.91" stop-color="#A2A2AD"/>
<stop offset="0.94" stop-color="#8C8C9A"/>
<stop offset="1" stop-color="#C5C5C5"/>
</radialGradient>
<radialGradient id="paint14_radial_78_173365" cx="0" cy="0" r="1" gradientUnits="userSpaceOnUse" gradientTransform="translate(52.2627 37.326) scale(15.0232)">
<stop stop-color="#F0D000"/>
<stop offset="0.06" stop-color="#CFB300"/>
<stop offset="0.17" stop-color="#998400"/>
<stop offset="0.28" stop-color="#6A5C00"/>
<stop offset="0.39" stop-color="#443B00"/>
<stop offset="0.5" stop-color="#262100"/>
<stop offset="0.61" stop-color="#110F00"/>
<stop offset="0.71" stop-color="#040400"/>
<stop offset="0.81"/>
<stop offset="1"/>
</radialGradient>
<radialGradient id="paint15_radial_78_173365" cx="0" cy="0" r="1" gradientUnits="userSpaceOnUse" gradientTransform="translate(49.138 30.6489) scale(20.8014 20.8014)">
<stop stop-color="white"/>
<stop offset="0.01" stop-color="#FBFBFB"/>
<stop offset="0.12" stop-color="#C6C6C6"/>
<stop offset="0.23" stop-color="#979797"/>
<stop offset="0.35" stop-color="#6F6F6F"/>
<stop offset="0.46" stop-color="#4F4F4F"/>
<stop offset="0.58" stop-color="#363636"/>
<stop offset="0.71" stop-color="#242424"/>
<stop offset="0.84" stop-color="#191919"/>
<stop offset="1" stop-color="#161616"/>
</radialGradient>
<radialGradient id="paint16_radial_78_173365" cx="0" cy="0" r="1" gradientUnits="userSpaceOnUse" gradientTransform="translate(34.8422 28.1238) scale(15.1088 15.1088)">
<stop stop-color="#FFE500"/>
<stop offset="0.15" stop-color="#FFBA00"/>
<stop offset="0.34" stop-color="#FF8900"/>
<stop offset="0.68" stop-color="#FF7100"/>
<stop offset="1" stop-color="#FF5F00"/>
</radialGradient>
<radialGradient id="paint17_radial_78_173365" cx="0" cy="0" r="1" gradientUnits="userSpaceOnUse" gradientTransform="translate(34.7994 28.0382) scale(14.5524 14.5524)">
<stop stop-color="#FFE500"/>
<stop offset="0.39" stop-color="#FFB100"/>
<stop offset="0.8" stop-color="#FF8100"/>
<stop offset="1" stop-color="#FF6F00"/>
</radialGradient>
<radialGradient id="paint18_radial_78_173365" cx="0" cy="0" r="1" gradientUnits="userSpaceOnUse" gradientTransform="translate(23.8424 21.4468) scale(38.6494 38.6495)">
<stop stop-color="#FFC303"/>
<stop offset="0.34" stop-color="#FEB307"/>
<stop offset="1" stop-color="#FA8A12"/>
</radialGradient>
<radialGradient id="paint19_radial_78_173365" cx="0" cy="0" r="1" gradientUnits="userSpaceOnUse" gradientTransform="translate(18.7067 29.1939) scale(5.56418 5.56416)">
<stop stop-color="#E97B00"/>
<stop offset="0.16" stop-color="#DA6D00"/>
<stop offset="0.46" stop-color="#B24A00"/>
<stop offset="0.87" stop-color="#711100"/>
<stop offset="0.98" stop-color="#5E0000"/>
</radialGradient>
<linearGradient id="paint20_linear_78_173365" x1="19.9477" y1="30.3921" x2="21.5314" y2="30.3921" gradientUnits="userSpaceOnUse">
<stop stop-color="#B9B9B9"/>
<stop offset="0.04" stop-color="#ADADAD"/>
<stop offset="0.33" stop-color="#646464"/>
<stop offset="0.57" stop-color="#2E2E2E"/>
<stop offset="0.75" stop-color="#0D0D0D"/>
<stop offset="0.85"/>
<stop offset="0.98"/>
</linearGradient>
<radialGradient id="paint21_radial_78_173365" cx="0" cy="0" r="1" gradientUnits="userSpaceOnUse" gradientTransform="translate(21.1458 31.7191) scale(0.342402 0.342409)">
<stop stop-color="white"/>
<stop offset="0.22" stop-color="#B3B3B3"/>
<stop offset="0.62" stop-color="#333333"/>
<stop offset="0.79"/>
<stop offset="1"/>
</radialGradient>
<linearGradient id="paint22_linear_78_173365" x1="33.2591" y1="33.8163" x2="33.7299" y2="39.2093" gradientUnits="userSpaceOnUse">
<stop offset="0.01" stop-color="white"/>
<stop offset="0.07" stop-color="#E7E7E7"/>
<stop offset="0.29" stop-color="#969696"/>
<stop offset="0.49" stop-color="#565656"/>
<stop offset="0.66" stop-color="#272727"/>
<stop offset="0.79" stop-color="#0B0B0B"/>
<stop offset="0.86"/>
<stop offset="1"/>
</linearGradient>
<linearGradient id="paint23_linear_78_173365" x1="39.251" y1="7.57898" x2="43.8735" y2="11.0459" gradientUnits="userSpaceOnUse">
<stop stop-color="#FFFF5D"/>
<stop offset="0.06" stop-color="#E7E754"/>
<stop offset="0.29" stop-color="#969637"/>
<stop offset="0.49" stop-color="#56561F"/>
<stop offset="0.66" stop-color="#27270E"/>
<stop offset="0.79" stop-color="#0B0B04"/>
<stop offset="0.86"/>
<stop offset="1"/>
</linearGradient>
<linearGradient id="paint24_linear_78_173365" x1="39.5935" y1="8.52087" x2="40.6635" y2="9.4197" gradientUnits="userSpaceOnUse">
<stop stop-color="#FFFF92"/>
<stop offset="0.06" stop-color="#E7E784"/>
<stop offset="0.29" stop-color="#969656"/>
<stop offset="0.49" stop-color="#565631"/>
<stop offset="0.66" stop-color="#272716"/>
<stop offset="0.79" stop-color="#0B0B06"/>
<stop offset="0.86"/>
<stop offset="1"/>
</linearGradient>
<linearGradient id="paint25_linear_78_173365" x1="43.7448" y1="6.252" x2="51.7058" y2="12.1586" gradientUnits="userSpaceOnUse">
<stop stop-color="#FFFF5D"/>
<stop offset="0.06" stop-color="#E7E754"/>
<stop offset="0.29" stop-color="#969637"/>
<stop offset="0.49" stop-color="#56561F"/>
<stop offset="0.66" stop-color="#27270E"/>
<stop offset="0.79" stop-color="#0B0B04"/>
<stop offset="0.86"/>
<stop offset="1"/>
</linearGradient>
<linearGradient id="paint26_linear_78_173365" x1="44.6868" y1="7.15097" x2="47.5544" y2="9.50503" gradientUnits="userSpaceOnUse">
<stop stop-color="#FFFF92"/>
<stop offset="0.06" stop-color="#E7E784"/>
<stop offset="0.29" stop-color="#969656"/>
<stop offset="0.49" stop-color="#565631"/>
<stop offset="0.66" stop-color="#272716"/>
<stop offset="0.79" stop-color="#0B0B06"/>
<stop offset="0.86"/>
<stop offset="1"/>
</linearGradient>
<linearGradient id="paint27_linear_78_173365" x1="47.8111" y1="6.89439" x2="53.8461" y2="11.3885" gradientUnits="userSpaceOnUse">
<stop stop-color="#FFFF5D"/>
<stop offset="0.06" stop-color="#E7E754"/>
<stop offset="0.29" stop-color="#969637"/>
<stop offset="0.49" stop-color="#56561F"/>
<stop offset="0.66" stop-color="#27270E"/>
<stop offset="0.79" stop-color="#0B0B04"/>
<stop offset="0.86"/>
<stop offset="1"/>
</linearGradient>
<linearGradient id="paint28_linear_78_173365" x1="48.2395" y1="7.87887" x2="50.2084" y2="9.50531" gradientUnits="userSpaceOnUse">
<stop stop-color="#FFFF92"/>
<stop offset="0.06" stop-color="#E7E784"/>
<stop offset="0.29" stop-color="#969656"/>
<stop offset="0.49" stop-color="#565631"/>
<stop offset="0.66" stop-color="#272716"/>
<stop offset="0.79" stop-color="#0B0B06"/>
<stop offset="0.86"/>
<stop offset="1"/>
</linearGradient>
<linearGradient id="paint29_linear_78_173365" x1="52.0054" y1="7.02256" x2="58.8536" y2="12.1159" gradientUnits="userSpaceOnUse">
<stop stop-color="#FFFF5D"/>
<stop offset="0.06" stop-color="#E7E754"/>
<stop offset="0.29" stop-color="#969637"/>
<stop offset="0.49" stop-color="#56561F"/>
<stop offset="0.66" stop-color="#27270E"/>
<stop offset="0.79" stop-color="#0B0B04"/>
<stop offset="0.86"/>
<stop offset="1"/>
</linearGradient>
<linearGradient id="paint30_linear_78_173365" x1="52.5196" y1="8.09277" x2="54.9165" y2="10.0616" gradientUnits="userSpaceOnUse">
<stop stop-color="#FFFF92"/>
<stop offset="0.06" stop-color="#E7E784"/>
<stop offset="0.29" stop-color="#969656"/>
<stop offset="0.49" stop-color="#565631"/>
<stop offset="0.66" stop-color="#272716"/>
<stop offset="0.79" stop-color="#0B0B06"/>
<stop offset="0.86"/>
<stop offset="1"/>
</linearGradient>
<linearGradient id="paint31_linear_78_173365" x1="56.2858" y1="8.43512" x2="60.9083" y2="11.8592" gradientUnits="userSpaceOnUse">
<stop stop-color="#FFFF5D"/>
<stop offset="0.06" stop-color="#E7E754"/>
<stop offset="0.29" stop-color="#969637"/>
<stop offset="0.49" stop-color="#56561F"/>
<stop offset="0.66" stop-color="#27270E"/>
<stop offset="0.79" stop-color="#0B0B04"/>
<stop offset="0.86"/>
<stop offset="1"/>
</linearGradient>
<linearGradient id="paint32_linear_78_173365" x1="56.5852" y1="9.33384" x2="57.7408" y2="10.2755" gradientUnits="userSpaceOnUse">
<stop stop-color="#FFFF92"/>
<stop offset="0.06" stop-color="#E7E784"/>
<stop offset="0.29" stop-color="#969656"/>
<stop offset="0.49" stop-color="#565631"/>
<stop offset="0.66" stop-color="#272716"/>
<stop offset="0.79" stop-color="#0B0B06"/>
<stop offset="0.86"/>
<stop offset="1"/>
</linearGradient>
<linearGradient id="paint33_linear_78_173365" x1="59.2821" y1="10.1471" x2="63.9902" y2="13.6568" gradientUnits="userSpaceOnUse">
<stop stop-color="#FFFF5D"/>
<stop offset="0.06" stop-color="#E7E754"/>
<stop offset="0.29" stop-color="#969637"/>
<stop offset="0.49" stop-color="#56561F"/>
<stop offset="0.66" stop-color="#27270E"/>
<stop offset="0.79" stop-color="#0B0B04"/>
<stop offset="0.86"/>
<stop offset="1"/>
</linearGradient>
<linearGradient id="paint34_linear_78_173365" x1="59.5815" y1="11.0461" x2="60.78" y2="12.0306" gradientUnits="userSpaceOnUse">
<stop stop-color="#FFFF92"/>
<stop offset="0.06" stop-color="#E7E784"/>
<stop offset="0.29" stop-color="#969656"/>
<stop offset="0.49" stop-color="#565631"/>
<stop offset="0.66" stop-color="#272716"/>
<stop offset="0.79" stop-color="#0B0B06"/>
<stop offset="0.86"/>
<stop offset="1"/>
</linearGradient>
<linearGradient id="paint35_linear_78_173365" x1="62.4496" y1="11.9021" x2="67.5001" y2="15.6259" gradientUnits="userSpaceOnUse">
<stop stop-color="#FFFF5D"/>
<stop offset="0.06" stop-color="#E7E754"/>
<stop offset="0.29" stop-color="#969637"/>
<stop offset="0.49" stop-color="#56561F"/>
<stop offset="0.66" stop-color="#27270E"/>
<stop offset="0.79" stop-color="#0B0B04"/>
<stop offset="0.86"/>
<stop offset="1"/>
</linearGradient>
<linearGradient id="paint36_linear_78_173365" x1="62.7918" y1="12.8439" x2="64.1615" y2="13.9567" gradientUnits="userSpaceOnUse">
<stop stop-color="#FFFF92"/>
<stop offset="0.06" stop-color="#E7E784"/>
<stop offset="0.29" stop-color="#969656"/>
<stop offset="0.49" stop-color="#565631"/>
<stop offset="0.66" stop-color="#272716"/>
<stop offset="0.79" stop-color="#0B0B06"/>
<stop offset="0.86"/>
<stop offset="1"/>
</linearGradient>
<linearGradient id="paint37_linear_78_173365" x1="65.7445" y1="13.8283" x2="70.7951" y2="17.552" gradientUnits="userSpaceOnUse">
<stop stop-color="#FFFF5D"/>
<stop offset="0.06" stop-color="#E7E754"/>
<stop offset="0.29" stop-color="#969637"/>
<stop offset="0.49" stop-color="#56561F"/>
<stop offset="0.66" stop-color="#27270E"/>
<stop offset="0.79" stop-color="#0B0B04"/>
<stop offset="0.86"/>
<stop offset="1"/>
</linearGradient>
<linearGradient id="paint38_linear_78_173365" x1="66.0874" y1="14.7698" x2="67.457" y2="15.8826" gradientUnits="userSpaceOnUse">
<stop stop-color="#FFFF92"/>
<stop offset="0.06" stop-color="#E7E784"/>
<stop offset="0.29" stop-color="#969656"/>
<stop offset="0.49" stop-color="#565631"/>
<stop offset="0.66" stop-color="#272716"/>
<stop offset="0.79" stop-color="#0B0B06"/>
<stop offset="0.86"/>
<stop offset="1"/>
</linearGradient>
<linearGradient id="paint39_linear_78_173365" x1="69.0407" y1="15.2407" x2="74.0912" y2="19.0072" gradientUnits="userSpaceOnUse">
<stop stop-color="#FFFF5D"/>
<stop offset="0.06" stop-color="#E7E754"/>
<stop offset="0.29" stop-color="#969637"/>
<stop offset="0.49" stop-color="#56561F"/>
<stop offset="0.66" stop-color="#27270E"/>
<stop offset="0.79" stop-color="#0B0B04"/>
<stop offset="0.86"/>
<stop offset="1"/>
</linearGradient>
<linearGradient id="paint40_linear_78_173365" x1="69.3832" y1="16.1821" x2="70.7528" y2="17.2949" gradientUnits="userSpaceOnUse">
<stop stop-color="#FFFF92"/>
<stop offset="0.06" stop-color="#E7E784"/>
<stop offset="0.29" stop-color="#969656"/>
<stop offset="0.49" stop-color="#565631"/>
<stop offset="0.66" stop-color="#272716"/>
<stop offset="0.79" stop-color="#0B0B06"/>
<stop offset="0.86"/>
<stop offset="1"/>
</linearGradient>
<linearGradient id="paint41_linear_78_173365" x1="71.0521" y1="17.3807" x2="74.9898" y2="20.2912" gradientUnits="userSpaceOnUse">
<stop stop-color="#FFFF5D"/>
<stop offset="0.06" stop-color="#E7E754"/>
<stop offset="0.29" stop-color="#969637"/>
<stop offset="0.49" stop-color="#56561F"/>
<stop offset="0.66" stop-color="#27270E"/>
<stop offset="0.79" stop-color="#0B0B04"/>
<stop offset="0.86"/>
<stop offset="1"/>
</linearGradient>
<linearGradient id="paint42_linear_78_173365" x1="71.3094" y1="18.1511" x2="72.2511" y2="18.9215" gradientUnits="userSpaceOnUse">
<stop stop-color="#FFFF92"/>
<stop offset="0.06" stop-color="#E7E784"/>
<stop offset="0.29" stop-color="#969656"/>
<stop offset="0.49" stop-color="#565631"/>
<stop offset="0.66" stop-color="#272716"/>
<stop offset="0.79" stop-color="#0B0B06"/>
<stop offset="0.86"/>
<stop offset="1"/>
</linearGradient>
<linearGradient id="paint43_linear_78_173365" x1="72.5501" y1="19.7347" x2="76.445" y2="22.6452" gradientUnits="userSpaceOnUse">
<stop stop-color="#FFFF5D"/>
<stop offset="0.06" stop-color="#E7E754"/>
<stop offset="0.29" stop-color="#969637"/>
<stop offset="0.49" stop-color="#56561F"/>
<stop offset="0.66" stop-color="#27270E"/>
<stop offset="0.79" stop-color="#0B0B04"/>
<stop offset="0.86"/>
<stop offset="1"/>
</linearGradient>
<linearGradient id="paint44_linear_78_173365" x1="72.8071" y1="20.5051" x2="73.7487" y2="21.2755" gradientUnits="userSpaceOnUse">
<stop stop-color="#FFFF92"/>
<stop offset="0.06" stop-color="#E7E784"/>
<stop offset="0.29" stop-color="#969656"/>
<stop offset="0.49" stop-color="#565631"/>
<stop offset="0.66" stop-color="#272716"/>
<stop offset="0.79" stop-color="#0B0B06"/>
<stop offset="0.86"/>
<stop offset="1"/>
</linearGradient>
<linearGradient id="paint45_linear_78_173365" x1="61.8928" y1="47.7267" x2="74.6476" y2="48.4971" gradientUnits="userSpaceOnUse">
<stop stop-color="#FF9F4C"/>
<stop offset="0.08" stop-color="#E58F44"/>
<stop offset="0.81"/>
<stop offset="1"/>
</linearGradient>
<linearGradient id="paint46_linear_78_173365" x1="65.1033" y1="45.2869" x2="75.1616" y2="44.6021" gradientUnits="userSpaceOnUse">
<stop stop-color="#FF9F4C"/>
<stop offset="0.08" stop-color="#E58F44"/>
<stop offset="0.81"/>
<stop offset="1"/>
</linearGradient>
<linearGradient id="paint47_linear_78_173365" x1="68.8267" y1="42.5478" x2="75.8033" y2="41.8629" gradientUnits="userSpaceOnUse">
<stop stop-color="#FF9F4C"/>
<stop offset="0.08" stop-color="#E58F44"/>
<stop offset="0.81"/>
<stop offset="1"/>
</linearGradient>
<linearGradient id="paint48_linear_78_173365" x1="51.5345" y1="51.322" x2="63.69" y2="52.3064" gradientUnits="userSpaceOnUse">
<stop stop-color="#FF9F4C"/>
<stop offset="0.08" stop-color="#E58F44"/>
<stop offset="0.81"/>
<stop offset="1"/>
</linearGradient>
<linearGradient id="paint49_linear_78_173365" x1="45.243" y1="52.8627" x2="55.8148" y2="53.5047" gradientUnits="userSpaceOnUse">
<stop stop-color="#FF9F4C"/>
<stop offset="0.08" stop-color="#E58F44"/>
<stop offset="0.81"/>
<stop offset="1"/>
</linearGradient>
<linearGradient id="paint50_linear_78_173365" x1="56.0292" y1="49.9095" x2="64.461" y2="50.1235" gradientUnits="userSpaceOnUse">
<stop stop-color="#FF9F4C"/>
<stop offset="0.08" stop-color="#E58F44"/>
<stop offset="0.81"/>
<stop offset="1"/>
</linearGradient>
<linearGradient id="paint51_linear_78_173365" x1="44.344" y1="12.5011" x2="46.0133" y2="30.392" gradientUnits="userSpaceOnUse">
<stop stop-color="white"/>
<stop offset="0.06" stop-color="#D7D7D7"/>
<stop offset="0.15" stop-color="#9F9F9F"/>
<stop offset="0.24" stop-color="#6E6E6E"/>
<stop offset="0.33" stop-color="#474747"/>
<stop offset="0.42" stop-color="#282828"/>
<stop offset="0.5" stop-color="#121212"/>
<stop offset="0.59" stop-color="#040404"/>
<stop offset="0.66"/>
<stop offset="1"/>
</linearGradient>
<linearGradient id="paint52_linear_78_173365" x1="19.006" y1="34.1589" x2="24.2705" y2="34.1589" gradientUnits="userSpaceOnUse">
<stop offset="0.01" stop-color="white"/>
<stop offset="0.02" stop-color="#FBFBFB"/>
<stop offset="0.38" stop-color="#9C9C9C"/>
<stop offset="0.68" stop-color="#555555"/>
<stop offset="0.89" stop-color="#2A2A2A"/>
<stop offset="1" stop-color="#191919"/>
</linearGradient>
<linearGradient id="paint53_linear_78_173365" x1="36.4263" y1="27.4391" x2="44.2162" y2="35.6997" gradientUnits="userSpaceOnUse">
<stop stop-color="white"/>
<stop offset="0.06" stop-color="#D7D7D7"/>
<stop offset="0.15" stop-color="#9F9F9F"/>
<stop offset="0.24" stop-color="#6E6E6E"/>
<stop offset="0.33" stop-color="#474747"/>
<stop offset="0.42" stop-color="#282828"/>
<stop offset="0.5" stop-color="#121212"/>
<stop offset="0.59" stop-color="#040404"/>
<stop offset="0.66"/>
<stop offset="1"/>
</linearGradient>
<linearGradient id="paint54_linear_78_173365" x1="35.1852" y1="29.2794" x2="42.3758" y2="29.2794" gradientUnits="userSpaceOnUse">
<stop offset="0.01" stop-color="white"/>
<stop offset="0.02" stop-color="#FBFBFB"/>
<stop offset="0.38" stop-color="#9C9C9C"/>
<stop offset="0.68" stop-color="#555555"/>
<stop offset="0.89" stop-color="#2A2A2A"/>
<stop offset="1" stop-color="#191919"/>
</linearGradient>
<linearGradient id="paint55_linear_78_173365" x1="36.1265" y1="30.5206" x2="43.2315" y2="30.5206" gradientUnits="userSpaceOnUse">
<stop offset="0.01" stop-color="white"/>
<stop offset="0.02" stop-color="#FBFBFB"/>
<stop offset="0.38" stop-color="#9C9C9C"/>
<stop offset="0.68" stop-color="#555555"/>
<stop offset="0.89" stop-color="#2A2A2A"/>
<stop offset="1" stop-color="#191919"/>
</linearGradient>
<linearGradient id="paint56_linear_78_173365" x1="88.0871" y1="17.4234" x2="95.3633" y2="23.3299" gradientUnits="userSpaceOnUse">
<stop stop-color="#FFFF92"/>
<stop offset="0.06" stop-color="#E7E784"/>
<stop offset="0.29" stop-color="#969656"/>
<stop offset="0.49" stop-color="#565631"/>
<stop offset="0.66" stop-color="#272716"/>
<stop offset="0.79" stop-color="#0B0B06"/>
<stop offset="0.86"/>
<stop offset="1"/>
</linearGradient>
<linearGradient id="paint57_linear_78_173365" x1="86.8887" y1="20.5051" x2="94.593" y2="26.7969" gradientUnits="userSpaceOnUse">
<stop stop-color="#FFFF92"/>
<stop offset="0.06" stop-color="#E7E784"/>
<stop offset="0.29" stop-color="#969656"/>
<stop offset="0.49" stop-color="#565631"/>
<stop offset="0.66" stop-color="#272716"/>
<stop offset="0.79" stop-color="#0B0B06"/>
<stop offset="0.86"/>
<stop offset="1"/>
</linearGradient>
<linearGradient id="paint58_linear_78_173365" x1="86.846" y1="23.4582" x2="95.4062" y2="30.3919" gradientUnits="userSpaceOnUse">
<stop stop-color="#FFFF92"/>
<stop offset="0.06" stop-color="#E7E784"/>
<stop offset="0.29" stop-color="#969656"/>
<stop offset="0.49" stop-color="#565631"/>
<stop offset="0.66" stop-color="#272716"/>
<stop offset="0.79" stop-color="#0B0B06"/>
<stop offset="0.86"/>
<stop offset="1"/>
</linearGradient>
<linearGradient id="paint59_linear_78_173365" x1="85.8611" y1="26.1549" x2="94.2502" y2="33.0031" gradientUnits="userSpaceOnUse">
<stop stop-color="#FFFF92"/>
<stop offset="0.06" stop-color="#E7E784"/>
<stop offset="0.29" stop-color="#969656"/>
<stop offset="0.49" stop-color="#565631"/>
<stop offset="0.66" stop-color="#272716"/>
<stop offset="0.79" stop-color="#0B0B06"/>
<stop offset="0.86"/>
<stop offset="1"/>
</linearGradient>
<linearGradient id="paint60_linear_78_173365" x1="86.7604" y1="28.3376" x2="94.8071" y2="34.929" gradientUnits="userSpaceOnUse">
<stop stop-color="#FFFF92"/>
<stop offset="0.06" stop-color="#E7E784"/>
<stop offset="0.29" stop-color="#969656"/>
<stop offset="0.49" stop-color="#565631"/>
<stop offset="0.66" stop-color="#272716"/>
<stop offset="0.79" stop-color="#0B0B06"/>
<stop offset="0.86"/>
<stop offset="1"/>
</linearGradient>
<linearGradient id="paint61_linear_78_173365" x1="71.7799" y1="42.0342" x2="77.9433" y2="47.0419" gradientUnits="userSpaceOnUse">
<stop stop-color="#FFFF92"/>
<stop offset="0.06" stop-color="#E7E784"/>
<stop offset="0.29" stop-color="#969656"/>
<stop offset="0.49" stop-color="#565631"/>
<stop offset="0.66" stop-color="#272716"/>
<stop offset="0.79" stop-color="#0B0B06"/>
<stop offset="0.86"/>
<stop offset="1"/>
</linearGradient>
<linearGradient id="paint62_linear_78_173365" x1="68.6983" y1="44.4736" x2="77.7293" y2="51.8354" gradientUnits="userSpaceOnUse">
<stop stop-color="#FFFF92"/>
<stop offset="0.06" stop-color="#E7E784"/>
<stop offset="0.29" stop-color="#969656"/>
<stop offset="0.49" stop-color="#565631"/>
<stop offset="0.66" stop-color="#272716"/>
<stop offset="0.79" stop-color="#0B0B06"/>
<stop offset="0.86"/>
<stop offset="1"/>
</linearGradient>
<linearGradient id="paint63_linear_78_173365" x1="65.1455" y1="46.9563" x2="78.0715" y2="57.4854" gradientUnits="userSpaceOnUse">
<stop stop-color="#FFFF92"/>
<stop offset="0.06" stop-color="#E7E784"/>
<stop offset="0.29" stop-color="#969656"/>
<stop offset="0.49" stop-color="#565631"/>
<stop offset="0.66" stop-color="#272716"/>
<stop offset="0.79" stop-color="#0B0B06"/>
<stop offset="0.86"/>
<stop offset="1"/>
</linearGradient>
<linearGradient id="paint64_linear_78_173365" x1="59.7529" y1="49.3529" x2="70.5388" y2="58.1272" gradientUnits="userSpaceOnUse">
<stop stop-color="#FFFF92"/>
<stop offset="0.06" stop-color="#E7E784"/>
<stop offset="0.29" stop-color="#969656"/>
<stop offset="0.49" stop-color="#565631"/>
<stop offset="0.66" stop-color="#272716"/>
<stop offset="0.79" stop-color="#0B0B06"/>
<stop offset="0.86"/>
<stop offset="1"/>
</linearGradient>
<linearGradient id="paint65_linear_78_173365" x1="56.029" y1="50.6372" x2="68.6982" y2="60.9523" gradientUnits="userSpaceOnUse">
<stop stop-color="#FFFF92"/>
<stop offset="0.06" stop-color="#E7E784"/>
<stop offset="0.29" stop-color="#969656"/>
<stop offset="0.49" stop-color="#565631"/>
<stop offset="0.66" stop-color="#272716"/>
<stop offset="0.79" stop-color="#0B0B06"/>
<stop offset="0.86"/>
<stop offset="1"/>
</linearGradient>
<linearGradient id="paint66_linear_78_173365" x1="49.0528" y1="52.1349" x2="60.6519" y2="61.594" gradientUnits="userSpaceOnUse">
<stop stop-color="#FFFF92"/>
<stop offset="0.06" stop-color="#E7E784"/>
<stop offset="0.29" stop-color="#969656"/>
<stop offset="0.49" stop-color="#565631"/>
<stop offset="0.66" stop-color="#272716"/>
<stop offset="0.79" stop-color="#0B0B06"/>
<stop offset="0.86"/>
<stop offset="1"/>
</linearGradient>
<linearGradient id="paint67_linear_78_173365" x1="20.2469" y1="20.7619" x2="66.6434" y2="20.7619" gradientUnits="userSpaceOnUse">
<stop stop-color="white"/>
<stop offset="0.24" stop-color="#B9B9B9"/>
<stop offset="0.51" stop-color="#717171"/>
<stop offset="0.74" stop-color="#3C3C3C"/>
<stop offset="0.91" stop-color="#1B1B1B"/>
<stop offset="1" stop-color="#0F0F0F"/>
</linearGradient>
<linearGradient id="paint68_linear_78_173365" x1="1.15788" y1="39.466" x2="18.4068" y2="33.217" gradientUnits="userSpaceOnUse">
<stop stop-color="white"/>
<stop offset="0.1" stop-color="#D8D8D8"/>
<stop offset="0.29" stop-color="#9A9A9A"/>
<stop offset="0.46" stop-color="#676767"/>
<stop offset="0.63" stop-color="#3F3F3F"/>
<stop offset="0.78" stop-color="#222222"/>
<stop offset="0.91" stop-color="#101010"/>
<stop offset="1" stop-color="#0A0A0A"/>
</linearGradient>
<linearGradient id="paint69_linear_78_173365" x1="3.08389" y1="41.4777" x2="8.30564" y2="41.4777" gradientUnits="userSpaceOnUse">
<stop stop-color="white"/>
<stop offset="0.1" stop-color="#D8D8D8"/>
<stop offset="0.29" stop-color="#9A9A9A"/>
<stop offset="0.46" stop-color="#676767"/>
<stop offset="0.63" stop-color="#3F3F3F"/>
<stop offset="0.78" stop-color="#222222"/>
<stop offset="0.91" stop-color="#101010"/>
<stop offset="1" stop-color="#0A0A0A"/>
</linearGradient>
</defs>
</svg>
