<svg width="103" height="75" viewBox="0 0 103 75" fill="none" xmlns="http://www.w3.org/2000/svg">
<path d="M23.1807 51.7985C20.737 57.9741 20.1512 64.7291 21.4953 71.2331C24.0233 65.9663 30.8175 64.8602 27.3414 52.9046C27.1564 52.5433 26.8975 52.2248 26.5816 51.97C26.2656 51.7152 25.8996 51.5296 25.5073 51.4253C25.115 51.3211 24.7051 51.3004 24.3043 51.3647C23.9035 51.429 23.5207 51.5768 23.1807 51.7985Z" fill="url(#paint0_radial_78_173489)"/>
<path d="M23.1286 51.7983C20.7117 57.9801 20.1265 64.7273 21.4432 71.2328C23.1812 63.3853 29.9228 64.86 26.4467 52.8516C24.5506 50.1656 23.1286 51.7983 23.1286 51.7983Z" fill="url(#paint1_radial_78_173489)"/>
<path style="mix-blend-mode:screen" opacity="0.5" d="M23.1811 53.3256C21.3317 58.3752 20.7882 63.8102 21.6011 69.1261C23.1284 63.5432 28.6059 64.1753 25.8145 55.1163C24.1818 52.7989 23.1811 53.3256 23.1811 53.3256Z" fill="url(#paint2_linear_78_173489)"/>
<path style="mix-blend-mode:screen" opacity="0.7" d="M23.3914 53.9052C21.5075 58.3191 20.9052 63.1744 21.6534 67.9149C21.6729 63.1924 22.2563 58.4892 23.3914 53.9052Z" fill="url(#paint3_linear_78_173489)"/>
<path d="M27.3942 52.7989C27.1343 52.3374 26.7608 51.95 26.3091 51.6735C25.8575 51.397 25.3426 51.2404 24.8134 51.2188C24.2072 51.1908 23.6104 51.3772 23.1281 51.7455C20.692 57.9412 20.1065 64.7108 21.4427 71.2327C22.1708 69.9083 23.094 68.701 24.1814 67.6513C26.2316 65.8421 27.6457 63.4215 28.2147 60.7471C28.7837 58.0726 28.4776 55.286 27.3415 52.7989H27.3942ZM24.1814 67.4933C23.14 68.5314 22.2372 69.6998 21.4953 70.9694C20.2743 64.5595 20.8765 57.9355 23.2334 51.8508C23.7088 51.5557 24.2541 51.3922 24.8134 51.3768C25.3124 51.413 25.796 51.5651 26.2257 51.8211C26.6555 52.0771 27.0195 52.43 27.2889 52.8515C28.4061 55.3033 28.7072 58.0488 28.1478 60.6845C27.5884 63.3201 26.1982 65.7067 24.1814 67.4933Z" fill="#00163D"/>
<path d="M21.3906 71.2326C21.7514 64.9577 23.1947 58.7924 25.6567 53.0094C23.1896 58.7908 21.7461 64.9569 21.3906 71.2326Z" fill="#00163D"/>
<path d="M23.8129 64.8073C23.9468 61.0497 24.8427 57.3585 26.4463 53.9576C24.8183 57.3498 23.9211 61.0462 23.8129 64.8073Z" fill="#00163D"/>
<path d="M26.657 56.3274C25.7557 58.5454 25.4121 60.9506 25.6563 63.3323C25.5221 60.9747 25.918 58.6171 26.815 56.4327L26.657 56.3274Z" fill="#00163D"/>
<path d="M83.8545 31.5208C85.0944 31.1383 86.4007 31.0203 87.689 31.1746C88.9773 31.3288 90.2189 31.7518 91.3334 32.4161C93.5455 33.4168 95.5995 35.5236 97.3902 34.9442C106.871 31.7314 103.342 9.6108 92.1234 10.4008C90.7541 10.4008 89.332 13.4029 87.1199 15.6676C84.0652 18.8277 81.2211 20.9345 78.851 20.5658C78.3244 18.9331 80.4838 17.037 81.5371 13.5082C81.8867 12.0879 81.9119 10.6071 81.6111 9.17559C81.3102 7.74413 80.6909 6.39878 79.7991 5.23934C73.7422 -2.9769 49.8309 1.23655 33.451 9.34745C18.6513 16.6683 12.3838 26.5173 5.95824 26.412C5.79404 29.9186 4.54234 33.2872 2.37682 36.0502C4.74878 37.2496 6.75102 39.0698 8.17032 41.317C12.1276 46.3579 17.1826 50.4297 22.9507 53.2225C28.7188 56.0152 35.048 57.4555 41.4566 57.4335C63.3666 58.5396 85.0132 47.6899 86.8039 42.5284C87.0808 41.5149 87.0482 40.4417 86.7103 39.4468C86.3724 38.452 85.7447 37.5809 84.9079 36.9456C83.1698 35.5236 81.5898 32.8375 83.8545 31.5208Z" fill="url(#paint4_linear_78_173489)"/>
<path d="M51.622 47.9008C60.8735 46.624 69.676 43.1175 77.2714 37.6832C80.7475 34.4178 80.7475 30.4677 84.5922 29.467C89.8591 28.1503 94.8099 35.4185 99.0233 32.627C101.604 30.8363 102.394 21.2507 101.025 16.8266C100.362 14.95 99.1247 13.3297 97.4894 12.1954C95.854 11.061 93.9031 10.4701 91.9131 10.5064C90.5438 10.5064 89.1217 13.5085 86.9097 15.7732C83.8549 18.9333 81.0108 21.0401 78.6407 20.6714C78.1141 19.0387 80.2735 17.1426 81.3268 13.6138C81.6764 12.1935 81.7016 10.7126 81.4008 9.28116C81.0999 7.8497 80.4806 6.50437 79.5888 5.34493C73.5319 -2.87131 49.6206 1.34214 33.2407 9.45304C18.441 16.7739 12.1735 26.6229 5.74795 26.5175C5.58375 30.0242 4.33203 33.3928 2.16651 36.1558C4.53847 37.3552 6.54071 39.1754 7.96001 41.4226C21.5111 47.9898 36.7479 50.2505 51.622 47.9008Z" fill="url(#paint5_linear_78_173489)"/>
<path style="mix-blend-mode:screen" opacity="0.8" d="M26.1831 14.2984C35.5581 5.81884 68.3177 -2.87141 76.2706 4.18613C82.9068 10.2956 74.3219 15.0358 74.8486 19.9866C75.3753 24.9374 22.1804 45.3727 20.811 39.6845C17.5982 25.5694 19.5996 20.2499 26.1831 14.2984Z" fill="url(#paint6_linear_78_173489)"/>
<path style="mix-blend-mode:screen" opacity="0.8" d="M83.5913 19.5127C89.2268 15.7733 90.5434 10.8751 92.8609 10.9278C98.1277 10.9278 100.919 15.4046 101.13 21.4614C101.461 23.077 101.175 24.7581 100.326 26.1723C99.4775 27.5864 98.1291 28.6306 96.5476 29.0983C92.8609 29.5723 89.4374 27.1496 86.804 27.2549C82.3272 27.1496 78.3244 22.9361 83.5913 19.5127Z" fill="url(#paint7_linear_78_173489)"/>
<g style="mix-blend-mode:screen">
<path d="M5.74783 26.4123C5.74783 26.4123 5.74783 26.9389 5.74783 27.6763C5.768 27.5366 5.768 27.3947 5.74783 27.255C11.0146 27.255 14.7541 23.1995 20.9689 18.354C20.7448 18.0209 20.5509 17.6683 20.3896 17.3007C14.1221 22.2515 9.85595 26.4649 5.74783 26.4123Z" fill="url(#paint8_linear_78_173489)"/>
</g>
<path d="M30.9235 27.729C28.0794 29.3617 30.5548 35.3659 27.184 41.8968C25.0246 46.1629 22.6019 47.9536 20.3372 46.0049C18.0724 44.0562 19.5471 42.4234 20.7585 40.0007C22.9986 36.7534 24.7715 33.2075 26.0253 29.4671C26.4787 27.1369 26.2185 24.7242 25.2789 22.5442C24.3392 20.3643 22.7638 18.5185 20.7585 17.248C17.7564 19.5128 15.4917 21.6195 13.069 23.1996C14.2277 29.7831 20.7059 30.0464 20.8112 34.7866C20.8112 37.894 15.8604 42.3181 14.4383 47.8483C19.9769 52.4073 26.631 55.4071 33.7149 56.5385C38.139 44.2142 34.9789 25.4116 30.9235 27.729Z" fill="url(#paint9_linear_78_173489)"/>
<path d="M11.4361 24.3582C9.79562 25.6101 7.80981 26.3272 5.74795 26.4122C5.58375 29.9189 4.33203 33.2875 2.16651 36.0505C4.53847 37.2498 6.54071 39.0701 7.96001 41.3173C9.56787 43.2147 11.3294 44.9763 13.2268 46.5841C15.0175 41.686 19.2837 37.7359 19.1783 34.8391C18.8623 30.5203 12.9635 30.0463 11.4361 24.3582Z" fill="url(#paint10_linear_78_173489)"/>
<path d="M35.5051 48.6382C36.6638 37.8412 34.083 25.9382 30.8176 27.5709C27.5522 29.2036 30.4489 35.2078 27.0782 41.7387C24.9188 46.0048 22.496 47.7955 20.2313 45.8468C17.9666 43.8981 19.4413 42.2654 20.6526 39.8426C22.8927 36.5953 24.6656 33.0495 25.9195 29.309C26.3728 26.9788 26.1126 24.5661 25.173 22.3861C24.2334 20.2062 22.6579 18.3604 20.6526 17.09C18.9672 18.354 17.3872 19.618 16.0178 20.7241H15.7018L15.2805 21.0927H14.9118H14.5958L14.2271 21.3561C13.9677 21.5787 13.6852 21.7729 13.3844 21.9354C14.5431 28.519 21.0213 28.7823 21.1266 33.5224C21.1266 36.2085 17.4399 39.8953 15.4911 44.4248C21.6316 47.6886 28.5699 49.1493 35.5051 48.6382Z" fill="url(#paint11_linear_78_173489)"/>
<path d="M11.4364 24.3582L9.96171 25.2008H9.6457H9.3297H9.01368H8.75035H8.06566H5.95892C6.24777 26.8318 6.20058 28.5045 5.82021 30.1166C5.43984 31.7286 4.73431 33.246 3.74686 34.5758C5.9888 35.4869 7.84865 37.1422 9.01368 39.2633C10.5262 40.882 12.164 42.3789 13.9118 43.7401C15.8606 39.2633 19.1786 36.4718 19.1786 33.7858C18.8626 30.5203 12.9638 30.0463 11.4364 24.3582Z" fill="url(#paint12_linear_78_173489)"/>
<path style="mix-blend-mode:screen" d="M11.4364 24.3582L9.96171 25.2008H9.6457H9.3297H9.01368H8.75035H8.06566H5.95892C6.24777 26.8318 6.20058 28.5045 5.82021 30.1166C5.43984 31.7286 4.73431 33.246 3.74686 34.5758C5.9888 35.4869 7.84865 37.1422 9.01368 39.2633C10.5262 40.882 12.164 42.3789 13.9118 43.7401C15.8606 39.2633 19.1786 36.4718 19.1786 33.7858C18.8626 30.5203 12.9638 30.0463 11.4364 24.3582Z" fill="url(#paint13_radial_78_173489)"/>
<path d="M8.06526 41.3174L7.48591 40.58C6.1668 38.6134 4.3493 37.0322 2.21909 35.9979C4.33158 33.274 5.5462 29.9614 5.69519 26.5176C8.09695 26.3168 10.378 25.3786 12.2261 23.8315C10.4236 25.3445 8.19795 26.2642 5.85321 26.465C5.70376 29.9496 4.4701 33.3007 2.32443 36.0506C4.46921 37.0627 6.29208 38.6486 7.59125 40.6327C7.8005 40.8654 7.99405 41.1117 8.1706 41.3701C9.89047 43.5151 11.7937 45.5064 13.8588 47.3216C11.7383 45.5118 9.79813 43.5011 8.06526 41.3174Z" fill="#1E2D23"/>
<path d="M16.8084 20.1974C15.123 21.5667 13.5957 22.7781 12.1736 23.7261C13.5957 22.7254 15.1231 21.5141 16.8611 20.1447L21.2852 16.6686L16.8084 20.1974Z" fill="black"/>
<path d="M102.657 21.6722C101.709 15.9841 98.2331 10.2959 92.4922 10.2959H91.9129C91.0175 10.2959 90.1748 11.5073 89.0688 12.982C88.3942 13.9106 87.655 14.7906 86.8567 15.6154C84.4867 18.0908 81.5899 20.5662 79.4305 20.5662H78.7458C78.7458 19.7235 79.0092 18.7228 79.6938 17.4061C80.4161 16.2312 80.9994 14.9763 81.4319 13.6667C81.7754 12.2255 81.7929 10.7259 81.4831 9.27714C81.1733 7.82838 80.544 6.46705 79.6412 5.29242C77.9219 3.57612 75.8301 2.27937 73.5282 1.50294C71.2263 0.726508 68.7764 0.491317 66.3688 0.815635C54.8268 1.30505 43.5189 4.23073 33.1878 9.40054C28.956 11.5054 24.935 14.0098 21.1795 16.8794C24.8946 14.0205 28.8814 11.5332 33.0825 9.45322C43.3975 4.29058 54.6867 1.36508 66.2108 0.868294C68.5925 0.570444 71.0108 0.808372 73.2888 1.56468C75.5668 2.32099 77.6472 3.57658 79.3778 5.23977C80.2445 6.37317 80.8615 7.67712 81.1882 9.06596C81.515 10.4548 81.5442 11.8971 81.2739 13.298C80.8351 14.5963 80.2706 15.8487 79.5885 17.0374C78.8512 18.3541 78.2718 19.4075 78.5878 20.3555C78.8487 20.4067 79.117 20.4067 79.3778 20.3555C81.8006 20.3555 84.6447 17.8275 86.9094 15.4047C87.6961 14.5512 88.4346 13.6544 89.1215 12.7186C90.1748 11.3493 91.0702 10.1906 91.8602 10.1379H92.4396C98.0751 10.1379 101.498 15.7734 102.447 21.4089C103.395 27.0444 102.078 32.9432 97.1797 34.5233C96.9722 34.5746 96.7552 34.5746 96.5477 34.5233C95.3974 34.3348 94.3117 33.8643 93.3876 33.1539C92.6983 32.6824 91.9767 32.26 91.2282 31.8899C89.5715 31.1141 87.7861 30.6499 85.9614 30.5205C85.229 30.4825 84.5002 30.6465 83.8546 30.9945C83.5204 31.1557 83.2334 31.4003 83.0212 31.7048C82.809 32.0092 82.6788 32.3632 82.6433 32.7326C82.7417 33.5124 83.0037 34.2627 83.4121 34.9344C83.8205 35.606 84.3662 36.1838 85.0133 36.63C85.783 37.2471 86.3639 38.0681 86.6898 38.9992C87.0158 39.9304 87.0736 40.9344 86.8567 41.8968C83.4097 46.5633 78.5822 50.0273 73.0577 51.7985C64.0809 55.4193 54.5065 57.3306 44.8275 57.434H41.4567C39.7714 57.434 38.0333 57.434 36.1899 56.9599C37.9806 56.9599 39.7714 57.2759 41.4567 57.3813H44.5642C54.3175 57.3691 63.9822 55.5291 73.0577 51.9565C78.594 50.3756 83.4944 47.0964 87.0674 42.5815C87.3674 41.5531 87.3466 40.4576 87.0078 39.4413C86.669 38.425 86.0284 37.5361 85.1713 36.8933C84.5481 36.4686 84.0234 35.9149 83.6327 35.2697C83.2419 34.6246 82.9943 33.903 82.9066 33.1539C82.9223 32.8197 83.0286 32.4962 83.2142 32.2178C83.3997 31.9395 83.6576 31.7169 83.96 31.5739C84.6029 31.2765 85.306 31.1323 86.014 31.1525C87.8369 31.2555 89.6239 31.7023 91.2809 32.4692L93.3876 33.6806C94.3323 34.4428 95.4565 34.9505 96.653 35.1553H97.3377C98.4877 34.7143 99.5169 34.0071 100.341 33.0916C101.165 32.1761 101.76 31.0784 102.078 29.8885C102.943 27.239 103.142 24.417 102.657 21.6722Z" fill="#723B00"/>
<path d="M13.7006 47.2161C20.0204 52.7195 27.8633 56.1726 36.19 57.1177C27.8562 56.1989 20.0058 52.7425 13.7006 47.2161Z" fill="#050707"/>
<path d="M30.9227 54.4318C28.9893 54.3495 27.0838 53.9399 25.2873 53.2205C25.1345 57.1554 25.8371 61.0766 27.3465 64.7137C28.8559 68.3508 31.1362 71.6172 34.0302 74.2877C31.9234 69.0736 37.1903 61.8054 30.9227 54.4318Z" fill="url(#paint14_radial_78_173489)"/>
<path d="M30.3439 54.4318C28.5245 54.3876 26.7329 53.9756 25.077 53.2205C25.077 56.8546 26.0777 67.4409 32.2926 71.9703C30.9232 67.7042 35.4 63.8068 30.3439 54.4318Z" fill="url(#paint15_radial_78_173489)"/>
<path style="mix-blend-mode:screen" opacity="0.5" d="M25.6564 53.6941C25.1298 57.3282 27.6052 68.2305 31.5026 70.9166C31.5026 65.6498 33.4513 65.1758 30.6072 56.1168C29.5539 53.3254 28.0265 54.4841 25.6564 53.6941Z" fill="url(#paint16_linear_78_173489)"/>
<path style="mix-blend-mode:screen" opacity="0.7" d="M26.4466 55.4325C26.4241 60.2262 27.7371 64.9315 30.2387 69.0209C28.4375 64.6588 27.1645 60.0969 26.4466 55.4325Z" fill="url(#paint17_linear_78_173489)"/>
<path d="M30.9237 54.3791C29.0078 54.3347 27.1161 53.942 25.3408 53.2205C25.3408 54.6952 25.3408 67.7042 34.1364 74.2877H34.3998V73.9717C33.8908 71.8957 33.8908 69.7275 34.3998 67.6515C34.9257 65.3226 34.8846 62.9013 34.2796 60.5916C33.6747 58.2819 32.5237 56.1513 30.9237 54.3791ZM33.8204 73.8137C31.0712 71.1787 28.8982 68.0022 27.4387 64.4849C25.9792 60.9675 25.2649 57.1858 25.3408 53.3785C27.022 54.0397 28.8024 54.4136 30.6076 54.4845C32.1159 56.2942 33.1704 58.4378 33.6834 60.7371C34.1964 63.0364 34.1531 65.425 33.5571 67.7042C33.1405 69.7235 33.1765 71.81 33.6624 73.8137H33.8204Z" fill="#00163D"/>
<path d="M26.8677 53.9052C27.4191 61.1219 29.793 68.0807 33.7672 74.1297C29.8567 68.0925 27.5043 61.1798 26.9204 54.0105L26.8677 53.9052Z" fill="#00163D"/>
<path d="M27.9741 54.1158C28.5115 58.1925 29.8734 62.117 31.9769 65.6502C29.9608 62.0905 28.655 58.1732 28.1321 54.1158H27.9741Z" fill="#00163D"/>
<path d="M29.3434 54.326C29.7412 57.0478 30.8291 59.6225 32.5035 61.8049C30.9306 59.5816 29.9023 57.0198 29.5014 54.326H29.3434Z" fill="#00163D"/>
<path d="M6.64292 27.8872C6.64292 27.8872 5.8529 25.2538 3.90417 25.2538C1.06009 25.2538 1.63945 28.9406 4.22019 30.5206H4.53621C5.22267 30.889 5.97374 31.1215 6.74826 31.2053L8.96034 31.5213L11.4357 31.1526C10.801 31.163 10.1714 31.0368 9.58978 30.7823C9.00816 30.5278 8.48811 30.1512 8.06497 29.6779C7.51369 29.1467 7.03548 28.5445 6.64292 27.8872Z" fill="url(#paint18_linear_78_173489)"/>
<path style="mix-blend-mode:screen" d="M6.64292 27.8872C6.64292 27.8872 5.8529 25.2538 3.90417 25.2538C1.06009 25.2538 1.63945 28.9406 4.22019 30.5206H4.53621C5.22267 30.889 5.97374 31.1215 6.74826 31.2053L8.96034 31.5213L11.4357 31.1526C10.801 31.163 10.1714 31.0368 9.58978 30.7823C9.00816 30.5278 8.48811 30.1512 8.06497 29.6779C7.51369 29.1467 7.03548 28.5445 6.64292 27.8872Z" fill="url(#paint19_radial_78_173489)"/>
<path d="M4.58934 30.7839C4.00999 30.7839 -0.150784 31.3633 0.58657 34.3654C1.32393 37.3675 6.90674 37.2095 6.90674 37.2095C6.90674 37.2095 10.6989 36.7354 10.8042 34.26C10.9095 31.7846 6.8014 31.4686 6.8014 31.4686C6.02687 31.3848 5.2758 31.1523 4.58934 30.7839Z" fill="url(#paint20_linear_78_173489)"/>
<path style="mix-blend-mode:screen" d="M4.58934 30.7839C4.00999 30.7839 -0.150784 31.3633 0.58657 34.3654C1.32393 37.3675 6.90674 37.2095 6.90674 37.2095C6.90674 37.2095 10.6989 36.7354 10.8042 34.26C10.9095 31.7846 6.8014 31.4686 6.8014 31.4686C6.02687 31.3848 5.2758 31.1523 4.58934 30.7839Z" fill="url(#paint21_radial_78_173489)"/>
<path d="M0.586326 34.3651C0.442075 34.0699 0.36709 33.7456 0.36709 33.4171C0.36709 33.0885 0.442075 32.7642 0.586326 32.469C1.5903 31.5161 2.8927 30.9393 4.27308 30.8363C3.48778 30.4795 2.83281 29.8874 2.39876 29.1419C1.96472 28.3965 1.77308 27.5346 1.85035 26.6755C1.95899 26.3097 2.19232 25.9935 2.50983 25.7819C2.82734 25.5702 3.20896 25.4764 3.58841 25.5168C5.4318 25.5168 6.32716 27.9922 6.32716 28.0449C6.32716 28.0976 5.5898 25.3588 3.58841 25.3588C3.17312 25.3058 2.75265 25.4045 2.40431 25.6368C2.05597 25.869 1.80317 26.2191 1.69235 26.6229C1.62245 27.4761 1.79864 28.3314 2.20004 29.0875C2.60144 29.8437 3.21121 30.4689 3.95709 30.889C2.61564 30.9632 1.35327 31.5473 0.428308 32.5217C0.21937 32.8159 0.0820069 33.1547 0.0271446 33.5113C-0.0277177 33.8679 0.00144936 34.2324 0.112312 34.5758C0.74433 37.1565 4.7471 37.3672 6.0638 37.3672H6.48516C6.48516 37.3672 1.32368 37.2618 0.586326 34.3651Z" fill="#1E2D23"/>
<path d="M11.2783 31.521C10.4904 31.6013 9.69625 31.6013 8.90827 31.521C8.12491 31.5232 7.34503 31.4169 6.59087 31.205C6.18404 31.4309 5.73656 31.5741 5.27417 31.6264C4.37881 31.6264 2.32474 31.6264 2.69342 32.8904C3.06209 34.1544 10.541 34.2598 11.5417 31.1523L11.2783 31.521Z" fill="url(#paint22_radial_78_173489)"/>
<path d="M5.95884 32.6799C5.92334 32.5 5.8415 32.3325 5.72142 32.194C5.60133 32.0554 5.44718 31.9506 5.27417 31.8899C4.37881 31.8899 2.32474 31.8899 2.69342 33.1539C3.06209 34.418 7.96024 34.576 10.541 32.7853C9.06637 32.2492 7.45653 32.2122 5.95884 32.6799Z" fill="url(#paint23_radial_78_173489)"/>
<path d="M4.58926 33.2064C4.58926 33.2064 5.64262 32.7851 5.69529 32.7324C5.74795 32.6798 5.32661 32.2057 5.06327 32.1004C4.79993 31.9951 2.27186 32.1004 2.64054 33.1538C2.83226 33.5075 3.11275 33.8052 3.45444 34.0176C3.79613 34.23 4.18723 34.3498 4.58926 34.3651C6.64332 34.3651 8.85538 33.9965 8.80271 33.3645C8.75004 32.7324 5.74796 32.7851 4.58926 33.2064Z" fill="url(#paint24_radial_78_173489)"/>
<path style="mix-blend-mode:screen" d="M4.58926 33.2064C4.58926 33.2064 5.64262 32.7851 5.69529 32.7324C5.74795 32.6798 5.32661 32.2057 5.06327 32.1004C4.79993 31.9951 2.27186 32.1004 2.64054 33.1538C2.81144 33.4708 3.09244 33.7144 3.43055 33.8385C3.76071 33.5382 4.15806 33.3215 4.58926 33.2064Z" fill="url(#paint25_radial_78_173489)"/>
<path style="mix-blend-mode:screen" d="M4.58935 33.2063C4.15815 33.3213 3.7608 33.538 3.43064 33.8383C3.78394 34.0788 4.17586 34.2569 4.58935 34.365C6.64341 34.365 8.85547 33.9963 8.8028 33.3643C8.75013 32.7323 5.74805 32.7849 4.58935 33.2063Z" fill="url(#paint26_radial_78_173489)"/>
<path d="M5.27355 31.9421C5.27355 31.9421 5.80023 32.2581 5.8529 32.5742L4.58885 33.2062L6.0109 32.7321C6.78101 32.6469 7.55818 32.6469 8.32829 32.7321C9.01643 32.673 9.70778 32.8004 10.3297 33.1008C9.64933 32.7441 8.88439 32.5802 8.11761 32.6268C7.35107 32.6171 6.5875 32.7236 5.8529 32.9428C5.73528 32.6305 5.51154 32.3695 5.22087 32.2055L5.27355 31.9421Z" fill="#E04C4C"/>
<path d="M11.5415 31.4685C10.9095 33.1539 8.22345 34.0492 5.80071 34.0492C4.27334 34.0492 3.11464 33.6806 2.90397 33.0485C2.85108 32.9131 2.85108 32.7627 2.90397 32.6272C3.27264 32.0478 4.8527 31.9425 5.37938 31.8898C5.84021 31.8662 6.29 31.7403 6.69608 31.5212C6.30307 31.726 5.87352 31.8512 5.43204 31.8898C4.48401 31.8898 3.1673 31.8898 2.85129 32.6799C2.78723 32.7628 2.75248 32.8647 2.75248 32.9695C2.75248 33.0744 2.78723 33.1762 2.85129 33.2592C3.11463 33.9439 4.27334 34.3653 5.90605 34.3653C8.43413 34.3653 11.1729 33.4172 11.8576 31.5738L11.5415 31.4685Z" fill="#1E2D23"/>
<path d="M4.58885 30.6783C5.96562 31.3516 7.4805 31.6942 9.01298 31.6791C10.0288 31.6841 11.0399 31.5422 12.0151 31.2577C10.8002 31.6557 9.5186 31.8094 8.24407 31.71C6.96954 31.6106 5.72729 31.26 4.58885 30.6783Z" fill="#1E2D23"/>
<path d="M12.9634 23.2521L11.436 24.3581C12.9634 30.0463 18.8622 30.5203 18.9676 34.8917C18.9676 37.7885 14.8068 41.7386 13.0161 46.6368L14.3328 47.7955C15.7548 42.5286 20.7583 37.8412 20.7056 34.7337C20.3896 30.0989 14.1221 29.8356 12.9634 23.2521Z" fill="url(#paint27_linear_78_173489)"/>
<path d="M12.9631 23.2521L12.5944 23.5681H12.2784H11.9624L11.5938 23.8314C13.1211 29.5196 19.02 29.9936 19.1253 34.3651C19.1253 37.0511 15.9125 39.6319 13.8585 44.3194C14.2798 44.688 14.7012 44.7934 15.1225 45.1094C16.8606 39.8426 20.8107 37.1565 20.758 34.2071C20.3893 30.099 14.1218 29.8356 12.9631 23.2521Z" fill="url(#paint28_linear_78_173489)"/>
<path d="M17.5454 29.8883C15.2379 28.3515 13.6294 25.9671 13.0686 23.2521C12.5847 23.6385 12.0743 23.9905 11.5412 24.3054C12.2619 26.6947 13.788 28.7606 15.86 30.1516C17.5454 31.521 18.9674 32.7324 19.0201 34.9444C18.6798 36.9785 17.8076 38.8864 16.492 40.4746C15.1215 42.4025 13.9897 44.4893 13.1212 46.6894L14.4379 47.7955C15.2652 45.114 16.5286 42.5872 18.1774 40.3166C19.5226 38.6942 20.4293 36.7539 20.8108 34.6811C20.6504 33.6919 20.2748 32.75 19.7106 31.9219C19.1463 31.0937 18.4072 30.3995 17.5454 29.8883ZM18.0194 40.4219C16.4118 42.6793 15.1513 45.1647 14.2799 47.7955L13.1212 46.7948C14.0137 44.6493 15.1257 42.6019 16.4393 40.6853C17.8055 39.0762 18.7149 37.13 19.0727 35.0498C18.9381 34.0314 18.5743 33.0568 18.0087 32.1992C17.4431 31.3417 16.6905 30.6236 15.8073 30.0989C13.798 28.7241 12.2984 26.7247 11.5412 24.4108L12.9106 23.4628C13.4843 26.1864 15.1127 28.5722 17.44 30.0989C19.1254 31.4683 20.5474 32.6797 20.6001 34.8917C20.2406 36.914 19.3499 38.8044 18.0194 40.3692V40.4219Z" fill="#00163D"/>
<path d="M30.1334 26.0961C27.2893 27.6762 28.5533 34.997 26.2359 40.1058C24.2345 44.4246 22.1278 46.1627 21.3904 45.3727C20.6531 44.5826 21.0218 42.8973 22.0225 40.8959C24.2773 37.3555 26.0486 33.5295 27.2893 29.5195C27.7536 27.0743 27.5039 24.5471 26.5699 22.2401C25.6359 19.9331 24.0571 17.944 22.0225 16.5105L20.7058 17.5112C22.7111 18.7816 24.2865 20.6274 25.2261 22.8074C26.1658 24.9873 26.4259 27.4 25.9726 29.7302C24.7188 33.4707 22.9458 37.0165 20.7058 40.2638C19.4944 42.6866 18.8097 44.9513 20.2844 46.268C21.7591 47.5847 24.9719 46.268 27.1313 42.1599C30.502 35.629 28.0266 29.6249 30.8707 27.9922C35.0315 25.6748 38.1916 44.4773 33.6621 56.8543H34.7682C40.7197 44.5826 36.1902 22.8307 30.1334 26.0961Z" fill="url(#paint29_linear_78_173489)"/>
<path d="M34.3991 27.9396C34.1129 27.3316 33.6782 26.8054 33.1351 26.4097C32.5921 26.0139 31.9581 25.7611 31.2917 25.6748C30.8692 25.6871 30.455 25.7952 30.0803 25.9909C28.4476 26.8862 28.1316 29.5723 27.8156 32.627C27.6249 35.1723 27.0569 37.6751 26.1302 40.0533C24.4975 43.6874 22.8121 45.3201 21.9167 45.3201C21.8114 45.2896 21.7141 45.2359 21.6321 45.163C21.5501 45.0901 21.4854 44.9998 21.4427 44.8987C20.8634 44.0034 21.074 42.5287 22.0747 40.5273L23.3388 38.1572C25.104 35.3601 26.4192 32.3033 27.2362 29.0983C27.7088 26.6374 27.4635 24.0926 26.5296 21.7673C25.5958 19.4419 24.0128 17.4343 21.9694 15.9839L20.6527 17.0373C22.6537 18.2989 24.227 20.1354 25.1668 22.3063C26.1066 24.4771 26.3689 26.8812 25.9195 29.2036C25.187 31.9553 24.0131 34.57 22.4434 36.9458C21.8641 37.8939 21.3374 38.7892 20.916 39.6319C19.81 41.844 18.862 44.3194 20.4947 45.7414C21.0079 46.268 21.7082 46.5709 22.4434 46.5841C24.0761 46.5841 25.8142 44.8461 27.7102 41.6333C29.0341 38.7764 29.7343 35.6703 29.7643 32.5217C29.7643 30.0463 29.7643 28.2556 31.397 27.2549C33.0297 26.2542 32.9244 27.2549 33.6091 28.1502C36.3478 32.1004 37.6645 46.1101 34.0304 55.9591H35.1891C37.3679 50.9917 38.3077 45.5695 37.9279 40.1586C37.6188 35.8837 36.4167 31.7211 34.3991 27.9396ZM34.7151 56.6964H33.7144C37.2958 46.7948 35.9791 32.7324 33.2404 28.7823C32.4504 27.6762 31.6077 27.3602 30.765 27.8342C29.9223 28.3082 29.2376 30.573 29.0796 33.1011C29.0543 36.2164 28.3534 39.2891 27.0255 42.1073C25.3928 45.3201 23.7075 46.9528 22.1274 46.9528C21.4406 46.8561 20.8178 46.4976 20.3894 45.9521C18.862 44.5827 19.7573 42.2127 20.8634 40.0533C21.2847 39.2106 21.8114 38.3152 22.3381 37.3672C23.8546 34.9445 24.9747 32.2954 25.6562 29.5196C26.1021 27.1897 25.8386 24.7796 24.8996 22.6011C23.9606 20.4227 22.3894 18.5762 20.3894 17.3006L21.5481 16.4052C23.5643 17.8306 25.1312 19.8025 26.0643 22.0886C26.9974 24.3747 27.2578 26.8798 26.8149 29.309C25.9854 32.4932 24.6709 35.5308 22.9174 38.3152L21.6534 40.6326C20.6527 42.6867 20.442 44.2667 21.074 45.2148C21.1362 45.312 21.2219 45.3919 21.3231 45.4471C21.4244 45.5024 21.538 45.5312 21.6534 45.5307C22.6014 45.5307 24.3395 43.8454 26.0249 40.2639C26.9515 37.8857 27.5195 35.383 27.7102 32.8377C28.0789 29.783 28.3949 27.1496 29.9223 26.3069C30.2567 26.1058 30.6382 25.9968 31.0283 25.9909C32.0817 25.9909 33.0824 26.7809 33.9778 28.2029C35.9935 32.2474 37.0735 36.6935 37.1378 41.212C37.5271 46.4909 36.6982 51.7887 34.7151 56.6964Z" fill="#00163D"/>
<path d="M24.0765 52.5358C24.68 53.1682 25.445 53.6235 26.2886 53.8525C27.9951 54.3711 29.7721 54.6199 31.5554 54.5898H32.3455V54.2738C29.4825 54.4559 26.624 53.855 24.0765 52.5358Z" fill="#050707"/>
<path d="M71.3724 3.9756C65.6072 4.69055 59.8011 5.02483 53.9919 4.97629C43.4176 6.00793 33.3448 9.98593 24.9191 16.458C23.023 17.9327 24.9191 18.4067 26.8151 16.932C34.8987 11.3665 44.1673 7.76005 53.8866 6.39834C59.9544 6.67489 66.0338 6.25075 72.0044 5.13431C75.9545 3.60693 74.1112 3.39625 71.3724 3.9756Z" fill="url(#paint30_linear_78_173489)"/>
<path style="mix-blend-mode:screen" d="M25.6561 17.3007C32.1033 11.2846 39.8851 6.88282 48.3629 4.45666C56.8408 2.0305 65.7731 1.64906 74.4269 3.34362C56.9942 1.70806 39.5843 6.69039 25.6561 17.3007Z" fill="url(#paint31_linear_78_173489)"/>
<path d="M73.795 6.39828C68.0133 7.12148 62.188 7.43827 56.3619 7.34631C45.8085 8.43566 35.7634 12.4282 27.3417 18.8807C25.393 20.3554 27.3417 20.8294 29.2378 19.3547C37.3213 13.7892 46.5899 10.1827 56.3092 8.82103C62.377 9.09758 68.4564 8.67342 74.4271 7.55698C78.3245 5.97694 76.5338 5.81893 73.795 6.39828Z" fill="url(#paint32_linear_78_173489)"/>
<path d="M76.1655 8.82088C70.3968 9.49149 64.5924 9.8081 58.785 9.7689C48.2199 10.8756 38.1624 14.8658 29.7121 21.3032C27.8161 22.7779 29.7121 23.252 31.6609 21.7772C39.7306 16.1857 49.0056 12.5767 58.7323 11.2436C64.7827 11.5222 70.8449 11.098 76.7975 9.97956C80.8003 8.39952 78.9569 8.03085 76.1655 8.82088Z" fill="url(#paint33_linear_78_173489)"/>
<path d="M76.6919 11.7179C71.1863 12.3677 65.645 12.6668 60.1014 12.6133C50.0871 13.5669 40.516 17.2062 32.3979 23.1469C30.6072 24.5163 32.3979 24.9376 34.2413 23.6209C41.9439 18.4463 50.7418 15.129 59.9434 13.93C65.755 14.0461 71.5628 13.5518 77.2712 12.4553C81.0634 11.3493 79.3253 11.1913 76.6919 11.7179Z" fill="url(#paint34_linear_78_173489)"/>
<path d="M77.0604 14.2988C71.6116 15.0067 66.1225 15.3586 60.6279 15.3522C51.6558 15.8195 43.0235 18.9352 35.8212 24.3058C32.6611 26.8865 34.7152 27.0445 36.7166 25.5172C43.8227 20.5498 52.0998 17.5185 60.7333 16.7216C66.4281 16.8452 72.1184 16.315 77.6924 15.1415C81.4319 13.9301 79.7465 13.7195 77.0604 14.2988Z" fill="url(#paint35_linear_78_173489)"/>
<path d="M77.0079 17.1425C72.9271 18.8288 68.507 19.5324 64.1042 19.1965C54.5609 19.3362 45.2506 22.1658 37.2435 27.3601C35.3474 28.7822 35.3474 30.6782 38.8762 28.5188C48.3038 22.778 61.7868 21.04 59.9434 22.462C58.1 23.884 45.6177 26.2541 38.8762 29.6249C36.4007 30.8362 36.4534 32.5743 38.8762 31.6789C44.1937 29.4099 49.7132 27.6465 55.3613 26.4121C58.3409 25.9819 61.1071 24.6173 63.2615 22.5147C67.791 20.3553 73.0578 21.1979 77.2186 18.5645C78.6407 17.4585 79.536 15.7731 77.0079 17.1425Z" fill="url(#paint36_linear_78_173489)"/>
<path d="M55.9936 27.8871C50.124 28.755 44.4005 30.4206 38.9818 32.8379C36.9277 33.8386 38.3498 34.7339 39.8771 34.2599C45.2182 32.227 50.7132 30.6243 56.3096 29.4671C58.6885 29.26 60.974 28.4438 62.9458 27.097C64.3679 26.2017 64.4732 25.201 65.5265 24.9376C70.056 23.8316 75.5862 22.8836 76.9029 20.3029C72.8505 22.0359 68.5798 23.2055 64.2098 23.779C62.5245 24.3583 60.7864 27.4131 55.9936 27.8871Z" fill="url(#paint37_linear_78_173489)"/>
<path d="M57.9421 30.415C51.72 31.314 45.6559 33.0871 39.9296 35.6818C37.7175 36.7878 39.2449 37.7885 40.8249 37.2619C46.4776 35.0194 52.3093 33.2575 58.2581 31.995C60.7989 31.743 63.2308 30.8356 65.3156 29.3616C66.7904 28.3609 66.9484 27.2549 68.0017 26.9916C72.8472 25.7275 78.5354 24.6742 80.1154 21.7247C76.218 24.5161 70.2138 24.2001 66.6323 25.6222C64.947 26.5702 62.9983 29.8883 57.9421 30.415Z" fill="url(#paint38_linear_78_173489)"/>
<path d="M91.8081 24.0947C89.0181 23.6042 86.1457 23.9335 83.5392 25.0428C72.6895 28.6769 71.3728 32.0476 64.9473 34.8917C57.6026 38.3079 49.552 39.9325 41.4573 39.6319C39.1399 39.6319 38.1392 40.5799 40.9833 41.0539C49.7923 41.7711 58.6219 39.943 66.422 35.7871C76.0076 30.5203 79.4837 26.4122 87.4893 25.2535C91.0707 24.7794 92.2294 24.4108 91.8081 24.0947Z" fill="url(#paint39_linear_78_173489)"/>
<path d="M92.9659 27.1497C90.1868 26.7473 87.3508 27.0927 84.7496 28.1504C73.9 31.7845 72.5833 35.1552 66.1577 37.9993C58.9364 41.6187 50.889 43.2717 42.8257 42.7921C38.6649 42.7921 39.0863 43.6348 42.3517 44.2142C51.1366 45.0392 59.9724 43.3013 67.7905 39.2107C77.3761 33.9439 78.3241 30.3624 88.8577 28.6771C92.1232 27.887 93.5452 27.413 92.9659 27.1497Z" fill="url(#paint40_linear_78_173489)"/>
<path d="M76.007 36.4194C72.847 38.2627 68.8968 39.7375 65.4734 41.3702C58.3297 45.1417 50.2307 46.7175 42.1941 45.8996C38.0333 45.8996 38.4546 46.7423 41.72 47.3217C50.6773 48.2826 59.7122 46.4425 67.5801 42.0549C71.1616 39.7375 74.1636 38.6841 76.323 37.4201C78.5517 36.0935 80.3735 34.1806 81.5899 31.8899C79.9447 33.6478 78.0663 35.1718 76.007 36.4194Z" fill="url(#paint41_linear_78_173489)"/>
<path d="M76.4813 39.6319C73.2686 41.4752 69.2658 42.9499 65.9477 44.5827C58.7043 48.3404 50.5256 49.9139 42.405 49.1121C38.1915 49.1121 38.6129 49.9548 41.931 50.5342C51.0416 51.5252 60.2364 49.6862 68.2651 45.2674C71.8465 42.9499 74.9539 41.8966 77.0607 40.6325C79.2692 39.3973 81.0922 37.5742 82.3275 35.3657C80.5797 37.0445 78.6132 38.4795 76.4813 39.6319Z" fill="url(#paint42_linear_78_173489)"/>
<path d="M77.6925 41.5808C74.427 43.5295 70.3189 45.0569 67.1588 46.8476C59.7008 50.8977 51.2382 52.7255 42.7734 52.1144C38.402 52.1144 38.8233 53.0625 42.2994 53.5891C51.7211 54.2578 61.1324 52.1522 69.3709 47.5323C73.1103 45.1096 76.2704 44.0035 78.4298 42.6342C80.7006 41.3135 82.5324 39.3535 83.6966 36.9987C81.907 38.7852 79.888 40.3261 77.6925 41.5808Z" fill="url(#paint43_linear_78_173489)"/>
<path d="M67.7911 49.2704C59.7622 53.3149 50.796 55.1336 41.8257 54.5372C37.1909 54.5372 37.6649 55.5379 41.3517 56.0119C51.3525 56.6863 61.3441 54.5713 70.2139 49.9024C74.164 47.5323 77.5347 46.3736 79.9048 45.0043C82.2432 43.6854 84.1605 41.7316 85.435 39.3688C83.583 41.2105 81.5137 42.82 79.2728 44.1616C75.5334 45.9523 71.1619 47.5324 67.7911 49.2704Z" fill="url(#paint44_linear_78_173489)"/>
<path d="M81.1158 23.8318C77.5802 25.4668 73.9583 26.9085 70.2662 28.1505C69.8341 28.1898 69.4147 28.3176 69.0341 28.526C68.6535 28.7344 68.3199 29.019 68.0541 29.3619C65.2213 32.1565 61.4885 33.855 57.5205 34.1547C52.3632 34.9402 47.2988 36.2461 42.4047 38.0522C40.298 38.7369 40.5087 39.4742 42.4047 39.3689C47.5476 38.732 52.6355 37.7109 57.6258 36.3141C62.0574 35.7131 66.2339 33.8893 69.6868 31.0473L70.2662 30.5206C73.6186 28.3744 77.1417 26.5071 80.7998 24.9378C83.2128 24.1288 85.6758 23.4779 88.1734 22.9891C85.7914 22.9028 83.4105 23.1871 81.1158 23.8318Z" fill="url(#paint45_linear_78_173489)"/>
<path d="M69.529 51.5876C65.9476 52.957 67.1063 53.747 70.2664 52.4303C79.4307 48.6382 84.7501 45.6361 86.0668 40.58C81.8171 45.8622 76.0423 49.706 69.529 51.5876Z" fill="url(#paint46_linear_78_173489)"/>
<path d="M11.3831 31.4685C11.6684 31.7681 12.0116 32.0066 12.3918 32.1695C12.7721 32.3325 13.1815 32.4165 13.5952 32.4165L10.9618 29.5198C10.8718 30.1986 11.0207 30.8875 11.3831 31.4685Z" fill="url(#paint47_linear_78_173489)"/>
<path style="mix-blend-mode:screen" d="M11.3831 31.4685C11.6684 31.7681 12.0116 32.0066 12.3918 32.1695C12.7721 32.3325 13.1815 32.4165 13.5952 32.4165L10.9618 29.5198C10.8718 30.1986 11.0207 30.8875 11.3831 31.4685Z" fill="url(#paint48_radial_78_173489)"/>
<path d="M11.489 31.4158C11.1126 30.8575 10.9278 30.1922 10.9623 29.5198C10.8391 30.2095 10.97 30.9206 11.3309 31.5212C11.5908 31.8068 11.9082 32.0342 12.2622 32.1885C12.6162 32.3428 12.9988 32.4205 13.385 32.4165C12.6557 32.3141 11.9851 31.9601 11.489 31.4158Z" fill="#1E2D23"/>
<path d="M32.7139 40.3693C32.1659 40.9489 31.5666 41.4777 30.9232 41.9493C30.1522 42.5096 29.2735 42.9042 28.3425 43.108C28.0265 48.3748 30.2385 58.4344 33.2406 59.4351C36.2427 60.4358 40.5088 55.7484 39.9295 50.3235C38.84 46.2264 36.2689 42.6793 32.7139 40.3693Z" fill="url(#paint49_radial_78_173489)"/>
<path d="M38.8236 50.1657C38.5174 48.2682 37.8269 46.4533 36.7944 44.8322C35.762 43.2111 34.4093 41.8179 32.8194 40.738C34.506 42.3455 35.6789 44.4164 36.1902 46.6895C35.3991 45.003 34.2697 43.4971 32.8721 42.2654C33.7138 44.6833 34.8269 46.9979 36.1902 49.165C34.1533 47.3407 32.5669 45.0692 31.5554 42.5288C32.0169 45.8014 33.0321 48.9717 34.5575 51.9037C32.5135 49.0942 31.0457 45.908 30.2387 42.5288C30.4038 46.6378 31.3513 50.6777 33.0301 54.4318C30.8325 50.9239 29.4635 46.9612 29.0273 42.8448H28.132C27.8159 48.1116 29.7647 56.2752 32.2927 58.0132C34.8208 59.7513 39.1923 56.1698 38.8236 50.1657Z" fill="url(#paint50_radial_78_173489)"/>
<path style="mix-blend-mode:screen" opacity="0.5" d="M37.612 49.5861C37.2229 46.7647 35.9075 44.1525 33.8726 42.1599C32.5032 40.8432 28.6058 42.6866 28.6058 44.7933C28.6282 49.1497 29.8098 53.4216 32.0292 57.1703C33.5039 59.0137 38.1387 55.0109 37.612 49.5861Z" fill="url(#paint51_linear_78_173489)"/>
<path style="mix-blend-mode:screen" opacity="0.7" d="M29.1331 44.3193C29.1331 47.3741 30.2918 55.5377 33.6098 56.591C30.8083 53.1043 29.2347 48.791 29.1331 44.3193Z" fill="url(#paint52_linear_78_173489)"/>
<path d="M32.7667 40.2637C32.2255 40.8348 31.6253 41.3468 30.976 41.7911C30.2034 42.3601 29.3266 42.7717 28.3952 43.0024C28.0792 48.2692 30.2913 58.3815 33.3987 59.4349H34.0307C34.7537 59.3652 35.4544 59.1468 36.0889 58.7933C36.7233 58.4398 37.2778 57.9589 37.7175 57.3808C38.5739 56.3988 39.2211 55.2524 39.6196 54.0118C40.018 52.7712 40.1593 51.4624 40.0349 50.1653C38.916 46.0814 36.3275 42.5551 32.7667 40.2637ZM37.4542 57.4335C37.0215 57.9898 36.4815 58.4535 35.8663 58.7973C35.2512 59.1411 34.5732 59.3579 33.8727 59.4349C33.6834 59.489 33.4827 59.489 33.2934 59.4349C30.344 58.4869 28.0266 48.9013 28.3952 43.3184C29.3226 43.0767 30.1975 42.6661 30.976 42.1071C31.6186 41.6748 32.2028 41.1614 32.714 40.5797C36.1938 42.7912 38.7421 46.2015 39.8769 50.1653C39.9883 51.4779 39.8308 52.7993 39.4143 54.049C38.9977 55.2987 38.3308 56.4503 37.4542 57.4335Z" fill="#00163D"/>
<path d="M29.8173 42.5814C30.1067 46.6423 31.2176 50.6022 33.0827 54.221C31.3206 50.5538 30.2664 46.5869 29.9753 42.5287L29.8173 42.5814Z" fill="#00163D"/>
<path d="M30.923 41.8438C31.4711 45.2694 32.6689 48.5587 34.4517 51.5347C32.7445 48.5379 31.602 45.2531 31.081 41.8438H30.923Z" fill="#00163D"/>
<path d="M31.7665 41.2117C32.5786 43.9171 34.0229 46.3904 35.9799 48.4273C34.1205 46.3248 32.7371 43.8456 31.9245 41.1591L31.7665 41.2117Z" fill="#00163D"/>
<path d="M32.1871 40.8958C33.6757 42.3416 34.9523 43.9906 35.9792 45.7939C35.013 43.9509 33.7293 42.2928 32.1871 40.8958Z" fill="#00163D"/>
<path d="M30.923 41.7913C29.7403 42.5772 28.385 43.0652 26.9728 43.2134C27.3977 43.3707 27.8647 43.3707 28.2895 43.2134C29.2963 42.9863 30.2462 42.5562 31.081 41.9493C31.7722 41.458 32.408 40.8928 32.977 40.2639C33.5355 39.6537 33.9654 38.9372 34.2411 38.1572C33.3316 39.5345 32.212 40.7607 30.923 41.7913Z" fill="#050707"/>
<path d="M23.708 25.8855C23.7666 26.3339 23.7329 26.7895 23.609 27.2244C23.4851 27.6593 23.2736 28.0642 22.9876 28.4144C22.7015 28.7646 22.3469 29.0526 21.9455 29.2608C21.544 29.469 21.1043 29.5929 20.6533 29.625C19.7533 29.5318 18.9268 29.0862 18.3544 28.3855C17.7819 27.6848 17.5102 26.786 17.5985 25.8855C17.5985 23.5155 18.8626 21.7247 20.706 21.7247C22.5493 21.7247 23.708 23.8315 23.708 25.8855Z" fill="black"/>
<path d="M23.8129 25.9381C23.9185 26.8229 23.675 27.714 23.1341 28.4221C22.5932 29.1301 21.7975 29.5994 20.9161 29.7302C18.9148 29.9936 17.6507 28.3609 17.4927 25.8855C17.3347 23.4101 18.4407 21.356 20.2841 21.198C22.1275 21.04 23.8129 22.8834 23.8129 25.9381Z" fill="url(#paint53_linear_78_173489)"/>
<path d="M23.6024 25.9384C23.474 26.4868 23.1938 26.9879 22.794 27.3846C22.3941 27.7813 21.8908 28.0576 21.3414 28.1818C20.792 28.3059 20.2188 28.2731 19.6872 28.0869C19.1556 27.9007 18.6871 27.5688 18.3353 27.1289C17.9834 26.6891 17.7624 26.1592 17.6974 25.5997C17.6325 25.0402 17.7262 24.4738 17.968 23.965C18.2097 23.4563 18.5897 23.0258 19.0645 22.7228C19.5393 22.4199 20.0898 22.2566 20.653 22.2516C21.5239 22.37 22.3159 22.8189 22.865 23.5052C23.414 24.1915 23.6781 25.0627 23.6024 25.9384Z" fill="url(#paint54_radial_78_173489)"/>
<path style="mix-blend-mode:screen" opacity="0.9" d="M20.9162 23.0942C20.9333 23.2602 20.8893 23.4267 20.7923 23.5625C20.6953 23.6983 20.5521 23.794 20.3895 23.8316C20.3082 23.8256 20.2291 23.8025 20.1573 23.7638C20.0855 23.7251 20.0227 23.6717 19.973 23.6071C19.9233 23.5424 19.8878 23.468 19.8688 23.3887C19.8498 23.3095 19.8478 23.227 19.8628 23.1469C19.9017 23.0165 19.9817 22.9021 20.0908 22.8207C20.1999 22.7394 20.3324 22.6954 20.4685 22.6954C20.6046 22.6954 20.7371 22.7394 20.8462 22.8207C20.9554 22.9021 21.0353 23.0165 21.0742 23.1469L20.9162 23.0942Z" fill="url(#paint55_radial_78_173489)"/>
<path d="M20.653 29.7302C19.7541 29.6115 18.9355 29.1515 18.3667 28.4454C17.798 27.7394 17.5228 26.8415 17.5982 25.9381C17.5237 25.0404 17.8005 24.1489 18.3704 23.4514C18.9402 22.7538 19.7585 22.3047 20.653 22.1986C21.1013 22.2379 21.5372 22.3666 21.935 22.577C22.3328 22.7875 22.6844 23.0755 22.9691 23.424C23.2538 23.7725 23.4658 24.1746 23.5927 24.6063C23.7196 25.0381 23.7587 25.4909 23.7077 25.9381C23.7832 26.8415 23.508 27.7394 22.9393 28.4454C22.3705 29.1515 21.5518 29.6115 20.653 29.7302ZM20.653 22.3566C19.851 22.5526 19.138 23.012 18.6281 23.6614C18.1183 24.3108 17.8412 25.1125 17.8412 25.9381C17.8412 26.7637 18.1183 27.5653 18.6281 28.2147C19.138 28.8641 19.851 29.3236 20.653 29.5195C21.5055 29.4137 22.2838 28.9813 22.8241 28.3133C23.3643 27.6454 23.6245 26.7939 23.5497 25.9381C23.4971 23.8313 22.233 22.304 20.653 22.3566Z" fill="black"/>
<path d="M20.3893 23.8316C19.7792 23.8982 19.2186 24.1989 18.8257 24.6704C18.4327 25.1419 18.2381 25.7475 18.2826 26.3597C18.344 26.7827 18.5266 27.1789 18.8083 27.5003C19.0901 27.8218 19.459 28.0547 19.8703 28.1709C20.2817 28.2871 20.7179 28.2816 21.1262 28.1552C21.5345 28.0287 21.8975 27.7867 22.1711 27.4583C22.4448 27.1299 22.6174 26.7293 22.6682 26.3048C22.7189 25.8804 22.6456 25.4504 22.4571 25.0667C22.2687 24.6831 21.9731 24.3622 21.6061 24.1431C21.2391 23.9239 20.8165 23.8157 20.3893 23.8316Z" fill="url(#paint56_radial_78_173489)"/>
<path d="M20.3897 24.7795C19.9741 24.8516 19.5972 25.0682 19.3255 25.3909C19.0539 25.7137 18.905 26.122 18.905 26.5439C18.905 26.9658 19.0539 27.3741 19.3255 27.6969C19.5972 28.0197 19.9741 28.2362 20.3897 28.3083C20.8416 28.268 21.2598 28.0527 21.555 27.7082C21.8502 27.3638 21.9991 26.9176 21.9698 26.4649C21.9706 26.0356 21.8076 25.6221 21.5139 25.3089C21.2203 24.9957 20.8182 24.8064 20.3897 24.7795Z" fill="black"/>
<path style="mix-blend-mode:screen" opacity="0.5" d="M21.9171 26.5703C21.8946 26.6494 21.8496 26.7202 21.7874 26.774C21.7252 26.8278 21.6487 26.8623 21.5672 26.8731C21.4857 26.8839 21.4028 26.8707 21.3288 26.835C21.2547 26.7993 21.1927 26.7427 21.1504 26.6722C21.1081 26.6017 21.0873 26.5204 21.0907 26.4382C21.094 26.3561 21.1214 26.2767 21.1693 26.2099C21.2172 26.1431 21.2836 26.0917 21.3603 26.0622C21.437 26.0327 21.5207 26.0262 21.6011 26.0436C21.6573 26.0558 21.7104 26.0795 21.7572 26.113C21.804 26.1465 21.8434 26.1893 21.873 26.2386C21.9026 26.288 21.9218 26.3429 21.9294 26.3999C21.9369 26.457 21.9328 26.515 21.9171 26.5703Z" fill="url(#paint57_radial_78_173489)"/>
<path style="mix-blend-mode:screen" d="M19.8099 24.3051C19.1779 24.6738 18.8619 25.2532 19.0199 25.6218C19.1779 25.9905 19.8626 25.9905 20.4946 25.6218C21.1266 25.2532 21.4426 24.7265 21.2846 24.3578C21.1266 23.9891 20.3893 23.8311 19.8099 24.3051Z" fill="url(#paint58_linear_78_173489)"/>
<path style="mix-blend-mode:screen" opacity="0.8" d="M82.1693 21.7775C88.7002 17.3007 89.9642 11.9286 92.7029 11.2439C94.283 10.8226 96.9164 12.0866 98.5491 15.5627C96.6004 13.1399 94.757 12.2973 93.2823 12.7186C89.9642 13.614 89.1742 19.0388 82.1693 21.7775Z" fill="url(#paint59_linear_78_173489)"/>
<path style="mix-blend-mode:screen" opacity="0.6" d="M2.69304 26.2015C2.85722 25.9768 3.08837 25.8098 3.35332 25.7247C3.61828 25.6395 3.90339 25.6405 4.16775 25.7275C5.53712 26.2015 6.01114 28.2028 7.11717 29.9936C5.69513 28.6242 4.90511 26.0435 2.69304 26.2015Z" fill="url(#paint60_linear_78_173489)"/>
<path style="mix-blend-mode:screen" opacity="0.5" d="M1.85002 32.2583C0.480649 34.207 2.85072 37.5251 10.8036 33.575C4.58877 35.9451 1.48135 34.7864 1.85002 32.2583Z" fill="url(#paint61_linear_78_173489)"/>
<path style="mix-blend-mode:screen" opacity="0.1" d="M18.7572 30.1516C19.8571 30.6022 21.0881 30.613 22.1958 30.1817C23.3034 29.7504 24.203 28.91 24.7087 27.8342C23.0759 31.205 20.0212 31.995 18.7572 30.1516Z" fill="url(#paint62_linear_78_173489)"/>
<path style="mix-blend-mode:screen" opacity="0.2" d="M16.3341 26.7284C14.2801 24.253 17.0188 20.8822 21.6009 18.0908C17.8615 19.6182 12.068 23.8317 16.3341 26.7284Z" fill="url(#paint63_linear_78_173489)"/>
<defs>
<radialGradient id="paint0_radial_78_173489" cx="0" cy="0" r="1" gradientUnits="userSpaceOnUse" gradientTransform="translate(20.4419 59.7514) scale(10.7443 10.7443)">
<stop stop-color="#003392"/>
<stop offset="1" stop-color="#002574"/>
</radialGradient>
<radialGradient id="paint1_radial_78_173489" cx="0" cy="0" r="1" gradientUnits="userSpaceOnUse" gradientTransform="translate(20.4425 59.7512) scale(10.7443 10.7443)">
<stop stop-color="#0066ED"/>
<stop offset="0.18" stop-color="#005CDA"/>
<stop offset="1" stop-color="#003083"/>
</radialGradient>
<linearGradient id="paint2_linear_78_173489" x1="21.3377" y1="61.0152" x2="28.3426" y2="61.9632" gradientUnits="userSpaceOnUse">
<stop stop-color="#3F9CF7"/>
<stop offset="0.2" stop-color="#2E71B4"/>
<stop offset="0.41" stop-color="#1E4974"/>
<stop offset="0.61" stop-color="#112A42"/>
<stop offset="0.78" stop-color="#08131E"/>
<stop offset="0.91" stop-color="#020508"/>
<stop offset="1"/>
</linearGradient>
<linearGradient id="paint3_linear_78_173489" x1="21.1267" y1="60.8047" x2="23.7074" y2="60.9627" gradientUnits="userSpaceOnUse">
<stop stop-color="#AFD6FC"/>
<stop offset="0.28" stop-color="#7994AE"/>
<stop offset="0.63" stop-color="#394551"/>
<stop offset="0.88" stop-color="#101317"/>
<stop offset="1"/>
</linearGradient>
<linearGradient id="paint4_linear_78_173489" x1="45.5121" y1="4.87066" x2="60.2592" y2="55.8535" gradientUnits="userSpaceOnUse">
<stop stop-color="#FDA700"/>
<stop offset="0.99" stop-color="#EF9200"/>
</linearGradient>
<linearGradient id="paint5_linear_78_173489" x1="45.4071" y1="4.92358" x2="60.1015" y2="55.9064" gradientUnits="userSpaceOnUse">
<stop stop-color="#FFD100"/>
<stop offset="0.99" stop-color="#FD9D00"/>
</linearGradient>
<linearGradient id="paint6_linear_78_173489" x1="42.563" y1="5.34483" x2="52.7806" y2="31.4156" gradientUnits="userSpaceOnUse">
<stop stop-color="#CACACA"/>
<stop offset="0.65" stop-color="#474747"/>
<stop offset="0.99"/>
</linearGradient>
<linearGradient id="paint7_linear_78_173489" x1="81.0632" y1="19.8814" x2="101.024" y2="19.8814" gradientUnits="userSpaceOnUse">
<stop stop-color="#CACACA"/>
<stop offset="0.65" stop-color="#474747"/>
<stop offset="0.99"/>
</linearGradient>
<linearGradient id="paint8_linear_78_173489" x1="5.74783" y1="22.5148" x2="21.2323" y2="22.5148" gradientUnits="userSpaceOnUse">
<stop stop-color="white"/>
<stop offset="0.79"/>
<stop offset="1"/>
</linearGradient>
<linearGradient id="paint9_linear_78_173489" x1="18.0724" y1="20.3028" x2="28.9748" y2="53.7998" gradientUnits="userSpaceOnUse">
<stop stop-color="#272627"/>
<stop offset="0.42" stop-color="#181718"/>
<stop offset="1" stop-color="#060606"/>
</linearGradient>
<linearGradient id="paint10_linear_78_173489" x1="5.85329" y1="25.2535" x2="17.2823" y2="49.1122" gradientUnits="userSpaceOnUse">
<stop stop-color="#506853"/>
<stop offset="1" stop-color="#234632"/>
</linearGradient>
<linearGradient id="paint11_linear_78_173489" x1="16.1758" y1="20.3027" x2="33.0823" y2="56.3804" gradientUnits="userSpaceOnUse">
<stop stop-color="#313031"/>
<stop offset="0.85" stop-color="#0D0D0D"/>
<stop offset="1" stop-color="#060606"/>
</linearGradient>
<linearGradient id="paint12_linear_78_173489" x1="1.64014" y1="26.5176" x2="18.652" y2="39.1579" gradientUnits="userSpaceOnUse">
<stop stop-color="#607559"/>
<stop offset="1" stop-color="#375347"/>
</linearGradient>
<radialGradient id="paint13_radial_78_173489" cx="0" cy="0" r="1" gradientUnits="userSpaceOnUse" gradientTransform="translate(4.95823 24.5688) scale(12.693)">
<stop stop-color="#41534A"/>
<stop offset="1"/>
</radialGradient>
<radialGradient id="paint14_radial_78_173489" cx="0" cy="0" r="1" gradientUnits="userSpaceOnUse" gradientTransform="translate(26.2353 61.7527) scale(10.797 10.797)">
<stop stop-color="#003392"/>
<stop offset="1" stop-color="#002574"/>
</radialGradient>
<radialGradient id="paint15_radial_78_173489" cx="0" cy="0" r="1" gradientUnits="userSpaceOnUse" gradientTransform="translate(26.2357 61.7527) scale(10.797 10.797)">
<stop stop-color="#0066ED"/>
<stop offset="0.18" stop-color="#005CDA"/>
<stop offset="1" stop-color="#003083"/>
</radialGradient>
<linearGradient id="paint16_linear_78_173489" x1="24.5504" y1="61.6997" x2="35.9267" y2="63.2797" gradientUnits="userSpaceOnUse">
<stop stop-color="#3F9CF7"/>
<stop offset="0.2" stop-color="#2E71B4"/>
<stop offset="0.41" stop-color="#1E4974"/>
<stop offset="0.61" stop-color="#112A42"/>
<stop offset="0.78" stop-color="#08131E"/>
<stop offset="0.91" stop-color="#020508"/>
<stop offset="1"/>
</linearGradient>
<linearGradient id="paint17_linear_78_173489" x1="26.9698" y1="62.5999" x2="29.4606" y2="61.7307" gradientUnits="userSpaceOnUse">
<stop stop-color="#AFD6FC"/>
<stop offset="0.28" stop-color="#7994AE"/>
<stop offset="0.63" stop-color="#394551"/>
<stop offset="0.88" stop-color="#101317"/>
<stop offset="1"/>
</linearGradient>
<linearGradient id="paint18_linear_78_173489" x1="1.90279" y1="26.0438" x2="19.1779" y2="38.8948" gradientUnits="userSpaceOnUse">
<stop stop-color="#607559"/>
<stop offset="1" stop-color="#375347"/>
</linearGradient>
<radialGradient id="paint19_radial_78_173489" cx="0" cy="0" r="1" gradientUnits="userSpaceOnUse" gradientTransform="translate(4.95754 24.5691) scale(12.693 12.693)">
<stop stop-color="#41534A"/>
<stop offset="1"/>
</radialGradient>
<linearGradient id="paint20_linear_78_173489" x1="-0.624798" y1="29.4672" x2="16.703" y2="42.2656" gradientUnits="userSpaceOnUse">
<stop stop-color="#607559"/>
<stop offset="1" stop-color="#375347"/>
</linearGradient>
<radialGradient id="paint21_radial_78_173489" cx="0" cy="0" r="1" gradientUnits="userSpaceOnUse" gradientTransform="translate(4.95803 24.5691) scale(12.693 12.693)">
<stop stop-color="#41534A"/>
<stop offset="0.45" stop-color="#1E2722"/>
<stop offset="0.8" stop-color="#080B09"/>
<stop offset="1"/>
</radialGradient>
<radialGradient id="paint22_radial_78_173489" cx="0" cy="0" r="1" gradientUnits="userSpaceOnUse" gradientTransform="translate(10.5936 32.153) scale(6.10951 6.10953)">
<stop stop-color="#130000"/>
<stop offset="0.26" stop-color="#1E0300"/>
<stop offset="0.56" stop-color="#310700"/>
<stop offset="0.67" stop-color="#3B0500"/>
<stop offset="1" stop-color="#540000"/>
</radialGradient>
<radialGradient id="paint23_radial_78_173489" cx="0" cy="0" r="1" gradientUnits="userSpaceOnUse" gradientTransform="translate(3.11476 33.1013) scale(8.21625 8.21628)">
<stop stop-color="#FD9F9F"/>
<stop offset="1" stop-color="#F37171"/>
</radialGradient>
<radialGradient id="paint24_radial_78_173489" cx="0" cy="0" r="1" gradientUnits="userSpaceOnUse" gradientTransform="translate(3.06189 33.1011) scale(7.68955 7.68956)">
<stop stop-color="#F5B8B8"/>
<stop offset="1" stop-color="#FF9999"/>
</radialGradient>
<radialGradient id="paint25_radial_78_173489" cx="0" cy="0" r="1" gradientUnits="userSpaceOnUse" gradientTransform="translate(3.21989 32.7851) scale(2.21206 2.21208)">
<stop stop-color="#F5B8B8"/>
<stop offset="0.02" stop-color="#E6ADAD"/>
<stop offset="0.13" stop-color="#AA8080"/>
<stop offset="0.24" stop-color="#765959"/>
<stop offset="0.34" stop-color="#4C3939"/>
<stop offset="0.44" stop-color="#2B2020"/>
<stop offset="0.53" stop-color="#130E0E"/>
<stop offset="0.62" stop-color="#050404"/>
<stop offset="0.69"/>
<stop offset="1"/>
</radialGradient>
<radialGradient id="paint26_radial_78_173489" cx="0" cy="0" r="1" gradientUnits="userSpaceOnUse" gradientTransform="translate(3.90466 34.1543) scale(3.26543)">
<stop stop-color="#F5B8B8"/>
<stop offset="0.02" stop-color="#E6ADAD"/>
<stop offset="0.13" stop-color="#AA8080"/>
<stop offset="0.24" stop-color="#765959"/>
<stop offset="0.34" stop-color="#4C3939"/>
<stop offset="0.44" stop-color="#2B2020"/>
<stop offset="0.53" stop-color="#130E0E"/>
<stop offset="0.62" stop-color="#050404"/>
<stop offset="0.69"/>
<stop offset="1"/>
</radialGradient>
<linearGradient id="paint27_linear_78_173489" x1="11.436" y1="35.5764" x2="20.7056" y2="35.5764" gradientUnits="userSpaceOnUse">
<stop offset="0.03" stop-color="#00226E"/>
<stop offset="0.04" stop-color="#00216D"/>
<stop offset="0.25" stop-color="#00135F"/>
<stop offset="0.52" stop-color="#000B57"/>
<stop offset="1" stop-color="#000955"/>
</linearGradient>
<linearGradient id="paint28_linear_78_173489" x1="11.5411" y1="21.4087" x2="22.9701" y2="57.8024" gradientUnits="userSpaceOnUse">
<stop stop-color="#005CFF"/>
<stop offset="0.12" stop-color="#0053E9"/>
<stop offset="0.54" stop-color="#0037A0"/>
<stop offset="0.85" stop-color="#002673"/>
<stop offset="1" stop-color="#001F62"/>
</linearGradient>
<linearGradient id="paint29_linear_78_173489" x1="21.4431" y1="18.3012" x2="32.8721" y2="54.6949" gradientUnits="userSpaceOnUse">
<stop stop-color="#005CFF"/>
<stop offset="0.12" stop-color="#0053E9"/>
<stop offset="0.54" stop-color="#0037A0"/>
<stop offset="0.85" stop-color="#002673"/>
<stop offset="1" stop-color="#001F62"/>
</linearGradient>
<linearGradient id="paint30_linear_78_173489" x1="47.8824" y1="5.87166" x2="61.5235" y2="54.9584" gradientUnits="userSpaceOnUse">
<stop stop-color="#005CFF"/>
<stop offset="0.12" stop-color="#0053E9"/>
<stop offset="0.54" stop-color="#0037A0"/>
<stop offset="0.85" stop-color="#002673"/>
<stop offset="1" stop-color="#001F62"/>
</linearGradient>
<linearGradient id="paint31_linear_78_173489" x1="47.6714" y1="3.65963" x2="51.2529" y2="14.7726" gradientUnits="userSpaceOnUse">
<stop stop-color="white"/>
<stop offset="0.24" stop-color="#C5C5C5"/>
<stop offset="0.8" stop-color="#343434"/>
<stop offset="0.99"/>
</linearGradient>
<linearGradient id="paint32_linear_78_173489" x1="49.4623" y1="5.39758" x2="63.1034" y2="54.5371" gradientUnits="userSpaceOnUse">
<stop stop-color="#005CFF"/>
<stop offset="0.12" stop-color="#0053E9"/>
<stop offset="0.54" stop-color="#0037A0"/>
<stop offset="0.85" stop-color="#002673"/>
<stop offset="1" stop-color="#001F62"/>
</linearGradient>
<linearGradient id="paint33_linear_78_173489" x1="51.0954" y1="4.97609" x2="64.7365" y2="54.0629" gradientUnits="userSpaceOnUse">
<stop stop-color="#005CFF"/>
<stop offset="0.12" stop-color="#0053E9"/>
<stop offset="0.54" stop-color="#0037A0"/>
<stop offset="0.85" stop-color="#002673"/>
<stop offset="1" stop-color="#001F62"/>
</linearGradient>
<linearGradient id="paint34_linear_78_173489" x1="51.8852" y1="4.71307" x2="65.5262" y2="53.8525" gradientUnits="userSpaceOnUse">
<stop stop-color="#005CFF"/>
<stop offset="0.12" stop-color="#0053E9"/>
<stop offset="0.54" stop-color="#0037A0"/>
<stop offset="0.85" stop-color="#002673"/>
<stop offset="1" stop-color="#001F62"/>
</linearGradient>
<linearGradient id="paint35_linear_78_173489" x1="52.675" y1="4.50253" x2="66.3161" y2="53.642" gradientUnits="userSpaceOnUse">
<stop stop-color="#005CFF"/>
<stop offset="0.12" stop-color="#0053E9"/>
<stop offset="0.54" stop-color="#0037A0"/>
<stop offset="0.85" stop-color="#002673"/>
<stop offset="1" stop-color="#001F62"/>
</linearGradient>
<linearGradient id="paint36_linear_78_173489" x1="52.2012" y1="4.66012" x2="65.8423" y2="53.7996" gradientUnits="userSpaceOnUse">
<stop stop-color="#005CFF"/>
<stop offset="0.12" stop-color="#0053E9"/>
<stop offset="0.54" stop-color="#0037A0"/>
<stop offset="0.85" stop-color="#002673"/>
<stop offset="1" stop-color="#001F62"/>
</linearGradient>
<linearGradient id="paint37_linear_78_173489" x1="51.2535" y1="4.92375" x2="64.9472" y2="54.0632" gradientUnits="userSpaceOnUse">
<stop stop-color="#005CFF"/>
<stop offset="0.12" stop-color="#0053E9"/>
<stop offset="0.54" stop-color="#0037A0"/>
<stop offset="0.85" stop-color="#002673"/>
<stop offset="1" stop-color="#001F62"/>
</linearGradient>
<linearGradient id="paint38_linear_78_173489" x1="52.5173" y1="4.55489" x2="66.1583" y2="53.6943" gradientUnits="userSpaceOnUse">
<stop stop-color="#005CFF"/>
<stop offset="0.12" stop-color="#0053E9"/>
<stop offset="0.54" stop-color="#0037A0"/>
<stop offset="0.85" stop-color="#002673"/>
<stop offset="1" stop-color="#001F62"/>
</linearGradient>
<linearGradient id="paint39_linear_78_173489" x1="57.5737" y1="3.13279" x2="71.2148" y2="52.2722" gradientUnits="userSpaceOnUse">
<stop stop-color="#005CFF"/>
<stop offset="0.12" stop-color="#0053E9"/>
<stop offset="0.54" stop-color="#0037A0"/>
<stop offset="0.85" stop-color="#002673"/>
<stop offset="1" stop-color="#001F62"/>
</linearGradient>
<linearGradient id="paint40_linear_78_173489" x1="57.5202" y1="3.18568" x2="71.1612" y2="52.3251" gradientUnits="userSpaceOnUse">
<stop stop-color="#005CFF"/>
<stop offset="0.12" stop-color="#0053E9"/>
<stop offset="0.54" stop-color="#0037A0"/>
<stop offset="0.85" stop-color="#002673"/>
<stop offset="1" stop-color="#001F62"/>
</linearGradient>
<linearGradient id="paint41_linear_78_173489" x1="51.0423" y1="4.97644" x2="64.6834" y2="54.1159" gradientUnits="userSpaceOnUse">
<stop stop-color="#005CFF"/>
<stop offset="0.12" stop-color="#0053E9"/>
<stop offset="0.54" stop-color="#0037A0"/>
<stop offset="0.85" stop-color="#002673"/>
<stop offset="1" stop-color="#001F62"/>
</linearGradient>
<linearGradient id="paint42_linear_78_173489" x1="50.5159" y1="5.13416" x2="64.157" y2="54.2736" gradientUnits="userSpaceOnUse">
<stop stop-color="#005CFF"/>
<stop offset="0.12" stop-color="#0053E9"/>
<stop offset="0.54" stop-color="#0037A0"/>
<stop offset="0.85" stop-color="#002673"/>
<stop offset="1" stop-color="#001F62"/>
</linearGradient>
<linearGradient id="paint43_linear_78_173489" x1="50.5157" y1="5.13438" x2="64.1567" y2="54.2738" gradientUnits="userSpaceOnUse">
<stop stop-color="#005CFF"/>
<stop offset="0.12" stop-color="#0053E9"/>
<stop offset="0.54" stop-color="#0037A0"/>
<stop offset="0.85" stop-color="#002673"/>
<stop offset="1" stop-color="#001F62"/>
</linearGradient>
<linearGradient id="paint44_linear_78_173489" x1="50.0946" y1="5.23978" x2="63.7357" y2="54.3792" gradientUnits="userSpaceOnUse">
<stop stop-color="#005CFF"/>
<stop offset="0.12" stop-color="#0053E9"/>
<stop offset="0.54" stop-color="#0037A0"/>
<stop offset="0.85" stop-color="#002673"/>
<stop offset="1" stop-color="#001F62"/>
</linearGradient>
<linearGradient id="paint45_linear_78_173489" x1="57.0991" y1="3.29115" x2="70.7402" y2="52.4306" gradientUnits="userSpaceOnUse">
<stop stop-color="#005CFF"/>
<stop offset="0.12" stop-color="#0053E9"/>
<stop offset="0.54" stop-color="#0037A0"/>
<stop offset="0.85" stop-color="#002673"/>
<stop offset="1" stop-color="#001F62"/>
</linearGradient>
<linearGradient id="paint46_linear_78_173489" x1="64.1569" y1="1.34215" x2="77.7979" y2="50.4816" gradientUnits="userSpaceOnUse">
<stop stop-color="#005CFF"/>
<stop offset="0.12" stop-color="#0053E9"/>
<stop offset="0.54" stop-color="#0037A0"/>
<stop offset="0.85" stop-color="#002673"/>
<stop offset="1" stop-color="#001F62"/>
</linearGradient>
<linearGradient id="paint47_linear_78_173489" x1="3.06154" y1="24.5163" x2="20.3367" y2="37.3147" gradientUnits="userSpaceOnUse">
<stop stop-color="#607559"/>
<stop offset="1" stop-color="#375347"/>
</linearGradient>
<radialGradient id="paint48_radial_78_173489" cx="0" cy="0" r="1" gradientUnits="userSpaceOnUse" gradientTransform="translate(4.95759 24.569) scale(12.693 12.693)">
<stop stop-color="#41534A"/>
<stop offset="0.45" stop-color="#1E2722"/>
<stop offset="0.8" stop-color="#080B09"/>
<stop offset="1"/>
</radialGradient>
<radialGradient id="paint49_radial_78_173489" cx="0" cy="0" r="1" gradientUnits="userSpaceOnUse" gradientTransform="translate(29.2378 51.6929) scale(11.903 11.903)">
<stop stop-color="#003392"/>
<stop offset="1" stop-color="#002574"/>
</radialGradient>
<radialGradient id="paint50_radial_78_173489" cx="0" cy="0" r="1" gradientUnits="userSpaceOnUse" gradientTransform="translate(29.238 51.693) scale(11.903 11.903)">
<stop stop-color="#0066ED"/>
<stop offset="0.18" stop-color="#005CDA"/>
<stop offset="1" stop-color="#003083"/>
</radialGradient>
<linearGradient id="paint51_linear_78_173489" x1="26.1304" y1="48.5854" x2="39.3501" y2="50.7448" gradientUnits="userSpaceOnUse">
<stop stop-color="#CACACA"/>
<stop offset="0.65" stop-color="#474747"/>
<stop offset="0.99"/>
</linearGradient>
<linearGradient id="paint52_linear_78_173489" x1="29.8177" y1="50.7975" x2="32.9252" y2="50.1128" gradientUnits="userSpaceOnUse">
<stop stop-color="#AFD6FC"/>
<stop offset="0.28" stop-color="#7994AE"/>
<stop offset="0.63" stop-color="#394551"/>
<stop offset="0.88" stop-color="#101317"/>
<stop offset="1"/>
</linearGradient>
<linearGradient id="paint53_linear_78_173489" x1="20.7055" y1="30.0989" x2="20.4948" y2="19.46" gradientUnits="userSpaceOnUse">
<stop stop-color="#272627"/>
<stop offset="0.42" stop-color="#181718"/>
<stop offset="1" stop-color="#060606"/>
</linearGradient>
<radialGradient id="paint54_radial_78_173489" cx="0" cy="0" r="1" gradientUnits="userSpaceOnUse" gradientTransform="translate(29.5534 77.5299) rotate(88.7885) scale(2.61556 2.13288)">
<stop stop-color="white"/>
<stop offset="0.54" stop-color="#ECECEC"/>
<stop offset="0.66" stop-color="#E9E9EA"/>
<stop offset="0.73" stop-color="#E1E1E2"/>
<stop offset="0.8" stop-color="#D2D2D6"/>
<stop offset="0.85" stop-color="#BDBDC4"/>
<stop offset="0.91" stop-color="#A2A2AD"/>
<stop offset="0.94" stop-color="#8C8C9A"/>
<stop offset="1" stop-color="#C5C5C5"/>
</radialGradient>
<radialGradient id="paint55_radial_78_173489" cx="0" cy="0" r="1" gradientUnits="userSpaceOnUse" gradientTransform="translate(19.1097 21.1245) rotate(5.14543) scale(0.557899 0.576492)">
<stop stop-color="white"/>
<stop offset="0.04" stop-color="#EDEDED"/>
<stop offset="0.19" stop-color="#AFAFAF"/>
<stop offset="0.34" stop-color="#7A7A7A"/>
<stop offset="0.49" stop-color="#4E4E4E"/>
<stop offset="0.63" stop-color="#2C2C2C"/>
<stop offset="0.76" stop-color="#141414"/>
<stop offset="0.88" stop-color="#050505"/>
<stop offset="0.98"/>
</radialGradient>
<radialGradient id="paint56_radial_78_173489" cx="0" cy="0" r="1" gradientUnits="userSpaceOnUse" gradientTransform="translate(20.7053 28.6244) scale(4.74015 4.74013)">
<stop stop-color="#BC5807"/>
<stop offset="0.14" stop-color="#B24D07"/>
<stop offset="0.52" stop-color="#993206"/>
<stop offset="1" stop-color="#610800"/>
</radialGradient>
<radialGradient id="paint57_radial_78_173489" cx="0" cy="0" r="1" gradientUnits="userSpaceOnUse" gradientTransform="translate(20.5877 26.5914) rotate(10.8856) scale(0.446231 0.461113)">
<stop stop-color="white"/>
<stop offset="0.22" stop-color="#B3B3B3"/>
<stop offset="0.62" stop-color="#333333"/>
<stop offset="0.79"/>
<stop offset="1"/>
</radialGradient>
<linearGradient id="paint58_linear_78_173489" x1="19.7949" y1="24.3133" x2="20.4479" y2="25.6155" gradientUnits="userSpaceOnUse">
<stop stop-color="#B9B9B9"/>
<stop offset="0.04" stop-color="#ADADAD"/>
<stop offset="0.33" stop-color="#646464"/>
<stop offset="0.57" stop-color="#2E2E2E"/>
<stop offset="0.75" stop-color="#0D0D0D"/>
<stop offset="0.85"/>
<stop offset="0.98"/>
</linearGradient>
<linearGradient id="paint59_linear_78_173489" x1="88.5422" y1="11.9286" x2="91.9656" y2="25.043" gradientUnits="userSpaceOnUse">
<stop stop-color="white"/>
<stop offset="0.24" stop-color="#C5C5C5"/>
<stop offset="0.8" stop-color="#343434"/>
<stop offset="0.99"/>
</linearGradient>
<linearGradient id="paint60_linear_78_173489" x1="3.5884" y1="25.7275" x2="6.95915" y2="31.679" gradientUnits="userSpaceOnUse">
<stop stop-color="white"/>
<stop offset="1"/>
</linearGradient>
<linearGradient id="paint61_linear_78_173489" x1="0.849327" y1="33.6803" x2="13.121" y2="34.6284" gradientUnits="userSpaceOnUse">
<stop stop-color="white"/>
<stop offset="1"/>
</linearGradient>
<linearGradient id="paint62_linear_78_173489" x1="21.7592" y1="29.1509" x2="21.9172" y2="32.9957" gradientUnits="userSpaceOnUse">
<stop stop-color="white"/>
<stop offset="1"/>
</linearGradient>
<linearGradient id="paint63_linear_78_173489" x1="21.5588" y1="21.9777" x2="14.1979" y2="21.3668" gradientUnits="userSpaceOnUse">
<stop stop-color="white"/>
<stop offset="1"/>
</linearGradient>
</defs>
</svg>
