<svg width="46" height="55" viewBox="0 0 46 55" fill="none" xmlns="http://www.w3.org/2000/svg">
<path d="M28.9662 1.30113C25.4672 2.01842 23.186 5.36748 23.8867 8.78563C24.5858 12.1955 28.0004 14.3855 31.5014 13.6678C35.0087 12.9488 37.2799 9.59316 36.5809 6.18331C35.8802 2.76516 32.4735 0.582132 28.9662 1.30113ZM30.9953 11.199C28.8893 11.6308 26.845 10.3197 26.4239 8.2655C26.0028 6.2113 27.3671 4.195 29.4711 3.76368C31.5771 3.33195 33.6313 4.6496 34.052 6.70173C34.4731 8.75594 33.1013 10.7673 30.9953 11.199Z" fill="#E3E8EF"/>
<path d="M29.2486 2.67954C26.5269 3.23748 24.76 5.8396 25.3043 8.49493C25.8483 11.1482 28.499 12.8468 31.2186 12.2893C33.9382 11.7318 35.7072 9.12926 35.1629 6.47392C34.6206 3.81817 31.9703 2.12159 29.2486 2.67954ZM30.9951 11.199C28.8891 11.6307 26.8448 10.3197 26.4237 8.26546C26.0026 6.21126 27.3669 4.19496 29.4708 3.76364C31.5769 3.33191 33.6311 4.64956 34.0518 6.70169C34.4729 8.7559 33.1011 10.7673 30.9951 11.199Z" fill="#C2C9CE"/>
<path d="M32.3453 9.5854L32.5758 13.2382C32.5947 13.6361 28.2016 13.7958 28.1827 13.3979L28.1336 12.3258L28.0336 9.92067C27.964 8.99103 32.2612 8.65874 32.3453 9.5854Z" fill="#171621"/>
<path d="M31.376 9.07343L31.5649 11.955C31.5762 12.2313 29.4282 12.3844 28.1332 12.3259L28.0332 9.92069C27.9857 9.26733 30.09 8.91154 31.376 9.07343Z" fill="#413F54"/>
<path d="M35.3259 14.3053C35.3721 14.6889 35.2902 16.4596 35.1278 17.3007C35.0982 17.4515 35.0673 17.5745 35.0336 17.6527C35.0127 17.698 35.0047 17.7644 35.0093 17.8499C35.0316 18.5171 35.6932 20.28 35.869 21.1901C35.9196 21.4583 35.9293 21.6529 35.8703 21.7233C35.5769 22.0729 34.5175 21.9834 34.4869 22.2661C34.4563 22.5489 34.5378 24.0636 34.0727 24.3447C33.6081 24.6279 27.4427 25.4036 26.2895 24.3721C26.2895 24.3721 26.272 24.0128 26.1966 23.6028C26.1199 23.1865 25.9832 22.7199 25.7465 22.5135C25.3456 22.1702 24.3655 21.4877 24.5221 21.0085C24.6788 20.5292 25.7182 18.7934 25.3513 18.078C25.3061 17.9944 25.2652 17.8689 25.2288 17.7122C24.9607 16.5835 24.7198 14.0388 25.5335 13.6775C27.1008 12.9782 28.2961 12.9082 32.5789 13.1275C35.0005 13.2553 35.2698 13.8524 35.3259 14.3053Z" fill="#FFC44B"/>
<path d="M35.2273 16.5956C35.1977 16.7464 35.0672 17.5745 35.0336 17.6527C35.0126 17.698 35.0046 17.7644 35.0092 17.8499C30.8849 16.4231 25.3819 18.1539 25.3819 18.1539C25.3726 18.1298 25.3634 18.1058 25.35 18.0826C25.3048 17.999 25.0969 17.4066 25.0813 16.9195C31.0935 14.6588 35.2273 16.5956 35.2273 16.5956Z" fill="#F4971E"/>
<path d="M35.8703 21.1877C35.9169 21.4568 35.9274 21.6556 35.8717 21.721C35.5812 22.0743 34.5192 21.9831 34.4849 22.2688C34.4735 22.4029 34.4862 22.802 34.4501 23.2263C31.5876 22.286 28.8327 22.408 26.1716 23.4719C26.086 23.0963 25.9587 22.6969 25.7446 22.5162C25.3403 22.167 24.6183 21.6584 24.5142 21.224C24.5117 21.2224 29.9457 19.4604 35.8703 21.1877Z" fill="#F4971E"/>
<path d="M34.073 24.3468C33.6084 24.63 27.443 25.4057 26.2898 24.3742C26.2898 24.3742 30.2089 23.0934 34.073 24.3468Z" fill="#F4971E"/>
<path d="M23.3073 52.1278C5.01743 55.3135 5.46914 32.7248 5.88862 27.2691C5.93797 26.5721 5.99069 26.1445 5.9965 26.0569C6.10726 26.4813 8.35631 34.7443 14.9581 37.2141L14.9681 37.2207C14.9598 37.2224 14.9373 37.2184 14.905 37.2185C14.3511 37.1614 11.9283 36.954 11.1156 36.667C10.2244 36.355 8.64466 37.2362 10.2394 39.5574C11.8379 41.8864 15.5823 47.076 23.3934 43.3493C31.197 39.6177 28.1962 24.4953 28.1962 24.4953C28.3884 24.2313 29.5861 24.0786 30.8472 24.1614C31.3881 24.1974 31.9441 24.2756 32.4419 24.4068C32.4419 24.4068 44.5652 48.4266 23.3073 52.1278Z" fill="#C2C9CE"/>
<path d="M30.8451 24.1621C31.31 26.4298 33.8313 39.3717 28.839 44.8685C23.7227 50.4986 12.8589 48.5008 9.16813 41.6867C5.83208 35.5494 9.95941 35.105 14.9585 37.2165C14.9439 37.2195 14.9277 37.2142 14.9049 37.2188C14.3864 37.1653 11.8883 36.9387 11.1156 36.6673C10.3599 36.4053 9.11114 36.9939 9.72551 38.5895C9.82358 38.8783 9.99734 39.199 10.2414 39.5572C11.8399 41.8863 15.5843 47.0759 23.3954 43.3492C29.3421 40.5058 29.2563 31.0152 28.1983 24.4952C28.2279 24.4502 28.2813 24.4155 28.353 24.3857C28.7492 24.19 29.7733 24.0967 30.8451 24.1621Z" fill="#E3E8EF"/>
<path d="M14.958 37.2142C14.6868 37.1769 10.9783 36.6088 8.12166 32.9997C6.26796 30.6689 5.90292 28.5406 5.88852 27.2692C5.87734 26.4982 5.99342 26.0424 5.99342 26.0424C5.99342 26.0424 5.99512 26.0507 5.9964 26.0569C6.10551 26.4838 8.35621 34.7444 14.958 37.2142Z" fill="#E3E8EF"/>
<g opacity="0.7">
<path d="M28.3512 24.388C28.3512 24.388 31.8867 34.6489 27.587 42.2284C24.7119 47.2954 11.641 49.1455 9.7171 38.591L9.72539 38.5893C9.82347 38.8781 9.99723 39.1989 10.2413 39.5571C11.8398 41.8861 15.5842 47.0758 23.3953 43.3491C30.6913 39.8597 28.5486 26.4255 28.2281 24.6833C28.2675 24.5909 28.3094 24.4895 28.3512 24.388Z" fill="white"/>
</g>
<path d="M33.8617 34.9156C33.2364 35.2792 32.6545 33.5258 33.1278 32.8002C33.3585 32.4505 33.8229 32.6404 34.0594 33.3199C34.2917 33.9894 34.1525 34.7328 33.8617 34.9156Z" fill="white"/>
<path d="M34.2011 39.3841C33.702 41.6701 32.4699 42.7823 32.3228 42.4021C32.1584 42.0427 32.8279 40.6829 33.18 38.9972C33.5633 37.3267 33.5755 35.8058 33.8685 35.6334C34.153 35.4196 34.7064 37.1075 34.2011 39.3841Z" fill="white"/>
<path d="M25.7483 13.7352L26.31 17.1494L25.8892 16.7195L25.7483 13.7352Z" fill="#F4971E"/>
<path d="M25.772 18.1475L26.3281 21.524L25.93 21.4998L25.772 18.1475Z" fill="#F4971E"/>
<path d="M26.945 18.0753L27.5067 21.4896L27.086 21.0596L26.945 18.0753Z" fill="#F4971E"/>
<path d="M28.258 18.5706L28.6757 21.2822L28.2757 20.9538L28.258 18.5706Z" fill="#F4971E"/>
<path d="M29.3987 17.8878L29.9603 21.302L29.5396 20.872L29.3987 17.8878Z" fill="#F4971E"/>
<path d="M30.593 17.602L31.153 21.0187L30.7339 20.5863L30.593 17.602Z" fill="#F4971E"/>
<path d="M32.5417 17.5825L33.2068 20.8266L32.6826 20.5668L32.5417 17.5825Z" fill="#F4971E"/>
<path d="M31.7513 18.4897L32.2697 21.0186L31.8608 20.8152L31.7513 18.4897Z" fill="#F4971E"/>
<path d="M33.9123 17.9667L34.474 21.381L34.0532 20.951L33.9123 17.9667Z" fill="#F4971E"/>
<path d="M27.1208 13.6006L27.6825 17.0149L27.2617 16.5849L27.1208 13.6006Z" fill="#F4971E"/>
<path d="M28.9177 13.2323L29.4794 16.6465L29.0586 16.2165L28.9177 13.2323Z" fill="#F4971E"/>
<path d="M30.3596 13.332L30.9217 16.7483L30.5005 16.3163L30.3596 13.332Z" fill="#F4971E"/>
<path d="M32.8142 13.7597L33.3759 17.174L32.9551 16.744L32.8142 13.7597Z" fill="#F4971E"/>
<path d="M31.9441 13.5192L32.5062 16.9355L32.085 16.5034L31.9441 13.5192Z" fill="#F4971E"/>
<path d="M34.1369 14.091L34.6991 17.5074L34.2778 17.0753L34.1369 14.091Z" fill="#F4971E"/>
</svg>
