<svg width="95" height="44" viewBox="0 0 95 44" fill="none" xmlns="http://www.w3.org/2000/svg">
<path d="M3.34817 24.9586C4.99342 23.5145 6.05813 21.522 6.34426 19.3517C6.94347 15.5852 10.068 4.45685 29.7993 2.23118C50.1727 0.0483237 72.6005 16.5696 68.3204 21.2349C69.4332 21.6629 71.1025 25.515 70.2892 25.7718C66.5655 26.2855 66.0091 25.7718 61.2154 33.1765C55.7796 41.7367 32.025 46.0168 21.2819 42.3359C8.44151 38.0558 8.91233 35.1025 8.44151 35.2309C7.20028 35.7017 2.87735 35.2309 2.92016 32.4916C2.96296 29.7524 3.39097 29.624 1.67892 28.9391C-0.0331233 28.2543 0.865699 25.1298 3.34817 24.9586Z" fill="#F0FBFF"/>
<path d="M30.9551 43.7482C27.6127 43.8357 24.2771 43.4025 21.068 42.4642C14.0058 40.1101 9.76849 37.7561 8.44165 35.5304C8.03155 35.608 7.61052 35.608 7.20041 35.5304C5.88137 35.5936 4.58555 35.1667 3.56231 34.332C3.09797 33.8484 2.83744 33.2047 2.83469 32.5343C2.83469 32.0207 2.83469 31.5927 2.83469 31.2503C2.83469 29.8378 2.83469 29.581 1.59346 29.0674C1.22368 28.9405 0.911995 28.6846 0.715489 28.3466C0.518982 28.0086 0.450804 27.6111 0.52343 27.227C0.669347 26.609 1.00259 26.0512 1.47758 25.6298C1.95258 25.2085 2.54614 24.9441 3.1771 24.8729C4.79455 23.4483 5.84327 21.4877 6.13038 19.3515C6.67764 15.9047 8.24267 12.7002 10.6245 10.1493C15.8077 5.34174 22.5238 2.52185 29.5854 2.18827C30.8544 2.12328 32.1258 2.12328 33.3948 2.18827C41.259 2.3616 48.9718 4.38509 55.9082 8.09482C60.967 10.3027 65.2887 13.9116 68.3633 18.4955C68.6417 18.9298 68.7897 19.4349 68.7897 19.9508C68.7897 20.4666 68.6417 20.9717 68.3633 21.406C69.5682 22.5289 70.3279 24.0485 70.5034 25.6861C70.5034 25.9857 70.5034 26.0285 70.2466 26.0713H69.2622C66.3089 26.4137 65.41 26.5422 61.1727 33.3047C56.9354 40.0673 42.6398 43.791 31.2119 43.791L30.9551 43.7482ZM8.31325 35.188C8.31325 35.188 8.31324 35.188 8.57005 35.4448C9.89689 37.6277 14.1342 39.7249 21.1108 42.293C24.3052 43.2316 27.6268 43.6649 30.9551 43.577C42.4686 43.577 56.8498 39.6821 60.9159 33.1763C64.982 26.6705 66.1805 26.1997 69.091 25.8573H70.0754C69.9491 24.2057 69.1808 22.6692 67.9353 21.5772C68.2132 21.1665 68.3617 20.682 68.3617 20.1862C68.3617 19.6903 68.2132 19.2058 67.9353 18.7951C64.8938 14.225 60.5991 10.6288 55.5658 8.43724C48.734 4.65134 41.1131 2.51164 33.3091 2.18827C32.0402 2.12328 30.7688 2.12328 29.4998 2.18827C10.5389 4.28553 6.85801 14.7718 6.13038 19.3087C5.93248 21.4832 4.94237 23.5092 3.34831 25.0013C2.7443 25.0523 2.17271 25.2961 1.71797 25.6969C1.26323 26.0977 0.949469 26.6341 0.823037 27.227C0.764842 27.5711 0.832237 27.9246 1.01294 28.2232C1.19364 28.5217 1.47562 28.7454 1.80746 28.8534C3.2627 29.4526 3.21991 29.7522 3.13431 31.2075C3.13431 31.5499 3.13431 31.9779 3.13431 32.4915C3.01212 33.042 3.08789 33.6179 3.34831 34.118C4.35698 34.9141 5.61678 35.3239 6.90081 35.2736C7.29862 35.3251 7.70143 35.3251 8.09924 35.2736L8.31325 35.188Z" fill="black"/>
<path d="M21.8387 4.37126C21.8387 4.37126 37.9748 -2.17732 50.9436 2.87323C63.9123 7.92377 70.0757 13.7019 71.4453 18.7525C69.3909 18.8381 43.6674 0.305148 21.8387 4.37126Z" fill="url(#paint0_linear_78_173149)"/>
<path d="M21.8387 4.37126C21.8387 4.37126 37.9748 -2.17732 50.9436 2.87323C63.9123 7.92377 70.0757 13.7019 71.4453 18.7525C71.4453 18.7525 70.7177 17.7252 70.2897 17.4256C64.2252 10.9612 56.4789 6.31528 47.9204 4.00932C39.3619 1.70335 30.33 1.82869 21.8387 4.37126Z" fill="url(#paint1_linear_78_173149)"/>
<path d="M37.8031 2.40223C38.9225 1.76032 40.1357 1.29815 41.3984 1.03259C40.1428 1.32198 38.933 1.78285 37.8031 2.40223Z" fill="#278DEA"/>
<path d="M40.3717 2.78759C41.5621 2.13786 42.8268 1.63484 44.1382 1.28955C42.8233 1.62413 41.5572 2.12766 40.3717 2.78759Z" fill="#278DEA"/>
<path d="M43.0251 3.30081C44.58 2.64462 46.2249 2.22618 47.9044 2.05957C46.2257 2.2306 44.5815 2.64887 43.0251 3.30081Z" fill="#278DEA"/>
<path d="M45.4648 4.15709C47.0569 3.46888 48.7228 2.96623 50.4298 2.65906C48.7194 2.95193 47.0518 3.45509 45.4648 4.15709Z" fill="#278DEA"/>
<path d="M48.5468 4.92741C50.2689 4.48274 52.0339 4.22445 53.8113 4.15698C52.0326 4.20951 50.2659 4.46804 48.5468 4.92741Z" fill="#278DEA"/>
<path d="M51.7135 6.1259C53.4807 5.7203 55.2957 5.56185 57.1065 5.65508C55.296 5.57838 53.4833 5.73664 51.7135 6.1259Z" fill="#278DEA"/>
<path d="M54.3675 7.32447C56.2397 7.03572 58.1451 7.03572 60.0173 7.32447C58.1443 7.04675 56.2405 7.04675 54.3675 7.32447Z" fill="#278DEA"/>
<path d="M63.2698 9.25047C61.4497 9.03994 59.6114 9.03994 57.7913 9.25047C59.6233 9.00098 61.4806 9.00098 63.3126 9.25047H63.2698Z" fill="#278DEA"/>
<path d="M62.542 12.2037C64.0619 12.0016 65.6018 12.0016 67.1217 12.2037C65.5995 12.0398 64.0642 12.0398 62.542 12.2037Z" fill="#278DEA"/>
<path d="M68.6631 13.9585C67.243 13.7643 65.8031 13.7643 64.383 13.9585C65.8038 13.7758 67.2422 13.7758 68.6631 13.9585Z" fill="#278DEA"/>
<path d="M69.6473 15.1997C68.4081 15.1012 67.1629 15.1012 65.9236 15.1997C67.1772 15.1009 68.4366 15.1009 69.6901 15.1997H69.6473Z" fill="#278DEA"/>
<path d="M71.445 18.8381C69.9327 18.3105 68.4943 17.5913 67.1649 16.698C59.5891 12.4179 43.7526 3.85765 28.6438 3.85765C26.4756 3.85806 24.3121 4.05865 22.1808 4.45686H21.3248L22.138 4.15726C27.8804 2.01954 33.9451 0.876068 40.0717 0.775956C43.8968 0.716365 47.6996 1.36952 51.2856 2.70201C62.9704 7.28174 70.2894 12.9315 71.8302 18.6241L71.445 18.8381ZM28.3442 3.68644C43.667 3.68644 59.5035 12.2467 67.1221 16.5268C68.4781 17.3618 69.9114 18.0641 71.4022 18.6241C69.7758 13.0171 62.5423 7.45294 50.9432 2.91602C47.3786 1.61886 43.6078 0.980737 39.8149 1.03277C33.9816 1.11676 28.2003 2.14295 22.6944 4.07165C24.5638 3.78747 26.4535 3.65863 28.3442 3.68644Z" fill="#278DEA"/>
<path d="M64.0833 17.2115C64.0833 17.2115 67.807 18.0676 78.1649 11.733C87.6667 5.91203 90.4916 6.51123 93.0169 11.305C96.6122 18.1532 94.2153 31.1219 87.2387 33.5188C80.2621 35.9157 71.4451 24.9586 64.7253 24.9586C64.9209 22.3585 64.7042 19.7439 64.0833 17.2115Z" fill="url(#paint2_radial_78_173149)"/>
<path d="M81.5892 29.838C82.7531 30.5418 84.1266 30.8158 85.4713 30.6125C86.8161 30.4092 88.0472 29.7415 88.951 28.7252C93.2312 22.8186 95.7992 15.414 90.8343 8.43741C88.523 6.63976 85.1417 7.45299 77.9939 11.7331C67.636 18.0677 63.9124 17.2117 63.9124 17.2117C64.5243 19.7164 64.7409 22.3014 64.5544 24.8731H65.068C71.0173 22.4334 76.4959 27.0131 81.5892 29.838Z" fill="url(#paint3_radial_78_173149)"/>
<path d="M85.0986 34.118C81.1512 33.5267 77.4302 31.9025 74.3128 29.4098C71.5219 27.2091 68.2269 25.7382 64.7253 25.1297C64.9078 22.5864 64.6912 20.0302 64.0833 17.5539H64.7253C69.6337 16.9081 74.2924 15.0063 78.2505 12.0325C81.182 9.79681 84.624 8.32589 88.2659 7.75242C90.3632 7.75242 91.7756 8.86525 93.1881 11.5617C94.2417 14.0461 94.7846 16.7171 94.7846 19.4157C94.7846 22.1143 94.2417 24.7854 93.1881 27.2698C92.7319 28.7448 91.9594 30.1026 90.9245 31.2484C89.8895 32.3942 88.6171 33.3005 87.1959 33.904C86.5137 34.0919 85.8048 34.1643 85.0986 34.118ZM64.8537 24.9157C68.3512 25.5378 71.643 27.0073 74.4412 29.1958C77.5246 31.6561 81.1993 33.2647 85.0986 33.8611C85.8293 33.8615 86.5541 33.731 87.2387 33.4759C88.6494 32.8791 89.9149 31.9853 90.949 30.8552C91.983 29.7251 92.7614 28.3854 93.2309 26.9274C94.2739 24.4627 94.8113 21.8138 94.8113 19.1375C94.8113 16.4613 94.2739 13.8123 93.2309 11.3477C91.8184 8.69405 90.4488 7.62402 88.4371 7.62402C84.8227 8.20241 81.4096 9.67355 78.5073 11.9041C69.1766 17.5967 65.2389 17.5111 64.4685 17.4255C64.9936 19.8425 65.1237 22.3287 64.8537 24.7873V24.9157Z" fill="#BA8419"/>
<path d="M67.5501 25.1296C67.5501 25.1296 72.6862 26.2853 68.2777 32.4486C64.5737 37.7644 59.0172 41.5044 52.6981 42.9349C46.1495 43.6626 42.2974 42.3357 35.5776 42.9349C46.7255 37.9266 57.4223 31.9696 67.5501 25.1296Z" fill="url(#paint4_linear_78_173149)"/>
<path d="M66.3943 25.5575C66.3943 25.5575 70.2037 26.6275 65.7951 32.7909C64.3766 35.1728 62.4606 37.2204 60.1781 38.7938C57.8956 40.3672 55.3003 41.4293 52.5696 41.9076C46.1494 42.678 41.8693 42.678 34.9355 43.4484C45.9261 38.4188 56.453 32.4321 66.3943 25.5575Z" fill="url(#paint5_linear_78_173149)"/>
<path d="M66.352 27.3982H65.3676C66.8034 27.5105 68.248 27.3949 69.6477 27.0558C68.568 27.309 67.4606 27.424 66.352 27.3982Z" fill="#278DEA"/>
<path d="M66.9506 28.6824C65.581 28.6824 64.3398 28.6824 64.2542 28.6824C66.1811 28.9177 68.1338 28.8309 70.0323 28.4255C69.0246 28.6702 67.985 28.7568 66.9506 28.6824Z" fill="#278DEA"/>
<path d="M66.9939 29.8376C65.755 29.9458 64.5091 29.9458 63.2702 29.8376C65.3749 30.2608 67.5429 30.2608 69.6476 29.8376C68.7666 29.9496 67.8749 29.9496 66.9939 29.8376Z" fill="#278DEA"/>
<path d="M66.1376 31.5928C64.8683 31.5788 63.6047 31.4209 62.3711 31.1219C64.5749 31.691 66.8871 31.691 69.0909 31.1219C68.137 31.4317 67.1405 31.5906 66.1376 31.5928Z" fill="#278DEA"/>
<path d="M65.5812 32.834C64.2407 32.859 62.9067 32.6415 61.6435 32.192C63.7577 32.8897 66.023 32.9933 68.1921 32.4916C67.3358 32.6949 66.4609 32.8097 65.5812 32.834Z" fill="#278DEA"/>
<path d="M65.4102 34.1181C63.8554 34.1106 62.311 33.8653 60.8304 33.3905C62.7892 34.0272 64.8597 34.246 66.9082 34.0325L65.4102 34.1181Z" fill="#278DEA"/>
<path d="M63.9551 35.7443C62.5038 35.7528 61.0599 35.5363 59.675 35.1023C61.6299 35.6855 63.6813 35.8746 65.7099 35.6587L63.9551 35.7443Z" fill="#278DEA"/>
<path d="M63.2702 37.2851C61.459 37.3376 59.6515 37.0918 57.92 36.5575C59.8586 37.153 61.8875 37.3994 63.9122 37.2851H63.2702Z" fill="#278DEA"/>
<path d="M61.2154 38.6121C59.5442 38.5353 57.8964 38.1884 56.3361 37.5848C58.2296 38.3728 60.2843 38.6956 62.3282 38.5265C61.961 38.5916 61.5883 38.6203 61.2154 38.6121Z" fill="#278DEA"/>
<path d="M59.5037 39.7678C57.827 39.8611 56.1599 39.4592 54.71 38.6122C56.5576 39.6437 58.6945 40.035 60.7877 39.725L59.5037 39.7678Z" fill="#278DEA"/>
<path d="M57.8768 40.9661C55.9838 40.997 54.1186 40.5085 52.4838 39.5537C54.3048 40.625 56.4138 41.1037 58.5188 40.9233L57.8768 40.9661Z" fill="#278DEA"/>
<path d="M56.3789 42.0363C54.4254 41.9711 52.5345 41.3309 50.9432 40.1958C52.5163 41.2977 54.374 41.9219 56.2933 41.9935L56.3789 42.0363Z" fill="#278DEA"/>
<path d="M53.5972 42.6783C51.7064 42.5601 49.8783 41.9557 48.2898 40.9235C49.8641 41.9461 51.6797 42.5365 53.5543 42.6355L53.5972 42.6783Z" fill="#278DEA"/>
<path d="M50.4292 43.1917C49.0141 42.9674 47.6679 42.4261 46.4915 41.608C47.6947 42.397 49.0513 42.9221 50.472 43.1489L50.4292 43.1917Z" fill="#278DEA"/>
<path d="M48.4178 43.2346C46.9198 43.2346 45.5502 43.2346 44.1377 43.2346C42.7253 43.2346 41.3556 43.2346 39.8576 43.2346C38.3596 43.2346 36.9471 43.2346 35.5775 43.2346H34.9355L35.5347 43.0206C46.6904 37.9344 57.3998 31.9211 67.55 25.0441C68.0736 25.1667 68.5621 25.4079 68.9777 25.7493C69.3933 26.0907 69.7249 26.523 69.9468 27.0129C70.1274 27.9897 70.0742 28.9953 69.7915 29.9475C69.5088 30.8997 69.0047 31.7715 68.3204 32.4915C64.5914 37.8289 59.0056 41.5834 52.6552 43.0206C51.2855 43.149 49.8731 43.2346 48.4178 43.2346ZM39.8576 42.7638C41.3556 42.7638 42.7681 42.7638 44.1377 42.7638C45.5074 42.7638 46.9198 42.7638 48.4178 42.7638C49.9159 42.7638 51.2855 42.7638 52.698 42.5498C59.0131 41.1368 64.5621 37.3916 68.2348 32.0635C69.7756 29.9234 70.332 28.1258 69.8184 26.7989C69.6089 26.3406 69.3008 25.9341 68.9161 25.6086C68.5313 25.283 68.0795 25.0464 67.5928 24.9156C57.6093 31.6493 47.1039 37.5748 36.1767 42.6354C37.4178 42.5846 38.6608 42.5989 39.9004 42.6782L39.8576 42.7638Z" fill="#278DEA"/>
<path d="M45.8075 11.3905C44.9924 10.4443 43.9891 9.67827 42.8614 9.14136C41.7338 8.60446 40.5067 8.30845 39.2583 8.27221C38.0099 8.23596 36.7676 8.46027 35.6108 8.93085C34.4539 9.40143 33.4078 10.1079 32.5391 11.0053C30.8271 13.9158 32.8388 23.2465 33.1812 26.585C33.5236 29.9235 29.8427 36.9857 25.6482 35.4876C21.4536 33.9896 25.3486 24.9585 23.3797 14.7718C23.0941 12.613 22.0158 10.6375 20.3546 9.22938C18.6934 7.82131 16.5679 7.0813 14.3914 7.15323C12.7855 8.22299 11.3438 9.5206 10.1113 11.0053C13.2786 11.0053 18.0295 11.5617 18.8856 16.1415C20.2124 22.9897 19.1852 27.3554 18.1579 27.7406C17.1307 28.1258 17.3875 24.3165 13.8778 22.476C11.2866 21.4894 8.51126 21.0804 5.7456 21.2776C5.25479 22.7936 4.35057 24.1425 3.13473 25.1725C0.866267 25.1725 -0.588977 28.3398 1.55108 29.1958C3.69114 30.0519 2.83512 30.1375 2.79232 32.7483C2.74952 35.3592 7.07244 35.9584 8.31367 35.4876C8.69888 35.4876 8.31367 38.2697 21.154 42.5926C31.8971 46.1879 55.6518 42.1218 61.0876 33.4332C65.7529 25.943 66.4377 26.5422 70.1614 26.0286C70.9746 26.0286 69.3054 21.7484 68.1926 21.4916C56.679 23.5461 49.2316 15.6279 45.8075 11.3905Z" fill="url(#paint6_radial_78_173149)"/>
<path d="M45.8075 11.3905C44.9924 10.4443 43.9891 9.67827 42.8614 9.14136C41.7338 8.60446 40.5067 8.30845 39.2583 8.27221C38.0099 8.23596 36.7676 8.46027 35.6108 8.93085C34.4539 9.40143 33.4078 10.1079 32.5391 11.0053C30.8271 13.9158 32.8388 23.2465 33.1812 26.585C33.5236 29.9235 29.8427 36.9857 25.6482 35.4876C21.4536 33.9896 25.3486 24.9585 23.3797 14.7718C23.0941 12.613 22.0158 10.6375 20.3546 9.22938C18.6934 7.82131 16.5679 7.0813 14.3914 7.15323C12.7855 8.22299 11.3438 9.5206 10.1113 11.0053C13.2786 11.0053 18.0295 11.5617 18.8856 16.1415C20.2124 22.9897 19.1852 27.3554 18.1579 27.7406C17.1307 28.1258 17.3875 24.3165 13.8778 22.476C11.2866 21.4894 8.51126 21.0804 5.7456 21.2776C5.25479 22.7936 4.35057 24.1425 3.13473 25.1725C0.866267 25.1725 -0.588977 28.3398 1.55108 29.1958C3.69114 30.0519 2.79232 30.3943 2.79232 32.7483C2.79232 35.1024 5.10359 35.0596 7.37205 35.0596C8.61532 35.0528 9.84219 34.7753 10.9673 34.2464L9.64051 34.974C13.4309 37.915 17.9373 39.7914 22.6949 40.4098C36.5197 42.8922 53.2549 38.5265 59.3755 31.1647C65.4961 23.8029 66.3093 24.4021 70.0758 24.5733C70.0758 24.5733 69.2198 21.9196 68.107 21.4916C56.679 23.5461 49.2316 15.6279 45.8075 11.3905Z" fill="url(#paint7_radial_78_173149)"/>
<path d="M68.7058 19.8654C73.8848 16.1845 91.1764 15.1145 91.3476 15.0717C91.5189 15.0289 73.7992 16.2273 68.7058 19.8654Z" fill="#BA8419"/>
<path d="M68.5776 20.5073C76.3614 17.9528 84.5286 16.7654 92.7175 16.9976C84.5319 16.8202 76.3738 18.0063 68.5776 20.5073Z" fill="#BA8419"/>
<path d="M68.4061 20.9779C76.5946 19.4883 84.9088 18.8002 93.2308 18.9235C84.9102 18.841 76.5999 19.5288 68.4061 20.9779Z" fill="#BA8419"/>
<path d="M68.4488 21.5345C76.8648 20.8982 85.3095 20.7267 93.7443 21.0209C93.7443 21.0209 74.9974 20.5501 68.4488 21.5345Z" fill="#BA8419"/>
<path d="M76.795 22.3906C74.1355 22.4567 71.4747 22.328 68.834 22.0054C72.5149 22.8186 93.1023 22.0054 93.1023 22.0054C93.1023 22.0054 83.9428 22.3906 76.795 22.3906Z" fill="#BA8419"/>
<path d="M83.772 23.9313C78.9208 24.1336 74.0629 23.7456 69.3052 22.7756C76.3783 23.9131 83.5487 24.329 90.7058 24.0169C90.7058 24.0169 87.5386 23.9313 83.772 23.9313Z" fill="#BA8419"/>
<path d="M91.2192 25.5578C84.0502 25.5897 76.8913 25.017 69.8186 23.8457C76.8955 24.9824 84.0516 25.5549 91.2192 25.5578Z" fill="#BA8419"/>
<path d="M89.2503 27.5265C82.7933 27.4721 76.3728 26.5508 70.161 24.7872C76.3811 26.5116 82.7964 27.4322 89.2503 27.5265Z" fill="#BA8419"/>
<path d="M88.1374 29.8376C82.0454 29.0141 76.0516 27.5801 70.2465 25.5575C76.0598 27.5521 82.0508 28.9853 88.1374 29.8376Z" fill="#BA8419"/>
<path d="M85.5269 31.1219C79.9272 30.0908 74.4779 28.3655 69.3052 25.9857C74.4955 28.3197 79.9391 30.0433 85.5269 31.1219Z" fill="#BA8419"/>
<path d="M30.9551 43.7484C27.6127 43.8358 24.2771 43.4026 21.068 42.4643C14.0058 40.1103 9.76849 37.7562 8.44165 35.5305C8.03155 35.6081 7.61052 35.6081 7.20041 35.5305C5.88137 35.5937 4.58555 35.1669 3.56231 34.3321C3.09797 33.8485 2.83744 33.2049 2.83469 32.5344C2.83469 32.0208 2.83469 31.5928 2.83469 31.2504C2.83469 29.838 2.83469 29.5812 1.59346 29.0675C1.22368 28.9406 0.911995 28.6847 0.715489 28.3467C0.518982 28.0087 0.450804 27.6112 0.52343 27.2271C0.669347 26.6091 1.00259 26.0513 1.47758 25.6299C1.95258 25.2086 2.54614 24.9442 3.1771 24.873C4.37069 23.8492 5.25921 22.5165 5.74517 21.0209C8.445 20.9262 11.1329 21.4229 13.6206 22.4762C14.4572 22.919 15.1956 23.5264 15.7914 24.262C16.3872 24.9975 16.8281 25.8459 17.0875 26.7563C17.3443 27.3555 17.5155 27.8263 17.7723 27.8263C18.7139 27.4839 19.784 23.2038 18.4571 16.3128C17.6439 12.0327 13.0642 11.2622 10.4105 11.2622H9.59728C10.8292 9.76485 12.2708 8.45304 13.8774 7.36734C16.07 7.29435 18.2117 8.03744 19.888 9.45275C21.5642 10.8681 22.6557 12.8549 22.9513 15.0288C23.5997 19.0762 23.7292 23.1897 23.3365 27.2699C23.0369 31.55 22.8229 34.9313 25.1341 35.8301C25.9932 36.0658 26.9044 36.0274 27.7407 35.7205C28.577 35.4136 29.2967 34.8535 29.7995 34.1181C30.8517 33.1554 31.7034 31.9944 32.3057 30.7017C32.908 29.4089 33.249 28.01 33.3091 26.5851C33.3091 25.8575 33.0951 24.873 32.9239 23.6746C32.2819 19.3945 31.2975 13.2739 32.6671 10.8342C33.4101 9.89324 34.3715 9.14791 35.4681 8.66306C36.5646 8.17821 37.7629 7.9685 38.9589 8.05215C40.3048 8.01422 41.642 8.27915 42.8718 8.82736C44.1016 9.37557 45.1925 10.1931 46.0639 11.2195C48.0957 14.2143 50.7977 16.6943 53.9553 18.4625C57.1129 20.2308 60.6393 21.2387 64.2544 21.4061C65.6916 21.4017 67.125 21.2584 68.5345 20.9781H68.7913C69.9962 22.1011 70.7559 23.6206 70.9314 25.2582C70.9314 25.5578 70.9314 25.6006 70.6746 25.6434H69.6902C66.7369 25.9859 65.8381 26.1143 61.6007 32.8768C57.3634 39.6394 42.5114 43.7484 30.9551 43.7484ZM8.31325 35.1881C8.31325 35.1881 8.31324 35.1881 8.57005 35.4449C9.89689 37.6278 14.1342 39.725 21.1108 42.2931C24.3052 43.2318 27.6268 43.665 30.9551 43.5771C42.4686 43.5771 56.8498 39.6822 60.9159 33.1765C64.982 26.6707 66.1805 26.1999 69.091 25.8575H70.0754C69.9491 24.2058 69.1808 22.6694 67.9353 21.5773C66.6234 21.8297 65.2908 21.9587 63.9548 21.9625C60.3138 21.7885 56.7632 20.7698 53.5838 18.987C50.4044 17.2041 47.6834 14.706 45.6359 11.6902C44.8016 10.6695 43.7501 9.84786 42.558 9.28511C41.3658 8.72237 40.0632 8.43275 38.7449 8.43737C37.5752 8.34647 36.401 8.54491 35.3261 9.01517C34.2513 9.48544 33.3087 10.2131 32.5815 11.1338C31.2975 13.3595 32.2391 19.6941 32.8383 23.9742C33.0523 25.1298 33.1807 26.1571 33.2663 26.8847C33.2419 29.5731 32.2375 32.1602 30.4415 34.1609C29.9063 34.9057 29.1561 35.4689 28.2915 35.7749C27.427 36.0809 26.4895 36.1151 25.6049 35.8729C23.1653 35.0597 23.3793 31.5928 23.6789 27.3127C24.0713 23.2611 23.9418 19.1758 23.2937 15.1572C23.0364 13.0089 21.9752 11.0377 20.3236 9.64012C18.6719 8.24254 16.5522 7.52226 14.391 7.62415C12.7931 8.63672 11.3513 9.8767 10.1109 11.305H10.5389C13.2354 11.305 17.9007 11.9899 18.7567 16.484C20.0408 23.0754 19.142 27.7407 17.9863 28.2115H17.7723C17.4299 28.2115 17.2159 27.7407 16.9163 27.0131C16.669 26.1091 16.2422 25.2642 15.6613 24.5289C15.0803 23.7935 14.3572 23.1827 13.535 22.733C11.0993 21.7065 8.47303 21.2105 5.83078 21.2777C5.34544 22.7844 4.43957 24.1209 3.2199 25.1298C2.6159 25.1808 2.0443 25.4247 1.58957 25.8255C1.13483 26.2263 0.821062 26.7627 0.694631 27.3555C0.636436 27.6996 0.703839 28.0531 0.884542 28.3517C1.06525 28.6503 1.34722 28.8739 1.67906 28.9819C3.13431 29.5812 3.0915 29.8808 3.0059 31.336C3.0059 31.6784 3.0059 32.1064 3.0059 32.62C2.95253 33.1434 3.07286 33.6698 3.34831 34.1181C4.35698 34.9142 5.61678 35.324 6.90081 35.2737C7.29862 35.3252 7.70143 35.3252 8.09924 35.2737L8.31325 35.1881Z" fill="url(#paint8_linear_78_173149)"/>
<path d="M29.5851 2.27393C24.2035 2.66475 18.9936 4.33778 14.3907 7.15327C16.5671 7.08134 18.6926 7.82135 20.3538 9.22942C22.015 10.6375 23.0933 12.613 23.3789 14.7719C25.3478 24.9586 21.41 34.0324 25.6474 35.4877C29.8847 36.9429 33.5228 29.8379 33.3088 26.585C33.0948 23.3321 30.9547 13.7446 32.6668 11.0054C33.5354 10.108 34.5815 9.40147 35.7384 8.93089C36.8953 8.46031 38.1375 8.236 39.3859 8.27225C40.6343 8.30849 41.8614 8.6045 42.9891 9.1414C44.1167 9.67831 45.12 10.4443 45.9351 11.3906C49.3592 15.6707 56.8066 23.5461 68.3202 21.1921C72.1295 16.4411 49.83 0.0910737 29.5851 2.27393Z" fill="url(#paint9_radial_78_173149)"/>
<path d="M68.2779 18.2815C71.702 15.1998 86.7252 10.7057 86.8965 10.6629C87.0677 10.6201 71.8304 15.2426 68.2779 18.2815Z" fill="#BA8419"/>
<path d="M68.4916 18.8382C75.538 15.6294 82.979 13.3698 90.6198 12.1184C82.9939 13.4333 75.5609 15.6906 68.4916 18.8382Z" fill="#BA8419"/>
<path d="M26.7607 35.7872C26.3779 35.848 25.9879 35.848 25.6051 35.7872C23.1654 34.974 23.3794 31.5071 23.679 27.227C24.0714 23.1753 23.942 19.0901 23.2938 15.0714C23.0362 12.9154 21.9689 10.9379 20.308 9.53922C18.6471 8.14058 16.5168 7.42537 14.3484 7.53842H14.0916C18.7412 4.75712 23.9705 3.08729 29.3716 2.65908C30.6405 2.59409 31.9119 2.59409 33.1809 2.65908C40.995 2.82287 48.6619 4.81653 55.5659 8.48003C60.6237 10.6876 64.9557 14.2779 68.0639 18.8379C68.375 19.2835 68.5419 19.8139 68.5419 20.3574C68.5419 20.9009 68.375 21.4312 68.0639 21.8768C66.6535 22.152 65.2206 22.2953 63.7837 22.3048C60.1427 22.1308 56.5922 21.1121 53.4128 19.3293C50.2334 17.5464 47.5123 15.0483 45.4648 12.0325C44.6828 10.971 43.6738 10.0974 42.5113 9.47543C41.3487 8.85345 40.0621 8.49876 38.745 8.43724C37.5753 8.34634 36.4012 8.54478 35.3263 9.01505C34.2514 9.48531 33.3088 10.2129 32.5817 11.1337C31.2976 13.3594 32.2393 19.694 32.8385 23.9741C33.0525 25.1297 33.1809 26.1569 33.2665 26.8846C33.242 29.573 32.2376 32.1601 30.4416 34.1608C29.9661 34.6618 29.396 35.0636 28.7641 35.3428C28.1323 35.622 27.4513 35.773 26.7607 35.7872ZM14.648 7.0676C16.7993 7.04905 18.8832 7.81772 20.5071 9.22884C22.1311 10.64 23.1831 12.5962 23.465 14.729C24.1135 18.7764 24.2429 22.89 23.8502 26.9702C23.5506 31.2503 23.3366 34.6316 25.6479 35.5304C26.507 35.766 27.4182 35.7277 28.2545 35.4208C29.0907 35.1139 29.8104 34.5537 30.3132 33.8183C32.1791 31.8653 33.2477 29.2854 33.3093 26.585C33.3093 25.8573 33.0953 24.8729 32.9241 23.6745C32.2821 19.3944 31.2976 13.2738 32.6673 10.8341C33.4102 9.89311 34.3717 9.14778 35.4682 8.66293C36.5647 8.17808 37.763 7.96837 38.959 8.05203C40.3049 8.01409 41.6422 8.27902 42.8719 8.82723C44.1017 9.37545 45.1926 10.1929 46.064 11.2193C48.0959 14.2142 50.7978 16.6941 53.9555 18.4624C57.1131 20.2307 60.6394 21.2385 64.2546 21.406C65.6928 21.4254 67.1287 21.2818 68.5347 20.978C68.8218 20.563 68.9757 20.0702 68.9757 19.5655C68.9757 19.0609 68.8218 18.5682 68.5347 18.1531C65.4126 13.6433 61.1012 10.0874 56.0795 7.88082C49.0517 4.19542 41.2446 2.24366 33.3093 2.18827C32.0404 2.12328 30.7689 2.12328 29.5 2.18827C24.2457 2.67888 19.1695 4.34659 14.648 7.0676Z" fill="black"/>
<path d="M8.95515 12.9741C7.91595 13.0907 6.94089 13.5352 6.17132 14.2432C5.40174 14.9512 4.87765 15.8859 4.67503 16.9118C4.03301 20.5927 6.38707 20.9351 6.38707 20.9351L8.95515 12.9741Z" fill="white"/>
<path d="M6.60085 21.2776C6.06394 21.1494 5.5922 20.8299 5.27401 20.3788C4.71641 19.4061 4.56273 18.2535 4.846 17.1687C5.0567 16.1382 5.58125 15.1982 6.34762 14.4779C7.11399 13.7575 8.08459 13.292 9.12612 13.1454L6.60085 21.2776ZM8.82651 13.3166C7.86738 13.4812 6.98104 13.9337 6.28531 14.6142C5.58959 15.2946 5.11743 16.1707 4.9316 17.1259C4.78634 17.6484 4.74938 18.1951 4.82298 18.7323C4.89658 19.2696 5.07919 19.7862 5.35961 20.2504C5.62834 20.6391 6.02047 20.9257 6.47244 21.0636L8.82651 13.3166Z" fill="black"/>
<path d="M4.84591 17.3825C4.73046 17.7704 4.696 18.178 4.74465 18.5798C4.7933 18.9816 4.92403 19.3692 5.12872 19.7183C5.33342 20.0675 5.60772 20.3709 5.93457 20.6097C6.26142 20.8484 6.63387 21.0174 7.02877 21.1062C7.4335 21.1176 7.83652 21.0491 8.21478 20.9047C8.59303 20.7603 8.93912 20.5427 9.23326 20.2645C9.5274 19.9862 9.76383 19.6528 9.92903 19.2831C10.0942 18.9134 10.185 18.5148 10.1961 18.1101C10.4957 15.97 9.59684 14.1724 8.0132 13.83C6.42955 13.4876 5.14552 15.328 4.84591 17.3825Z" fill="black"/>
<g style="mix-blend-mode:multiply">
<path d="M4.71775 17.4258C4.41814 19.6514 5.31697 20.5503 6.68661 20.9355C8.05625 21.3207 9.85389 20.3791 10.3247 18.1534C10.7955 15.9277 11.0951 13.4881 9.51149 13.1029C7.92784 12.7177 5.10296 14.6865 4.71775 17.4258Z" fill="url(#paint10_radial_78_173149)"/>
</g>
<path d="M4.761 17.4254C4.50419 19.2659 5.27462 20.7211 6.68706 20.9351C7.33314 21.2356 8.05764 21.3243 8.75714 21.1886C9.45665 21.0529 10.0954 20.6996 10.5822 20.1793C11.069 19.6589 11.379 18.9981 11.4679 18.2911C11.5568 17.5842 11.4201 16.8672 11.0773 16.2425C10.7345 15.6178 10.2031 15.1174 9.55901 14.8127C8.91489 14.508 8.19098 14.4145 7.49061 14.5457C6.79023 14.6769 6.1492 15.0259 5.659 15.5431C5.16881 16.0602 4.85452 16.719 4.761 17.4254Z" fill="url(#paint11_radial_78_173149)"/>
<path style="mix-blend-mode:screen" opacity="0.9" d="M7.02902 15.1144C7.02042 15.2259 7.0456 15.3374 7.10128 15.4343C7.15696 15.5313 7.24055 15.6092 7.34117 15.6579C7.44179 15.7067 7.55475 15.724 7.66535 15.7076C7.77595 15.6912 7.87904 15.6419 7.96119 15.5661C8.04335 15.4902 8.10075 15.3914 8.12592 15.2825C8.15109 15.1735 8.14286 15.0596 8.1023 14.9554C8.06174 14.8512 7.99074 14.7616 7.89855 14.6984C7.80635 14.6351 7.69724 14.6011 7.58544 14.6008C7.51448 14.5949 7.44306 14.6037 7.37572 14.6269C7.30838 14.65 7.24658 14.6869 7.19426 14.7352C7.14193 14.7835 7.10022 14.8422 7.07178 14.9074C7.04333 14.9727 7.02878 15.0432 7.02902 15.1144Z" fill="url(#paint12_radial_78_173149)"/>
<path d="M4.67539 17.5537C4.97499 15.6705 6.38743 14.3008 7.84267 14.5148C8.63435 14.7351 9.30736 15.2585 9.71593 15.9715C10.1245 16.6845 10.2357 17.5297 10.0255 18.3241C9.76873 20.1646 8.4847 21.3202 7.02946 21.1062C6.62902 21.0535 6.24454 20.9155 5.90197 20.7015C5.5594 20.4876 5.2667 20.2026 5.04359 19.8659C4.82049 19.5293 4.67217 19.1486 4.60866 18.7498C4.54514 18.3509 4.56789 17.9431 4.67539 17.5537ZM4.67539 17.5537C4.57313 17.908 4.54463 18.2795 4.59165 18.6453C4.63867 19.011 4.7602 19.3632 4.94875 19.6801C5.13729 19.997 5.38883 20.2719 5.68782 20.4878C5.98681 20.7036 6.32689 20.8558 6.68705 20.935C7.06281 20.9702 7.4418 20.9285 7.80096 20.8126C8.16011 20.6966 8.49193 20.5088 8.77621 20.2606C9.06048 20.0124 9.29128 19.7089 9.45455 19.3686C9.61782 19.0283 9.71015 18.6584 9.72593 18.2813C9.91212 17.5328 9.80246 16.7413 9.41977 16.0716C9.03709 15.4019 8.41087 14.9056 7.67147 14.686C6.43024 14.472 5.1034 15.7561 4.84659 17.5537H4.67539Z" fill="black"/>
<path d="M7.2432 15.8846C7.50581 15.9355 7.75562 16.0384 7.978 16.187C8.20039 16.3357 8.39089 16.5272 8.53836 16.7504C8.68582 16.9736 8.78729 17.224 8.83682 17.4869C8.88636 17.7497 8.88297 18.0199 8.82685 18.2814C8.78516 18.5486 8.69113 18.805 8.55016 19.0357C8.40918 19.2665 8.22402 19.4672 8.00531 19.6263C7.7866 19.7853 7.53865 19.8996 7.27566 19.9627C7.01267 20.0257 6.73982 20.0361 6.47278 19.9935C5.94795 19.8801 5.48836 19.5658 5.19238 19.1179C4.89639 18.6699 4.78755 18.1238 4.88914 17.5966C4.92527 17.3269 5.01573 17.0673 5.15507 16.8336C5.29441 16.5999 5.47972 16.3968 5.69978 16.2368C5.91985 16.0767 6.1701 15.963 6.43539 15.9025C6.70068 15.8419 6.97549 15.8358 7.2432 15.8846Z" fill="url(#paint13_radial_78_173149)"/>
<path d="M6.98664 16.5266C7.37098 16.609 7.70753 16.8392 7.92371 17.1674C8.1399 17.4957 8.2184 17.8958 8.14228 18.2814C8.11611 18.479 8.05077 18.6694 7.9501 18.8414C7.84944 19.0134 7.71547 19.1636 7.55603 19.2832C7.39659 19.4028 7.21489 19.4893 7.02158 19.5378C6.82826 19.5863 6.62722 19.5957 6.43022 19.5655C6.03463 19.4829 5.68733 19.2481 5.46316 18.9119C5.23899 18.5756 5.15591 18.1648 5.23179 17.7678C5.30496 17.3731 5.52929 17.0225 5.85704 16.7907C6.18479 16.5589 6.59008 16.4641 6.98664 16.5266Z" fill="black"/>
<path style="mix-blend-mode:screen" opacity="0.5" d="M8.7413 18.3241C8.73249 18.3749 8.71231 18.4231 8.68229 18.465C8.65226 18.5069 8.61316 18.5415 8.5679 18.5662C8.52263 18.5909 8.47238 18.605 8.42088 18.6076C8.36938 18.6101 8.31797 18.601 8.27049 18.5809C8.2182 18.5667 8.16951 18.5415 8.12759 18.5072C8.08567 18.4728 8.05147 18.43 8.02723 18.3815C8.003 18.3331 7.98927 18.28 7.98693 18.2259C7.98459 18.1717 7.99371 18.1177 8.01368 18.0673C8.05223 17.9685 8.12613 17.8874 8.22103 17.84C8.31594 17.7925 8.42508 17.782 8.52729 17.8105C8.61832 17.8566 8.68991 17.9336 8.72915 18.0278C8.76839 18.122 8.7727 18.2271 8.7413 18.3241Z" fill="url(#paint14_radial_78_173149)"/>
<path style="mix-blend-mode:screen" d="M6.38732 16.1845C5.8309 16.4413 5.4885 16.9121 5.5741 17.2545C5.5741 16.9549 5.5741 17.9394 6.72973 17.2545C7.28615 16.9977 7.62855 16.5269 7.54295 16.2273C7.45735 15.9277 6.94373 15.9277 6.38732 16.1845Z" fill="url(#paint15_linear_78_173149)"/>
<path d="M13.6633 22.476C17.2586 24.3165 17.0018 28.1686 17.9434 27.7406C18.885 27.3125 19.9979 22.9896 18.671 16.1414C17.815 11.5617 13.0641 10.8769 9.8968 11.0053C7.90094 13.4001 6.57219 16.279 6.04469 19.3515C5.97112 19.9332 5.84213 20.5065 5.65948 21.0636C8.39797 20.953 11.1281 21.4348 13.6633 22.476Z" fill="url(#paint16_linear_78_173149)"/>
<path d="M17.8575 27.8692C17.5151 27.8692 17.3011 27.3984 17.0015 26.6708C16.7543 25.7668 16.3275 24.9219 15.7465 24.1866C15.1656 23.4512 14.4424 22.8404 13.6202 22.3906C11.1326 21.469 8.47665 21.0896 5.83041 21.2778C6.00859 20.7341 6.13752 20.1754 6.21563 19.6086C6.68938 16.4475 8.0386 13.4822 10.1105 11.0483H10.7954C13.4918 11.0483 18.1572 11.7332 19.0132 16.2273C20.2972 22.8187 19.3984 27.484 18.2428 27.9548L17.8575 27.8692ZM5.83041 20.9782C8.53024 20.8835 11.2181 21.3802 13.7058 22.4335C14.5424 22.8763 15.2808 23.4837 15.8766 24.2193C16.4724 24.9548 16.9133 25.8033 17.1727 26.7136C17.4295 27.3128 17.6007 27.7836 17.8575 27.7836C18.7992 27.4412 19.8692 23.1611 18.5424 16.2701C17.7291 11.99 13.1494 11.2195 10.4957 11.2195H9.89653C7.91069 13.5992 6.5957 16.4656 6.08722 19.523C6.03539 20.0134 5.94958 20.4997 5.83041 20.9782Z" fill="black"/>
<path d="M27.3598 24.7873C27.3598 24.7873 31.6399 10.6201 36.8617 13.659C39.1729 15.0714 41.1418 25.5577 37.5893 27.0129C34.7422 28.2425 31.5725 28.5129 28.5582 27.7834C28.4514 26.6911 28.0357 25.6519 27.3598 24.7873Z" fill="url(#paint17_radial_78_173149)"/>
<path d="M27.3598 24.7873C27.3598 24.7873 31.6399 10.6201 36.8617 13.659C39.1729 15.0714 40.1574 23.2036 36.5621 24.6161C32.9668 26.0285 28.7722 28.2114 28.4726 27.4837C28.4289 26.4823 28.035 25.5281 27.3598 24.7873Z" fill="url(#paint18_radial_78_173149)"/>
<path d="M30.7838 28.2971C29.9706 28.2971 28.6438 28.2971 28.4726 27.8263C28.4316 27.5998 28.4316 27.3679 28.4726 27.1415C28.3587 26.2803 27.9855 25.4742 27.4025 24.8302C27.4025 24.3594 31.0406 13.2311 35.4919 13.2311C36.0349 13.2315 36.5674 13.3795 37.0328 13.6591C39.1492 16.3967 40.1163 19.8508 39.7293 23.2894C39.7293 25.3866 38.8732 26.7135 37.7604 27.1843C35.5179 27.9604 33.1565 28.337 30.7838 28.2971ZM27.4453 24.7446C28.0304 25.4207 28.4026 26.2545 28.5154 27.1415C28.4711 27.3388 28.4711 27.5434 28.5154 27.7407C28.5154 27.9547 29.2858 28.1259 30.6554 28.1259C33.0203 28.1508 35.3699 27.7447 37.5892 26.9275C38.9588 26.3711 39.3441 24.5734 39.4725 23.161C39.8405 19.8036 38.906 16.4331 36.8616 13.7447C36.4275 13.4657 35.9224 13.3172 35.4063 13.3167C31.169 13.3167 27.7021 23.9742 27.4453 24.7446Z" fill="#BA8419"/>
<path d="M2.83456 25.087C4.03017 24.9705 5.23426 24.9705 6.42987 25.087C6.42987 25.087 3.34818 24.9586 2.83456 25.087Z" fill="url(#paint19_linear_78_173149)"/>
<path d="M13.15 27.3555C11.5664 29.624 9.93993 29.6668 6.90104 27.9547C5.85006 27.2755 4.57671 27.03 3.34854 27.2699C4.76098 28.1687 4.58978 30.1376 4.20457 31.8496C3.81936 33.5617 7.24345 34.3321 9.81152 32.6628C13.8348 30.052 13.8348 27.6551 13.8348 27.6551C13.6356 27.499 13.3999 27.3959 13.15 27.3555Z" fill="url(#paint20_radial_78_173149)"/>
<path d="M9.76803 32.6627C10.5363 32.1643 11.2532 31.5908 11.9081 30.9507C11.2168 30.4127 10.3658 30.1206 9.48982 30.1206C8.61384 30.1206 7.76288 30.4127 7.07156 30.9507C6.64354 29.9662 5.3167 30.223 4.41788 30.5654C4.37438 31.057 4.28846 31.5439 4.16107 32.0207C3.77586 33.6043 7.19996 34.332 9.76803 32.6627Z" fill="url(#paint21_radial_78_173149)"/>
<path d="M5.70225 31.8068C5.75406 31.6306 5.74785 31.4425 5.68454 31.2701C5.62124 31.0977 5.50419 30.9503 5.35067 30.8496C5.19716 30.7488 5.01532 30.7001 4.832 30.7106C4.64868 30.7211 4.4736 30.7903 4.33261 30.9079C4.35294 31.2215 4.35294 31.536 4.33261 31.8496C3.9474 33.6044 7.3715 34.332 9.93958 32.6628L11.1808 31.764C9.55436 30.4799 8.01351 30.3515 5.70225 31.8068Z" fill="url(#paint22_radial_78_173149)"/>
<path d="M6.64434 33.6901C6.22354 33.725 5.8001 33.6707 5.40178 33.5305C5.00346 33.3904 4.63926 33.1676 4.33307 32.8768C4.20831 32.7404 4.1195 32.5751 4.07467 32.3957C4.02983 32.2164 4.03038 32.0287 4.07627 31.8496C4.19249 31.3704 4.27826 30.8844 4.33307 30.3944C4.79698 30.2104 5.28948 30.109 5.78831 30.0948C6.04195 30.0617 6.29967 30.1052 6.52844 30.2196C6.75721 30.3339 6.94661 30.514 7.07235 30.7368C7.76865 30.3081 8.56619 30.0718 9.38362 30.052C9.82209 30.0489 10.2567 30.1346 10.6612 30.3037C11.0657 30.4729 11.4319 30.7221 11.7377 31.0364C11.0551 31.6753 10.3255 32.2619 9.55482 32.7912C8.6791 33.3383 7.67606 33.6481 6.64434 33.6901ZM4.50428 30.4372C4.45301 30.9277 4.36719 31.414 4.24747 31.8924C4.2173 32.042 4.22086 32.1965 4.25788 32.3446C4.2949 32.4927 4.36445 32.6306 4.46148 32.7484C4.75181 33.0215 5.09588 33.231 5.47172 33.3637C5.84756 33.4963 6.24693 33.5492 6.64434 33.5189C7.73324 33.4988 8.79706 33.1885 9.72602 32.62C10.4529 32.1175 11.1398 31.5594 11.7805 30.9508C11.1803 30.4109 10.4048 30.1068 9.59762 30.0948C8.80289 30.136 8.02762 30.3554 7.32916 30.7368H7.11515C7.00393 30.521 6.82979 30.344 6.61578 30.2294C6.40178 30.1147 6.158 30.0678 5.91672 30.0948C5.42983 30.1276 4.95213 30.2433 4.50428 30.4372Z" fill="#FF5C5C"/>
<path d="M16.1885 27.655C15.3839 27.7729 14.5627 27.6996 13.7917 27.441C13.1907 27.0959 12.712 26.5724 12.422 25.943C12.5985 26.5043 12.9239 27.0072 13.3637 27.3982C13.2023 27.6451 13.0158 27.8746 12.8072 28.0831L12.3792 28.4255H11.8656H11.2236C10.0157 28.3075 8.85491 27.8961 7.8423 27.227C4.54661 25.301 2.83456 27.227 2.83456 27.227C3.24238 26.9216 3.70855 26.7031 4.20421 26.585C5.57385 27.5694 5.31703 29.6239 4.97462 30.8651C4.92874 31.0442 4.9282 31.2319 4.97303 31.4112C5.01787 31.5906 5.10668 31.7559 5.23144 31.8924C5.53763 32.1831 5.90182 32.4059 6.30014 32.546C6.69845 32.6862 7.12189 32.7405 7.5427 32.7056C8.66619 32.6971 9.76431 32.3706 10.71 31.764C14.4337 29.3243 14.7333 27.1414 14.7761 26.7134C15.1909 27.1041 15.6684 27.4224 16.1885 27.655ZM13.8345 27.655C13.8345 27.9547 13.4921 30.1803 9.85397 32.5772C8.925 33.1456 7.86118 33.4559 6.77227 33.476C6.37487 33.5063 5.9755 33.4535 5.59966 33.3208C5.22382 33.1882 4.87975 32.9786 4.58942 32.7056C4.49239 32.5878 4.42284 32.4498 4.38582 32.3017C4.3488 32.1536 4.34524 31.9992 4.37541 31.8496C4.71782 30.3515 4.97463 28.3399 3.64779 27.2698H4.50382H5.18864C5.4301 27.2375 5.67479 27.2375 5.91626 27.2698L6.68668 27.655L7.75671 28.1687L8.44153 28.4683H8.65553H9.08354C9.45213 28.5274 9.82779 28.5274 10.1964 28.4683C10.7079 28.4783 11.212 28.3448 11.6516 28.0831C11.843 27.9665 12.0161 27.8223 12.1652 27.655C12.3038 27.4917 12.4324 27.3202 12.5504 27.1414L12.8072 26.8846H13.0213L13.8345 27.655Z" fill="url(#paint23_linear_78_173149)"/>
<path d="M5.74557 31.8494C6.23984 31.2872 6.83506 30.8227 7.50042 30.4797C6.85484 30.8528 6.26424 31.3137 5.74557 31.8494Z" fill="#FF5C5C"/>
<path d="M28.3018 26.4567C27.7925 25.2428 27.0343 24.1493 26.0761 23.2466L28.6442 29.838C28.6621 28.7014 28.5472 27.5666 28.3018 26.4567Z" fill="url(#paint24_radial_78_173149)"/>
<path d="M27.9165 25.5577C29.4948 22.1351 31.5245 18.9394 33.9515 16.0558C31.5633 18.9676 29.5369 22.1582 27.9165 25.5577Z" fill="#BA8419"/>
<path d="M28.2162 26.0711C30.1983 22.2013 32.9341 18.767 36.2628 15.97C32.9463 18.7789 30.2126 22.2106 28.2162 26.0711Z" fill="#BA8419"/>
<path d="M28.3444 26.4566C30.8162 23.3159 33.4447 20.3018 36.2198 17.4255C36.2198 17.4255 29.0292 25.301 28.3444 26.4566Z" fill="#BA8419"/>
<path d="M28.4726 26.8418C28.4726 26.2426 37.0328 18.7096 37.8888 17.8536C37.5892 17.8108 28.5582 26.4138 28.4726 26.8418Z" fill="#BA8419"/>
<path d="M28.4298 27.0984C31.7889 25.312 34.9581 23.1896 37.8889 20.7638C34.995 23.2387 31.8202 25.3649 28.4298 27.0984Z" fill="#BA8419"/>
<path d="M28.4298 27.3555C31.7704 26.0539 35.0046 24.4941 38.1029 22.6902C35.0206 24.5242 31.784 26.0852 28.4298 27.3555Z" fill="#BA8419"/>
<path d="M28.5153 27.5694C32.2511 26.8224 35.8101 25.3697 39.0016 23.2893C35.8255 25.399 32.2605 26.854 28.5153 27.5694Z" fill="#BA8419"/>
<path d="M29.0293 27.8688H28.6441C31.9738 27.7305 35.2447 26.9455 38.2744 25.5575C35.3716 26.9198 32.2317 27.7048 29.0293 27.8688Z" fill="#BA8419"/>
<path d="M28.7297 29.8378C28.649 28.6988 28.4773 27.5681 28.2161 26.4565C27.7145 25.2441 27.0047 24.1287 26.1189 23.1608C27.0974 24.0717 27.8707 25.1806 28.3873 26.4137C28.6322 27.5381 28.7471 28.687 28.7297 29.8378Z" fill="black"/>
<path d="M36.9046 39.7677C41.975 39.3874 46.8651 37.723 51.1146 34.9312C55.9226 32.1808 59.8886 28.1703 62.5854 23.332C60.011 28.2758 56.0556 32.365 51.2002 35.1024C46.9251 37.8811 41.9959 39.4897 36.9046 39.7677Z" fill="url(#paint25_linear_78_173149)"/>
<path d="M7.62866 35.5303C8.75682 35.2043 9.84722 34.7595 10.8816 34.2035C9.86154 34.7894 8.76746 35.2357 7.62866 35.5303Z" fill="url(#paint26_linear_78_173149)"/>
<path style="mix-blend-mode:screen" opacity="0.4" d="M6.30184 32.3206C6.08783 32.5346 5.91662 32.663 5.83102 32.6202C5.74542 32.5774 5.83102 32.3634 6.04502 32.1494C6.25903 31.9354 6.43024 31.7642 6.51584 31.8498C6.60144 31.9354 6.47304 32.1066 6.30184 32.3206Z" fill="url(#paint27_linear_78_173149)"/>
<path style="mix-blend-mode:screen" opacity="0.4" d="M5.83073 20.9779C6.48905 16.5455 8.54691 12.4395 11.7039 9.2594C14.8609 6.07931 18.9517 3.99157 23.3792 3.30096C30.903 1.65303 38.7161 1.8761 46.1336 3.95061C53.5511 6.02512 60.3464 9.88772 65.9236 15.1997C67.5501 25.1296 48.5035 40.1956 42.383 40.8804C9.85405 44.6469 18.7995 28.6821 15.4182 25.9C14.069 24.6598 12.4516 23.748 10.692 23.2358C8.93248 22.7235 7.07838 22.6246 5.27432 22.9467C5.52327 22.31 5.70962 21.6507 5.83073 20.9779Z" fill="url(#paint28_linear_78_173149)"/>
<path style="mix-blend-mode:screen" opacity="0.55" d="M28.2162 24.1452C28.901 21.2775 33.6091 10.5772 37.0332 14.7717C38.139 16.4176 38.8127 18.3154 38.9922 20.2901C39.1718 22.2648 38.8513 24.253 38.0605 26.0713C36.5624 26.7561 32.2395 21.8339 28.2162 24.1452Z" fill="url(#paint29_linear_78_173149)"/>
<path style="mix-blend-mode:screen" d="M29.885 20.0364C30.7411 16.9119 35.7488 12.0754 37.0328 16.6123C35.6306 16.3161 34.1698 16.4911 32.8773 17.1103C31.5848 17.7295 30.533 18.7581 29.885 20.0364Z" fill="url(#paint30_linear_78_173149)"/>
<path style="mix-blend-mode:screen" opacity="0.46" d="M69.3904 17.8107C76.5382 14.1298 91.1335 1.84582 92.7171 14.3866C94.0439 25.0013 90.8767 33.3475 85.5265 32.4487C78.7211 31.2931 66.3944 25.5577 69.3904 17.8107Z" fill="url(#paint31_linear_78_173149)"/>
<path style="mix-blend-mode:screen" d="M76.9663 13.8303C83.2581 9.03658 92.8884 3.94325 92.7172 17.1688C89.8923 10.0638 87.6238 8.86537 76.9663 13.8303Z" fill="url(#paint32_linear_78_173149)"/>
<path style="mix-blend-mode:screen" opacity="0.4" d="M6.55862 20.935C8.82709 11.9039 12.722 5.52656 26.2472 3.30089C35.5305 1.65141 45.0989 3.15823 53.4259 7.58101C35.4066 3.30089 16.1889 0.690014 6.55862 20.935Z" fill="url(#paint33_linear_78_173149)"/>
<path style="mix-blend-mode:screen" opacity="0.42" d="M61.4295 24.8302C61.4295 21.2777 54.4529 18.41 45.8926 18.41C37.3324 18.41 28.1301 21.1493 28.1301 24.7018C28.1301 28.2543 37.846 28.9819 45.8926 31.2932C53.9392 33.6045 61.4295 28.4255 61.4295 24.8302Z" fill="url(#paint34_linear_78_173149)"/>
<path style="mix-blend-mode:screen" opacity="0.68" d="M1.12267 27.8689C0.737457 26.4137 1.50788 24.5304 6.17321 25.4292C8.16929 26.4112 10.3331 27.0066 12.5506 27.1841C12.1364 27.8225 11.5035 28.2878 10.7706 28.4927C10.0377 28.6976 9.25527 28.628 8.57007 28.2969C7.34811 27.3213 5.85145 26.7525 4.28995 26.6704C2.87752 26.9273 1.46508 27.2269 1.12267 27.8689Z" fill="url(#paint35_linear_78_173149)"/>
<path style="mix-blend-mode:screen" opacity="0.72" d="M3.86188 32.8767C4.9371 33.6926 6.2609 34.1127 7.60987 34.0659C8.95884 34.0191 10.2504 33.5084 11.2665 32.6199C10.068 34.1179 5.10311 36.6004 3.86188 32.8767Z" fill="url(#paint36_linear_78_173149)"/>
<path style="mix-blend-mode:screen" opacity="0.4" d="M36.0916 1.204C47.2944 0.845743 58.2109 4.78058 66.6088 12.2039C57.5457 5.98545 47.0379 2.19791 36.0916 1.204Z" fill="url(#paint37_linear_78_173149)"/>
<path d="M17.7295 18.4103C17.7831 18.8196 17.7526 19.2356 17.6401 19.6328C17.5275 20.03 17.3352 20.4001 17.0748 20.7206C16.8145 21.041 16.4916 21.305 16.1258 21.4965C15.7601 21.688 15.3591 21.8029 14.9475 21.8343C14.1214 21.7375 13.3666 21.3196 12.8461 20.6709C12.3256 20.0222 12.081 19.1949 12.1654 18.3674C12.1654 16.1418 13.321 14.4725 14.9475 14.5153C16.5739 14.5581 17.6867 16.2702 17.7295 18.4103Z" fill="black"/>
<g style="mix-blend-mode:multiply">
<path d="M17.8152 18.4101C17.9251 19.2269 17.7079 20.0539 17.2109 20.7113C16.7139 21.3686 15.9773 21.803 15.1615 21.9198C13.3638 22.1766 12.2082 20.6786 12.037 18.3673C11.8658 16.056 13.0214 13.6592 14.7335 13.488C16.4455 13.3168 17.8152 15.5852 17.8152 18.4101Z" fill="url(#paint38_radial_78_173149)"/>
</g>
<path d="M17.6442 18.4098C17.5239 18.917 17.2635 19.3803 16.8926 19.7466C16.5218 20.113 16.0555 20.3679 15.5469 20.4821C15.0382 20.5963 14.5077 20.5653 14.0159 20.3927C13.524 20.22 13.0905 19.9126 12.7649 19.5056C12.4392 19.0985 12.2345 18.6081 12.174 18.0903C12.1135 17.5726 12.1997 17.0482 12.4228 16.577C12.6459 16.1059 12.9969 15.7069 13.4358 15.4255C13.8746 15.1442 14.3837 14.9918 14.905 14.9857C15.7151 15.0929 16.4525 15.509 16.9629 16.1471C17.4734 16.7852 17.7175 17.5959 17.6442 18.4098Z" fill="url(#paint39_radial_78_173149)"/>
<path style="mix-blend-mode:screen" opacity="0.9" d="M15.1616 15.7988C15.1408 15.9424 15.0687 16.0737 14.9584 16.1681C14.8482 16.2626 14.7075 16.3139 14.5623 16.3124C14.4907 16.3074 14.4209 16.2875 14.3574 16.2539C14.294 16.2203 14.2383 16.1738 14.1939 16.1173C14.1495 16.0608 14.1175 15.9957 14.0999 15.9261C14.0822 15.8565 14.0794 15.7839 14.0915 15.7132C14.0913 15.6419 14.1058 15.5715 14.1343 15.5062C14.1627 15.4409 14.2044 15.3822 14.2568 15.3339C14.3091 15.2856 14.3709 15.2488 14.4382 15.2256C14.5056 15.2025 14.577 15.1936 14.6479 15.1995C14.7211 15.2049 14.7924 15.2248 14.8579 15.2578C14.9234 15.2909 14.9816 15.3366 15.0294 15.3923C15.0771 15.448 15.1134 15.5126 15.136 15.5823C15.1587 15.6521 15.1674 15.7256 15.1616 15.7988Z" fill="url(#paint40_radial_78_173149)"/>
<path d="M14.9476 21.9197C14.1226 21.8024 13.3741 21.373 12.8564 20.7199C12.3388 20.0669 12.0915 19.2401 12.1655 18.41C12.0761 17.9978 12.0802 17.5708 12.1774 17.1603C12.2745 16.7499 12.4624 16.3664 12.7272 16.038C12.992 15.7097 13.3269 15.4448 13.7074 15.2628C14.088 15.0808 14.5044 14.9863 14.9262 14.9863C15.348 14.9863 15.7645 15.0808 16.145 15.2628C16.5256 15.4448 16.8605 15.7097 17.1253 16.038C17.39 16.3664 17.5779 16.7499 17.6751 17.1603C17.7723 17.5708 17.7763 17.9978 17.6869 18.41C17.7839 19.2378 17.5507 20.0704 17.038 20.7274C16.5252 21.3844 15.7741 21.8128 14.9476 21.9197ZM14.9476 15.0715C14.1712 15.1884 13.4701 15.6014 12.9914 16.2237C12.5127 16.8461 12.2934 17.6296 12.3796 18.41C12.3796 20.2933 13.578 21.7913 14.9904 21.7485C15.7469 21.5761 16.4224 21.1519 16.9063 20.5454C17.3902 19.9388 17.6537 19.1859 17.6537 18.41C17.6537 17.6342 17.3902 16.8813 16.9063 16.2747C16.4224 15.6682 15.7469 15.2439 14.9904 15.0715H14.9476Z" fill="black"/>
<path d="M15.0331 16.6124C15.5819 16.6456 16.0957 16.8929 16.464 17.3012C16.8322 17.7095 17.0254 18.246 17.002 18.7953C16.9907 19.3554 16.7603 19.8888 16.3602 20.2809C15.9601 20.6731 15.4221 20.8927 14.8619 20.8925C14.2943 20.8925 13.75 20.6671 13.3486 20.2657C12.9473 19.8644 12.7218 19.3201 12.7218 18.7525C12.7218 18.1849 12.9473 17.6406 13.3486 17.2392C13.75 16.8379 14.2943 16.6124 14.8619 16.6124H15.0331Z" fill="url(#paint41_radial_78_173149)"/>
<path d="M14.9903 17.297C15.1927 17.2962 15.393 17.3377 15.5785 17.4187C15.764 17.4997 15.9305 17.6185 16.0675 17.7676C16.2044 17.9166 16.3088 18.0926 16.3739 18.2842C16.439 18.4759 16.4634 18.679 16.4455 18.8806C16.4514 19.0846 16.4156 19.2876 16.3403 19.4772C16.2649 19.6668 16.1517 19.8391 16.0074 19.9834C15.8631 20.1276 15.6909 20.2409 15.5013 20.3163C15.3116 20.3916 15.1086 20.4274 14.9047 20.4215C14.7022 20.4106 14.5039 20.3598 14.3211 20.2721C14.1383 20.1843 13.9747 20.0614 13.8395 19.9103C13.7043 19.7592 13.6002 19.5829 13.5333 19.3916C13.4664 19.2002 13.4379 18.9975 13.4494 18.795C13.4494 18.5947 13.4895 18.3963 13.5674 18.2117C13.6454 18.0271 13.7596 17.86 13.9032 17.7203C14.0469 17.5807 14.2171 17.4712 14.4038 17.3985C14.5906 17.3258 14.79 17.2913 14.9903 17.297Z" fill="black"/>
<path style="mix-blend-mode:screen" opacity="0.5" d="M16.1885 18.7952C16.1677 18.9012 16.1076 18.9953 16.0203 19.0588C15.933 19.1223 15.8249 19.1505 15.7177 19.1377C15.6323 19.1274 15.552 19.0917 15.4871 19.0352C15.4223 18.9786 15.3761 18.9038 15.3544 18.8206C15.3327 18.7373 15.3366 18.6495 15.3656 18.5685C15.3945 18.4875 15.4472 18.4171 15.5168 18.3665C15.5864 18.3159 15.6696 18.2875 15.7556 18.2849C15.8415 18.2823 15.9263 18.3056 15.9988 18.3519C16.0713 18.3982 16.1282 18.4652 16.1621 18.5443C16.1959 18.6234 16.2051 18.7108 16.1885 18.7952Z" fill="url(#paint42_radial_78_173149)"/>
<path style="mix-blend-mode:screen" d="M14.1767 16.9976C13.6203 17.2972 13.3207 17.8536 13.4919 18.196C13.6631 18.5384 14.2623 18.5384 14.8187 18.196C15.3752 17.8536 15.6748 17.34 15.5036 16.9976C15.3324 16.6552 14.7331 16.6124 14.1767 16.9976Z" fill="url(#paint43_linear_78_173149)"/>
<defs>
<linearGradient id="paint0_linear_78_173149" x1="21.8387" y1="9.84982" x2="71.4453" y2="9.84982" gradientUnits="userSpaceOnUse">
<stop stop-color="#92CAF7"/>
<stop offset="0.53" stop-color="#5FB1F3"/>
<stop offset="0.9" stop-color="#419BE3"/>
</linearGradient>
<linearGradient id="paint1_linear_78_173149" x1="21.8387" y1="9.84982" x2="71.4453" y2="9.84982" gradientUnits="userSpaceOnUse">
<stop offset="0.02" stop-color="#DCEEFC"/>
<stop offset="1" stop-color="#5FB1F3"/>
</linearGradient>
<radialGradient id="paint2_radial_78_173149" cx="0" cy="0" r="1" gradientUnits="userSpaceOnUse" gradientTransform="translate(79.3633 20.7212) scale(14.2528)">
<stop offset="0.14" stop-color="#FFFE5C"/>
<stop offset="0.99" stop-color="#E5BE0E"/>
</radialGradient>
<radialGradient id="paint3_radial_78_173149" cx="0" cy="0" r="1" gradientUnits="userSpaceOnUse" gradientTransform="translate(78.8072 19.0521) scale(13.2256 13.2256)">
<stop stop-color="white"/>
<stop offset="1" stop-color="#FFFE5C"/>
</radialGradient>
<linearGradient id="paint4_linear_78_173149" x1="35.5776" y1="34.1607" x2="70.0754" y2="34.1607" gradientUnits="userSpaceOnUse">
<stop stop-color="#92CAF7"/>
<stop offset="0.53" stop-color="#5FB1F3"/>
<stop offset="0.9" stop-color="#419BE3"/>
</linearGradient>
<linearGradient id="paint5_linear_78_173149" x1="34.9355" y1="34.4173" x2="67.9352" y2="34.4173" gradientUnits="userSpaceOnUse">
<stop offset="0.02" stop-color="#DCEEFC"/>
<stop offset="1" stop-color="#5FB1F3"/>
</linearGradient>
<radialGradient id="paint6_radial_78_173149" cx="0" cy="0" r="1" gradientUnits="userSpaceOnUse" gradientTransform="translate(29.0295 25.2581) scale(47.0385 47.0385)">
<stop stop-color="white"/>
<stop offset="1" stop-color="#D2D666"/>
</radialGradient>
<radialGradient id="paint7_radial_78_173149" cx="0" cy="0" r="1" gradientUnits="userSpaceOnUse" gradientTransform="translate(29.5431 2.5307) scale(55.77)">
<stop stop-color="#5FB1F3"/>
<stop offset="0.6" stop-color="white"/>
<stop offset="1" stop-color="#D2D666"/>
</radialGradient>
<linearGradient id="paint8_linear_78_173149" x1="34.2508" y1="2.31679" x2="36.2196" y2="44.1336" gradientUnits="userSpaceOnUse">
<stop stop-color="#5FB1F3"/>
<stop offset="1" stop-color="#D2D666"/>
</linearGradient>
<radialGradient id="paint9_radial_78_173149" cx="0" cy="0" r="1" gradientUnits="userSpaceOnUse" gradientTransform="translate(26.7602 3.72917) scale(43.5288 43.5288)">
<stop stop-color="#676767"/>
<stop offset="0.81"/>
</radialGradient>
<radialGradient id="paint10_radial_78_173149" cx="0" cy="0" r="1" gradientUnits="userSpaceOnUse" gradientTransform="translate(15.9993 30.8517) rotate(-173.66) scale(4.91841 4.9184)">
<stop stop-color="#D6D6D6"/>
<stop offset="0.35" stop-color="#CFCFCF"/>
<stop offset="0.84" stop-color="#BDBDBD"/>
<stop offset="1" stop-color="#B6B6B6"/>
</radialGradient>
<radialGradient id="paint11_radial_78_173149" cx="0" cy="0" r="1" gradientUnits="userSpaceOnUse" gradientTransform="translate(25.82 -24.7039) rotate(99.211) scale(3.27284 2.60177)">
<stop stop-color="white"/>
<stop offset="0.54" stop-color="#ECECEC"/>
<stop offset="0.66" stop-color="#E9E9EA"/>
<stop offset="0.73" stop-color="#E1E1E2"/>
<stop offset="0.8" stop-color="#D2D2D6"/>
<stop offset="0.85" stop-color="#BDBDC4"/>
<stop offset="0.91" stop-color="#A2A2AD"/>
<stop offset="0.94" stop-color="#8C8C9A"/>
<stop offset="1" stop-color="#C5C5C5"/>
</radialGradient>
<radialGradient id="paint12_radial_78_173149" cx="0" cy="0" r="1" gradientUnits="userSpaceOnUse" gradientTransform="translate(13.4526 17.412) rotate(-176.987) scale(0.529325 0.557114)">
<stop stop-color="white"/>
<stop offset="0.04" stop-color="#EDEDED"/>
<stop offset="0.19" stop-color="#AFAFAF"/>
<stop offset="0.34" stop-color="#7A7A7A"/>
<stop offset="0.49" stop-color="#4E4E4E"/>
<stop offset="0.63" stop-color="#2C2C2C"/>
<stop offset="0.76" stop-color="#141414"/>
<stop offset="0.88" stop-color="#050505"/>
<stop offset="0.98"/>
</radialGradient>
<radialGradient id="paint13_radial_78_173149" cx="0" cy="0" r="1" gradientUnits="userSpaceOnUse" gradientTransform="translate(13.7832 14.1665) rotate(6.34019) scale(4.14712 4.14711)">
<stop stop-color="#28F7FF"/>
<stop offset="0.01" stop-color="#27F3FF"/>
<stop offset="0.33" stop-color="#0B9AFE"/>
<stop offset="0.47" stop-color="#0077FE"/>
<stop offset="0.63" stop-color="#0053DA"/>
<stop offset="0.88" stop-color="#0024AA"/>
<stop offset="1" stop-color="#001297"/>
</radialGradient>
<radialGradient id="paint14_radial_78_173149" cx="0" cy="0" r="1" gradientUnits="userSpaceOnUse" gradientTransform="translate(9.50488 14.4899) rotate(18.4352) scale(0.389806 0.409301)">
<stop stop-color="white"/>
<stop offset="0.22" stop-color="#B3B3B3"/>
<stop offset="0.62" stop-color="#333333"/>
<stop offset="0.79"/>
<stop offset="1"/>
</radialGradient>
<linearGradient id="paint15_linear_78_173149" x1="6.01666" y1="16.2996" x2="6.43707" y2="17.4285" gradientUnits="userSpaceOnUse">
<stop stop-color="#B9B9B9"/>
<stop offset="0.04" stop-color="#ADADAD"/>
<stop offset="0.33" stop-color="#646464"/>
<stop offset="0.57" stop-color="#2E2E2E"/>
<stop offset="0.75" stop-color="#0D0D0D"/>
<stop offset="0.85"/>
<stop offset="0.98"/>
</linearGradient>
<linearGradient id="paint16_linear_78_173149" x1="9.854" y1="14.5578" x2="17.7722" y2="26.4565" gradientUnits="userSpaceOnUse">
<stop stop-color="#676767"/>
<stop offset="0.81"/>
</linearGradient>
<radialGradient id="paint17_radial_78_173149" cx="0" cy="0" r="1" gradientUnits="userSpaceOnUse" gradientTransform="translate(33.4376 20.7212) scale(6.84819)">
<stop offset="0.14" stop-color="#FFFE5C"/>
<stop offset="0.99" stop-color="#E5BE0E"/>
</radialGradient>
<radialGradient id="paint18_radial_78_173149" cx="0" cy="0" r="1" gradientUnits="userSpaceOnUse" gradientTransform="translate(33.138 20.4216) scale(6.54858)">
<stop stop-color="white"/>
<stop offset="1" stop-color="#FFFE5C"/>
</radialGradient>
<linearGradient id="paint19_linear_78_173149" x1="3.34818" y1="23.8458" x2="5.44544" y2="25.8574" gradientUnits="userSpaceOnUse">
<stop stop-color="#96C3B0"/>
<stop offset="1" stop-color="#D2D666"/>
</linearGradient>
<radialGradient id="paint20_radial_78_173149" cx="0" cy="0" r="1" gradientUnits="userSpaceOnUse" gradientTransform="translate(8.8271 29.3672) scale(5.90657 5.90656)">
<stop/>
<stop offset="0.02" stop-color="#040000"/>
<stop offset="0.15" stop-color="#180000"/>
<stop offset="0.28" stop-color="#250000"/>
<stop offset="0.41" stop-color="#290000"/>
<stop offset="0.55" stop-color="#44120B"/>
<stop offset="0.69" stop-color="#571F13"/>
<stop offset="0.84" stop-color="#652919"/>
<stop offset="1" stop-color="#7A3721"/>
</radialGradient>
<radialGradient id="paint21_radial_78_173149" cx="0" cy="0" r="1" gradientUnits="userSpaceOnUse" gradientTransform="translate(5.83032 32.8767) scale(6.20617 6.20618)">
<stop offset="0.02" stop-color="#FF9C9C"/>
<stop offset="0.89" stop-color="#D25B6D"/>
</radialGradient>
<radialGradient id="paint22_radial_78_173149" cx="0" cy="0" r="1" gradientUnits="userSpaceOnUse" gradientTransform="translate(4.76063 31.8496) scale(6.80539 6.80538)">
<stop stop-color="#FFD8D8"/>
<stop offset="0.2" stop-color="#FFC1C1"/>
<stop offset="0.55" stop-color="#FF9C9C"/>
</radialGradient>
<linearGradient id="paint23_linear_78_173149" x1="13.6205" y1="26.1998" x2="2.62056" y2="32.0208" gradientUnits="userSpaceOnUse">
<stop stop-color="#76B8D7"/>
<stop offset="1" stop-color="#C3D178"/>
</linearGradient>
<radialGradient id="paint24_radial_78_173149" cx="0" cy="0" r="1" gradientUnits="userSpaceOnUse" gradientTransform="translate(26.761 3.72922) scale(43.5288 43.5288)">
<stop stop-color="#676767"/>
<stop offset="0.81"/>
</radialGradient>
<linearGradient id="paint25_linear_78_173149" x1="36.7762" y1="31.5499" x2="62.4569" y2="31.5499" gradientUnits="userSpaceOnUse">
<stop stop-color="#92C1B5"/>
<stop offset="0.63" stop-color="#A7C89B"/>
<stop offset="1" stop-color="#D2D666"/>
</linearGradient>
<linearGradient id="paint26_linear_78_173149" x1="7.71426" y1="34.7599" x2="10.9672" y2="34.7599" gradientUnits="userSpaceOnUse">
<stop stop-color="#A6C89D"/>
<stop offset="1" stop-color="#D2D666"/>
</linearGradient>
<linearGradient id="paint27_linear_78_173149" x1="5.83102" y1="32.235" x2="6.51584" y2="32.235" gradientUnits="userSpaceOnUse">
<stop stop-color="white"/>
<stop offset="0.12" stop-color="#E2E2E2"/>
<stop offset="0.43" stop-color="#9C9C9C"/>
<stop offset="0.7" stop-color="#686868"/>
<stop offset="0.89" stop-color="#494949"/>
<stop offset="1" stop-color="#3D3D3D"/>
</linearGradient>
<linearGradient id="paint28_linear_78_173149" x1="29.7994" y1="1.1609" x2="41.5269" y2="37.3707" gradientUnits="userSpaceOnUse">
<stop stop-color="white"/>
<stop offset="0.09" stop-color="#D7D7D7"/>
<stop offset="0.23" stop-color="#9F9F9F"/>
<stop offset="0.36" stop-color="#6E6E6E"/>
<stop offset="0.5" stop-color="#474747"/>
<stop offset="0.63" stop-color="#282828"/>
<stop offset="0.76" stop-color="#121212"/>
<stop offset="0.89" stop-color="#040404"/>
<stop offset="1"/>
</linearGradient>
<linearGradient id="paint29_linear_78_173149" x1="28.2162" y1="19.9507" x2="39.0877" y2="19.9507" gradientUnits="userSpaceOnUse">
<stop stop-color="white"/>
<stop offset="0.09" stop-color="#D7D7D7"/>
<stop offset="0.23" stop-color="#9F9F9F"/>
<stop offset="0.36" stop-color="#6E6E6E"/>
<stop offset="0.5" stop-color="#474747"/>
<stop offset="0.63" stop-color="#282828"/>
<stop offset="0.76" stop-color="#121212"/>
<stop offset="0.89" stop-color="#040404"/>
<stop offset="1"/>
</linearGradient>
<linearGradient id="paint30_linear_78_173149" x1="31.5543" y1="15.5423" x2="34.6788" y2="19.7796" gradientUnits="userSpaceOnUse">
<stop stop-color="white"/>
<stop offset="0.09" stop-color="#D7D7D7"/>
<stop offset="0.23" stop-color="#9F9F9F"/>
<stop offset="0.36" stop-color="#6E6E6E"/>
<stop offset="0.5" stop-color="#474747"/>
<stop offset="0.63" stop-color="#282828"/>
<stop offset="0.76" stop-color="#121212"/>
<stop offset="0.89" stop-color="#040404"/>
<stop offset="1"/>
</linearGradient>
<linearGradient id="paint31_linear_78_173149" x1="68.9196" y1="20.6784" x2="93.0167" y2="20.6784" gradientUnits="userSpaceOnUse">
<stop stop-color="white"/>
<stop offset="0.09" stop-color="#D7D7D7"/>
<stop offset="0.23" stop-color="#9F9F9F"/>
<stop offset="0.36" stop-color="#6E6E6E"/>
<stop offset="0.5" stop-color="#474747"/>
<stop offset="0.63" stop-color="#282828"/>
<stop offset="0.76" stop-color="#121212"/>
<stop offset="0.89" stop-color="#040404"/>
<stop offset="1"/>
</linearGradient>
<linearGradient id="paint32_linear_78_173149" x1="82.7873" y1="9.84981" x2="88.1803" y2="19.1805" gradientUnits="userSpaceOnUse">
<stop stop-color="white"/>
<stop offset="0.09" stop-color="#D7D7D7"/>
<stop offset="0.23" stop-color="#9F9F9F"/>
<stop offset="0.36" stop-color="#6E6E6E"/>
<stop offset="0.5" stop-color="#474747"/>
<stop offset="0.63" stop-color="#282828"/>
<stop offset="0.76" stop-color="#121212"/>
<stop offset="0.89" stop-color="#040404"/>
<stop offset="1"/>
</linearGradient>
<linearGradient id="paint33_linear_78_173149" x1="6.55862" y1="11.7755" x2="53.4259" y2="11.7755" gradientUnits="userSpaceOnUse">
<stop stop-color="white"/>
<stop offset="0.24" stop-color="#B9B9B9"/>
<stop offset="0.51" stop-color="#717171"/>
<stop offset="0.74" stop-color="#3C3C3C"/>
<stop offset="0.91" stop-color="#1B1B1B"/>
<stop offset="1" stop-color="#0F0F0F"/>
</linearGradient>
<linearGradient id="paint34_linear_78_173149" x1="28.1301" y1="25.1726" x2="61.4295" y2="25.1726" gradientUnits="userSpaceOnUse">
<stop stop-color="white"/>
<stop offset="0.06" stop-color="#D7D7D7"/>
<stop offset="0.15" stop-color="#9F9F9F"/>
<stop offset="0.24" stop-color="#6E6E6E"/>
<stop offset="0.33" stop-color="#474747"/>
<stop offset="0.42" stop-color="#282828"/>
<stop offset="0.5" stop-color="#121212"/>
<stop offset="0.59" stop-color="#040404"/>
<stop offset="0.66"/>
<stop offset="1"/>
</linearGradient>
<linearGradient id="paint35_linear_78_173149" x1="1.03706" y1="26.9273" x2="12.5506" y2="26.9273" gradientUnits="userSpaceOnUse">
<stop stop-color="white"/>
<stop offset="0.24" stop-color="#B9B9B9"/>
<stop offset="0.51" stop-color="#717171"/>
<stop offset="0.74" stop-color="#3C3C3C"/>
<stop offset="0.91" stop-color="#1B1B1B"/>
<stop offset="1" stop-color="#0F0F0F"/>
</linearGradient>
<linearGradient id="paint36_linear_78_173149" x1="7.20037" y1="31.9351" x2="9.64003" y2="37.6704" gradientUnits="userSpaceOnUse">
<stop stop-color="white"/>
<stop offset="0.1" stop-color="#E1E1E1"/>
<stop offset="0.44" stop-color="#828282"/>
<stop offset="0.71" stop-color="#3C3C3C"/>
<stop offset="0.9" stop-color="#111111"/>
<stop offset="1"/>
</linearGradient>
<linearGradient id="paint37_linear_78_173149" x1="48.1187" y1="-0.893259" x2="64.3832" y2="37.5422" gradientUnits="userSpaceOnUse">
<stop stop-color="white"/>
<stop offset="0.24" stop-color="#B9B9B9"/>
<stop offset="0.51" stop-color="#717171"/>
<stop offset="0.74" stop-color="#3C3C3C"/>
<stop offset="0.91" stop-color="#1B1B1B"/>
<stop offset="1" stop-color="#0F0F0F"/>
</linearGradient>
<radialGradient id="paint38_radial_78_173149" cx="0" cy="0" r="1" gradientUnits="userSpaceOnUse" gradientTransform="translate(13.2444 28.9593) rotate(6.3402) scale(4.95328 4.95329)">
<stop stop-color="#D6D6D6"/>
<stop offset="0.35" stop-color="#CFCFCF"/>
<stop offset="0.84" stop-color="#BDBDBD"/>
<stop offset="1" stop-color="#B6B6B6"/>
</radialGradient>
<radialGradient id="paint39_radial_78_173149" cx="0" cy="0" r="1" gradientUnits="userSpaceOnUse" gradientTransform="translate(46.2294 11.6939) rotate(88.7519) scale(3.53707 2.82025)">
<stop stop-color="white"/>
<stop offset="0.54" stop-color="#ECECEC"/>
<stop offset="0.66" stop-color="#E9E9EA"/>
<stop offset="0.73" stop-color="#E1E1E2"/>
<stop offset="0.8" stop-color="#D2D2D6"/>
<stop offset="0.85" stop-color="#BDBDC4"/>
<stop offset="0.91" stop-color="#A2A2AD"/>
<stop offset="0.94" stop-color="#8C8C9A"/>
<stop offset="1" stop-color="#C5C5C5"/>
</radialGradient>
<radialGradient id="paint40_radial_78_173149" cx="0" cy="0" r="1" gradientUnits="userSpaceOnUse" gradientTransform="translate(14.6582 19.0859) rotate(6.00897) scale(0.531515 0.55918)">
<stop stop-color="white"/>
<stop offset="0.04" stop-color="#EDEDED"/>
<stop offset="0.19" stop-color="#AFAFAF"/>
<stop offset="0.34" stop-color="#7A7A7A"/>
<stop offset="0.49" stop-color="#4E4E4E"/>
<stop offset="0.63" stop-color="#2C2C2C"/>
<stop offset="0.76" stop-color="#141414"/>
<stop offset="0.88" stop-color="#050505"/>
<stop offset="0.98"/>
</radialGradient>
<radialGradient id="paint41_radial_78_173149" cx="0" cy="0" r="1" gradientUnits="userSpaceOnUse" gradientTransform="translate(14.216 19.5807) scale(4.12176)">
<stop stop-color="#28F7FF"/>
<stop offset="0.01" stop-color="#27F3FF"/>
<stop offset="0.33" stop-color="#0B9AFE"/>
<stop offset="0.47" stop-color="#0077FE"/>
<stop offset="0.63" stop-color="#0053DA"/>
<stop offset="0.88" stop-color="#0024AA"/>
<stop offset="1" stop-color="#001297"/>
</radialGradient>
<radialGradient id="paint42_radial_78_173149" cx="0" cy="0" r="1" gradientUnits="userSpaceOnUse" gradientTransform="translate(20.2063 21.9026) rotate(11.8886) scale(0.398904 0.419007)">
<stop stop-color="white"/>
<stop offset="0.22" stop-color="#B3B3B3"/>
<stop offset="0.62" stop-color="#333333"/>
<stop offset="0.79"/>
<stop offset="1"/>
</radialGradient>
<linearGradient id="paint43_linear_78_173149" x1="14.178" y1="16.9462" x2="14.7608" y2="18.1497" gradientUnits="userSpaceOnUse">
<stop stop-color="#B9B9B9"/>
<stop offset="0.04" stop-color="#ADADAD"/>
<stop offset="0.33" stop-color="#646464"/>
<stop offset="0.57" stop-color="#2E2E2E"/>
<stop offset="0.75" stop-color="#0D0D0D"/>
<stop offset="0.85"/>
<stop offset="0.98"/>
</linearGradient>
</defs>
</svg>
