<svg width="56" height="51" viewBox="0 0 56 51" fill="none" xmlns="http://www.w3.org/2000/svg">
<path d="M7.52977 22.3528C10.1058 22.3528 12.194 20.2804 12.194 17.7239C12.194 15.1675 10.1058 13.095 7.52977 13.095C4.95375 13.095 2.86548 15.1675 2.86548 17.7239C2.86548 20.2804 4.95375 22.3528 7.52977 22.3528Z" fill="url(#paint0_linear_78_172334)"/>
<path fill-rule="evenodd" clip-rule="evenodd" d="M27.0461 13.3154C27.1378 14.2211 29.9093 14.3025 29.8176 13.21C29.103 4.69493 25.3223 -0.662336 18.6446 0.0660215C12.0393 0.784795 8.23443 6.24268 7.62122 14.1109C7.56811 14.8153 8.41792 14.9111 8.57726 13.9623C9.90991 6.06539 13.4588 1.90129 18.8619 1.40773C23.642 0.971677 26.2735 5.63891 27.0461 13.3154Z" fill="#293F9D"/>
<path fill-rule="evenodd" clip-rule="evenodd" d="M10.9526 47.7255C12.773 45.0517 16.5392 38.7935 18.8182 36.6612C16.4329 37.0972 14.5933 35.3051 15.0182 33.2302C10.7595 34.3994 8.85711 35.3338 6.61188 36.7762C12.604 40.2742 8.97781 45.9286 10.9526 47.7255Z" fill="url(#paint1_linear_78_172334)"/>
<path fill-rule="evenodd" clip-rule="evenodd" d="M10.953 47.7255C11.0206 47.6248 11.093 47.5194 11.1654 47.4092C10.924 45.986 10.8661 44.0597 10.8854 41.6303C10.8999 39.5267 9.77967 37.6531 7.86278 36.0095C7.48616 36.2251 7.1192 36.4503 6.73775 36.6899L6.67499 36.8145C12.5754 40.3173 8.98781 45.9333 10.953 47.7255Z" fill="#BCE9F2"/>
<path fill-rule="evenodd" clip-rule="evenodd" d="M9.78955 40.2743C9.83784 40.3989 9.88128 40.5283 9.92474 40.6577C11.4264 39.6035 13.1067 38.5493 14.9656 37.4903C15.0574 37.4376 15.0912 37.3178 15.0381 37.2267C14.985 37.1357 14.8642 37.1022 14.7725 37.1549C12.9377 38.1947 11.2767 39.2345 9.78955 40.2743ZM10.3014 43.6909C10.5911 43.3603 10.9001 43.0249 11.2236 42.6798C12.45 41.3765 13.9179 39.9629 15.6271 38.4295C15.7092 38.3576 15.8299 38.3624 15.9024 38.4439C15.9748 38.5253 15.97 38.6451 15.8879 38.717C14.1883 40.2408 12.7301 41.6496 11.5085 42.9482C11.0739 43.413 10.6683 43.8634 10.2917 44.2947C10.2965 44.0934 10.3014 43.8922 10.3014 43.6909Z" fill="#CBEDF6"/>
<path fill-rule="evenodd" clip-rule="evenodd" d="M42.4876 28.6445C36.4472 22.3528 31.8891 17.7383 29.7888 13.6653C32.7679 10.4212 37.0556 7.04774 41.913 5.89771C41.6523 10.2726 41.3819 16.2193 46.7752 17.1825C44.6314 19.6598 45.8095 22.142 48.3493 23.9773C47.7989 25.0938 44.3224 27.2405 42.4876 28.6445Z" fill="url(#paint2_linear_78_172334)"/>
<path fill-rule="evenodd" clip-rule="evenodd" d="M41.512 5.99369C41.6472 5.96015 41.7823 5.92661 41.9175 5.89307C41.6568 10.268 41.3864 16.2147 46.7798 17.1778C44.636 19.6552 45.8141 22.1374 48.3539 23.9726C48.2911 24.102 48.1849 24.2458 48.0497 24.3991C45.1381 23.5078 44.1966 21.3275 45.2202 17.8487C41.4926 16.9334 40.2566 12.9802 41.512 5.99369Z" fill="#BCE9F2"/>
<path fill-rule="evenodd" clip-rule="evenodd" d="M41.8306 7.5271C41.8257 7.67085 41.8209 7.8194 41.8161 7.96316C40.2372 8.73464 38.7452 9.59238 37.3546 10.5364C35.3798 11.8781 33.5884 13.3923 31.9902 15.0886C31.9178 15.1653 31.7922 15.1701 31.715 15.0982C31.6377 15.0263 31.6329 14.9017 31.7053 14.825C33.3228 13.1096 35.1335 11.5762 37.1373 10.2201C38.5955 9.2282 40.1599 8.33213 41.8306 7.5271ZM41.9271 11.2408C41.1835 11.6624 40.411 12.1368 39.6143 12.6639C37.9195 13.7804 36.0992 15.1365 34.163 16.7226C34.0809 16.7897 34.0664 16.9143 34.134 16.9957C34.2016 17.0772 34.3272 17.0916 34.4092 17.0245C36.331 15.448 38.1368 14.1063 39.8268 12.9946C40.5655 12.5058 41.285 12.0602 41.9802 11.6624C41.9658 11.5187 41.9464 11.3845 41.9271 11.2408ZM43.0908 14.8442C42.8059 15.0263 42.5162 15.2132 42.2217 15.4144C40.6186 16.4974 38.9093 17.8439 37.0842 19.4492C37.0021 19.521 36.9973 19.6456 37.0697 19.7223C37.1421 19.8038 37.2677 19.8085 37.3449 19.7367C39.1556 18.141 40.8552 16.8041 42.439 15.7307C42.7335 15.5342 43.0232 15.3426 43.3081 15.1605C43.2356 15.0598 43.1584 14.9544 43.0908 14.8442ZM46.5769 17.1443C46.6445 17.1587 46.7121 17.173 46.7797 17.1826C46.63 17.3599 46.4948 17.5324 46.3741 17.7097C46.1182 17.8583 45.8527 18.0212 45.5774 18.1985C44.0903 19.1377 42.27 20.4411 40.1213 22.1038C40.0344 22.1709 39.9137 22.1565 39.8461 22.0703C39.7785 21.984 39.793 21.8642 39.8799 21.7972C42.0382 20.1296 43.8682 18.8214 45.3698 17.8727C45.7947 17.5947 46.2003 17.3551 46.5769 17.1443ZM46.2534 21.8163C45.9492 22.008 45.6354 22.2093 45.307 22.4249C44.1241 23.1964 42.7963 24.102 41.3284 25.1419C41.2415 25.2041 41.2222 25.3239 41.2801 25.4102C41.3429 25.4964 41.4636 25.5156 41.5505 25.4581C43.0087 24.4279 44.3317 23.527 45.5195 22.7507C45.843 22.5399 46.1617 22.3386 46.4611 22.147C46.3935 22.032 46.321 21.9265 46.2534 21.8163Z" fill="#CBEDF6"/>
<path fill-rule="evenodd" clip-rule="evenodd" d="M44.3754 31.0594C44.7424 32.0417 44.1582 32.3675 44.1002 32.5304C46.7607 37.2983 49.9088 40.1974 53.5447 41.218C51.6905 35.3145 51.9658 30.2735 55.8478 24.8731C52.2651 25.2756 48.8466 27.5805 44.3754 31.0594Z" fill="url(#paint3_linear_78_172334)"/>
<path fill-rule="evenodd" clip-rule="evenodd" d="M53.1921 41.108C53.3128 41.1463 53.4287 41.1798 53.5494 41.2134C51.6953 35.3099 51.9705 30.2689 55.8526 24.8685C55.7947 24.8733 55.7319 24.8828 55.6739 24.8924C51.1062 29.9957 50.6186 36.1724 53.1921 41.108Z" fill="#BCE9F2"/>
<path fill-rule="evenodd" clip-rule="evenodd" d="M52.7575 38.094C52.7285 37.9407 52.7044 37.7921 52.6803 37.6436C52.1974 37.4423 51.6904 37.2267 51.169 36.9919C49.368 36.1821 47.3641 35.1614 45.3652 33.8868C45.2734 33.8293 45.1527 33.8532 45.0948 33.9443C45.0368 34.0353 45.061 34.1551 45.1527 34.2126C47.171 35.5016 49.1941 36.5271 51.0096 37.3417C51.618 37.6148 52.2022 37.864 52.7575 38.094ZM52.4388 34.5576C51.9656 34.4666 51.4635 34.3755 50.9372 34.2941C49.3245 34.0353 47.48 33.8101 45.4714 33.6903C45.3652 33.6855 45.2831 33.5897 45.2879 33.4843C45.2927 33.3788 45.3893 33.2974 45.4955 33.3022C47.5138 33.422 49.3728 33.6472 51 33.9107C51.507 33.9922 51.9898 34.0784 52.4485 34.1647C52.4437 34.2941 52.4388 34.4235 52.4388 34.5576ZM52.7672 31.5436C52.7962 31.4094 52.8251 31.2704 52.8589 31.1363C52.3616 31.2081 51.8546 31.28 51.3428 31.3567C49.4404 31.6442 47.4124 31.9796 45.2589 32.3678C45.1527 32.3869 45.0803 32.4876 45.0996 32.593C45.1189 32.6984 45.2203 32.7703 45.3265 32.7511C47.4462 32.3726 49.4693 32.0323 51.4007 31.7448C51.8643 31.673 52.3181 31.6107 52.7672 31.5436ZM53.9984 27.9593C53.4142 28.1605 52.8203 28.3762 52.2119 28.6062C49.9425 29.4495 47.5042 30.4558 44.8968 31.6154C44.8002 31.6586 44.6843 31.6154 44.6409 31.5196C44.5974 31.4238 44.6409 31.3088 44.7375 31.2656C47.3497 30.1012 49.7977 29.0949 52.0767 28.2468C52.8203 27.9689 53.5446 27.7101 54.2495 27.4705C54.1626 27.6287 54.0805 27.7916 53.9984 27.9593Z" fill="#CBEDF6"/>
<path fill-rule="evenodd" clip-rule="evenodd" d="M30.5081 13.095C28.2725 32.2048 27.6979 42.3779 28.7795 43.6142C41.0148 41.6974 46.9973 37.7825 46.4951 30.7289C45.906 22.4151 39.6049 15.2993 30.5081 13.095Z" fill="#293F9D"/>
<path fill-rule="evenodd" clip-rule="evenodd" d="M27.7462 44.0741C19.1805 43.7338 12.8939 39.1049 8.16681 35.2715C12.4496 20.7474 18.152 13.5262 25.2161 12.8649C32.8788 12.1509 38.7357 15.5579 41.459 24.2982C45.1383 36.134 40.1408 44.5676 27.7462 44.0741Z" fill="url(#paint4_linear_78_172334)"/>
<path fill-rule="evenodd" clip-rule="evenodd" d="M27.746 44.0743C25.9354 44.0024 24.2261 43.7389 22.6134 43.3316C26.9542 43.667 31.4881 43.2789 36.7994 40.9069C39.5951 39.6611 41.3961 36.2109 41.4926 31.6827C41.6182 25.7791 39.2184 18.4572 34.7859 15.9894C29.8223 13.2293 24.7766 13.7325 20.9669 15.8073C18.2147 17.3072 15.2355 21.1981 12.7682 25.5635C10.4892 29.5982 9.94355 31.8887 8.54813 34.1265C8.53847 34.1169 8.53364 34.1073 8.52399 34.1025C12.7585 20.3644 18.3402 13.5121 25.2111 12.87C32.8739 12.156 38.7308 15.563 41.454 24.3033C45.1381 36.1343 40.1407 44.5679 27.746 44.0743Z" fill="url(#paint5_linear_78_172334)"/>
<path fill-rule="evenodd" clip-rule="evenodd" d="M43.1008 50.5669C41.2805 47.8931 37.5143 41.635 35.2353 39.5026C37.6205 39.9387 39.4602 38.1465 39.0353 36.0717C43.294 37.2409 45.1964 38.1753 47.4416 39.6176C41.4495 43.1156 45.0708 48.77 43.1008 50.5669Z" fill="url(#paint6_linear_78_172334)"/>
<path fill-rule="evenodd" clip-rule="evenodd" d="M43.1006 50.567C42.9172 50.2939 42.7095 49.9872 42.4874 49.647C43.0765 48.4586 43.3179 46.609 43.3179 44.1029C43.3179 41.6303 44.6892 40.0825 47.1758 39.45C47.2628 39.5075 47.3497 39.5602 47.4414 39.6177C41.4493 43.1158 45.0706 48.7701 43.1006 50.567Z" fill="#BCE9F2"/>
<path fill-rule="evenodd" clip-rule="evenodd" d="M36.592 39.5121C36.7466 39.4834 36.9011 39.445 37.0459 39.3971C38.8421 41.0359 40.4065 42.6843 41.7343 44.3423C42.4828 45.2767 43.1587 46.2111 43.7575 47.1503C43.7623 47.4138 43.7719 47.6678 43.7719 47.9122C43.096 46.8005 42.3138 45.6888 41.4253 44.5819C40.0637 42.8856 38.451 41.194 36.592 39.5121ZM37.9295 38.9419C40.3775 40.3842 42.4972 41.7595 44.2789 43.0677C44.3272 42.9431 44.3803 42.8233 44.4383 42.7035C42.6855 41.4241 40.6238 40.0823 38.2434 38.6783C38.142 38.7742 38.0406 38.8604 37.9295 38.9419ZM38.8614 37.7823C40.6624 38.4867 42.2751 39.1479 43.6947 39.7565C44.4866 40.0967 45.2253 40.4226 45.9013 40.7388C46.0027 40.643 46.1089 40.5519 46.22 40.4609C45.5005 40.1255 44.7087 39.7757 43.8492 39.4019C42.42 38.7886 40.7976 38.1225 38.9918 37.4181C38.958 37.5427 38.9145 37.6673 38.8614 37.7823Z" fill="#CBEDF6"/>
<path fill-rule="evenodd" clip-rule="evenodd" d="M3.91768 29.6219L1.92352 33.7285L5.31793 33.8243L3.91768 29.6219Z" fill="white"/>
<path fill-rule="evenodd" clip-rule="evenodd" d="M8.92494 29.7034L6.93079 33.81L10.3252 33.9107L8.92494 29.7034Z" fill="white"/>
<path fill-rule="evenodd" clip-rule="evenodd" d="M13.9318 29.7896L11.9376 33.8962L15.332 33.992L13.9318 29.7896Z" fill="white"/>
<path fill-rule="evenodd" clip-rule="evenodd" d="M18.9391 29.876L16.9449 33.9826L20.3393 34.0785L18.9391 29.876Z" fill="white"/>
<path fill-rule="evenodd" clip-rule="evenodd" d="M23.9464 29.9576L21.9522 34.0642L25.3466 34.1648L23.9464 29.9576Z" fill="white"/>
<path fill-rule="evenodd" clip-rule="evenodd" d="M31.9326 34.4713C33.5308 34.6725 33.3522 39.3781 31.4739 39.3877C25.8632 39.4069 16.3029 38.7025 2.79291 37.6722C1.45061 37.2745 0.682884 35.8657 0.489746 33.441C16.8437 33.9729 27.3601 33.8915 31.9326 34.4713Z" fill="#293F9D"/>
<path fill-rule="evenodd" clip-rule="evenodd" d="M31.9326 34.4713C32.5507 34.548 32.9031 35.2955 32.9949 36.1868C26.1819 35.8992 4.74361 34.9984 0.697372 34.8738C0.600803 34.4425 0.533202 33.9681 0.489746 33.441C16.8437 33.9729 27.3601 33.8915 31.9326 34.4713Z" fill="url(#paint7_linear_78_172334)"/>
<path d="M37.7952 26.3687C38.6262 22.6156 36.234 18.9046 32.4522 18.08C28.6704 17.2554 24.9311 19.6294 24.1001 23.3825C23.2692 27.1356 25.6613 30.8466 29.4431 31.6712C33.2249 32.4959 36.9643 30.1218 37.7952 26.3687Z" fill="#293F9D"/>
<path fill-rule="evenodd" clip-rule="evenodd" d="M33.2021 29.5978C36.0316 28.3232 37.2822 25.0168 35.9978 22.2136C34.7134 19.4056 31.3818 18.1645 28.5572 19.4391C25.7277 20.7137 24.4771 24.0201 25.7615 26.8233C27.0459 29.6313 30.3775 30.8724 33.2021 29.5978Z" fill="#382389"/>
<path fill-rule="evenodd" clip-rule="evenodd" d="M32.7005 28.6397C35.2499 27.4896 36.3797 24.5091 35.2209 21.979C34.0621 19.449 31.0588 18.3277 28.5094 19.4777C25.9599 20.6278 24.8301 23.6083 25.9889 26.1384C27.1477 28.6684 30.151 29.7897 32.7005 28.6397Z" fill="white"/>
<path fill-rule="evenodd" clip-rule="evenodd" d="M32.9418 28.539C35.047 27.5902 35.9837 25.1272 35.0229 23.0332C34.0668 20.944 31.585 20.0143 29.475 20.9679C27.3698 21.9167 26.4331 24.3797 27.3939 26.4737C28.35 28.563 30.8366 29.4878 32.9418 28.539Z" fill="url(#paint8_linear_78_172334)"/>
<path fill-rule="evenodd" clip-rule="evenodd" d="M34.8489 22.6883C33.7915 20.8434 31.469 20.0719 29.4797 20.968C28.2871 21.5047 27.4711 22.5301 27.1572 23.6993C28.2195 25.5442 30.5371 26.3157 32.5265 25.4196C33.7191 24.8829 34.5399 23.8575 34.8489 22.6883Z" fill="url(#paint9_linear_78_172334)"/>
<path fill-rule="evenodd" clip-rule="evenodd" d="M36.925 20.0528C34.8729 17.2879 31.155 16.0804 27.7509 17.3406C24.3952 18.5817 22.3865 21.8354 22.5941 25.2088C28.4752 22.9758 33.2505 21.2556 36.925 20.0528Z" fill="url(#paint10_linear_78_172334)"/>
<path fill-rule="evenodd" clip-rule="evenodd" d="M32.5846 17.115C31.0395 16.7029 29.3592 16.7461 27.7465 17.345C26.2449 17.9009 25.0136 18.8593 24.1252 20.0524C25.004 20.9772 26.3173 21.5618 27.7803 21.5618C30.4311 21.5618 32.5846 19.6403 32.5846 17.2636C32.5895 17.2157 32.5895 17.1677 32.5846 17.115Z" fill="url(#paint11_linear_78_172334)"/>
<path fill-rule="evenodd" clip-rule="evenodd" d="M6.23543 19.4923C7.48117 19.4923 8.49514 18.486 8.49514 17.2497C8.49514 16.0134 7.48117 15.0071 6.23543 15.0071C4.98968 15.0071 3.97571 16.0134 3.97571 17.2497C3.97571 18.486 4.99451 19.4923 6.23543 19.4923Z" fill="#FFF3B1"/>
<path fill-rule="evenodd" clip-rule="evenodd" d="M32.0384 26.5599C33.0428 26.1047 33.4918 24.9307 33.0331 23.9292C32.5744 22.9325 31.3914 22.4869 30.3823 22.9421C29.378 23.3973 28.9289 24.5713 29.3876 25.5728C29.8463 26.5695 31.0293 27.0152 32.0384 26.5599Z" fill="#141414"/>
<path fill-rule="evenodd" clip-rule="evenodd" d="M30.6871 27.293C31.3631 26.9864 31.6625 26.1957 31.3535 25.5248C31.0445 24.854 30.2478 24.5569 29.5718 24.8636C28.8958 25.1703 28.5964 25.9609 28.9055 26.6318C29.2145 27.2978 30.0112 27.5949 30.6871 27.293Z" fill="white"/>
<defs>
<linearGradient id="paint0_linear_78_172334" x1="-1.35622" y1="17.8273" x2="13.8551" y2="17.651" gradientUnits="userSpaceOnUse">
<stop stop-color="#F18500"/>
<stop offset="1" stop-color="#F8E12B"/>
</linearGradient>
<linearGradient id="paint1_linear_78_172334" x1="12.1186" y1="33.9567" x2="16.4687" y2="54.4784" gradientUnits="userSpaceOnUse">
<stop stop-color="#66A0D2"/>
<stop offset="1" stop-color="#A4DFED"/>
</linearGradient>
<linearGradient id="paint2_linear_78_172334" x1="41.9016" y1="6.07536" x2="34.4693" y2="40.0353" gradientUnits="userSpaceOnUse">
<stop stop-color="#66A0D2"/>
<stop offset="1" stop-color="#A4DFED"/>
</linearGradient>
<linearGradient id="paint3_linear_78_172334" x1="52.0103" y1="24.053" x2="45.7822" y2="49.1206" gradientUnits="userSpaceOnUse">
<stop stop-color="#66A0D2"/>
<stop offset="1" stop-color="#A4DFED"/>
</linearGradient>
<linearGradient id="paint4_linear_78_172334" x1="18.0361" y1="24.0798" x2="45.2201" y2="37.7581" gradientUnits="userSpaceOnUse">
<stop stop-color="#6CA8D6"/>
<stop offset="1" stop-color="#473DA1"/>
</linearGradient>
<linearGradient id="paint5_linear_78_172334" x1="17.5825" y1="25.1973" x2="47.2335" y2="35.1542" gradientUnits="userSpaceOnUse">
<stop stop-color="#A4DFED"/>
<stop offset="1" stop-color="#685AB4"/>
</linearGradient>
<linearGradient id="paint6_linear_78_172334" x1="41.9318" y1="36.7973" x2="37.5817" y2="57.3189" gradientUnits="userSpaceOnUse">
<stop stop-color="#66A0D2"/>
<stop offset="1" stop-color="#A4DFED"/>
</linearGradient>
<linearGradient id="paint7_linear_78_172334" x1="1.02188" y1="31.9076" x2="28.9631" y2="37.0387" gradientUnits="userSpaceOnUse">
<stop stop-color="#6CA8D6"/>
<stop offset="1" stop-color="#473DA1"/>
</linearGradient>
<linearGradient id="paint8_linear_78_172334" x1="28.1712" y1="25.8822" x2="35.5905" y2="23.0801" gradientUnits="userSpaceOnUse">
<stop stop-color="#5B0D08"/>
<stop offset="1" stop-color="#DF300E"/>
</linearGradient>
<linearGradient id="paint9_linear_78_172334" x1="30.5889" y1="24.8186" x2="31.8517" y2="19.7842" gradientUnits="userSpaceOnUse">
<stop stop-color="#DF300E"/>
<stop offset="1" stop-color="#FFB8BC"/>
</linearGradient>
<linearGradient id="paint10_linear_78_172334" x1="29.0862" y1="21.1564" x2="27.0804" y2="16.6837" gradientUnits="userSpaceOnUse">
<stop stop-color="#66A0D2"/>
<stop offset="1" stop-color="#A4DFED"/>
</linearGradient>
<linearGradient id="paint11_linear_78_172334" x1="29.5195" y1="21.0393" x2="26.4912" y2="14.5426" gradientUnits="userSpaceOnUse">
<stop stop-color="#A4DFED"/>
<stop offset="1" stop-color="#66A0D2"/>
</linearGradient>
</defs>
</svg>
