<svg width="87" height="47" viewBox="0 0 87 47" fill="none" xmlns="http://www.w3.org/2000/svg">
<path d="M3.32514 11.27C3.69126 13.2226 5.88794 13.5887 7.9626 12.4904C9.91521 11.5141 11.9899 9.92756 13.0882 7.97494C13.9425 6.38844 13.8205 4.67989 12.1119 4.19173C10.5254 3.82562 8.32872 4.31377 6.62018 5.41212C4.42349 6.87658 2.83699 8.95124 3.32514 11.27Z" fill="#54290B"/>
<path d="M3.69136 11.0259C4.05748 12.8565 6.0101 13.1005 7.96272 12.1242C9.67126 11.27 11.7459 9.8055 12.6002 7.97492C13.3324 6.51046 13.2104 4.92395 11.7459 4.55784C10.2815 4.19172 8.32884 4.67988 6.6203 5.65618C4.78972 6.99861 3.32525 8.95123 3.69136 11.0259Z" fill="#E2EAEC"/>
<path d="M3.69136 11.0259C4.05748 12.8565 6.0101 13.1005 7.96272 12.1242C9.67126 11.27 11.7459 9.8055 12.6002 7.97492C13.3324 6.51046 13.2104 4.92395 11.7459 4.55784C10.2815 4.19172 8.32884 4.67988 6.6203 5.65618C4.78972 6.99861 3.32525 8.95123 3.69136 11.0259ZM6.98642 5.65618C8.08477 4.92395 9.42718 4.67987 10.4035 4.67987C11.3798 4.67987 9.54923 6.26638 9.06108 6.87657C6.98642 9.43938 4.54565 10.0496 4.78972 8.82919C5.0338 7.48676 5.76604 6.51046 6.98642 5.65618Z" fill="#C5D3D6"/>
<mask id="mask0_78_173738" style="mask-type:luminance" maskUnits="userSpaceOnUse" x="3" y="4" width="11" height="9">
<path d="M3.69136 11.0259C4.05748 12.8565 6.0101 13.1005 7.96272 12.1242C9.67126 11.27 11.7459 9.8055 12.6002 7.97492C13.3324 6.51046 13.2104 4.92395 11.7459 4.55784C10.2815 4.19172 8.32884 4.67988 6.6203 5.65618C4.78972 6.99861 3.32525 8.95123 3.69136 11.0259Z" fill="white"/>
</mask>
<g mask="url(#mask0_78_173738)">
<path d="M6.62034 8.70713C5.03384 9.80548 3.93549 9.92751 4.05753 9.07324C4.17956 8.21897 5.52199 6.51043 7.10849 5.41208C8.69499 4.31373 9.79335 4.1917 9.67131 5.04597C9.42723 5.90024 8.08481 7.60878 6.62034 8.70713Z" fill="#000445"/>
<path d="M6.6205 8.46309C5.27808 9.4394 4.17972 9.56144 4.30176 8.70717C4.4238 7.8529 5.6442 6.51048 6.98662 5.53417C8.32905 4.55786 9.42739 4.43582 9.30535 5.29009C9.18331 6.02232 7.96293 7.48678 6.6205 8.46309Z" fill="url(#paint0_linear_78_173738)"/>
<path d="M6.62037 7.85303C5.7661 8.46322 5.1559 8.46323 5.27794 7.97508C5.27794 7.48692 6.01018 6.63264 6.86445 6.02245C7.71872 5.41226 8.32892 5.41226 8.20688 5.90041C8.20688 6.38857 7.47464 7.36488 6.62037 7.85303Z" fill="black"/>
<path d="M4.54563 9.07321C4.66767 9.07321 4.91175 9.07322 5.15582 8.82914C5.27786 8.7071 5.27785 8.58506 5.27785 8.46302C5.15581 8.46302 4.91174 8.34099 5.03378 8.21895C5.03378 7.97487 5.15582 7.48671 5.76602 6.99856C6.13213 6.63244 6.3762 6.51041 6.25416 6.38837C6.13212 6.38837 5.52193 6.87652 5.27785 7.24263C4.7897 7.73079 4.54562 8.34099 4.42358 8.7071C4.42358 8.82914 4.42359 8.95117 4.54563 9.07321Z" fill="url(#paint1_linear_78_173738)"/>
<path d="M9.1832 5.77829C9.7934 4.92402 9.1832 5.1681 8.57301 5.65625C7.96282 6.14441 7.2306 7.12071 7.2306 7.60887C7.10856 7.97498 8.32893 6.87664 9.1832 5.77829Z" fill="white"/>
</g>
<path d="M22.363 6.87648C22.363 6.75444 22.363 6.75444 22.485 6.6324C22.363 6.51036 22.363 6.38833 22.485 6.38833C22.6071 6.38833 22.6071 6.26629 22.7291 6.26629C24.0715 3.70348 26.1462 1.75086 29.0751 1.01862C32.4922 0.164353 36.1534 0.40843 39.4484 1.62882C42.7434 2.8492 45.7944 4.92386 48.4793 7.12056C50.5539 8.70706 52.3845 10.5376 54.093 12.6123C55.1914 13.9547 56.2897 15.4192 57.022 17.0057C57.6322 18.2261 57.9983 19.6905 57.5101 20.9109C57.5101 21.033 57.2661 21.033 57.2661 20.9109C54.9473 18.7142 52.7506 16.5175 50.3099 14.4429C47.8691 12.3682 45.3063 10.6597 42.3773 9.19522C39.5705 7.73075 36.5195 6.75445 33.3465 6.14425C31.6379 5.90018 30.0514 5.77813 28.3429 5.77813C26.5123 5.77813 24.6817 5.77814 23.0952 6.75445C22.9732 6.87648 22.9732 7.12055 22.8512 7.24259C22.7291 7.24259 22.241 7.12056 22.363 6.87648Z" fill="#FFA233"/>
<path d="M22.363 6.87647C22.363 6.75444 22.363 6.75443 22.485 6.63239C22.363 6.51035 22.363 6.38832 22.485 6.38832C22.6071 6.38832 22.6071 6.26628 22.7291 6.26628C24.0715 3.70347 26.1462 1.75085 29.0751 1.01862H29.1972C28.4649 1.38473 27.7327 1.75085 27.1225 2.36104C26.5123 2.97123 26.8784 4.06958 27.8547 3.94755C31.2718 3.58143 34.6889 3.09327 37.9839 4.06958C41.0349 5.04589 43.9638 6.51035 46.6487 8.34093C49.2115 10.1715 51.7743 12.1241 53.7269 14.5649C54.5812 15.5412 55.1914 16.6396 55.9236 17.7379C56.2897 18.3481 56.8999 19.3244 57.7542 19.3244C57.7542 19.8126 57.7542 20.3007 57.5101 20.7889C57.5101 20.9109 57.2661 20.9109 57.2661 20.7889C54.9473 18.5922 52.7506 16.3955 50.3099 14.3208C47.8691 12.2462 45.3063 10.5376 42.3773 9.07316C39.5705 7.6087 36.5195 6.63239 33.3465 6.0222C31.6379 5.77812 30.0514 5.65609 28.3429 5.65609C26.5123 5.65609 24.6817 5.65608 23.0952 6.63239C22.9732 6.75443 22.9732 6.99851 22.8512 7.12055C22.7291 7.24259 22.241 7.12055 22.363 6.87647Z" fill="#DD9007"/>
<path d="M22.7293 6.99851C22.8513 6.87647 22.8513 6.63239 22.9734 6.51036C24.5599 5.53405 26.3905 5.53405 28.221 5.53405C29.9296 5.53405 31.5161 5.65609 33.2246 5.90016C36.3976 6.38832 39.4486 7.48667 42.2555 8.95113C45.0624 10.4156 47.7472 12.2462 50.188 14.1988C52.6288 16.2735 54.8255 18.4701 57.1442 20.6668C57.1442 20.7889 57.3883 20.7889 57.3883 20.6668C57.8764 19.4464 57.3883 17.982 56.9001 16.7616C56.1679 15.1751 55.0695 13.7106 53.9712 12.3682C52.2627 10.4156 50.4321 8.58502 48.3574 6.87648C45.6726 4.67978 42.6216 2.60512 39.3266 1.38474C36.0315 0.164351 32.3704 -0.0797265 28.9533 0.774544C26.0243 1.50678 23.9497 3.45939 22.6073 6.0222C22.4852 6.0222 22.4852 6.14425 22.3632 6.14425C22.2411 6.26628 22.2411 6.38832 22.3632 6.38832C22.3632 6.51036 22.2411 6.51035 22.2411 6.63239C22.2411 7.12055 22.7293 7.24259 22.7293 6.99851ZM23.3395 5.90016C24.4378 3.94754 26.0243 2.36104 28.3431 1.62881C35.7874 -0.934001 42.9877 3.09327 48.6015 7.73074C50.6761 9.43928 52.5067 11.2699 54.2153 13.4666C55.6797 15.2971 57.7544 17.982 57.1442 20.5448C54.9475 18.104 52.5067 15.9073 50.0659 13.8327C47.5031 11.758 44.8183 9.92744 41.8894 8.46297C38.9604 6.99851 35.6654 6.02221 32.3703 5.53405C30.6618 5.28998 28.9533 5.28997 27.2447 5.28997C26.0243 5.16793 24.5599 5.28997 23.3395 5.90016Z" fill="#542A0D"/>
<path opacity="0.8" d="M53.8492 17.738C54.8255 17.738 55.9238 17.86 56.7781 18.3482C56.9001 18.3482 56.7781 18.5922 56.6561 18.4702C55.6797 17.9821 54.7034 18.1041 53.7271 17.86C53.7271 17.86 53.7271 17.738 53.8492 17.738Z" fill="#D8822B"/>
<path opacity="0.8" d="M52.2625 17.0059C53.727 16.7618 55.3135 16.8838 56.6559 17.494C56.7779 17.494 56.6559 17.7381 56.5339 17.7381C55.0694 17.2499 53.727 17.2499 52.2625 17.372C52.1405 17.2499 52.0184 17.0059 52.2625 17.0059Z" fill="#D8822B"/>
<path opacity="0.8" d="M50.4318 15.1753C51.2861 14.9313 52.3844 15.0533 53.2387 15.1753C54.215 15.2974 55.3133 15.6635 56.1676 16.1517C56.2897 16.2737 56.1676 16.3957 56.0456 16.3957C55.1913 15.9076 54.215 15.6635 53.2387 15.5415C52.2624 15.4194 51.4081 15.4194 50.4318 15.4194C50.3098 15.2974 50.3098 15.1753 50.4318 15.1753Z" fill="#D8822B"/>
<path opacity="0.8" d="M48.3573 13.7106C50.432 13.2224 52.8728 13.4665 54.7033 14.4428C54.8254 14.4428 54.7034 14.6869 54.5813 14.5648C53.605 14.1987 52.5067 13.9546 51.5303 13.8326C50.432 13.7106 49.4557 13.9546 48.3573 13.9546C48.2353 13.9546 48.2353 13.7106 48.3573 13.7106Z" fill="#D8822B"/>
<path opacity="0.8" d="M46.1607 12.0022C48.6015 11.636 51.2863 11.8801 53.6051 12.7344C53.7271 12.7344 53.6051 12.9785 53.483 12.8564C51.0422 12.1242 48.7235 12.1242 46.1607 12.2462C46.0387 12.2462 45.9166 12.0022 46.1607 12.0022Z" fill="#D8822B"/>
<path opacity="0.8" d="M44.0859 10.7817C46.2826 9.43925 49.4556 10.0494 51.7743 10.6596C51.8963 10.6596 51.8963 10.9037 51.7743 10.9037C50.676 10.6596 49.4556 10.5376 48.3572 10.4156C46.8927 10.2935 45.6724 10.6596 44.2079 11.0258C43.9638 11.1478 43.8418 10.9037 44.0859 10.7817Z" fill="#D8822B"/>
<path opacity="0.8" d="M43.1097 9.68334C44.9403 8.58499 47.6252 8.09684 49.5778 8.82907C49.6998 8.82907 49.6998 9.07314 49.5778 9.07314C47.3811 8.46295 45.3064 9.31722 43.2318 10.0495C42.9877 10.0495 42.8656 9.80537 43.1097 9.68334Z" fill="#D8822B"/>
<path opacity="0.8" d="M41.6451 8.95132C41.8892 7.97501 43.3537 7.73093 44.208 7.60889C45.4283 7.36482 47.0148 6.87666 48.2352 7.48686C48.3573 7.48686 48.2352 7.73093 48.1132 7.73093C47.1369 7.36481 45.7945 7.73094 44.6961 7.97501C43.7198 8.21909 42.4994 8.34113 41.8892 9.1954C41.8892 9.1954 41.6451 9.07336 41.6451 8.95132Z" fill="#D8822B"/>
<path opacity="0.8" d="M39.3265 7.97477C40.0587 5.65604 43.7198 5.53399 45.5504 5.28992C45.6725 5.28992 45.6725 5.534 45.5504 5.534C43.3537 6.14419 40.913 6.02215 39.4485 8.09681C39.4485 8.34089 39.2044 8.09681 39.3265 7.97477Z" fill="#D8822B"/>
<path opacity="0.8" d="M39.3265 5.28991C40.3028 4.67971 41.6452 4.19156 42.7436 4.06952C42.8656 4.06952 42.8656 4.3136 42.7436 4.3136C41.7672 4.55768 40.913 4.80175 40.0587 5.28991C39.2044 5.65602 37.862 6.26622 37.9841 7.4866C37.9841 7.60864 37.74 7.73068 37.74 7.60864C37.3739 6.51029 38.7163 5.77806 39.3265 5.28991Z" fill="#D8822B"/>
<path opacity="0.8" d="M36.2755 7.85281C36.3975 5.53408 38.3501 4.19166 40.1807 3.09331C40.3027 2.97128 40.4248 3.21535 40.3027 3.21535C39.5705 3.70351 38.7162 4.3137 37.984 4.92389C37.1297 5.77816 36.7636 6.63243 36.5195 7.85281C36.5195 7.97485 36.2755 7.97485 36.2755 7.85281Z" fill="#D8822B"/>
<path opacity="0.8" d="M35.0552 4.55784C35.7875 3.58153 36.6417 2.48318 37.8621 2.11707C37.9841 2.11707 38.1062 2.2391 37.9841 2.36114C37.0078 2.84929 36.2756 3.82561 35.6654 4.55784C35.0552 5.29007 34.2009 6.14434 34.5671 7.24269C34.5671 7.36472 34.445 7.48677 34.323 7.36473C33.7128 6.26638 34.445 5.29007 35.0552 4.55784Z" fill="#D8822B"/>
<path opacity="0.8" d="M32.004 6.38823C32.126 4.43561 33.5905 2.11688 35.5431 1.62872C35.6651 1.62872 35.6651 1.75077 35.5431 1.87281C33.5905 2.60504 32.7362 4.67969 32.248 6.51027C32.248 6.63231 32.004 6.51027 32.004 6.38823Z" fill="#D8822B"/>
<path opacity="0.8" d="M31.0278 3.45939C31.5159 2.60511 32.1261 1.38473 33.2245 1.2627C33.3465 1.2627 33.3465 1.50677 33.2245 1.50677C32.3702 1.75085 31.8821 2.72715 31.3939 3.45939C30.7837 4.43569 30.5396 5.53405 30.7837 6.75443C30.7837 6.87647 30.5396 6.99851 30.5396 6.87647C30.0515 5.65608 30.4176 4.43569 31.0278 3.45939Z" fill="#D8822B"/>
<path opacity="0.8" d="M29.0751 3.70358C29.4412 2.72727 30.4175 2.23911 30.9057 1.38484C31.0277 1.2628 31.1498 1.38484 31.1498 1.50688C30.7837 2.23911 30.1735 2.72726 29.6853 3.33746C28.9531 4.31377 29.3192 5.6562 29.4412 6.75454C29.4412 6.99862 29.1972 6.99862 29.1972 6.75454C28.9531 5.77823 28.831 4.80192 29.0751 3.70358Z" fill="#D8822B"/>
<path opacity="0.8" d="M27.2446 4.19173C27.3667 3.82562 27.6107 3.45951 27.8548 3.09339C28.0989 2.72728 28.465 2.48319 28.7091 2.11708C28.8311 1.99504 28.9532 2.11708 28.9532 2.23912C28.5871 2.97135 27.9769 3.33746 27.6107 4.0697C27.2446 4.92397 27.0006 5.90028 27.0006 6.87659C27.0006 6.99863 26.7565 6.99863 26.7565 6.87659C26.6344 6.02232 26.8785 5.046 27.2446 4.19173Z" fill="#D8822B"/>
<path opacity="0.8" d="M27.1225 2.60524C27.1225 2.4832 27.3666 2.60524 27.3666 2.72727C26.8784 4.0697 25.6581 4.92397 26.1462 6.38843C26.1462 6.51047 26.0242 6.63251 25.9021 6.51047C25.0479 5.04601 26.6344 3.70359 27.1225 2.60524Z" fill="#D8822B"/>
<path opacity="0.8" d="M25.1699 3.7035C25.292 3.58147 25.414 3.7035 25.292 3.82554C24.8038 4.55777 24.8038 5.41204 24.6818 6.26631C24.6818 6.38835 24.5597 6.38835 24.4377 6.26631C24.4377 5.29001 24.6818 4.43574 25.1699 3.7035Z" fill="#D8822B"/>
<path d="M21.997 27.0128C22.119 27.0128 22.2411 27.0128 22.2411 27.1349C28.9532 29.3316 35.7873 25.7924 42.3774 24.328C44.9402 23.7178 47.381 23.2296 49.9438 23.1076C52.1405 22.9856 54.7033 23.1076 56.5339 24.45V24.5721C56.9 25.0602 57.0221 25.5484 56.9 26.2806C56.9 26.4027 56.778 26.4026 56.778 26.4026C54.8254 26.1586 52.7507 26.0365 50.9201 26.7688C49.2116 27.501 47.6251 28.8434 46.0386 30.0638C44.5741 31.1622 43.2317 32.1385 41.5232 32.8707C39.9366 33.6029 38.2281 34.0911 36.5196 34.4572C33.2245 35.1894 29.5634 35.0674 26.5124 33.6029C23.9496 32.3825 22.3631 30.0638 21.7529 27.2569C21.6309 27.379 21.7529 27.0128 21.997 27.0128Z" fill="#FFA233"/>
<path d="M21.997 27.0128C22.119 27.0128 22.2411 27.0128 22.2411 27.1349C28.9532 29.3316 35.7873 25.7924 42.3774 24.328C44.9402 23.7178 47.381 23.2296 49.9438 23.1076C52.1405 22.9856 54.7033 23.1076 56.5339 24.45V24.5721C56.9 25.0602 57.0221 25.5484 56.9 26.2806C56.9 26.4027 56.778 26.4026 56.778 26.4026C54.8254 26.1586 52.7507 26.0365 50.9201 26.7688C49.2116 27.501 47.6251 28.8434 46.0386 30.0638C44.5741 31.1622 43.2317 32.1385 41.5232 32.8707C39.9366 33.6029 38.2281 34.0911 36.5196 34.4572C33.2245 35.1894 29.5634 35.0674 26.5124 33.6029C23.9496 32.3825 22.3631 30.0638 21.7529 27.2569C21.6309 27.379 21.7529 27.0128 21.997 27.0128Z" fill="#DD9007"/>
<path d="M21.8748 27.501C22.363 30.3079 24.0715 32.6266 26.6343 33.847C29.6853 35.3115 33.3465 35.3115 36.6415 34.7013C38.3501 34.3352 40.0586 33.847 41.6451 33.1148C43.2316 32.3825 44.6961 31.4062 46.1605 30.3079C47.625 29.2095 49.2115 27.8671 51.0421 27.0128C52.9947 26.1586 54.9473 26.4026 56.8999 26.6467C57.022 26.6467 57.022 26.6467 57.022 26.5247C57.144 25.9145 57.022 25.3043 56.6559 24.8161V24.6941C54.8253 23.3517 52.2625 23.2296 50.0658 23.3517C47.503 23.4737 44.9401 23.9619 42.4994 24.5721C36.0313 26.0365 29.1972 29.5756 22.363 27.3789C22.363 27.2569 22.241 27.2569 22.1189 27.2569C21.7528 27.0128 21.6308 27.379 21.8748 27.501ZM22.363 27.623C28.9531 29.6977 35.4211 26.4026 41.7672 24.9382C44.2079 24.328 46.7707 23.8398 49.2115 23.5958C51.5302 23.3517 53.971 23.4737 56.0457 24.45C56.5338 24.9382 56.7779 25.4263 56.6559 26.0365C55.0694 25.7924 53.3608 25.6704 51.6523 26.0365C49.9437 26.5247 48.4793 27.501 47.1368 28.5993C45.6724 29.6977 44.2079 30.9181 42.6214 31.7723C41.157 32.6266 39.4484 33.2368 37.8619 33.6029C34.5669 34.4572 31.0278 34.7013 27.7327 33.6029C24.9258 32.7487 22.9732 30.552 22.363 27.623Z" fill="#542A0D"/>
<g opacity="0.8">
<path d="M50.9202 24.0839C51.1643 24.0839 51.4084 24.0839 51.7745 24.0839C51.7745 24.0839 51.7745 23.9619 51.8965 23.9619C53.483 23.8398 55.0695 24.5721 56.1679 25.6704C56.2899 25.7924 56.1679 25.9145 56.0458 25.7924C55.4357 25.3043 54.9475 24.8161 54.2153 24.5721C53.7271 24.45 53.361 24.328 52.8728 24.2059C53.7271 24.45 54.4593 24.9382 55.0695 25.6704C55.0695 25.6704 55.0695 25.7924 54.9475 25.7924C53.7271 24.8161 52.5067 24.2059 51.0423 24.2059C50.9202 24.2059 50.9202 24.0839 50.9202 24.0839Z" fill="#D8822B"/>
<path d="M48.8456 24.2058C50.31 23.9618 52.7508 24.3279 53.483 25.7923C53.483 25.9144 53.361 25.9144 53.361 25.9144C52.5067 24.4499 50.4321 24.4499 48.8456 24.4499C48.7235 24.4499 48.7235 24.2058 48.8456 24.2058Z" fill="#D8822B"/>
<path d="M46.7709 24.6939C47.7472 24.5719 48.7235 24.6939 49.6998 24.938C50.432 25.1821 51.2863 25.3041 51.7745 25.9143C51.8965 26.0364 51.7744 26.1584 51.6524 26.0364C51.1643 25.5482 50.432 25.4262 49.8218 25.3041C48.8455 25.0601 47.7472 24.816 46.7709 24.938C46.6488 24.938 46.5268 24.6939 46.7709 24.6939Z" fill="#D8822B"/>
<path d="M44.2079 25.3042C44.696 25.0601 45.0621 25.1821 45.5503 25.1821C46.2825 25.3042 47.0148 25.3042 47.747 25.4262C48.4792 25.5482 49.4555 25.9144 49.6996 26.6466C49.6996 26.7686 49.5776 26.8907 49.5776 26.7686C49.2115 26.0364 48.1131 25.7923 47.2589 25.6703C46.4046 25.5482 45.1842 25.3042 44.3299 25.4262C44.2079 25.5482 44.2079 25.4262 44.2079 25.3042Z" fill="#D8822B"/>
<path d="M39.4485 26.0366C40.0587 25.9146 40.6689 25.9146 41.2791 26.0366C41.2791 26.0366 41.2791 25.9146 41.4011 25.9146C43.7199 25.4264 46.5268 26.2807 48.3573 27.6231C48.4794 27.7452 48.3573 27.8672 48.2353 27.7452C47.137 27.135 46.0386 26.6468 44.8182 26.2807C43.7199 26.0366 42.7436 26.0366 41.6452 26.0366C42.1334 26.1587 42.6215 26.2807 42.9877 26.4027C43.5978 26.6468 44.3301 26.8909 44.9403 27.257C45.5505 27.6231 45.9166 27.9892 46.5268 28.3554C46.6488 28.3554 46.5268 28.5994 46.4047 28.4774C46.0386 28.2333 45.6725 27.9892 45.3064 27.7452C44.6962 27.3791 44.086 27.135 43.3538 26.8909C42.0113 26.4027 40.7909 26.1587 39.4485 26.1587C39.3265 26.2807 39.3265 26.1587 39.4485 26.0366Z" fill="#D8822B"/>
<path d="M37.862 27.2569C39.0824 27.1348 40.4248 27.623 41.5231 28.1112C42.6215 28.5993 43.7198 29.0875 44.5741 30.0638C44.6961 30.1858 44.4521 30.3078 44.4521 30.1858C43.5978 29.3315 42.4995 28.8434 41.4011 28.3552C40.1807 27.8671 39.0824 27.501 37.862 27.501C37.7399 27.501 37.7399 27.2569 37.862 27.2569Z" fill="#D8822B"/>
<path d="M36.1533 27.8671C36.6415 27.8671 37.0076 28.1111 37.4958 28.3552C38.106 28.5993 38.5941 28.9654 39.2043 29.2095C40.3027 29.8197 41.401 30.674 42.1332 31.7723C42.2553 31.8943 42.0112 32.0164 42.0112 31.8943C41.279 31.0401 40.4247 30.4299 39.5704 29.8197C39.0823 29.4536 38.4721 29.2095 37.9839 28.9654C37.4958 28.7213 36.8856 28.3552 36.2754 28.2332C36.0313 28.1111 36.0313 27.8671 36.1533 27.8671Z" fill="#D8822B"/>
<path d="M34.0788 28.4774C35.2992 28.7214 36.3975 29.6977 37.3738 30.43C38.2281 31.1622 39.3264 31.7724 39.5705 32.9928C39.5705 33.1148 39.4485 33.1148 39.4485 33.1148C39.3264 33.1148 39.3264 33.1148 39.3264 32.9928V32.8707C38.9603 31.8944 37.984 31.2842 37.2518 30.6741C36.2755 29.9418 35.2992 29.2096 34.0788 28.7214C33.8347 28.7214 33.9567 28.4774 34.0788 28.4774Z" fill="#D8822B"/>
<path d="M31.1498 28.4774C31.76 28.5994 32.2482 28.9655 32.7363 29.2096C33.4686 29.6977 34.2008 30.1859 34.811 30.6741C35.9093 31.5283 36.8856 32.6267 37.6179 33.8471C37.7399 33.9691 37.4958 34.0911 37.3738 33.9691C36.6416 32.7487 35.6653 31.7724 34.5669 30.9181C34.0788 30.552 33.5906 30.1859 33.1025 29.9418C32.4923 29.5757 31.76 28.9655 31.0278 28.8435C30.9058 28.7214 30.9057 28.4774 31.1498 28.4774Z" fill="#D8822B"/>
<path d="M29.8075 28.7213C30.2956 28.8433 30.6617 29.3314 31.1499 29.5755C31.6381 29.9416 32.0042 30.3078 32.4923 30.7959C33.2246 31.6502 34.2009 32.8706 34.445 33.9689C34.445 34.0909 34.3229 34.0909 34.2009 34.0909C34.2009 34.0909 34.2009 34.0909 34.0788 33.9689V33.8469C33.7127 32.8706 32.9805 31.8942 32.3703 31.04C31.6381 30.1857 30.7838 29.3314 29.6854 28.7213C29.5634 28.9653 29.5634 28.7213 29.8075 28.7213Z" fill="#D8822B"/>
<path d="M27.9769 29.0873C28.8311 29.3314 29.3193 30.3077 29.8074 31.0399C30.4176 32.0162 31.1499 32.9925 31.2719 34.0909C31.2719 34.2129 31.0278 34.2129 31.0278 34.0909C30.7837 32.9925 30.1735 32.1383 29.6854 31.284C29.1972 30.5517 28.7091 29.8195 27.9769 29.3314C27.7328 29.2093 27.8548 29.0873 27.9769 29.0873Z" fill="#D8822B"/>
<path d="M25.9021 29.5756C26.6343 30.0637 27.0005 30.7959 27.3666 31.5282C27.7327 32.2604 28.2208 32.8706 28.3429 33.7249C28.3429 33.8469 28.0988 33.8469 28.0988 33.7249C27.9768 32.9926 27.4886 32.2604 27.1225 31.6502C26.7564 30.918 26.2682 30.3078 25.658 29.8196C25.658 29.6976 25.7801 29.4535 25.9021 29.5756Z" fill="#D8822B"/>
<path d="M24.3157 29.6975C25.1699 30.5517 25.9022 31.5281 26.3903 32.6264C26.5124 32.7484 26.2683 32.8705 26.1462 32.7484C25.6581 31.6501 24.8038 30.7958 24.0716 29.9416C24.0716 29.6975 24.1936 29.5754 24.3157 29.6975Z" fill="#D8822B"/>
</g>
<path d="M56.1679 33.3586C56.534 30.3076 58.1205 27.5008 57.0221 24.5718C56.2899 24.2057 55.9238 23.5955 56.2899 22.6192C56.4119 22.1311 57.2662 20.9107 57.8764 21.0327H57.9984C58.3646 21.3988 58.7307 21.6429 59.3409 21.3988C59.707 21.2768 59.9511 20.9107 60.1951 20.6666C60.5613 20.1784 60.9274 19.5682 61.2935 18.9581C62.1478 17.8597 63.1241 16.8834 64.1004 16.0291C66.175 14.4426 68.7378 13.7104 71.4227 13.7104C74.3516 13.7104 77.1585 14.6867 79.7213 16.2732C82.2841 17.8597 84.4808 19.9344 86.7996 21.7649C86.9216 21.887 86.7996 22.009 86.6775 21.887C86.4334 21.7649 86.1894 21.5209 85.8233 21.2768C85.9453 21.3988 85.9453 21.3988 86.0673 21.5209C86.1894 21.6429 86.0673 21.7649 85.9453 21.6429C84.2368 19.9344 82.0401 19.5682 79.8434 20.6666C77.8908 21.5209 76.4263 23.2294 75.2059 24.9379C73.9855 26.5244 72.399 27.8669 70.4464 28.4771C68.9819 28.8432 67.1514 28.9652 65.5649 28.4771C66.6632 29.5754 67.1514 31.2839 67.3954 32.8705C67.7616 35.0671 68.3717 37.1418 69.4701 39.0944C70.4464 40.925 72.0329 42.3895 73.8635 43.2437C75.9381 44.22 78.1348 43.976 80.3315 43.6099C80.4536 43.6099 80.4536 43.7319 80.3315 43.7319C79.8434 43.976 79.3552 44.098 78.8671 44.098C78.8671 44.098 78.8671 44.22 78.745 44.22C74.7177 45.3184 70.5684 46.1727 66.4191 45.4404C63.6122 44.8302 60.8053 43.4878 58.8527 41.4132C56.7781 39.4605 55.8017 36.2875 56.1679 33.3586Z" fill="#FFA233"/>
<path d="M56.1677 33.3588C56.5338 30.3078 58.1203 27.501 57.022 24.572C56.2897 24.2059 55.9236 23.5957 56.2897 22.6194C56.4118 22.1313 57.266 20.9109 57.8762 21.0329H57.9982C58.3644 21.399 58.7305 21.6431 59.3407 21.399C59.7068 21.277 59.9509 20.9109 60.1949 20.6668C60.5611 20.1786 60.9272 19.5685 61.2933 18.9583C62.1476 17.8599 63.1239 16.8836 64.1002 16.0293C64.3443 15.9073 64.4663 15.7852 64.7104 15.6632C64.2222 16.1514 63.612 16.6395 63.1239 17.1277C62.2696 17.8599 60.9272 19.2023 60.9272 20.4227C60.9272 21.1549 61.2933 21.277 61.7815 21.5211C59.8288 22.7415 61.2933 24.572 63.1239 25.7924C63.0018 25.9145 62.8798 26.1585 63.0018 26.2806C64.4663 28.8434 69.2258 28.2332 71.5445 27.501C72.2768 27.2569 73.131 26.8908 73.8633 26.6467C72.887 27.501 71.7886 28.2332 70.4462 28.5993C68.9817 28.9654 67.1512 29.0875 65.5647 28.5993C65.6867 28.7213 65.8087 28.8434 65.9308 29.0875C64.8324 28.2332 63.612 27.623 62.1476 27.2569C61.7815 27.1348 61.4153 27.623 61.6594 27.9891C62.2696 29.3315 62.6357 30.5519 62.8798 31.8944C62.2696 30.4299 61.2933 29.3315 59.9509 30.0638C58.2423 30.918 58.2423 33.3588 58.6084 34.8233C59.0966 36.8979 59.9509 38.9726 61.5374 40.4371C64.8324 43.7321 69.5919 45.1966 74.2294 44.7084C75.2057 44.5864 76.304 44.4643 77.2804 44.0982C78.3787 44.0982 79.355 43.9762 80.4534 43.7321C80.5754 43.7321 80.5754 43.8541 80.4534 43.8541C79.9652 44.0982 79.4771 44.2203 78.9889 44.2203C78.9889 44.2203 78.9889 44.3423 78.8669 44.3423C74.8396 45.4406 70.6903 46.2949 66.541 45.5627C63.7341 44.9525 60.9272 43.6101 58.9746 41.5354C56.7779 39.4607 55.8016 36.2877 56.1677 33.3588Z" fill="#DD9007"/>
<g opacity="0.7">
<path d="M57.5101 22.1313C58.7305 22.3754 59.8289 22.3754 60.9272 21.8872C62.0256 21.3991 62.8798 20.3007 63.6121 19.5685C65.0765 18.104 66.785 16.6396 68.9817 16.0294C73.3751 14.809 78.0126 16.5175 81.5517 18.9583C81.6738 19.0803 81.5517 19.2024 81.4297 19.0803C77.5245 16.6396 72.3988 14.809 68.0055 16.7616C66.0528 17.6159 64.4663 19.3244 62.8798 20.7889C62.1476 21.5211 61.4153 22.1313 60.439 22.3754C59.4627 22.6195 58.3644 22.4974 57.3881 22.3754C57.266 22.3754 57.3881 22.1313 57.5101 22.1313Z" fill="#D8822B"/>
<path d="M57.5103 22.9855C58.6086 23.2296 59.707 23.5957 60.8053 23.5957C61.9037 23.5957 63.002 22.9855 63.8563 22.3753C65.4428 21.277 66.6632 19.9346 68.3717 18.9583C71.6668 17.2497 76.0602 17.6158 79.4772 18.8362C79.5993 18.8362 79.4772 19.0803 79.3552 18.9583C75.572 17.6158 70.8125 17.4938 67.3954 19.8125C65.8089 20.9109 64.5885 22.3753 62.7579 23.2296C61.0494 24.0839 58.9747 23.8398 57.1442 23.1076C57.2662 23.2296 57.3882 22.9855 57.5103 22.9855Z" fill="#D8822B"/>
<path d="M56.2897 24.3281C56.1677 24.2061 56.4118 23.962 56.5338 24.0841C56.6559 24.2061 56.8999 24.3281 57.022 24.4502C56.7779 24.3281 56.6559 24.0841 56.4118 23.962C56.2897 23.84 56.5338 23.5959 56.6559 23.7179C56.8999 23.84 57.022 24.0841 57.2661 24.2061V24.0841C57.2661 24.0841 57.2661 24.0841 57.2661 23.962C56.8999 23.5959 56.5338 23.2298 56.2897 22.8637C56.1677 22.7416 56.4118 22.4976 56.5338 22.6196C57.022 22.9857 57.3881 23.4739 57.7542 23.962C59.4627 24.5722 61.0493 24.8163 62.7578 24.8163C64.7104 24.8163 66.2969 24.2061 67.7614 23.1078C70.3242 21.2772 73.009 19.4466 76.3041 19.6907C76.4261 19.6907 76.4261 19.9348 76.3041 19.9348C74.4735 19.8127 72.765 20.4229 71.3005 21.2772C69.836 22.1314 68.4936 23.2298 67.0291 24.0841C64.9545 25.3045 62.1476 25.5485 59.7068 24.9383C61.9035 25.6706 63.9782 26.2808 66.2969 25.9146C68.4936 25.6706 70.2021 23.84 71.9107 22.6196C72.0327 22.6196 72.0327 22.6196 72.0327 22.7416C70.2021 24.0841 68.7377 25.7926 66.2969 26.1587C63.8561 26.6469 61.0493 25.7926 58.8526 24.8163C58.7305 24.8163 58.7305 24.6943 58.8526 24.5722C58.6085 24.4502 58.3644 24.4502 58.2424 24.3281C58.3644 24.4502 58.4864 24.6943 58.6085 24.8163C58.6085 24.8163 58.6085 24.9383 58.7305 24.9383C60.6831 25.5485 62.6357 26.5248 64.7104 26.891C67.5173 27.2571 70.4462 26.7689 72.5209 24.6943C72.5209 24.6943 72.6429 24.6943 72.6429 24.8163C70.6903 26.891 68.1275 27.3791 65.3206 27.2571C63.9782 27.2571 62.6358 26.7689 61.2933 26.2808C61.2933 26.2808 61.1713 26.2808 61.1713 26.1587C61.9035 26.6469 62.6358 27.135 63.368 27.7452C64.3443 28.5995 65.1986 29.5758 65.8088 30.6742C66.419 31.7725 66.4189 33.1149 66.663 34.3353C66.663 34.4574 66.541 34.4574 66.541 34.3353C66.2969 33.237 66.1749 32.0166 65.6867 30.9182C65.1986 29.6978 64.1002 28.5995 63.1239 27.7452C62.1476 27.013 61.1713 26.4028 60.195 25.9146C60.439 26.0367 60.6831 26.2808 61.0492 26.4028C62.3917 27.3791 63.368 28.7215 64.1002 30.186C64.8324 31.7725 65.0765 33.6031 65.5647 35.3116C66.0528 37.1422 67.1512 38.7287 68.6157 39.9491C68.7377 40.0711 68.6156 40.1932 68.4936 40.0711C67.2732 39.0948 66.2969 37.8744 65.6867 36.41C64.9545 34.8235 64.7104 32.9929 64.1002 31.2844C63.49 29.5758 62.5137 27.9893 61.1713 26.891C62.5137 28.4775 63.0019 30.5521 63.368 32.5047C63.7341 34.7014 64.1002 36.8981 65.4426 38.7287C66.663 40.4372 68.4936 41.6576 70.5683 42.1458C70.6903 42.1458 70.6903 42.2678 70.5683 42.2678C68.8597 41.9017 67.2732 40.9254 66.0528 39.705C64.5884 38.3626 63.8561 36.654 63.49 34.7014C63.0019 32.2607 62.8798 29.6978 61.4154 27.6232C61.0492 27.135 60.6831 26.7689 60.317 26.4028C60.6831 27.013 61.0492 27.7452 61.1713 28.4775C61.4154 29.5758 61.4154 30.5521 61.2933 31.6505C61.0493 32.9929 61.6594 34.3353 62.0256 35.5557C63.49 39.9491 67.5173 43.3662 72.1548 43.7323C72.2768 43.7323 72.2768 43.8543 72.1548 43.8543C67.8834 43.7323 64.1002 40.8034 62.2696 37.0202C61.7815 35.9218 61.4154 34.8235 61.0492 33.6031C60.9272 33.1149 60.8052 32.5047 60.8052 32.0166C60.9272 31.2843 61.0492 30.5521 61.0492 29.8199C60.9272 28.2334 60.317 27.013 59.4628 25.9146C59.5848 26.2808 59.5848 26.6469 59.5848 27.135C59.5848 28.1113 59.5848 29.0877 59.3407 30.064C58.9746 31.2844 58.6085 32.5047 58.6085 33.8472C58.7305 36.0439 59.4627 38.1185 60.9272 39.8271C62.2696 41.4136 64.2223 42.5119 66.0528 43.2441C66.1749 43.2441 66.0528 43.3662 66.0528 43.3662C62.3917 42.0238 59.3407 39.4609 58.4864 35.5557C58.2424 34.5794 58.1203 33.481 58.2424 32.5047C58.3644 31.4064 58.8526 30.308 59.0966 29.2097C59.2187 28.5995 59.2187 28.1113 59.2187 27.5012C59.2187 26.7689 59.2187 26.0367 58.9746 25.3045C58.6085 25.0604 58.2424 24.8163 57.8762 24.5722C57.7542 24.5722 57.6322 24.4502 57.3881 24.4502C57.3881 24.4502 57.2661 24.4502 57.2661 24.3281C57.022 24.2061 56.7779 24.0841 56.6559 24.0841C55.9236 24.4502 56.0457 24.2061 56.2897 24.3281Z" fill="#D8822B"/>
</g>
<path d="M58.8527 41.6576C60.8053 43.8543 63.4902 45.1967 66.4191 45.6849C70.5684 46.5391 74.7177 45.5628 78.745 44.4645C78.745 44.4645 78.8671 44.4645 78.8671 44.3425C79.3552 44.2204 79.8434 44.0984 80.3315 43.9763C80.4536 43.9763 80.3315 43.8543 80.3315 43.8543C78.1348 44.3425 75.9381 44.4645 73.8635 43.4882C72.0329 42.6339 70.4464 41.0474 69.4701 39.3389C68.3717 37.3863 67.7616 35.3116 67.3954 33.1149C67.1514 31.5284 66.6632 29.8199 65.5649 28.7215C67.1514 29.2097 68.9819 29.0876 70.4464 28.7215C72.399 28.2334 73.9855 26.7689 75.2059 25.1824C76.5483 23.4739 77.8908 21.7653 79.8434 20.911C82.0401 19.9347 84.2368 20.3008 85.9453 21.8873C86.0673 22.0094 86.1894 21.7653 86.0673 21.7653C85.9453 21.6433 85.9453 21.6433 85.8233 21.5212C86.0673 21.7653 86.3114 21.8874 86.6775 22.1314C86.7996 22.2535 86.9216 22.0094 86.7996 22.0094C84.4808 20.1788 82.2841 18.1042 79.7213 16.5177C77.1585 14.9312 74.3516 13.9548 71.4227 13.9548C68.7378 13.9548 66.175 14.565 64.1004 16.2736C63.002 17.1278 62.0257 18.1042 61.2935 19.2025C60.9274 19.6907 60.5613 20.3008 60.1951 20.911C59.9511 21.1551 59.707 21.5212 59.3409 21.6433C58.8527 21.8873 58.3646 21.5212 57.9984 21.2772H57.8764C57.2662 21.0331 56.4119 22.3755 56.2899 22.8637C55.9238 23.84 56.2899 24.4502 57.0221 24.8163C58.2425 27.7452 56.534 30.5521 56.1679 33.6031C55.8017 36.2879 56.7781 39.4609 58.8527 41.6576ZM56.9001 31.7725C57.5103 29.3317 58.3646 27.013 57.3883 24.6942C57.5103 24.6942 57.7544 24.8163 57.9984 24.8163C58.2425 24.8163 58.2425 24.5722 57.9984 24.4502C57.7544 24.3281 57.3883 24.3281 57.1442 24.2061C57.0221 23.962 56.9001 23.7179 56.7781 23.5959C56.656 23.4738 56.656 23.5959 56.656 23.7179C56.534 23.3518 56.656 22.9857 56.7781 22.6196C56.9001 22.3755 57.5103 21.3992 57.8764 21.3992C58.6086 22.2535 59.585 22.2535 60.3172 21.3992C60.6833 20.911 61.0494 20.3008 61.4155 19.8127C61.9037 19.2025 62.2698 18.5923 62.88 18.1041C64.9546 15.9075 67.5175 14.565 70.4464 14.443C73.7414 14.321 76.9144 15.1752 79.5993 16.8838C81.4299 18.1041 83.1384 19.4466 84.8469 20.789C83.7486 20.1788 82.4062 19.8127 81.0638 20.1788C79.2332 20.667 77.6467 21.7653 76.4263 23.1077C74.8398 24.8163 73.7414 26.8909 71.5447 27.8672C69.226 28.9656 66.6632 28.8436 64.3445 27.7452C64.2224 27.6232 64.1004 27.8672 64.2224 27.9893C64.3445 28.1113 64.4665 28.1113 64.4665 28.2334C65.5648 29.0876 66.2971 29.9419 66.6632 31.2843C67.0293 32.5047 67.1514 33.7251 67.3954 34.9455C67.8836 36.8981 68.6158 38.9728 69.8362 40.5593C71.5447 42.878 74.1076 44.4645 76.7924 44.5865C73.3753 45.3188 70.0803 46.051 66.5411 45.1967C63.6122 44.5865 60.6833 43.1221 58.8527 40.6813C56.656 38.2405 56.0458 34.9455 56.9001 31.7725Z" fill="#542A0D"/>
<path d="M14.3086 13.9547C14.5527 11.3919 15.7731 9.19518 17.8477 7.97479C17.8477 7.85275 17.8477 7.85275 17.8477 7.73071C20.8987 5.28994 25.048 4.67975 28.8312 4.55771C32.6144 4.43567 36.3976 5.1679 40.0588 6.38829C43.7199 7.73071 47.259 9.68333 50.31 12.2461C53.483 14.809 56.0458 18.104 58.3646 21.399C58.6086 21.7652 58.8527 22.1313 59.0968 22.4974C59.2188 22.6194 59.2188 22.7415 59.3409 22.8635C59.4629 23.1076 59.5849 23.3517 59.707 23.4737V23.5957C59.9511 24.0839 60.1951 24.6941 60.1951 25.1822C60.3172 25.7924 60.1951 26.6467 59.707 27.0128C58.9748 27.623 57.5103 25.9145 57.2662 25.4263C57.2662 25.4263 57.2662 25.4263 57.2662 25.3043C54.8254 24.572 52.1406 24.8161 49.6998 25.3043C48.2354 25.5484 46.6488 26.0365 45.1844 26.5247C43.842 26.8908 42.6216 27.501 41.4012 27.9891C37.9841 29.6977 34.0789 30.3079 30.2957 30.796C28.5871 31.0401 27.0006 31.1621 25.4141 30.9181C24.0717 30.674 22.7293 30.1858 21.5089 29.4536C16.5053 26.4026 13.8205 19.6905 14.3086 13.9547Z" fill="#78731A"/>
<path d="M52.8729 15.5413C52.9949 15.5413 52.9949 15.5413 52.8729 15.5413C53.9712 16.7616 55.1916 17.738 56.0459 18.9583C56.6561 19.9347 57.2663 20.911 57.8765 21.7652C57.7544 21.8873 57.5104 22.1313 57.2663 22.1313C56.7781 22.2534 56.412 22.1313 56.1679 21.8873C56.0459 21.7652 56.0459 21.7652 55.9238 21.6432C55.9238 21.6432 55.9238 21.6432 55.9238 21.5212C55.8018 21.2771 55.6798 21.033 55.6798 20.6669C55.6798 20.5448 55.5577 20.4228 55.5577 20.4228C55.4357 20.4228 55.3137 20.3008 55.1916 20.3008C54.3374 19.3245 52.8729 19.2024 52.2627 17.982C51.8966 17.2498 52.1406 15.7853 52.8729 15.5413Z" fill="#8F8410"/>
<path d="M39.0825 9.43971C39.3265 8.70748 39.8147 7.73116 40.4249 7.12097C40.791 7.24301 41.1571 7.36505 41.5232 7.60913C42.4995 7.97524 43.3538 8.58543 44.2081 9.07359C44.2081 9.31767 44.2081 9.4397 44.0861 9.68378V9.80583C44.5742 10.0499 45.1844 10.0499 45.6726 10.294C46.4048 10.6601 46.5268 11.2703 46.5268 12.1246C46.5268 12.3686 46.1607 12.6127 45.9166 12.6127C45.1844 12.4907 43.1097 11.3923 42.8657 12.6127C42.8657 12.7347 42.8657 12.9788 42.8657 13.1009C42.8657 13.589 42.7436 14.0772 42.2555 14.0772C41.4012 14.1992 40.4249 13.2229 39.9368 12.6127C39.0825 11.7584 38.7164 10.5381 39.0825 9.43971Z" fill="#8F8410"/>
<path d="M43.3538 19.5689C43.842 20.0571 44.5742 20.0571 44.3301 21.0334C44.2081 21.3995 44.086 21.7656 44.2081 22.2538C44.3301 23.1081 44.8183 24.0844 45.5505 24.5725C47.8692 25.7929 48.7235 23.5962 49.3337 21.7656C50.188 22.1317 51.5304 22.7419 52.0185 22.0097C52.3847 21.5216 52.0185 20.9114 51.6524 20.5452C51.4084 20.3012 51.0422 20.1791 50.6761 20.0571C50.31 19.9351 50.9202 19.3249 50.9202 19.2028C51.0422 18.7147 51.0422 17.9824 50.432 17.7384C49.5778 17.3722 48.9676 17.8604 48.1133 17.9824C47.6252 17.3722 46.8929 16.8841 46.1607 16.518C45.7946 16.0298 45.3064 15.6637 44.4522 15.7857C44.2081 15.7857 44.086 16.1519 44.2081 16.2739C42.7436 16.518 42.1334 18.3486 43.3538 19.5689Z" fill="#8F8410"/>
<path d="M36.0313 18.9586C36.2754 18.7145 36.6415 18.5925 37.0076 18.5925C37.1297 18.5925 37.3738 18.5925 37.4958 18.5925C37.4958 18.4704 37.6178 18.3484 37.7399 18.2264C37.7399 18.1043 37.7399 17.9823 37.9839 17.8603C38.106 17.8603 38.228 17.7382 38.3501 17.7382C38.4721 17.4941 38.8382 17.4941 39.0823 17.6162C39.6925 17.6162 40.3027 17.9823 40.6688 18.5925C40.7908 18.7145 40.6688 19.0806 40.5468 19.2027C40.1807 19.4468 39.9366 19.5688 40.1806 19.9349C40.3027 20.179 40.5468 20.4231 40.7908 20.7892C41.157 21.3994 41.1569 22.0096 40.6688 22.6198C40.6688 22.7418 40.5468 22.7418 40.4247 22.8638C40.0586 23.23 39.5704 23.352 39.0823 23.1079C38.4721 22.8638 38.228 22.1316 38.106 21.5214C37.984 21.2773 37.9839 21.0333 37.8619 20.6671C37.7399 20.6671 37.6178 20.6671 37.6178 20.6671C37.0076 20.6671 36.2754 20.7892 35.7872 20.4231C34.933 20.0569 35.6652 19.3247 36.0313 18.9586Z" fill="#8F8410"/>
<path d="M30.4177 27.7454C30.4177 27.1352 30.6618 26.7691 31.0279 26.2809C31.15 26.0368 30.7838 25.1826 30.9059 24.8165C31.272 24.0842 32.1263 23.5961 32.7365 24.2063C32.8585 24.2063 32.8585 24.3283 32.9805 24.3283C33.1026 24.4503 33.1026 24.6944 33.1026 24.8165C33.2246 25.0605 33.2246 25.1826 33.2246 25.4266C33.2246 25.4266 33.2246 25.5487 33.3466 25.5487C33.7128 25.7928 33.9568 25.1826 34.323 25.0605C34.8111 24.8165 35.4213 24.8165 36.0315 25.0605C37.1298 25.5487 36.6417 27.0132 36.0315 27.6233C35.5433 28.1115 34.9331 28.3556 34.2009 28.4776C33.5907 28.5997 33.4687 29.4539 32.8585 29.576C31.394 29.82 30.4177 29.0878 30.4177 27.7454Z" fill="#8F8410"/>
<path d="M25.292 6.51058C25.17 6.38855 25.17 6.26651 25.292 6.14447C25.7802 5.77836 26.7565 5.53428 27.1226 6.26651V6.38855C27.2446 6.51059 27.1226 6.51059 27.1226 6.38855C27.2446 6.26651 27.4887 6.14447 27.7328 6.26651C28.0989 6.26651 28.465 6.38855 28.7091 6.51058C28.9532 6.38855 29.3193 6.51059 29.4413 6.75467C29.8074 6.87671 30.0515 7.12078 29.9295 7.4869C29.9295 7.85301 29.4413 8.09709 29.0752 8.21913C28.9532 8.34117 28.8311 8.4632 28.7091 8.4632C28.8311 8.82932 28.9532 9.19543 29.0752 9.56155C29.0752 9.92767 28.7091 10.2938 28.343 10.1717C27.2446 9.80563 25.5361 8.70728 25.0479 7.4869C24.9259 7.12078 25.0479 6.75466 25.292 6.51058Z" fill="#8F8410"/>
<path opacity="0.3" d="M36.2756 19.4464C36.6417 19.0803 37.1298 18.7142 37.496 18.8362C37.496 18.7142 37.618 18.5922 37.618 18.5922C37.8621 18.4701 38.1061 18.3481 38.4723 18.3481C38.7163 18.3481 38.9604 18.4701 39.0824 18.8362C39.0824 18.9583 39.0825 19.2023 38.9604 19.3244C38.8384 19.4464 38.7163 19.5685 38.7163 19.6905C38.5943 20.0566 38.9604 20.4227 39.0824 20.5448C39.3265 20.7889 39.2045 21.399 38.7163 21.399C38.1062 21.5211 37.618 21.0329 37.3739 20.5448C37.3739 20.5448 37.3739 20.5448 37.3739 20.4227C37.2519 20.4227 37.2519 20.4227 37.1298 20.4227C37.0078 20.4227 36.7637 20.4227 36.6417 20.4227C36.3976 20.3007 35.9095 19.8125 36.2756 19.4464Z" fill="#FFF27A"/>
<path opacity="0.3" d="M30.9057 28.1111C30.7837 27.867 30.7837 27.5009 31.0278 27.2568C31.1498 27.1347 31.2718 27.0127 31.3939 27.0127C31.1498 26.5246 31.1498 25.9144 31.3939 25.3042C31.5159 24.9381 32.0041 24.9381 32.2482 25.1821C32.4922 25.5482 32.7363 25.9144 32.6143 26.2805C32.9804 26.0364 33.3465 25.7923 33.7126 25.6703C34.0787 25.5482 34.4448 25.6703 34.5669 26.1584C34.6889 27.2568 33.7126 27.989 32.7363 28.1111C32.6143 28.7213 31.882 29.0874 31.3939 28.8433C31.1498 29.0874 30.6616 28.5992 30.9057 28.1111Z" fill="#FFF27A"/>
<path opacity="0.3" d="M39.8147 9.8054C40.0588 9.43928 40.4249 9.19521 40.669 9.19521C40.669 8.95113 40.791 8.82909 41.0351 8.58501C41.2792 8.2189 41.7673 8.2189 42.0114 8.58501C42.3775 8.95113 42.4996 9.43928 42.4996 9.92744C43.2318 9.92744 43.842 10.1715 44.4522 10.6597C44.6963 11.0258 44.4522 11.5139 44.0861 11.5139C43.5979 11.636 43.2318 11.5139 42.7436 11.3919C42.6216 11.3919 42.4996 11.2699 42.3775 11.2699C42.4996 11.5139 42.4996 11.636 42.3775 11.8801C42.0114 12.7343 41.1571 12.8564 40.4249 12.3682C39.4486 12.0021 39.3266 10.6597 39.8147 9.8054Z" fill="#FFF27A"/>
<path opacity="0.7" d="M24.1935 6.87646C25.6579 7.85277 27.3665 8.09684 28.7089 9.31723C29.9293 10.4156 31.1497 11.3919 32.6141 11.88C35.6651 12.7343 38.8381 12.7343 41.8891 13.7106C45.3061 14.809 48.4791 16.3955 51.4081 18.3481C54.0929 20.1787 57.388 22.2533 59.0965 25.0602C59.4626 25.5484 59.8287 25.1823 59.5847 24.6941C59.3406 24.328 59.3406 23.5958 59.0965 23.2296C57.7541 20.5448 55.6794 18.3481 53.4827 16.3955C50.9199 14.0767 48.2351 11.88 45.1841 10.1715C42.1331 8.46296 38.8381 7.12054 35.421 6.26626C31.7598 5.41199 28.2207 5.41199 24.4375 5.77811C23.9494 5.90015 23.7053 6.63238 24.1935 6.87646Z" fill="#C1B338"/>
<path d="M28.8311 7.36466C38.4721 6.99855 47.747 11.7581 54.4592 18.5922C54.4592 18.5922 54.4592 18.7143 54.5812 18.7143C55.9236 19.9346 57.022 21.155 58.1203 22.4975C58.2424 22.7415 57.9983 22.9856 57.8763 22.7415C54.0931 18.4702 49.0895 15.1751 43.7198 13.2225C41.0349 12.2462 38.3501 11.758 35.5432 11.514C32.9804 11.1479 31.0277 9.68339 28.8311 8.463C28.3429 8.21893 28.2209 7.4867 28.8311 7.36466Z" fill="#FFEE8D"/>
<path opacity="0.3" d="M52.8726 16.6397C53.6049 16.6397 54.2151 17.2499 54.7032 18.1042C54.8252 18.1042 54.8252 18.2262 54.9473 18.2262C55.0693 18.3482 55.1914 18.4703 55.1914 18.5923C55.5575 18.9584 55.9236 19.3246 56.1677 19.8127C56.2897 19.9348 56.1677 20.0568 56.1677 20.1788C56.0456 20.3009 55.9236 20.4229 55.8016 20.5449C55.6795 20.5449 55.5575 20.5449 55.4354 20.5449C54.9473 20.1788 54.7032 19.6907 54.3371 19.2025C53.7269 18.9584 52.9947 18.8364 52.5065 18.2262C52.0184 17.616 52.2624 16.7617 52.8726 16.6397Z" fill="#FFF27A"/>
<path opacity="0.3" d="M26.0243 6.51037C26.6345 6.38833 27.0006 6.63241 27.3667 6.87649C27.7329 6.87649 28.221 6.87648 28.5871 7.12056C28.9532 7.2426 28.9532 7.73076 28.7092 7.97483C28.221 8.34095 27.6108 8.95114 26.8786 8.8291C26.2684 8.58502 25.9023 7.85279 25.6582 7.2426C25.4141 6.99852 25.7802 6.6324 26.0243 6.51037Z" fill="#FFF27A"/>
<path d="M21.6307 29.4536C22.8511 30.1858 24.1935 30.6739 25.5359 30.918C27.2445 31.1621 28.831 31.0401 30.4175 30.796C34.2007 30.3078 38.1059 29.6976 41.523 27.9891C42.8654 27.623 44.0858 27.0128 45.3062 26.5246C46.7707 26.0365 48.2351 25.6704 49.8216 25.3042C52.2624 24.8161 54.9472 24.572 57.388 25.3042C57.388 25.3042 57.388 25.3042 57.388 25.4263C57.7541 25.9144 59.2186 27.623 59.8288 27.0128C60.3169 26.6467 60.317 25.6704 60.317 25.1822C60.1949 24.572 60.0729 24.0839 59.8288 23.5957C59.8288 23.5957 59.8288 23.5957 59.8288 23.4737C59.7067 23.2296 59.5847 22.9855 59.4627 22.8635C59.4627 22.7414 59.3406 22.6194 59.2186 22.4974C58.9745 22.1312 58.7304 21.7651 58.4864 21.399C56.1676 17.9819 53.6048 14.8089 50.4318 12.2461C47.3808 9.80534 43.8417 7.73068 40.1806 6.38826C36.6415 5.04583 32.8583 4.3136 28.953 4.55768C25.1698 4.67971 21.0205 5.28991 17.9695 7.73068C17.8475 7.85272 17.8475 7.85272 17.9695 7.97476C15.8949 9.31719 14.5524 11.3918 14.4304 13.9546C13.8202 19.6905 16.5051 26.4026 21.6307 29.4536ZM14.7965 16.6395C14.6745 14.931 14.6745 13.2224 15.2847 11.6359C15.8949 9.92738 17.1153 8.70699 18.7018 7.97476C18.8238 7.85272 18.8238 7.73068 18.8238 7.60864C20.4103 6.51029 22.2409 5.9001 24.0715 5.53399C26.0241 5.16787 28.2208 4.9238 30.1734 4.9238C34.0786 4.9238 37.9839 5.9001 41.523 7.36457C45.3062 8.95107 48.8453 11.1478 51.7742 14.0767C54.7032 16.8836 56.8999 20.0566 59.2186 23.2296C59.4627 23.7177 59.7067 24.3279 59.8288 24.9381C59.9508 25.3042 60.0729 26.7687 59.4627 27.0128C58.8525 27.2569 58.1203 26.1585 57.6321 25.6704C57.9982 25.7924 58.3643 25.9144 58.6084 26.1585C58.7304 26.1585 58.7304 26.0365 58.7304 26.0365C56.1676 24.3279 52.8726 24.45 49.9437 25.0602C48.3572 25.3042 46.8927 25.7924 45.3062 26.2806C44.574 26.5246 43.9638 26.7687 43.2315 27.0128C42.2552 27.3789 41.4009 27.8671 40.3026 28.1111C40.1806 28.1111 40.0585 28.2332 40.1806 28.3552C39.0822 28.7213 37.8618 29.0874 36.7635 29.4536C34.8109 29.9417 32.7362 30.3078 30.6616 30.5519C28.953 30.796 27.1224 31.0401 25.4139 30.6739C22.3629 30.0638 19.6781 28.2332 17.8475 25.6704C16.139 22.8635 15.0406 19.8125 14.7965 16.6395Z" fill="#4A3E14"/>
<path opacity="0.7" d="M14.3087 13.9547C14.5527 11.3919 15.7731 9.19516 17.8478 7.97478C17.8478 7.85274 17.8478 7.85273 17.8478 7.73069C18.9461 6.87642 20.0445 6.26623 21.3869 5.77808C22.4852 6.38827 23.4616 6.99846 24.5599 7.60866C25.6583 8.21885 27.0007 8.82904 27.7329 9.92739C28.2211 10.6596 28.7092 11.3919 29.1974 12.002C29.9296 12.8563 30.6618 13.5886 31.6382 12.4902C32.0043 12.1241 32.2483 11.758 32.3704 11.3919C32.1263 12.3682 31.6382 13.3445 30.7839 14.0767C30.4178 14.3208 30.6618 15.053 31.15 14.931C32.6145 14.5649 33.5908 13.8326 34.201 12.4902C34.5671 11.6359 34.8112 10.6596 35.0552 9.80536C35.2993 9.07312 35.9095 8.34089 36.7638 8.95108C37.1299 9.3172 37.618 9.68331 37.9842 10.0494C39.3266 11.6359 40.547 14.1987 40.1809 16.3954C39.6927 19.4464 36.1536 20.7888 33.4687 20.0566C33.2247 20.0566 32.9806 20.1786 32.9806 20.4227C32.9806 21.8872 31.8822 25.3043 33.5908 26.2806C35.1773 27.1348 37.496 26.1585 38.9605 25.6704C42.3776 24.45 45.6726 22.8635 49.2117 22.4974C51.4084 22.2533 53.6051 22.2533 55.6798 23.1076C56.534 23.4737 57.5103 23.8398 58.1205 24.572C58.4866 25.0602 58.8528 25.4263 59.3409 25.7924C59.585 26.0365 60.0732 25.7924 60.0732 25.4263C60.0732 25.3043 60.0732 25.1822 60.0732 24.9381C60.1952 25.5483 60.0731 26.4026 59.585 26.7687C58.8528 27.3789 57.3883 25.6704 57.1442 25.1822C57.1442 25.1822 57.1442 25.1822 57.1442 25.0602C54.7034 24.328 52.0186 24.572 49.5778 25.0602C48.1134 25.3043 46.5269 25.7924 45.0624 26.2806C43.72 26.6467 42.4996 27.2569 41.2792 27.745C37.8621 29.4536 33.9569 30.0638 30.1737 30.5519C28.4652 30.796 26.8787 30.918 25.2921 30.674C23.9497 30.4299 22.6073 29.9417 21.3869 29.2095C16.5054 26.4026 13.8205 19.6905 14.3087 13.9547Z" fill="#78731A"/>
<path d="M0.762369 29.4536C0.884408 28.5993 1.86072 27.745 2.71499 27.501C4.42354 27.1348 6.2541 28.2332 7.96264 27.501H8.08469C8.93896 26.5246 9.42711 25.3043 9.30507 23.9618C9.18304 23.8398 9.30508 23.7178 9.42712 23.8398C9.54916 23.8398 9.54916 23.8398 9.67119 23.9618C11.8679 24.9381 12.4781 27.8671 12.234 30.0638C12.112 31.1621 11.6238 32.3825 10.7695 33.2368C10.0373 33.969 8.81692 34.2131 7.84061 34.3351C5.64392 34.4572 3.20314 33.4808 1.61664 31.8943C1.00644 31.0401 0.518292 30.3078 0.762369 29.4536Z" fill="#FFA233"/>
<path d="M0.762369 29.3316C1.00645 29.8198 1.37255 30.43 1.86071 30.7961C3.20313 31.8944 5.64391 33.1148 7.47449 32.2606C8.57284 31.7724 9.91527 29.9418 8.08469 29.3316C6.74226 28.8435 4.05741 30.1859 3.0811 28.9655C3.93537 28.9655 5.15576 28.8435 5.64391 28.2333C5.88799 27.9892 5.888 27.7451 5.76596 27.5011C6.49819 27.6231 7.23041 27.6231 7.96264 27.379H8.08469C8.93896 26.4027 9.42711 25.1823 9.30507 23.8399C9.18304 23.7179 9.30508 23.5958 9.42712 23.7178C9.54916 23.7178 9.54916 23.7179 9.67119 23.8399C11.8679 24.8162 12.4781 27.7451 12.234 29.9418C12.112 31.0402 11.6238 32.2606 10.7695 33.1148C10.0373 33.8471 8.81692 34.0911 7.84061 34.2132C5.64392 34.3352 3.20314 33.3589 1.61664 31.7724C1.00644 31.0402 0.518292 30.3079 0.762369 29.3316C0.762369 29.4537 0.762369 29.4537 0.762369 29.3316Z" fill="#DD9007"/>
<path opacity="0.8" d="M1.98258 30.0637C3.32501 31.2841 5.27764 31.6502 6.98618 31.04C7.84045 30.7959 8.57267 30.0637 8.93878 29.2094C9.3049 28.5992 9.3049 27.989 9.3049 27.2568C9.18286 27.3788 9.18287 27.5009 9.06083 27.745C8.69471 28.3551 8.20656 28.8433 7.59637 29.3315C6.13191 30.4298 4.66744 30.3078 2.9589 29.8196C2.83686 29.8196 2.9589 29.6976 2.9589 29.6976C3.69113 29.8196 4.42336 29.9417 5.1556 29.9417C6.00987 29.9417 6.62006 29.5755 7.23025 29.0874C7.7184 28.7213 8.20656 28.2331 8.45064 27.745C8.69471 27.3788 8.81674 26.8907 8.93878 26.4025C8.69471 26.7686 8.32859 27.1348 7.96247 27.5009C7.59635 27.867 7.23025 28.1111 6.86413 28.4772C6.62005 28.7213 6.13189 28.7213 5.88782 28.8433H5.76579C4.91152 29.0874 3.81317 28.8433 3.32502 28.4772C3.20298 28.4772 3.32501 28.2331 3.44704 28.3551C4.17928 28.7213 5.27762 28.9653 6.13189 28.5992C6.25393 28.5992 6.25394 28.4772 6.37598 28.4772C6.37598 28.4772 6.49801 28.4772 6.49801 28.3551H6.62006C6.98617 28.2331 7.23025 27.867 7.59637 27.6229C8.20656 27.0127 8.6947 26.5246 9.18286 25.7923C9.18286 25.6703 9.30491 25.5483 9.42695 25.6703C10.1592 26.2805 10.1592 27.1348 10.2812 27.989C10.4033 29.0874 10.1592 30.0637 9.79305 31.04C9.06082 32.7485 7.35228 33.2367 5.64374 32.9926C5.52171 32.9926 5.52171 32.7485 5.64374 32.8706C7.23025 33.1147 8.69472 32.5045 9.42695 30.918C9.79307 30.1857 9.9151 29.4535 9.9151 28.7213C9.9151 27.989 9.9151 27.0127 9.42695 26.2805C9.42695 27.5009 9.42694 28.4772 8.93878 29.5755C8.57267 30.4298 7.7184 31.04 6.86413 31.4061C5.39967 32.0163 3.20297 31.5282 1.98258 30.0637C1.98258 29.9417 1.86055 30.0637 1.98258 30.0637Z" fill="#D8822B"/>
<path d="M1.49441 31.6504C3.08091 33.2369 5.52167 34.2132 7.71837 34.0912C8.69468 34.0912 9.91507 33.8471 10.6473 32.9929C11.5016 32.1386 11.8677 31.0402 12.1118 29.8199C12.3558 27.6232 11.7456 24.6942 9.54895 23.7179C9.54895 23.5959 9.42691 23.5959 9.30487 23.5959C9.18283 23.5959 9.06079 23.7179 9.18283 23.7179C9.30487 25.0603 8.81671 26.2807 7.96244 27.257C7.96244 27.257 7.96245 27.257 7.84041 27.257C6.13187 27.9893 4.42333 26.8909 2.59275 27.257C1.73848 27.5011 0.76216 28.3554 0.640121 29.2097C0.518083 30.308 1.00625 31.0402 1.49441 31.6504ZM1.12829 29.6978C1.25033 28.3554 2.71479 27.7452 3.93518 27.8672C5.03353 27.9893 6.37595 28.3554 7.47429 27.9893C6.62002 28.7215 5.39964 29.3317 4.17925 29.3317C4.05721 29.3317 4.05721 29.4537 4.17925 29.4537C6.8641 29.6978 10.1591 27.013 9.67099 24.2061C11.7456 25.6705 12.3558 28.8436 11.5016 31.1623C11.1355 32.2606 10.4032 33.2369 9.18283 33.6031C8.08448 33.9692 6.86411 33.8471 5.76576 33.6031C4.66741 33.359 3.56906 32.8708 2.59275 32.1386C1.86052 31.4064 1.00625 30.5521 1.12829 29.6978Z" fill="#542A0D"/>
<path d="M0.884251 14.0767C1.25037 13.9547 1.73851 14.0767 1.98259 14.3208C7.10821 11.758 11.7457 7.85273 17.4815 6.51031C21.2647 5.65604 24.5597 7.48662 26.8785 10.4155C28.465 12.2461 29.5633 14.4428 29.9294 16.8836C30.1735 18.104 30.1735 19.3244 30.1735 20.5448C30.0515 23.8398 28.9531 27.623 26.2683 29.8197C23.3393 32.2605 19.19 31.1621 16.017 29.8197C13.6983 28.8434 11.5016 27.3789 9.54898 25.7924C8.57267 25.0602 7.71841 24.2059 6.86414 23.2296C6.37598 22.6194 5.88783 22.0092 5.39968 21.399C4.66745 20.6668 4.05724 19.9346 3.44705 19.2023C1.98259 18.4701 0.51812 17.3717 0.0299659 15.7852C-0.0920727 15.175 0.152019 14.3208 0.884251 14.0767Z" fill="#E77F43"/>
<path opacity="0.5" d="M0.884294 14.0766C1.12837 13.9546 1.37244 14.0766 1.61651 14.0766C1.12836 14.5648 1.00632 15.297 1.61651 16.1513C3.08098 18.1039 5.52176 18.8361 7.84049 19.0802C10.6474 19.4463 14.0645 19.5684 16.7493 18.47C17.4815 18.2259 18.0917 17.7378 18.2138 16.8835C18.2138 16.5174 17.9697 16.1513 17.6036 15.7852C18.7019 16.1513 19.9223 16.2733 20.8986 15.6631C21.8749 15.175 21.997 14.1987 21.7529 13.3444C22.6072 14.5648 22.8512 16.2733 21.2647 16.8835C21.1427 16.8835 21.1427 17.0055 21.1427 17.1276C21.3868 19.0802 20.5325 20.7887 20.5325 22.7414C20.5325 23.4736 20.7766 24.0838 21.3868 24.4499C22.7292 25.4262 25.0479 26.0364 26.6344 25.3042C28.343 24.4499 28.465 21.521 28.465 19.9345C28.465 19.0802 28.343 18.2259 27.9769 17.3717C27.7328 16.7615 26.5124 14.3207 27.8548 14.1987C27.9769 14.1987 28.0989 14.0766 28.0989 13.8325C27.2446 10.4155 24.3157 7.97469 21.2647 6.38818C23.5835 6.87634 25.5361 8.3408 27.1226 10.2934C28.7091 12.124 29.8075 14.3207 30.1736 16.7615C30.4176 17.9819 30.4176 19.2022 30.4176 20.4226C30.2956 23.7177 29.1973 27.5009 26.5124 29.6976C23.5835 32.1383 19.4342 31.04 16.2612 29.6976C13.9424 28.7213 11.7457 27.2568 9.7931 25.6703C8.81679 24.9381 7.96252 24.0838 7.10825 23.1075C6.6201 22.4973 6.13195 21.8871 5.64379 21.2769C4.91156 20.5447 4.30136 19.8124 3.69117 19.0802C2.2267 18.348 0.762256 17.2496 0.274101 15.6631C-0.0920149 15.175 0.152062 14.3207 0.884294 14.0766Z" fill="#DD9007"/>
<path d="M4.66751 19.8126C4.91159 20.0567 5.03364 20.1787 5.15568 20.3008C6.25402 21.5212 7.35237 22.6195 8.81684 23.4738C10.7695 24.6942 13.0882 25.1823 15.2849 24.9382C17.3595 24.6942 18.946 23.5958 19.6783 21.6432C20.2885 20.0567 20.1664 18.2261 20.0444 16.5176C18.5799 18.4702 16.3832 19.6906 13.9425 20.0567C12.6 20.3008 11.1356 20.3008 9.79313 20.1787C8.20663 20.0567 6.62013 19.9347 5.03363 19.5685C4.78955 19.4465 4.54547 19.4465 4.30139 19.3245C4.42343 19.5685 4.54547 19.6906 4.66751 19.8126Z" fill="#E2EAEC"/>
<path d="M4.30139 19.4465C4.42343 19.5685 4.54547 19.6906 4.66751 19.8126H4.78956C4.9116 19.9347 5.03364 20.1787 5.15568 20.3008C6.25402 21.5212 7.35237 22.6195 8.81684 23.4738C10.7695 24.6942 13.0882 25.1823 15.2849 24.9382C17.3595 24.6942 18.946 23.5958 19.6783 21.6432C20.2885 20.0567 20.1664 18.2261 20.0444 16.5176C18.5799 18.4702 16.3832 19.6906 13.9425 20.0567C12.6 20.3008 11.1356 20.3008 9.79313 20.1787C8.20663 20.0567 6.62013 19.9347 5.03363 19.5685C4.78955 19.6906 4.54547 19.5685 4.30139 19.4465ZM8.20664 20.7889C8.93888 21.033 9.06091 21.8873 9.42703 22.4975C9.18295 21.6432 8.69479 21.155 9.6711 20.7889C10.2813 20.5449 10.8915 20.6669 11.5017 20.6669C12.9661 20.6669 14.1865 20.4228 14.9188 22.1314C14.6747 21.6432 14.4306 20.911 14.7967 20.5448C15.0408 20.1787 15.651 20.3008 15.8951 20.5448C16.1391 20.6669 16.3832 20.911 16.6273 21.2771C16.5053 20.6669 16.3832 20.0567 16.8714 19.5685C17.2375 19.2024 18.0918 18.5922 18.5799 18.8363C18.702 18.8363 18.824 18.8363 18.946 19.0804C19.1901 19.9347 19.3121 21.3991 18.702 22.1314C18.4579 22.4975 17.9697 22.2534 17.6036 22.0093C17.9697 22.9856 17.9697 24.206 16.7493 24.4501C16.0171 24.5721 15.4069 24.206 14.7967 23.4738C14.9188 23.8399 14.9188 24.206 14.9188 24.4501C14.9188 25.0603 14.0645 25.0603 13.6984 25.0603C12.8441 25.0603 11.5017 25.1823 10.7694 24.5721C10.2813 24.206 9.91517 23.7179 9.54906 23.2297C9.6711 24.084 9.0609 23.9619 8.57274 23.5958C8.08459 23.3517 7.71847 22.9856 7.35236 22.6195C6.74216 22.0093 4.78956 19.5685 8.20664 20.7889Z" fill="#A7B4B5"/>
<path d="M0.152207 15.7852C0.640361 17.3717 2.10483 18.4701 3.56929 19.2023C4.17949 19.9346 4.78967 20.6668 5.5219 21.399C6.01005 22.0092 6.37619 22.6194 6.98638 23.2296C7.84065 24.0839 8.69492 24.9381 9.67123 25.7924C11.6238 27.3789 13.8205 28.7213 16.1393 29.8197C19.3123 31.1621 23.4616 32.2605 26.3905 29.8197C29.0754 27.623 30.0517 23.8398 30.2958 20.5448C30.2958 19.3244 30.2958 18.104 30.0517 16.8836C29.6856 14.4428 28.5872 12.2461 27.0007 10.4155C24.682 7.48662 21.3869 5.65604 17.6037 6.51031C11.8679 7.85273 7.23046 11.758 2.10483 14.3208C1.73872 14.0767 1.37259 13.9547 1.00647 14.0767C0.152203 14.3208 -0.0918704 15.175 0.152207 15.7852ZM4.30151 19.4464C4.54559 19.5684 4.78968 19.5684 5.03375 19.6905C6.49822 20.0566 8.20675 20.1786 9.79325 20.3007C11.1357 20.4227 12.6002 20.4227 13.9426 20.1786C16.3834 19.6905 18.58 18.5921 20.0445 16.6395C20.2886 18.3481 20.2886 20.1786 19.6784 21.7651C18.9462 23.7178 17.4817 24.8161 15.285 25.0602C13.0883 25.3043 10.7696 24.8161 8.81696 23.5957C7.47453 22.7414 6.25415 21.5211 5.1558 20.4227C5.03376 20.3007 4.91172 20.0566 4.78968 19.9346C4.78968 19.9346 4.78967 19.9346 4.66763 19.9346C4.54559 19.6905 4.42355 19.5684 4.30151 19.4464ZM0.518327 15.2971C0.518327 14.5649 1.25055 14.0767 1.86074 14.5649C2.22686 14.8089 2.59298 15.1751 2.83705 15.6632C3.32521 16.5175 2.9591 15.6632 2.9591 15.5412C2.83706 15.1751 2.59298 14.8089 2.34891 14.5649C7.35249 12.2461 11.5018 8.46293 16.8715 6.99846C18.0919 6.63235 19.4343 6.38827 20.6547 6.51031C21.7531 6.75438 22.7294 7.1205 23.5836 7.73069C24.4379 8.34089 25.2922 9.07312 26.0244 9.80536C28.4652 12.3682 29.9296 15.6632 29.9296 19.2023C29.9296 22.7415 29.0754 27.501 25.9024 29.5756C22.3632 32.0164 17.4817 29.9417 14.0646 28.1112C12.234 27.1348 10.5255 25.9145 8.93899 24.45C8.45083 23.9618 7.96268 23.4737 7.47453 22.9855C8.08472 23.4737 8.69491 23.8398 9.30511 24.2059C11.3798 25.3043 13.6985 25.6704 15.8952 25.1822C17.8478 24.8161 19.3123 23.5957 19.9225 21.7651C20.5327 20.0566 20.5327 18.226 20.1665 16.3954C20.6547 16.2734 21.0208 16.1514 21.3869 15.7852C22.3632 14.931 22.1192 13.4665 21.0208 12.8563C20.8988 12.8563 21.1429 13.1004 21.2649 13.1004C21.9971 13.8326 21.8751 15.5412 20.5327 15.9073C19.5563 16.2734 18.58 15.7852 17.7258 15.4191C17.6037 15.4191 17.4817 15.5412 17.6037 15.6632C18.2139 16.1514 18.9462 16.2734 19.5563 16.2734C18.2139 17.8599 16.3834 18.9582 14.3087 19.3244C12.112 19.8125 9.79327 19.6905 7.59657 19.3244C5.39988 19.0803 3.44725 18.7142 1.73871 17.1277C1.25056 17.0056 0.518327 16.1514 0.518327 15.2971Z" fill="#542A0D"/>
<path opacity="0.3" d="M45.9166 20.3008C45.7946 20.1787 45.6725 20.0567 45.6725 19.9347C45.4285 18.9583 42.9877 17.86 44.2081 16.6396C44.6962 16.2735 45.6725 16.2735 46.1607 16.5176C46.6488 16.7617 46.7709 17.2498 47.259 17.4939C47.7472 17.86 48.3574 17.6159 48.8455 17.86C49.2116 17.982 49.5778 18.5922 49.3337 18.9584C49.3337 19.0804 49.2117 19.2024 49.0896 19.2024C49.4557 19.4465 49.8218 19.5685 50.188 19.8126C50.5541 20.0567 50.31 20.6669 49.8218 20.6669C49.3337 20.5448 48.8455 20.1787 48.3574 20.1787C48.3574 20.1787 47.6251 21.8873 47.5031 22.0093C46.5268 23.2297 45.5505 21.2771 45.9166 20.3008Z" fill="#FFF27A"/>
<path d="M24.3157 6.02226C24.5597 6.1443 24.6818 6.51042 24.5597 6.7545C24.3157 6.99857 23.9495 6.99857 23.7055 6.7545C23.3393 6.26634 23.8275 5.77818 24.3157 6.02226Z" fill="#C6AF05"/>
<path d="M28.8311 15.053C28.9532 15.053 28.9532 15.053 28.9532 15.053C29.0752 15.053 29.1973 15.053 29.3193 15.053C30.1736 14.8089 30.7838 14.1987 31.1499 13.2224C31.638 12.002 31.8821 10.6596 32.2482 9.31719C32.8584 7.12049 33.8347 4.67971 36.3975 4.67971C36.3975 4.55768 36.5196 4.55768 36.5196 4.55768C38.5942 5.65603 39.8146 8.21883 40.5469 10.2935C41.2791 12.3681 41.6452 14.6869 40.0587 16.5175C37.2518 19.9346 30.0515 20.0566 28.465 15.2971C28.465 15.053 28.7091 14.931 28.8311 15.053Z" fill="#FFA233"/>
<path d="M28.8311 15.0532C28.9532 15.0532 28.9532 15.0532 28.9532 15.0532C29.0752 15.0532 29.1973 15.0532 29.3193 15.0532C30.1736 14.8091 30.7838 14.1989 31.1499 13.2226C31.638 12.0023 31.8821 10.6598 32.2482 9.31741C32.2482 9.07333 32.3703 8.95129 32.3703 8.70721C32.2482 9.68352 32.3703 10.5378 32.6144 11.5141C32.8584 12.9786 32.1262 13.5888 31.516 14.8091C31.2719 15.2973 31.638 15.9075 32.2482 16.0295C32.4923 16.0295 32.7364 16.1516 32.9805 16.1516C32.9805 16.5177 33.1025 16.8838 33.4686 17.0058C36.2755 18.2262 40.3028 16.3956 41.1571 13.3447C41.1571 13.2226 41.1571 13.1006 41.1571 13.1006C41.1571 14.321 40.913 15.4193 40.0587 16.5177C37.2518 19.9348 30.0515 20.0568 28.465 15.2973C28.465 15.0532 28.7091 14.9312 28.8311 15.0532Z" fill="#DD9007"/>
<path d="M28.465 15.1751C30.0515 19.9346 37.2518 19.8126 40.0587 16.3955C41.6452 14.5649 41.2791 12.2462 40.5469 10.1715C39.8146 8.09689 38.5942 5.41204 36.5196 4.43573C36.3975 4.43573 36.3975 4.43573 36.3975 4.55777C33.8347 4.67981 32.7364 6.99854 32.2482 9.19524C31.8821 10.5377 31.638 11.8801 31.1499 13.1005C30.7838 14.0768 30.1736 14.687 29.3193 14.9311C29.1973 14.9311 29.0752 14.9311 28.9532 14.9311H28.8311C28.7091 14.9311 28.465 15.0531 28.465 15.1751ZM28.9532 15.4192C29.5634 15.4192 30.0515 15.1751 30.4177 14.9311C31.394 14.4429 32.1262 13.3446 32.7364 12.2462C32.7364 12.1242 32.6144 12.1242 32.6144 12.1242C32.2482 12.7344 31.8821 13.4666 31.394 13.9547C31.2719 14.0768 31.1499 14.1988 31.0278 14.3209C31.7601 13.2225 32.0042 11.758 32.2482 10.7817C32.8584 8.34096 33.3466 4.92388 36.5196 4.80184C38.3502 6.02223 39.4485 8.34096 40.1807 10.2936C40.913 12.2462 41.4011 14.4429 39.9367 16.2735C37.2518 19.3244 30.6617 19.6906 28.9532 15.4192Z" fill="#542A0D"/>
<path d="M41.7672 17.6158C42.1333 17.4937 42.4994 17.4937 42.8655 17.6158C42.8655 17.6158 42.9875 17.4937 43.1096 17.4937C43.8418 17.4937 44.6961 17.6158 45.1842 18.2259C45.5504 18.8361 44.9402 19.3243 44.452 19.6904C43.8418 20.0565 43.2316 20.0565 42.6214 19.9345C41.8892 19.6904 41.401 18.9582 41.401 18.2259C41.279 17.8598 41.4011 17.6158 41.7672 17.6158Z" fill="#FFF27A"/>
<path d="M46.4048 18.8363C46.5268 18.8363 46.5268 18.8363 46.6489 18.8363C46.7709 18.8363 46.8929 18.7142 47.015 18.8363C47.015 18.8363 47.137 18.8363 47.137 18.9583C47.259 19.0804 47.259 19.0804 47.3811 19.3244C47.3811 19.5685 47.259 19.8126 47.137 19.8126C46.8929 19.9346 46.5268 19.8126 46.2827 19.5685C46.1607 19.2024 46.1607 18.8363 46.4048 18.8363Z" fill="#FFF27A"/>
<path d="M52.9947 20.0566C53.1167 20.0566 53.2388 20.0566 53.3608 20.1787C53.3608 20.1787 53.3608 20.1787 53.3608 20.3007C53.3608 20.3007 53.3608 20.3007 53.4828 20.3007C53.6049 20.3007 53.7269 20.3007 53.7269 20.4228C53.849 20.5448 53.971 20.6668 53.849 20.7889C53.849 20.9109 53.7269 21.033 53.6049 21.155C53.4829 21.277 53.3608 21.277 53.2388 21.155C52.9947 21.033 52.6286 20.9109 52.5065 20.5448C52.6286 20.4228 52.6286 20.0566 52.9947 20.0566Z" fill="#FFF27A"/>
<path d="M50.7981 19.6904C51.2863 19.9344 50.7981 20.5446 50.554 20.3006L50.432 20.1785C50.1879 19.8124 50.432 19.4463 50.7981 19.6904Z" fill="#FFF27A"/>
<path d="M26.7564 5.53396C27.1225 5.41192 27.4887 5.41192 27.8548 5.656C28.465 5.656 29.0752 5.77803 29.6853 6.26619C30.0515 6.51027 29.9294 7.12045 29.4413 7.24249C28.465 7.36453 27.6107 7.12046 26.8785 6.51026C26.7564 6.51026 26.7564 6.38823 26.6344 6.38823C26.3903 6.02211 26.5124 5.656 26.7564 5.53396Z" fill="#FFF27A"/>
<path d="M24.9259 6.99829C24.9259 6.75421 25.0479 6.51013 25.4141 6.51013C25.5361 6.51013 25.6581 6.51013 25.6581 6.63217C25.7802 6.75421 25.9022 6.99829 25.7802 7.12033C25.6581 7.3644 25.4141 7.36441 25.292 7.36441C25.0479 7.36441 24.9259 7.12033 24.9259 6.99829Z" fill="#FFF27A"/>
<path opacity="0.8" d="M29.4412 15.1751C29.5632 15.1751 29.5632 15.1751 29.6853 15.1751H29.8073C29.8073 15.0531 29.8073 14.9311 29.9294 15.0531C30.0514 15.0531 30.2955 15.0531 30.4175 15.1751C32.3701 14.3209 32.4922 11.7581 32.9803 9.92748C33.4685 8.21894 34.3228 5.77817 36.3974 5.65613C36.5194 5.65613 36.5194 5.77816 36.3974 5.77816C34.0787 6.02224 33.3464 9.19525 32.9803 11.0258C32.7362 12.3683 32.2481 14.687 30.7836 15.1751C31.1498 15.1751 31.3938 15.1751 31.7599 15.0531C32.4922 14.809 32.9803 14.3209 33.3464 13.7107C33.9566 12.8564 34.3228 11.7581 34.6889 10.7817C35.4211 9.07321 36.3974 7.73078 38.4721 7.73078C38.5941 7.73078 38.5941 7.85282 38.4721 7.85282C37.2517 7.97486 36.3974 8.34098 35.6652 9.31729C35.055 10.1716 34.8109 11.1479 34.4448 12.0021C34.0787 12.9784 33.5905 13.8327 32.8583 14.5649C32.4922 14.9311 32.1261 15.1751 31.6379 15.2972C32.1261 15.2972 32.6142 15.2972 33.1024 15.1751C34.2007 14.809 34.6889 13.8327 35.2991 12.8564C36.1533 11.3919 37.0076 10.0495 38.7162 9.92748C38.8382 9.92748 38.8382 10.0495 38.7162 10.0495C36.5195 10.2936 35.9093 12.3682 34.8109 13.9548C33.8346 15.4192 32.1261 15.7853 30.5396 15.2972C30.2955 15.2972 30.1734 15.2972 29.9294 15.2972C31.1497 15.9074 32.6142 16.0294 34.0787 15.6633C35.5431 15.1751 36.3974 13.8327 37.7398 13.1005C37.8619 13.1005 37.8619 13.2225 37.8619 13.2225C37.1296 13.7107 36.5194 14.4429 35.7872 14.9311C35.177 15.4192 34.4448 15.7853 33.7126 16.0294C32.3701 16.3955 30.9057 16.1515 29.6853 15.4192C30.6616 16.1515 31.7599 16.7616 32.9803 17.0057C34.9329 17.4939 36.6415 16.3955 38.228 15.2972C38.35 15.2972 38.35 15.2972 38.35 15.4192C36.8856 16.6396 35.2991 17.6159 33.2244 17.3718C31.6379 17.1278 30.1735 16.2735 28.9531 15.1751C28.9531 15.2972 29.1971 15.2972 29.4412 15.1751Z" fill="#D8822B"/>
<path d="M66.2971 16.2735C70.9345 13.2225 77.7687 15.4192 81.6739 18.5922C81.796 18.7143 81.6739 18.9584 81.5519 18.8363C77.2805 16.0294 71.3007 14.0768 66.4191 16.5176C66.2971 16.6396 66.053 16.2735 66.2971 16.2735Z" fill="#FFEFCC"/>
<path d="M69.836 17.1278C71.0564 16.3955 72.6429 16.6396 73.9853 16.7617C75.8159 17.0057 77.5244 17.3719 79.233 18.3482C79.355 18.4702 79.2329 18.7143 79.1109 18.5922C77.6464 17.982 76.182 17.6159 74.7175 17.4939C73.2531 17.3719 71.5445 17.1278 70.2021 17.738C69.836 17.86 69.4699 17.2498 69.836 17.1278Z" fill="#FFEFCC"/>
<path d="M68.86 17.4937C69.2261 17.4937 69.3481 18.1039 68.982 18.1039C68.4938 18.1039 68.3718 17.4937 68.86 17.4937Z" fill="#FFEFCC"/>
<path d="M70.8124 19.0804C71.6667 18.3481 72.765 18.5922 73.7414 18.4702C75.3279 18.3481 76.6703 18.5922 78.1347 19.0804C78.3788 19.0804 78.2568 19.4465 78.0127 19.4465C76.7923 19.2024 75.5719 18.9583 74.2295 18.9583C73.2532 18.9583 71.9108 19.0804 71.1785 19.6906C70.8124 19.9347 70.4463 19.3245 70.8124 19.0804Z" fill="#FFEFCC"/>
<path d="M69.9582 19.5685C70.2023 19.5685 70.3243 19.9346 69.9582 19.9346C69.8361 20.0566 69.7141 19.6905 69.9582 19.5685Z" fill="#FFEFCC"/>
<path d="M70.2022 22.4974C70.9344 21.3991 72.3989 21.033 73.6193 20.7889C73.7413 20.7889 73.8634 21.033 73.7413 21.033C72.521 21.3991 71.4226 21.8872 70.4463 22.7415C70.3243 22.7415 70.2022 22.6195 70.2022 22.4974Z" fill="#FFEFCC"/>
<path d="M69.5921 23.1075C69.8361 23.1075 69.8361 23.4737 69.5921 23.4737C69.348 23.4737 69.348 23.1075 69.5921 23.1075Z" fill="#FFEFCC"/>
<path d="M69.348 25.4267C71.0566 24.6944 72.1549 23.23 73.7414 22.2537C73.8635 22.1316 74.1075 22.3757 73.9855 22.4977C72.521 23.5961 71.4227 25.4267 69.4701 25.7928C69.348 25.7928 69.226 25.5487 69.348 25.4267Z" fill="#FFEFCC"/>
<path d="M68.8599 25.6705C69.104 25.6705 69.2261 26.0366 68.8599 26.0366C68.6159 26.1586 68.6159 25.7925 68.8599 25.6705Z" fill="#FFEFCC"/>
<path d="M71.1786 26.5246C71.7888 26.4025 72.0329 26.1585 72.521 25.7924C72.6431 25.6703 72.8871 25.9144 72.7651 26.0364C72.399 26.5246 71.9108 26.8907 71.3006 26.8907C70.9345 26.8907 70.9345 26.5246 71.1786 26.5246Z" fill="#FFEFCC"/>
<path d="M65.1986 32.0166C65.8088 33.6031 65.8088 35.3116 66.9071 36.7761C67.0292 36.8981 66.7851 37.1422 66.6631 37.0201C65.1986 36.0438 65.3206 33.6031 64.9545 32.1386C64.8325 32.0166 65.0766 31.8945 65.1986 32.0166Z" fill="#FFEFCC"/>
<path d="M64.5886 35.9216C64.8326 36.7758 65.1987 37.5081 65.6869 38.3623C65.8089 38.4844 65.5649 38.7284 65.4428 38.6064C64.8326 37.8742 64.4665 37.0199 64.3445 36.0436C64.3445 35.7995 64.5886 35.6775 64.5886 35.9216Z" fill="#FFEFCC"/>
<path d="M63.368 38.3626C63.368 38.1185 63.7342 38.1185 63.7342 38.3626C63.7342 38.4846 63.7342 38.6066 63.7342 38.6066C63.7342 38.8507 63.368 38.9728 63.368 38.6066C63.368 38.4846 63.368 38.3626 63.368 38.3626Z" fill="#FFEFCC"/>
<path d="M60.5612 36.2878C60.5612 36.0437 60.9273 36.0437 60.9273 36.2878C61.0493 38.3625 62.7578 39.7049 64.1003 41.1693C64.2223 41.2914 63.9782 41.5355 63.8562 41.4134C62.1477 40.3151 60.6832 38.2404 60.5612 36.2878Z" fill="#FFEFCC"/>
<path d="M60.195 34.8234C60.4391 34.8234 60.5611 35.1895 60.3171 35.3115C59.9509 35.3115 59.9509 34.8234 60.195 34.8234Z" fill="#FFEFCC"/>
<path d="M53.4828 13.1005C53.7269 13.1005 53.7269 13.4666 53.3608 13.4666C53.2388 13.4666 53.1167 13.3446 53.1167 13.2225C53.1167 13.1005 53.3608 12.9784 53.4828 13.1005Z" fill="#FFEFCC"/>
<path d="M51.4084 11.2699C51.5305 11.1478 51.6525 11.1478 51.7746 11.1478C51.6525 11.1478 51.8966 11.1478 51.8966 11.1478C52.0186 11.1478 52.0186 11.2699 52.1407 11.2699C52.2627 11.3919 52.3848 11.636 52.2627 11.8801C52.1407 12.0021 51.8966 12.1241 51.6525 12.0021C51.6525 12.0021 51.4084 11.8801 51.4084 11.758C51.4084 11.5139 51.4084 11.3919 51.4084 11.2699Z" fill="#FFEFCC"/>
<path d="M49.4558 9.1954C49.8219 9.07336 49.9439 9.68354 49.5778 9.68354C49.5778 9.68354 49.5778 9.68354 49.4558 9.68354C49.2117 9.68354 49.2117 9.1954 49.4558 9.1954Z" fill="#FFEFCC"/>
<path d="M47.8691 7.48682C48.2353 7.48682 48.2353 7.97497 47.9912 7.97497C47.6251 7.97497 47.6251 7.48682 47.8691 7.48682Z" fill="#FFEFCC"/>
<path d="M37.984 2.72707C38.228 2.48299 38.5942 2.36096 38.9603 2.483C39.0823 2.483 39.2043 2.60503 39.2043 2.72707C39.3264 2.72707 39.3264 2.84911 39.4484 2.84911C39.6925 3.09318 39.4484 3.33726 39.2043 3.4593C38.8382 3.58134 38.3501 3.58134 37.984 3.33726C37.7399 3.21522 37.7399 2.84911 37.984 2.72707Z" fill="#FFEFCC"/>
<path d="M40.1808 3.45941C40.5469 3.45941 40.6689 4.0696 40.3028 4.0696C39.9367 4.0696 39.8147 3.45941 40.1808 3.45941Z" fill="#FFEFCC"/>
<path d="M42.3774 5.04595C42.3774 4.92391 42.6215 4.80187 42.7435 5.04595C42.7435 5.04595 42.7435 5.04595 42.7435 5.16798C42.8656 5.41206 42.3774 5.41206 42.3774 5.04595C42.3774 5.16799 42.3774 5.16799 42.3774 5.04595Z" fill="#FFEFCC"/>
<path d="M35.6653 1.99513C35.7873 1.87309 35.9093 1.8731 36.1534 1.8731C36.1534 1.8731 36.2755 1.87309 36.2755 1.75105C36.5195 1.62901 36.8856 1.75106 37.0077 1.8731C37.1297 1.99513 37.1297 2.2392 37.1297 2.36124C36.7636 2.72736 36.2754 2.72736 35.7873 2.72736C35.6652 2.72736 35.5432 2.60533 35.5432 2.48329C35.5432 2.23921 35.5432 2.11717 35.6653 1.99513Z" fill="#FFEFCC"/>
<path d="M33.5905 1.50677C33.9566 1.50677 33.9566 1.99493 33.7126 1.99493C33.3464 1.99493 33.3464 1.50677 33.5905 1.50677Z" fill="#FFEFCC"/>
<path d="M31.2718 1.8728C31.5159 1.8728 31.638 2.23891 31.3939 2.36095C31.1498 2.36095 31.0278 1.8728 31.2718 1.8728Z" fill="#FFEFCC"/>
<path d="M33.1025 12.6126C33.5907 11.6363 33.7127 10.66 34.0788 9.56162C34.445 8.46327 35.1772 7.60901 36.0315 6.99881C36.3976 6.75474 36.8857 7.36493 36.5196 7.60901C35.5433 8.2192 34.689 9.1955 34.3229 10.2939C34.0788 11.1481 33.9568 12.1244 33.3466 12.7346C33.2246 12.8567 32.9805 12.7346 33.1025 12.6126Z" fill="#FFEFCC"/>
<path d="M37.3739 6.7546C37.4959 6.7546 37.4959 6.87664 37.6179 6.87664C37.74 6.99868 37.6179 7.3648 37.4959 7.3648C37.3739 7.48684 37.1298 7.36479 37.1298 7.12071C36.7637 6.99868 37.0077 6.63257 37.3739 6.7546Z" fill="#FFEFCC"/>
<path d="M35.4213 11.2699C35.5433 10.2936 36.5196 9.19523 37.3739 8.95115C37.74 8.82911 37.9841 9.31727 37.618 9.56134C36.7637 9.92746 36.1535 10.6597 35.7874 11.514C35.6654 11.636 35.2993 11.514 35.4213 11.2699Z" fill="#FFEFCC"/>
<path d="M36.6417 11.3916C36.7637 11.2696 36.8857 11.2696 37.0078 11.1475C37.1298 11.0255 37.2519 11.0255 37.3739 11.0255C37.618 11.0255 37.74 11.2696 37.618 11.3916C37.4959 11.6357 37.1298 11.6357 37.0078 11.7577C36.6417 11.8798 36.5196 11.5137 36.6417 11.3916Z" fill="#FFEFCC"/>
<path d="M36.8857 12.368C36.8857 12.246 37.0077 12.246 37.0077 12.246H37.1298C37.3738 12.0019 37.74 12.49 37.4959 12.7341L37.3738 12.8562H37.2518H37.1298C37.0077 12.8562 36.8857 12.8562 36.8857 12.7341C36.8857 12.49 36.8857 12.368 36.8857 12.368Z" fill="#FFEFCC"/>
<path d="M37.7398 14.0768C37.9839 14.0768 38.1059 14.4429 37.7398 14.4429C37.4957 14.4429 37.4957 14.0768 37.7398 14.0768Z" fill="#FFEFCC"/>
<path d="M38.9604 15.4193C39.0824 15.1752 39.3265 14.9312 39.4485 14.6871C39.5706 14.565 39.6926 14.6871 39.6926 14.8091C39.5706 15.1752 39.4485 15.4193 39.2045 15.6634C39.0824 15.6634 38.9604 15.5414 38.9604 15.4193Z" fill="#FFEFCC"/>
<path opacity="0.5" d="M18.2137 13.4667C19.9222 11.27 21.6307 8.09701 19.5561 5.65624C17.7255 3.58158 14.1864 3.9477 12.1117 5.5342C10.1591 7.1207 8.32853 9.43944 8.57261 11.7582C8.69465 12.9786 9.30484 14.6871 10.4032 15.2973C12.7219 16.7618 16.7492 15.2973 18.2137 13.4667Z" fill="#DD9007"/>
<path opacity="0.5" d="M19.434 13.4664C20.5324 11.6358 21.7528 7.97469 19.6781 5.53392C17.8475 3.33722 14.0643 3.82537 11.7456 5.65595C9.5489 7.36449 7.71833 9.9273 7.84036 12.4901C7.9624 13.8325 8.69464 15.419 9.67094 16.2733C10.7693 17.2496 12.4778 17.3717 14.0643 17.1276C16.261 16.6394 18.3357 15.175 19.434 13.4664Z" fill="#DD9007"/>
<path d="M19.0681 4.92385C14.1865 0.896571 5.39974 9.43928 10.2813 13.4666C15.1628 17.3718 23.9496 8.82908 19.0681 4.92385C21.0207 6.51035 16.9934 3.21531 19.0681 4.92385Z" fill="#C5D3D6"/>
<path d="M10.6473 14.3208C3.81312 10.9037 13.4542 0.408419 19.0679 4.92385C23.8274 8.82909 16.2611 17.1277 10.6473 14.3208ZM10.2812 13.3445C15.2847 17.3718 24.1936 8.09685 18.9459 4.92385C13.9423 1.26269 5.52166 9.43927 10.2812 13.3445Z" fill="#54290B"/>
<path d="M12.1116 6.26612C10.159 8.21874 9.91491 10.9036 11.6234 12.3681C13.332 13.8325 16.383 13.3444 18.3356 11.3917C20.2882 9.43912 20.5323 6.75427 18.8237 5.28981C17.1152 3.94738 14.0642 4.43554 12.1116 6.26612Z" fill="#E2EAEC"/>
<path d="M15.4069 10.5375C13.4542 12.124 11.1355 12.4901 10.1592 11.1477C9.18288 9.92727 10.0372 7.48649 11.8677 5.89999C13.8204 4.31348 16.1391 3.94737 17.1154 5.28979C18.0917 6.51018 17.3595 8.95096 15.4069 10.5375Z" fill="#000445"/>
<path d="M15.2848 10.2936C13.5762 11.758 11.5016 12.0021 10.6473 10.9038C9.79304 9.8054 10.5253 7.73075 12.2338 6.26629C13.9423 4.80182 16.017 4.55775 16.8713 5.65609C17.6035 6.75444 16.9933 8.82909 15.2848 10.2936Z" fill="url(#paint2_linear_78_173738)"/>
<path d="M14.6745 9.56106C13.6982 10.4153 12.3558 10.5374 11.8677 9.92718C11.3795 9.19495 11.7456 7.97456 12.844 7.12029C13.8203 6.26602 15.1627 6.14398 15.6509 6.75418C16.017 7.36437 15.6508 8.58475 14.6745 9.56106Z" fill="black"/>
<path d="M11.7455 11.2698C12.1116 11.2698 12.4777 11.2698 12.7218 10.7817C12.8438 10.5376 12.7218 10.4156 12.5997 10.2935C12.2336 10.2935 11.8675 10.1715 11.6234 9.92741C11.3793 9.56129 11.1353 8.9511 11.6234 8.09683C11.9895 7.48664 12.2336 7.36459 11.8675 7.24255C11.5014 7.24255 11.0132 7.97479 10.7692 8.46294C10.403 9.19517 10.5251 10.0494 10.8912 10.5376C11.0132 11.0258 11.2573 11.2698 11.7455 11.2698C11.6234 11.2698 11.6234 11.2698 11.7455 11.2698Z" fill="url(#paint3_linear_78_173738)"/>
<path d="M17.2373 6.87632C17.4814 5.41185 16.3831 5.65593 15.4067 6.38816C14.5525 7.12039 14.0643 8.70689 14.7966 9.56116C15.5288 10.2934 16.8712 8.7069 17.2373 6.87632Z" fill="white"/>
<path opacity="0.6" d="M8.32871 21.8872C8.57279 22.0092 8.81686 22.0092 9.18297 22.1313C9.06094 21.8872 9.06095 21.6431 9.06095 21.399C9.06095 21.277 9.06095 20.9109 9.06095 21.0329C9.18299 21.277 9.42707 21.8872 9.42707 22.2533C11.1356 22.6194 12.9662 22.8635 14.7968 22.4974C14.6747 22.0092 14.5527 21.5211 14.5527 21.155C14.5527 21.0329 14.5527 20.9109 14.6747 21.0329C14.6747 21.5211 14.9188 22.0092 15.1629 22.4974C15.2849 22.4974 15.407 22.4974 15.407 22.3753C16.0171 22.2533 16.5053 22.0092 16.9935 21.7651C16.7494 21.399 16.3833 20.7888 16.2612 20.4227C16.2612 20.3007 16.3833 20.5448 16.3833 20.5448C16.5053 20.9109 16.8714 21.277 17.1155 21.6431C17.4816 21.399 17.9698 21.0329 18.2138 20.5448C18.9461 19.5685 19.6783 18.4701 19.8004 17.3718C19.8004 17.2497 19.9224 17.1277 19.9224 17.1277C19.6783 18.5921 19.0681 19.5685 18.3359 20.5448C17.9698 21.0329 17.6036 21.399 17.2375 21.6431C17.4816 22.0092 17.8477 22.2533 18.0918 22.6194C18.2138 22.7415 18.3359 22.9855 18.3359 22.9855C17.9698 22.7415 17.3596 22.1313 16.9935 21.7651C16.6273 22.0092 16.1392 22.2533 15.7731 22.3753C15.529 22.4974 15.2849 22.4974 15.0408 22.6194C15.1629 23.1076 15.407 23.5957 15.529 24.0839C15.529 24.2059 15.651 24.45 15.529 24.328C15.407 23.8398 14.9188 23.1076 14.7968 22.6194C13.0882 22.9855 11.1356 22.7415 9.42707 22.3753C9.54911 22.8635 9.79318 23.2296 10.0373 23.7178C10.0373 23.8398 10.1593 24.0839 10.0373 23.9618C9.79318 23.4737 9.30501 22.8635 9.18297 22.3753C8.81686 22.2533 8.5728 22.2533 8.20668 22.1313C8.08464 22.0092 8.20667 21.7651 8.32871 21.8872Z" fill="#6E7A7A"/>
<path opacity="0.6" d="M7.23032 21.399C7.35236 21.5211 7.47439 21.5211 7.71847 21.6431C7.84051 21.6431 7.71847 21.7651 7.71847 21.7651C7.47439 21.6431 7.23032 21.5211 7.23032 21.399C7.10828 21.399 7.10828 21.277 7.23032 21.399Z" fill="#6E7A7A"/>
<path opacity="0.6" d="M12.478 26.7688C14.5526 27.257 17.7256 27.0129 19.4342 25.5484C21.0207 24.206 21.6309 21.2771 21.6309 19.2024C21.6309 18.9583 21.7529 19.5685 21.7529 19.8126C21.997 22.2534 21.7529 24.8162 20.0444 26.5247C18.0918 28.4774 15.5289 28.3553 13.2102 27.257C12.9661 27.1349 12.1119 26.7688 12.478 26.7688Z" fill="#D68400"/>
<path d="M2.22669 28.7215C2.83688 30.43 5.27766 30.9182 6.86416 30.0639C6.9862 30.0639 7.10825 30.1859 6.98621 30.1859C5.39971 31.2843 2.59281 30.9182 1.98262 28.8435C1.73854 28.5994 2.10465 28.4774 2.22669 28.7215Z" fill="#FFEFCC"/>
<path d="M2.71487 28.4775C2.83691 28.7216 2.95894 28.7216 3.20302 28.8436C3.32506 28.9656 3.20301 29.0877 3.08098 29.0877C2.8369 28.9656 2.47079 28.8436 2.34875 28.5995C2.47079 28.4775 2.71487 28.3555 2.71487 28.4775Z" fill="#FFEFCC"/>
<path d="M4.30122 28.1113C4.5453 28.1113 4.5453 28.3554 4.42327 28.3554C4.30123 28.3554 4.17919 28.3554 4.17919 28.2333C4.05715 28.1113 4.30122 27.9892 4.30122 28.1113Z" fill="#FFEFCC"/>
<path d="M1.49436 29.5758C1.6164 29.4537 1.86047 29.5758 1.73843 29.6978C1.73843 29.6978 1.73843 29.6978 1.73843 29.8198C1.73843 29.9419 1.6164 29.9419 1.49436 29.8198C1.37232 29.9419 1.37232 29.6978 1.49436 29.5758Z" fill="#FFEFCC"/>
<path d="M19.5564 14.1989C19.5564 13.9548 19.6784 13.7108 19.9225 13.5887C20.1666 13.4667 20.4107 13.3446 20.7768 13.4667C20.7768 13.4667 20.8988 13.4667 20.8988 13.5887C21.1429 13.7108 21.2649 14.0769 21.1429 14.321C21.1429 14.565 21.0209 14.8091 20.7768 15.0532C20.5327 15.2973 20.1666 15.1752 19.8005 15.0532C19.6784 14.8091 19.4344 14.565 19.5564 14.1989Z" fill="#FFBC73"/>
<path d="M18.702 14.8088C19.0681 14.8088 19.0681 15.297 18.824 15.297C18.4579 15.297 18.4579 14.8088 18.702 14.8088Z" fill="#FFBC73"/>
<path d="M2.10465 15.2972C2.59281 16.6396 4.1793 17.2498 5.39969 17.616C6.98619 18.2261 9.18289 18.5923 10.8914 18.5923C11.1355 18.5923 11.2575 18.9584 10.8914 18.9584C8.93881 19.0804 6.86415 18.8363 5.03357 18.3482C3.69115 17.9821 1.86056 17.1278 1.25037 15.6633C1.25037 15.0531 1.86057 14.8091 2.10465 15.2972Z" fill="#FFBC73"/>
<defs>
<linearGradient id="paint0_linear_78_173738" x1="9.85058" y1="4.79816" x2="4.84633" y2="10.6467" gradientUnits="userSpaceOnUse">
<stop stop-color="#000269"/>
<stop offset="0.3893" stop-color="#0055BB"/>
<stop offset="1" stop-color="#4A9369"/>
</linearGradient>
<linearGradient id="paint1_linear_78_173738" x1="5.31493" y1="6.78954" x2="6.10658" y2="8.39954" gradientUnits="userSpaceOnUse">
<stop stop-color="#000269"/>
<stop offset="0.4069" stop-color="#6BCC94"/>
<stop offset="0.4802" stop-color="#68C793"/>
<stop offset="0.5652" stop-color="#61B990"/>
<stop offset="0.6562" stop-color="#54A28B"/>
<stop offset="0.7514" stop-color="#428184"/>
<stop offset="0.8499" stop-color="#2B577A"/>
<stop offset="0.9496" stop-color="#10246F"/>
<stop offset="1" stop-color="#000869"/>
</linearGradient>
<linearGradient id="paint2_linear_78_173738" x1="15.8155" y1="4.11333" x2="10.4977" y2="12.179" gradientUnits="userSpaceOnUse">
<stop stop-color="#000269"/>
<stop offset="0.3893" stop-color="#0055BB"/>
<stop offset="1" stop-color="#4A9369"/>
</linearGradient>
<linearGradient id="paint3_linear_78_173738" x1="10.801" y1="8.19539" x2="13.0828" y2="10.523" gradientUnits="userSpaceOnUse">
<stop stop-color="#000269"/>
<stop offset="0.1461" stop-color="#002569"/>
<stop offset="0.1538" stop-color="#062E6B"/>
<stop offset="0.1986" stop-color="#245E78"/>
<stop offset="0.2432" stop-color="#3E8582"/>
<stop offset="0.2869" stop-color="#52A48A"/>
<stop offset="0.3293" stop-color="#60BA8F"/>
<stop offset="0.37" stop-color="#68C893"/>
<stop offset="0.4069" stop-color="#6BCC94"/>
<stop offset="0.4802" stop-color="#68C793"/>
<stop offset="0.5652" stop-color="#61B990"/>
<stop offset="0.6562" stop-color="#54A28B"/>
<stop offset="0.7514" stop-color="#428184"/>
<stop offset="0.8499" stop-color="#2B577A"/>
<stop offset="0.9496" stop-color="#10246F"/>
<stop offset="1" stop-color="#000869"/>
</linearGradient>
</defs>
</svg>
