<svg width="93" height="68" viewBox="0 0 93 68" fill="none" xmlns="http://www.w3.org/2000/svg">
<path fill-rule="evenodd" clip-rule="evenodd" d="M74.5332 38.0585C46.6675 32.3246 30.3717 27.4486 25.6458 23.4163C30.6598 9.82505 40.5296 1.58881 55.4278 0.273301C56.6741 0.166059 56.847 1.98918 56.9767 4.17693C57.625 15.3945 62.1709 23.9954 69.4831 30.3871C72.8762 33.3613 74.4539 36.028 74.5332 38.0585Z" fill="url(#paint0_linear_78_171330)"/>
<path fill-rule="evenodd" clip-rule="evenodd" d="M71.5218 37.4294C48.5045 32.5963 33.88 28.3853 27.6556 24.7962C27.3747 24.3601 27.1874 23.9168 27.3314 23.402C28.2248 20.2348 37.3885 13.6072 40.7168 13.0495C49.6932 11.5481 51.6743 16.6886 56.5011 22.7157C59.2891 26.1975 74.8789 29.6793 71.5218 37.4294Z" fill="#277600"/>
<path opacity="0.7" fill-rule="evenodd" clip-rule="evenodd" d="M56.5232 1.08838C56.5881 1.25282 56.6457 1.43871 56.6961 1.64604C51.1417 3.76945 46.3798 6.40762 42.4103 9.56056C37.9797 13.0853 34.5433 17.2534 32.0867 22.0651C32.0147 22.208 31.8418 22.2652 31.6977 22.1938C31.5536 22.1223 31.496 21.9507 31.568 21.8077C34.0606 16.9174 37.5547 12.6849 42.0501 9.11013C46.07 5.90715 50.8968 3.23323 56.5232 1.08838ZM57.2292 7.02964C54.326 8.08061 51.5235 9.51052 48.822 11.3193C44.6147 14.1363 40.638 17.8683 36.9063 22.5155C36.8054 22.637 36.827 22.8229 36.9495 22.923C37.0792 23.0231 37.2593 23.0017 37.3601 22.8801C41.0559 18.2758 44.9894 14.5795 49.1462 11.7984C51.7757 10.0396 54.4916 8.64542 57.3013 7.61589C57.2797 7.42286 57.2508 7.22982 57.2292 7.02964ZM58.281 12.5205C56.4944 13.264 54.6645 14.2292 52.7987 15.4017C49.4127 17.5323 45.8899 20.3778 42.2374 23.9239C42.1221 24.0383 42.1221 24.2171 42.2374 24.3315C42.3526 24.4459 42.5327 24.4459 42.648 24.3315C46.2645 20.8139 49.7513 17.997 53.1084 15.8879C54.9239 14.744 56.6961 13.8145 58.4323 13.0853C58.3819 12.8994 58.3315 12.7063 58.281 12.5205ZM59.9596 17.425C58.6917 17.9827 57.4454 18.6261 56.2278 19.3554C53.3462 21.0713 50.6014 23.2519 47.9791 25.9044C47.8638 26.0188 47.871 26.2046 47.9791 26.3119C48.0943 26.4263 48.2817 26.4191 48.3897 26.3119C50.976 23.6952 53.6848 21.5432 56.516 19.8559C57.7119 19.1409 58.9366 18.5118 60.1829 17.9612C60.1181 17.7825 60.0388 17.6038 59.9596 17.425ZM61.8831 21.2643C61.0907 21.6432 60.2838 22.0579 59.4769 22.5083C57.1068 23.831 54.6862 25.4682 52.2079 27.4129C52.0855 27.513 52.0638 27.6917 52.1575 27.8204C52.2584 27.942 52.4385 27.9634 52.5681 27.8705C55.0176 25.9473 57.4165 24.3315 59.7651 23.0159C60.5792 22.5655 61.3788 22.1437 62.1785 21.7648C62.0848 21.6003 61.984 21.4359 61.8831 21.2643ZM64.2749 24.8462C64.3974 25.0035 64.5198 25.1608 64.6423 25.3181C64.0011 25.5755 63.3528 25.8615 62.6828 26.176C60.3702 27.2485 57.8776 28.6283 55.2049 30.3013C55.068 30.3871 54.8879 30.3442 54.8014 30.2084C54.715 30.0725 54.7582 29.8938 54.8951 29.808C57.5894 28.1207 60.1037 26.7337 62.4378 25.647C63.0574 25.361 63.6697 25.0893 64.2749 24.8462ZM66.6667 27.6846C66.8108 27.8347 66.9548 27.992 67.0989 28.1421C66.8468 28.2351 66.5946 28.328 66.3353 28.4353C64.419 29.2003 62.5099 30.1869 60.6152 31.4023C60.4783 31.4881 60.2982 31.4524 60.2117 31.3165C60.1253 31.1807 60.1613 31.002 60.2982 30.9162C62.2289 29.6793 64.1668 28.6712 66.1192 27.8991C66.3065 27.8204 66.4866 27.7489 66.6667 27.6846ZM69.8221 30.7017L69.7573 30.7231C67.9634 31.4023 65.9607 32.3389 63.749 33.5329C63.6049 33.6115 63.5545 33.7831 63.6337 33.9261C63.713 34.0691 63.8859 34.1191 64.03 34.0405C66.2056 32.868 68.1868 31.9386 69.9662 31.2665C70.0815 31.2236 70.1895 31.1807 70.2976 31.1449C70.1463 30.9948 69.9878 30.8518 69.8221 30.7017Z" fill="#EAF294"/>
<path fill-rule="evenodd" clip-rule="evenodd" d="M22.9729 24.8104C20.0624 27.2269 18.0021 27.4128 16.7918 25.368C13.5067 20.392 7.873 18.1828 7.93784 14.9083C8.00268 11.7339 14.1406 16.2166 18.4775 23.9739C17.4834 19.4125 13.5499 14.5436 15.106 9.61048C16.3523 5.64965 20.5163 11.8483 20.7252 22.9944C20.5884 14.5865 22.4542 8.05904 27.6124 6.67918C29.0316 6.30025 28.3616 9.396 26.7695 12.3988C24.3561 16.9602 23.2323 21.1713 22.9729 24.8104Z" fill="#6963B9"/>
<path fill-rule="evenodd" clip-rule="evenodd" d="M8.04642 14.3577C8.8749 12.3987 14.4509 16.7814 18.478 23.981C18.4348 23.7951 18.3916 23.6092 18.3412 23.4233C18.9535 24.5243 19.3209 25.3608 19.4434 25.9328C18.759 26.0758 18.334 25.8899 18.1683 25.3823C16.5834 21.9076 13.2118 18.2328 8.04642 14.3577Z" fill="#433B9F"/>
<path fill-rule="evenodd" clip-rule="evenodd" d="M15.9923 8.44533C17.6925 7.96631 20.5526 13.8003 20.7255 23.0018C20.7111 22.1295 20.7183 21.2787 20.7471 20.4494C20.8696 22.3798 20.8768 24.1671 20.7687 25.8115C20.4085 26.0689 20.1347 26.0332 19.9402 25.7043C18.8236 18.4547 17.5052 12.7064 15.9923 8.44533Z" fill="#433B9F"/>
<path fill-rule="evenodd" clip-rule="evenodd" d="M28.0735 6.71497C28.8371 7.13679 28.1455 9.80356 26.7695 12.406C24.4066 16.8673 23.2827 20.9997 22.9945 24.5888C22.7568 24.7103 22.5191 24.8247 22.2669 24.9391C21.705 18.9192 23.6429 12.8421 28.0735 6.71497Z" fill="#433B9F"/>
<path fill-rule="evenodd" clip-rule="evenodd" d="M74.3892 37.9226C74.1803 39.8601 74.5044 41.3472 75.3762 42.3839C80.8729 57.5265 84.3958 68.3509 87.4575 67.7575C90.2095 67.2213 88.2068 60.5865 86.3337 53.673C85.0369 48.8756 86.7515 44.6645 88.8623 39.8672C91.9673 32.8178 92.4284 25.3108 92.5148 18.2542C92.6085 10.8187 90.5913 8.5738 88.7183 12.6776C84.3381 22.2937 80.2894 31.0018 74.3892 37.9226Z" fill="url(#paint1_linear_78_171330)"/>
<path fill-rule="evenodd" clip-rule="evenodd" d="M74.3463 38.4588C74.2455 40.1318 74.5913 41.4402 75.3765 42.3768C77.4513 48.0964 79.2451 53.2011 80.8445 57.3121C84.0647 57.8412 83.0489 52.2002 82.6599 50.3985C79.6198 36.5428 86.2836 38.5303 86.6798 31.5238C87.1337 23.4091 81.5793 36.6929 74.3463 38.4588Z" fill="#277600"/>
<path opacity="0.7" fill-rule="evenodd" clip-rule="evenodd" d="M88.5597 62.6887C88.4732 62.1667 88.3652 61.6091 88.2355 61.0371C86.9676 58.9637 85.6636 56.8761 84.3236 54.7813C81.8526 50.9205 79.2519 47.0169 76.5215 43.0704C76.4279 42.9417 76.2478 42.9059 76.1181 42.9917C75.9884 43.0847 75.9524 43.2634 76.0389 43.3921C78.762 47.3243 81.3555 51.2208 83.8266 55.0887C85.4691 57.6411 87.0396 60.172 88.5597 62.6887ZM86.0959 47.8892C85.4331 47.5102 84.7415 47.117 84.0139 46.7023C81.4132 45.2152 78.5243 43.5565 75.3617 41.7263C75.2248 41.6476 75.1744 41.4689 75.2536 41.333C75.3329 41.1972 75.513 41.1471 75.6498 41.2258C78.9637 43.1419 81.8454 44.8006 84.2948 46.2019C84.9504 46.5808 85.5916 46.9383 86.2039 47.2886C86.1679 47.4888 86.1247 47.689 86.0959 47.8892ZM88.005 41.8621C88.0842 41.6691 88.1707 41.4689 88.2499 41.2758C87.7384 41.2901 87.2125 41.3044 86.6722 41.3187C84.0211 41.3759 81.0386 41.3688 77.7246 41.2973C77.5661 41.2973 77.4293 41.4188 77.4293 41.5833C77.4293 41.7406 77.5517 41.8764 77.7174 41.8764C81.0386 41.9479 84.0283 41.955 86.6866 41.8979C87.1333 41.8836 87.5727 41.8693 88.005 41.8621ZM91.6719 30.0368C91.7295 29.6865 91.78 29.3361 91.8304 28.9858C90.159 30.8947 88.43 32.6178 86.6578 34.1478C83.4736 36.8932 80.1236 39.0237 76.608 40.5466C76.4639 40.6109 76.3919 40.7825 76.4567 40.9255C76.5215 41.0685 76.6944 41.14 76.8385 41.0757C80.4046 39.5314 83.8049 37.3651 87.0396 34.5839C88.6245 33.2183 90.1734 31.7026 91.6719 30.0368ZM92.4571 15.7807C90.1518 21.3644 87.6304 26.0617 85.008 29.8366C81.759 34.5053 78.3514 37.7869 74.9871 39.6386C74.843 39.7172 74.6701 39.6672 74.5908 39.5242C74.5116 39.3812 74.562 39.2096 74.7061 39.131C77.9912 37.315 81.3411 34.0977 84.5326 29.5077C87.299 25.5326 89.9501 20.5279 92.3491 14.5152C92.3923 14.9013 92.4283 15.3302 92.4571 15.7807Z" fill="#EAF294"/>
<path fill-rule="evenodd" clip-rule="evenodd" d="M26.064 51.8644C23.8955 49.2977 22.3034 48.6972 21.2876 50.0484C20.6104 55.6322 20.7185 61.0015 24.0972 63.99C26.2873 65.9204 26.5755 60.88 23.2544 51.7214C27.123 62.9319 30.8403 68.5228 32.9512 66.4995C34.3632 65.1482 31.3734 59.8075 26.064 51.8644Z" fill="#6963B9"/>
<path fill-rule="evenodd" clip-rule="evenodd" d="M24.8969 64.4045C25.9703 64.4331 26.1144 61.6019 24.832 56.7188C23.2687 51.8571 22.5843 50.4343 22.7645 52.4362C23.6073 58.1772 24.3133 62.1667 24.8969 64.4045Z" fill="#433B9F"/>
<path fill-rule="evenodd" clip-rule="evenodd" d="M32.5617 66.7778C32.6986 66.7135 32.8211 66.6205 32.9436 66.5061C34.3051 65.2049 31.5892 60.2146 26.6543 52.7576C26.2941 52.7505 25.8979 52.7933 25.4728 52.8791C28.549 59.2136 30.912 63.8465 32.5617 66.7778Z" fill="#433B9F"/>
<path fill-rule="evenodd" clip-rule="evenodd" d="M74.2527 43.2205C45.6306 46.2662 30.6891 49.3333 29.4356 52.4219C32.0651 58.3774 34.5578 62.1095 37.1657 63.0175C38.2967 63.4107 41.0919 62.4741 45.3136 60.6438C52.7483 57.4265 60.889 56.3756 69.7573 55.7607C73.7412 55.489 75.146 50.6774 74.2527 43.2205Z" fill="url(#paint2_linear_78_171330)"/>
<path fill-rule="evenodd" clip-rule="evenodd" d="M74.2524 43.2205C62.0846 44.5145 52.395 45.8157 45.1692 47.1169C40.1551 48.9544 35.9191 50.5916 33.8875 51.135C33.4625 51.2494 30.552 52.4076 30.6456 52.5434C35.4796 59.9646 37.3527 58.8136 45.0756 56.6186C51.8835 54.6883 65.3769 53.8232 70.1893 50.3628C71.6373 49.3261 73.5248 47.9034 74.4902 46.209C74.4542 45.2652 74.3749 44.2714 74.2524 43.2205Z" fill="#277600"/>
<path opacity="0.7" fill-rule="evenodd" clip-rule="evenodd" d="M62.841 44.5217L62.4592 44.5717C62.3799 44.6575 62.3583 44.779 62.416 44.8934C64.6781 49.462 66.724 53.0439 68.5611 55.6535L68.698 55.8465L69.3824 55.7965C69.2743 55.6463 69.1591 55.489 69.0438 55.3246C67.2283 52.7365 65.1968 49.176 62.9491 44.6361C62.9203 44.586 62.8842 44.5503 62.841 44.5217ZM38.3829 48.5111C38.1812 48.5611 37.9866 48.604 37.7921 48.6541C40.1479 52.5863 42.5109 55.7822 44.8954 58.2559C45.515 58.8994 46.1418 59.4999 46.7613 60.0433C46.963 59.9646 47.172 59.886 47.3737 59.8073C46.6821 59.2211 45.9977 58.5705 45.3133 57.8555C43.0007 55.4461 40.6882 52.3361 38.3829 48.5111ZM41.776 62.088C38.7647 59.9074 35.9839 56.4113 33.448 51.5925C33.376 51.4495 33.4264 51.278 33.5705 51.1993C33.7146 51.1278 33.8875 51.1779 33.9667 51.3209C36.553 56.2254 39.3771 59.7287 42.4316 61.8378C42.2083 61.9236 41.985 62.0094 41.776 62.088ZM52.042 58.3274C50.0752 56.4399 48.1157 53.8661 46.1706 50.6202C46.0913 50.4844 46.1346 50.3056 46.2714 50.2198C46.4083 50.1412 46.5884 50.1841 46.6749 50.3199C48.6416 53.5944 50.6083 56.1682 52.5823 58.0343L52.712 58.1558C52.4814 58.213 52.2653 58.2702 52.042 58.3274ZM57.1137 57.2049C57.3442 57.162 57.5748 57.1191 57.8125 57.0834C55.572 54.8527 53.3027 51.6855 50.9902 47.5817C50.9109 47.4387 50.7308 47.3886 50.5939 47.4673C50.4498 47.5459 50.3994 47.7246 50.4787 47.8605C52.7192 51.8428 54.9308 54.9528 57.1137 57.2049ZM62.9707 56.3613C61.3642 54.3022 59.6712 51.6497 57.8917 48.411C57.8125 48.268 57.8701 48.0964 58.007 48.0178C58.1511 47.9391 58.324 47.9963 58.4032 48.1322C60.2547 51.4996 62.0053 54.2164 63.6551 56.2826C63.4245 56.3112 63.194 56.3398 62.9707 56.3613ZM73.2438 53.5015C73.0421 53.2155 72.8332 52.9152 72.6099 52.6078C71.3059 50.7847 69.685 48.6255 67.7542 46.1446C67.6534 46.0159 67.6822 45.8372 67.8047 45.7371C67.9343 45.637 68.1145 45.6656 68.2153 45.7871C70.1532 48.2752 71.7742 50.4415 73.0853 52.2717C73.2438 52.4934 73.3951 52.7007 73.5392 52.9152C73.4527 53.1225 73.3519 53.3227 73.2438 53.5015Z" fill="#EAF294"/>
<path fill-rule="evenodd" clip-rule="evenodd" d="M74.9513 44.7504C50.2194 58.599 27.1661 57.3407 10.9999 48.318C3.45715 44.107 -4.50345 37.4651 5.38787 30.4943C16.4463 22.7013 31.6831 19.0765 42.3524 20.4921C55.6369 22.2509 66.5872 29.9652 77.3358 38.7591C80.1599 41.0613 79.67 42.1123 74.9513 44.7504Z" fill="url(#paint3_linear_78_171330)"/>
<path fill-rule="evenodd" clip-rule="evenodd" d="M76.6802 38.2158L77.343 38.752C79.6195 40.618 79.7348 41.6547 77.2061 43.3849C62.6537 45.0078 49.4053 45.3868 37.468 44.536C37.4608 43.0703 37.0933 38.7878 36.3657 31.6954C51.2927 32.7178 65.5354 34.8126 76.6802 38.2158Z" fill="#F8E12B"/>
<path fill-rule="evenodd" clip-rule="evenodd" d="M78.4017 39.7385C79.2374 40.668 79.3166 41.4258 78.5386 42.2909C63.5251 43.2203 49.7147 42.6126 37.4676 42.0836C37.4676 41.5187 37.3164 40.2747 37.021 38.3444C36.9129 37.1647 36.7832 35.8349 36.632 34.3478C52.1497 35.0055 67.084 37.3577 78.4017 39.7385Z" fill="#433B9F"/>
<path fill-rule="evenodd" clip-rule="evenodd" d="M78.9354 40.5108C79.1371 40.9613 79.1227 41.3831 78.8778 41.8192C64.5199 41.5618 47.5181 40.7611 37.353 40.325C37.353 39.7602 37.3098 40.2678 37.0144 38.3374C36.9496 37.6153 36.8703 36.8431 36.7911 36.0067C49.492 36.3856 67.1926 38.7878 78.9354 40.5108Z" fill="#6963B9"/>
<path fill-rule="evenodd" clip-rule="evenodd" d="M29.925 54.5954C22.7641 53.6374 16.5469 51.4496 10.9997 48.3253C3.47856 44.0856 -4.50366 37.4723 5.38766 30.5015C11.187 26.4192 18.1318 23.4736 24.9686 21.8077C42.1361 17.611 45.133 56.6259 29.925 54.5954Z" fill="url(#paint4_linear_78_171330)"/>
<path fill-rule="evenodd" clip-rule="evenodd" d="M15.3948 50.5273C13.8819 49.8553 12.4195 49.1189 11.0075 48.3181C10.2006 47.8606 9.38655 47.3815 8.58688 46.8739C9.34332 46.0732 10.568 45.5513 11.9512 45.5513C14.2422 45.5513 16.1008 46.9812 16.1008 48.74C16.1008 49.4049 15.8415 50.0197 15.3948 50.5273Z" fill="#FFF3B1"/>
<path fill-rule="evenodd" clip-rule="evenodd" d="M31.0854 29.2075C33.3763 29.2075 35.235 30.6374 35.235 32.3961C35.235 34.1549 33.3763 35.5848 31.0854 35.5848C28.7945 35.5848 26.9358 34.1549 26.9358 32.3961C26.9358 30.6302 28.7945 29.2075 31.0854 29.2075Z" fill="#FFF3B1"/>
<path fill-rule="evenodd" clip-rule="evenodd" d="M16.2658 24.6247C18.989 23.5165 21.777 22.6085 24.5578 21.9078C26.9856 22.6228 28.7074 24.4316 28.7074 26.5479C28.7074 29.2933 25.8113 31.5239 22.2309 31.5239C18.6576 31.5239 15.7543 29.3004 15.7543 26.5479C15.7615 25.8687 15.9416 25.2109 16.2658 24.6247Z" fill="#FFF5C4"/>
<path fill-rule="evenodd" clip-rule="evenodd" d="M0.784331 37.3148C0.777127 35.1342 2.08108 32.8392 5.395 30.5013C6.18025 29.9508 6.97991 29.4217 7.80119 28.907C11.5834 29.1429 14.5515 31.5737 14.5515 34.5408C14.5515 37.6651 11.2592 40.1961 7.18883 40.1961C4.44405 40.1889 2.04506 39.0307 0.784331 37.3148Z" fill="#FFF5C4"/>
<path fill-rule="evenodd" clip-rule="evenodd" d="M25.8693 21.6216C41.7113 19.0621 44.6794 54.2091 31.3157 54.6596C36.373 52.2502 38.2605 46.9381 37.8066 38.3801C37.3167 29.336 32.9438 22.6655 25.8693 21.6216Z" fill="url(#paint5_linear_78_171330)"/>
<path d="M25.8617 50.5701C31.1773 50.5701 35.4865 47.5484 35.4865 43.821C35.4865 40.0935 31.1773 37.0718 25.8617 37.0718C20.5461 37.0718 16.2369 40.0935 16.2369 43.821C16.2369 47.5484 20.5461 50.5701 25.8617 50.5701Z" fill="#FFF3B1"/>
<path fill-rule="evenodd" clip-rule="evenodd" d="M50.9611 54.7241C50.9179 58.3203 47.6472 57.8413 39.9892 53.3228C42.0064 52.8295 42.8781 50.4344 40.7961 48.5255C44.8016 46.9454 48.5694 46.495 50.4568 47.4244C52.4596 48.4111 50.99 52.2861 50.9611 54.7241Z" fill="#FCCC00"/>
<path fill-rule="evenodd" clip-rule="evenodd" d="M43.8722 55.4531C42.7268 54.8883 41.4372 54.1805 39.9892 53.3226C42.0064 52.8293 42.8781 50.4342 40.7961 48.5253C42.4314 47.8818 44.0235 47.4242 45.4644 47.174C46.1992 48.3823 46.3217 50.377 45.2987 53.1439C44.9385 54.1233 44.4414 54.8883 43.8722 55.4531Z" fill="#F0A600"/>
<path fill-rule="evenodd" clip-rule="evenodd" d="M50.918 55.3315C50.8892 55.5317 50.846 55.7105 50.7955 55.8821C49.5997 55.5675 48.1012 55.1171 46.3434 54.5022C44.8521 53.9803 43.1807 53.3297 41.3581 52.5432C41.4878 52.4002 41.603 52.243 41.6967 52.0714C43.4689 52.8364 45.0971 53.4655 46.5451 53.9731C48.2741 54.5737 49.7437 55.017 50.918 55.3315ZM41.9777 51.1991C44.2686 51.4065 46.2569 51.6209 47.9139 51.8426C49.225 52.0142 50.3345 52.1858 51.235 52.3574C51.2638 52.1715 51.2926 51.9856 51.3215 51.7997C50.4137 51.6281 49.3043 51.4565 47.9931 51.2849C46.2929 51.0633 44.283 50.8417 41.9777 50.6343C41.9993 50.8274 41.9993 51.0204 41.9777 51.1991ZM41.6895 49.6763C41.603 49.5047 41.5022 49.3331 41.3725 49.1615C43.1519 48.8255 44.9458 48.6753 46.6604 48.661C48.3677 48.6396 49.9959 48.7468 51.4511 48.9184C51.4799 49.0972 51.5016 49.2902 51.5088 49.4904C50.0463 49.3117 48.3966 49.1973 46.6676 49.2187C45.0466 49.2402 43.3609 49.3689 41.6895 49.6763Z" fill="#CF8F00"/>
<path d="M23.528 40.5678C27.4908 40.5678 30.7034 37.3796 30.7034 33.4469C30.7034 29.5141 27.4908 26.3259 23.528 26.3259C19.5652 26.3259 16.3527 29.5141 16.3527 33.4469C16.3527 37.3796 19.5652 40.5678 23.528 40.5678Z" fill="url(#paint6_linear_78_171330)"/>
<path d="M23.3045 40.0529C26.5233 40.0529 29.1327 37.4153 29.1327 34.1617C29.1327 30.9081 26.5233 28.2705 23.3045 28.2705C20.0857 28.2705 17.4763 30.9081 17.4763 34.1617C17.4763 37.4153 20.0857 40.0529 23.3045 40.0529Z" fill="#277600"/>
<path fill-rule="evenodd" clip-rule="evenodd" d="M23.3044 39.6888C26.1572 39.6888 28.4914 37.3795 28.4914 34.5411C28.4914 31.7028 26.1644 29.3935 23.3044 29.3935C20.4515 29.3935 18.1174 31.7028 18.1174 34.5411C18.1174 37.3795 20.4443 39.6888 23.3044 39.6888Z" fill="white"/>
<path fill-rule="evenodd" clip-rule="evenodd" d="M23.9598 39.1167C26.3732 39.1167 28.3399 37.1649 28.3399 34.7698C28.3399 32.3747 26.3732 30.4229 23.9598 30.4229C21.5464 30.4229 19.5797 32.3747 19.5797 34.7698C19.5797 37.1649 21.5464 39.1167 23.9598 39.1167Z" fill="url(#paint7_linear_78_171330)"/>
<path fill-rule="evenodd" clip-rule="evenodd" d="M23.9602 30.4297C25.5307 30.4297 26.9067 31.252 27.6776 32.4817C27.2453 34.4263 25.4947 35.8777 23.4055 35.8777C21.835 35.8777 20.459 35.0555 19.6882 33.8258C20.1204 31.8811 21.871 30.4297 23.9602 30.4297Z" fill="url(#paint8_linear_78_171330)"/>
<path fill-rule="evenodd" clip-rule="evenodd" d="M7.5709 43.6423C7.34757 43.5779 7.2251 43.342 7.29714 43.1275C7.36198 42.9059 7.59971 42.7843 7.81584 42.8558C9.53043 43.3777 11.0937 43.5779 12.513 43.4635C13.9178 43.3491 15.1785 42.9202 16.2951 42.1766C16.4897 42.0479 16.7418 42.098 16.8715 42.291C17.0011 42.484 16.9507 42.7343 16.7562 42.863C15.5171 43.6852 14.1195 44.1642 12.5778 44.2857C11.0577 44.4144 9.38635 44.1999 7.5709 43.6423Z" fill="#449F00"/>
<path fill-rule="evenodd" clip-rule="evenodd" d="M6.95082 37.2289C7.36866 37.2289 7.70005 37.565 7.70005 37.9725C7.70005 38.3872 7.36146 38.716 6.95082 38.716C6.53298 38.716 6.20159 38.38 6.20159 37.9725C6.19439 37.5578 6.53298 37.2289 6.95082 37.2289Z" fill="#449F00"/>
<path fill-rule="evenodd" clip-rule="evenodd" d="M24.1547 37.4223C25.4298 37.4223 26.4672 36.3927 26.4672 35.1273C26.4672 33.8618 25.4298 32.8323 24.1547 32.8323C22.8795 32.8323 21.8421 33.8618 21.8421 35.1273C21.8421 36.3927 22.8795 37.4223 24.1547 37.4223Z" fill="#141414"/>
<path fill-rule="evenodd" clip-rule="evenodd" d="M22.5124 34.8913C23.2112 34.8913 23.7803 34.3264 23.7803 33.6329C23.7803 32.9394 23.2112 32.3746 22.5124 32.3746C21.8136 32.3746 21.2445 32.9394 21.2445 33.6329C21.2445 34.3264 21.8136 34.8913 22.5124 34.8913Z" fill="white"/>
<path fill-rule="evenodd" clip-rule="evenodd" d="M40.681 25.2679C41.6896 24.2455 44.2975 24.4743 45.5366 25.2393C46.8621 26.0543 46.6748 27.4342 42.5036 27.184C40.3784 27.0481 39.8669 26.0972 40.681 25.2679Z" fill="#FFF3B1"/>
<path fill-rule="evenodd" clip-rule="evenodd" d="M45.1046 28.8927C47.3667 28.3851 48.296 29.243 48.0799 29.7578C47.7773 30.4584 45.6881 30.8517 44.9173 29.6863C44.6579 29.3002 45.1046 28.8927 45.1046 28.8927Z" fill="#FFF3B1"/>
<path fill-rule="evenodd" clip-rule="evenodd" d="M49.4483 26.2832C51.2133 26.3261 51.7176 27.3556 51.5447 27.7846C51.4078 28.1349 49.2106 28.6139 48.0291 27.4271C47.1069 26.4905 48.9296 26.2689 49.4483 26.2832Z" fill="#FFF3B1"/>
<defs>
<linearGradient id="paint0_linear_78_171330" x1="51.1083" y1="26.0693" x2="57.6437" y2="-4.29353" gradientUnits="userSpaceOnUse">
<stop stop-color="#369100"/>
<stop offset="1" stop-color="#72C200"/>
</linearGradient>
<linearGradient id="paint1_linear_78_171330" x1="66.5384" y1="37.7813" x2="122.486" y2="41.4314" gradientUnits="userSpaceOnUse">
<stop stop-color="#369100"/>
<stop offset="1" stop-color="#72C200"/>
</linearGradient>
<linearGradient id="paint2_linear_78_171330" x1="52.1144" y1="48.8536" x2="56.8407" y2="67.2227" gradientUnits="userSpaceOnUse">
<stop stop-color="#369100"/>
<stop offset="1" stop-color="#72C200"/>
</linearGradient>
<linearGradient id="paint3_linear_78_171330" x1="40.0724" y1="63.6633" x2="39.7325" y2="5.44106" gradientUnits="userSpaceOnUse">
<stop stop-color="#52BB08"/>
<stop offset="1" stop-color="#F3DC2D"/>
</linearGradient>
<linearGradient id="paint4_linear_78_171330" x1="22.7505" y1="64.99" x2="18.423" y2="17.815" gradientUnits="userSpaceOnUse">
<stop stop-color="#93D555"/>
<stop offset="1" stop-color="#FCF1A5"/>
</linearGradient>
<linearGradient id="paint5_linear_78_171330" x1="-3.246" y1="37.1221" x2="44.3001" y2="38.5313" gradientUnits="userSpaceOnUse">
<stop stop-color="#CEEFA3"/>
<stop offset="1" stop-color="#FFF8D9"/>
</linearGradient>
<linearGradient id="paint6_linear_78_171330" x1="23.2853" y1="36.3069" x2="24.1652" y2="25.621" gradientUnits="userSpaceOnUse">
<stop stop-color="#369100"/>
<stop offset="1" stop-color="#72C200"/>
</linearGradient>
<linearGradient id="paint7_linear_78_171330" x1="23.5031" y1="39.6852" x2="24.1809" y2="32.285" gradientUnits="userSpaceOnUse">
<stop stop-color="#F8DF16"/>
<stop offset="1" stop-color="#6963B9"/>
</linearGradient>
<linearGradient id="paint8_linear_78_171330" x1="23.7017" y1="35.8378" x2="23.6517" y2="28.1181" gradientUnits="userSpaceOnUse">
<stop stop-color="#FFF3B1"/>
<stop offset="1" stop-color="#6963B9"/>
</linearGradient>
</defs>
</svg>
