<svg width="62" height="33" viewBox="0 0 62 33" fill="none" xmlns="http://www.w3.org/2000/svg">
<path fill-rule="evenodd" clip-rule="evenodd" d="M20.8833 11.9875C17.0203 8.51631 13.3684 6.00349 9.93146 4.44506C12.5041 0.909395 18.2498 -0.886626 22.7133 1.0302C28.662 3.58329 30.9668 3.9135 33.7098 3.42624C33.2066 4.73903 32.0786 5.52831 30.3135 5.64509C29.3437 5.70953 28.5686 6.26524 28.7025 7.46528C28.8364 8.64115 28.2602 9.10425 26.2882 8.97538C24.4987 8.85458 23.886 9.46265 24.4095 10.8399C24.7828 11.7983 23.5898 12.1849 20.8833 11.9875Z" fill="url(#paint0_linear_78_171373)"/>
<path fill-rule="evenodd" clip-rule="evenodd" d="M16.1923 0.547154C18.351 0.0558656 20.668 0.152513 22.7131 1.03039C28.6617 3.58348 30.9665 3.91369 33.7096 3.42643C33.2064 4.73921 32.0783 5.5285 30.3132 5.64528C29.3434 5.70971 28.5684 6.26543 28.7023 7.46546C28.8362 8.64133 28.26 9.10443 26.288 8.97557C24.4985 8.85476 23.8858 9.46283 24.4092 10.84C24.7136 11.6374 23.9548 12.0401 22.1572 12.0441C22.0923 11.8589 22.1531 11.7018 22.3438 11.6213C24.8556 10.5541 23.4151 9.95815 24.2226 8.81449C24.5797 8.30709 26.288 8.80241 27.4079 8.38763C28.1302 8.12185 28.4264 7.42116 28.5725 6.01978C28.6333 5.4238 30.7393 5.18218 31.7294 4.79559C32.5004 4.49357 32.2893 3.96604 31.9079 3.98215C29.7289 4.06268 29.6194 3.89355 27.8624 3.45059C25.5576 2.87071 24.2226 1.94451 21.9259 1.24382C19.966 0.635747 18.136 0.438426 16.1923 0.547154Z" fill="url(#paint1_linear_78_171373)"/>
<path opacity="0.6" fill-rule="evenodd" clip-rule="evenodd" d="M32.7116 4.81565C32.5452 4.94854 32.3626 5.06934 32.1638 5.17002C31.332 5.16196 30.3784 5.00894 29.2869 4.73108C27.3351 4.23979 24.9329 3.35386 22.0154 2.23437C20.3396 1.59006 18.5826 1.52562 16.9027 1.90416C15.0889 2.31491 13.3643 3.24513 11.9198 4.52571C11.8508 4.58611 11.7412 4.58208 11.6804 4.51362C11.6195 4.44517 11.6236 4.34047 11.6925 4.27603C13.1777 2.95519 14.955 1.99678 16.8256 1.57395C18.5704 1.17931 20.3923 1.24776 22.1371 1.91624C25.0344 3.03171 27.4244 3.90958 29.368 4.40087C30.6908 4.74316 31.7986 4.89619 32.7116 4.81565ZM29.0515 6.1687C28.7188 6.07608 28.3658 5.97138 27.9965 5.84655C26.5114 5.3472 24.726 4.59014 22.5957 3.68004C21.2201 3.09211 19.6985 2.88674 18.1971 3.06795C16.7241 3.24513 15.2715 3.7928 13.9892 4.719C13.9121 4.77538 13.8959 4.88008 13.9527 4.95256C14.0095 5.02907 14.115 5.04518 14.188 4.9888C15.4216 4.09885 16.8215 3.57132 18.2377 3.40218C19.6822 3.22903 21.143 3.42635 22.4618 3.99012C24.5961 4.90424 26.3897 5.66131 27.891 6.16468C28.2237 6.27743 28.5443 6.3781 28.8527 6.46267C28.9054 6.35394 28.9744 6.2573 29.0515 6.1687ZM28.6863 8.12178C27.3229 7.87613 25.8581 7.08685 23.533 5.83044L23.2206 5.66131C22.1777 5.10156 20.9523 4.83981 19.7269 4.92035C18.5623 4.99686 17.3977 5.38747 16.3955 6.12038C16.3184 6.17676 16.3021 6.28146 16.3589 6.35394C16.4157 6.43045 16.5212 6.44656 16.5943 6.39019C17.5438 5.69755 18.6434 5.3311 19.7471 5.25458C20.9077 5.17807 22.0722 5.42372 23.0583 5.95527L23.3707 6.12441C25.6877 7.37679 27.1687 8.17413 28.5565 8.44393C28.6133 8.34729 28.6579 8.24259 28.6863 8.12178ZM26.0853 8.95938C25.8703 8.95133 25.6755 8.95536 25.4969 8.97146C24.5718 8.3795 23.5655 7.93654 22.5632 7.6627C21.1471 7.27612 19.7309 7.22779 18.5339 7.59425C18.4446 7.62243 18.3513 7.57008 18.3229 7.48149C18.2945 7.3929 18.3472 7.30028 18.4365 7.27209C19.6944 6.88953 21.1795 6.93382 22.6565 7.33652C23.8373 7.6627 25.0222 8.2144 26.0853 8.95938ZM24.2391 9.88156C23.951 9.72853 23.6385 9.58759 23.3139 9.46275C22.4171 9.12851 21.3905 8.93119 20.3112 8.95536C20.2178 8.95536 20.1448 9.0359 20.1448 9.12852C20.1448 9.22114 20.2219 9.29362 20.3193 9.29362C21.3499 9.27348 22.336 9.46275 23.1922 9.78088C23.5736 9.92182 23.9307 10.091 24.2553 10.2762C24.2309 10.1312 24.2269 9.99834 24.2391 9.88156Z" fill="#FDF3B1"/>
<path fill-rule="evenodd" clip-rule="evenodd" d="M14.7561 24.3623C10.5523 22.8965 8.6249 22.8562 7.58612 24.0845C8.16638 29.8752 15.3851 33.125 20.8103 32.0739C19.4266 31.7598 18.3837 30.2417 18.2417 28.7114C18.0713 26.859 16.996 25.4013 14.7561 24.3623Z" fill="url(#paint2_linear_78_171373)"/>
<path fill-rule="evenodd" clip-rule="evenodd" d="M8.55627 27.0566C10.8083 30.9426 16.4039 32.9279 20.8147 32.0741C19.431 31.76 18.3882 30.2419 18.2461 28.7116C18.1325 27.4874 17.6213 26.4364 16.6433 25.5626C15.5843 25.7599 16.8827 25.9049 17.4305 27.6526C17.7227 28.5828 17.7308 30.9144 19.4878 31.7157C19.5203 31.7319 15.0446 32.3882 11.2668 29.5613C9.87098 28.5224 9.46521 28.3371 8.55627 27.0566Z" fill="url(#paint3_linear_78_171373)"/>
<path opacity="0.6" fill-rule="evenodd" clip-rule="evenodd" d="M13.0194 30.9707C13.409 31.1559 13.8107 31.325 14.2205 31.474C13.6971 31.1116 13.2061 30.713 12.7516 30.278C11.2787 28.8686 10.1953 27.0887 9.59472 24.9423C9.57037 24.8537 9.47704 24.8014 9.38777 24.8255C9.2985 24.8497 9.24575 24.9423 9.2701 25.0309C9.89093 27.2377 11.0027 29.07 12.5203 30.5197C12.6826 30.6727 12.849 30.8257 13.0194 30.9707ZM16.9595 32.1465C16.1642 31.6673 15.3851 31.0754 14.6588 30.3868C13.1939 28.9975 11.9279 27.1894 11.1367 24.9786C11.1042 24.89 11.1529 24.7933 11.2422 24.7651C11.3314 24.7329 11.4288 24.7812 11.4572 24.8698C12.2282 27.0283 13.4658 28.7961 14.8901 30.1492C15.803 31.019 16.7972 31.7157 17.7995 32.2432C17.5195 32.215 17.2395 32.1868 16.9595 32.1465ZM19.2197 31.0472C18.1484 30.5559 17.0975 29.8713 16.1236 29.0055C14.9509 27.9585 13.8919 26.6377 13.0722 25.0631C13.0276 24.9826 13.06 24.8779 13.1452 24.8376C13.2264 24.7933 13.3319 24.8255 13.3725 24.9101C14.1759 26.4444 15.2066 27.733 16.3508 28.7559C17.1299 29.4525 17.9658 30.0284 18.8179 30.4754C18.9356 30.6767 19.0695 30.87 19.2197 31.0472Z" fill="#FDF3B1"/>
<path fill-rule="evenodd" clip-rule="evenodd" d="M25.3956 15.3138C24.0931 15.5353 23.9754 15.8615 25.0386 16.2884C27.3961 16.7394 28.6986 18.3461 29.4209 20.9918C30.8939 26.4041 36.315 29.09 42.1135 26.3155C44.1221 25.353 45.8507 23.1624 48.192 21.7972C53.8931 18.479 58.945 17.5085 61.5135 20.9918C61.0509 16.1031 55.9504 14.3313 52.2173 15.1366C49.7664 15.6642 48.5693 15.781 47.4778 15.2252C45.0513 13.9849 43.9922 15.4669 42.4706 17.2669C40.4377 19.675 38.5427 18.1971 36.6599 15.938C34.1969 12.9782 29.92 13.2923 25.3956 15.3138Z" fill="url(#paint4_linear_78_171373)"/>
<path fill-rule="evenodd" clip-rule="evenodd" d="M35.1546 27.0926C37.22 27.6926 39.6303 27.5033 42.1136 26.3154C44.1222 25.3529 45.8508 23.1623 48.1921 21.7971C53.8932 18.4789 58.9451 17.5084 61.5136 20.9917C61.0511 16.103 55.9505 14.3312 52.2174 15.1365C49.7665 15.6641 48.5695 15.7809 47.4779 15.2251C45.0514 13.9848 43.9923 15.4668 42.4707 17.2668C40.4378 19.6749 38.5428 18.197 36.66 15.9379C36.6397 15.9137 36.6194 15.8896 36.5992 15.8654L36.591 15.9339C36.5667 16.1393 36.3922 16.3728 36.5221 16.4292C36.5992 16.4614 38.4414 19.7474 41.5821 18.644C44.0086 17.7903 43.8828 13.4372 47.9527 15.95C49.2958 16.7795 51.4464 15.3782 53.6822 15.3782C57.4478 15.3782 58.8152 16.6829 60.6493 18.7004C60.698 18.7568 61.753 20.7783 60.5479 19.6226C59.3062 18.4386 57.2814 18.2373 55.3946 18.5031C52.8544 18.8615 50.4441 20.0373 49.3607 20.5609C45.165 22.5824 43.0672 27.31 36.8873 27.2456C36.3719 27.2416 35.7389 27.149 35.1546 27.0926Z" fill="url(#paint5_linear_78_171373)"/>
<path opacity="0.6" fill-rule="evenodd" clip-rule="evenodd" d="M46.2524 23.1702C46.3863 23.0615 46.5243 22.9528 46.6623 22.844C46.3336 22.8239 46.0009 22.832 45.6681 22.8682C44.3859 23.0132 43.0671 23.5689 41.5982 24.3702C41.4724 24.4387 41.3466 24.5031 41.2168 24.5635C39.1636 25.5542 37.1712 25.4696 35.3047 24.4347C33.4178 23.3877 31.6527 21.3742 30.0783 18.5271C29.843 18.1003 29.6076 17.6493 29.3763 17.1781C29.3357 17.0935 29.2343 17.0613 29.1491 17.1016C29.0639 17.1419 29.0314 17.2425 29.072 17.3271C29.3033 17.7983 29.5386 18.2533 29.7821 18.6882C31.389 21.5916 33.1987 23.6494 35.1424 24.7286C37.1063 25.82 39.2042 25.9126 41.3669 24.8656C41.4968 24.8011 41.6266 24.7367 41.7605 24.6642C43.197 23.883 44.4751 23.3393 45.7046 23.1984C45.8872 23.1863 46.0698 23.1742 46.2524 23.1702ZM49.0117 21.3339C48.3016 21.2051 47.6158 20.9151 46.9666 20.452C46.3701 20.0252 45.8994 19.9003 45.38 20.0453C44.8322 20.1983 44.2073 20.6413 43.3187 21.338C42.7384 21.793 42.1582 22.1675 41.582 22.4574C40.0076 23.2508 38.4535 23.4279 36.9805 23.0172C35.5157 22.6105 34.132 21.6198 32.8944 20.0695C32.2654 19.2802 31.6689 18.3459 31.1212 17.2667C31.0806 17.1821 31.113 17.0815 31.1942 17.0412C31.2794 17.0009 31.3808 17.0331 31.4214 17.1137C31.9611 18.1687 32.5414 19.0869 33.1581 19.856C34.3511 21.35 35.6739 22.3004 37.0698 22.691C38.4575 23.0776 39.9305 22.9085 41.4237 22.1554C41.9796 21.8776 42.5396 21.5151 43.1036 21.0722C44.0247 20.3473 44.6821 19.8842 45.2826 19.7191C45.9116 19.5419 46.4675 19.6829 47.1573 20.1782C47.8958 20.7057 48.6871 20.9916 49.5108 21.0601C49.3525 21.1527 49.1821 21.2413 49.0117 21.3339ZM59.0465 19.1473C58.4459 18.2694 57.6263 17.613 56.697 17.2466C55.7394 16.868 54.6641 16.7996 53.5929 17.1177C53.1141 17.2586 52.6352 17.4801 52.1646 17.7822C51.4707 18.2332 50.5577 18.507 49.7137 18.5835C48.8575 18.66 48.0622 18.5231 47.5996 18.1526C46.8854 17.5768 46.2362 17.3271 45.5504 17.4479C44.8444 17.5727 44.0815 18.0842 43.1402 19.0305C43.0022 19.1714 42.8561 19.3043 42.7141 19.4251C41.4927 20.4601 40.0725 20.8869 38.6077 20.7138C37.155 20.5406 35.6658 19.7795 34.2902 18.4385C34.0508 18.205 33.8155 17.9513 33.5842 17.6815C33.5233 17.613 33.5314 17.5043 33.6045 17.4439C33.6775 17.3835 33.783 17.3915 33.8439 17.464C34.0711 17.7258 34.2984 17.9714 34.5337 18.1969C35.8525 19.4856 37.2767 20.2144 38.6523 20.3795C40.0198 20.5406 41.3507 20.1419 42.499 19.1674C42.637 19.0506 42.7709 18.9258 42.9048 18.7929C43.8949 17.7942 44.7186 17.2506 45.4977 17.1137C46.293 16.9727 47.0234 17.2506 47.8187 17.8869C48.2083 18.201 48.9143 18.3097 49.6893 18.2412C50.4846 18.1728 51.3368 17.915 51.986 17.4962C52.4811 17.1741 52.9923 16.9405 53.4996 16.7915C54.6479 16.4533 55.8003 16.5257 56.8269 16.9284C57.8494 17.3311 58.7462 18.064 59.3914 19.0386C59.4604 19.1433 59.5253 19.252 59.5902 19.3607C59.4117 19.2842 59.2331 19.2117 59.0465 19.1473Z" fill="#FDF3B1"/>
<path fill-rule="evenodd" clip-rule="evenodd" d="M24.8598 14.2507C25.0221 15.036 25.1398 15.2414 25.2169 14.8709C30.0131 18.8616 33.7178 19.1113 35.6128 17.4159C36.6151 16.5179 37.4712 15.8535 38.8955 15.938C40.9852 16.0629 43.0466 15.6239 44.0813 13.542C44.9456 11.8064 46.0858 11.7903 49.0885 12.3017C52.5335 12.8856 54.2662 10.7714 53.9943 8.07741C52.2738 11.0251 47.7211 9.32577 42.6043 5.75788C38.6033 2.97123 32.7075 6.20085 30.8125 10.0949C29.7859 12.197 26.8846 13.6386 24.8598 14.2507Z" fill="url(#paint6_linear_78_171373)"/>
<path fill-rule="evenodd" clip-rule="evenodd" d="M32.5982 18.4065C33.852 18.4468 34.8705 18.0804 35.6131 17.4159C36.6154 16.5179 37.4715 15.8535 38.8958 15.938C40.9855 16.0629 43.0469 15.6239 44.0816 13.542C44.9459 11.8064 46.0861 11.7903 49.0888 12.3017C52.5339 12.8856 54.2665 10.7714 53.9946 8.07741C52.2742 11.0251 47.7214 9.32577 42.6046 5.75788C38.6037 2.97123 32.7078 6.20085 30.8128 10.0949C30.7438 10.2318 30.6708 10.3687 30.5856 10.5016C32.8904 7.42102 34.7732 5.51224 38.3358 5.12163C41.6835 4.75517 44.8079 8.58883 48.1556 9.48282C50.5374 10.1191 51.3855 10.103 53.3413 9.56738C53.317 9.57141 53.4266 12.3782 48.1109 11.6654C45.7777 11.3513 45.4977 10.6869 43.2984 13.7071C40.7867 17.1582 38.0518 13.7031 35.4508 16.9287C34.8543 17.6575 34.0022 18.3421 32.5982 18.4065Z" fill="url(#paint7_linear_78_171373)"/>
<path opacity="0.6" fill-rule="evenodd" clip-rule="evenodd" d="M28.1589 16.949C28.593 17.1986 29.011 17.4121 29.4208 17.5933C30.5732 17.7785 31.5917 17.706 32.5087 17.4443C34.002 17.0174 35.2112 16.0953 36.2621 14.9677C37.6742 13.4455 38.9159 12.6442 40.2915 12.5314C41.3952 12.4388 42.6003 12.7891 44.0692 13.5663L44.0814 13.5422C44.1301 13.4455 44.1788 13.3569 44.2275 13.2724C42.7018 12.467 41.4358 12.1045 40.2631 12.2012C38.7942 12.322 37.4876 13.1596 36.0146 14.7462C35.0042 15.8295 33.8437 16.7194 32.4195 17.1262C31.2143 17.4644 29.8185 17.4644 28.1589 16.949ZM45.0106 12.3864C44.7063 12.2133 44.4101 12.02 44.122 11.8066C44.0165 11.73 43.915 11.6535 43.8176 11.5851C42.3853 10.6025 40.8595 10.2038 39.3622 10.4897C37.8568 10.7757 36.3676 11.7582 35.0124 13.5301C34.8947 13.6831 34.7811 13.8361 34.6715 13.9972C33.9289 15.0603 32.7035 15.8255 31.2184 16.1597C29.8225 16.4738 28.1954 16.4053 26.5195 15.8456C26.4303 15.8174 26.3816 15.7208 26.414 15.6322C26.4424 15.5436 26.5398 15.4952 26.6291 15.5275C28.24 16.0671 29.8063 16.1315 31.1453 15.8335C32.5493 15.5194 33.7017 14.8026 34.3956 13.8079C34.5133 13.6388 34.6269 13.4818 34.7446 13.3328C36.1526 11.4884 37.7148 10.4656 39.3014 10.1636C40.8961 9.8575 42.507 10.2763 44.0165 11.3153C44.126 11.3918 44.2315 11.4683 44.333 11.5448C44.6698 11.7985 45.0187 12.016 45.3758 12.2092C45.2419 12.2495 45.1242 12.3099 45.0106 12.3864ZM51.7343 12.1448C50.9187 12.1368 50.0584 12.0039 49.1292 11.7502C47.3438 11.2669 45.319 10.3568 42.929 9.07628C41.1192 8.10981 39.3744 7.89638 37.7919 8.44807C36.2297 8.99171 34.8176 10.2803 33.6571 12.322C33.0281 13.4294 32.1314 14.1986 30.9709 14.6617C29.8225 15.1207 28.4185 15.2697 26.7589 15.1489C26.6656 15.1409 26.5966 15.0603 26.6007 14.9677C26.6088 14.8751 26.69 14.8066 26.7833 14.8107C28.3942 14.9315 29.7454 14.7865 30.8451 14.3476C31.9325 13.9126 32.7725 13.1918 33.3609 12.1569C34.566 10.0427 36.039 8.70177 37.6783 8.12994C39.3541 7.54603 41.1923 7.76349 43.0872 8.77828C45.461 10.0468 47.4655 10.9488 49.2185 11.424C50.4074 11.7461 51.4786 11.871 52.4728 11.7743C52.2496 11.9274 52.0021 12.0482 51.7343 12.1448ZM53.8443 9.88972C52.7893 10.7475 51.4462 10.973 49.7744 10.6307C47.778 10.2199 45.3109 8.99171 42.3082 7.0628C42.1215 6.94199 41.9349 6.83326 41.7441 6.73661C40.0926 5.87485 38.4493 5.87082 36.9601 6.47084C35.4628 7.07891 34.1197 8.29907 33.089 9.88167C32.8942 10.1837 32.7076 10.4978 32.5331 10.824C31.965 11.8911 31.0601 12.8697 29.9361 13.5502C28.9176 14.1663 27.7206 14.5409 26.4424 14.5127C26.3491 14.5127 26.2761 14.4362 26.2761 14.3435C26.2761 14.2509 26.3532 14.1784 26.4505 14.1784C27.6638 14.2066 28.7959 13.8522 29.7617 13.2643C30.8329 12.616 31.6972 11.6857 32.2328 10.6669C32.4114 10.3327 32.6021 10.0105 32.805 9.70045C33.8721 8.06148 35.268 6.79299 36.8343 6.16076C38.4087 5.5245 40.1535 5.52853 41.9024 6.43862C42.0972 6.53929 42.296 6.65608 42.4908 6.78091C45.461 8.68566 47.8916 9.89777 49.8393 10.3005C51.5882 10.6589 52.9475 10.3609 53.9701 9.31789C53.9376 9.51521 53.897 9.70448 53.8443 9.88972Z" fill="#FDF3B1"/>
<path fill-rule="evenodd" clip-rule="evenodd" d="M2.24214 19.4858C0.614989 17.4039 0.509487 15.5756 2.0636 13.6306C3.00093 12.4588 3.90987 10.6869 5.19211 8.57277C8.02847 3.89748 12.3134 2.97933 15.8315 4.3042C18.5948 5.34315 20.6805 7.79557 22.6241 10.703C23.7278 12.3541 25.3185 13.0548 26.7346 13.8078C28.309 14.6454 27.6922 16.0186 25.3956 17.3556C23.7887 18.2938 22.6323 19.4778 21.91 20.8147C20.1733 24.0282 17.4708 26.529 13.5957 26.5813C8.26382 26.6538 5.14342 23.1987 2.24214 19.4858Z" fill="#F28C03"/>
<path fill-rule="evenodd" clip-rule="evenodd" d="M18.8261 24.6685C17.3937 25.8283 15.6611 26.5531 13.5957 26.5813C12.1552 26.6015 10.873 26.3639 9.71651 25.929C7.09927 24.6323 5.12315 22.3248 3.24037 19.9167C1.61322 17.8348 1.50772 16.0065 3.06183 14.0615C3.99917 12.8897 4.9081 11.1178 6.19034 9.00367C6.79089 8.01304 7.45635 7.19154 8.16646 6.52306C13.7661 1.25983 20.7576 10.2279 21.0498 16.7113C21.1958 19.9288 20.3031 22.7839 18.8261 24.6685Z" fill="#EA6C00"/>
<path fill-rule="evenodd" clip-rule="evenodd" d="M2.24214 19.4858C0.614989 17.4039 0.509487 15.5756 2.0636 13.6306C3.00093 12.4588 3.90987 10.6869 5.19211 8.57276C5.79266 7.58213 6.45813 6.76063 7.16823 6.09216C12.7679 0.828926 19.7594 9.79695 20.0515 16.2804C20.3072 21.9745 17.3166 26.533 13.5916 26.5813C8.26382 26.6538 5.14342 23.1987 2.24214 19.4858Z" fill="url(#paint8_linear_78_171373)"/>
<path fill-rule="evenodd" clip-rule="evenodd" d="M1.64178 18.6118C0.680102 16.9849 0.720675 15.4869 1.84061 13.9204C2.47767 13.566 3.26487 13.3606 4.11294 13.3606C6.25542 13.3606 7.99214 14.6895 7.99214 16.3245C7.99214 17.9635 6.25542 19.2883 4.11294 19.2883C3.1756 19.2883 2.31131 19.0346 1.64178 18.6118ZM4.06019 10.4935C4.40916 9.89344 4.78247 9.24913 5.1923 8.5726C5.79285 7.58197 6.45831 6.76047 7.16842 6.092C7.44028 5.83427 7.72027 5.61279 8.00025 5.41949C9.31901 5.89468 10.232 6.91752 10.232 8.10547C10.232 9.74042 8.4953 11.0693 6.35281 11.0693C5.49663 11.0693 4.70131 10.8559 4.06019 10.4935Z" fill="url(#paint9_linear_78_171373)"/>
<path fill-rule="evenodd" clip-rule="evenodd" d="M13.9608 23.988C16.9919 23.988 19.4671 22.0993 19.4671 19.7798C19.4671 17.4643 16.9919 15.5717 13.9608 15.5717C10.9296 15.5717 8.45441 17.4603 8.45441 19.7798C8.45441 22.0993 10.9296 23.988 13.9608 23.988Z" fill="url(#paint10_linear_78_171373)"/>
<path fill-rule="evenodd" clip-rule="evenodd" d="M19.5888 25.0428C19.9945 23.726 19.5482 23.0213 17.7344 22.8482C18.5135 22.5703 19.6456 20.7904 19.463 19.6266C20.7614 21.028 21.7434 21.9944 23.6992 21.4951C29.3111 20.0615 32.4761 21.3179 33.7989 24.5999C35.4342 28.655 37.8688 30.0926 40.413 29.2148C39.1105 30.8457 35.9698 32.4323 32.8576 30.8618C30.1429 29.4926 28.5361 29.2349 25.1925 29.9155C21.0577 30.7571 18.7853 27.6483 19.5888 25.0428Z" fill="url(#paint11_linear_78_171373)"/>
<path fill-rule="evenodd" clip-rule="evenodd" d="M22.868 21.624C23.1277 21.612 23.4036 21.5717 23.7039 21.4952C29.3157 20.0616 32.4807 21.318 33.8036 24.6C35.4388 28.6551 37.8735 30.0927 40.4177 29.2149C39.1151 30.8458 35.9745 32.4324 32.8622 30.8619C30.2328 29.537 28.6462 29.2511 25.5136 29.8551C26.0208 29.6095 26.451 29.4323 26.597 29.38C27.5303 29.0497 29.9974 28.7638 32.8419 30.4793C35.2278 31.9169 39.3748 30.5679 38.5471 30.1853C37.1553 29.541 37.204 30.0243 35.8 28.6954C34.4488 27.4188 33.8036 25.8403 33.0285 24.3543C31.9411 22.2724 29.9934 21.0281 27.2706 21.3381C25.7814 21.5073 24.6737 21.9623 22.868 21.624Z" fill="url(#paint12_linear_78_171373)"/>
<path opacity="0.6" fill-rule="evenodd" clip-rule="evenodd" d="M19.7107 24.5116C19.7351 24.3102 19.7351 24.129 19.6986 23.9679C20.5345 25.0391 21.3622 25.627 22.2712 25.921C23.2978 26.2512 24.4502 26.219 25.8501 26.0942C27.4326 25.9573 28.7392 26.513 29.7739 27.4432C30.6301 28.2164 31.2956 29.2473 31.7784 30.3507C31.6242 30.2822 31.47 30.2218 31.3199 30.1614C30.8736 29.2191 30.2811 28.3533 29.5426 27.6888C28.5769 26.819 27.3555 26.2995 25.8785 26.4284C24.438 26.5532 23.2491 26.5855 22.1657 26.2391C21.2973 25.9532 20.502 25.4297 19.7107 24.5116ZM18.7206 21.9464C19.5525 22.9209 20.4776 23.6981 21.4515 24.2055C22.5511 24.7774 23.7117 25.0029 24.8722 24.7693C26.5845 24.423 27.883 24.3706 28.9258 24.7572C29.9606 25.1398 30.764 25.9573 31.4903 27.3586C32.383 29.0741 33.5679 30.407 34.9232 31.3171C35.0165 31.3816 35.1098 31.442 35.2072 31.4983C35.4385 31.5104 35.6617 31.5104 35.8849 31.4983C35.6211 31.3614 35.3614 31.2084 35.1098 31.0393C33.7992 30.1614 32.6549 28.8728 31.7906 27.2056C31.0237 25.7277 30.1635 24.8579 29.0435 24.4431C27.9317 24.0324 26.5764 24.0807 24.8032 24.4391C23.7238 24.6565 22.6364 24.4431 21.6057 23.9075C20.6481 23.4082 19.731 22.627 18.9073 21.6524C18.8505 21.7531 18.7856 21.8498 18.7206 21.9464ZM19.2279 21.0242C20.0719 21.9907 20.9362 22.5424 21.8005 22.8203C22.8149 23.1424 23.8253 23.086 24.8154 22.8565C27.0349 22.341 28.7392 22.329 30.062 22.8726C31.3727 23.4122 32.3181 24.5035 33.0323 26.1989C33.8316 28.0996 34.9678 29.3641 36.2825 30.0647C37.0007 30.4473 37.7717 30.6607 38.5711 30.7211C38.7577 30.6205 38.9363 30.5117 39.1067 30.399C38.1734 30.4151 37.2685 30.2097 36.4408 29.7708C35.195 29.1063 34.1116 27.8982 33.3447 26.074C32.594 24.2941 31.5918 23.1424 30.1919 22.5666C28.8001 21.9947 27.0309 22.0028 24.7423 22.5343C23.805 22.7518 22.8555 22.8082 21.906 22.5062C21.0538 22.2323 20.2017 21.6685 19.3618 20.6658C19.3212 20.7826 19.2766 20.9034 19.2279 21.0242ZM28.1995 29.5493C28.0615 29.3922 27.9155 29.2392 27.7532 29.1023C27.0836 28.5184 26.2072 28.1278 24.929 28.0513C23.452 27.9627 22.3645 27.6727 21.4596 27.1774C20.717 26.7707 20.0922 26.219 19.4754 25.5223C19.451 25.6713 19.4348 25.8244 19.4307 25.9734C20.0069 26.5895 20.5994 27.0888 21.2973 27.4714C22.2428 27.9909 23.3789 28.2929 24.9087 28.3855C26.1017 28.458 26.9132 28.8204 27.53 29.356C27.6071 29.4204 27.6801 29.4889 27.7491 29.5614C27.9033 29.5533 28.0534 29.5493 28.1995 29.5493Z" fill="#FDF3B1"/>
<path fill-rule="evenodd" clip-rule="evenodd" d="M13.2753 18.1046C15.7627 18.1046 17.7916 16.0911 17.7916 13.6226C17.7916 11.154 15.7627 9.14056 13.2753 9.14056C10.7879 9.14056 8.75903 11.154 8.75903 13.6226C8.76309 16.0911 10.7879 18.1046 13.2753 18.1046Z" fill="url(#paint13_linear_78_171373)"/>
<path d="M13.3403 17.7581C15.3505 17.7581 16.9801 16.0724 16.9801 13.9929C16.9801 11.9135 15.3505 10.2277 13.3403 10.2277C11.3301 10.2277 9.70056 11.9135 9.70056 13.9929C9.70056 16.0724 11.3301 17.7581 13.3403 17.7581Z" fill="#AE1E10"/>
<path fill-rule="evenodd" clip-rule="evenodd" d="M13.3723 17.5326C15.1699 17.5326 16.6347 16.0789 16.6347 14.2949C16.6347 12.511 15.1699 11.0573 13.3723 11.0573C11.5747 11.0573 10.1099 12.511 10.1099 14.2949C10.1099 16.0789 11.5747 17.5326 13.3723 17.5326Z" fill="white"/>
<path fill-rule="evenodd" clip-rule="evenodd" d="M13.7257 17.2506C15.2839 17.2506 16.5539 15.9902 16.5539 14.4438C16.5539 12.8975 15.2839 11.637 13.7257 11.637C12.1675 11.637 10.8975 12.8975 10.8975 14.4438C10.8975 15.9902 12.1675 17.2506 13.7257 17.2506Z" fill="url(#paint14_linear_78_171373)"/>
<path fill-rule="evenodd" clip-rule="evenodd" d="M13.7253 11.6331C14.6261 11.6331 15.4255 12.0519 15.9449 12.7003C15.6689 13.9647 14.5368 14.9151 13.1816 14.9151C12.2807 14.9151 11.4814 14.4963 10.962 13.8479C11.2338 12.5835 12.37 11.6331 13.7253 11.6331Z" fill="url(#paint15_linear_78_171373)"/>
<path fill-rule="evenodd" clip-rule="evenodd" d="M3.16324 19.2643C3.0618 19.212 3.02122 19.0912 3.06991 18.9905C3.12266 18.8898 3.2444 18.8496 3.34584 18.8979C3.98696 19.216 4.57128 19.3409 5.09472 19.2724C5.61411 19.2039 6.08075 18.9382 6.50276 18.4831C6.57985 18.3985 6.7097 18.3945 6.79492 18.471C6.88013 18.5475 6.88418 18.6764 6.80709 18.761C6.32016 19.2885 5.76831 19.5946 5.15153 19.6791C4.54693 19.7597 3.88146 19.6227 3.16324 19.2643ZM3.96262 15.8374C4.22231 15.8374 4.43331 16.0468 4.43331 16.3045C4.43331 16.5623 4.22231 16.7717 3.96262 16.7717C3.70292 16.7717 3.49192 16.5623 3.49192 16.3045C3.49192 16.0468 3.70292 15.8374 3.96262 15.8374Z" fill="#A54400"/>
<path fill-rule="evenodd" clip-rule="evenodd" d="M13.9445 15.9381C14.7763 15.9381 15.4499 15.2656 15.4499 14.4441C15.4499 13.6185 14.7722 12.9501 13.9445 12.9501C13.1126 12.9501 12.439 13.6226 12.439 14.4441C12.435 15.2656 13.1126 15.9381 13.9445 15.9381Z" fill="#141414"/>
<path d="M12.8042 14.6493C13.304 14.6493 13.7091 14.2472 13.7091 13.7513C13.7091 13.2553 13.304 12.8533 12.8042 12.8533C12.3045 12.8533 11.8994 13.2553 11.8994 13.7513C11.8994 14.2472 12.3045 14.6493 12.8042 14.6493Z" fill="white"/>
<path fill-rule="evenodd" clip-rule="evenodd" d="M19.2318 9.09203C19.4225 8.61685 19.9094 8.64504 20.3517 8.8625C20.9076 9.1323 21.3458 9.70413 19.9987 9.74843C19.5401 9.76856 19.0086 9.65178 19.2318 9.09203Z" fill="url(#paint16_linear_78_171373)"/>
<path fill-rule="evenodd" clip-rule="evenodd" d="M20.6076 10.7875C21.3095 10.3929 22.9489 11.3352 21.2609 11.5124C20.2789 11.6171 20.218 11.005 20.6076 10.7875Z" fill="url(#paint17_linear_78_171373)"/>
<path fill-rule="evenodd" clip-rule="evenodd" d="M22.0075 14.6977C22.5431 14.2909 23.3831 14.4278 23.521 14.8748C23.6712 15.3621 22.953 15.6963 22.4457 15.6681C21.829 15.6359 21.3015 15.1487 22.0075 14.6977Z" fill="url(#paint18_linear_78_171373)"/>
<path fill-rule="evenodd" clip-rule="evenodd" d="M22.5999 16.5824C21.8938 16.7838 21.553 18.0724 23.4155 17.3355C24.3041 16.9811 23.6833 16.2723 22.5999 16.5824Z" fill="url(#paint19_linear_78_171373)"/>
<path fill-rule="evenodd" clip-rule="evenodd" d="M24.3772 15.2574C24.0161 15.4266 23.5981 15.9541 24.4381 16.1393C24.7221 16.2038 25.4403 15.9823 25.5864 15.7286C25.8136 15.338 25.3348 14.8104 24.3772 15.2574Z" fill="url(#paint20_linear_78_171373)"/>
<defs>
<linearGradient id="paint0_linear_78_171373" x1="20.2063" y1="5.49056" x2="26.7499" y2="-0.170211" gradientUnits="userSpaceOnUse">
<stop stop-color="#E23810"/>
<stop offset="1" stop-color="#F8DF16"/>
</linearGradient>
<linearGradient id="paint1_linear_78_171373" x1="27.5135" y1="12.9171" x2="24.2438" y2="-1.25056" gradientUnits="userSpaceOnUse">
<stop stop-color="#FCCC00"/>
<stop offset="1" stop-color="#FDF3B1"/>
</linearGradient>
<linearGradient id="paint2_linear_78_171373" x1="11.4734" y1="24.4536" x2="18.0169" y2="34.5365" gradientUnits="userSpaceOnUse">
<stop stop-color="#E23810"/>
<stop offset="1" stop-color="#F8DF16"/>
</linearGradient>
<linearGradient id="paint3_linear_78_171373" x1="15.5547" y1="34.1356" x2="14.0393" y2="26.0613" gradientUnits="userSpaceOnUse">
<stop stop-color="#FCCC00"/>
<stop offset="1" stop-color="#FDF3B1"/>
</linearGradient>
<linearGradient id="paint4_linear_78_171373" x1="40.8358" y1="20.7469" x2="48.1694" y2="12.1898" gradientUnits="userSpaceOnUse">
<stop stop-color="#E23810"/>
<stop offset="1" stop-color="#F8DF16"/>
</linearGradient>
<linearGradient id="paint5_linear_78_171373" x1="48.9051" y1="27.4115" x2="46.7378" y2="14.2495" gradientUnits="userSpaceOnUse">
<stop stop-color="#FCCC00"/>
<stop offset="1" stop-color="#FDF3B1"/>
</linearGradient>
<linearGradient id="paint6_linear_78_171373" x1="37.5707" y1="14.0251" x2="46.4886" y2="5.88453" gradientUnits="userSpaceOnUse">
<stop stop-color="#E23810"/>
<stop offset="1" stop-color="#F8DF16"/>
</linearGradient>
<linearGradient id="paint7_linear_78_171373" x1="44.0819" y1="18.1051" x2="41.294" y2="4.19836" gradientUnits="userSpaceOnUse">
<stop stop-color="#FCCC00"/>
<stop offset="1" stop-color="#FDF3B1"/>
</linearGradient>
<linearGradient id="paint8_linear_78_171373" x1="-7.6985" y1="15.7372" x2="23.4517" y2="15.427" gradientUnits="userSpaceOnUse">
<stop stop-color="#F18500"/>
<stop offset="1" stop-color="#F8E12B"/>
</linearGradient>
<linearGradient id="paint9_linear_78_171373" x1="9.10565" y1="19.1667" x2="3.31802" y2="7.87996" gradientUnits="userSpaceOnUse">
<stop stop-color="#FCCC00"/>
<stop offset="1" stop-color="#FDF3B1"/>
</linearGradient>
<linearGradient id="paint10_linear_78_171373" x1="15.3915" y1="25.1587" x2="12.9012" y2="15.6537" gradientUnits="userSpaceOnUse">
<stop stop-color="#FCCC00"/>
<stop offset="1" stop-color="#FDF3B1"/>
</linearGradient>
<linearGradient id="paint11_linear_78_171373" x1="25.1034" y1="29.1413" x2="30.3523" y2="23.9686" gradientUnits="userSpaceOnUse">
<stop stop-color="#E23810"/>
<stop offset="1" stop-color="#F8DF16"/>
</linearGradient>
<linearGradient id="paint12_linear_78_171373" x1="33.4307" y1="33.9205" x2="30.5665" y2="20.0878" gradientUnits="userSpaceOnUse">
<stop stop-color="#FCCC00"/>
<stop offset="1" stop-color="#FDF3B1"/>
</linearGradient>
<linearGradient id="paint13_linear_78_171373" x1="13.9462" y1="9.00337" x2="12.6567" y2="18.0353" gradientUnits="userSpaceOnUse">
<stop stop-color="#E1360F"/>
<stop offset="1" stop-color="#F07E00"/>
</linearGradient>
<linearGradient id="paint14_linear_78_171373" x1="12.2126" y1="14.4369" x2="16.849" y2="14.4523" gradientUnits="userSpaceOnUse">
<stop stop-color="#479ED0"/>
<stop offset="1" stop-color="#BAD500"/>
</linearGradient>
<linearGradient id="paint15_linear_78_171373" x1="13.088" y1="11.9195" x2="13.7999" y2="14.6075" gradientUnits="userSpaceOnUse">
<stop stop-color="#64CBD8"/>
<stop offset="1" stop-color="#E1E344"/>
</linearGradient>
<linearGradient id="paint16_linear_78_171373" x1="20.1531" y1="9.93468" x2="19.8924" y2="8.68282" gradientUnits="userSpaceOnUse">
<stop stop-color="#FCCC00"/>
<stop offset="1" stop-color="#FDF3B1"/>
</linearGradient>
<linearGradient id="paint17_linear_78_171373" x1="21.2791" y1="11.6479" x2="21.1046" y2="10.6628" gradientUnits="userSpaceOnUse">
<stop stop-color="#FCCC00"/>
<stop offset="1" stop-color="#FDF3B1"/>
</linearGradient>
<linearGradient id="paint18_linear_78_171373" x1="22.7752" y1="15.8198" x2="22.478" y2="14.4878" gradientUnits="userSpaceOnUse">
<stop stop-color="#FCCC00"/>
<stop offset="1" stop-color="#FDF3B1"/>
</linearGradient>
<linearGradient id="paint19_linear_78_171373" x1="23.0482" y1="17.6214" x2="22.83" y2="16.533" gradientUnits="userSpaceOnUse">
<stop stop-color="#FCCC00"/>
<stop offset="1" stop-color="#FDF3B1"/>
</linearGradient>
<linearGradient id="paint20_linear_78_171373" x1="24.927" y1="16.2453" x2="24.6895" y2="15.1426" gradientUnits="userSpaceOnUse">
<stop stop-color="#FCCC00"/>
<stop offset="1" stop-color="#FDF3B1"/>
</linearGradient>
</defs>
</svg>
