<svg width="88" height="66" viewBox="0 0 88 66" fill="none" xmlns="http://www.w3.org/2000/svg">
<path fill-rule="evenodd" clip-rule="evenodd" d="M66.9237 38.8891C66.2033 40.8838 66.369 40.8338 66.5347 41.5917C69.9927 51.7654 75.3454 57.6638 82.6144 59.2009C87.0089 60.1304 88.3921 59.5655 86.7711 57.5494C85.8202 56.3626 85.1574 54.4965 84.5523 52.0442C83.306 47.0253 79.8263 43.279 74.2935 40.7623C81.1519 40.7409 84.7396 37.6809 83.9975 31.6824C83.6445 28.7869 83.8174 26.7064 84.826 24.8046C85.8274 22.9243 86.5766 20.7008 85.6545 20.4005C79.9848 18.5488 73.0472 26.4704 66.9237 38.8891Z" fill="url(#paint0_linear_78_172203)"/>
<path fill-rule="evenodd" clip-rule="evenodd" d="M84.661 59.5585C87.4058 59.8874 88.1046 59.2154 86.7718 57.5567C85.8209 56.3698 85.1581 54.5038 84.5529 52.0515C83.3066 47.0326 79.827 43.2862 74.2942 40.7696C81.1526 40.7481 84.7402 37.6882 83.9982 31.6897C83.6452 28.7942 83.8181 26.7136 84.8267 24.8119C85.8281 22.9316 86.5773 20.708 85.6552 20.4078C84.4449 20.0145 83.1841 20.0646 81.8874 20.5007C85.1365 20.6437 85.1797 22.667 83.0473 26.828C82.0459 28.7799 85.2229 36.9732 77.9323 39.5041C76.7148 39.926 71.8088 40.3049 71.8376 40.3263C76.441 43.4721 80.9004 44.5517 82.8239 51.0077C83.2346 52.3876 82.4421 52.1445 85.0932 56.2412C85.7632 57.2564 86.4764 58.9437 84.661 59.5585Z" fill="white"/>
<path opacity="0.5" fill-rule="evenodd" clip-rule="evenodd" d="M86.1088 59.6371C86.5123 59.6157 86.8221 59.5585 87.0454 59.4441C84.1781 58.0928 81.3469 56.2625 78.5589 53.9532C75.2738 51.2436 72.0391 47.869 68.8549 43.8367C68.754 43.708 68.5739 43.6865 68.4442 43.7866C68.3146 43.8867 68.293 44.0655 68.3938 44.1942C71.6069 48.2551 74.8631 51.6582 78.1843 54.3965C80.7922 56.5557 83.4289 58.3002 86.1088 59.6371ZM85.41 54.9399C83.0903 53.5743 80.7129 51.9728 78.2923 50.1497C75.0577 47.7046 71.7293 44.859 68.3074 41.5917C68.1921 41.4845 68.1849 41.2986 68.3002 41.1842C68.4082 41.0698 68.5955 41.0626 68.7108 41.177C72.1184 44.4301 75.4251 47.2684 78.6381 49.6921C80.8426 51.358 83.0038 52.8236 85.1219 54.1034C85.2155 54.3894 85.3092 54.6682 85.41 54.9399ZM83.926 50.0782C82.1538 48.8699 80.3599 47.7046 78.5445 46.5749C75.5403 44.7089 72.4786 42.9501 69.3664 41.3057C69.2223 41.2342 69.1719 41.0555 69.2439 40.9125C69.3159 40.7695 69.4961 40.7195 69.6401 40.791C72.7739 42.4497 75.8501 44.2156 78.8543 46.0745C80.4176 47.0468 81.9592 48.0406 83.4937 49.0701C83.645 49.4061 83.7963 49.7422 83.926 50.0782ZM84.0989 33.1767C84.0989 32.9765 84.0917 32.7764 84.0845 32.569C82.7445 33.0123 81.3109 33.5628 79.7836 34.2277C77.118 35.3859 74.1643 36.8802 70.9153 38.7105C70.7784 38.7891 70.728 38.9678 70.8072 39.1037C70.8865 39.2395 71.0666 39.2896 71.2034 39.2109C74.4381 37.3878 77.3774 35.9007 80.0213 34.7568C81.4622 34.1348 82.8237 33.6057 84.0989 33.1767ZM84.1493 26.5563C82.8382 27.6502 81.4838 28.8012 80.0862 30.0095C77.4783 32.2687 74.7191 34.7425 71.8014 37.4235C71.6861 37.5308 71.4988 37.5236 71.3907 37.4092C71.2827 37.2949 71.2899 37.109 71.4052 37.0017C74.3084 34.3278 77.0748 31.8541 79.7043 29.5734C81.3613 28.1363 82.9606 26.7779 84.5023 25.5125C84.3582 25.8485 84.243 26.1988 84.1493 26.5563ZM85.3452 20.3076C82.7589 22.2523 80.2663 24.5044 77.8673 27.0424C74.9136 30.1739 72.0967 33.763 69.4168 37.8025C69.3303 37.9383 69.1502 37.9741 69.0134 37.8883C68.8765 37.8025 68.8405 37.6237 68.9269 37.4879C71.6213 33.4198 74.4597 29.8093 77.435 26.6492C79.726 24.2184 82.1033 22.0592 84.5672 20.1646C84.8337 20.1932 85.0859 20.2433 85.3452 20.3076Z" fill="#6D67BB"/>
<path fill-rule="evenodd" clip-rule="evenodd" d="M37.6966 52.6023C33.2444 51.2296 29.736 51.1367 27.1569 52.3307C30.5068 61.8252 36.8393 66.4081 46.0102 64.9925C47.8616 64.7065 47.8688 63.5125 46.2839 62.5187C43.323 60.6456 40.4485 57.3568 37.6966 52.6023Z" fill="url(#paint1_linear_78_172203)"/>
<path fill-rule="evenodd" clip-rule="evenodd" d="M30.8165 59.3156C34.4186 63.9771 39.4975 66.0004 46.0173 64.9852C47.8688 64.6992 47.876 63.5052 46.2911 62.5114C43.6183 60.8313 41.0176 57.993 38.5178 53.9678C38.561 54.1251 38.5826 54.268 38.5466 54.3395C37.819 55.8338 41.2193 59.6802 42.3144 60.5954C42.9772 61.153 46.9827 63.6125 44.8358 64.3632C42.2207 65.2783 35.737 63.1764 33.3596 61.532C32.4519 60.91 31.6162 60.1307 30.8165 59.3156Z" fill="white"/>
<path opacity="0.5" fill-rule="evenodd" clip-rule="evenodd" d="M30.3847 51.5297C30.3126 51.5369 30.2334 51.544 30.1613 51.5512C30.0461 51.6084 29.9812 51.7442 30.0101 51.8729C30.8025 55.2546 32.3874 58.3432 34.7576 61.1458C35.7806 62.3469 36.9477 63.498 38.2588 64.5919C38.6983 64.7206 39.1449 64.835 39.5988 64.9279C37.913 63.6267 36.4434 62.2397 35.2043 60.7741C32.8917 58.0501 31.35 55.0401 30.5792 51.7442C30.5576 51.637 30.4855 51.5655 30.3847 51.5297ZM44.051 65.1996C42.1851 64.4703 40.4921 63.4337 38.972 62.0896C36.429 59.8446 34.3686 56.7489 32.7909 52.788C32.7332 52.6379 32.8053 52.4735 32.9565 52.4163C33.1078 52.3591 33.2735 52.4306 33.3312 52.5807C34.8729 56.4486 36.8828 59.4728 39.3611 61.6606C41.1405 63.2335 43.1649 64.3703 45.4342 65.0709C44.9659 65.1281 44.5048 65.171 44.051 65.1996ZM47.4369 63.8769C44.9875 63.0261 42.8551 61.825 41.0252 60.2807C38.9864 58.5506 37.3295 56.3914 36.0615 53.8033C35.9895 53.6603 36.0543 53.4887 36.1984 53.4172C36.3425 53.3457 36.5154 53.4101 36.5875 53.553C37.8194 56.0697 39.4259 58.1645 41.3998 59.8446C43.028 61.2245 44.9083 62.3183 47.0407 63.1262C47.2856 63.3765 47.4153 63.641 47.4369 63.8769Z" fill="#6D67BB"/>
<path fill-rule="evenodd" clip-rule="evenodd" d="M65.7068 37.1377C43.554 44.5088 31.8112 36.3083 26.6026 11.8713C32.3083 3.00587 39.8799 -0.747618 49.0652 1.69037C50.9455 2.19083 52.8834 4.07115 53.7767 6.91665C55.4048 12.1144 58.0848 14.7668 61.8165 17.3764C64.9071 19.5284 64.5973 23.6751 63.7545 27.5573C62.4937 33.4414 60.9448 36.8231 65.7068 37.1377Z" fill="url(#paint2_linear_78_172203)"/>
<path fill-rule="evenodd" clip-rule="evenodd" d="M37.8913 1.98363C41.2917 0.74676 45.0234 0.618079 49.065 1.69051C50.9452 2.19097 52.8832 4.07129 53.7765 6.91679C55.4046 12.1145 58.0846 14.767 61.8163 17.3765C62.7529 18.0271 63.3724 18.8637 63.7687 19.8145C62.8609 18.978 62.0108 18.2416 61.2976 17.9199C50.9452 13.3013 56.5069 1.82634 42.5812 1.82634C40.7946 1.81919 39.1952 1.89783 37.8913 1.98363Z" fill="white"/>
<path opacity="0.5" fill-rule="evenodd" clip-rule="evenodd" d="M45.0382 1.01123C45.4488 1.03983 45.8594 1.08272 46.2773 1.13277C43.6838 2.148 41.364 3.33482 39.2964 4.70753C36.53 6.54495 34.2247 8.7184 32.3444 11.2565C32.2508 11.3852 32.0635 11.4138 31.9338 11.3208C31.8041 11.2279 31.7753 11.042 31.869 10.9133C33.7925 8.32519 36.1482 6.10169 38.9722 4.22851C40.7949 3.0131 42.8121 1.94067 45.0382 1.01123ZM51.349 2.99164C49.2958 3.84959 47.1274 4.94346 44.8509 6.27327C41.7459 8.08924 38.4319 10.3485 34.9091 13.051C34.7794 13.1511 34.7578 13.3298 34.8587 13.4585C34.9595 13.5872 35.1396 13.6087 35.2693 13.5086C38.7705 10.8204 42.0628 8.57542 45.1462 6.76659C47.4804 5.40103 49.6992 4.2857 51.7957 3.42775C51.6516 3.27761 51.5003 3.12748 51.349 2.99164ZM53.8272 7.07401C51.9974 7.69602 50.1099 8.54682 48.172 9.6264L48.1504 9.6407C45.3912 11.185 42.5239 13.2011 39.5414 15.6892C39.4189 15.7893 39.4045 15.9752 39.5054 16.0967C39.6062 16.2183 39.7935 16.2326 39.916 16.1325C42.8625 13.673 45.7009 11.6712 48.4313 10.1412L48.4529 10.1269C50.3548 9.06159 52.2063 8.22509 54.0073 7.61738C53.9497 7.44579 53.8849 7.2599 53.8272 7.07401ZM55.6571 11.1993C54.9871 11.4853 54.2883 11.7927 53.5679 12.1359C50.9744 13.3656 48.0783 14.9814 44.8869 16.9832C44.75 17.069 44.7068 17.2478 44.7932 17.3836C44.8797 17.5195 45.0598 17.5624 45.1967 17.4766C48.3809 15.489 51.2554 13.8804 53.82 12.6578C54.5621 12.3075 55.2753 11.9857 55.9669 11.6998C55.866 11.5353 55.758 11.3709 55.6571 11.1993ZM58.6036 14.8241C58.7549 14.9599 58.9062 15.1029 59.0575 15.2388C58.3803 15.6105 57.6743 16.0038 56.9322 16.4256C54.7854 17.641 52.3864 19.028 49.6128 20.6652C49.4759 20.7439 49.2958 20.701 49.2166 20.5652C49.1373 20.4293 49.1806 20.2506 49.3174 20.1719C52.1271 18.5133 54.526 17.1191 56.6441 15.9251C57.3213 15.5319 57.9768 15.1744 58.6036 14.8241ZM62.3498 17.7983C60.9089 18.8207 59.4393 19.8145 57.984 20.7939C56.3343 21.9093 54.6989 23.0103 53.1573 24.1328C53.0276 24.2257 52.9988 24.4116 53.0924 24.5403C53.1861 24.669 53.3734 24.6976 53.5031 24.6046C55.0375 23.4893 56.6657 22.3954 58.3154 21.2801C59.7923 20.2792 61.2907 19.2711 62.7676 18.2201C62.6379 18.07 62.501 17.927 62.3498 17.7983ZM64.2373 21.6304C64.2661 21.8592 64.2877 22.088 64.3021 22.3239C62.3354 23.954 59.9292 25.9916 57.7391 28.1865C57.6238 28.3009 57.4437 28.3009 57.3285 28.1865C57.2132 28.0721 57.2132 27.8934 57.3285 27.779C59.6482 25.4554 62.2129 23.3106 64.2373 21.6304Z" fill="#6D67BB"/>
<path fill-rule="evenodd" clip-rule="evenodd" d="M54.886 19.0281C39.1304 33.8061 30.0892 46.0032 30.4999 53.7819C42.783 58.1502 56.0242 55.3977 66.5711 47.1757C72.2048 42.7859 75.2089 36.5801 71.8013 35.5363C63.0771 32.8695 59.2445 26.3349 54.886 19.0281Z" fill="url(#paint3_linear_78_172203)"/>
<path opacity="0.51" fill-rule="evenodd" clip-rule="evenodd" d="M59.5396 43.4293C60.5554 43.4293 61.3767 44.2444 61.3767 45.2525C61.3767 46.2605 60.5554 47.0756 59.5396 47.0756C58.5238 47.0756 57.7026 46.2605 57.7026 45.2525C57.7026 44.2515 58.5238 43.4293 59.5396 43.4293ZM66.8663 46.9398C67.8028 46.1819 68.6673 45.3812 69.4309 44.5661C69.4453 44.4517 69.4526 44.3373 69.4526 44.2158C69.4526 42.7072 68.2206 41.4847 66.7006 41.4847C65.1805 41.4847 63.9486 42.7072 63.9486 44.2158C63.9486 45.7243 65.1805 46.9469 66.7006 46.9469C66.7582 46.9469 66.8158 46.9469 66.8663 46.9398ZM72.9322 39.2183C73.5445 37.4023 73.2708 35.9939 71.8011 35.5434C70.915 35.2718 70.0865 34.9643 69.3013 34.614C68.4151 35.1288 67.8244 36.0725 67.8244 37.1664C67.8244 38.7965 69.1572 40.1191 70.7997 40.1191C71.6354 40.112 72.3919 39.7688 72.9322 39.2183ZM65.0436 32.1117C63.5668 30.9963 62.2772 29.7166 61.0885 28.3081C60.0367 28.7657 59.3091 29.8024 59.3091 31.0106C59.3091 32.6407 60.6419 33.9634 62.2844 33.9634C63.5307 33.9705 64.6042 33.1984 65.0436 32.1117ZM56.9749 36.001C58.495 36.001 59.7269 37.2236 59.7269 38.7321C59.7269 40.2407 58.495 41.4632 56.9749 41.4632C55.4549 41.4632 54.223 40.2407 54.223 38.7321C54.223 37.2236 55.4549 36.001 56.9749 36.001ZM64.5177 36.0796C65.5335 36.0796 66.3548 36.8947 66.3548 37.9028C66.3548 38.9109 65.5335 39.7259 64.5177 39.7259C63.5019 39.7259 62.6806 38.9109 62.6806 37.9028C62.6806 36.8947 63.5019 36.0796 64.5177 36.0796Z" fill="#A4DFED"/>
<path fill-rule="evenodd" clip-rule="evenodd" d="M29.0949 54.2536C-0.463733 48.7055 -6.56566 41.5989 8.85125 41.0412C9.29791 24.9405 14.384 14.9312 23.5477 9.948C35.6868 3.34185 55.7719 10.2697 57.6522 25.9057C60.0008 45.3882 47.6529 57.7354 29.0949 54.2536Z" fill="url(#paint4_linear_78_172203)"/>
<path fill-rule="evenodd" clip-rule="evenodd" d="M0.689061 44.0086C0.350466 42.5215 2.63418 41.4491 7.46097 41.1202C16.3149 41.542 29.5922 43.2436 31.2851 43.3508C31.7318 43.3794 46.9758 45.1025 42.4156 47.0471C40.067 48.0409 9.60781 44.6735 0.689061 44.0086Z" fill="#FFCACE"/>
<path opacity="0.43" fill-rule="evenodd" clip-rule="evenodd" d="M24.2823 9.56899C36.4789 3.62059 55.8149 10.5771 57.6592 25.9056C59.3305 39.8258 53.5024 50.1068 43.2725 53.5671C51.9823 49.3847 56.7659 39.6756 55.2314 26.8923C53.5024 12.5503 36.4645 5.54381 24.2823 9.56899Z" fill="#FFCACE"/>
<path fill-rule="evenodd" clip-rule="evenodd" d="M61.377 60.4168C51.4713 59.5088 46.0105 55.3835 45.78 49.6424C48.4311 50.1286 51.2335 47.7478 50.1889 45.0024C55.1814 45.796 58.8411 48.5557 61.658 52.9884C63.3365 55.6409 65.541 56.649 67.2052 58.2147C69.0999 60.0021 66.4343 60.8815 61.377 60.4168Z" fill="url(#paint5_linear_78_172203)"/>
<path fill-rule="evenodd" clip-rule="evenodd" d="M61.377 60.4164C55.6353 59.8873 51.3848 58.2858 48.7841 55.905C53.1859 58.7291 65.0223 60.8454 65.2312 58.6076C65.3177 57.671 60.5917 53.3169 57.7389 49.2774C57.3787 48.7698 56.1612 47.4543 55.8946 47.0682C58.1495 48.4552 60.0442 50.4428 61.6507 52.988C63.3293 55.6405 65.5338 56.6486 67.1979 58.2143C69.0998 60.0017 66.4343 60.8811 61.377 60.4164Z" fill="white"/>
<path opacity="0.5" fill-rule="evenodd" clip-rule="evenodd" d="M57.7531 59.909C57.1912 59.8017 56.6509 59.673 56.125 59.5444C55.3109 58.9867 54.5401 58.3933 53.8125 57.7784C51.0893 55.4691 48.9569 52.7452 47.408 49.5994C47.6025 49.5565 47.7898 49.4993 47.9699 49.4278C49.4756 52.4663 51.5504 55.0973 54.1871 57.3351C55.2821 58.2574 56.4708 59.1154 57.7531 59.909ZM49.245 48.6485C52.0618 52.3162 55.102 55.2904 58.3583 57.5782C60.0297 58.7508 61.7514 59.7374 63.5381 60.5381C64.0496 60.5453 64.5178 60.531 64.9429 60.5024C62.7744 59.6301 60.6924 58.5005 58.6969 57.0992C55.4622 54.8328 52.4509 51.8729 49.6557 48.2195C49.5332 48.3768 49.3963 48.5126 49.245 48.6485ZM50.3112 46.9683C52.8903 48.9345 55.6855 50.8505 58.7113 52.7166C60.5844 53.8748 62.5439 55.0116 64.5971 56.1412C63.9775 55.6479 63.3508 55.1045 62.7528 54.4467C61.4705 53.7103 60.2242 52.9739 59.0139 52.2304C55.8945 50.3072 53.0272 48.3411 50.4049 46.3177C50.3977 46.5394 50.3689 46.761 50.3112 46.9683Z" fill="#6D67BB"/>
<path fill-rule="evenodd" clip-rule="evenodd" d="M9.43454 41.6204C9.20401 41.6061 9.03111 41.413 9.04552 41.1843C9.05992 40.9555 9.25444 40.7839 9.48497 40.7982C16.1272 41.22 21.9554 41.6919 26.9767 42.2209C31.998 42.75 36.2052 43.3291 39.5912 43.9654C39.8145 44.0083 39.9658 44.2228 39.9226 44.4516C39.8793 44.6732 39.6632 44.8234 39.4327 44.7805C36.0611 44.1513 31.8827 43.5722 26.883 43.0431C21.8977 42.5141 16.0768 42.0422 9.43454 41.6204Z" fill="#3A3099"/>
<path fill-rule="evenodd" clip-rule="evenodd" d="M41.6804 43.508C47.098 43.5651 51.5357 39.254 51.5934 33.8776C51.651 28.5011 47.3069 24.097 41.8893 24.0398C36.4718 23.9826 32.0341 28.2938 31.9764 33.6702C31.9116 39.0466 36.2629 43.4508 41.6804 43.508Z" fill="url(#paint6_linear_78_172203)"/>
<path fill-rule="evenodd" clip-rule="evenodd" d="M41.3785 40.126C45.2975 40.1689 48.5034 37.0518 48.5466 33.1624C48.5898 29.2731 45.4488 26.0916 41.5297 26.0487C37.6107 26.0058 34.4048 29.1229 34.3616 33.0123C34.3184 36.9016 37.4594 40.0832 41.3785 40.126Z" fill="white"/>
<path fill-rule="evenodd" clip-rule="evenodd" d="M42.3145 38.5105C45.5059 38.5463 48.1282 36.001 48.1571 32.8338C48.1859 29.6665 45.6284 27.0641 42.437 27.0355C39.2455 26.9998 36.6232 29.545 36.5944 32.7122C36.5583 35.8795 39.123 38.4748 42.3145 38.5105Z" fill="url(#paint7_linear_78_172203)"/>
<path fill-rule="evenodd" clip-rule="evenodd" d="M48.0273 31.5396C47.4654 28.9872 45.1817 27.064 42.4369 27.0354C40.1244 27.014 38.1144 28.3366 37.1707 30.2741C37.7326 32.8265 40.0163 34.7497 42.7611 34.7783C45.0736 34.7998 47.0836 33.4771 48.0273 31.5396Z" fill="url(#paint8_linear_78_172203)"/>
<path fill-rule="evenodd" clip-rule="evenodd" d="M42.3436 35.7008C43.9718 35.7151 45.3118 34.421 45.3262 32.7981C45.3406 31.1823 44.0366 29.8525 42.4013 29.8382C40.7731 29.8239 39.4332 31.1179 39.4188 32.7409C39.4043 34.3567 40.7155 35.6865 42.3436 35.7008Z" fill="#141414"/>
<path fill-rule="evenodd" clip-rule="evenodd" d="M39.988 35.9295C40.7373 35.9366 41.3568 35.336 41.364 34.5925C41.3713 33.8489 40.7661 33.2341 40.0169 33.2269C39.2676 33.2198 38.6481 33.8203 38.6409 34.5639C38.6337 35.3146 39.2388 35.9223 39.988 35.9295Z" fill="white"/>
<path fill-rule="evenodd" clip-rule="evenodd" d="M51.8532 31.7183C50.9022 27.0068 46.9039 23.2962 41.8322 22.8958C36.8397 22.5026 32.3515 25.4482 30.6081 29.8451C39.3972 30.46 46.4789 31.0891 51.8532 31.7183Z" fill="url(#paint9_linear_78_172203)"/>
<path fill-rule="evenodd" clip-rule="evenodd" d="M48.6259 25.913C46.8393 24.2185 44.4835 23.1032 41.8324 22.8959C39.6711 22.7243 37.6107 23.1819 35.8241 24.1042C36.2059 26.4349 39.1236 28.2509 42.6681 28.2509C45.2111 28.2437 47.4372 27.3071 48.6259 25.913Z" fill="url(#paint10_linear_78_172203)"/>
<path fill-rule="evenodd" clip-rule="evenodd" d="M17.0495 38.6104C21.7034 38.6604 25.5216 34.9498 25.5648 30.3312C25.6153 25.7126 21.8763 21.9234 17.2224 21.8805C12.5685 21.8305 8.75032 25.5411 8.7071 30.1596C8.66387 34.7711 12.3956 38.5603 17.0495 38.6104Z" fill="url(#paint11_linear_78_172203)"/>
<path fill-rule="evenodd" clip-rule="evenodd" d="M16.747 35.8506C20.1113 35.8863 22.8705 33.2053 22.9065 29.8664C22.9426 26.5276 20.241 23.7893 16.8767 23.7536C13.5123 23.7178 10.7531 26.3989 10.7171 29.7377C10.6811 33.0766 13.3826 35.8148 16.747 35.8506Z" fill="white"/>
<path fill-rule="evenodd" clip-rule="evenodd" d="M17.5394 34.5284C20.2266 34.557 22.4238 32.4193 22.4527 29.7597C22.4815 27.0929 20.3274 24.9123 17.6475 24.8837C14.9603 24.8551 12.7631 26.9928 12.7342 29.6524C12.7054 32.3192 14.8595 34.507 17.5394 34.5284Z" fill="url(#paint12_linear_78_172203)"/>
<path fill-rule="evenodd" clip-rule="evenodd" d="M22.337 28.6728C21.8615 26.5279 19.9452 24.9121 17.6398 24.8835C15.6947 24.8621 14.0089 25.9774 13.2165 27.6075C13.692 29.7524 15.6083 31.3682 17.9136 31.3968C19.8587 31.4182 21.5445 30.3029 22.337 28.6728Z" fill="url(#paint13_linear_78_172203)"/>
<path fill-rule="evenodd" clip-rule="evenodd" d="M17.5682 32.1688C18.9369 32.1831 20.0608 31.0893 20.0752 29.7309C20.0896 28.3724 18.9874 27.2571 17.6186 27.2428C16.2498 27.2285 15.1259 28.3224 15.1115 29.6808C15.0971 31.0464 16.1922 32.1617 17.5682 32.1688Z" fill="#141414"/>
<path fill-rule="evenodd" clip-rule="evenodd" d="M15.587 32.3689C16.221 32.3761 16.7397 31.8756 16.7397 31.2465C16.7469 30.6173 16.2426 30.1026 15.6086 30.1026C14.9746 30.0954 14.4559 30.5959 14.4559 31.225C14.4487 31.847 14.953 32.3618 15.587 32.3689Z" fill="white"/>
<path fill-rule="evenodd" clip-rule="evenodd" d="M25.745 28.6228C24.931 24.5762 21.4874 21.3875 17.1361 21.0372C12.8424 20.694 8.98815 23.2321 7.48969 27.007C15.0469 27.5432 21.1272 28.0795 25.745 28.6228Z" fill="url(#paint14_linear_78_172203)"/>
<path fill-rule="evenodd" clip-rule="evenodd" d="M22.5246 23.2318C21.0549 22.0021 19.1963 21.2013 17.1359 21.044C15.342 20.901 13.6202 21.2657 12.1218 22.0021C12.7918 23.8252 15.0322 25.1693 17.6978 25.1693C19.715 25.1693 21.4872 24.3971 22.5246 23.2318Z" fill="url(#paint15_linear_78_172203)"/>
<path fill-rule="evenodd" clip-rule="evenodd" d="M48.6612 19.707C49.4681 20.4506 48.9133 22.0163 47.7246 21.7947C46.1325 21.5016 43.4814 20.8152 39.9802 19.5426C38.8491 19.1351 39.728 16.2967 40.8663 16.2467C43.15 16.1537 47.0114 18.1985 48.6612 19.707Z" fill="#41399F"/>
<path fill-rule="evenodd" clip-rule="evenodd" d="M14.9316 16.2969C14.1608 17.0047 14.6867 18.4989 15.8321 18.2844C17.3522 18.0056 19.8809 17.3479 23.2236 16.1396C24.3042 15.7464 23.4613 13.0438 22.3807 12.9938C20.1907 12.9009 16.5021 14.8527 14.9316 16.2969Z" fill="#41399F"/>
<path fill-rule="evenodd" clip-rule="evenodd" d="M27.2366 12.2503C28.2812 11.1421 33.353 13.8089 29.1601 14.4595C26.3217 14.9028 26.9485 12.5577 27.2366 12.2503Z" fill="#FFCACE"/>
<path fill-rule="evenodd" clip-rule="evenodd" d="M33.8497 15.7466C34.8726 15.6536 36.3783 14.5741 35.4706 13.8019C32.661 11.4354 29.2678 16.1684 33.8497 15.7466Z" fill="#FFCACE"/>
<path fill-rule="evenodd" clip-rule="evenodd" d="M27.5679 15.7894C30.0677 14.7813 32.5532 17.8485 28.8286 17.9915C25.2409 18.1273 26.8186 16.0968 27.5679 15.7894Z" fill="#FFCACE"/>
<defs>
<linearGradient id="paint0_linear_78_172203" x1="85.334" y1="39.8753" x2="73.147" y2="40.2566" gradientUnits="userSpaceOnUse">
<stop stop-color="#A4DFED"/>
<stop offset="1" stop-color="#FFC8CC"/>
</linearGradient>
<linearGradient id="paint1_linear_78_172203" x1="45.5003" y1="63.5446" x2="31.2965" y2="54.6025" gradientUnits="userSpaceOnUse">
<stop stop-color="#A4DFED"/>
<stop offset="1" stop-color="#FFC8CC"/>
</linearGradient>
<linearGradient id="paint2_linear_78_172203" x1="54.6355" y1="16.0239" x2="49.3349" y2="20.947" gradientUnits="userSpaceOnUse">
<stop stop-color="#A4DFED"/>
<stop offset="1" stop-color="#FFC8CC"/>
</linearGradient>
<linearGradient id="paint3_linear_78_172203" x1="47.4849" y1="37.3992" x2="72.1241" y2="38.9006" gradientUnits="userSpaceOnUse">
<stop stop-color="#3D2A97"/>
<stop offset="1" stop-color="#6D67BB"/>
</linearGradient>
<linearGradient id="paint4_linear_78_172203" x1="39.7335" y1="48.3708" x2="20.5333" y2="20.2716" gradientUnits="userSpaceOnUse">
<stop stop-color="#7672C2"/>
<stop offset="1" stop-color="#F985AF"/>
</linearGradient>
<linearGradient id="paint5_linear_78_172203" x1="65.4619" y1="59.4473" x2="50.8231" y2="50.5966" gradientUnits="userSpaceOnUse">
<stop stop-color="#A4DFED"/>
<stop offset="1" stop-color="#FFC8CC"/>
</linearGradient>
<linearGradient id="paint6_linear_78_172203" x1="41.8344" y1="33.2826" x2="40.6555" y2="44.3269" gradientUnits="userSpaceOnUse">
<stop stop-color="#3D2A97"/>
<stop offset="1" stop-color="#6D67BB"/>
</linearGradient>
<linearGradient id="paint7_linear_78_172203" x1="37.6165" y1="32.3568" x2="50.6613" y2="33.5083" gradientUnits="userSpaceOnUse">
<stop stop-color="#E40069"/>
<stop offset="1" stop-color="#6D67BB"/>
</linearGradient>
<linearGradient id="paint8_linear_78_172203" x1="41.5455" y1="26.1073" x2="43.5758" y2="35.5016" gradientUnits="userSpaceOnUse">
<stop stop-color="#E40069"/>
<stop offset="1" stop-color="#E593CB"/>
</linearGradient>
<linearGradient id="paint9_linear_78_172203" x1="41.4549" y1="21.8418" x2="41.2136" y2="31.4868" gradientUnits="userSpaceOnUse">
<stop stop-color="#FFC8CC"/>
<stop offset="1" stop-color="#F985AF"/>
</linearGradient>
<linearGradient id="paint10_linear_78_172203" x1="42.9577" y1="18.9658" x2="41.5733" y2="30.5587" gradientUnits="userSpaceOnUse">
<stop stop-color="#F985AF"/>
<stop offset="1" stop-color="#FFF3B1"/>
</linearGradient>
<linearGradient id="paint11_linear_78_172203" x1="17.186" y1="29.8186" x2="16.173" y2="39.3091" gradientUnits="userSpaceOnUse">
<stop stop-color="#3D2A97"/>
<stop offset="1" stop-color="#6D67BB"/>
</linearGradient>
<linearGradient id="paint12_linear_78_172203" x1="13.5924" y1="29.3621" x2="24.5519" y2="30.3296" gradientUnits="userSpaceOnUse">
<stop stop-color="#E40069"/>
<stop offset="1" stop-color="#6D67BB"/>
</linearGradient>
<linearGradient id="paint13_linear_78_172203" x1="16.8929" y1="24.1117" x2="18.5987" y2="32.0042" gradientUnits="userSpaceOnUse">
<stop stop-color="#E40069"/>
<stop offset="1" stop-color="#E593CB"/>
</linearGradient>
<linearGradient id="paint14_linear_78_172203" x1="16.8131" y1="20.1381" x2="16.6058" y2="28.4268" gradientUnits="userSpaceOnUse">
<stop stop-color="#FFC8CC"/>
<stop offset="1" stop-color="#F985AF"/>
</linearGradient>
<linearGradient id="paint15_linear_78_172203" x1="17.8559" y1="17.9876" x2="16.8384" y2="26.9532" gradientUnits="userSpaceOnUse">
<stop stop-color="#F985AF"/>
<stop offset="1" stop-color="#FFF3B1"/>
</linearGradient>
</defs>
</svg>
