<svg width="121" height="43" viewBox="0 0 121 43" fill="none" xmlns="http://www.w3.org/2000/svg">
<path fill-rule="evenodd" clip-rule="evenodd" d="M101.693 17.1137C98.8549 20.3524 98.3002 20.9673 100.116 23.2194C104.762 28.9819 110.677 32.3922 114.74 32.2921C116.966 32.2349 111.779 26.5868 109.423 22.3972C113.688 17.271 123.183 4.13728 120.23 4.33747C114.56 4.70924 106.412 11.7301 101.693 17.1137Z" fill="url(#paint0_linear_78_171297)"/>
<path fill-rule="evenodd" clip-rule="evenodd" d="M101.693 17.1141C98.8549 20.3529 98.3002 20.9677 100.116 23.2198C102.032 25.5935 104.164 27.5667 106.29 29.061C107.781 28.3246 108.861 26.8589 108.588 25.4219C107.219 18.1651 104.337 22.3905 108.768 17.7647C114.084 12.2239 106.7 14.2043 101.787 16.9997L101.693 17.1141Z" fill="url(#paint1_linear_78_171297)"/>
<path opacity="0.6" fill-rule="evenodd" clip-rule="evenodd" d="M115.287 31.7634C115.28 31.5633 115.201 31.313 115.071 31.0199C113.544 30.2835 111.671 29.2683 109.653 28.0671C106.548 26.2154 103.616 23.4414 100.526 21.0821C100.396 20.982 100.216 21.0106 100.115 21.1321C100.014 21.2608 100.043 21.4395 100.166 21.5396C103.278 23.9133 106.224 26.7016 109.351 28.5605C111.591 29.8974 113.659 31.0127 115.287 31.7634ZM111.519 25.6292L111.375 25.5648C108.357 24.185 104.87 22.5978 102.183 21.5468C101.714 21.6469 101.261 21.7541 100.836 21.8614C100.677 21.9043 100.519 21.8113 100.483 21.654C100.447 21.5253 100.504 21.4038 100.612 21.3323C100.972 21.1107 101.347 20.8819 101.729 20.6459C101.693 20.6388 101.664 20.6173 101.635 20.5959C101.513 20.4958 101.491 20.3099 101.592 20.1884C104.755 16.3062 108.105 12.9745 111.476 10.2791C114.581 7.79111 117.701 5.8393 120.697 4.48804C120.791 4.61673 120.82 4.81691 120.784 5.08144C117.873 6.41125 114.848 8.31302 111.836 10.7296C108.558 13.3606 105.288 16.5922 102.204 20.36C104.783 18.8085 107.809 17.0783 111.08 15.3481C112.939 14.3687 114.869 13.382 116.836 12.4383C116.62 12.76 116.404 13.0818 116.18 13.4035C114.531 14.2114 112.91 15.0407 111.354 15.8629C108.076 17.6003 105.036 19.3376 102.442 20.8962C105.165 20.3242 108.479 19.8666 111.757 19.4663C111.591 19.6879 111.418 19.9024 111.26 20.1097C108.443 20.4601 105.626 20.8533 103.22 21.3252C105.554 22.276 108.35 23.5344 110.893 24.6926C111.087 25.0143 111.303 25.3217 111.519 25.6292Z" fill="#FFB8BC"/>
<path fill-rule="evenodd" clip-rule="evenodd" d="M99.2076 18.9299C71.0393 19.3231 57.2433 16.7922 59.8152 11.3442C63.4317 3.78719 78.9351 0.848736 77.2709 5.40298C76.3488 7.93391 79.8068 9.28517 84.2517 10.186C93.8693 12.145 98.7609 15.4552 99.2076 18.9299Z" fill="url(#paint2_linear_78_171297)"/>
<path fill-rule="evenodd" clip-rule="evenodd" d="M98.3145 18.944C70.7442 19.2729 57.2652 16.742 59.8083 11.3441C60.1324 10.672 60.5503 10.0357 61.0402 9.43515C61.3643 9.22781 61.7029 9.06337 62.0199 8.97043C69.1881 6.83987 71.0828 10.6649 77.4801 12.3807C81.2911 13.396 86.0098 13.8821 90.0225 14.5828C94.345 15.3335 97.414 17.1566 98.3145 18.944Z" fill="url(#paint3_linear_78_171297)"/>
<path fill-rule="evenodd" clip-rule="evenodd" d="M92.9402 18.9659H92.0973C92.933 18.158 93.8912 17.3358 94.9718 16.5136C95.5553 16.0703 96.1749 15.6199 96.8233 15.1623C96.9818 15.291 97.1258 15.4268 97.2699 15.5555C96.5855 16.0274 95.9372 16.4993 95.3248 16.964C94.4531 17.6432 93.6534 18.3081 92.9402 18.9659ZM87.2201 18.9015C89.3598 17.1427 91.7515 15.2195 94.273 13.475C94.0857 13.3749 93.8912 13.2748 93.6895 13.1747C91.0383 15.0265 88.5385 17.0569 86.334 18.8801C86.6222 18.8944 86.9175 18.9015 87.2201 18.9015ZM81.4712 18.7085C81.2623 18.7013 81.0534 18.687 80.8444 18.6799C80.8228 18.5798 80.8588 18.4797 80.9381 18.4082C82.9553 16.6351 84.8932 15.098 86.687 13.7825C87.782 12.9817 88.8194 12.2667 89.7992 11.6304C90.037 11.7091 90.2747 11.7877 90.5052 11.8664C89.4246 12.5599 88.2575 13.3463 87.0328 14.2472C85.2822 15.5269 83.4091 17.0069 81.4712 18.7085ZM76.0465 3.41565C76.3707 3.50144 76.6372 3.62299 76.8533 3.77313C74.3247 4.53097 71.868 5.55336 69.5123 6.88317C66.4073 8.62765 63.4752 10.9012 60.7736 13.7753C60.6656 13.8897 60.4783 13.8968 60.363 13.7896C60.2477 13.6824 60.2405 13.4965 60.3486 13.3821C63.0934 10.4651 66.0687 8.15578 69.2241 6.3827C71.4214 5.13868 73.6979 4.1592 76.0465 3.41565ZM77.1199 6.38985C75.8447 7.019 74.6056 7.74111 73.3737 8.5633C70.6361 10.3793 67.9274 12.6457 64.9016 15.3339C64.7792 15.4411 64.7719 15.6199 64.88 15.7414C64.9881 15.863 65.1682 15.8701 65.2906 15.7629C68.302 13.0889 70.9891 10.8368 73.6979 9.04232C74.8794 8.26302 76.0609 7.56952 77.2784 6.96181C77.1919 6.78307 77.1415 6.59003 77.1199 6.38985ZM80.2969 9.12811C79.2523 9.72867 78.2149 10.4079 77.1847 11.1657C74.9658 12.8101 72.7902 14.812 70.737 17.1141C70.6289 17.2357 70.6433 17.4144 70.7586 17.5216C70.8811 17.6289 71.0612 17.6146 71.1692 17.5002C73.1936 15.2267 75.3405 13.2534 77.5305 11.6304C78.6904 10.7725 79.8575 10.0218 81.0317 9.37834C80.7796 9.2997 80.5347 9.2139 80.2969 9.12811ZM85.4047 10.4365C84.4465 10.9798 83.4451 11.6233 82.4005 12.3668C80.4626 13.7538 78.4166 15.4912 76.3779 17.5431C76.2626 17.6575 76.2698 17.8434 76.3779 17.9506C76.4931 18.065 76.6804 18.0579 76.7885 17.9506C78.7984 15.9202 80.8228 14.2043 82.7319 12.8387C83.9566 11.9593 85.1381 11.2229 86.2404 10.6367C85.9738 10.5652 85.6928 10.5008 85.4047 10.4365Z" fill="#FFB8BC"/>
<path fill-rule="evenodd" clip-rule="evenodd" d="M86.7371 28.8248C84.5038 29.6685 81.1251 31.0412 79.922 31.6274C85.5916 33.758 97.3704 36.1388 99.5389 34.7589C101.52 33.5006 92.6733 30.3119 86.7371 28.8248Z" fill="url(#paint4_linear_78_171297)"/>
<path fill-rule="evenodd" clip-rule="evenodd" d="M86.7369 28.8248C84.9791 29.4897 82.5009 30.4835 80.9448 31.1627C80.7431 31.3701 80.5486 31.5917 80.3829 31.799C81.3915 32.1565 82.5513 32.5211 83.8049 32.8715C85.8941 32.5426 90.3534 32.1136 92.7524 30.6122C90.7425 29.9259 88.5956 29.2895 86.7369 28.8248Z" fill="url(#paint5_linear_78_171297)"/>
<path fill-rule="evenodd" clip-rule="evenodd" d="M85.5196 29.2969C85.2459 29.4042 84.9721 29.5114 84.6911 29.6258C89.1001 31.163 92.8534 32.4141 95.9368 33.3865C97.356 33.8297 98.624 34.2229 99.7622 34.5447C99.8703 34.3588 99.8199 34.1372 99.6254 33.9012C98.5735 33.5938 97.3993 33.2363 96.1169 32.8359C93.192 31.9137 89.6548 30.734 85.5196 29.2969ZM82.5515 30.4838C86.5426 31.928 90.1519 33.0933 93.3794 33.987C95.0363 34.4446 96.5852 34.8307 98.0404 35.1381C97.2912 35.2024 96.3475 35.1738 95.2813 35.088C94.6113 34.9165 93.9269 34.7377 93.2209 34.5447C89.8133 33.6009 85.9879 32.3641 81.759 30.8126C82.0184 30.7125 82.2777 30.5981 82.5515 30.4838Z" fill="#FFB8BC"/>
<path fill-rule="evenodd" clip-rule="evenodd" d="M71.7743 34.1085C65.694 36.4607 62.2576 37.7262 63.1293 38.8915C70.564 40.3215 86.442 41.4439 87.5658 39.8782C89.1291 37.7119 79.6701 35.4955 71.7743 34.1085Z" fill="url(#paint6_linear_78_171297)"/>
<path fill-rule="evenodd" clip-rule="evenodd" d="M71.7743 34.1085C65.694 36.4607 62.2576 37.7262 63.1293 38.8915C65.3626 39.3205 68.3595 39.7209 71.4933 40.0283C72.8837 39.6994 74.1012 39.1918 74.9297 38.5126C76.1112 37.5403 77.5592 36.5537 78.0059 35.3382C75.9671 34.8807 73.8203 34.466 71.7743 34.1085Z" fill="url(#paint7_linear_78_171297)"/>
<path fill-rule="evenodd" clip-rule="evenodd" d="M69.6777 34.9163L68.8781 35.2308C71.911 36.4177 75.4194 37.4043 78.9927 38.1264C81.9392 38.727 84.9361 39.1559 87.7385 39.3776C87.7313 39.1774 87.6377 38.9772 87.472 38.777C84.7848 38.5482 81.9248 38.1335 79.108 37.5616C75.794 36.8895 72.5378 35.9887 69.6777 34.9163ZM65.4705 36.6464C68.2297 37.6116 71.3923 38.4338 74.8863 39.1059C78.0129 39.7064 81.3989 40.1855 85.001 40.5501C83.8267 40.643 82.3354 40.6645 80.6569 40.6287C78.6109 40.357 76.6441 40.0353 74.7783 39.6778C71.0249 38.9557 67.6461 38.062 64.7357 37.0039C64.9662 36.8824 65.2111 36.768 65.4705 36.6464Z" fill="#FFB8BC"/>
<path fill-rule="evenodd" clip-rule="evenodd" d="M63.1363 11.6732C62.171 27.731 62.8338 36.5321 65.1319 38.0692C78.7334 34.0012 92.5653 28.5461 102.529 22.2331C105.727 20.2097 102.81 19.4805 101.866 19.266C96.7005 18.0577 84.3022 15.6126 63.1363 11.6732Z" fill="url(#paint8_linear_78_171297)"/>
<path fill-rule="evenodd" clip-rule="evenodd" d="M100.67 18.9872C99.6975 18.7727 98.5449 18.5225 97.2049 18.2437L96.3908 23.234L100.67 18.9872ZM93.9486 17.5788C92.4502 17.2785 90.786 16.9425 88.9561 16.585L90.1953 24.3351L93.9486 17.5788ZM85.6062 15.9272C83.8196 15.5841 81.9033 15.2123 79.8501 14.8191L82.4508 23.8918L85.6062 15.9272ZM76.4569 14.1756C74.0579 13.718 71.5005 13.239 68.7701 12.7242L73.496 24.7712L76.4569 14.1756Z" fill="url(#paint9_linear_78_171297)"/>
<path opacity="0.36" fill-rule="evenodd" clip-rule="evenodd" d="M102.118 22.4905C102.255 22.4047 102.392 22.3189 102.529 22.2331C103.566 21.5753 103.963 21.0534 103.984 20.6459C95.6634 19.8952 82.7607 19.888 65.2618 20.6244C63.7561 23.949 63.1294 25.9222 63.3815 26.5514C71.5871 26.6658 84.5041 25.3074 102.118 22.4905Z" fill="#F9E75A"/>
<path fill-rule="evenodd" clip-rule="evenodd" d="M3.62288 30.1477L0.301758 24.8714L21.0786 25.858C31.2725 18.3295 38.3037 11.9093 43.0224 9.5285C50.3995 5.8036 62.5961 7.93415 65.6291 12.0022C69.1591 16.7495 71.025 26.2226 70.7801 30.9699C70.5207 36.0675 65.5931 40.3429 59.1454 42.0231C47.4242 45.0759 27.339 35.5313 11.9365 31.1343L3.62288 30.1477Z" fill="url(#paint10_linear_78_171297)"/>
<path opacity="0.43" fill-rule="evenodd" clip-rule="evenodd" d="M70.3263 24.9355C70.6505 26.9159 70.809 28.7676 70.8018 30.2619C70.0021 31.0412 68.6189 31.6775 66.4577 32.0564C58.4899 33.4506 26.0711 36.0315 22.5483 27.9669C21.9864 26.68 23.0382 25.8506 23.6793 25.5003C35.3069 19.1444 52.8562 15.6268 65.4059 21.0462C67.0124 21.7397 69.0151 23.2411 70.3263 24.9355Z" fill="url(#paint11_linear_78_171297)"/>
<path d="M48.2883 22.2258C54.2684 22.2258 59.1162 17.4148 59.1162 11.4801C59.1162 5.5454 54.2684 0.734375 48.2883 0.734375C42.3083 0.734375 37.4605 5.5454 37.4605 11.4801C37.4605 17.4148 42.3083 22.2258 48.2883 22.2258Z" fill="url(#paint12_linear_78_171297)"/>
<path fill-rule="evenodd" clip-rule="evenodd" d="M48.6204 20.6743C52.9285 20.6743 56.4441 17.1854 56.4441 12.9099C56.4441 8.63453 52.9285 5.14557 48.6204 5.14557C44.3123 5.14557 40.7967 8.63453 40.7967 12.9099C40.7967 17.1854 44.3123 20.6743 48.6204 20.6743Z" fill="white"/>
<path fill-rule="evenodd" clip-rule="evenodd" d="M49.7152 19.609C53.1876 19.609 56.0188 16.7992 56.0188 13.3532C56.0188 9.90711 53.1876 7.09735 49.7152 7.09735C46.2428 7.09735 43.4115 9.90711 43.4115 13.3532C43.4187 16.7992 46.25 19.609 49.7152 19.609Z" fill="url(#paint13_linear_78_171297)"/>
<path fill-rule="evenodd" clip-rule="evenodd" d="M49.7149 7.10461C52.0274 7.10461 54.0518 8.34863 55.1468 10.1932C54.376 12.7813 51.9626 14.6688 49.1025 14.6688C46.7828 14.6688 44.7656 13.4248 43.6706 11.5802C44.4414 8.99209 46.862 7.10461 49.7149 7.10461Z" fill="url(#paint14_linear_78_171297)"/>
<path fill-rule="evenodd" clip-rule="evenodd" d="M49.8808 16.1058C51.4369 16.1058 52.7048 14.8475 52.7048 13.3032C52.7048 11.7589 51.4369 10.5006 49.8808 10.5006C48.3247 10.5006 47.0567 11.7589 47.0567 13.3032C47.0567 14.8475 48.3319 16.1058 49.8808 16.1058Z" fill="#141414"/>
<path fill-rule="evenodd" clip-rule="evenodd" d="M47.5898 12.9886C48.6272 12.9886 49.4701 12.1521 49.4701 11.1226C49.4701 10.0931 48.6272 9.25659 47.5898 9.25659C46.5524 9.25659 45.7095 10.0931 45.7095 11.1226C45.7095 12.1521 46.5524 12.9886 47.5898 12.9886Z" fill="white"/>
<path fill-rule="evenodd" clip-rule="evenodd" d="M60.0822 14.5399C58.9799 19.7305 54.5205 23.7771 48.9229 24.1632C43.4045 24.5421 38.4913 21.239 36.611 16.363C46.3222 15.7839 54.1459 15.1762 60.0822 14.5399Z" fill="url(#paint15_linear_78_171297)"/>
<path fill-rule="evenodd" clip-rule="evenodd" d="M37.4395 16.3203C46.1781 15.7912 53.3534 15.2335 58.9655 14.6616C57.1789 18.6438 53.2886 21.5394 48.5987 21.8611C43.9808 22.1757 39.7808 19.9165 37.4395 16.3203Z" fill="url(#paint16_linear_78_171297)"/>
<path fill-rule="evenodd" clip-rule="evenodd" d="M6.04327 26.1008C4.17739 23.7843 3.86041 16.0771 5.40931 10.4362C1.26691 13.7249 0.107043 20.5313 0.481659 24.9139C1.62712 25.7361 2.8086 24.7638 6.04327 26.1008Z" fill="white"/>
<path fill-rule="evenodd" clip-rule="evenodd" d="M7.3114 25.6647C8.83148 26.0364 10.366 26.0007 11.9221 25.536C11.2737 22.4831 10.3876 19.7234 9.27093 17.264C8.02461 20.1309 7.36903 22.9335 7.3114 25.6647Z" fill="white"/>
<path fill-rule="evenodd" clip-rule="evenodd" d="M14.062 25.7291C15.582 26.108 17.1165 26.0651 18.6726 25.6004C18.0242 22.5476 17.1381 19.7879 16.0215 17.3284C14.7824 20.1954 14.1268 22.9908 14.062 25.7291Z" fill="white"/>
<path fill-rule="evenodd" clip-rule="evenodd" d="M21.6403 25.6647C23.1604 26.0364 24.6949 26.0007 26.251 25.536C25.6026 22.4831 24.7165 19.7234 23.5999 17.264C22.3607 20.1309 21.7052 22.9335 21.6403 25.6647Z" fill="white"/>
<path fill-rule="evenodd" clip-rule="evenodd" d="M3.62288 30.1476L0.301758 24.8713L70.4991 26.0652C70.7513 27.9384 70.8521 29.64 70.7801 30.977C70.5207 36.0746 65.5931 40.35 59.1454 42.0301C46.0554 45.4404 8.47128 31.6347 3.62288 30.1476Z" fill="url(#paint17_linear_78_171297)"/>
<path fill-rule="evenodd" clip-rule="evenodd" d="M4.81879 24.9426L7.20336 24.9855L10.0202 32.2852C8.85312 31.8991 7.80851 31.5416 6.90079 31.2342L4.81879 24.9426ZM10.2363 25.0356L11 25.0499L14.9695 33.9153C13.7447 33.522 12.5849 33.136 11.497 32.7785L10.2363 25.0356ZM15.87 25.1357L16.612 25.15L21.0498 35.8242C19.6738 35.4095 18.341 34.9949 17.0587 34.5873L15.87 25.1357ZM21.3595 25.2286L22.1448 25.2429L27.2021 37.6259C25.7325 37.2112 24.2772 36.7894 22.8652 36.3676L21.3595 25.2286ZM26.9572 25.3215L28.643 38.0191C30.0261 38.398 31.4238 38.7698 32.8214 39.1273L27.6056 25.3359L26.9572 25.3215ZM32.807 25.4216L33.6787 25.4359L40.2056 40.836C38.3181 40.4499 36.3946 40.0067 34.4639 39.5348L32.807 25.4216ZM39.2547 25.5289L41.6609 41.122C43.4547 41.4723 45.1981 41.7654 46.8767 41.9942L40.22 25.5432L39.2547 25.5289ZM46.7902 25.6576L47.4098 25.6647L53.1371 42.5519C51.6963 42.5161 50.1474 42.3946 48.5192 42.2087L46.7902 25.6576ZM53.4829 25.772L54.1601 25.7863L59.1814 42.0157L59.1454 42.0228C57.755 42.3875 56.0836 42.5519 54.2105 42.559L53.4829 25.772ZM59.9378 25.8792L60.6799 25.8935L64.4909 39.8351C63.1869 40.6001 61.7317 41.2435 60.1756 41.7297L59.9378 25.8792ZM64.988 25.965L65.766 25.9793L69.2744 35.4381C68.3811 36.818 67.1204 38.0691 65.6003 39.1273L64.988 25.965Z" fill="url(#paint18_linear_78_171297)"/>
<path opacity="0.2" fill-rule="evenodd" clip-rule="evenodd" d="M3.59399 30.0976L2.29004 28.0313C10.1642 27.9885 26.8274 28.4603 44.7874 28.9036C69.7714 29.5113 70.2613 38.5197 44.809 36.3677C28.2034 34.9592 12.0445 32.0208 3.59399 30.0976Z" fill="#FDF3B1"/>
<defs>
<linearGradient id="paint0_linear_78_171297" x1="99.6853" y1="19.2318" x2="125.471" y2="17.8784" gradientUnits="userSpaceOnUse">
<stop stop-color="#5B0D08"/>
<stop offset="1" stop-color="#DF300E"/>
</linearGradient>
<linearGradient id="paint1_linear_78_171297" x1="105.691" y1="21.1672" x2="127.064" y2="25.6905" gradientUnits="userSpaceOnUse">
<stop stop-color="#5B0D08"/>
<stop offset="1" stop-color="#DF300E"/>
</linearGradient>
<linearGradient id="paint2_linear_78_171297" x1="79.2789" y1="16.1729" x2="81.3805" y2="1.87983" gradientUnits="userSpaceOnUse">
<stop stop-color="#DF300E"/>
<stop offset="1" stop-color="#FFB8BC"/>
</linearGradient>
<linearGradient id="paint3_linear_78_171297" x1="77.9422" y1="22.3132" x2="79.8591" y2="8.95381" gradientUnits="userSpaceOnUse">
<stop stop-color="#5B0D08"/>
<stop offset="1" stop-color="#DF300E"/>
</linearGradient>
<linearGradient id="paint4_linear_78_171297" x1="82.1159" y1="30.222" x2="103" y2="34.8565" gradientUnits="userSpaceOnUse">
<stop stop-color="#DF300E"/>
<stop offset="1" stop-color="#FFB8BC"/>
</linearGradient>
<linearGradient id="paint5_linear_78_171297" x1="85.9046" y1="35.0319" x2="87.0715" y2="28.2227" gradientUnits="userSpaceOnUse">
<stop stop-color="#5B0D08"/>
<stop offset="1" stop-color="#DF300E"/>
</linearGradient>
<linearGradient id="paint6_linear_78_171297" x1="67.9237" y1="36.7692" x2="91.9618" y2="38.797" gradientUnits="userSpaceOnUse">
<stop stop-color="#DF300E"/>
<stop offset="1" stop-color="#FFB8BC"/>
</linearGradient>
<linearGradient id="paint7_linear_78_171297" x1="69.2672" y1="42.7876" x2="71.2982" y2="32.9682" gradientUnits="userSpaceOnUse">
<stop stop-color="#5B0D08"/>
<stop offset="1" stop-color="#DF300E"/>
</linearGradient>
<linearGradient id="paint8_linear_78_171297" x1="68.0675" y1="24.6922" x2="111.11" y2="22.7305" gradientUnits="userSpaceOnUse">
<stop stop-color="#131313"/>
<stop offset="1" stop-color="#221A10"/>
</linearGradient>
<linearGradient id="paint9_linear_78_171297" x1="83.8782" y1="26.9427" x2="84.9608" y2="12.4408" gradientUnits="userSpaceOnUse">
<stop stop-color="#A50042"/>
<stop offset="1" stop-color="#FCCC00"/>
</linearGradient>
<linearGradient id="paint10_linear_78_171297" x1="35.3309" y1="29.7432" x2="38.657" y2="1.76714" gradientUnits="userSpaceOnUse">
<stop stop-color="#21190F"/>
<stop offset="1" stop-color="#7E6E67"/>
</linearGradient>
<linearGradient id="paint11_linear_78_171297" x1="28.7689" y1="27.9671" x2="78.4411" y2="23.3593" gradientUnits="userSpaceOnUse">
<stop stop-color="#131313"/>
<stop offset="1" stop-color="#221A10"/>
</linearGradient>
<linearGradient id="paint12_linear_78_171297" x1="40.3009" y1="11.7126" x2="62.7731" y2="11.0528" gradientUnits="userSpaceOnUse">
<stop stop-color="#131313"/>
<stop offset="1" stop-color="#221A10"/>
</linearGradient>
<linearGradient id="paint13_linear_78_171297" x1="43.8281" y1="13.7529" x2="58.2277" y2="12.7724" gradientUnits="userSpaceOnUse">
<stop stop-color="#5B0D08"/>
<stop offset="1" stop-color="#DF300E"/>
</linearGradient>
<linearGradient id="paint14_linear_78_171297" x1="48.8237" y1="13.2623" x2="50.6208" y2="5.91526" gradientUnits="userSpaceOnUse">
<stop stop-color="#DF300E"/>
<stop offset="1" stop-color="#FFB8BC"/>
</linearGradient>
<linearGradient id="paint15_linear_78_171297" x1="48.1599" y1="23.2899" x2="48.7034" y2="0.484211" gradientUnits="userSpaceOnUse">
<stop stop-color="#A6948C"/>
<stop offset="1" stop-color="#59452E"/>
</linearGradient>
<linearGradient id="paint16_linear_78_171297" x1="47.681" y1="25.2128" x2="48.6376" y2="6.95083" gradientUnits="userSpaceOnUse">
<stop stop-color="#59452E"/>
<stop offset="1" stop-color="#A6948C"/>
</linearGradient>
<linearGradient id="paint17_linear_78_171297" x1="34.7445" y1="43.729" x2="35.8166" y2="22.1234" gradientUnits="userSpaceOnUse">
<stop stop-color="#21190F"/>
<stop offset="1" stop-color="#7E6E67"/>
</linearGradient>
<linearGradient id="paint18_linear_78_171297" x1="36.232" y1="49.0656" x2="37.9336" y2="9.14039" gradientUnits="userSpaceOnUse">
<stop stop-color="#59452E"/>
<stop offset="1" stop-color="#A6948C"/>
</linearGradient>
</defs>
</svg>
