<svg width="75" height="62" viewBox="0 0 75 62" fill="none" xmlns="http://www.w3.org/2000/svg">
<path fill-rule="evenodd" clip-rule="evenodd" d="M64.2508 35.5273C66.8947 37.0358 71.3901 38.5658 74.4159 39.102C72.5356 36.3566 72.2906 33.0178 74.4879 30.0936C72.7445 29.0141 70.6625 24.5671 72.8237 21.4213C69.8196 20.9995 67.3126 19.0405 67.0172 14.858C65.1585 17.9895 63.2566 20.7707 61.6501 22.3007C61.9959 29.586 64.1067 34.3548 64.2508 35.5273Z" fill="url(#paint0_linear_78_172244)"/>
<path fill-rule="evenodd" clip-rule="evenodd" d="M73.1406 38.8375C73.5872 38.9376 74.0123 39.0305 74.4157 39.102C72.5355 36.3566 72.2905 33.0178 74.4878 30.0936C72.7444 29.0141 70.6624 24.5671 72.8236 21.4213C69.8195 20.9995 67.3124 19.0405 67.017 14.858C66.909 15.0368 66.8009 15.2155 66.7001 15.3942C66.4479 18.4185 67.9392 20.6563 71.1955 22.1148C70.122 25.3178 70.7128 27.9559 72.9677 30.015C71.6781 33.9115 71.743 36.8571 73.1406 38.8375Z" fill="#FFCF90"/>
<path fill-rule="evenodd" clip-rule="evenodd" d="M72.9534 35.2128C72.9318 35.0197 72.9245 34.8195 72.9245 34.6194C72.5139 34.555 72.0889 34.4835 71.6494 34.3977C69.3369 33.9687 66.6569 33.3253 63.6096 32.4673C63.5303 32.4459 63.4511 32.4602 63.3862 32.496C63.4439 32.689 63.4943 32.8749 63.5519 33.0536C66.5705 33.9044 69.236 34.5407 71.5413 34.9697C72.024 35.0555 72.4995 35.1413 72.9534 35.2128ZM74.2645 30.4011C74.3366 30.2939 74.4086 30.1938 74.4878 30.0866C74.3654 30.0151 74.2501 29.9221 74.1276 29.8149C73.1983 29.8077 72.1825 29.8149 71.0731 29.822C68.7245 29.8506 65.9869 29.9221 62.8531 30.0294C62.8171 30.0294 62.7739 30.0365 62.7451 30.058C62.7883 30.2438 62.8315 30.4297 62.8819 30.6085C66.0157 30.4941 68.7533 30.4297 71.0803 30.4011C72.2402 30.4011 73.2992 30.394 74.2645 30.4011ZM71.9159 24.9961C71.9015 24.7959 71.8944 24.5957 71.9016 24.3955C71.1595 24.6029 70.4103 24.8245 69.6466 25.0676C67.5646 25.7396 65.3962 26.5619 63.1341 27.5413C62.99 27.6057 62.9179 27.7773 62.9828 27.9203C63.0476 28.0633 63.2205 28.1347 63.3646 28.0704C65.6051 27.0981 67.7592 26.283 69.8196 25.6181C70.5328 25.3965 71.2315 25.1891 71.9159 24.9961ZM69.3153 19.9343C68.5084 20.6349 67.7015 21.3355 66.8802 22.029C65.5187 23.1944 64.1499 24.3526 62.7739 25.5037C62.6514 25.6038 62.4641 25.5895 62.3633 25.468C62.2624 25.3464 62.2768 25.1605 62.3993 25.0605C63.8041 23.8808 65.1729 22.7297 66.4984 21.5929C67.3053 20.8994 68.0978 20.2131 68.883 19.5339C69.0271 19.6769 69.164 19.8056 69.3153 19.9343Z" fill="#F4980D"/>
<path fill-rule="evenodd" clip-rule="evenodd" d="M13.5263 26.3546C13.5984 32.3816 12.5033 35.9207 11.1417 37.4292C7.9863 36.9573 4.92453 36.464 1.97082 35.9636C2.06448 33.2038 1.47375 29.6434 0.198608 27.9918C3.05146 26.9909 4.29777 24.7674 3.4837 20.7565C7.13621 22.2007 10.2988 24.1454 13.5263 26.3546Z" fill="url(#paint1_linear_78_172244)"/>
<path fill-rule="evenodd" clip-rule="evenodd" d="M2.44631 36.0494L1.96364 35.9708C2.05729 33.211 1.46654 29.6506 0.191406 27.999C3.04425 26.9981 4.29058 24.7746 3.47651 20.7637C3.59178 20.8066 3.71424 20.8567 3.82951 20.9067C5.49367 24.0239 4.67241 26.5048 1.3729 28.3422C2.56879 31.0662 2.92899 33.6329 2.44631 36.0494Z" fill="#FFCF90"/>
<path fill-rule="evenodd" clip-rule="evenodd" d="M13.4902 28.6137C13.483 28.8282 13.4686 29.0355 13.4614 29.2428C11.9269 28.4778 10.27 27.7557 8.47613 27.0622C6.86239 26.4402 5.13339 25.8468 3.30353 25.2892C3.37558 25.1176 3.44043 24.9317 3.49806 24.7386C5.33512 25.3035 7.06411 25.8969 8.69225 26.5189C10.4068 27.1909 12.0134 27.8844 13.4902 28.6137ZM13.094 32.4959C13.058 32.6889 13.022 32.8819 12.9859 33.0678C10.1331 32.5173 7.44593 32.1384 4.92447 31.9311C3.79342 31.8381 2.69839 31.7809 1.63217 31.7523C1.59615 31.5521 1.55293 31.3591 1.5097 31.1661C2.62635 31.1875 3.78623 31.2519 4.97491 31.352C7.51078 31.5593 10.2195 31.9454 13.094 32.4959Z" fill="#F4980D"/>
<path fill-rule="evenodd" clip-rule="evenodd" d="M39.8428 58.8705C19.5343 55.9893 10.1112 46.8879 11.5881 31.5594C12.6615 18.5973 19.1164 11.1975 30.9673 9.3887C48.848 6.66474 64.9349 13.4782 66.916 30.2367C69.0989 48.7253 58.4728 58.3843 39.8428 58.8705Z" fill="url(#paint2_linear_78_172244)"/>
<path fill-rule="evenodd" clip-rule="evenodd" d="M27.2792 25.2247C29.6638 25.2247 31.5945 27.1408 31.5945 29.5073C31.5945 31.8738 29.6638 33.7898 27.2792 33.7898C24.8946 33.7898 22.9639 31.8738 22.9639 29.5073C22.9639 27.1408 24.8946 25.2247 27.2792 25.2247ZM19.7653 13.8927C21.9841 12.1554 24.6353 10.8756 27.7403 10.0534C28.7489 10.9257 29.3828 12.2126 29.3828 13.6425C29.3828 16.2807 27.2288 18.4184 24.5704 18.4184C21.9986 18.4255 19.8949 16.4165 19.7653 13.8927ZM44.915 9.29559C46.0533 9.47433 47.1699 9.70312 48.2577 9.9748C49.3456 10.7398 50.0588 11.9981 50.0588 13.428C50.0588 15.7588 48.1497 17.6534 45.8011 17.6534C43.4526 17.6534 41.5434 15.7588 41.5434 13.428C41.5434 11.3976 42.9915 9.70312 44.915 9.29559ZM56.2039 13.2493C58.6749 14.7578 60.8146 16.6453 62.5364 18.9188C61.8736 19.2978 61.11 19.5194 60.2959 19.5194C57.8249 19.5194 55.8149 17.5318 55.8149 15.0724C55.8149 14.429 55.9518 13.8069 56.2039 13.2493ZM66.8805 30.0077C66.8877 30.0864 66.9021 30.165 66.9093 30.2437C67.356 34.0186 67.2695 37.4218 66.686 40.4532C66.4915 40.4746 66.2898 40.4889 66.0952 40.4889C63.1631 40.4889 60.7858 38.1296 60.7858 35.2197C60.7858 32.3099 63.1631 29.9505 66.0952 29.9505C66.3618 29.9505 66.6283 29.9648 66.8805 30.0077ZM35.7945 16.3379C37.3218 16.3379 38.5609 17.5676 38.5609 19.0833C38.5609 20.599 37.3218 21.8287 35.7945 21.8287C34.2672 21.8287 33.0281 20.599 33.0281 19.0833C33.0281 17.5676 34.2672 16.3379 35.7945 16.3379ZM55.5916 23.802C57.299 23.802 58.6894 25.1747 58.6894 26.8763C58.6894 28.5707 57.3062 29.9505 55.5916 29.9505C53.8842 29.9505 52.4938 28.5778 52.4938 26.8763C52.4938 25.1747 53.8842 23.802 55.5916 23.802ZM54.4821 36.5353C57.1117 36.5353 59.2369 38.6515 59.2369 41.2539C59.2369 43.8635 57.1044 45.9726 54.4821 45.9726C51.8526 45.9726 49.7274 43.8564 49.7274 41.2539C49.7274 38.6444 51.8598 36.5353 54.4821 36.5353Z" fill="#F8E12B"/>
<path fill-rule="evenodd" clip-rule="evenodd" d="M40.6425 39.3739C45.8511 39.3739 50.0944 35.1628 50.0944 29.9937C50.0944 24.8246 45.8511 20.6135 40.6425 20.6135C35.4339 20.6135 31.1907 24.8246 31.1907 29.9937C31.1907 35.1556 35.4411 39.3739 40.6425 39.3739Z" fill="url(#paint3_linear_78_172244)"/>
<path fill-rule="evenodd" clip-rule="evenodd" d="M40.2828 38.7374C44.4829 38.7374 47.912 35.2771 47.912 31.0302C47.912 26.7834 44.4829 23.3231 40.2828 23.3231C36.0828 23.3231 32.6536 26.7834 32.6536 31.0302C32.6536 35.2771 36.0828 38.7374 40.2828 38.7374Z" fill="#632501"/>
<path fill-rule="evenodd" clip-rule="evenodd" d="M40.1459 38.1439C43.9065 38.1439 46.9754 35.0982 46.9754 31.3662C46.9754 27.6341 43.9065 24.5884 40.1459 24.5884C36.3853 24.5884 33.3163 27.6341 33.3163 31.3662C33.3163 35.0982 36.3853 38.1439 40.1459 38.1439Z" fill="white"/>
<path d="M41.2263 37.5363C44.3456 37.5363 46.8743 35.0268 46.8743 31.9311C46.8743 28.8354 44.3456 26.3259 41.2263 26.3259C38.1069 26.3259 35.5782 28.8354 35.5782 31.9311C35.5782 35.0268 38.1069 37.5363 41.2263 37.5363Z" fill="url(#paint4_linear_78_172244)"/>
<path fill-rule="evenodd" clip-rule="evenodd" d="M41.2262 26.3259C43.4091 26.3259 45.3037 27.5556 46.2403 29.3501C45.2893 31.1232 43.4091 32.3243 41.2478 32.3243C39.0649 32.3243 37.1702 31.0946 36.2337 29.3001C37.1919 27.5341 39.0649 26.3259 41.2262 26.3259Z" fill="url(#paint5_linear_78_172244)"/>
<path d="M18.9725 34.0188C23.2854 34.0188 26.7818 30.549 26.7818 26.2687C26.7818 21.9885 23.2854 18.5187 18.9725 18.5187C14.6595 18.5187 11.1631 21.9885 11.1631 26.2687C11.1631 30.549 14.6595 34.0188 18.9725 34.0188Z" fill="url(#paint6_linear_78_172244)"/>
<path d="M19.9205 32.9903C23.3149 32.3796 25.5677 29.1537 24.9523 25.7851C24.3369 22.4164 21.0863 20.1807 17.6919 20.7914C14.2975 21.4022 12.0447 24.6281 12.6601 27.9967C13.2755 31.3654 16.5261 33.6011 19.9205 32.9903Z" fill="#632501"/>
<path d="M23.803 29.454C24.9952 26.5975 23.6284 23.3227 20.7501 22.1395C17.8718 20.9563 14.572 22.3127 13.3798 25.1692C12.1875 28.0256 13.5543 31.3004 16.4326 32.4836C19.3109 33.6668 22.6107 32.3104 23.803 29.454Z" fill="white"/>
<path fill-rule="evenodd" clip-rule="evenodd" d="M18.9512 32.8749C21.451 32.8749 23.4898 30.8516 23.4898 28.3707C23.4898 25.8898 21.451 23.8665 18.9512 23.8665C16.4513 23.8665 14.4125 25.8898 14.4125 28.3707C14.4125 30.8516 16.4513 32.8749 18.9512 32.8749Z" fill="url(#paint7_linear_78_172244)"/>
<path fill-rule="evenodd" clip-rule="evenodd" d="M18.9513 23.8664C20.7019 23.8664 22.2292 24.853 22.9784 26.2972C22.2148 27.72 20.7091 28.6852 18.9729 28.6852C17.2223 28.6852 15.695 27.6985 14.9458 26.2543C15.7094 24.8316 17.2151 23.8664 18.9513 23.8664Z" fill="url(#paint8_linear_78_172244)"/>
<path fill-rule="evenodd" clip-rule="evenodd" d="M18.9946 30.1508C20.2121 30.1508 21.2062 29.1642 21.2062 27.9559C21.2062 26.7476 20.2121 25.761 18.9946 25.761C17.7771 25.761 16.7829 26.7476 16.7829 27.9559C16.7829 29.1642 17.7771 30.1508 18.9946 30.1508Z" fill="#141414"/>
<path fill-rule="evenodd" clip-rule="evenodd" d="M17.5319 27.8988C18.1658 27.8988 18.6773 27.384 18.6773 26.762C18.6773 26.1329 18.1586 25.6252 17.5319 25.6252C16.8979 25.6252 16.3864 26.14 16.3864 26.762C16.3864 27.384 16.9051 27.8988 17.5319 27.8988Z" fill="white"/>
<path fill-rule="evenodd" clip-rule="evenodd" d="M7.28003 30.9657C12.7048 27.0477 18.1079 31.123 21.9117 36.3922C25.7155 41.6685 29.7426 50.2694 25.0599 53.5939C20.3772 56.9256 9.54933 56.039 5.28446 49.0611C1.0196 42.0903 1.8625 34.8836 7.28003 30.9657Z" fill="url(#paint9_linear_78_172244)"/>
<path fill-rule="evenodd" clip-rule="evenodd" d="M16.7967 32.2531C20.089 34.5838 21.2777 38.9951 19.2749 41.7834C17.2722 44.5717 12.82 44.5931 9.52768 42.2624C6.23538 39.9316 5.19076 35.7849 7.19352 32.9966C9.19628 30.2083 13.5044 29.9223 16.7967 32.2531Z" fill="white"/>
<path fill-rule="evenodd" clip-rule="evenodd" d="M25.4927 41.54C27.6035 45.2863 27.2073 47.6385 24.3112 48.5894C21.0838 52.9506 11.5094 48.0103 19.2827 43.1843C11.9345 34.9981 25.68 32.9391 25.4927 41.54Z" fill="#E23810"/>
<path fill-rule="evenodd" clip-rule="evenodd" d="M24.2175 42.827C23.0864 40.196 19.333 40.4033 21.2421 43.2417C21.4078 43.4919 19.859 44.4142 20.7018 45.5367C21.415 46.4947 24.4912 45.651 24.0734 43.6277C24.059 43.5491 24.2391 42.8842 24.2175 42.827Z" fill="#9F2409"/>
<path fill-rule="evenodd" clip-rule="evenodd" d="M58.4513 14.801C45.3326 7.41552 31.587 11.6051 27.9561 20.9924C27.1637 14.0646 24.5341 8.41645 20.5286 6.30734C26.5081 7.70864 32.0841 5.22776 33.3592 0.00146484C35.643 5.04903 41.7881 5.39219 45.6063 3.0829C46.3123 6.67911 50.9374 8.5094 54.9141 6.1715C54.7412 11.0904 58.509 12.1842 61.3042 11.5122C60.1947 12.5918 59.0637 14.322 58.4513 14.801Z" fill="url(#paint10_linear_78_172244)"/>
<path fill-rule="evenodd" clip-rule="evenodd" d="M22.0631 7.33686C21.5804 6.93649 21.0689 6.58617 20.5286 6.30734C26.5081 7.70864 32.0841 5.22776 33.3592 0.00146484C35.643 5.04902 41.7881 5.39219 45.6063 3.0829C46.3123 6.6791 50.9374 8.5094 54.9141 6.1715C54.7412 11.0904 58.509 12.1842 61.3042 11.5122C60.9008 11.9126 60.4901 12.3916 60.1083 12.8706C57.0465 12.9707 54.453 10.9688 53.8263 7.85164C51.2832 9.47458 46.6725 8.19481 45.3109 4.99897C40.7219 6.64336 36.1833 5.54234 33.6978 2.03908C31.7095 6.22155 26.6738 8.2806 22.0631 7.33686Z" fill="#FFCF90"/>
<path fill-rule="evenodd" clip-rule="evenodd" d="M56.8449 13.9499C56.6648 13.8641 56.4919 13.7783 56.3118 13.6997C56.4847 13.4352 56.6576 13.1706 56.8161 12.8989C57.1331 12.3699 57.4141 11.8265 57.659 11.276C57.8391 11.3547 58.0264 11.419 58.2137 11.469C57.9544 12.0553 57.6518 12.6273 57.3204 13.1921C57.1691 13.4423 57.0106 13.6997 56.8449 13.9499ZM52.9619 12.3699C52.7746 12.3055 52.5873 12.2483 52.4 12.1912C52.6377 11.6478 52.8538 11.0687 53.0483 10.4681C53.4302 9.30274 53.7327 8.02298 53.9633 6.64312C54.1794 6.55018 54.3883 6.45008 54.6044 6.33569C54.3595 7.90143 54.0281 9.3385 53.6031 10.6397C53.4086 11.2474 53.1924 11.8194 52.9619 12.3699ZM49.1653 11.4118C48.9708 11.3761 48.7763 11.3475 48.589 11.3189C48.7186 10.8399 48.8123 10.3537 48.8843 9.85326C49.014 8.88808 49.0356 7.87285 48.942 6.81472C49.1365 6.88621 49.3382 6.95056 49.5399 7.00775C49.612 8.02298 49.5831 9.00247 49.4607 9.93906C49.3886 10.4324 49.2878 10.9328 49.1653 11.4118ZM44.3529 11.0258C44.1584 11.0329 43.9567 11.0329 43.7622 11.0472C43.8054 10.604 43.8414 10.1464 43.8702 9.67453C43.9711 7.94434 43.9783 6.01397 43.8919 3.88342C44.0864 3.81192 44.2809 3.74042 44.4682 3.66177C44.569 5.89242 44.5618 7.9086 44.4538 9.71027C44.425 10.1607 44.3889 10.604 44.3529 11.0258ZM40.0953 11.5048C39.9008 11.5477 39.7062 11.5906 39.5117 11.6406C39.5045 11.1473 39.4757 10.6468 39.4325 10.1249C39.2812 8.30895 38.9066 6.31424 38.3086 4.15508C38.5176 4.21228 38.7337 4.25518 38.9498 4.29807C39.5045 6.37858 39.8647 8.30896 40.0088 10.0749C40.0592 10.5682 40.0809 11.0401 40.0953 11.5048ZM35.7007 12.9776C35.5134 13.0634 35.3261 13.1563 35.146 13.2564C34.9731 11.755 34.6633 10.3037 34.2239 8.90951C33.6115 6.98629 32.747 5.16318 31.6232 3.43299C31.7528 3.2757 31.8825 3.11842 32.005 2.95398C33.2153 4.77711 34.1374 6.70747 34.7858 8.73793C35.2108 10.1035 35.5206 11.5191 35.7007 12.9776ZM31.1045 16.1949C30.9316 16.3665 30.7659 16.5381 30.6074 16.7168C30.3408 15.2083 29.9446 13.7354 29.4259 12.3055C28.6839 10.2608 27.6753 8.30182 26.4146 6.4215C26.6163 6.3786 26.818 6.32855 27.0125 6.27135C28.2444 8.13737 29.2314 10.082 29.9734 12.1054C30.4561 13.4352 30.8379 14.7936 31.1045 16.1949Z" fill="#F4980D"/>
<path fill-rule="evenodd" clip-rule="evenodd" d="M57.1617 49.6549C56.8231 53.866 57.2337 57.6624 57.4715 59.9145C58.408 57.7124 62.9034 55.732 66.4911 57.834C67.0026 54.6453 68.1552 52.815 71.5628 51.3208C69.8987 49.1545 70.0139 45.3223 72.6002 42.2194C69.3367 42.055 65.4393 42.248 60.9151 42.8057C62.9394 45.644 59.9785 49.7479 57.1617 49.6549Z" fill="url(#paint11_linear_78_172244)"/>
<path fill-rule="evenodd" clip-rule="evenodd" d="M57.4138 59.3924L57.4715 59.9143C58.408 57.7123 62.9034 55.7318 66.4911 57.8338C67.0026 54.6451 68.1552 52.8148 71.5628 51.3206C69.8986 49.1543 70.0139 45.3221 72.6002 42.2193L72.5065 42.2121C69.8626 44.3141 68.9837 47.1953 69.8698 50.863C67.6221 52.4359 66.3326 54.2948 66.0012 56.4611C62.2334 55.7747 59.3806 56.7542 57.4138 59.3924Z" fill="#FFCF90"/>
<path fill-rule="evenodd" clip-rule="evenodd" d="M61.8661 57.0545C62.0606 57.0187 62.2623 56.9901 62.4641 56.9758C62.2479 56.4467 62.0246 55.8962 61.8013 55.31C61.0736 53.4368 60.2884 51.2919 59.4527 48.8611C59.287 48.9827 59.1213 49.0899 58.9484 49.1828C59.7697 51.5565 60.5405 53.6656 61.2537 55.5173C61.4627 56.0535 61.6644 56.5611 61.8661 57.0545ZM67.3989 54.7952C66.7505 54.2733 66.095 53.687 65.4178 53.0436C63.8905 51.5851 62.2911 49.7977 60.6054 47.6957C60.7278 47.5313 60.8359 47.3597 60.9368 47.181C62.6442 49.3258 64.2795 51.1418 65.8212 52.6218C66.4624 53.2295 67.0819 53.7871 67.6943 54.2804C67.5934 54.4449 67.4926 54.6165 67.3989 54.7952ZM70.4535 47.946C70.4463 47.7529 70.4535 47.5528 70.4607 47.3526C69.1063 47.0451 67.8383 46.7163 66.6569 46.3802C64.7189 45.8226 63.026 45.2292 61.5635 44.5857C61.5779 44.793 61.5779 45.0075 61.5635 45.2149C62.99 45.8226 64.6325 46.3945 66.4912 46.9307C67.7231 47.2882 69.0415 47.6242 70.4535 47.946Z" fill="#F4980D"/>
<path fill-rule="evenodd" clip-rule="evenodd" d="M38.4956 34.3477C47.4432 34.3477 55.2885 40.7894 55.2885 48.3679C55.2885 55.9464 47.2991 61.6517 38.3515 61.6517C29.4039 61.6517 22.1494 55.5032 22.1494 47.9247C22.1494 40.3462 29.548 34.3477 38.4956 34.3477Z" fill="url(#paint12_linear_78_172244)"/>
<path fill-rule="evenodd" clip-rule="evenodd" d="M37.0692 35.2271C41.4782 35.2271 45.3468 38.4015 45.3468 42.1407C45.3468 45.8799 41.4061 48.6897 36.9972 48.6897C32.5882 48.6897 29.0078 45.6583 29.0078 41.9191C29.0078 38.187 32.6531 35.2271 37.0692 35.2271Z" fill="white"/>
<path fill-rule="evenodd" clip-rule="evenodd" d="M50.5338 19.3908C49.5612 20.1344 50.8147 21.264 51.5279 20.6778C52.025 20.2702 53.0264 19.1335 54.2367 17.5248C54.4024 17.3032 54.1286 16.9743 53.7612 17.2174C52.1763 18.2612 51.8233 18.4114 50.5338 19.3908Z" fill="#903E00"/>
<path fill-rule="evenodd" clip-rule="evenodd" d="M55.815 25.6324C54.6119 25.8898 55.2602 27.4412 56.1608 27.2196C56.7875 27.0623 58.1779 26.4617 59.9645 25.518C60.2095 25.3893 60.1014 24.9746 59.6692 25.039C57.7817 25.3035 57.3927 25.2892 55.815 25.6324Z" fill="#903E00"/>
<path fill-rule="evenodd" clip-rule="evenodd" d="M55.4043 32.9106C54.23 32.546 54.0283 34.2189 54.9144 34.4549C55.5339 34.6265 57.0468 34.7766 59.0712 34.8266C59.3521 34.8338 59.4602 34.4191 59.0568 34.2618C57.2774 33.5898 56.9532 33.3896 55.4043 32.9106Z" fill="#903E00"/>
<path fill-rule="evenodd" clip-rule="evenodd" d="M58.3431 19.441C57.2264 19.9486 58.1918 21.3285 59.0203 20.9138C59.5966 20.6278 60.8285 19.7484 62.3702 18.44C62.5791 18.2613 62.3918 17.8752 61.9812 18.0325C60.1945 18.7046 59.8199 18.7689 58.3431 19.441Z" fill="#903E00"/>
<path fill-rule="evenodd" clip-rule="evenodd" d="M61.4775 29.6575C60.2528 29.5574 60.4185 31.2303 61.3407 31.2732C61.989 31.3018 63.4947 31.1303 65.4831 30.7442C65.7568 30.6941 65.7784 30.2652 65.3462 30.2008C63.4587 29.9148 63.0913 29.7861 61.4775 29.6575Z" fill="#903E00"/>
<path fill-rule="evenodd" clip-rule="evenodd" d="M61.7006 38.4372C60.5119 38.1298 60.3822 39.8028 61.2828 40.0029C61.9095 40.1459 63.4296 40.2389 65.454 40.196C65.7349 40.1888 65.8286 39.7742 65.4107 39.6383C63.6025 39.0306 63.2639 38.8447 61.7006 38.4372Z" fill="#903E00"/>
<path fill-rule="evenodd" clip-rule="evenodd" d="M56.4917 42.5626C55.5264 41.8119 54.7411 43.3061 55.4832 43.8424C56.0091 44.2213 57.3634 44.8933 59.2437 45.6512C59.5031 45.7584 59.7552 45.4081 59.431 45.1221C58.0046 43.8566 57.7741 43.5492 56.4917 42.5626Z" fill="#903E00"/>
<path fill-rule="evenodd" clip-rule="evenodd" d="M40.3542 16.5667C40.0373 17.7464 41.7302 17.8751 41.932 16.9814C42.076 16.3594 42.1697 14.8508 42.1337 12.8418C42.1265 12.563 41.7086 12.47 41.5645 12.8847C40.9594 14.6792 40.7721 15.0153 40.3542 16.5667Z" fill="#903E00"/>
<path fill-rule="evenodd" clip-rule="evenodd" d="M47.2778 13.8714C46.6078 14.8938 48.1711 15.5444 48.6466 14.7579C48.978 14.2074 49.5399 12.8133 50.1451 10.89C50.2243 10.6255 49.8569 10.4039 49.5975 10.7542C48.4449 12.2627 48.1567 12.5201 47.2778 13.8714Z" fill="#903E00"/>
<path fill-rule="evenodd" clip-rule="evenodd" d="M32.7252 19.9197C32.5018 21.1209 34.1948 21.128 34.3317 20.22C34.4253 19.5837 34.4109 18.0823 34.2236 16.0805C34.1948 15.8088 33.7698 15.7444 33.6617 16.1591C33.1862 17.9965 33.0277 18.3397 32.7252 19.9197Z" fill="#903E00"/>
<path fill-rule="evenodd" clip-rule="evenodd" d="M21.8618 15.4013C22.1716 16.581 23.7061 15.8732 23.4468 14.9938C23.2667 14.379 22.6039 13.0277 21.5737 11.2904C21.4296 11.0544 21.0189 11.176 21.0982 11.5978C21.4584 13.4638 21.4584 13.8428 21.8618 15.4013Z" fill="#903E00"/>
<path fill-rule="evenodd" clip-rule="evenodd" d="M28.1937 28.3706C27.9703 29.5717 29.6633 29.5789 29.8002 28.6709C29.8939 28.0346 29.8794 26.5332 29.6921 24.5313C29.6633 24.2596 29.2383 24.1953 29.1302 24.61C28.6547 26.4474 28.489 26.7906 28.1937 28.3706Z" fill="#903E00"/>
<path opacity="0.62" fill-rule="evenodd" clip-rule="evenodd" d="M18.8502 37.565C19.8155 37.1646 20.7377 37.4863 21.2852 37.8796C22.3442 38.6374 22.2649 40.0745 20.1974 39.8886C17.8848 39.6812 18.209 37.8295 18.8502 37.565Z" fill="#FBC270"/>
<path opacity="0.62" fill-rule="evenodd" clip-rule="evenodd" d="M17.582 46.1799C18.9292 44.9502 20.6654 45.8368 20.8743 46.7805C21.0832 47.71 19.8081 48.6966 17.8414 47.617C17.582 47.474 17.2866 46.4445 17.582 46.1799Z" fill="#FBC270"/>
<path d="M41.2837 34.1403C42.8036 34.1403 44.0357 32.9176 44.0357 31.4092C44.0357 29.9009 42.8036 28.6781 41.2837 28.6781C39.7638 28.6781 38.5317 29.9009 38.5317 31.4092C38.5317 32.9176 39.7638 34.1403 41.2837 34.1403Z" fill="#141414"/>
<path fill-rule="evenodd" clip-rule="evenodd" d="M39.4683 31.3449C40.2535 31.3449 40.8947 30.7086 40.8947 29.9293C40.8947 29.15 40.2535 28.5137 39.4683 28.5137C38.683 28.5137 38.0419 29.15 38.0419 29.9293C38.0347 30.7015 38.6758 31.3449 39.4683 31.3449Z" fill="white"/>
<defs>
<linearGradient id="paint0_linear_78_172244" x1="63.2471" y1="28.2955" x2="74.1746" y2="26.338" gradientUnits="userSpaceOnUse">
<stop stop-color="#BB4F00"/>
<stop offset="1" stop-color="#F4980D"/>
</linearGradient>
<linearGradient id="paint1_linear_78_172244" x1="12.68" y1="33.9713" x2="1.84014" y2="27.4574" gradientUnits="userSpaceOnUse">
<stop stop-color="#BB4F00"/>
<stop offset="1" stop-color="#F4980D"/>
</linearGradient>
<linearGradient id="paint2_linear_78_172244" x1="14.2286" y1="30.928" x2="82.6658" y2="38.6639" gradientUnits="userSpaceOnUse">
<stop stop-color="#F18500"/>
<stop offset="1" stop-color="#F8E12B"/>
</linearGradient>
<linearGradient id="paint3_linear_78_172244" x1="41.2997" y1="23.0527" x2="39.7992" y2="39.1817" gradientUnits="userSpaceOnUse">
<stop stop-color="#EF7700"/>
<stop offset="1" stop-color="#95180D"/>
</linearGradient>
<linearGradient id="paint4_linear_78_172244" x1="38.0939" y1="30.4396" x2="50.3304" y2="36.3572" gradientUnits="userSpaceOnUse">
<stop stop-color="#369100"/>
<stop offset="1" stop-color="#C8DA19"/>
</linearGradient>
<linearGradient id="paint5_linear_78_172244" x1="40.2655" y1="22.9909" x2="41.6717" y2="32.2402" gradientUnits="userSpaceOnUse">
<stop stop-color="#369100"/>
<stop offset="1" stop-color="#C8DA19"/>
</linearGradient>
<linearGradient id="paint6_linear_78_172244" x1="19.5125" y1="20.5407" x2="18.2731" y2="33.8635" gradientUnits="userSpaceOnUse">
<stop stop-color="#EF7700"/>
<stop offset="1" stop-color="#95180D"/>
</linearGradient>
<linearGradient id="paint7_linear_78_172244" x1="16.4316" y1="27.1719" x2="26.2613" y2="31.9256" gradientUnits="userSpaceOnUse">
<stop stop-color="#369100"/>
<stop offset="1" stop-color="#C8DA19"/>
</linearGradient>
<linearGradient id="paint8_linear_78_172244" x1="18.1763" y1="21.1881" x2="19.306" y2="28.6189" gradientUnits="userSpaceOnUse">
<stop stop-color="#369100"/>
<stop offset="1" stop-color="#C8DA19"/>
</linearGradient>
<linearGradient id="paint9_linear_78_172244" x1="34.4073" y1="56.8888" x2="6.09829" y2="37.0082" gradientUnits="userSpaceOnUse">
<stop stop-color="#FCCC00"/>
<stop offset="1" stop-color="#FDF3B1"/>
</linearGradient>
<linearGradient id="paint10_linear_78_172244" x1="40.6162" y1="18.2444" x2="41.1929" y2="0.108305" gradientUnits="userSpaceOnUse">
<stop stop-color="#BB4F00"/>
<stop offset="1" stop-color="#F4980D"/>
</linearGradient>
<linearGradient id="paint11_linear_78_172244" x1="59.8777" y1="46.8257" x2="67.8175" y2="53.4593" gradientUnits="userSpaceOnUse">
<stop stop-color="#BB4F00"/>
<stop offset="1" stop-color="#F4980D"/>
</linearGradient>
<linearGradient id="paint12_linear_78_172244" x1="57.5699" y1="64.9675" x2="29.8509" y2="39.9404" gradientUnits="userSpaceOnUse">
<stop stop-color="#FCCC00"/>
<stop offset="1" stop-color="#FDF3B1"/>
</linearGradient>
</defs>
</svg>
