<svg width="101" height="104" viewBox="0 0 101 104" fill="none" xmlns="http://www.w3.org/2000/svg">
<path d="M17.5871 55.5307C16.9025 57.4267 15.3751 58.5854 14.2164 58.1641C13.0577 57.7427 12.5837 55.8467 13.2683 53.9506C13.4736 52.8938 14.0708 51.9537 14.9401 51.3188C15.8095 50.6839 16.8867 50.4011 17.9558 50.5272C19.1672 51.0539 18.2718 53.8453 17.5871 55.5307Z" fill="url(#paint0_linear_78_173261)"/>
<path d="M14.7431 58.4799H14.1638C12.9524 58.0059 12.4784 56.1098 13.1631 54.1611C13.4055 53.2238 13.9291 52.3831 14.6636 51.7523C15.398 51.1214 16.308 50.7306 17.2712 50.6323H18.0085C18.1139 50.6629 18.2112 50.7165 18.2932 50.7894C18.3752 50.8623 18.4399 50.9526 18.4826 51.0537C18.9566 51.949 18.4826 53.9504 17.6399 55.7411C16.7972 57.5319 15.9018 58.4799 14.7431 58.4799ZM17.2712 50.685C16.3397 50.7775 15.4598 51.1564 14.7525 51.7694C14.0451 52.3824 13.5451 53.1996 13.3211 54.1084C12.6891 55.9518 13.0577 57.7952 14.2164 58.2165H14.7431C15.7965 58.2165 16.9552 57.1105 17.4819 55.5831C18.0085 54.0558 18.7986 51.949 18.3246 51.001C18.2896 50.9248 18.2386 50.8571 18.1749 50.8025C18.1113 50.7479 18.0365 50.7079 17.9559 50.685H17.2712Z" fill="#002F82"/>
<path d="M17.6397 55.5308C16.9023 57.6375 15.3749 58.5328 14.2162 58.1115C13.0575 57.6901 12.4782 55.7941 13.2155 53.8454C13.9529 51.8966 15.5329 50.3166 16.8496 50.8433C18.1663 51.37 18.377 53.6347 17.6397 55.5308Z" fill="black"/>
<path d="M17.5871 55.5306C16.9025 57.4266 15.3751 58.5853 14.2164 58.164C13.0577 57.7427 12.5837 55.8466 13.2683 53.9506C13.953 52.0545 15.4277 50.8958 16.6391 51.3698C17.8505 51.8438 18.2718 53.8452 17.5871 55.5306Z" fill="url(#paint1_radial_78_173261)"/>
<path style="mix-blend-mode:screen" opacity="0.9" d="M17.0077 52.5286C17.0077 52.7919 16.5864 52.9499 16.3757 52.7919C16.2941 52.6965 16.2493 52.5751 16.2493 52.4496C16.2493 52.3241 16.2941 52.2026 16.3757 52.1072C16.3988 52.0476 16.4337 51.9932 16.4783 51.9474C16.523 51.9016 16.5765 51.8653 16.6355 51.8407C16.6946 51.8161 16.758 51.8037 16.8219 51.8042C16.8859 51.8048 16.9491 51.8183 17.0077 51.8439C17.0805 51.9432 17.1197 52.0631 17.1197 52.1862C17.1197 52.3094 17.0805 52.4293 17.0077 52.5286Z" fill="url(#paint2_linear_78_173261)"/>
<path d="M14.1638 58.3749C12.9524 57.9009 12.4784 56.0048 13.1631 54.1088C13.8478 52.2127 15.4278 51.0014 16.6392 51.4227C17.8505 51.844 18.3246 53.8454 17.6399 55.7415C16.9552 57.6376 15.4278 58.8489 14.1638 58.3749ZM16.5865 51.5807C15.4278 51.1594 13.9531 52.3181 13.3211 54.1088C12.6891 55.8995 13.0577 57.7956 14.2164 58.2169C15.3751 58.6382 16.8498 57.5322 17.5345 55.6888C18.2192 53.8454 17.7452 52.0021 16.5865 51.5807Z" fill="black"/>
<path d="M15.849 52.1597C15.0063 51.8964 13.9003 52.7391 13.4789 54.1085C13.0576 55.4778 13.4789 56.7419 14.269 57.0052C15.059 57.2686 16.2177 56.4785 16.639 55.1092C17.0604 53.7398 17.0077 52.4758 15.849 52.1597Z" fill="url(#paint3_radial_78_173261)"/>
<path d="M15.5854 53.1606C16.1648 53.4239 16.3228 54.3193 15.9541 55.162C15.5854 56.0046 14.9008 56.4787 14.3214 56.2153C13.7421 55.952 13.5841 55.0566 13.9001 54.2139C14.2161 53.3712 15.0061 52.8972 15.5854 53.1606Z" fill="black"/>
<path style="mix-blend-mode:screen" opacity="0.5" d="M15.796 55.0567C15.7684 55.0912 15.7341 55.12 15.6954 55.1414C15.6566 55.1628 15.6139 55.1763 15.5699 55.1812C15.5259 55.186 15.4814 55.1822 15.4388 55.1699C15.3963 55.1576 15.3566 55.137 15.322 55.1093C15.2874 55.0817 15.2586 55.0474 15.2373 55.0087C15.2159 54.9699 15.2024 54.9272 15.1975 54.8832C15.1926 54.8392 15.1964 54.7947 15.2088 54.7521C15.2211 54.7096 15.2417 54.6699 15.2693 54.6353C15.299 54.6017 15.3355 54.5748 15.3763 54.5563C15.4172 54.5379 15.4615 54.5283 15.5063 54.5283C15.5512 54.5283 15.5955 54.5379 15.6364 54.5563C15.6772 54.5748 15.7137 54.6017 15.7433 54.6353C15.7433 54.6353 15.9014 54.846 15.796 55.0567Z" fill="url(#paint4_radial_78_173261)"/>
<path style="mix-blend-mode:screen" d="M15.1644 52.6342C14.6377 52.6342 14.1637 53.0556 14.1637 53.4243C14.1637 53.7929 14.6377 54.0036 15.1644 53.951C15.6911 53.8983 16.1651 53.5296 16.1651 53.1609C16.1651 52.7922 15.7437 52.5289 15.1644 52.6342Z" fill="url(#paint5_linear_78_173261)"/>
<path d="M42.1832 90.45C42.1832 90.45 44.0792 93.9261 52.1901 95.9802C60.301 98.0342 68.9913 91.9247 76.3648 91.082C82.5756 90.0815 88.9436 91.0967 94.5354 93.9788C98.4855 96.4015 91.0066 93.9788 85.6871 94.3475C81.3996 94.5922 77.2707 96.0538 73.7841 98.5609C66.9947 99.8615 60.0378 100.039 53.1908 99.0876C47.924 97.4022 40.4978 93.8208 39.6551 88.5539C41.0245 87.9219 42.1832 90.45 42.1832 90.45Z" fill="url(#paint6_linear_78_173261)"/>
<path d="M73.0467 95.769C76.5469 94.1055 80.3449 93.16 84.2165 92.9881C88.0881 92.8162 91.9549 93.4216 95.5887 94.7684C95.2894 94.4422 94.9323 94.1743 94.5354 93.9783C88.9435 91.0963 82.5756 90.0811 76.3648 91.0816C68.9913 91.9243 60.301 98.0338 52.1901 95.9797C44.0792 93.9257 42.1832 90.4496 42.1832 90.4496C42.1832 90.4496 41.0245 87.9215 39.6551 88.4482C39.9993 90.175 40.863 91.7554 42.1305 92.9776C55.3502 101.299 61.7231 100.088 73.0467 95.769Z" fill="url(#paint7_linear_78_173261)"/>
<path style="mix-blend-mode:screen" opacity="0.5" d="M47.0287 95.1895C59.1424 99.6136 66.674 93.2935 74.5742 91.7134C80.2149 90.5701 86.0607 90.989 91.4807 92.9248C83.4442 91.9069 75.2865 93.3001 68.0433 96.9276C64.6009 98.0496 60.9693 98.4737 57.361 98.1753C53.7526 97.8769 50.2401 96.8618 47.0287 95.1895Z" fill="url(#paint8_linear_78_173261)"/>
<path d="M40.814 88.6591C41.2235 89.2432 41.663 89.8058 42.1307 90.3444C41.8117 89.6985 41.3636 89.1249 40.814 88.6591Z" fill="#FFE8B6"/>
<path d="M59.9324 99.8771C57.6443 99.9501 55.3573 99.7019 53.1382 99.1398C50.2415 98.2444 40.6032 94.7156 39.6025 88.6061H40.0238C41.2352 88.6061 42.1306 90.6602 42.1832 90.7128C42.2359 90.7655 44.1846 94.1889 52.1375 96.243C53.2757 96.5191 54.4424 96.6605 55.6136 96.6643C59.7105 96.3764 63.7321 95.4155 67.5166 93.8203C70.3358 92.6261 73.2891 91.7772 76.3122 91.2922C77.8165 91.1273 79.3283 91.0394 80.8417 91.0289C85.6051 90.8559 90.3295 91.9461 94.5354 94.1889C95.5361 94.821 95.6941 95.0843 95.6941 95.2423C95.6941 95.4003 95.6941 95.2423 95.1674 95.2423H92.9027C91.0235 94.9167 89.1215 94.7406 87.2145 94.7156H85.4765C81.2066 94.9674 77.0965 96.4288 73.6261 98.9291C69.0945 99.6135 64.5151 99.9305 59.9324 99.8771ZM39.7605 88.5008C40.7612 94.663 50.2941 98.0864 53.1909 99.0344C55.3953 99.5746 57.6643 99.805 59.9324 99.7191C64.5557 99.6573 69.1681 99.2524 73.7315 98.5077C77.1769 96.0274 81.2424 94.5506 85.4765 94.2416H87.0565C88.962 94.2928 90.8622 94.4688 92.7447 94.7683H95.0094H95.3781C95.3781 94.7683 95.3781 94.7683 94.3247 93.9256C90.138 91.6824 85.4304 90.5918 80.6837 90.7655C79.1703 90.776 77.6585 90.8639 76.1542 91.0289C73.1569 91.5265 70.2245 92.3567 67.4113 93.5043C63.619 95.1403 59.5762 96.1198 55.4556 96.401C54.267 96.3969 53.0829 96.2555 51.9268 95.9797C48.0073 95.4009 44.432 93.4167 41.8672 90.3968C41.8672 90.3968 40.9718 88.3428 39.8658 88.3428L39.7605 88.5008Z" fill="#B62A00"/>
<path d="M38.8649 90.239C42.5376 95.2651 47.6129 99.0945 53.454 101.247C59.4357 103.392 65.9421 103.595 72.0458 101.826C74.9527 100.802 78.0356 100.372 81.1116 100.562C84.1877 100.752 87.1943 101.558 89.953 102.932C93.1131 104.723 92.1651 102.932 88.4257 100.72C82.752 97.8774 76.4329 96.57 70.0971 96.9279C61.9336 97.2966 57.7728 99.614 50.6099 96.9279C46.8122 95.7768 43.4874 93.4309 41.1296 90.239C40.3872 90.4331 39.6073 90.4331 38.8649 90.239Z" fill="url(#paint9_linear_78_173261)"/>
<path d="M75.8382 100.088C78.5737 99.578 81.3841 99.6278 84.0998 100.234C86.8154 100.841 89.38 101.991 91.6387 103.617C92.0074 103.617 90.7433 102.089 88.2679 100.772C82.5943 97.9298 76.2752 96.6225 69.9394 96.9804C61.7758 97.349 57.615 99.6138 50.4521 96.9804C46.666 95.8059 43.3478 93.4647 40.9719 90.2915C40.2259 90.4557 39.4531 90.4557 38.7072 90.2915C40.1858 92.3038 41.9617 94.0796 43.974 95.5583C52.5062 102.3 61.9865 103.248 75.8382 100.088Z" fill="url(#paint10_linear_78_173261)"/>
<path style="mix-blend-mode:screen" opacity="0.5" d="M44.0266 94.9792C54.2442 100.825 62.9871 97.6127 71.0453 97.3493C76.8016 96.9496 82.5574 98.1336 87.6885 100.773C77.8395 97.6127 73.2574 100.299 65.8839 100.773C58.12 101.787 50.2687 99.706 44.0266 94.9792Z" fill="url(#paint11_linear_78_173261)"/>
<path d="M91.6386 103.722C91.0165 103.593 90.426 103.342 89.9006 102.985C87.0541 101.441 83.8692 100.627 80.631 100.615C78.2295 100.663 75.8424 100.999 73.5208 101.615H72.0461H71.6247C68.8258 102.274 65.9669 102.645 63.0925 102.721C59.7817 102.702 56.5007 102.096 53.4015 100.931C47.5562 98.7601 42.4687 94.9354 38.7598 89.9231C39.2153 89.9635 39.6736 89.9635 40.1291 89.9231C40.4055 89.9945 40.6955 89.9945 40.9718 89.9231C43.3607 93.0716 46.6761 95.3924 50.4521 96.5593C52.6228 97.3842 54.9241 97.8124 57.2463 97.8233C59.2662 97.9325 61.2917 97.8797 63.3032 97.6653C65.3045 97.402 67.5166 97.086 70.0974 96.9806H71.9407C77.6823 96.914 83.3552 98.2328 88.4785 100.825C90.6906 101.984 92.06 103.248 91.9546 103.722C91.9053 103.746 91.8513 103.758 91.7967 103.758C91.742 103.758 91.688 103.746 91.6386 103.722ZM80.631 100.457C83.8975 100.509 87.107 101.321 90.0059 102.827C90.4902 103.188 91.0473 103.44 91.6386 103.564C91.6386 103.564 90.5853 102.089 88.2679 100.878C83.164 98.2839 77.5077 96.9647 71.7827 97.0333H69.9393C67.3586 97.0333 65.1465 97.4546 63.1978 97.718C61.2493 98.0622 59.2772 98.2559 57.299 98.2973C54.9592 98.2916 52.6397 97.8634 50.4521 97.0333C46.6562 95.8493 43.3239 93.5111 40.9192 90.3444C40.642 90.4095 40.3536 90.4095 40.0765 90.3444C39.6737 90.3842 39.2679 90.3842 38.8651 90.3444C42.5746 95.1579 47.5811 98.8123 53.2962 100.878C56.3773 102.042 59.6409 102.648 62.9345 102.669C65.811 102.62 68.6729 102.249 71.4667 101.563H71.8881L73.3101 101.247C75.7102 100.693 78.1679 100.427 80.631 100.457Z" fill="#B62A00"/>
<path d="M34.1246 36.781C35.9751 33.8211 38.7255 31.5322 41.9722 30.2501C47.6604 27.8274 53.5065 26.1947 60.1954 24.0353C66.8843 21.8759 76.9965 15.5557 79.1559 8.76149C81.052 2.91532 78.2606 -1.77215 80.3673 1.91462C81.7314 6.1718 81.4878 10.7813 79.6826 14.871C77.7866 19.6638 69.149 26.8267 69.623 29.9868C70.3604 34.6742 75.9432 43.0485 75.6798 46.5773C75.6924 48.161 75.1836 49.705 74.2318 50.9709C73.2799 52.2368 71.938 53.1544 70.413 53.5821C67.4636 53.8981 65.8836 40.9944 60.4587 39.0457C51.76 37.5519 42.9507 36.7943 34.1246 36.781Z" fill="url(#paint12_linear_78_173261)"/>
<path d="M70.9924 39.2564C69.9579 36.463 69.0787 33.6146 68.359 30.7241C67.8323 28.2487 69.9917 25.7733 72.3617 23.1399C75.3682 20.2456 77.8615 16.8619 79.7353 13.1329C80.8414 10.048 81.255 6.75737 80.9467 3.49465C80.833 2.94215 80.6377 2.40964 80.3673 1.9146C78.2606 -2.03552 81.052 2.9153 79.1559 8.76147C76.9965 15.5557 67.2529 21.7178 60.1954 24.0352C53.1379 26.3526 47.6604 27.8274 41.9722 30.2501C38.7255 31.5322 35.9751 33.8211 34.1246 36.781C42.9507 36.7943 51.76 37.5519 60.4587 39.0457C64.8302 40.6257 66.7263 49.5793 68.833 52.4761C70.5278 50.7074 71.774 48.5581 72.4671 46.2086C72.6417 43.7984 72.1304 41.3881 70.9924 39.2564Z" fill="url(#paint13_linear_78_173261)"/>
<path d="M40.0239 34.0951C41.5511 31.96 43.5062 30.1663 45.7647 28.8282C43.4996 30.1574 41.5428 31.9527 40.0239 34.0951Z" fill="#B62A00"/>
<path d="M43.868 33.3573C45.2021 30.717 47.3674 28.5887 50.0302 27.3004C47.3485 28.5618 45.1755 30.6977 43.868 33.3573Z" fill="#B62A00"/>
<path d="M47.713 33.1467C49.7211 30.1942 52.278 27.6552 55.2446 25.6678C52.258 27.6306 49.6967 30.174 47.713 33.1467Z" fill="#B62A00"/>
<path d="M51.084 33.3047C54.3254 29.3366 58.2059 25.9367 62.5657 23.2451C58.1994 25.9279 54.3175 29.3289 51.084 33.3047Z" fill="#B62A00"/>
<path d="M54.4543 33.8314C59.2102 27.8187 64.9006 22.6085 71.3081 18.3997C64.8932 22.5991 59.2014 27.8106 54.4543 33.8314Z" fill="#B62A00"/>
<path d="M57.7727 34.4631C57.7727 34.4631 58.8261 30.8817 65.4096 25.8255C70.8528 22.151 75.202 17.0739 77.9973 11.1311C75.1866 17.1241 70.799 22.2399 65.3042 25.9309C62.0585 28.0301 59.4529 30.9819 57.7727 34.4631Z" fill="#B62A00"/>
<path d="M60.4061 35.5695C62.5186 32.9757 64.8062 30.5297 67.253 28.2486C80.9467 15.6609 80.7887 11.4474 80.7887 11.3948C80.7887 11.3948 80.7887 15.7136 67.2003 28.3539C64.7924 30.6202 62.5236 33.0298 60.4061 35.5695Z" fill="#B62A00"/>
<path d="M62.513 36.6755C65.7028 34.2262 68.3709 31.1642 70.3606 27.6692C68.3595 31.1561 65.6932 34.2161 62.513 36.6755Z" fill="#B62A00"/>
<path d="M64.8828 38.466C67.1768 36.6106 68.9844 34.2244 70.1496 31.5138C68.9701 34.216 67.1648 36.599 64.8828 38.466Z" fill="#B62A00"/>
<path d="M66.8319 40.7309C68.8568 39.1228 70.3447 36.9369 71.098 34.4634C70.4153 36.9701 68.9136 39.1764 66.8319 40.7309Z" fill="#B62A00"/>
<path d="M68.2012 42.8904C70.06 41.1476 71.3611 38.8935 71.9407 36.4122C71.341 38.8855 70.043 41.1342 68.2012 42.8904Z" fill="#B62A00"/>
<path d="M69.6757 45.6293C71.4772 43.8538 72.7843 41.639 73.4678 39.2037C72.7647 41.6306 71.4603 43.8407 69.6757 45.6293Z" fill="#B62A00"/>
<path d="M70.3607 48.8948C72.597 46.9764 73.9799 44.2483 74.2054 41.3105C73.9632 44.2436 72.5833 46.9656 70.3607 48.8948Z" fill="#B62A00"/>
<path d="M70.8872 51.4754C73.161 49.5381 74.6112 46.8072 74.9427 43.8385C74.6061 46.8056 73.1568 49.5347 70.8872 51.4754Z" fill="#B62A00"/>
<path d="M70.0447 53.6874C68.728 53.6874 67.6747 51.1594 66.4633 48.4206C65.2519 45.6819 63.0925 40.415 60.1958 39.3617C51.5019 37.8306 42.6894 37.0727 33.8617 37.0969C35.6739 34.0919 38.4349 31.7756 41.7093 30.5134C46.1334 28.67 50.6629 27.1953 55.5083 25.7206L60.1958 23.9299C64.2329 22.5291 68.0333 20.5223 71.4668 17.9784C74.8655 15.6942 77.506 12.4485 79.051 8.65612C79.8236 6.20425 79.9863 3.60089 79.525 1.07189C79.525 0.59788 79.525 0.439875 79.525 0.387207C79.525 0.387207 79.525 0.387208 80.2624 1.54591V1.80925C81.612 6.1081 81.3499 10.7513 79.525 14.871C78.1194 17.5449 76.3466 20.0091 74.2582 22.1918C71.6248 25.2993 68.9914 28.2487 69.4127 29.9341C70.1232 32.7177 71.1665 35.4056 72.5202 37.9396C74.0521 40.5823 75.054 43.4984 75.4696 46.5246C75.4693 48.1636 74.9189 49.7552 73.9067 51.0443C72.8945 52.3335 71.4789 53.2456 69.8867 53.6348L70.0447 53.6874ZM34.2304 36.7283C42.9522 36.7311 51.6573 37.4889 60.2485 38.993C63.2505 40.0464 65.0939 44.5758 66.6213 48.1573C68.1487 51.7387 68.8334 53.4241 70.0447 53.4241C71.5655 53.0067 72.906 52.0991 73.8583 50.842C74.8106 49.585 75.3214 48.0489 75.3116 46.4719C74.9243 43.4721 73.92 40.5849 72.3621 37.9923C71.1643 35.4533 70.263 32.7847 69.6761 30.0394C69.3601 28.2487 71.8881 25.2466 74.5215 22.1392C76.5904 19.9597 78.3614 17.5157 79.7884 14.871C81.4833 10.7436 81.633 6.14337 80.2097 1.91458L79.6304 0.861222C79.6304 0.861222 79.6304 1.17723 79.6304 1.33524C80.1004 3.88126 79.9376 6.50378 79.1563 8.97212C77.5815 12.7762 74.9265 16.0355 71.5194 18.3471C68.071 20.807 64.247 22.6924 60.1958 23.9299L55.719 25.3519C50.9262 26.8793 46.3967 28.3014 41.9726 30.1974C38.7833 31.529 36.0804 33.809 34.2304 36.7283Z" fill="#B62A00"/>
<path style="mix-blend-mode:screen" opacity="0.5" d="M79.1034 10.8153C74.3339 17.3961 67.5764 22.2704 59.8269 24.7197C57.0355 25.7204 50.0832 27.4585 44.6058 29.6705C41.4198 30.8582 38.5531 32.7693 36.2315 35.2533C41.9615 32.9344 48.2587 32.4019 54.2967 33.726C57.037 34.0324 59.6712 34.9603 61.9987 36.4389C64.3261 37.9175 66.2853 39.9078 67.7271 42.2582C70.6238 42.2582 67.7271 34.0947 67.4638 31.1452C66.8317 23.9297 77.0494 20.7169 79.1034 10.8153Z" fill="url(#paint14_linear_78_173261)"/>
<path style="mix-blend-mode:screen" opacity="0.9" d="M42.0774 33.2523C45.9748 26.4054 63.4607 28.3014 75.9957 15.0291C64.4087 28.8281 52.3477 26.3001 42.0774 33.2523Z" fill="url(#paint15_linear_78_173261)"/>
<path d="M75.8378 60.3233C77.2071 60.3233 78.6292 59.7966 79.9985 56.3732C82.244 51.1353 85.5015 46.3922 89.5842 42.4161C94.1663 38.2553 102.172 33.3572 100.118 36.2539C96.748 41.4651 94.257 47.1944 92.7443 53.2131C91.6909 58.7959 90.0055 62.4827 86.8981 63.2727C87.7809 64.0054 88.4792 64.9352 88.9366 65.9873C89.394 67.0394 89.5978 68.1843 89.5315 69.3296C89.5315 72.595 88.1621 73.9117 89.5315 77.8618C90.3431 80.7086 92.2325 83.127 94.7983 84.6033C96.3257 85.3934 96.9577 86.6047 92.4809 85.8147C90.0236 85.2554 87.7303 84.1313 85.783 82.5314C83.8357 80.9315 82.288 78.8999 81.2626 76.5978C78.9452 72.4897 79.4192 63.1147 75.1531 64.4314C74.3631 63.9574 75.8378 60.3233 75.8378 60.3233Z" fill="url(#paint16_linear_78_173261)"/>
<path d="M87.899 79.0731C86.0556 73.8063 90.1111 66.5381 84.6862 63.2726C91.5331 59.2172 90.6904 54.5297 92.2178 50.3163C94.4485 45.2671 97.2023 40.4656 100.434 35.9905C101.119 34.2525 93.8505 38.7292 89.5844 42.6267C85.6 46.5596 82.4162 51.2279 80.2095 56.3731C78.8401 59.7965 77.418 60.3232 76.0487 60.3232C76.0487 60.3232 74.89 62.6933 75.68 63.378C79.8934 62.0613 80.2095 72.5949 82.4742 76.7557C84.0904 79.8915 86.7289 82.3814 89.9531 83.8132C91.3224 84.4453 88.9524 81.8645 87.899 79.0731Z" fill="url(#paint17_linear_78_173261)"/>
<path style="mix-blend-mode:screen" opacity="0.2" d="M84.5808 64.3789C86.2135 65.8009 86.3188 69.6457 86.3188 71.6998C86.3188 77.546 88.6362 82.2334 87.2668 81.2854C85.1274 79.4437 83.395 77.1766 82.1799 74.6286C80.9648 72.0805 80.2937 69.3073 80.2093 66.4856C80.2259 65.986 80.379 65.5004 80.6519 65.0815C80.9248 64.6627 81.3072 64.3265 81.7575 64.1094C82.2079 63.8924 82.7091 63.8028 83.2067 63.8503C83.7044 63.8978 84.1796 64.0806 84.5808 64.3789Z" fill="url(#paint18_linear_78_173261)"/>
<path style="mix-blend-mode:screen" opacity="0.5" d="M80.2097 57.6899C83.7044 48.746 90.2033 41.2975 98.5909 36.6227C101.646 34.9899 94.7461 41.2575 91.4807 50.4217C90.164 54.1612 89.9006 57.9533 86.2138 60.1653C82.5271 62.3774 78.893 60.4813 80.2097 57.6899Z" fill="url(#paint19_linear_78_173261)"/>
<path style="mix-blend-mode:screen" opacity="0.9" d="M81.5786 59.0067C84.0373 49.9651 89.8099 42.1806 97.7477 37.202C90.7404 43.1184 85.2049 50.5832 81.5786 59.0067Z" fill="url(#paint20_linear_78_173261)"/>
<path d="M94.5879 86.1312C93.8166 86.1916 93.0418 86.1916 92.2705 86.1312C89.8107 85.5019 87.5287 84.3147 85.6016 82.6616C83.6744 81.0084 82.1538 78.9337 81.1575 76.5983C80.3785 74.915 79.7953 73.1478 79.4195 71.3314C78.6821 67.9607 77.9974 64.7479 75.9434 64.7479C75.7001 64.6983 75.4493 64.6983 75.206 64.7479C74.416 64.0106 75.838 60.5345 75.8907 60.3765C77.1547 60.3765 78.5768 59.9024 79.9461 56.4263C82.2192 51.1907 85.4933 46.4495 89.5844 42.4693C92.6563 39.5194 96.2215 37.1307 100.118 35.4117C100.166 35.384 100.221 35.3694 100.276 35.3694C100.332 35.3694 100.386 35.384 100.434 35.4117C100.434 35.4117 100.434 35.8331 100.118 36.2544C96.7609 41.447 94.2871 47.1598 92.7972 53.1609C91.6385 59.2704 89.7951 62.4832 87.0037 63.2732C87.8602 64.0134 88.5375 64.9384 88.9846 65.9785C89.4316 67.0185 89.6367 68.1465 89.5844 69.2774C89.5309 70.2157 89.4076 71.1487 89.2157 72.0688C88.732 73.9521 88.8424 75.9389 89.5318 77.757C90.328 80.6116 92.2214 83.0352 94.7986 84.4985C95.4306 84.8145 96.1153 85.2885 96.0099 85.7099C95.9046 86.1312 95.3779 86.1312 94.5879 86.1312ZM75.9434 64.4319C78.1027 64.4319 78.8401 67.6447 79.5775 71.1208C79.9403 73.0084 80.5237 74.8468 81.3155 76.5983C82.3554 78.8303 83.8851 80.7992 85.7908 82.3585C87.6966 83.9177 89.9294 85.0273 92.3232 85.6045C93.0708 85.7467 93.8276 85.8347 94.5879 85.8679C95.5359 85.8679 95.6939 85.8679 95.6939 85.5519C95.6939 85.2358 95.2726 84.8672 94.5879 84.5512C92.0298 83.0168 90.148 80.5703 89.3211 77.7043C88.6308 75.8681 88.5205 73.8643 89.0051 71.9635C89.197 71.0434 89.3202 70.1104 89.3738 69.172C89.4403 68.042 89.236 66.9125 88.778 65.8773C88.3199 64.8421 87.6214 63.9313 86.7403 63.2205C89.5844 62.4832 91.4278 59.3231 92.5865 53.1609C94.1235 47.1593 96.594 41.4365 99.9074 36.2017C100.276 35.7277 100.223 35.5697 100.223 35.5171C96.3276 37.2144 92.7617 39.5857 89.6898 42.5219C85.6584 46.4782 82.438 51.1835 80.2095 56.3737C78.8401 59.9024 77.3654 60.3765 76.0487 60.4291C75.68 61.4298 74.7847 63.9579 75.364 64.5372C75.55 64.4704 75.7457 64.4348 75.9434 64.4319Z" fill="#B62A00"/>
<path d="M6.79007 65.3271C4.99936 65.3271 1.52325 68.4872 2.36594 70.5939C3.20864 72.7007 6.21073 72.2266 8.37013 72.1213C10.1325 71.8863 11.9258 72.1176 13.5708 72.7923C15.2159 73.4669 16.6552 74.5613 17.7451 75.9661C23.0904 82.6015 30.108 87.692 38.075 90.7132C45.7119 93.0306 57.2462 92.8199 63.8824 85.7097C67.7132 80.7322 70.507 75.0371 72.0986 68.9612C72.613 67.8577 73.3445 66.8693 74.2494 66.0548C75.1543 65.2404 76.2141 64.6167 77.3655 64.2211C82.2636 62.957 81.1049 62.1143 78.7875 61.1663C76.7254 60.3716 74.9043 59.0564 73.5014 57.3489C72.0984 55.6414 71.1616 53.5998 70.7819 51.4227C70.5738 47.8819 69.3713 44.4717 67.3124 41.5836C65.2534 38.6955 62.4217 36.4468 59.1423 35.0956C50.452 32.1461 38.075 30.8821 23.1699 42.8904C15.9017 49.158 16.323 55.8995 10.4769 60.903C9.17367 62.3142 7.94315 63.7908 6.79007 65.3271Z" fill="url(#paint21_linear_78_173261)"/>
<path d="M20.1674 74.4387C32.6498 81.2329 48.6609 86.6577 61.4593 78.1781C65.1995 75.1666 68.2826 71.4203 70.5182 67.1705C71.3684 65.7623 72.6397 64.6568 74.1523 64.0104C76.1292 63.495 78.1663 63.247 80.2092 63.273C81.6312 62.483 80.5778 61.851 78.8924 61.1663C76.8304 60.3716 75.0092 59.0564 73.6063 57.3489C72.2034 55.6414 71.2665 53.5998 70.8869 51.4227C70.6697 47.8701 69.4515 44.4516 67.3731 41.5623C65.2947 38.6731 62.441 36.4311 59.1419 35.0956C50.4516 32.1461 38.0746 30.8821 23.1695 42.8904C15.9013 49.158 16.3226 55.8995 10.4765 60.903C9.17327 62.3142 7.94275 63.7908 6.78967 65.3271C4.99896 65.3271 1.78619 68.3819 2.36554 70.5939C2.94489 72.806 8.15905 71.5946 10.1604 71.7526C13.6696 71.7874 17.1125 72.7116 20.1674 74.4387Z" fill="url(#paint22_linear_78_173261)"/>
<path style="mix-blend-mode:screen" opacity="0.5" d="M3.62984 69.2242C2.99782 71.3836 6.89528 72.279 11.2667 69.9089C9.05467 70.4883 4.3672 71.6996 3.62984 69.2242Z" fill="url(#paint23_linear_78_173261)"/>
<path d="M30.438 82.1284C31.7547 79.9163 35.7048 77.7043 37.5482 73.3855C39.759 67.1607 40.5683 60.5246 39.9182 53.9509C39.4718 50.6659 38.13 47.5671 36.0398 44.9938C33.9496 42.4206 31.1916 40.4721 28.0679 39.3618L27.0145 39.9938C29.8464 41.0006 32.3688 42.7246 34.3354 44.9973C36.2081 47.3904 37.5519 50.1534 38.2782 53.104C39.0045 56.0545 39.0967 59.1256 38.5489 62.1145C38.1599 67.4486 36.3405 72.5794 33.282 76.9669C30.3853 79.7057 28.0152 81.8124 27.7519 85.4992L29.5953 86.7632C29.4907 85.1725 29.7801 83.5805 30.438 82.1284Z" fill="url(#paint24_linear_78_173261)"/>
<path d="M37.5482 73.3855C39.759 67.1607 40.5683 60.5246 39.9182 53.9509C39.4718 50.6659 38.13 47.5671 36.0398 44.9938C33.9496 42.4206 31.1916 40.4721 28.0679 39.3618L27.0145 39.9938C29.8464 41.0006 32.3688 42.7246 34.3354 44.9973C36.2081 47.3904 37.5519 50.1534 38.2782 53.104C39.0045 56.0545 39.0967 59.1256 38.5489 62.1145C38.1599 67.4486 36.3405 72.5794 33.282 76.9669L30.754 79.3897L32.2287 79.9163C34.4729 78.1697 36.2917 75.9367 37.5482 73.3855Z" fill="url(#paint25_linear_78_173261)"/>
<path style="mix-blend-mode:screen" d="M27.5412 39.7305L27.0671 39.9938L28.0152 40.3625L29.1212 39.7305L28.1205 39.3618L27.5412 39.7305Z" fill="url(#paint26_linear_78_173261)"/>
<path d="M31.1231 68.5397C32.0011 63.9235 32.3895 59.2276 32.2818 54.5299C32.342 51.8942 31.6573 49.295 30.3064 47.031C28.9554 44.767 26.9931 42.9302 24.6449 41.7316L24.0655 42.1529C26.8956 43.7625 29.0192 46.3747 30.017 49.4738C31.0192 53.9571 31.1087 58.5962 30.2804 63.1149C30.1547 67.4563 28.9801 71.7029 26.857 75.4919C25.4808 77.5084 24.2824 79.6407 23.2755 81.8647L24.8556 83.2341C25.3248 81.3859 26.0517 79.6129 27.015 77.9673C29.0519 75.1599 30.4537 71.943 31.1231 68.5397Z" fill="url(#paint27_linear_78_173261)"/>
<path d="M31.1225 68.5397C32.0005 63.9235 32.3889 59.2276 32.2812 54.5299C32.3414 51.8942 31.6567 49.295 30.3058 47.031C28.9548 44.767 26.9925 42.9302 24.6443 41.7316L24.0649 42.1529C26.895 43.7625 29.0186 46.3747 30.0164 49.4738C31.0186 53.9571 31.1082 58.5962 30.2798 63.1149C30.1541 67.4563 28.9795 71.7029 26.8564 75.4919C26.435 76.0712 26.0663 76.7033 25.7503 77.2299L27.067 77.862C29.0506 75.0693 30.4317 71.8947 31.1225 68.5397Z" fill="url(#paint28_linear_78_173261)"/>
<path style="mix-blend-mode:screen" d="M24.6443 41.7316L24.0649 42.1529C24.35 42.2715 24.6162 42.4312 24.855 42.6269L25.3816 42.1529L24.6443 41.7316Z" fill="url(#paint29_linear_78_173261)"/>
<path d="M63.2501 67.0125C62.9341 64.8004 62.1968 58.5329 62.0388 55.5308C61.8286 50.5649 60.8514 45.6615 59.142 40.9944C57.8256 38.2507 56.0437 35.7559 53.8752 33.6208L51.6631 33.3048C54.1414 35.7379 56.2209 38.5462 57.8253 41.6264C59.6351 46.3891 60.5804 51.4366 60.6167 56.5315C60.7725 60.7279 61.1593 64.9126 61.7754 69.0665C62.2644 76.0324 61.2402 83.0216 58.7733 89.5544C59.6907 89.1167 60.5713 88.606 61.4068 88.0271C63.3422 81.2014 63.9677 74.0709 63.2501 67.0125Z" fill="url(#paint30_linear_78_173261)"/>
<path d="M63.2508 67.0124C62.9348 64.8003 62.1975 58.5328 62.0395 55.5307C61.8293 50.5648 60.8521 45.6614 59.1427 40.9943C57.8263 38.2506 56.0443 35.7558 53.8759 33.6207H52.8225H51.7165C54.1947 36.0539 56.2742 38.8621 57.8787 41.9423C59.6885 46.705 60.6338 51.7525 60.6701 56.8474C60.8258 61.0439 61.2127 65.2285 61.8288 69.3824C62.1588 72.4459 62.1588 75.5359 61.8288 78.5994C62.4738 78.1856 63.0898 77.7281 63.6722 77.23C63.9069 73.819 63.7656 70.3925 63.2508 67.0124Z" fill="url(#paint31_linear_78_173261)"/>
<g style="mix-blend-mode:screen">
<path d="M53.8759 33.6207H52.8225H51.7165L52.8752 34.8321L55.0873 35.1481L53.8759 33.6207Z" fill="url(#paint32_linear_78_173261)"/>
</g>
<path d="M52.8749 74.8599C53.8114 70.3111 53.5758 65.5989 52.1902 61.1662C52.1902 59.2702 50.7681 55.8994 50.5575 49.9479C50.8452 46.2247 50.4707 42.48 49.4514 38.8876C48.6066 36.702 47.2735 34.7384 45.554 33.1467H44.0266C46.1403 34.9982 47.722 37.3799 48.6087 40.0463C49.3848 43.7853 49.633 47.6147 49.3461 51.4226C49.5859 54.597 50.1507 57.7384 51.0315 60.7975C51.8869 64.6506 52.1181 68.6161 51.7162 72.5425C50.165 77.3249 47.5339 81.686 44.0266 85.2882C42.6069 87.0467 41.5507 89.0697 40.9192 91.2398L42.6572 91.5031C43.1198 89.5584 44.0408 87.7526 45.3433 86.2363C48.5732 82.9728 51.1319 79.1078 52.8749 74.8599Z" fill="url(#paint33_linear_78_173261)"/>
<path d="M52.8748 74.8599C53.8113 70.3111 53.5757 65.5989 52.1901 61.1662C52.1901 59.2702 50.7681 55.8994 50.5574 49.9479C50.8451 46.2247 50.4707 42.48 49.4514 38.8876C48.6065 36.702 47.2735 34.7384 45.5539 33.1467H44.0266C46.1403 34.9982 47.722 37.3799 48.6087 40.0463C49.3847 43.7853 49.6329 47.6147 49.346 51.4226C49.5859 54.597 50.1506 57.7384 51.0314 60.7975C51.8869 64.6506 52.118 68.6161 51.7161 72.5425C50.7156 76.1452 48.9153 79.4757 46.4493 82.2862H48.6087C50.4328 80.0645 51.8745 77.5548 52.8748 74.8599Z" fill="url(#paint34_linear_78_173261)"/>
<path style="mix-blend-mode:screen" d="M45.5539 33.1467H44.0266C44.4766 33.5195 44.899 33.9243 45.2906 34.3581H46.7126C46.3493 33.933 45.9624 33.5286 45.5539 33.1467Z" fill="url(#paint35_linear_78_173261)"/>
<path d="M33.4401 76.967C36.4985 72.5794 38.3179 67.4487 38.7069 62.1145C39.2548 59.1257 39.1625 56.0546 38.4362 53.104C37.7099 50.1534 36.3661 47.3904 34.4934 44.9974C32.5268 42.7246 30.0044 41.0007 27.1726 39.9939L24.8025 41.7319C27.1507 42.9305 29.1131 44.7674 30.464 47.0314C31.8149 49.2954 32.4996 51.8946 32.4394 54.5303C32.5471 59.228 32.1587 63.9239 31.2807 68.5401C30.604 71.9249 29.2026 75.1232 27.1726 77.915C26.2093 79.5607 25.4824 81.3336 25.0132 83.1818C25.9612 83.9719 26.9619 84.7619 28.0679 85.5519C28.1206 81.8651 30.5433 79.7057 33.4401 76.967Z" fill="url(#paint36_linear_78_173261)"/>
<path d="M33.4401 76.967C36.4985 72.5794 38.3179 67.4487 38.7069 62.1145C39.2548 59.1257 39.1625 56.0546 38.4362 53.104C37.7099 50.1534 36.3661 47.3904 34.4934 44.9974C32.5268 42.7246 30.0044 41.0007 27.1726 39.9939L24.8025 41.7319C27.1507 42.9305 29.1131 44.7674 30.464 47.0314C31.8149 49.2954 32.4996 51.8946 32.4394 54.5303C32.5471 59.228 32.1587 63.9239 31.2807 68.5401C30.5899 71.8951 29.2088 75.0697 27.2252 77.8623L31.07 79.3897L33.4401 76.967Z" fill="url(#paint37_linear_78_173261)"/>
<path d="M27.9628 85.604C26.9621 84.8666 25.9088 84.0766 24.9081 83.2339C25.3484 81.3763 26.077 79.5991 27.0675 77.9671C29.069 75.1846 30.4518 72.006 31.1229 68.6448C32.0117 64.0296 32.4177 59.3344 32.3343 54.6351C32.3634 52.0401 31.6629 49.4891 30.3127 47.2728C28.9624 45.0566 27.0168 43.2642 24.6974 42.1L27.0675 40.362C29.9056 41.3859 32.441 43.1064 34.441 45.3655C36.3362 47.7555 37.6898 50.5287 38.4081 53.4932C39.1265 56.4576 39.1926 59.5428 38.6018 62.5353C38.2787 67.8993 36.4536 73.0642 33.335 77.4404L32.8083 77.9144C31.4363 78.825 30.2624 80.0036 29.3574 81.3793C28.4523 82.7551 27.8346 84.2995 27.5415 85.92L27.9628 85.604ZM24.9607 83.0759C25.8696 83.8787 26.8189 84.6346 27.8048 85.3406C28.4649 82.1079 30.3528 79.2571 33.0716 77.3877L33.5983 76.9137C36.6715 72.5534 38.4928 67.4354 38.8651 62.1139C39.4328 59.1339 39.3503 56.0665 38.6231 53.1213C37.8959 50.1761 36.5412 47.4227 34.6517 45.0494C32.6934 42.8034 30.1905 41.0986 27.3835 40.0986L25.1187 41.7313C28.0597 43.1987 30.3635 45.6897 31.5969 48.7362C32.3195 50.5092 32.695 52.4045 32.703 54.3191C32.7863 59.0183 32.3804 63.7136 31.4916 68.3288C30.8033 71.7262 29.4032 74.9392 27.3835 77.7564C26.3035 79.3924 25.4861 81.1873 24.9607 83.0759Z" fill="black"/>
<path d="M61.5652 69.0664C60.949 64.9125 60.5622 60.7278 60.4065 56.5313C60.3702 51.4365 59.4249 46.389 57.615 41.6262C56.0106 38.5461 53.9311 35.7378 51.4529 33.3047C49.4899 33.1439 47.517 33.1439 45.554 33.3047C47.2736 34.8964 48.6066 36.86 49.4515 39.0455C50.4708 42.638 50.8452 46.3827 50.5575 50.1058C50.5575 55.8466 52.2429 59.4281 52.1902 61.3241C53.5758 65.7568 53.8114 70.4691 52.8749 75.0179C51.132 79.2657 48.5732 83.1307 45.3434 86.3942C44.0409 87.9105 43.1199 89.7164 42.6573 91.661C48.0217 92.5277 53.5226 91.7759 58.4577 89.5016C60.9529 82.9931 62.0129 76.0224 61.5652 69.0664Z" fill="url(#paint38_linear_78_173261)"/>
<path d="M61.5647 69.0665C60.9486 64.9126 60.5618 60.7279 60.406 56.5315C60.3697 51.4366 59.4244 46.3891 57.6146 41.6264C56.0102 38.5462 53.9306 35.7379 51.4524 33.3048H45.5536C47.2731 34.8965 48.6062 36.8601 49.451 39.0456C50.4703 42.6381 50.8448 46.3828 50.5571 50.106C50.5571 55.8468 52.2425 59.4282 52.1898 61.3243C53.5754 65.757 53.811 70.4692 52.8745 75.018C51.8672 77.7096 50.4261 80.2182 48.6083 82.4442C53.1628 82.1892 57.573 80.7554 61.4067 78.2835C61.7893 75.2257 61.8422 72.1356 61.5647 69.0665Z" fill="url(#paint39_linear_78_173261)"/>
<path d="M47.1341 92.0824C45.6382 92.0734 44.1439 91.9855 42.6573 91.8191C43.0972 89.777 44.0384 87.8765 45.396 86.2889C48.6007 83.0252 51.1565 79.1825 52.9276 74.9653C53.8449 70.4295 53.5912 65.7347 52.1902 61.3242C52.1494 60.2912 51.9904 59.2663 51.7162 58.2695C51.0908 55.5893 50.7204 52.8559 50.6102 50.1059C50.6102 49.5792 50.6102 48.9472 50.6102 48.2625C50.7771 45.1494 50.4028 42.0308 49.5041 39.0456C48.6506 36.8798 47.3182 34.9352 45.6067 33.3574C47.6026 33.1471 49.615 33.1471 51.6109 33.3574C54.0502 35.8437 56.1249 38.6632 57.7731 41.7316C59.5775 46.4959 60.5226 51.5424 60.5645 56.6367C60.5927 59.7925 60.8391 62.9426 61.3018 66.0644C61.3018 67.065 61.5652 68.0657 61.6705 68.9084C62.1604 75.8916 61.1364 82.8982 58.6684 89.449C55.0801 91.21 51.1311 92.1116 47.1341 92.0824ZM42.7626 91.6611C44.2101 91.873 45.6712 91.9786 47.1341 91.9771C51.0671 92.0483 54.9625 91.2007 58.5104 89.5017C60.9785 83.0059 62.0029 76.0507 61.5125 69.1191C61.5125 68.2237 61.5125 67.2757 61.1438 66.2224C60.6483 63.0152 60.3843 59.7765 60.3538 56.5314C60.3124 51.4541 59.3672 46.4248 57.5624 41.679C55.9679 38.622 53.9066 35.8322 51.4529 33.4101C50.2132 33.2438 48.9642 33.1558 47.7134 33.1467H45.712C47.3824 34.7076 48.6942 36.6124 49.5568 38.7296C50.4564 41.7327 50.8305 44.8687 50.6628 47.9992C50.609 48.6124 50.609 49.2293 50.6628 49.8425C50.7726 52.5752 51.143 55.2912 51.7689 57.9534C52.0141 58.9741 52.1726 60.0136 52.2429 61.0609C53.6468 65.5083 53.8826 70.2423 52.9276 74.8073C51.1751 79.0501 48.6175 82.9133 45.396 86.1836C44.0766 87.7622 43.1715 89.6448 42.7626 91.6611Z" fill="black"/>
<path d="M47.1342 92.0822C44.0658 92.0976 41.0123 91.6538 38.0753 90.7655C30.102 87.7818 23.0795 82.7059 17.7453 76.071C16.8114 74.8247 15.5923 73.8203 14.1903 73.1422C12.7882 72.4641 11.244 72.1319 9.68711 72.1736H7.52771H5.84232C4.52562 72.1736 2.94557 72.1736 2.36622 70.4882C2.23934 70.0829 2.20659 69.6541 2.27048 69.2342C2.33437 68.8144 2.49321 68.4146 2.73491 68.0655C3.67749 66.5725 5.14186 65.4836 6.84302 65.0107C6.84302 64.7474 9.16043 62.0086 10.4771 60.6392C12.9133 58.401 14.8204 55.6483 16.06 52.581C17.677 48.7848 20.1036 45.3875 23.1702 42.6267C29.977 36.5952 38.6765 33.1303 47.7662 32.8304C51.6792 32.8416 55.5619 33.5184 59.2479 34.8318C63.009 36.0321 66.1485 38.661 67.9908 42.1527C69.4848 44.9814 70.4824 48.0455 70.9402 51.2116C71.2917 53.3793 72.2135 55.4143 73.6111 57.1081C75.0086 58.8019 76.8317 60.0933 78.8931 60.8499C80.2098 61.4293 80.9998 61.8506 80.9472 62.3773C80.8945 62.904 79.8411 63.4833 77.4711 64.0627C75.1666 64.8704 73.2739 66.5549 72.2043 68.7502C71.8356 69.5928 71.4669 70.7515 71.0456 72.0683C69.7477 77.0245 67.3336 81.6184 63.988 85.4986C61.7955 87.7139 59.1627 89.4444 56.2596 90.5785C53.3564 91.7125 50.2477 92.2248 47.1342 92.0822ZM9.63444 72.0683C11.2076 72.0183 12.7698 72.3462 14.1902 73.0243C15.6105 73.7024 16.8477 74.711 17.798 75.9657C23.1177 82.593 30.1212 87.6682 38.0753 90.6601C41.0347 91.5285 44.1026 91.9718 47.1869 91.9768C50.2461 92.1209 53.3023 91.6342 56.1655 90.547C59.0286 89.4597 61.6375 87.7951 63.83 85.6566C67.1521 81.7682 69.5474 77.1758 70.8349 72.2263C71.1612 71.0934 71.5659 69.9847 72.0463 68.9082C73.0985 66.6766 74.9924 64.953 77.3131 64.1154C79.5251 63.5887 80.6312 63.062 80.6312 62.588C80.6312 62.114 79.7358 61.6399 78.6824 61.2186C76.6176 60.4283 74.7938 59.1145 73.3902 57.4062C71.9866 55.698 71.0516 53.6539 70.6769 51.475C70.5026 47.9393 69.3254 44.5262 67.2828 41.6349C65.2403 38.7436 62.4168 36.4936 59.1425 35.1478C55.467 33.8639 51.6067 33.1879 47.7135 33.1465C38.6614 33.4749 30.0044 36.9377 23.2228 42.9427C20.1584 45.6939 17.7472 49.0948 16.1653 52.897C14.8545 55.8925 12.9354 58.5828 10.5298 60.7973C9.22473 62.1924 8.01085 63.6702 6.89569 65.2214C5.22812 65.6765 3.7967 66.75 2.89291 68.2235C2.66168 68.5371 2.50777 68.901 2.44371 69.2854C2.37964 69.6697 2.40723 70.0638 2.52423 70.4355C3.05091 71.8576 4.57829 72.0683 5.84232 72.0683H7.52771H9.68711H9.63444Z" fill="#002F82"/>
<path style="mix-blend-mode:screen" opacity="0.5" d="M14.4798 57.7427C21.748 35.5693 48.1875 28.2485 62.4079 37.6761C73.6262 45.155 64.8306 51.2645 61.7232 53.9506C49.8729 64.0102 10.161 70.8044 14.4798 57.7427Z" fill="url(#paint40_linear_78_173261)"/>
<path style="mix-blend-mode:screen" opacity="0.8" d="M22.9593 46.2611C27.6622 40.1935 34.4972 36.1422 42.0776 34.9293C49.658 33.7165 57.4159 35.4329 63.7772 39.7303C57.131 36.4747 49.6405 35.3548 42.3328 36.524C35.025 37.6933 28.2579 41.0944 22.9593 46.2611Z" fill="url(#paint41_linear_78_173261)"/>
<g style="mix-blend-mode:screen" opacity="0.4">
<path d="M68.9384 64.4844C69.9917 70.9099 61.5121 79.2842 49.5038 81.2855C37.4954 83.2869 21.4316 77.1248 20.3783 70.7519C19.3249 64.3791 33.282 58.5329 45.2903 56.5315C57.2987 54.5301 67.885 58.0589 68.9384 64.4844Z" fill="url(#paint42_radial_78_173261)"/>
</g>
<path d="M7.57992 66.0646C6.36855 66.5913 3.99849 68.856 5.4732 69.646C6.94791 70.4361 11.9514 68.8033 15.2695 65.0112C12.6767 65.0943 10.0996 65.4473 7.57992 66.0646Z" fill="url(#paint43_radial_78_173261)"/>
<path d="M8.00128 66.0643H7.57992C6.36855 66.591 3.99849 68.8557 5.4732 69.6458C5.84939 69.7703 6.25571 69.7703 6.6319 69.6458C6.43556 69.4031 6.3082 69.112 6.26322 68.8031C6.31278 68.2409 6.49649 67.6987 6.79891 67.2222C7.10134 66.7456 7.51367 66.3486 8.00128 66.0643Z" fill="url(#paint44_radial_78_173261)"/>
<path d="M15.2694 65.1165C13.6063 65.0818 11.9448 65.2409 10.3186 65.5905C8.26449 66.8545 6.36844 68.8559 6.78978 69.9619C10.0905 69.373 13.0862 67.6612 15.2694 65.1165Z" fill="url(#paint45_radial_78_173261)"/>
<path d="M13.5843 65.1161L10.3188 65.5901C8.3701 66.7488 6.57939 68.7502 6.68472 69.9089C6.8954 70.1722 13.0049 67.4335 13.5843 65.1161Z" fill="url(#paint46_radial_78_173261)"/>
<path style="mix-blend-mode:screen" d="M13.5843 65.1161L10.3188 65.5901C8.3701 66.7488 6.57939 68.7502 6.68472 69.9089C6.8954 70.1722 13.0049 67.4335 13.5843 65.1161Z" fill="url(#paint47_radial_78_173261)"/>
<path d="M6.7374 70.0145C6.31606 68.8558 8.26478 66.8017 10.3715 65.5904C12.0069 65.187 13.6929 65.0273 15.375 65.1163C13.1813 67.675 10.164 69.3886 6.84274 69.9618L6.7374 70.0145ZM10.3715 65.6957C8.37012 66.8544 6.52673 68.8031 6.84274 69.8565C10.0682 69.2838 13.0029 67.6307 15.1643 65.169H14.6903C13.2384 65.2217 11.7936 65.3979 10.3715 65.6957Z" fill="#E05353"/>
<path d="M6.47397 70.0672C6.12644 70.1381 5.76814 70.1381 5.42061 70.0672C5.2552 69.9895 5.11953 69.8602 5.03403 69.6987C4.94853 69.5372 4.91784 69.3523 4.94659 69.1718C4.94659 68.1185 6.68464 66.6964 7.58 66.2751C9.92361 65.7641 12.2991 65.4121 14.6902 65.2217H15.4276C13.1465 67.8904 9.95577 69.6172 6.47397 70.0672ZM7.63267 66.2224C6.63198 66.6438 5.15727 68.0658 5.1046 69.0138C5.08935 69.1519 5.11646 69.2913 5.1823 69.4136C5.24815 69.5359 5.34963 69.6352 5.47328 69.6985C5.80082 69.7881 6.14643 69.7881 6.47397 69.6985C9.85257 69.2333 12.9439 67.5471 15.1642 64.9584H14.6902C12.314 65.1557 9.95531 65.5254 7.63267 66.0644V66.2224Z" fill="#002F82"/>
<path d="M13.6367 58.1116C11.9975 59.8293 9.82605 60.9429 7.47454 61.2717C4.8938 61.535 3.47176 60.0076 1.83905 60.4816C0.206334 60.9557 -0.267687 62.6937 1.10169 64.2211C3.23231 65.7677 5.76912 66.6567 8.3991 66.7784C11.0291 66.9 13.6371 66.2491 15.9015 64.9058L13.6367 58.1116Z" fill="url(#paint48_linear_78_173261)"/>
<path style="mix-blend-mode:screen" d="M13.6367 58.1116C11.9975 59.8293 9.82605 60.9429 7.47454 61.2717C4.8938 61.535 3.47176 60.0076 1.83905 60.4816C0.206334 60.9557 -0.267687 62.6937 1.10169 64.2211C3.23231 65.7677 5.76912 66.6567 8.3991 66.7784C11.0291 66.9 13.6371 66.2491 15.9015 64.9058L13.6367 58.1116Z" fill="url(#paint49_radial_78_173261)"/>
<path style="mix-blend-mode:screen" opacity="0.5" d="M0.575317 62.167C1.36534 59.7969 4.15676 61.377 5.42079 61.5876C6.79274 61.7957 8.19228 61.7307 9.53901 61.3963C10.8857 61.0618 12.1531 60.4646 13.2684 59.6389C12.2691 60.7085 11.0174 61.5101 9.62787 61.9702C8.23835 62.4303 6.75556 62.5342 5.31546 62.2723C3.78809 62.1143 1.47068 61.061 0.575317 62.167Z" fill="url(#paint50_linear_78_173261)"/>
<path d="M9.6867 66.9072C6.59364 67.0229 3.55147 66.0954 1.04911 64.2738C0.730932 63.9642 0.492777 63.5819 0.355152 63.1599C0.217527 62.7378 0.18456 62.2886 0.259086 61.851C0.372739 61.4952 0.578955 61.176 0.856602 60.9261C1.13425 60.6762 1.47335 60.5046 1.83914 60.429C2.67148 60.2551 3.53742 60.3472 4.31454 60.6923C5.31513 61.1025 6.39511 61.2825 7.47463 61.219C9.81099 60.8778 11.9734 59.7873 13.6368 58.1116C13.0942 58.8007 12.4346 59.389 11.6881 59.8496C10.4214 60.6792 8.97872 61.2022 7.47463 61.377C6.37776 61.4448 5.27968 61.2648 4.26187 60.8503C3.50154 60.514 2.6603 60.4043 1.83914 60.5343C1.50617 60.6248 1.20134 60.7976 0.952809 61.037C0.704275 61.2763 0.520039 61.5744 0.417094 61.9037C0.334562 62.3127 0.359074 62.7361 0.488257 63.1329C0.617441 63.5297 0.846913 63.8864 1.15445 64.1684C3.27438 65.6933 5.79151 66.5697 8.40006 66.6913C11.0086 66.8128 13.5963 66.1742 15.8489 64.8531C14.0965 66.2341 11.9172 66.9605 9.6867 66.9072Z" fill="#002F82"/>
<path d="M16.06 65.1165H15.6913C15.1138 64.7732 14.6827 64.2296 14.4799 63.5891C14.8362 64.2664 15.3891 64.82 16.0659 65.1772C16.7428 65.5344 17.5118 65.6785 18.272 65.5905C17.5044 65.6485 16.7364 65.4839 16.06 65.1165Z" fill="#002F82"/>
<path d="M25.5926 56.1626C25.2766 59.0067 23.4332 60.534 21.5898 60.3234C20.5775 60.0498 19.7059 59.404 19.1493 58.5154C18.5927 57.6268 18.3921 56.5607 18.5877 55.5306C18.9037 52.5811 20.6418 50.5271 22.6958 50.8431C24.7499 51.1591 25.8559 53.4238 25.5926 56.1626Z" fill="black"/>
<path d="M25.4345 56.1624C25.1712 58.6904 23.4331 60.5338 21.5897 60.3231C19.7463 60.1125 18.4296 57.9531 18.693 55.425C18.9563 52.8969 20.6944 51.1062 22.5378 51.2642C23.5595 51.5488 24.4316 52.2175 24.9716 53.1305C25.5115 54.0434 25.6774 55.1299 25.4345 56.1624Z" fill="url(#paint51_radial_78_173261)"/>
<path style="mix-blend-mode:screen" opacity="0.9" d="M23.1698 52.4759C23.1579 52.565 23.1271 52.6505 23.0795 52.7267C23.032 52.8029 22.9687 52.8681 22.8939 52.918C22.8192 52.9678 22.7346 53.0012 22.646 53.0157C22.5573 53.0303 22.4666 53.0259 22.3798 53.0026C22.2907 52.9907 22.2052 52.9599 22.129 52.9123C22.0527 52.8648 21.9875 52.8015 21.9377 52.7267C21.8879 52.652 21.8545 52.5674 21.8399 52.4788C21.8253 52.3901 21.8298 52.2994 21.8531 52.2126C21.8911 52.0397 21.9947 51.8882 22.142 51.79C22.2893 51.6918 22.4689 51.6545 22.6431 51.6859C22.816 51.7239 22.9674 51.8275 23.0656 51.9748C23.1638 52.1221 23.2012 52.3017 23.1698 52.4759Z" fill="url(#paint52_radial_78_173261)"/>
<path d="M21.5367 60.4289C20.5193 60.1329 19.6507 59.4644 19.1041 58.5566C18.5575 57.6488 18.3729 56.5684 18.5873 55.5307C18.8507 53.0026 20.6414 51.1066 22.5901 51.3173C23.6297 51.6137 24.5157 52.2983 25.0647 53.2296C25.6136 54.1609 25.7837 55.2676 25.5395 56.3207C25.2762 58.7435 23.4855 60.7975 21.5367 60.4289ZM22.5374 51.3699C20.7467 51.3699 19.0613 53.0026 18.798 55.478C18.5347 57.9534 19.7987 60.0602 21.5894 60.2182C23.3801 60.3762 25.0655 58.6381 25.3288 56.1627C25.5726 55.158 25.4181 54.0979 24.8978 53.2045C24.3775 52.3111 23.5316 51.6537 22.5374 51.3699Z" fill="black"/>
<path d="M22.2744 53.0024C20.905 53.0024 19.6937 54.2665 19.5357 56.0572C19.379 56.8042 19.5235 57.5828 19.9377 58.2238C20.3519 58.8648 21.0024 59.3165 21.7477 59.4806C23.1171 59.4806 24.3285 58.2166 24.4865 56.4259C24.6445 54.6352 23.5911 53.1078 22.2744 53.0024Z" fill="url(#paint53_radial_78_173261)"/>
<path d="M22.2743 54.7408C22.747 54.8876 23.1462 55.2088 23.3908 55.6392C23.6353 56.0696 23.7069 56.5769 23.591 57.0582C23.5507 57.5564 23.3205 58.0201 22.948 58.3534C22.5755 58.6866 22.0892 58.864 21.5896 58.8489C21.1128 58.6911 20.7127 58.3598 20.4688 57.9208C20.2249 57.4818 20.1549 56.9671 20.2729 56.4788C20.3258 55.9901 20.5614 55.5394 20.9326 55.2171C21.3037 54.8948 21.783 54.7247 22.2743 54.7408Z" fill="black"/>
<path style="mix-blend-mode:screen" opacity="0.5" d="M23.6434 56.5316C23.596 56.6532 23.505 56.7529 23.3883 56.8113C23.2715 56.8697 23.1372 56.8826 23.0114 56.8476C22.9451 56.8241 22.8843 56.7877 22.8323 56.7403C22.7804 56.6929 22.7385 56.6357 22.7091 56.5719C22.6796 56.5081 22.6632 56.439 22.6609 56.3688C22.6585 56.2985 22.6703 56.2286 22.6954 56.1629C22.7521 56.0509 22.8469 55.9628 22.9628 55.9145C23.0786 55.8663 23.208 55.8609 23.3274 55.8996C23.3917 55.9171 23.4517 55.948 23.5032 55.9903C23.5548 56.0326 23.5969 56.0853 23.6267 56.1449C23.6565 56.2046 23.6734 56.2699 23.6763 56.3365C23.6792 56.4031 23.668 56.4696 23.6434 56.5316Z" fill="url(#paint54_radial_78_173261)"/>
<path style="mix-blend-mode:screen" d="M21.5372 53.74C20.7472 54.0034 20.2732 54.5301 20.3785 55.0041C20.4839 55.4781 21.2212 55.6361 22.0112 55.3728C22.8013 55.1094 23.2753 54.5301 23.1699 54.1087C23.0646 53.6874 22.2746 53.4767 21.5372 53.74Z" fill="url(#paint55_linear_78_173261)"/>
<path d="M22.2743 49.1053C23.0005 48.9233 23.768 49.0095 24.4357 49.3482C25.1034 49.6869 25.6263 50.2552 25.9084 50.9487C25.9672 50.5052 25.8868 50.0544 25.6783 49.6587C25.4698 49.2629 25.1435 48.9416 24.7446 48.7392C24.3456 48.5368 23.8937 48.4634 23.4511 48.5289C23.0086 48.5945 22.5974 48.7959 22.2743 49.1053Z" fill="black"/>
<path d="M86.2133 63.3785C85.6885 63.373 85.1698 63.2657 84.6859 63.0625C85.616 63.3233 86.5999 63.3233 87.53 63.0625C87.1116 63.2399 86.6667 63.3467 86.2133 63.3785Z" fill="#B62A00"/>
<path d="M40.2866 67.8025C39.9901 66.5001 40.087 65.139 40.5653 63.8919C41.0435 62.6447 41.8814 61.5678 42.9727 60.7976C47.5459 57.2123 53.0072 54.9368 58.7732 54.2141C66.7787 52.5287 68.9908 47.9992 68.4641 50.738C67.9374 53.4767 62.2493 57.0055 58.4572 58.7435C50.8203 62.2723 46.1328 65.6431 45.2901 69.2772C44.7634 72.0159 40.866 70.3305 40.2866 67.8025Z" fill="url(#paint56_linear_78_173261)"/>
<path d="M44.6059 68.6978C46.4185 64.9016 49.5974 61.9297 53.5068 60.3762C59.1423 57.5321 68.1485 54.1614 68.6226 50.2639C65.5738 52.1033 62.2984 53.5374 58.8789 54.53C53.113 55.2527 47.6517 57.5283 43.0785 61.1136C42.0252 61.8682 41.2117 62.9103 40.7353 64.1153C40.2589 65.3202 40.1399 66.6369 40.3924 67.9078C40.653 68.9032 41.2968 69.7552 42.1831 70.2778C42.6956 70.273 43.196 70.1217 43.6253 69.8418C44.0546 69.5618 44.3948 69.1648 44.6059 68.6978Z" fill="url(#paint57_linear_78_173261)"/>
<path style="mix-blend-mode:screen" opacity="0.5" d="M40.9193 65.1166C41.288 62.0092 46.1861 58.1117 51.7163 56.5844C57.0144 55.4374 62.1587 53.6696 67.0427 51.3175C68.4648 49.8428 67.6221 53.2136 61.1439 56.163C56.4399 57.8948 52.0334 60.3468 48.0822 63.4312C45.7121 66.0646 40.2346 71.5948 40.9193 65.1166Z" fill="url(#paint58_linear_78_173261)"/>
<path style="mix-blend-mode:screen" opacity="0.9" d="M41.1295 65.0113C44.2369 58.1118 53.9279 56.7951 61.2488 54.4777C52.1898 58.1644 46.3963 59.0598 41.1295 65.0113Z" fill="url(#paint59_linear_78_173261)"/>
<path d="M43.7628 70.8045C42.9315 70.7273 42.1435 70.3987 41.5036 69.8624C40.8638 69.326 40.4026 68.6075 40.1814 67.8025C39.9435 66.519 40.0745 65.1944 40.5593 63.9824C41.0441 62.7705 41.8627 61.7209 42.9201 60.9556C47.493 57.3606 52.9521 55.0677 58.7206 54.3194C61.7911 53.7527 64.6915 52.4916 67.2002 50.6326C67.5452 50.354 67.9378 50.1399 68.3589 50.0006C68.3589 50.0006 68.3589 50.3693 68.3589 50.8433C67.8322 53.8454 61.5647 57.4268 58.3519 58.9015C50.2937 62.641 46.0276 66.0117 45.2375 69.4352C45.1641 69.7882 44.9827 70.1097 44.7185 70.355C44.4543 70.6004 44.1203 70.7575 43.7628 70.8045ZM68.4642 50.2639C68.0798 50.4133 67.7236 50.627 67.4108 50.896C64.85 52.6976 61.9456 53.9526 58.8786 54.5827C53.1099 55.2951 47.6459 57.5717 43.0781 61.1663C42.039 61.9212 41.235 62.9552 40.7596 64.1484C40.2842 65.3416 40.1568 66.6451 40.3921 67.9078C40.6108 68.671 41.0544 69.3506 41.6651 69.8579C42.2758 70.3652 43.0251 70.6767 43.8155 70.7519C44.1927 70.7571 44.5593 70.6273 44.8491 70.3858C45.1389 70.1443 45.3327 69.8071 45.3955 69.4352C46.1856 66.0644 50.399 62.7463 58.5626 58.9015C62.302 57.1635 68.0429 53.6347 68.5695 50.9486C68.5695 50.9486 68.5695 50.3166 68.5695 50.2113L68.4642 50.2639Z" fill="#B62A00"/>
<path d="M41.762 69.9093C44.4982 65.6651 48.2677 62.1855 52.7169 59.797C48.2836 62.2077 44.519 65.6826 41.762 69.9093Z" fill="#B62A00"/>
<path d="M17.0074 60.4289C17.0074 60.4289 20.0095 56.6894 26.5404 61.0609C24.8059 61.4293 23.0446 61.6582 21.2736 61.7456C19.812 61.4469 18.3831 61.0059 17.0074 60.4289Z" fill="url(#paint60_linear_78_173261)"/>
<path style="mix-blend-mode:screen" opacity="0.5" d="M17.0074 60.7978C18.6928 59.007 22.2743 58.6384 26.4877 61.6931C22.8536 60.3764 19.9042 59.2177 17.0074 60.7978Z" fill="url(#paint61_linear_78_173261)"/>
<path d="M26.3827 61.0607C19.9572 56.7419 16.8497 60.376 16.8497 60.4287C17.4114 59.7251 18.1885 59.2254 19.0618 59.0066C20.5787 58.6733 22.1618 58.8206 23.5913 59.428C24.6168 59.7905 25.564 60.3445 26.3827 61.0607Z" fill="#002F82"/>
<defs>
<linearGradient id="paint0_linear_78_173261" x1="15.325" y1="53.8653" x2="12.6943" y2="61.4785" gradientUnits="userSpaceOnUse">
<stop stop-color="#00AEFF"/>
<stop offset="1" stop-color="#0057C7"/>
</linearGradient>
<radialGradient id="paint1_radial_78_173261" cx="0" cy="0" r="1" gradientUnits="userSpaceOnUse" gradientTransform="translate(12.6068 58.6075) rotate(109.075) scale(4.02747 3.05757)">
<stop stop-color="white"/>
<stop offset="0.54" stop-color="#ECECEC"/>
<stop offset="0.66" stop-color="#E9E9EA"/>
<stop offset="0.73" stop-color="#E1E1E2"/>
<stop offset="0.8" stop-color="#D2D2D6"/>
<stop offset="0.85" stop-color="#BDBDC4"/>
<stop offset="0.91" stop-color="#A2A2AD"/>
<stop offset="0.94" stop-color="#8C8C9A"/>
<stop offset="1" stop-color="#C5C5C5"/>
</radialGradient>
<linearGradient id="paint2_linear_78_173261" x1="15.9407" y1="47.8238" x2="16.7494" y2="48.2077" gradientUnits="userSpaceOnUse">
<stop stop-color="white"/>
<stop offset="0.04" stop-color="#EDEDED"/>
<stop offset="0.19" stop-color="#AFAFAF"/>
<stop offset="0.34" stop-color="#7A7A7A"/>
<stop offset="0.49" stop-color="#4E4E4E"/>
<stop offset="0.63" stop-color="#2C2C2C"/>
<stop offset="0.76" stop-color="#141414"/>
<stop offset="0.88" stop-color="#050505"/>
<stop offset="0.98"/>
</linearGradient>
<radialGradient id="paint3_radial_78_173261" cx="0" cy="0" r="1" gradientUnits="userSpaceOnUse" gradientTransform="translate(14.0056 56.7419) scale(4.84548 4.84548)">
<stop stop-color="#BC5807"/>
<stop offset="0.14" stop-color="#B24D07"/>
<stop offset="0.52" stop-color="#993206"/>
<stop offset="1" stop-color="#610800"/>
</radialGradient>
<radialGradient id="paint4_radial_78_173261" cx="0" cy="0" r="1" gradientUnits="userSpaceOnUse" gradientTransform="translate(16.0336 51.0244) rotate(32.865) scale(0.334839 0.346231)">
<stop stop-color="white"/>
<stop offset="0.22" stop-color="#B3B3B3"/>
<stop offset="0.62" stop-color="#333333"/>
<stop offset="0.79"/>
<stop offset="1"/>
</radialGradient>
<linearGradient id="paint5_linear_78_173261" x1="15.1492" y1="52.5686" x2="15.1752" y2="53.8766" gradientUnits="userSpaceOnUse">
<stop stop-color="#B9B9B9"/>
<stop offset="0.04" stop-color="#ADADAD"/>
<stop offset="0.33" stop-color="#646464"/>
<stop offset="0.57" stop-color="#2E2E2E"/>
<stop offset="0.75" stop-color="#0D0D0D"/>
<stop offset="0.85"/>
<stop offset="0.98"/>
</linearGradient>
<linearGradient id="paint6_linear_78_173261" x1="67.6219" y1="88.1853" x2="67.7272" y2="101.458" gradientUnits="userSpaceOnUse">
<stop stop-color="#FF8400"/>
<stop offset="1" stop-color="#E24D00"/>
</linearGradient>
<linearGradient id="paint7_linear_78_173261" x1="67.6219" y1="88.1848" x2="67.7272" y2="101.457" gradientUnits="userSpaceOnUse">
<stop stop-color="#FFC200"/>
<stop offset="0.38" stop-color="#FFA100"/>
<stop offset="1" stop-color="#FF6F00"/>
</linearGradient>
<linearGradient id="paint8_linear_78_173261" x1="68.9914" y1="91.9768" x2="70.2554" y2="102.826" gradientUnits="userSpaceOnUse">
<stop stop-color="white"/>
<stop offset="0.04" stop-color="#EFEFEF"/>
<stop offset="0.19" stop-color="#B1B1B1"/>
<stop offset="0.35" stop-color="#7B7B7B"/>
<stop offset="0.5" stop-color="#4F4F4F"/>
<stop offset="0.64" stop-color="#2C2C2C"/>
<stop offset="0.77" stop-color="#141414"/>
<stop offset="0.9" stop-color="#050505"/>
<stop offset="1"/>
</linearGradient>
<linearGradient id="paint9_linear_78_173261" x1="65.831" y1="93.2411" x2="64.1983" y2="106.039" gradientUnits="userSpaceOnUse">
<stop stop-color="#FF8400"/>
<stop offset="1" stop-color="#E24D00"/>
</linearGradient>
<linearGradient id="paint10_linear_78_173261" x1="65.8313" y1="93.2409" x2="64.1986" y2="106.039" gradientUnits="userSpaceOnUse">
<stop stop-color="#FFC200"/>
<stop offset="0.38" stop-color="#FFA100"/>
<stop offset="1" stop-color="#FF6F00"/>
</linearGradient>
<linearGradient id="paint11_linear_78_173261" x1="65.8839" y1="97.2966" x2="65.7258" y2="103.88" gradientUnits="userSpaceOnUse">
<stop stop-color="white"/>
<stop offset="0.04" stop-color="#EFEFEF"/>
<stop offset="0.19" stop-color="#B1B1B1"/>
<stop offset="0.35" stop-color="#7B7B7B"/>
<stop offset="0.5" stop-color="#4F4F4F"/>
<stop offset="0.64" stop-color="#2C2C2C"/>
<stop offset="0.77" stop-color="#141414"/>
<stop offset="0.9" stop-color="#050505"/>
<stop offset="1"/>
</linearGradient>
<linearGradient id="paint12_linear_78_173261" x1="55.2446" y1="17.5044" x2="83.5801" y2="38.203" gradientUnits="userSpaceOnUse">
<stop stop-color="#FF8400"/>
<stop offset="1" stop-color="#E24D00"/>
</linearGradient>
<linearGradient id="paint13_linear_78_173261" x1="55.2446" y1="17.5044" x2="83.5801" y2="38.203" gradientUnits="userSpaceOnUse">
<stop stop-color="#FFDB00"/>
<stop offset="0.51" stop-color="#FFA100"/>
<stop offset="1" stop-color="#FF6F00"/>
</linearGradient>
<linearGradient id="paint14_linear_78_173261" x1="58.7208" y1="24.6144" x2="73.5733" y2="47.2617" gradientUnits="userSpaceOnUse">
<stop stop-color="white"/>
<stop offset="0.04" stop-color="#EFEFEF"/>
<stop offset="0.19" stop-color="#B1B1B1"/>
<stop offset="0.35" stop-color="#7B7B7B"/>
<stop offset="0.5" stop-color="#4F4F4F"/>
<stop offset="0.64" stop-color="#2C2C2C"/>
<stop offset="0.77" stop-color="#141414"/>
<stop offset="0.9" stop-color="#050505"/>
<stop offset="1"/>
</linearGradient>
<linearGradient id="paint15_linear_78_173261" x1="58.1412" y1="22.0866" x2="64.356" y2="36.4123" gradientUnits="userSpaceOnUse">
<stop stop-color="white"/>
<stop offset="0.1" stop-color="#D1D1D1"/>
<stop offset="0.23" stop-color="#9A9A9A"/>
<stop offset="0.37" stop-color="#6B6B6B"/>
<stop offset="0.5" stop-color="#444444"/>
<stop offset="0.63" stop-color="#272727"/>
<stop offset="0.76" stop-color="#111111"/>
<stop offset="0.88" stop-color="#040404"/>
<stop offset="1"/>
</linearGradient>
<linearGradient id="paint16_linear_78_173261" x1="74.7844" y1="41.4154" x2="101.961" y2="67.5388" gradientUnits="userSpaceOnUse">
<stop stop-color="#FF8400"/>
<stop offset="1" stop-color="#E24D00"/>
</linearGradient>
<linearGradient id="paint17_linear_78_173261" x1="75.1006" y1="41.0993" x2="102.277" y2="67.1701" gradientUnits="userSpaceOnUse">
<stop stop-color="#FFDB00"/>
<stop offset="0.51" stop-color="#FFA100"/>
<stop offset="1" stop-color="#FF6F00"/>
</linearGradient>
<linearGradient id="paint18_linear_78_173261" x1="81.1573" y1="73.2798" x2="94.5877" y2="71.0151" gradientUnits="userSpaceOnUse">
<stop stop-color="white"/>
<stop offset="0.04" stop-color="#EFEFEF"/>
<stop offset="0.19" stop-color="#B1B1B1"/>
<stop offset="0.35" stop-color="#7B7B7B"/>
<stop offset="0.5" stop-color="#4F4F4F"/>
<stop offset="0.64" stop-color="#2C2C2C"/>
<stop offset="0.77" stop-color="#141414"/>
<stop offset="0.9" stop-color="#050505"/>
<stop offset="1"/>
</linearGradient>
<linearGradient id="paint19_linear_78_173261" x1="86.7932" y1="45.5236" x2="94.6408" y2="53.0551" gradientUnits="userSpaceOnUse">
<stop stop-color="white"/>
<stop offset="0.04" stop-color="#EFEFEF"/>
<stop offset="0.19" stop-color="#B1B1B1"/>
<stop offset="0.35" stop-color="#7B7B7B"/>
<stop offset="0.5" stop-color="#4F4F4F"/>
<stop offset="0.64" stop-color="#2C2C2C"/>
<stop offset="0.77" stop-color="#141414"/>
<stop offset="0.9" stop-color="#050505"/>
<stop offset="1"/>
</linearGradient>
<linearGradient id="paint20_linear_78_173261" x1="87.5907" y1="46.2885" x2="90.7158" y2="49.0521" gradientUnits="userSpaceOnUse">
<stop stop-color="white"/>
<stop offset="0.1" stop-color="#D1D1D1"/>
<stop offset="0.23" stop-color="#9A9A9A"/>
<stop offset="0.37" stop-color="#6B6B6B"/>
<stop offset="0.5" stop-color="#444444"/>
<stop offset="0.63" stop-color="#272727"/>
<stop offset="0.76" stop-color="#111111"/>
<stop offset="0.88" stop-color="#040404"/>
<stop offset="1"/>
</linearGradient>
<linearGradient id="paint21_linear_78_173261" x1="31.4915" y1="39.5197" x2="49.188" y2="86.7631" gradientUnits="userSpaceOnUse">
<stop stop-color="#0F83D9"/>
<stop offset="0.27" stop-color="#0A71CC"/>
<stop offset="0.72" stop-color="#035ABA"/>
<stop offset="1" stop-color="#0051B3"/>
</linearGradient>
<linearGradient id="paint22_linear_78_173261" x1="31.4911" y1="39.5197" x2="49.1349" y2="86.7631" gradientUnits="userSpaceOnUse">
<stop stop-color="#00AEFF"/>
<stop offset="1" stop-color="#0057C7"/>
</linearGradient>
<linearGradient id="paint23_linear_78_173261" x1="7.15861" y1="69.4349" x2="9.21267" y2="73.859" gradientUnits="userSpaceOnUse">
<stop stop-color="white"/>
<stop offset="0.1" stop-color="#D1D1D1"/>
<stop offset="0.23" stop-color="#9A9A9A"/>
<stop offset="0.37" stop-color="#6B6B6B"/>
<stop offset="0.5" stop-color="#444444"/>
<stop offset="0.63" stop-color="#272727"/>
<stop offset="0.76" stop-color="#111111"/>
<stop offset="0.88" stop-color="#040404"/>
<stop offset="1"/>
</linearGradient>
<linearGradient id="paint24_linear_78_173261" x1="28.1206" y1="55.0569" x2="42.5516" y2="90.0286" gradientUnits="userSpaceOnUse">
<stop stop-color="#33BAEB"/>
<stop offset="0.25" stop-color="#22B4EA"/>
<stop offset="0.72" stop-color="#09AAE8"/>
<stop offset="1" stop-color="#00A6E7"/>
</linearGradient>
<linearGradient id="paint25_linear_78_173261" x1="24.5918" y1="40.8365" x2="41.7616" y2="80.6537" gradientUnits="userSpaceOnUse">
<stop stop-color="#DEFDFF"/>
<stop offset="0.24" stop-color="#A2E6F8"/>
<stop offset="0.5" stop-color="#6AD0F2"/>
<stop offset="0.72" stop-color="#41C0ED"/>
<stop offset="0.9" stop-color="#27B7EA"/>
<stop offset="1" stop-color="#1EB3E9"/>
</linearGradient>
<linearGradient id="paint26_linear_78_173261" x1="27.4885" y1="39.4145" x2="29.1739" y2="40.7312" gradientUnits="userSpaceOnUse">
<stop stop-color="#90DCFF"/>
<stop offset="0.12" stop-color="#74B1CD"/>
<stop offset="0.3" stop-color="#4B7385"/>
<stop offset="0.47" stop-color="#2B424C"/>
<stop offset="0.61" stop-color="#141E23"/>
<stop offset="0.72" stop-color="#050809"/>
<stop offset="0.78"/>
<stop offset="1"/>
</linearGradient>
<linearGradient id="paint27_linear_78_173261" x1="23.7495" y1="56.8473" x2="38.128" y2="91.8717" gradientUnits="userSpaceOnUse">
<stop stop-color="#33BAEB"/>
<stop offset="0.25" stop-color="#22B4EA"/>
<stop offset="0.72" stop-color="#09AAE8"/>
<stop offset="1" stop-color="#00A6E7"/>
</linearGradient>
<linearGradient id="paint28_linear_78_173261" x1="19.7988" y1="42.8903" x2="36.9687" y2="82.7601" gradientUnits="userSpaceOnUse">
<stop stop-color="#DEFDFF"/>
<stop offset="0.24" stop-color="#A2E6F8"/>
<stop offset="0.5" stop-color="#6AD0F2"/>
<stop offset="0.72" stop-color="#41C0ED"/>
<stop offset="0.9" stop-color="#27B7EA"/>
<stop offset="1" stop-color="#1EB3E9"/>
</linearGradient>
<linearGradient id="paint29_linear_78_173261" x1="24.2756" y1="41.7316" x2="25.4343" y2="42.7849" gradientUnits="userSpaceOnUse">
<stop stop-color="#C1E8FB"/>
<stop offset="0.67"/>
<stop offset="1"/>
</linearGradient>
<linearGradient id="paint30_linear_78_173261" x1="33.44" y1="39.8357" x2="79.7353" y2="84.2876" gradientUnits="userSpaceOnUse">
<stop stop-color="#33BAEB"/>
<stop offset="0.25" stop-color="#22B4EA"/>
<stop offset="0.72" stop-color="#09AAE8"/>
<stop offset="1" stop-color="#00A6E7"/>
</linearGradient>
<linearGradient id="paint31_linear_78_173261" x1="47.7137" y1="31.2507" x2="70.045" y2="82.1808" gradientUnits="userSpaceOnUse">
<stop stop-color="#DEFDFF"/>
<stop offset="0.24" stop-color="#A2E6F8"/>
<stop offset="0.5" stop-color="#6AD0F2"/>
<stop offset="0.72" stop-color="#41C0ED"/>
<stop offset="0.9" stop-color="#27B7EA"/>
<stop offset="1" stop-color="#1EB3E9"/>
</linearGradient>
<linearGradient id="paint32_linear_78_173261" x1="52.8225" y1="33.3574" x2="53.9285" y2="35.8855" gradientUnits="userSpaceOnUse">
<stop stop-color="#B9E5FB"/>
<stop offset="0.67"/>
<stop offset="1"/>
</linearGradient>
<linearGradient id="paint33_linear_78_173261" x1="26.9094" y1="46.6298" x2="73.2048" y2="91.0818" gradientUnits="userSpaceOnUse">
<stop stop-color="#33BAEB"/>
<stop offset="0.25" stop-color="#22B4EA"/>
<stop offset="0.72" stop-color="#09AAE8"/>
<stop offset="1" stop-color="#00A6E7"/>
</linearGradient>
<linearGradient id="paint34_linear_78_173261" x1="37.127" y1="35.8855" x2="59.4583" y2="86.8156" gradientUnits="userSpaceOnUse">
<stop stop-color="#DEFDFF"/>
<stop offset="0.24" stop-color="#A2E6F8"/>
<stop offset="0.5" stop-color="#6AD0F2"/>
<stop offset="0.72" stop-color="#41C0ED"/>
<stop offset="0.9" stop-color="#27B7EA"/>
<stop offset="1" stop-color="#1EB3E9"/>
</linearGradient>
<linearGradient id="paint35_linear_78_173261" x1="44.8692" y1="33.1467" x2="46.3439" y2="35.1481" gradientUnits="userSpaceOnUse">
<stop stop-color="#B9E5FB"/>
<stop offset="0.67"/>
<stop offset="1"/>
</linearGradient>
<linearGradient id="paint36_linear_78_173261" x1="26.5932" y1="55.6364" x2="41.0243" y2="90.6607" gradientUnits="userSpaceOnUse">
<stop stop-color="#1F1CA7"/>
<stop offset="0.45" stop-color="#121192"/>
<stop offset="1" stop-color="#000072"/>
</linearGradient>
<linearGradient id="paint37_linear_78_173261" x1="22.5904" y1="41.6793" x2="39.8129" y2="81.5491" gradientUnits="userSpaceOnUse">
<stop stop-color="#5453D5"/>
<stop offset="0.16" stop-color="#4644CB"/>
<stop offset="0.72" stop-color="#1613A9"/>
<stop offset="1" stop-color="#03009C"/>
</linearGradient>
<linearGradient id="paint38_linear_78_173261" x1="28.6476" y1="44.839" x2="74.9429" y2="89.2909" gradientUnits="userSpaceOnUse">
<stop stop-color="#1F1CA7"/>
<stop offset="0.45" stop-color="#121192"/>
<stop offset="1" stop-color="#000072"/>
</linearGradient>
<linearGradient id="paint39_linear_78_173261" x1="40.9188" y1="34.2528" x2="63.2501" y2="85.1303" gradientUnits="userSpaceOnUse">
<stop stop-color="#5453D5"/>
<stop offset="0.16" stop-color="#4644CB"/>
<stop offset="0.72" stop-color="#1613A9"/>
<stop offset="1" stop-color="#03009C"/>
</linearGradient>
<linearGradient id="paint40_linear_78_173261" x1="37.1798" y1="35.7274" x2="43.2893" y2="61.9561" gradientUnits="userSpaceOnUse">
<stop stop-color="white"/>
<stop offset="0.13" stop-color="#CFCFCF"/>
<stop offset="0.31" stop-color="#919191"/>
<stop offset="0.48" stop-color="#5D5D5D"/>
<stop offset="0.64" stop-color="#353535"/>
<stop offset="0.78" stop-color="#181818"/>
<stop offset="0.91" stop-color="#060606"/>
<stop offset="1"/>
</linearGradient>
<linearGradient id="paint41_linear_78_173261" x1="40.6558" y1="33.8841" x2="45.3433" y2="49.6845" gradientUnits="userSpaceOnUse">
<stop stop-color="white"/>
<stop offset="0.1" stop-color="#D1D1D1"/>
<stop offset="0.23" stop-color="#9A9A9A"/>
<stop offset="0.37" stop-color="#6B6B6B"/>
<stop offset="0.5" stop-color="#444444"/>
<stop offset="0.63" stop-color="#272727"/>
<stop offset="0.76" stop-color="#111111"/>
<stop offset="0.88" stop-color="#040404"/>
<stop offset="1"/>
</linearGradient>
<radialGradient id="paint42_radial_78_173261" cx="0" cy="0" r="1" gradientUnits="userSpaceOnUse" gradientTransform="translate(17.9819 57.8756) rotate(-11.4347) scale(21.8271 17.0232)">
<stop stop-color="#DADADA"/>
<stop offset="0.05" stop-color="#C3C3C3"/>
<stop offset="0.19" stop-color="#909090"/>
<stop offset="0.32" stop-color="#646464"/>
<stop offset="0.46" stop-color="#404040"/>
<stop offset="0.59" stop-color="#242424"/>
<stop offset="0.73" stop-color="#101010"/>
<stop offset="0.86" stop-color="#040404"/>
<stop offset="1"/>
</radialGradient>
<radialGradient id="paint43_radial_78_173261" cx="0" cy="0" r="1" gradientUnits="userSpaceOnUse" gradientTransform="translate(7.9486 68.5927) scale(2.58074 2.58075)">
<stop stop-color="#4F0000"/>
<stop offset="0.59" stop-color="#6A0200"/>
<stop offset="0.72" stop-color="#7C0100"/>
<stop offset="0.87" stop-color="#890001"/>
<stop offset="1" stop-color="#8E0001"/>
</radialGradient>
<radialGradient id="paint44_radial_78_173261" cx="0" cy="0" r="1" gradientUnits="userSpaceOnUse" gradientTransform="translate(7.94861 68.5924) scale(2.58075 2.58074)">
<stop stop-color="#4F0000"/>
<stop offset="0.59" stop-color="#6A0200"/>
<stop offset="0.72" stop-color="#7C0100"/>
<stop offset="0.87" stop-color="#890001"/>
<stop offset="1" stop-color="#8E0001"/>
</radialGradient>
<radialGradient id="paint45_radial_78_173261" cx="0" cy="0" r="1" gradientUnits="userSpaceOnUse" gradientTransform="translate(6.63178 68.1712) scale(10.7443 10.7443)">
<stop stop-color="#FD9F9F"/>
<stop offset="1" stop-color="#F37171"/>
</radialGradient>
<radialGradient id="paint46_radial_78_173261" cx="0" cy="0" r="1" gradientUnits="userSpaceOnUse" gradientTransform="translate(6.63206 68.1708) scale(10.7443 10.7443)">
<stop stop-color="#F5B8B8"/>
<stop offset="1" stop-color="#FF9999"/>
</radialGradient>
<radialGradient id="paint47_radial_78_173261" cx="0" cy="0" r="1" gradientUnits="userSpaceOnUse" gradientTransform="translate(7.63275 67.6442) scale(7.74222 7.74223)">
<stop stop-color="#F5B8B8"/>
<stop offset="0.02" stop-color="#E6ADAD"/>
<stop offset="0.13" stop-color="#AA8080"/>
<stop offset="0.24" stop-color="#765959"/>
<stop offset="0.34" stop-color="#4C3939"/>
<stop offset="0.44" stop-color="#2B2020"/>
<stop offset="0.53" stop-color="#130E0E"/>
<stop offset="0.62" stop-color="#050404"/>
<stop offset="0.69"/>
<stop offset="1"/>
</radialGradient>
<linearGradient id="paint48_linear_78_173261" x1="3.10308" y1="50.1587" x2="20.7996" y2="97.3494" gradientUnits="userSpaceOnUse">
<stop stop-color="#00AEFF"/>
<stop offset="1" stop-color="#0057C7"/>
</linearGradient>
<radialGradient id="paint49_radial_78_173261" cx="0" cy="0" r="1" gradientUnits="userSpaceOnUse" gradientTransform="translate(1.62837 59.0069) scale(16.9592 16.9592)">
<stop stop-color="#00AEFF"/>
<stop offset="0.07" stop-color="#0092D7"/>
<stop offset="0.19" stop-color="#006C9E"/>
<stop offset="0.3" stop-color="#004B6E"/>
<stop offset="0.42" stop-color="#003046"/>
<stop offset="0.53" stop-color="#001B28"/>
<stop offset="0.64" stop-color="#000C12"/>
<stop offset="0.74" stop-color="#000304"/>
<stop offset="0.83"/>
<stop offset="1"/>
</radialGradient>
<linearGradient id="paint50_linear_78_173261" x1="6.7375" y1="60.4289" x2="10.0556" y2="67.2758" gradientUnits="userSpaceOnUse">
<stop stop-color="white"/>
<stop offset="0.1" stop-color="#D1D1D1"/>
<stop offset="0.23" stop-color="#9A9A9A"/>
<stop offset="0.37" stop-color="#6B6B6B"/>
<stop offset="0.5" stop-color="#444444"/>
<stop offset="0.63" stop-color="#272727"/>
<stop offset="0.76" stop-color="#111111"/>
<stop offset="0.88" stop-color="#040404"/>
<stop offset="1"/>
</linearGradient>
<radialGradient id="paint51_radial_78_173261" cx="0" cy="0" r="1" gradientUnits="userSpaceOnUse" gradientTransform="translate(4.42621 10.8393) rotate(95.3641) scale(5.70154 4.32826)">
<stop stop-color="white"/>
<stop offset="0.54" stop-color="#ECECEC"/>
<stop offset="0.66" stop-color="#E9E9EA"/>
<stop offset="0.73" stop-color="#E1E1E2"/>
<stop offset="0.8" stop-color="#D2D2D6"/>
<stop offset="0.85" stop-color="#BDBDC4"/>
<stop offset="0.91" stop-color="#A2A2AD"/>
<stop offset="0.94" stop-color="#8C8C9A"/>
<stop offset="1" stop-color="#C5C5C5"/>
</radialGradient>
<radialGradient id="paint52_radial_78_173261" cx="0" cy="0" r="1" gradientUnits="userSpaceOnUse" gradientTransform="translate(26.1313 53.6868) rotate(11.6803) scale(0.671198 0.691045)">
<stop stop-color="white"/>
<stop offset="0.04" stop-color="#EDEDED"/>
<stop offset="0.19" stop-color="#AFAFAF"/>
<stop offset="0.34" stop-color="#7A7A7A"/>
<stop offset="0.49" stop-color="#4E4E4E"/>
<stop offset="0.63" stop-color="#2C2C2C"/>
<stop offset="0.76" stop-color="#141414"/>
<stop offset="0.88" stop-color="#050505"/>
<stop offset="0.98"/>
</radialGradient>
<radialGradient id="paint53_radial_78_173261" cx="0" cy="0" r="1" gradientUnits="userSpaceOnUse" gradientTransform="translate(21.7123 59.4417) rotate(9.81999) scale(6.37286 6.37285)">
<stop stop-color="#BC5807"/>
<stop offset="0.14" stop-color="#B24D07"/>
<stop offset="0.52" stop-color="#993206"/>
<stop offset="1" stop-color="#610800"/>
</radialGradient>
<radialGradient id="paint54_radial_78_173261" cx="0" cy="0" r="1" gradientUnits="userSpaceOnUse" gradientTransform="translate(21.9622 53.154) rotate(19.29) scale(0.446409 0.46172)">
<stop stop-color="white"/>
<stop offset="0.22" stop-color="#B3B3B3"/>
<stop offset="0.62" stop-color="#333333"/>
<stop offset="0.79"/>
<stop offset="1"/>
</radialGradient>
<linearGradient id="paint55_linear_78_173261" x1="21.5807" y1="53.709" x2="21.9942" y2="55.3016" gradientUnits="userSpaceOnUse">
<stop stop-color="#B9B9B9"/>
<stop offset="0.04" stop-color="#ADADAD"/>
<stop offset="0.33" stop-color="#646464"/>
<stop offset="0.57" stop-color="#2E2E2E"/>
<stop offset="0.75" stop-color="#0D0D0D"/>
<stop offset="0.85"/>
<stop offset="0.98"/>
</linearGradient>
<linearGradient id="paint56_linear_78_173261" x1="51.8736" y1="54.2667" x2="56.7191" y2="63.3257" gradientUnits="userSpaceOnUse">
<stop stop-color="#FF8400"/>
<stop offset="1" stop-color="#E24D00"/>
</linearGradient>
<linearGradient id="paint57_linear_78_173261" x1="51.8741" y1="54.2667" x2="56.7195" y2="63.3256" gradientUnits="userSpaceOnUse">
<stop stop-color="#FFDB00"/>
<stop offset="0.51" stop-color="#FFA100"/>
<stop offset="1" stop-color="#FF6F00"/>
</linearGradient>
<linearGradient id="paint58_linear_78_173261" x1="52.401" y1="55.373" x2="56.3511" y2="63.4312" gradientUnits="userSpaceOnUse">
<stop stop-color="white"/>
<stop offset="0.04" stop-color="#EFEFEF"/>
<stop offset="0.19" stop-color="#B1B1B1"/>
<stop offset="0.35" stop-color="#7B7B7B"/>
<stop offset="0.5" stop-color="#4F4F4F"/>
<stop offset="0.64" stop-color="#2C2C2C"/>
<stop offset="0.77" stop-color="#141414"/>
<stop offset="0.9" stop-color="#050505"/>
<stop offset="1"/>
</linearGradient>
<linearGradient id="paint59_linear_78_173261" x1="49.9778" y1="57.2691" x2="52.2425" y2="61.9039" gradientUnits="userSpaceOnUse">
<stop stop-color="white"/>
<stop offset="0.1" stop-color="#D1D1D1"/>
<stop offset="0.23" stop-color="#9A9A9A"/>
<stop offset="0.37" stop-color="#6B6B6B"/>
<stop offset="0.5" stop-color="#444444"/>
<stop offset="0.63" stop-color="#272727"/>
<stop offset="0.76" stop-color="#111111"/>
<stop offset="0.88" stop-color="#040404"/>
<stop offset="1"/>
</linearGradient>
<linearGradient id="paint60_linear_78_173261" x1="17.0074" y1="48.4205" x2="34.704" y2="95.6113" gradientUnits="userSpaceOnUse">
<stop stop-color="#00AEFF"/>
<stop offset="1" stop-color="#0057C7"/>
</linearGradient>
<linearGradient id="paint61_linear_78_173261" x1="21.3789" y1="58.7964" x2="22.3269" y2="64.0632" gradientUnits="userSpaceOnUse">
<stop stop-color="white"/>
<stop offset="0.1" stop-color="#D1D1D1"/>
<stop offset="0.23" stop-color="#9A9A9A"/>
<stop offset="0.37" stop-color="#6B6B6B"/>
<stop offset="0.5" stop-color="#444444"/>
<stop offset="0.63" stop-color="#272727"/>
<stop offset="0.76" stop-color="#111111"/>
<stop offset="0.88" stop-color="#040404"/>
<stop offset="1"/>
</linearGradient>
</defs>
</svg>
