<svg width="105" height="74" viewBox="0 0 105 74" fill="none" xmlns="http://www.w3.org/2000/svg">
<path d="M95.9989 32.9907C98.5269 31.4633 105.268 18.349 104.162 16.2949C98.8956 15.8736 84.0958 22.8258 79.4084 27.5659C79.4084 27.5659 75.4056 30.568 79.4084 35.4661C79.7168 35.8732 80.0702 36.2442 80.4617 36.5722C85.7286 41.3123 100.16 46.1051 104.794 42.945C102.921 38.8241 99.8577 35.3576 95.9989 32.9907Z" fill="url(#paint0_linear_78_172831)"/>
<path d="M93.7867 32.8327C98.0615 28.7644 101.497 23.8973 103.899 18.507C104.176 17.8047 104.267 17.0426 104.162 16.2949C98.8955 15.8736 84.0957 22.8258 79.4083 27.5659C79.4083 27.5659 75.5635 30.1993 79.4083 35.0974C83.9377 34.7814 86.2025 41.2596 101.002 41.523C99.6212 37.9098 97.0844 34.8545 93.7867 32.8327Z" fill="url(#paint1_linear_78_172831)"/>
<path d="M96.2101 32.9908C98.7382 31.0947 105.374 18.2964 104.268 16.2423H103.636C94.6964 17.8424 86.3279 21.7453 79.3563 27.566C78.3927 28.3869 77.757 29.5274 77.5656 30.7787C77.4986 31.6589 77.6137 32.5433 77.9037 33.377C78.1937 34.2106 78.6523 34.9756 79.2509 35.6242L80.3043 36.7302C86.0973 41.1252 93.0606 43.7089 100.318 44.1565C101.884 44.2772 103.448 43.9091 104.795 43.1031C103.068 38.9132 100.064 35.3746 96.2101 32.9908ZM100.318 43.8405C93.1169 43.3962 86.2082 40.8306 80.4623 36.4669L79.4616 35.4135C78.8699 34.7925 78.4144 34.0549 78.1242 33.2477C77.834 32.4405 77.7155 31.5817 77.7762 30.7261C77.9402 29.5072 78.5616 28.3963 79.5143 27.6186C86.4339 21.8315 94.7521 17.9631 103.636 16.4003H104.058C103.906 19.3857 102.961 22.2765 101.319 24.7746C100.091 27.7865 98.3041 30.5387 96.0521 32.8855C99.8487 35.1569 102.834 38.5659 104.584 42.6291C103.307 43.4319 101.827 43.8523 100.318 43.8405Z" fill="#D17200"/>
<g style="mix-blend-mode:screen" opacity="0.21">
<path d="M78.829 36.5193C78.1721 35.0129 77.953 33.3518 78.197 31.7265C78.3677 30.0102 78.8308 28.3358 79.5664 26.7757C79.6843 26.4331 79.8251 26.0988 79.9877 25.775C78.6599 26.6505 77.409 27.6372 76.2483 28.7245C76.2483 28.7245 72.4035 31.3579 76.2483 36.3087C77.1806 36.2415 78.1126 36.4426 78.9344 36.888L78.829 36.5193Z" fill="url(#paint2_linear_78_172831)"/>
<path style="mix-blend-mode:screen" opacity="0.77" d="M100.792 19.718C101.069 19.0158 101.16 18.2537 101.055 17.506C95.1039 17.506 79.9881 27.4603 79.9881 27.6183C79.1981 29.4617 79.1981 34.0965 79.9881 34.5178C91.4171 40.4166 99.1593 41.154 98.8433 40.522C97.5415 36.9705 95.1198 33.9388 91.9438 31.8844C95.6405 28.4289 98.6436 24.2995 100.792 19.718Z" fill="url(#paint3_linear_78_172831)"/>
</g>
<path d="M103.9 18.4017C95.2243 19.2664 86.9085 22.3101 79.7248 27.2499C87.004 22.2039 95.4529 19.1036 104.268 18.2437L103.9 18.4017Z" fill="#D17200"/>
<path d="M82.2523 26.8814C80.6723 27.5661 79.0396 28.3561 77.4069 29.1462L82.1997 26.8288C85.6383 25.2802 89.1542 23.909 92.7333 22.7206C96.0017 21.5613 99.4317 20.9215 102.898 20.8246C99.3974 20.9217 95.9328 21.5614 92.628 22.7206C89.0939 23.9114 85.6299 25.3005 82.2523 26.8814Z" fill="#D17200"/>
<path d="M81.9891 31.411C87.298 30.1313 92.798 29.8456 98.2109 30.5683C92.7985 29.8332 87.2962 30.1191 81.9891 31.411Z" fill="#D17200"/>
<path d="M77.2491 33.3593C83.4431 32.4887 89.7163 32.3297 95.9464 32.8853C89.7169 32.3112 83.4415 32.4703 77.2491 33.3593Z" fill="#D17200"/>
<path d="M78.2496 34.7816C80.725 34.7816 83.2004 35.0976 85.7285 35.0976C89.8336 35.1 93.934 34.8184 98.0002 34.2549C91.4572 35.1703 84.8321 35.347 78.2496 34.7816Z" fill="#D17200"/>
<path d="M78.7769 35.8345C83.0186 36.7598 87.3401 37.2714 91.6806 37.3619C94.5791 37.3834 97.4671 37.0114 100.266 36.2558C93.1665 37.7797 85.8107 37.6354 78.7769 35.8345Z" fill="#D17200"/>
<path d="M102.53 38.9424C100.61 39.4909 98.6273 39.7918 96.6309 39.8377C91.218 39.9434 85.8407 38.9396 80.8304 36.8883C85.433 38.7632 90.3449 39.7635 95.3142 39.8377H96.5782C98.5743 39.7878 100.556 39.487 102.477 38.9424H102.53Z" fill="#D17200"/>
<path d="M75.8271 38.3627C71.1923 37.3094 41.1714 55.0585 47.2282 57.2706C51.6 58.2003 56.1125 58.2555 60.5057 57.4329C64.8989 56.6103 69.0858 54.9263 72.825 52.4778C79.7245 47.211 81.6206 41.5228 81.1992 40.3114C80.7779 39.1001 79.7245 37.994 75.8271 38.3627Z" fill="url(#paint4_radial_78_172831)"/>
<path d="M74.4579 39.5743C69.8231 38.5209 42.3303 53.5314 48.4398 55.7434C52.4493 56.7546 56.6266 56.9115 60.7006 56.2038C64.7746 55.496 68.6543 53.9395 72.0878 51.6353C78.9874 46.3685 79.7247 42.0497 79.7247 41.1017C79.7247 40.1537 77.934 39.153 74.4579 39.5743Z" fill="url(#paint5_linear_78_172831)"/>
<path d="M76.9857 38.205H75.4057C69.6243 39.6611 64.1369 42.102 59.1839 45.4205C53.2324 49.0019 46.7542 53.6367 46.3329 55.9541C46.2856 56.2465 46.352 56.5458 46.5185 56.7906C46.685 57.0355 46.939 57.2073 47.2282 57.2708C49.2538 57.9127 51.3715 58.2152 53.4957 58.1662C60.3704 58.184 67.1029 56.2082 72.8776 52.478C79.8825 47.2112 81.7259 41.3124 81.3045 40.1537C80.8832 38.995 79.7245 38.205 76.9857 38.205ZM72.7723 52.3727C66.9982 56.0983 60.2619 58.0569 53.3904 58.0082C51.2865 58.0723 49.1864 57.7875 47.1755 57.1655C46.9322 57.1147 46.7185 56.9703 46.5805 56.7634C46.4426 56.5565 46.3915 56.3037 46.4382 56.0595C47.2282 51.688 70.1915 38.4156 75.3004 38.4156H76.8804C79.6718 38.4156 80.7779 39.627 80.9885 40.3117C81.1992 40.9964 79.7245 47.2639 72.7723 52.3727Z" fill="#003B91"/>
<path d="M52.3369 55.9539C54.5493 56.6641 56.8602 57.0196 59.1838 57.0072C61.086 57.0019 62.9797 56.7541 64.8193 56.2699C60.7114 57.3391 56.3854 57.2296 52.3369 55.9539Z" fill="#003B91"/>
<path d="M56.1819 54.9004C58.2168 55.3871 60.3046 55.6171 62.3967 55.5851C64.4729 55.5876 66.5419 55.34 68.5589 54.8478C64.4875 55.7772 60.261 55.7952 56.1819 54.9004Z" fill="#003B91"/>
<path d="M59.6054 53.4258C61.3339 53.8152 63.1005 54.0095 64.8723 54.0052C67.4157 54.0262 69.9444 53.6167 72.3511 52.7938C68.2373 54.15 63.8333 54.3684 59.6054 53.4258Z" fill="#003B91"/>
<path d="M61.9226 52.0041C63.433 52.2912 64.9674 52.4323 66.5048 52.4254C69.21 52.4837 71.9038 52.0555 74.4577 51.1614C70.4406 52.6103 66.0975 52.9023 61.9226 52.0041Z" fill="#003B91"/>
<path d="M64.4509 50.4767C65.4332 50.5342 66.418 50.5342 67.4003 50.4767C70.6907 50.5635 73.9556 49.878 76.9333 48.4753C73.0359 50.2784 68.7166 50.971 64.4509 50.4767Z" fill="#003B91"/>
<path d="M67.2946 48.5276V48.7909C67.9787 48.8319 68.6646 48.8319 69.3487 48.7909C72.5121 48.7867 75.6439 48.1604 78.5656 46.9475C75.0037 48.4228 71.1248 48.9665 67.2946 48.5276Z" fill="#003B91"/>
<path d="M68.7698 46.7369H70.1392C73.4096 46.8839 76.6746 46.3457 79.7248 45.1569C76.236 46.4914 72.4935 47.0312 68.7698 46.7369Z" fill="#003B91"/>
<path d="M70.2968 44.9462H71.2448C74.5149 45.0589 77.7647 44.3909 80.7251 42.9974C77.4523 44.4635 73.8782 45.1314 70.2968 44.9462Z" fill="#003B91"/>
<path d="M72.0349 41.681C73.0356 41.681 79.0924 41.681 80.9885 39.7323C78.9344 41.7337 72.0876 41.681 72.0349 41.681Z" fill="#003B91"/>
<path d="M73.4568 40.5221C75.6438 40.424 77.783 39.8488 79.7243 38.8367C77.7742 39.8261 75.64 40.4 73.4568 40.5221Z" fill="#003B91"/>
<path d="M73.931 15.347C71.1396 10.7648 70.8236 5.44535 65.5041 2.33793C63.2223 1.36733 60.7681 0.867065 58.2885 0.867065C55.8089 0.867065 53.3548 1.36733 51.073 2.33793C48.7029 3.02262 45.8062 2.75928 43.4888 3.3913C37.401 4.61204 31.8639 7.74972 27.6883 12.3449C27.6883 12.3449 67.7688 31.9375 76.4064 27.25C77.0057 27.0169 77.5499 26.6617 78.0045 26.207C78.4591 25.7522 78.8141 25.2078 79.0469 24.6085C79.2797 24.0091 79.3853 23.3678 79.3568 22.7254C79.3284 22.0831 79.1666 21.4536 78.8818 20.8771C78.0918 19.1918 75.2477 17.559 73.931 15.347Z" fill="url(#paint6_radial_78_172831)"/>
<path d="M72.2983 15.3996C69.5595 10.8175 70.8236 5.44536 65.5041 2.33793C63.2223 1.36733 60.7681 0.867065 58.2885 0.867065C55.8089 0.867065 53.3548 1.36733 51.073 2.33793C48.7029 3.02262 45.8062 2.75928 43.4888 3.3913C37.401 4.61204 31.8639 7.74972 27.6883 12.3449C27.6883 12.3449 65.0827 31.3054 73.7203 26.618C76.4064 25.1433 77.9864 23.5105 76.8277 21.0351C75.669 18.5597 73.6676 17.6117 72.2983 15.3996Z" fill="url(#paint7_linear_78_172831)"/>
<path d="M76.6698 18.2438C75.6807 17.366 74.7969 16.3762 74.0364 15.2943C73.2107 13.8555 72.489 12.3594 71.877 10.8176C70.8284 7.31017 68.5944 4.27571 65.5568 2.23264C63.7505 1.19268 61.6882 0.681666 59.6053 0.757933C56.7064 0.849592 53.8345 1.34596 51.0731 2.23264C49.7906 2.51492 48.487 2.69109 47.1756 2.75933C45.9164 2.82772 44.6653 3.00392 43.4362 3.286C37.3534 4.55216 31.8246 7.70358 27.6357 12.2923C27.9517 12.2923 59.816 28.0927 72.667 28.0927C73.9717 28.1518 75.2717 27.899 76.4591 27.3554C77.0666 27.1161 77.6181 26.7539 78.079 26.2915C78.5399 25.8291 78.9004 25.2765 79.1377 24.6683C79.3751 24.0601 79.4842 23.4094 79.4583 22.757C79.4324 22.1047 79.272 21.4647 78.9872 20.8772C78.3863 19.8621 77.6002 18.9689 76.6698 18.2438ZM76.3538 27.1447C75.2041 27.6897 73.9379 27.9429 72.667 27.8821C60.2373 27.8821 29.9004 13.293 27.8464 12.0816C32.0667 7.57327 37.5914 4.49783 43.6468 3.286C44.8589 3.00761 46.0921 2.83144 47.3336 2.75933C48.6624 2.6909 49.9834 2.51475 51.2837 2.23264C54.0272 1.34608 56.8816 0.849655 59.7633 0.757933C61.8046 0.696091 63.8246 1.18745 65.6095 2.17998C68.5883 4.21424 70.7814 7.20649 71.8243 10.6596C72.4255 12.2231 73.1475 13.7375 73.9837 15.189C74.764 16.287 75.665 17.294 76.6698 18.1911C77.5935 18.8658 78.3651 19.7271 78.9345 20.7192C79.2438 21.3016 79.4222 21.9445 79.4572 22.603C79.4922 23.2615 79.383 23.9197 79.1372 24.5316C78.8915 25.1435 78.515 25.6944 78.0343 26.1458C77.5535 26.5971 76.98 26.938 76.3538 27.1447Z" fill="#003B91"/>
<path d="M44.2256 11.8708C44.2256 11.8708 54.7592 2.33785 63.2915 1.33716C54.7066 2.28519 44.3309 11.8181 44.2256 11.8708Z" fill="#003B91"/>
<path d="M47.2286 12.3446C47.2286 12.3446 59.7636 2.28491 65.9258 2.60092C59.8163 2.17958 47.7553 11.9232 47.2286 12.3446Z" fill="#003B91"/>
<path d="M50.0197 13.1347C50.0197 13.1347 62.0281 3.86506 68.0322 4.39174C62.1334 3.75973 50.5464 12.766 50.0197 13.1347Z" fill="#003B91"/>
<path d="M53.3907 13.7666C53.3907 13.7666 64.609 5.6557 70.0339 6.60373C64.3984 5.60303 53.3907 13.4506 53.3907 13.7666Z" fill="#003B91"/>
<path d="M55.4968 14.7678C60.0074 11.5114 65.2222 9.36412 70.7179 8.50024C65.2285 9.38672 60.0188 11.5319 55.4968 14.7678Z" fill="#003B91"/>
<path d="M60.0794 16.9798C63.8718 14.6 68.1988 13.2059 72.6671 12.9243C68.1945 13.1834 63.862 14.5792 60.0794 16.9798Z" fill="#003B91"/>
<path d="M62.6595 17.9275C65.943 15.8746 69.7421 14.797 73.6145 14.8201C69.7433 14.8056 65.9465 15.8826 62.6595 17.9275Z" fill="#003B91"/>
<path d="M64.4509 18.9283C67.6918 17.2137 71.3192 16.3612 74.9845 16.4528C71.3247 16.4126 67.7098 17.2621 64.4509 18.9283Z" fill="#003B91"/>
<path d="M65.9253 20.0347C69.157 18.6061 72.6631 17.9049 76.1956 17.9806C72.6659 17.9362 69.1664 18.6361 65.9253 20.0347Z" fill="#003B91"/>
<path d="M68.0848 20.9296C71.1634 19.7104 74.4693 19.1714 77.7757 19.3496C74.4682 19.1508 71.1579 19.6905 68.0848 20.9296Z" fill="#003B91"/>
<path d="M70.0865 22.1408C72.9914 21.2983 76.0326 21.03 79.0401 21.3508C76.0331 20.9879 72.9835 21.257 70.0865 22.1408Z" fill="#003B91"/>
<path d="M70.9818 23.5631C73.7266 22.9953 76.5586 22.9953 79.3034 23.5631C76.5623 22.9606 73.723 22.9606 70.9818 23.5631Z" fill="#003B91"/>
<path d="M72.5614 25.301C74.4999 24.7008 76.5745 24.7008 78.5129 25.301C76.5735 24.7073 74.5008 24.7073 72.5614 25.301Z" fill="#003B91"/>
<path d="M40.9605 11.8706C45.9214 7.16743 51.706 3.4181 58.025 0.810303C51.7143 3.43389 45.9324 7.18145 40.9605 11.8706Z" fill="#003B91"/>
<path d="M38.0116 11.6603C41.6951 7.90166 46.009 4.8178 50.7573 2.54871C45.9999 4.80246 41.6835 7.88815 38.0116 11.6603Z" fill="#003B91"/>
<path d="M31.4807 11.5021C33.4463 8.92635 35.8322 6.70061 38.5382 4.91858C35.8173 6.6815 33.4282 8.91008 31.4807 11.5021Z" fill="#003B91"/>
<path d="M10.0442 23.6682C9.06756 23.8251 8.17879 24.3248 7.53723 25.0776C6.89568 25.8304 6.5433 26.7872 6.5433 27.7763C6.5433 28.7655 6.89568 29.7222 7.53723 30.4751C8.17879 31.2279 9.06756 31.7276 10.0442 31.8845C11.0208 31.7276 11.9095 31.2279 12.5511 30.4751C13.1926 29.7222 13.545 28.7655 13.545 27.7763C13.545 26.7872 13.1926 25.8304 12.5511 25.0776C11.9095 24.3248 11.0208 23.8251 10.0442 23.6682Z" fill="#408EFF"/>
<path d="M10.0444 23.5635C9.04129 23.7226 8.12788 24.2343 7.46837 25.0067C6.80886 25.779 6.44653 26.7613 6.44653 27.7769C6.44653 28.7926 6.80886 29.7749 7.46837 30.5472C8.12788 31.3196 9.04129 31.8313 10.0444 31.9904C11.0475 31.8313 11.9609 31.3196 12.6204 30.5472C13.2799 29.7749 13.6422 28.7926 13.6422 27.7769C13.6422 26.7613 13.2799 25.779 12.6204 25.0067C11.9609 24.2343 11.0475 23.7226 10.0444 23.5635ZM10.0444 31.7797C9.09423 31.6251 8.23008 31.1375 7.60645 30.4042C6.98282 29.6708 6.64039 28.7396 6.64039 27.7769C6.64039 26.8143 6.98282 25.883 7.60645 25.1497C8.23008 24.4164 9.09423 23.9288 10.0444 23.7742C10.9945 23.9288 11.8587 24.4164 12.4823 25.1497C13.1059 25.883 13.4484 26.8143 13.4484 27.7769C13.4484 28.7396 13.1059 29.6708 12.4823 30.4042C11.8587 31.1375 10.9945 31.6251 10.0444 31.7797Z" fill="#00097F"/>
<path d="M12.678 28.1454C12.7293 28.5634 12.6935 28.9874 12.5731 29.391C12.4526 29.7945 12.25 30.1687 11.9779 30.4902C11.7059 30.8117 11.3704 31.0735 10.9923 31.2591C10.6143 31.4447 10.202 31.5501 9.78129 31.5688C8.91311 31.5985 8.06695 31.292 7.41931 30.713C6.77167 30.1341 6.37255 29.3274 6.30519 28.4614C6.22269 28.0122 6.23532 27.5508 6.34226 27.1068C6.44919 26.6628 6.64805 26.2462 6.926 25.8839C7.20395 25.5216 7.5548 25.2216 7.9559 25.0033C8.357 24.785 8.79943 24.6533 9.25461 24.6166C10.1635 24.669 11.0197 25.0607 11.6536 25.7142C12.2876 26.3676 12.6532 27.2353 12.678 28.1454Z" fill="black"/>
<path d="M12.5728 28.1451C12.6164 28.5536 12.5787 28.9666 12.4617 29.3604C12.3447 29.7541 12.1509 30.1208 11.8913 30.4392C11.6317 30.7575 11.3116 31.0213 10.9494 31.2151C10.5872 31.409 10.1902 31.5291 9.78135 31.5685C8.93665 31.5702 8.1231 31.2497 7.50656 30.6723C6.89001 30.0949 6.51689 29.3041 6.46326 28.4611C6.41986 27.6732 6.68842 26.8999 7.21082 26.3085C7.73322 25.7172 8.46745 25.3552 9.25467 25.301C10.0614 25.2813 10.8469 25.561 11.4596 26.0862C12.0723 26.6114 12.4689 27.3448 12.5728 28.1451Z" fill="#C4C5C6"/>
<path d="M12.5728 28.1451C12.5728 30.1465 6.62126 30.7258 6.46326 28.4611C6.41986 27.6732 6.68842 26.8999 7.21082 26.3085C7.73322 25.7172 8.46745 25.3552 9.25467 25.301C10.0614 25.2813 10.8469 25.561 11.4596 26.0862C12.0723 26.6114 12.4689 27.3448 12.5728 28.1451Z" fill="white"/>
<path d="M9.78086 31.6212C8.91316 31.6364 8.073 31.3164 7.43531 30.7278C6.79762 30.1392 6.41154 29.3272 6.35743 28.4611C6.31398 28.0417 6.35491 27.6178 6.47781 27.2144C6.60071 26.8111 6.8031 26.4364 7.07305 26.1124C7.343 25.7885 7.67505 25.5218 8.04964 25.3282C8.42424 25.1346 8.83379 25.0179 9.25418 24.985C10.1128 24.9833 10.9398 25.3094 11.5662 25.8967C12.1926 26.4839 12.5713 27.2881 12.6249 28.1451C12.676 28.5617 12.6421 28.9843 12.5254 29.3875C12.4086 29.7906 12.2114 30.166 11.9456 30.4908C11.6798 30.8157 11.351 31.0833 10.9789 31.2776C10.6069 31.4719 10.1993 31.5887 9.78086 31.6212ZM9.25418 25.301C8.85637 25.3333 8.46926 25.4461 8.1163 25.6324C7.76333 25.8187 7.45186 26.0747 7.20073 26.385C6.9496 26.6952 6.76405 27.0531 6.65531 27.4372C6.54657 27.8212 6.5169 28.2233 6.5681 28.6191C6.609 29.4387 6.96713 30.2103 7.56673 30.7705C8.16633 31.3308 8.96037 31.6359 9.78086 31.6212C10.1815 31.5964 10.5726 31.4886 10.9293 31.3046C11.2861 31.1207 11.6007 30.8646 11.8533 30.5526C12.1059 30.2406 12.2908 29.8796 12.3965 29.4923C12.5021 29.1051 12.5261 28.7001 12.4669 28.3031C12.4134 27.488 12.0514 26.724 11.4546 26.1663C10.8578 25.6087 10.071 25.2993 9.25418 25.301Z" fill="black"/>
<path d="M9.51825 24.5636C9.94526 24.5901 10.3627 24.7017 10.746 24.8917C11.1293 25.0818 11.4708 25.3465 11.7504 25.6702C12.03 25.994 12.2422 26.3704 12.3744 26.7773C12.5066 27.1842 12.5562 27.6134 12.5203 28.0397C12.5203 28.8918 12.1819 29.709 11.5793 30.3115C10.9768 30.914 10.1597 31.2525 9.30758 31.2525C8.45545 31.1721 7.66733 30.7656 7.10788 30.1178C6.54844 29.47 6.26096 28.6311 6.30549 27.7764C6.30549 26.9243 6.64398 26.1071 7.24649 25.5046C7.849 24.9021 8.66618 24.5636 9.51825 24.5636Z" fill="black"/>
<path d="M9.51822 24.9327C10.3563 24.9327 11.1601 25.2657 11.7527 25.8583C12.3454 26.4509 12.6783 27.2547 12.6783 28.0928C12.6783 28.9309 12.3454 29.7347 11.7527 30.3274C11.1601 30.92 10.3563 31.2529 9.51822 31.2529C8.68011 31.2529 7.87632 30.92 7.28369 30.3274C6.69106 29.7347 6.35812 28.9309 6.35812 28.0928C6.35812 27.2547 6.69106 26.4509 7.28369 25.8583C7.87632 25.2657 8.68011 24.9327 9.51822 24.9327Z" fill="url(#paint8_radial_78_172831)"/>
<path style="mix-blend-mode:screen" opacity="0.9" d="M8.09614 25.8282C8.08578 25.9466 8.11211 26.0654 8.17156 26.1684C8.23101 26.2713 8.3207 26.3535 8.42845 26.4037C8.53621 26.454 8.65681 26.4699 8.77389 26.4492C8.89098 26.4286 8.99888 26.3724 9.08295 26.2883C9.16702 26.2043 9.22318 26.0964 9.24383 25.9793C9.26448 25.8622 9.2486 25.7416 9.19836 25.6338C9.14812 25.5261 9.06594 25.4364 8.96298 25.3769C8.86002 25.3175 8.74126 25.2912 8.62282 25.3015C8.48712 25.3134 8.35994 25.3727 8.26362 25.469C8.1673 25.5653 8.108 25.6925 8.09614 25.8282Z" fill="url(#paint9_radial_78_172831)"/>
<path d="M9.41304 31.305C9.01667 31.2939 8.62642 31.2045 8.26483 31.0417C7.90323 30.879 7.57746 30.6463 7.30631 30.357C6.72033 29.7077 6.40062 28.8614 6.41095 27.9869C6.41781 27.5719 6.50636 27.1623 6.67153 26.7815C6.83671 26.4008 7.07529 26.0562 7.37363 25.7677C7.67198 25.4791 8.02425 25.2522 8.41032 25.0998C8.79639 24.9474 9.2087 24.8725 9.62371 24.8795C10.034 24.8838 10.4387 24.9753 10.8109 25.1478C11.1832 25.3203 11.5146 25.57 11.7831 25.8802C12.3421 26.5212 12.6425 27.3473 12.6258 28.1976C12.6189 28.6126 12.5304 29.0222 12.3652 29.403C12.2 29.7837 11.9615 30.1282 11.6631 30.4168C11.3648 30.7054 11.0125 30.9323 10.6264 31.0847C10.2404 31.2371 9.82804 31.312 9.41304 31.305ZM9.41304 24.9848C8.626 24.9986 7.87586 25.321 7.32421 25.8825C6.77255 26.444 6.4635 27.1997 6.46362 27.9869C6.43507 28.3855 6.4864 28.7858 6.6146 29.1644C6.7428 29.5429 6.94529 29.892 7.21019 30.1912C7.47509 30.4905 7.79707 30.7338 8.15725 30.907C8.51743 31.0802 8.90856 31.1797 9.3077 31.1997C9.92034 31.2056 10.5211 31.0304 11.0344 30.696C11.5477 30.3615 11.9507 29.8828 12.1927 29.3199C12.4348 28.7571 12.505 28.1352 12.3946 27.5326C12.2843 26.9299 11.9982 26.3734 11.5724 25.9328C11.3178 25.6331 11.0039 25.3894 10.6503 25.2172C10.2968 25.0449 9.91133 24.9479 9.51837 24.9322L9.41304 24.9848Z" fill="black"/>
<path style="mix-blend-mode:screen" opacity="0.5" d="M10.9394 28.5136C10.9034 28.6202 10.8307 28.7105 10.7342 28.7684C10.6377 28.8263 10.5238 28.848 10.4127 28.8296C10.354 28.832 10.2956 28.8204 10.2423 28.7957C10.189 28.771 10.1423 28.7339 10.1063 28.6876C10.0702 28.6412 10.0457 28.5868 10.0349 28.5291C10.0241 28.4713 10.0272 28.4119 10.0441 28.3556C10.0497 28.2946 10.0685 28.2357 10.0993 28.1828C10.13 28.1299 10.1719 28.0843 10.222 28.0492C10.2721 28.0141 10.3293 27.9904 10.3895 27.9796C10.4497 27.9688 10.5116 27.9713 10.5707 27.9869C10.6817 28.0216 10.7781 28.0922 10.8448 28.1874C10.9115 28.2827 10.9447 28.3974 10.9394 28.5136Z" fill="url(#paint10_radial_78_172831)"/>
<path d="M8.46468 25.8278C9.02962 25.9063 9.54055 26.2051 9.88592 26.659C10.2313 27.113 10.3831 27.6851 10.3081 28.2505C10.3295 28.5246 10.2958 28.8002 10.2088 29.061C10.1218 29.3217 9.98329 29.5624 9.80156 29.7687C9.61983 29.975 9.39855 30.1427 9.15081 30.2619C8.90308 30.3811 8.63394 30.4493 8.35934 30.4626C7.82911 30.3489 7.3539 30.0568 7.013 29.6351C6.67211 29.2133 6.48615 28.6875 6.48615 28.1452C6.48615 27.6029 6.67211 27.077 7.013 26.6553C7.3539 26.2335 7.82911 25.9414 8.35934 25.8278H8.46468Z" fill="url(#paint11_radial_78_172831)"/>
<path d="M8.14852 26.6704C8.55353 26.7475 8.91439 26.975 9.15863 27.3071C9.40286 27.6393 9.51239 28.0515 9.46522 28.4611C9.47954 28.6618 9.45407 28.8634 9.39028 29.0542C9.32648 29.245 9.22562 29.4213 9.09348 29.573C8.96135 29.7247 8.80054 29.8488 8.62029 29.9382C8.44005 30.0276 8.24392 30.0805 8.04318 30.0939C7.64068 30.023 7.27603 29.8125 7.01329 29.4995C6.75056 29.1864 6.60654 28.7908 6.60654 28.3821C6.60654 27.9734 6.75056 27.5778 7.01329 27.2648C7.27603 26.9517 7.64068 26.7413 8.04318 26.6704H8.14852Z" fill="black"/>
<path style="mix-blend-mode:screen" d="M7.35855 26.3021C7.12991 26.4292 6.94633 26.6241 6.83313 26.8599C6.71993 27.0957 6.68269 27.3609 6.72653 27.6188C6.72653 27.9874 7.41122 28.0401 7.9379 27.6188C8.46459 27.1974 8.78059 26.6707 8.62259 26.3021C8.46459 25.9334 7.88524 25.986 7.35855 26.3021Z" fill="url(#paint12_linear_78_172831)"/>
<path d="M31.0064 56.5858L28.7944 57.4285C26.8983 59.1139 24.2122 67.4881 26.0556 70.1215C26.5296 70.7536 27.9517 70.3849 27.9517 69.8055C28.0876 69.9412 28.2566 70.0392 28.4419 70.0897C28.6272 70.1403 28.8224 70.1417 29.0085 70.0939C29.1945 70.0461 29.3649 69.9506 29.5028 69.8169C29.6407 69.6833 29.7414 69.516 29.7951 69.3315C30.9011 69.3315 32.1651 68.2255 32.0598 67.6988C32.4442 67.5769 32.7674 67.3126 32.9632 66.9601C33.1591 66.6076 33.2127 66.1935 33.1132 65.8028C33.7979 66.1714 35.1672 64.9601 34.8512 64.328L31.0064 56.5858Z" fill="url(#paint13_radial_78_172831)"/>
<path d="M31.0065 56.5858L28.7944 57.4285C26.4118 60.7813 25.2754 64.8611 25.5817 68.9629C26.003 70.3849 27.8464 69.4369 27.6357 68.5415C27.7706 68.6659 27.9356 68.7529 28.1145 68.7939C28.2933 68.835 28.4798 68.8285 28.6554 68.7753C28.831 68.7221 28.9897 68.6239 29.1157 68.4905C29.2417 68.3572 29.3306 68.1932 29.3738 68.0148C30.1638 68.4888 31.6385 67.3301 31.5332 66.8035C31.4278 66.2768 32.9025 65.5921 32.5865 64.8547C33.2712 65.2234 34.0612 63.064 33.6926 62.432C33.3239 61.8 31.0065 56.5858 31.0065 56.5858Z" fill="url(#paint14_linear_78_172831)"/>
<path d="M31.1116 56.5337L28.8469 57.429C26.9508 59.1144 24.1594 67.5413 26.0555 70.2274C26.167 70.3527 26.3056 70.4511 26.4607 70.5149C26.6158 70.5788 26.7834 70.6066 26.9508 70.5961H27.0562C27.3168 70.65 27.5856 70.65 27.8462 70.5961L28.2149 70.2274C28.3669 70.3276 28.5388 70.3937 28.7187 70.4213C28.8987 70.4488 29.0824 70.4372 29.2575 70.3872C29.4325 70.3372 29.5947 70.25 29.7329 70.1315C29.8711 70.013 29.9821 69.8661 30.0583 69.7007C30.4046 69.6688 30.7411 69.5686 31.0485 69.4058C31.3558 69.2431 31.6279 69.0211 31.849 68.7527C31.9919 68.6384 32.1083 68.4945 32.1902 68.3308C32.272 68.1671 32.3173 67.9876 32.323 67.8047C32.639 67.8047 32.955 67.3833 33.1657 67.0673C33.2352 66.9004 33.271 66.7215 33.271 66.5407C33.271 66.3599 33.2352 66.1808 33.1657 66.014C33.4709 65.9686 33.7619 65.8551 34.0172 65.6819C34.2725 65.5087 34.4855 65.2801 34.6404 65.0133C34.7004 64.8996 34.7317 64.7731 34.7317 64.6446C34.7317 64.5161 34.7004 64.3896 34.6404 64.2759C34.6404 63.6439 31.1643 56.5864 31.1116 56.5337ZM34.6404 64.9079C34.5133 65.1448 34.333 65.3489 34.1136 65.5042C33.8943 65.6596 33.6419 65.7619 33.3764 65.8033H33.0604V66.0666C33.1342 66.2417 33.1723 66.4297 33.1723 66.6197C33.1723 66.8096 33.1342 66.9977 33.0604 67.1727C32.5863 67.436 32.323 67.436 32.323 67.436C32.323 67.436 32.323 67.8574 32.007 68.1207C31.8175 68.3686 31.5798 68.5758 31.3083 68.7296C31.0368 68.8835 30.737 68.9809 30.4269 69.0161H29.7423C29.6696 69.2111 29.5407 69.3802 29.372 69.502C29.2033 69.6239 29.0022 69.693 28.7942 69.7007C28.5268 69.6932 28.2686 69.601 28.0569 69.4374V69.7007C28.0569 69.7007 28.0569 69.7007 27.7409 70.0694C27.5158 70.1231 27.2813 70.1231 27.0562 70.0694C26.8184 70.1583 26.5566 70.1583 26.3188 70.0694C24.5808 67.4887 27.2669 59.1671 29.0576 57.5344L31.1643 56.6917C31.5857 57.5344 34.6404 63.8019 34.9564 64.3812C34.9748 64.4923 34.9532 64.6062 34.8953 64.7027C34.8374 64.7992 34.747 64.8719 34.6404 64.9079Z" fill="#003B91"/>
<g style="mix-blend-mode:screen" opacity="0.46">
<path d="M31.1644 56.5858L29.0577 57.4285C27.2669 59.0086 24.4755 66.4874 26.2136 68.9629C26.9509 69.2789 27.6356 68.2782 27.6356 67.7515C27.7779 67.8632 27.9464 67.9363 28.1251 67.964C28.3039 67.9916 28.4867 67.9728 28.656 67.9093C28.8253 67.8458 28.9754 67.7398 29.0919 67.6014C29.2084 67.4631 29.2873 67.2971 29.321 67.1195C30.3744 67.1195 31.4277 66.6454 31.3224 66.1714C31.2171 65.6974 32.7444 64.8021 32.3758 64.17C33.0604 64.4861 34.6932 63.6434 34.3771 63.064C34.0611 62.4847 31.1644 56.5858 31.1644 56.5858Z" fill="url(#paint15_linear_78_172831)"/>
</g>
<path d="M29.6897 56.9017C27.4947 60.8824 26.8386 65.5308 27.8463 69.9634C26.8558 65.5064 27.5897 60.8396 29.9004 56.9017H29.6897Z" fill="#003B91"/>
<path d="M30.5848 56.9017C28.9104 60.7741 28.5949 65.099 29.6895 69.1734C28.5977 65.1692 28.9137 60.9115 30.5848 57.1124V56.9017Z" fill="#003B91"/>
<path d="M31.4806 57.5867C30.8453 59.2372 30.5774 61.0064 30.6956 62.771C30.8139 64.5357 31.3154 66.2533 32.1653 67.8043C31.3085 66.2557 30.8031 64.5376 30.6847 62.7718C30.5664 61.0059 30.8381 59.2357 31.4806 57.5867Z" fill="#003B91"/>
<path d="M33.0083 57.5867C32.2931 58.8568 31.9173 60.2898 31.9173 61.7474C31.9173 63.2051 32.2931 64.6381 33.0083 65.9082C32.3062 64.6815 31.9368 63.2926 31.9368 61.8791C31.9368 60.4657 32.3062 59.0767 33.0083 57.85V57.5867Z" fill="#003B91"/>
<path d="M79.4087 27.5657C76.0906 28.2504 73.7206 23.7209 72.2985 22.2989C65.4364 18.1737 58.0963 14.9016 50.4412 12.5552C44.6446 10.6677 38.4984 10.1042 32.4553 10.9063C26.4121 11.7084 20.6257 13.8557 15.5222 17.19C5.56791 24.3529 8.20132 32.5692 4.19853 37.1513C4.19853 37.1513 3.72452 47.6849 7.7273 47.6849C11.7301 47.6849 13.4155 49.7917 13.6261 51.8984C16.384 54.8713 20.1268 56.7427 24.1598 57.1652C41.1189 61.2733 58.7101 57.1652 66.821 50.1603C69.7307 47.4674 72.2959 44.4246 74.4579 41.1014C76.8806 37.836 81.5681 37.8886 80.6201 36.7826C79.5884 35.5071 78.9293 33.9714 78.7155 32.3449C78.5018 30.7184 78.7417 29.0644 79.4087 27.5657Z" fill="url(#paint16_radial_78_172831)"/>
<path d="M79.4087 27.5657C76.0906 28.2504 73.7206 23.7209 72.2985 22.2989C65.4364 18.1737 58.0963 14.9016 50.4412 12.5552C44.6446 10.6677 38.4985 10.1042 32.4553 10.9063C26.4121 11.7084 20.6257 13.8557 15.5222 17.19C5.56791 24.3529 8.20132 32.5692 4.19853 37.1513C4.19853 37.1513 3.72452 47.6849 7.7273 47.6849C11.7301 47.6849 14.9428 48.8963 15.1535 50.9504C18.8425 54.4064 23.5972 56.5051 28.6366 56.9019C32.94 57.6027 37.3447 57.351 41.5403 56.1645C49.637 56.0524 57.5597 53.7991 64.5036 49.6336C67.5825 46.7953 70.306 43.5944 72.6145 40.1007C73.3934 38.8931 74.4043 37.8522 75.5887 37.0384C76.7732 36.2247 78.1074 35.6544 79.5141 35.3606C78.9874 33.3065 77.8287 29.5671 79.4087 27.5657Z" fill="url(#paint17_radial_78_172831)"/>
<path style="mix-blend-mode:screen" opacity="0.38" d="M6.88458 34.8868C8.41196 22.0884 13.7315 17.0323 25.4238 13.2929C43.647 7.55202 69.2437 19.7184 73.7732 27.2499C78.3027 34.7815 69.6651 36.4142 60.0795 39.6796C46.5929 43.1906 32.4321 43.1906 18.9456 39.6796C13.9421 36.6249 6.56858 37.4675 6.88458 34.8868Z" fill="url(#paint18_linear_78_172831)"/>
<path style="mix-blend-mode:screen" opacity="0.38" d="M69.56 34.2023C69.56 41.9445 67.4533 53.4789 41.8566 54.2162C38.7491 54.2162 33.693 56.955 30.4802 54.8482C23.37 50.1081 23.212 39.4165 23.37 34.887C23.37 28.6721 27.7415 21.1406 42.4886 21.1933C59.6584 21.2986 69.56 27.9875 69.56 34.2023Z" fill="url(#paint19_radial_78_172831)"/>
<path d="M79.7246 27.6185H78.7766C76.6698 27.6185 74.9318 25.5118 73.5098 23.9844C73.1378 23.4526 72.7144 22.9587 72.2457 22.5097C65.3975 18.3665 58.077 15.0599 50.4411 12.6607C46.1106 11.3994 41.6264 10.7436 37.116 10.712C29.3888 10.5835 21.8166 12.8865 15.4694 17.2955C13.2133 18.8212 11.2831 20.7803 9.79122 23.0589C8.2993 25.3375 7.27542 27.89 6.77915 30.5679C6.39555 32.8572 5.47505 35.0231 4.09307 36.8881C4.09307 37.2041 3.77706 44.4197 6.04179 46.8424C6.2555 47.0764 6.51593 47.2629 6.80625 47.3899C7.09656 47.5169 7.4103 47.5816 7.72718 47.5798C11.6246 47.5798 13.2573 49.6865 13.468 51.6879C16.217 54.6726 19.9645 56.5463 24.0017 56.9547C28.4884 58.0171 33.0846 58.5475 37.6954 58.5347C48.0556 58.8599 58.2465 55.8506 66.7682 49.9498C69.0829 47.8236 71.1023 45.3969 72.7724 42.7343C73.2991 41.9969 73.7204 41.3122 74.1944 40.7329C75.4615 39.3087 77.0767 38.2379 78.8819 37.6255C79.7773 37.3095 80.3566 37.0461 80.462 36.7301C80.5036 36.658 80.5255 36.5763 80.5255 36.4931C80.5255 36.4099 80.5036 36.3282 80.462 36.2561C79.5837 35.0113 79.0525 33.5551 78.9229 32.0372C78.7934 30.5193 79.0701 28.9942 79.7246 27.6185ZM80.62 36.8881C80.62 36.8881 79.9353 37.3621 79.1979 37.6781C77.3121 38.2427 75.6295 39.3401 74.3524 40.8382L72.9831 42.8396C71.2933 45.4562 69.2755 47.8457 66.9789 49.9498C58.5207 55.8591 48.3766 58.8709 38.0641 58.5347C33.4534 58.5446 28.8576 58.0142 24.3703 56.9547C20.3373 56.5322 16.5945 54.6608 13.8367 51.6879C13.5733 49.6338 11.888 47.4218 7.88518 47.4218C7.55413 47.4974 7.2099 47.4939 6.88046 47.4115C6.55101 47.3292 6.24564 47.1703 5.98913 46.9477C3.82973 44.7357 4.0404 37.7835 4.09307 37.2041C5.47568 35.3198 6.39581 33.1368 6.77915 30.8313C7.24394 28.141 8.24309 25.5712 9.71759 23.2735C11.1921 20.9758 13.112 18.9969 15.3641 17.4535C21.6881 13.0842 29.2197 10.8008 36.9054 10.9227C41.3984 10.9544 45.8652 11.6103 50.1777 12.8714C57.8163 15.2173 65.139 18.4896 71.9824 22.615C72.4534 23.023 72.8773 23.4823 73.2464 23.9844C74.5105 25.5644 76.3012 27.7238 78.5132 27.7238H78.9346C78.3679 29.186 78.177 30.767 78.3794 32.322C78.5819 33.877 79.1711 35.3564 80.0933 36.6248C80.0933 36.6248 80.4093 36.8354 80.4093 36.8881H80.62Z" fill="#00097F"/>
<path d="M13.205 39.6794L5.04144 47.527C5.18685 47.917 5.44454 48.2553 5.78199 48.499C6.11944 48.7427 6.52153 48.881 6.9375 48.8964C10.9403 48.8964 12.2043 52.5305 13.6264 51.9511C19.7359 49.5284 16.9971 39.7848 16.9971 39.7848L13.205 39.6794Z" fill="url(#paint20_radial_78_172831)"/>
<path d="M13.205 39.6794L5.04144 47.527C5.46279 48.3697 6.51615 48.001 7.35884 47.9483C12.6257 47.527 12.2043 51.5298 15.1011 49.7917C16.1445 48.3713 16.8565 46.7351 17.1846 45.0034C17.5127 43.2717 17.4486 41.4885 16.9971 39.7848L13.205 39.6794Z" fill="url(#paint21_radial_78_172831)"/>
<path d="M17.0493 39.6796H13.2045L4.88293 47.4745C5.03879 47.8827 5.31205 48.2356 5.66824 48.4887C6.02442 48.7417 6.44758 48.8837 6.88433 48.8965C7.73223 48.9095 8.56815 49.0988 9.33889 49.4524C10.1096 49.8061 10.7983 50.3163 11.3611 50.9506C11.9931 51.4773 12.5198 52.004 13.1518 52.004H13.5732C19.6827 49.6339 16.9966 39.8376 16.9966 39.7323L17.0493 39.6796ZM13.5732 51.6353H13.2572C12.7305 51.6353 12.2565 51.1613 11.6245 50.5819C10.3993 49.3294 8.7405 48.5943 6.98966 48.5279C6.60228 48.5078 6.22851 48.3784 5.91161 48.1547C5.5947 47.931 5.34762 47.6221 5.19894 47.2638L13.3098 39.5216H16.944C17.1546 40.7856 19.2614 49.6339 13.5732 51.6353Z" fill="#00097F"/>
<path d="M6.98984 36.8355C5.40979 36.8355 2.2497 36.8355 1.14366 38.7842C0.954662 39.1422 0.860532 39.5427 0.870251 39.9475C0.87997 40.3522 0.993213 40.7477 1.19918 41.0963C1.40515 41.4449 1.69698 41.7349 2.04684 41.9386C2.39669 42.1424 2.79292 42.2531 3.19772 42.2603C4.14575 43.9457 2.61837 45.157 3.46107 47.0004C4.07329 47.9932 5.01968 48.7349 6.12999 49.0921C7.2403 49.4494 8.44165 49.3987 9.51791 48.9492C10.5481 48.809 11.5373 48.454 12.4216 47.9073C13.306 47.3605 14.0656 46.6342 14.6515 45.7753C15.2373 44.9164 15.6363 43.9441 15.8225 42.9212C16.0088 41.8984 15.9782 40.8478 15.7328 39.8375C14.5996 38.7053 13.2232 37.8464 11.7082 37.3262C10.1932 36.806 8.57948 36.6382 6.98984 36.8355Z" fill="url(#paint22_radial_78_172831)"/>
<path style="mix-blend-mode:screen" opacity="0.69" d="M4.40921 45.9475C4.40921 48.1596 9.20202 48.7916 12.8361 45.9475C10.0447 49.0023 4.04053 49.5289 4.40921 45.9475Z" fill="url(#paint23_linear_78_172831)"/>
<path d="M15.6273 39.8376C16.0065 41.6254 15.7455 43.4895 14.89 45.1044C14.2998 46.0317 13.5295 46.8311 12.6249 47.4553C11.7202 48.0795 10.6995 48.5159 9.62313 48.7385C8.57599 49.1829 7.40398 49.2358 6.32103 48.8877C5.23809 48.5396 4.31643 47.8137 3.72429 46.8425C3.436 46.0969 3.436 45.2707 3.72429 44.5251C4.03496 43.7474 4.03496 42.88 3.72429 42.1023C3.25174 42.1813 2.7666 42.1298 2.32112 41.9535C1.87564 41.7772 1.48671 41.4826 1.19622 41.1016C1.01632 40.7797 0.921873 40.4171 0.921873 40.0483C0.921873 39.6795 1.01632 39.3168 1.19622 38.9949C2.24958 36.9409 6.93705 36.9935 6.93705 36.9935C6.93705 36.9935 2.14425 36.9935 0.985546 38.9423C0.786774 39.2865 0.682129 39.6771 0.682129 40.0746C0.682129 40.4722 0.786774 40.8627 0.985546 41.207C1.22249 41.5755 1.53992 41.8854 1.91395 42.1134C2.28798 42.3415 2.70887 42.4818 3.14494 42.5237C3.43192 43.2331 3.43192 44.0263 3.14494 44.7357C2.85965 45.5362 2.85965 46.4107 3.14494 47.2112C3.56121 47.9485 4.17803 48.5526 4.92383 48.9535C5.66962 49.3543 6.5138 49.5355 7.3584 49.4759C8.01764 49.4886 8.67491 49.3998 9.30712 49.2126C10.4465 49.0116 11.5315 48.5752 12.4928 47.9314C13.454 47.2875 14.2705 46.4503 14.89 45.4731C15.737 43.8555 15.9976 41.9944 15.6273 40.2063V39.8376Z" fill="#00097F"/>
<path d="M12.2565 42.1021C9.93908 42.4708 8.67504 40.7328 6.14696 39.9954C5.29619 39.8148 4.41699 39.8148 3.56622 39.9954C5.56761 41.3121 4.88293 43.6822 5.04093 45.2622C5.06702 45.6818 5.24895 46.0764 5.55101 46.3687C5.85308 46.6611 6.25348 46.83 6.67365 46.8423C8.62805 46.9344 10.5536 46.3436 12.12 45.1712C13.6864 43.9988 14.796 42.3179 15.2586 40.4168C14.4749 41.299 13.4177 41.8925 12.2565 42.1021Z" fill="url(#paint24_radial_78_172831)"/>
<path d="M14.2052 41.1016C14.7845 41.1016 14.2052 42.6817 13.6785 43.4717C14.503 42.5543 15.0508 41.4221 15.2585 40.2063C14.9679 40.5694 14.6104 40.8733 14.2052 41.1016Z" fill="url(#paint25_radial_78_172831)"/>
<path d="M8.62237 41.1014C8.25369 41.1014 6.56831 40.1008 6.14696 39.9954C5.29619 39.8148 4.41699 39.8148 3.56622 39.9954C5.56761 41.3121 4.88293 43.6822 5.04093 45.2622C5.06702 45.6818 5.24895 46.0764 5.55101 46.3687C5.85308 46.6611 6.25348 46.83 6.67365 46.8423C7.3559 46.924 8.04546 46.924 8.72771 46.8423C8.99105 44.4722 6.88432 42.5762 8.62237 41.1014Z" fill="url(#paint26_radial_78_172831)"/>
<path d="M8.20153 43.7352C7.74927 43.385 7.19349 43.1949 6.62149 43.1949C6.04949 43.1949 5.4937 43.385 5.04144 43.7352V45.2099C5.06753 45.6294 5.24946 46.024 5.55152 46.3164C5.85359 46.6087 6.25399 46.7776 6.67416 46.7899C7.97406 46.889 9.27839 46.6671 10.4723 46.1436C11.6663 45.6201 12.7132 44.8111 13.521 43.7878C12.76 43.2033 11.8296 42.8822 10.8701 42.8727C9.91057 42.8632 8.97398 43.1659 8.20153 43.7352Z" fill="#F99B9B"/>
<path d="M7.83253 44.209C7.77484 44.0664 7.68932 43.9366 7.58095 43.8274C7.47259 43.7181 7.34355 43.6316 7.20136 43.5727C7.05918 43.5139 6.9067 43.484 6.75283 43.4847C6.59895 43.4854 6.44677 43.5168 6.30515 43.577C5.51513 43.893 5.30445 44.3143 5.04111 45.2097C5.0672 45.6292 5.24913 46.0239 5.55119 46.3162C5.85326 46.6085 6.25366 46.7774 6.67383 46.7898C8.93856 46.7898 11.9406 45.7891 11.9406 44.1564C11.9406 42.5236 8.41188 43.577 7.83253 44.209Z" fill="#FFB6B6"/>
<g style="mix-blend-mode:screen">
<path d="M7.83253 44.209C7.77484 44.0664 7.68932 43.9366 7.58095 43.8274C7.47259 43.7181 7.34355 43.6316 7.20136 43.5727C7.05918 43.5139 6.9067 43.484 6.75283 43.4847C6.59895 43.4854 6.44677 43.5168 6.30515 43.577C5.51513 43.893 5.30445 44.3143 5.04111 45.2097C5.0672 45.6292 5.24913 46.0239 5.55119 46.3162C5.85326 46.6085 6.25366 46.7774 6.67383 46.7898C8.93856 46.7898 11.9406 45.7891 11.9406 44.1564C11.9406 42.5236 8.41188 43.577 7.83253 44.209Z" fill="url(#paint27_radial_78_172831)"/>
</g>
<path d="M13.6261 43.6826C12.9849 43.0775 12.1377 42.7386 11.256 42.7346C10.2468 42.7372 9.25963 43.0297 8.41192 43.5773C8.00105 43.2329 7.4718 43.0628 6.93721 43.1033C6.31926 43.108 5.7158 43.2909 5.19916 43.63C5.66877 43.3222 6.21771 43.1575 6.7792 43.156C7.01982 43.136 7.26191 43.1681 7.48908 43.2498C7.71625 43.3316 7.9232 43.4613 8.09591 43.63C7.75707 43.9813 7.52037 44.4183 7.41122 44.894C7.58653 44.441 7.87699 44.0416 8.25391 43.7353C9.11989 43.1043 10.1916 42.8223 11.256 42.9453C12.1072 42.9234 12.9351 43.2245 13.5734 43.788C13.5734 43.788 13.5734 43.7353 13.6261 43.6826Z" fill="#DB4F4F"/>
<path d="M12.2569 41.9966H11.6776C10.6345 41.9528 9.61959 41.6447 8.72817 41.1012C7.86694 40.5895 6.94747 40.1828 5.98942 39.8899C5.12443 39.6778 4.22101 39.6778 3.35601 39.8899H3.30334C4.72539 40.7852 4.67272 42.3653 4.67272 43.7346V45.0514C4.71022 45.4947 4.90684 45.9096 5.22628 46.2194C5.54573 46.5291 5.96644 46.7129 6.41077 46.7367H7.20079C9.04683 46.6229 10.8084 45.923 12.2293 44.739C13.6501 43.5549 14.6562 41.9485 15.101 40.1532V40.0479C14.3985 40.9981 13.3967 41.6845 12.2569 41.9966ZM7.46413 46.6841H6.72678C6.32587 46.6709 5.94497 46.5058 5.66133 46.2221C5.3777 45.9385 5.21256 45.5576 5.1994 45.1567C5.1708 44.7358 5.1708 44.3135 5.1994 43.8926C5.32315 43.1892 5.27264 42.4661 5.05228 41.7867C4.83192 41.1072 4.44844 40.4921 3.93536 39.9952C4.67918 39.8122 5.45627 39.8122 6.2001 39.9952C7.0422 40.283 7.85373 40.6535 8.62283 41.1012C9.52319 41.7298 10.5811 42.0947 11.6776 42.1546H12.2569C13.3415 41.9557 14.3362 41.4215 15.101 40.6272C14.6056 42.2997 13.6065 43.7787 12.2398 44.8626C10.8732 45.9465 9.20548 46.5826 7.46413 46.6841Z" fill="#00097F"/>
<path d="M46.1226 66.9087C46.7547 66.9087 46.1226 64.0119 44.7533 63.6433C45.4906 63.6433 44.0686 61.0099 42.9099 60.7992C42.9099 60.1672 38.6964 58.5344 37.6431 56.9017C37.0298 56.9556 36.413 56.9556 35.7997 56.9017C33.8895 57.0645 31.969 57.0645 30.0588 56.9017C30.6731 60.8554 32.4799 64.5273 35.2376 67.4262C37.9954 70.3251 41.5725 72.3128 45.4906 73.1235C46.544 73.1235 46.5967 71.6488 45.8593 71.3328C46.86 71.3328 46.6493 69.5948 46.1226 69.2261C47.1233 69.3314 46.9127 67.4354 46.1226 66.9087Z" fill="url(#paint28_radial_78_172831)"/>
<path d="M44.0685 66.1187C44.7531 66.1187 44.0685 63.2746 42.4884 62.8532C43.2258 62.8532 41.9617 60.6938 40.803 60.4305C39.1534 59.6694 37.7622 58.4429 36.8003 56.9017H35.8522C33.9421 57.0645 32.0215 57.0645 30.1114 56.9017C30.7565 60.3154 32.2003 63.5279 34.3248 66.2767C35.9985 68.5363 38.2062 70.3459 40.7504 71.5435C42.8571 72.3335 43.8051 71.2275 43.9105 70.7008C44.115 70.6105 44.2931 70.4697 44.4281 70.2915C44.5632 70.1134 44.6506 69.9037 44.6822 69.6824C44.7138 69.4612 44.6886 69.2354 44.6088 69.0266C44.5291 68.8178 44.3975 68.6327 44.2265 68.4887C45.1745 68.6467 44.8585 66.382 44.0685 66.1187Z" fill="url(#paint29_linear_78_172831)"/>
<path d="M46.3331 66.9087C46.3679 66.8253 46.3858 66.7357 46.3858 66.6453C46.3858 66.5549 46.3679 66.4654 46.3331 66.382C46.3385 65.8308 46.2065 65.287 45.949 64.7997C45.6915 64.3123 45.3167 63.8968 44.8584 63.5906C44.7796 62.9833 44.5569 62.4035 44.2088 61.8997C43.8607 61.3958 43.3972 60.9824 42.857 60.6939C42.857 60.3778 42.1723 60.0092 41.0136 59.3245C39.7085 58.778 38.5397 57.9508 37.5902 56.9017H35.7468H34.6934C33.185 56.9933 31.6724 56.9933 30.164 56.9017C30.7953 60.2177 32.1632 63.3495 34.1668 66.066C35.4852 67.9968 37.192 69.6311 39.1781 70.8645C41.1643 72.0979 43.3859 72.9032 45.7011 73.2289C45.8721 73.2386 46.0416 73.1924 46.184 73.0975C46.3265 73.0025 46.4343 72.8637 46.4911 72.7022C46.5669 72.5369 46.6061 72.3573 46.6061 72.1755C46.6061 71.9937 46.5669 71.8141 46.4911 71.6488C46.6048 71.596 46.7031 71.5151 46.7769 71.4138C46.8506 71.3124 46.8973 71.1939 46.9125 71.0695C46.9858 70.8114 47.0002 70.5402 46.9546 70.2758C46.909 70.0115 46.8046 69.7607 46.6491 69.5421C46.93 69.5421 47.088 69.3314 47.1231 68.9101C47.2025 68.5358 47.1699 68.1464 47.0294 67.7905C46.8889 67.4346 46.6467 67.1279 46.3331 66.9087ZM46.6491 68.5941C46.6491 68.5941 46.6491 69.1208 46.1751 69.0681H45.5958L46.1224 69.3314C46.286 69.5358 46.3997 69.7755 46.4546 70.0315C46.5095 70.2874 46.5039 70.5527 46.4384 70.8061C46.4384 70.8061 46.4384 71.2275 46.0171 71.2275H45.0691L45.9644 71.5962C46.1287 71.6997 46.2572 71.8512 46.3326 72.0302C46.4079 72.2092 46.4265 72.407 46.3858 72.5969C46.3621 72.751 46.2866 72.8924 46.1717 72.9977C46.0568 73.103 45.9093 73.166 45.7538 73.1762C43.4676 72.8431 41.274 72.0451 39.3083 70.8312C37.3426 69.6174 35.6465 68.0135 34.3248 66.1187C32.284 63.398 30.8964 60.2444 30.2693 56.9017C31.4807 56.9017 33.1661 57.1651 34.6934 57.1651H35.9048L37.5902 56.9017C38.5578 57.9571 39.7203 58.8155 41.0136 59.4298C41.751 59.8512 42.8043 60.4305 42.7517 60.6412H42.857C43.365 60.8768 43.8107 61.2282 44.1583 61.6672C44.5059 62.1063 44.7457 62.6207 44.8584 63.1692H44.121H44.7531C45.7538 63.4326 46.2804 65.0126 46.2804 65.8027C46.2804 66.5927 46.2804 66.224 46.2804 66.224C46.4911 67.4354 46.7545 68.0147 46.6491 68.5941Z" fill="#003B91"/>
<g style="mix-blend-mode:screen" opacity="0.46">
<path d="M43.6998 65.908C44.3318 65.908 43.2258 63.0639 41.8564 62.6426C42.5938 62.6426 41.5404 60.3778 40.3817 60.1672C38.9486 59.4328 37.7594 58.2985 36.9583 56.9017C36.0196 57.0904 35.0528 57.0904 34.1142 56.9017C33.2899 56.9538 32.4631 56.9538 31.6388 56.9017H30.1114C30.6486 59.9654 31.8763 62.8665 33.7013 65.3851C35.5264 67.9037 37.901 69.9737 40.645 71.4381C41.6984 71.4381 43.0678 71.1221 43.0678 70.4375C44.0685 70.4375 44.3318 68.7521 43.8051 68.4361C44.5951 68.5414 44.4898 66.1713 43.6998 65.908Z" fill="url(#paint30_linear_78_172831)"/>
</g>
<path d="M31.5333 56.9017C32.5363 60.3354 34.3971 63.4571 36.9402 65.9726C39.4834 68.4882 42.6253 70.3147 46.0697 71.2802C42.6115 70.3424 39.4551 68.5252 36.9077 66.0055C34.3603 63.4858 32.5087 60.3494 31.5333 56.9017Z" fill="#003B91"/>
<path d="M34.1667 56.9017C36.8824 61.5193 41.1605 65.0128 46.2277 66.7507C41.1489 65.0337 36.8642 61.5348 34.1667 56.9017Z" fill="#003B91"/>
<path d="M36.8527 56.9017C37.4422 58.0151 38.2999 58.9641 39.3482 59.663C40.3965 60.3618 41.6023 60.7885 42.8568 60.9045C41.5899 60.8338 40.365 60.4253 39.3092 59.7214C38.2534 59.0176 37.4052 58.044 36.8527 56.9017Z" fill="#003B91"/>
<path style="mix-blend-mode:screen" opacity="0.77" d="M18.05 23.2474C16.7969 23.2937 15.5958 23.7606 14.6404 24.5727C13.685 25.3848 13.0307 26.4949 12.7832 27.7242C13.1775 26.6267 13.8883 25.6707 14.8257 24.977C15.7631 24.2833 16.8852 23.8831 18.05 23.8268C19.3836 23.6966 20.7286 23.9032 21.9617 24.4277C23.1947 24.9522 24.2764 25.7778 25.1075 26.8289C24.403 25.6138 23.3615 24.6289 22.109 23.9933C20.8565 23.3577 19.4466 23.0987 18.05 23.2474Z" fill="url(#paint31_linear_78_172831)"/>
<path d="M18.05 23.089C16.7803 23.1615 15.5716 23.6575 14.6169 24.4977C13.6622 25.3378 13.0166 26.4736 12.7832 27.7237C13.0754 26.5262 13.7453 25.4545 14.6939 24.6673C15.6424 23.88 16.8191 23.4189 18.05 23.3523C19.441 23.2148 20.8428 23.4672 22.0985 24.0811C23.3542 24.695 24.4143 25.6463 25.1602 26.8284C24.4686 25.5798 23.4271 24.5606 22.1638 23.8963C20.9006 23.2319 19.4707 22.9513 18.05 23.089Z" fill="#00097F"/>
<path d="M48.1234 29.0408C48.65 28.6194 48.8607 27.0394 48.1234 26.8814C48.9134 26.302 48.5974 24.6693 48.1234 24.564C48.8607 24.1426 48.5447 22.4046 47.86 22.5626C48.3867 21.9832 47.3333 20.6138 46.754 20.7718C47.2807 20.4032 46.754 18.9811 45.4373 19.2445C42.0559 21.0038 39.0634 23.4262 36.6383 26.367C34.2132 29.3079 32.4053 32.707 31.3222 36.3616C32.0216 36.9691 32.5485 37.7503 32.8496 38.6264C33.0699 39.2328 33.1596 39.8789 33.1129 40.5224C36.8788 40.7845 40.6587 40.2829 44.2259 39.0477C45.7006 38.4157 46.1746 36.8883 45.964 36.8356C47.0173 36.2563 48.4394 34.0969 47.3333 33.9916C48.0707 33.4649 49.2294 31.2002 48.2814 31.2002C48.7554 30.5681 49.1767 29.0934 48.1234 29.0408Z" fill="url(#paint32_radial_78_172831)"/>
<path d="M47.1753 29.5674C47.702 29.1461 47.8074 27.566 46.8593 27.3553C47.702 26.8287 47.6493 25.0379 46.8593 24.9326C47.5967 24.5113 46.8593 22.7732 46.3853 22.9312C46.912 22.3519 46.3853 20.8772 45.8586 21.0352C46.003 20.9105 46.1197 20.7572 46.2013 20.5849C46.2829 20.4125 46.3277 20.2251 46.3326 20.0345C46.26 19.8129 46.1038 19.6284 45.8973 19.5202C45.6907 19.412 45.4501 19.3887 45.2266 19.4551C41.9054 21.2127 38.9662 23.6121 36.5793 26.5143C34.1925 29.4164 32.4056 32.7636 31.3222 36.3616C32.0216 36.969 32.5485 37.7502 32.8496 38.6263C33.0655 39.142 33.1557 39.7016 33.1129 40.2591C36.5728 40.0973 40.002 39.5316 43.3306 38.5737C44.8053 38.047 44.6473 37.5203 44.4366 37.4677C45.648 36.8356 47.1753 34.7289 46.0693 34.6762C47.0173 34.0969 48.176 31.9902 47.228 31.9902C47.702 31.4635 48.1234 29.6201 47.1753 29.5674Z" fill="url(#paint33_linear_78_172831)"/>
<path d="M32.3234 37.6781C35.1297 33.2637 38.5526 29.2733 42.4884 25.8278C38.5577 29.2783 35.1354 33.268 32.3234 37.6781Z" fill="#003B91"/>
<path d="M32.6389 38.2575C35.7903 34.0757 39.4729 30.3223 43.5939 27.0918C39.4585 30.3061 35.7739 34.0616 32.6389 38.2575Z" fill="#003B91"/>
<path d="M32.7974 38.7314C36.3779 35.0265 40.2919 31.6591 44.4897 28.6718C40.2708 31.6321 36.3543 35.0016 32.7974 38.7314Z" fill="#003B91"/>
<path d="M32.9551 39.2583C34.4825 38.1523 40.9607 33.3595 45.1741 30.7261C41.066 33.3595 34.5352 38.0996 32.9551 39.2583Z" fill="#003B91"/>
<path d="M33.0603 39.6793C34.5877 38.8893 41.2238 35.5712 45.5426 32.8851C41.2765 35.5185 34.5877 38.8893 33.0603 39.6793Z" fill="#003B91"/>
<path d="M33.0603 39.9956C37.3557 38.5778 41.5299 36.8165 45.5426 34.7288C41.5208 36.7971 37.3481 38.5577 33.0603 39.9956Z" fill="#003B91"/>
<path d="M33.0603 40.2588C37.1969 39.6285 41.2566 38.5695 45.174 37.0987V36.8353C41.2585 38.3721 37.2009 39.5189 33.0603 40.2588Z" fill="#003B91"/>
<path d="M48.8609 29.3566C48.8275 29.2646 48.7714 29.1825 48.6977 29.118C48.624 29.0535 48.5352 29.0088 48.4395 28.9879C48.5946 28.7688 48.7026 28.5201 48.757 28.2572C48.8114 27.9944 48.8109 27.7232 48.7556 27.4606C48.7064 27.3134 48.6237 27.1797 48.514 27.0701C48.4043 26.9604 48.2707 26.8777 48.1235 26.8285C48.3269 26.636 48.4773 26.3943 48.5604 26.1269C48.6434 25.8594 48.6562 25.575 48.5975 25.3012C48.5316 24.9925 48.3648 24.7146 48.1235 24.5111C48.2737 24.3102 48.3756 24.0775 48.4212 23.8309C48.4669 23.5842 48.4552 23.3304 48.3869 23.0891C48.3604 22.9475 48.2981 22.8151 48.2059 22.7044C48.1137 22.5938 47.9947 22.5086 47.8602 22.4571C47.9348 22.199 47.9348 21.9251 47.8602 21.6671C47.6512 21.2102 47.2738 20.8517 46.8068 20.6664C46.8577 20.5783 46.8844 20.4784 46.8844 20.3767C46.8844 20.275 46.8577 20.1751 46.8068 20.087C46.7222 19.8119 46.556 19.5689 46.3303 19.3902C46.1046 19.2116 45.83 19.1056 45.5428 19.0863H45.1741C41.8115 20.8872 38.8439 23.3438 36.4467 26.3109C34.0495 29.2781 32.2712 32.6955 31.217 36.3615C31.8796 36.9693 32.3855 37.7282 32.6918 38.5736C32.8124 39.1821 32.8124 39.8084 32.6918 40.4169H34.3771C37.6057 40.4532 40.8152 39.9183 43.8574 38.8369C44.3309 38.6609 44.7501 38.3641 45.0734 37.9761C45.3968 37.5881 45.6131 37.1223 45.7008 36.6248C46.5435 36.0982 47.5442 34.6761 47.3862 33.9914C47.4139 33.9434 47.4285 33.8889 47.4285 33.8334C47.4285 33.7779 47.4139 33.7234 47.3862 33.6754C48.0182 33.0961 48.7556 31.7267 48.5449 31.1473C48.7214 30.8883 48.8409 30.5947 48.8954 30.2859C48.9499 29.9772 48.9381 29.6604 48.8609 29.3566ZM48.1235 31.1473C48.0525 32.0824 47.6176 32.9522 46.9122 33.5701H46.6488H46.9648H47.2282C47.13 34.0755 46.9299 34.5556 46.6402 34.9812C46.3504 35.4068 45.977 35.7689 45.5428 36.0455C45.4417 36.497 45.2299 36.9163 44.9265 37.2656C44.6231 37.615 44.2376 37.8834 43.8047 38.0469C40.7913 39.0988 37.6216 39.633 34.4298 39.6269H32.8498C32.9746 39.0188 32.9746 38.3916 32.8498 37.7835C32.5487 36.9074 32.0218 36.1262 31.3224 35.5188C32.3917 31.9155 34.1609 28.5584 36.5286 25.6394C38.8964 22.7204 41.8163 20.2967 45.1214 18.507H45.4901C45.7272 18.5084 45.9575 18.5859 46.1472 18.7281C46.3368 18.8704 46.4758 19.0698 46.5435 19.297C46.6001 19.383 46.6303 19.4837 46.6303 19.5867C46.6303 19.6896 46.6001 19.7903 46.5435 19.8763L46.1221 20.1923H46.6488C46.6488 20.1923 47.4388 20.561 47.6495 21.0877C47.7009 21.1945 47.7275 21.3115 47.7275 21.43C47.7275 21.5486 47.7009 21.6656 47.6495 21.7724H47.3862H47.7022C47.9655 21.7724 48.1235 21.7724 48.2289 22.2464C48.3342 22.7204 48.2289 23.3524 47.9129 23.5631H48.1235C48.1235 23.5631 48.4922 23.8791 48.5975 24.3005C48.6613 24.541 48.6608 24.7941 48.5961 25.0344C48.5314 25.2747 48.4048 25.4938 48.2289 25.6698H47.9655H48.1235C48.2528 25.6974 48.3713 25.7618 48.4648 25.8553C48.5582 25.9488 48.6226 26.0673 48.6502 26.1965C48.8149 26.4086 48.9327 26.6534 48.9957 26.9144C49.0587 27.1755 49.0656 27.447 49.0158 27.7109C48.966 27.9748 48.8607 28.2251 48.7069 28.4453C48.5531 28.6654 48.3542 28.8504 48.1235 28.9879C48.2153 28.999 48.3026 29.034 48.3765 29.0895C48.4505 29.145 48.5086 29.2189 48.5449 29.3039C48.6191 29.623 48.6197 29.9548 48.5467 30.2742C48.4737 30.5936 48.329 30.8922 48.1235 31.1473Z" fill="#003B91"/>
<path d="M48.1236 29.0408C48.6503 28.6194 48.8609 27.0394 48.1236 26.8814C48.9136 26.302 48.5976 24.6693 48.1236 24.564C48.8609 24.1426 48.5449 22.4046 47.8602 22.5626C48.3869 21.9832 47.3336 20.6138 46.7542 20.7718C47.2809 20.4032 46.7542 18.9811 45.4375 19.2445C42.8634 20.5599 40.5589 22.3464 38.6433 24.5113C44.3841 24.1953 47.6496 32.8329 44.9108 38.995C46.0169 38.2577 46.3855 37.099 46.1749 37.0463C47.2282 36.467 48.6503 34.3076 47.5442 34.2022C48.2816 33.6756 49.4403 31.4108 48.4923 31.4108C48.7556 30.5681 49.177 29.0934 48.1236 29.0408Z" fill="url(#paint34_linear_78_172831)"/>
<path d="M46.0697 34.6762C47.0177 34.0969 48.1764 31.9902 47.2284 31.9902C47.7024 31.4635 48.1237 29.6201 47.2284 29.5674C47.7551 29.1461 47.8604 27.566 46.9124 27.3553C47.7551 26.8287 47.7024 25.0379 46.9124 24.9326C47.6497 24.5113 46.9124 22.7732 46.4384 22.9312C46.965 22.3519 46.4383 20.8772 45.9117 21.0352C46.0464 20.9059 46.1533 20.7504 46.2258 20.5784C46.2982 20.4063 46.3347 20.2212 46.333 20.0345C46.2604 19.8129 46.1042 19.6284 45.8976 19.5202C45.6911 19.412 45.4505 19.3887 45.227 19.4551H44.8056H44.5423L42.8569 20.5085L42.3829 20.8245H42.0669L41.7509 21.0878H41.4349L41.0662 21.4565L40.7502 21.7725C46.017 21.5092 49.0191 28.356 47.7024 34.2022C46.2803 35.8349 46.8597 34.7289 46.0697 34.6762Z" fill="url(#paint35_linear_78_172831)"/>
<path d="M48.7027 31.4104C48.8883 31.1555 49.0171 30.8638 49.0807 30.5549C49.1443 30.2461 49.1411 29.9272 49.0714 29.6197C49.038 29.5277 48.9819 29.4456 48.9082 29.3811C48.8345 29.3166 48.7457 29.2719 48.6501 29.251C48.8051 29.0319 48.9132 28.7832 48.9675 28.5203C49.0219 28.2575 49.0214 27.9863 48.9661 27.7236C48.9453 27.5019 48.8511 27.2934 48.6985 27.1313C48.5458 26.9691 48.3434 26.8625 48.1234 26.8283C48.3268 26.6357 48.4772 26.3941 48.5602 26.1266C48.6432 25.8591 48.656 25.5748 48.5974 25.3009C48.5314 24.9923 48.3647 24.7143 48.1234 24.5109C48.2735 24.31 48.3754 24.0772 48.4211 23.8306C48.4668 23.584 48.455 23.3302 48.3867 23.0889C48.3603 22.9473 48.2979 22.8148 48.2057 22.7042C48.1135 22.5935 47.9945 22.5084 47.86 22.4568C47.9347 22.1988 47.9347 21.9249 47.86 21.6668C47.651 21.2099 47.2737 20.8514 46.8067 20.6661C46.8575 20.578 46.8843 20.4781 46.8843 20.3764C46.8843 20.2747 46.8575 20.1748 46.8067 20.0867C46.722 19.8116 46.5559 19.5687 46.3302 19.39C46.1045 19.2113 45.8299 19.1053 45.5426 19.0861H45.174C42.6024 20.4296 40.2853 22.212 38.3271 24.3529C39.4017 24.357 40.4559 24.647 41.3815 25.1931C42.307 25.7392 43.0706 26.5217 43.5939 27.4603C44.5987 29.1353 45.1981 31.0219 45.3445 32.9696C45.4908 34.9174 45.1799 36.8724 44.4366 38.6786V38.9946H44.8053C45.1525 38.7717 45.4492 38.4784 45.676 38.1337C45.9028 37.7889 46.0547 37.4004 46.122 36.9933C46.9647 36.4666 47.9654 35.0445 47.8074 34.3598C47.8351 34.3118 47.8497 34.2573 47.8497 34.2018C47.8497 34.1464 47.8351 34.0919 47.8074 34.0438C48.1234 33.3591 48.9134 31.9898 48.7027 31.4104ZM48.7027 27.513C48.7182 27.786 48.6745 28.0592 48.5745 28.3137C48.4745 28.5683 48.3206 28.7982 48.1234 28.9877C47.1555 29.4453 46.2225 29.9734 45.332 30.5677C45.1357 29.9591 44.9071 29.3613 44.6473 28.777C45.748 28.0736 46.9117 27.4741 48.1234 26.9863C48.2331 27.0302 48.3296 27.1019 48.4034 27.1942C48.4772 27.2864 48.5259 27.3963 48.5447 27.513H48.7027ZM47.5967 21.7721C47.648 21.879 47.6747 21.996 47.6747 22.1145C47.6747 22.233 47.648 22.35 47.5967 22.4568C45.6663 23.1628 43.8813 24.2159 42.3299 25.5642C41.8657 25.1809 41.352 24.8621 40.8025 24.6162C42.5049 23.0722 44.4429 21.8098 46.5433 20.8768C46.5433 20.8768 47.386 21.2455 47.5967 21.7721ZM38.7484 24.1949C40.6271 22.2123 42.8372 20.5726 45.2793 19.3494H45.49C45.727 19.3508 45.9574 19.4283 46.147 19.5706C46.3367 19.7128 46.4756 19.9122 46.5433 20.1394C46.6 20.2254 46.6301 20.3261 46.6301 20.4291C46.6301 20.5321 46.6 20.6328 46.5433 20.7188C44.3988 21.6812 42.4104 22.9594 40.6445 24.5109C40.0372 24.2901 39.3945 24.183 38.7484 24.1949ZM42.5405 25.7223C44.0988 24.3965 45.8828 23.3618 47.8074 22.6675C47.8074 22.6675 48.176 22.6675 48.2814 23.1415C48.3867 23.6155 48.2814 24.2475 47.9654 24.4582C46.5084 25.1797 45.1163 26.0256 43.8046 26.9863C43.4265 26.5238 43.003 26.1004 42.5405 25.7223ZM43.8046 27.197C45.152 26.2059 46.5995 25.3586 48.1234 24.6689C48.1234 24.6689 48.1234 25.3009 48.3867 25.3009C48.4505 25.5415 48.45 25.7945 48.3853 26.0348C48.3206 26.2751 48.1939 26.4942 48.018 26.6703C46.8426 27.164 45.7144 27.7633 44.6473 28.461L43.9626 27.2496L43.8046 27.197ZM45.4373 30.8311C46.2762 30.1989 47.176 29.652 48.1234 29.1984C48.1234 29.1984 48.3867 29.1984 48.492 29.1984C48.5288 29.4967 48.5059 29.7994 48.4245 30.0887C48.3431 30.3781 48.2049 30.6483 48.018 30.8837C47.386 31.3578 46.5433 31.9371 45.5953 32.5164C45.5838 31.9516 45.531 31.3883 45.4373 30.8311ZM44.9633 38.468C45.1272 38.0727 45.2678 37.6682 45.3846 37.2566L45.9113 36.9933C45.7654 37.5754 45.4323 38.0935 44.9633 38.468ZM47.5967 34.3072C47.504 34.8076 47.3058 35.2825 47.0152 35.7002C46.7245 36.118 46.3482 36.469 45.9113 36.7299H45.4373C45.5979 36.0905 45.7036 35.4386 45.7533 34.7812L47.3334 33.8332C47.3334 33.8332 47.5967 34.2545 47.5967 34.3072ZM47.2807 33.8858L45.7533 34.7812C45.8059 34.203 45.8059 33.6213 45.7533 33.0431C46.754 32.4111 47.6494 31.8318 48.2814 31.3578C48.2931 32.2992 47.9336 33.2074 47.2807 33.8858Z" fill="#D17200"/>
<path style="mix-blend-mode:screen" opacity="0.55" d="M46.4908 32.0952C47.0175 31.5685 47.4389 29.9358 46.4908 29.9358C46.9648 29.4618 47.2282 27.8817 46.4908 27.7237C47.2808 27.1971 46.9648 25.5117 46.4908 25.4063C47.2282 24.985 46.9648 23.2996 46.4908 23.4049C46.9648 22.8783 45.9641 21.5089 45.3848 21.6669C45.8588 21.2456 45.3848 19.8235 44.0154 20.1395C42.2413 21.3109 40.5991 22.6706 39.1173 24.195C47.5969 25.617 45.8061 35.6766 46.2802 34.7286C46.7542 33.7806 47.4389 32.0952 46.4908 32.0952Z" fill="url(#paint36_linear_78_172831)"/>
<path d="M30.4794 35.8345C31.4671 36.5358 32.2344 37.5041 32.6915 38.6259C33.0574 39.5204 33.0574 40.5228 32.6915 41.4173C33.0206 41.0309 33.2464 40.5673 33.3477 40.0699C33.449 39.5725 33.4226 39.0576 33.2708 38.5732C32.7263 37.3359 31.7269 36.3553 30.4794 35.8345Z" fill="#00097F"/>
<path d="M28.6362 56.9019C30.6254 57.3573 32.6536 57.6219 34.693 57.6919H35.9044C37.8521 57.4854 39.7545 56.9698 41.5399 56.1646C39.6844 56.7074 37.7786 57.0603 35.8517 57.2179C33.4421 57.292 31.0302 57.1864 28.6362 56.9019Z" fill="#00097F"/>
<path d="M15.627 39.6795C15.2481 40.271 14.7547 40.7808 14.1758 41.1788C13.5969 41.5768 12.9443 41.8549 12.2563 41.9969C11.011 42.1274 9.75992 41.8099 8.72749 41.1015C7.86626 40.5897 6.94678 40.1831 5.98874 39.8902C5.32623 39.5817 4.58701 39.4771 3.86493 39.5896C3.14286 39.7022 2.47052 40.0267 1.93329 40.5222C3.18514 39.8805 4.63172 39.7302 5.98874 40.1008C6.89908 40.3415 7.7817 40.6769 8.62215 41.1015C9.52251 41.7301 10.5805 42.0949 11.6769 42.1549H12.2563C13.7224 41.8502 15.0093 40.9797 15.8377 39.7322L15.627 39.6795Z" fill="#00097F"/>
<path d="M15.7325 40.1539C16.0962 40.3199 16.4914 40.4058 16.8912 40.4058C17.291 40.4058 17.6861 40.3199 18.0499 40.1539L17.4705 39.1532L14.1524 38.0999C14.2673 38.5295 14.466 38.9323 14.7372 39.2848C15.0084 39.6373 15.3466 39.9327 15.7325 40.1539Z" fill="url(#paint37_radial_78_172831)"/>
<path d="M15.7851 40.0486C15.0074 39.637 14.4215 38.9376 14.1524 38.0999C14.1524 38.0999 14.4684 39.7852 15.7325 40.2066C16.1955 40.417 16.6986 40.5248 17.2072 40.5226C17.3664 40.5289 17.5249 40.4989 17.6709 40.4351C17.8169 40.3712 17.9464 40.2751 18.0499 40.1539C17.3055 40.3813 16.5053 40.3441 15.7851 40.0486Z" fill="#00097F"/>
<path d="M21.7899 28.1454C21.8348 28.5767 21.7875 29.0127 21.6508 29.4244C21.5142 29.836 21.2915 30.2138 20.9976 30.5327C20.7036 30.8515 20.3451 31.1042 19.9459 31.2737C19.5467 31.4433 19.116 31.5259 18.6824 31.5161C17.7935 31.5764 16.9154 31.2931 16.2293 30.7247C15.5432 30.1562 15.1016 29.346 14.9957 28.4614C14.9207 27.9967 14.9454 27.5213 15.0682 27.0669C15.191 26.6125 15.4091 26.1894 15.708 25.8258C16.0069 25.4621 16.3797 25.1663 16.8018 24.9578C17.2238 24.7493 17.6853 24.633 18.1558 24.6166C19.0938 24.6415 19.9881 25.0182 20.6613 25.6719C21.3345 26.3256 21.7373 27.2085 21.7899 28.1454Z" fill="black"/>
<path d="M21.789 28.1454C21.825 28.5663 21.7747 28.9902 21.6414 29.391C21.508 29.7919 21.2943 30.1614 21.0134 30.4769C20.7324 30.7924 20.39 31.0472 20.0072 31.2259C19.6244 31.4046 19.2092 31.5034 18.7869 31.5162C17.9182 31.5607 17.0659 31.2676 16.4083 30.6983C15.7506 30.129 15.3385 29.3275 15.2581 28.4614C15.2553 27.667 15.5519 26.9007 16.0887 26.3151C16.6255 25.7295 17.3632 25.3675 18.1549 25.3013C19.0036 25.2488 19.8422 25.5092 20.5119 26.0333C21.1816 26.5574 21.636 27.3089 21.789 28.1454Z" fill="#C4C5C6"/>
<path d="M21.2632 28.0925C21.1462 28.8071 20.7913 29.4612 20.2559 29.9488C19.7205 30.4363 19.0362 30.7287 18.3138 30.7786C17.5989 30.8241 16.8908 30.617 16.3132 30.1934C15.7355 29.7698 15.3251 29.1567 15.1537 28.4612C15.1527 27.6497 15.4638 26.869 16.0227 26.2807C16.5816 25.6924 17.3454 25.3417 18.1558 25.3011C18.9314 25.2848 19.6841 25.5643 20.2612 26.0827C20.8382 26.6011 21.1965 27.3196 21.2632 28.0925Z" fill="white"/>
<path d="M18.6822 31.6212C17.7945 31.6517 16.9288 31.3413 16.2628 30.7536C15.5968 30.166 15.181 29.3457 15.1008 28.4611C15.0649 28.0306 15.1163 27.5972 15.2517 27.187C15.3872 26.7768 15.604 26.3981 15.8891 26.0736C16.1743 25.7491 16.522 25.4854 16.9114 25.2984C17.3008 25.1113 17.724 25.0047 18.1555 24.985C19.0521 24.9406 19.9311 25.2447 20.6085 25.8337C21.2859 26.4228 21.7091 27.251 21.7896 28.1451C21.8329 29.0167 21.531 29.8703 20.9494 30.5209C20.3678 31.1715 19.5532 31.5668 18.6822 31.6212ZM18.1555 25.301C17.7422 25.3132 17.3358 25.4106 16.9618 25.5873C16.5879 25.7639 16.2545 26.0159 15.9825 26.3274C15.7106 26.639 15.5059 27.0033 15.3813 27.3977C15.2568 27.792 15.2151 28.2079 15.2588 28.6191C15.3388 29.4617 15.7379 30.2419 16.3743 30.8C17.0107 31.3581 17.8363 31.6518 18.6822 31.6212C19.1258 31.6331 19.5667 31.5482 19.9742 31.3724C20.3816 31.1967 20.7459 30.9343 21.0417 30.6034C21.3374 30.2726 21.5575 29.8813 21.6867 29.4567C21.8159 29.0322 21.851 28.5846 21.7896 28.1451C21.6714 27.2921 21.2261 26.5186 20.548 25.9878C19.8698 25.4571 19.0119 25.2108 18.1555 25.301Z" fill="black"/>
<path d="M3.82944 42.6292C3.72976 42.5857 3.62218 42.5633 3.51343 42.5633C3.40467 42.5633 3.29709 42.5857 3.19742 42.6292C3.67143 42.1025 3.82944 42.6292 3.82944 42.6292Z" fill="#00097F"/>
<path style="mix-blend-mode:screen" opacity="0.77" d="M10.466 24.6165C17.9449 11.7128 40.9082 8.07868 64.4509 20.8244C48.9138 15.2416 22.8957 10.2381 10.466 24.6165Z" fill="url(#paint38_linear_78_172831)"/>
<path style="mix-blend-mode:multiply" opacity="0.83" d="M28.3733 13.714C28.3733 14.03 27.8993 14.3987 27.1093 14.5567C26.3193 14.7147 25.6872 14.5567 25.6346 14.2407C25.5819 13.9247 26.1086 13.5033 26.8986 13.3453C27.6886 13.1873 28.3206 13.3453 28.3733 13.714Z" fill="url(#paint39_linear_78_172831)"/>
<path style="mix-blend-mode:multiply" opacity="0.83" d="M24.6865 14.2935C24.6865 14.6095 24.2125 15.0309 23.4752 15.1889C22.7378 15.3469 21.7898 15.2415 21.7898 14.7675C21.7898 14.2935 22.2638 14.0302 23.0538 13.8722C23.8439 13.7142 24.6339 13.9775 24.6865 14.2935Z" fill="url(#paint40_linear_78_172831)"/>
<path style="mix-blend-mode:multiply" opacity="0.83" d="M37.5901 13.8194C37.5901 13.8194 37.0107 14.3461 36.3261 14.3461C35.6414 14.3461 35.062 14.0827 35.062 13.8194C35.062 13.5561 35.6414 13.2927 36.3261 13.2927C37.0107 13.2927 37.5901 13.5561 37.5901 13.8194Z" fill="url(#paint41_linear_78_172831)"/>
<path style="mix-blend-mode:multiply" opacity="0.83" d="M71.824 23.9316C71.824 23.9316 71.4027 24.2476 70.9287 23.9316C70.4546 23.6156 70.1386 23.6156 70.1913 23.4049C70.244 23.1942 70.6126 23.4049 71.0867 23.4049C71.5607 23.4049 71.8767 23.7736 71.824 23.9316Z" fill="url(#paint42_linear_78_172831)"/>
<path style="mix-blend-mode:multiply" opacity="0.83" d="M69.5067 22.4045C69.5067 22.4045 69.0327 22.4045 68.6114 22.4045C68.19 22.4045 67.874 21.9305 67.9267 21.7725C67.9794 21.6145 68.4007 21.7725 68.8221 21.7725C69.2434 21.7725 69.5594 22.1938 69.5067 22.4045Z" fill="url(#paint43_linear_78_172831)"/>
<path style="mix-blend-mode:multiply" opacity="0.83" d="M30.4268 14.7671C30.4268 15.0304 30.0581 15.2938 29.4788 15.3464C28.8994 15.3991 28.4254 15.3464 28.3727 15.0304C28.3201 14.7144 28.7941 14.5037 29.3734 14.4511C29.9528 14.3984 30.4268 14.7671 30.4268 14.7671Z" fill="url(#paint44_linear_78_172831)"/>
<path style="mix-blend-mode:multiply" opacity="0.83" d="M21.7894 16.2423C21.7894 16.2423 21.4208 16.769 20.8941 16.8743C20.3674 16.9797 19.788 16.8743 19.7354 16.8743C19.6827 16.8743 20.104 16.295 20.6834 16.1896C21.2627 16.0843 21.7894 15.979 21.7894 16.2423Z" fill="url(#paint45_linear_78_172831)"/>
<path style="mix-blend-mode:multiply" opacity="0.83" d="M40.0657 12.6082C40.0657 12.9769 39.381 13.1875 38.591 13.0822C37.801 12.9769 37.2217 12.7135 37.2743 12.3449C37.327 11.9762 37.959 11.8182 38.749 11.8708C39.5391 11.9235 40.1184 12.2922 40.0657 12.6082Z" fill="url(#paint46_linear_78_172831)"/>
<path style="mix-blend-mode:multiply" opacity="0.83" d="M43.8574 12.5026C43.8574 12.8713 43.1727 13.0819 42.3827 12.9766C41.5926 12.8713 41.0133 12.6079 41.0659 12.2393C41.1186 11.8706 41.7506 11.7126 42.5407 11.7652C43.3307 11.8179 43.91 12.1866 43.8574 12.5026Z" fill="url(#paint47_linear_78_172831)"/>
<path style="mix-blend-mode:multiply" opacity="0.83" d="M34.4825 12.9771C34.4825 13.3457 33.8505 13.6091 33.0605 13.6091C32.2704 13.6091 31.6384 13.3457 31.6384 13.0297C31.6384 12.7137 32.2704 12.3977 33.0605 12.3977C33.8505 12.3977 34.4298 12.661 34.4825 12.9771Z" fill="url(#paint48_linear_78_172831)"/>
<path style="mix-blend-mode:multiply" opacity="0.83" d="M41.5927 15.0307C41.5927 15.2941 41.0133 15.5048 40.3286 15.4521C39.644 15.3994 39.1173 15.1888 39.1173 14.8727C39.1173 14.5567 39.6966 14.3987 40.3813 14.4514C41.066 14.5041 41.5927 14.7674 41.5927 15.0307Z" fill="url(#paint49_linear_78_172831)"/>
<path style="mix-blend-mode:multiply" opacity="0.83" d="M48.808 13.6615C48.808 13.6615 48.4394 13.9775 47.9653 13.9775C47.4913 13.9775 47.1227 13.9776 47.1227 13.5562C47.1227 13.1349 47.544 13.1875 48.018 13.2402C48.492 13.2929 48.808 13.4509 48.808 13.6615Z" fill="url(#paint50_linear_78_172831)"/>
<path style="mix-blend-mode:multiply" opacity="0.83" d="M44.4371 14.7674C44.4371 14.7674 44.0685 15.136 43.5944 15.0834C43.1204 15.0307 42.8571 14.7674 42.8571 14.4513C42.8571 14.1353 43.2784 14.0827 43.7524 14.1353C44.2265 14.188 44.4898 14.2933 44.4371 14.7674Z" fill="url(#paint51_linear_78_172831)"/>
<path style="mix-blend-mode:multiply" opacity="0.83" d="M26.3714 15.6104C26.3714 15.6104 26.0554 16.0317 25.634 16.1371C25.2127 16.2424 24.7387 16.1371 24.7387 16.1371C24.7387 16.1371 25.002 15.7157 25.476 15.6104C25.95 15.5051 26.3187 15.3997 26.3714 15.6104Z" fill="url(#paint52_linear_78_172831)"/>
<path style="mix-blend-mode:multiply" opacity="0.83" d="M33.8504 14.7676C33.8504 14.7676 33.3764 15.189 32.797 15.189C32.2177 15.189 31.7437 14.9256 31.7963 14.6623C31.849 14.399 32.2703 14.241 32.8497 14.241C33.429 14.241 33.8504 14.7676 33.8504 14.7676Z" fill="url(#paint53_linear_78_172831)"/>
<path style="mix-blend-mode:multiply" opacity="0.83" d="M55.5494 17.085C55.5494 17.401 55.9708 17.8224 56.7608 18.0331C57.5508 18.2437 58.1828 18.0331 58.2355 18.0331C58.2882 18.0331 57.8141 17.243 57.0241 17.085C56.2341 16.927 55.6021 16.769 55.5494 17.085Z" fill="url(#paint54_linear_78_172831)"/>
<path style="mix-blend-mode:multiply" opacity="0.83" d="M46.3858 14.7671C46.3858 15.0831 46.8598 15.5044 47.5972 15.6624C48.3345 15.8204 49.0192 15.6624 49.1245 15.3991C49.2299 15.1358 48.6505 14.7671 48.1239 14.7671C47.5972 14.7671 46.4911 14.7671 46.3858 14.7671Z" fill="url(#paint55_linear_78_172831)"/>
<path style="mix-blend-mode:multiply" opacity="0.83" d="M64.7664 20.2974C64.7664 20.5607 65.0824 20.9821 65.7144 21.2981C66.3464 21.6141 66.9258 21.2981 67.0311 21.2981C67.1364 21.2981 66.7151 20.6134 66.0831 20.3501C65.451 20.0867 64.8717 20.0341 64.7664 20.2974Z" fill="url(#paint56_linear_78_172831)"/>
<path style="mix-blend-mode:multiply" opacity="0.83" d="M51.0202 15.6099C51.0202 15.6099 51.3362 16.0312 51.7576 16.1365C52.1789 16.2419 52.6529 16.1365 52.6529 16.1365C52.6529 16.1365 52.3369 15.7152 51.8629 15.6625C51.3889 15.6099 51.0202 15.3992 51.0202 15.6099Z" fill="url(#paint57_linear_78_172831)"/>
<path style="mix-blend-mode:multiply" opacity="0.83" d="M61.3428 19.3497C61.3428 19.3497 61.6061 19.8237 62.0275 19.9291C62.4488 20.0344 62.9228 19.9291 62.9755 19.9291C63.0282 19.9291 62.7121 19.5077 62.2381 19.3497C61.7641 19.1917 61.3954 19.1917 61.3428 19.3497Z" fill="url(#paint58_linear_78_172831)"/>
<path style="mix-blend-mode:multiply" opacity="0.83" d="M75.6162 28.1451C75.6162 28.1451 75.9322 28.4611 76.3009 28.4611C76.6696 28.4611 76.9329 28.4611 76.9329 28.1451C76.9329 27.8291 76.6696 27.8291 76.3009 27.8291C75.9322 27.8291 75.6162 27.9871 75.6162 28.1451Z" fill="url(#paint59_linear_78_172831)"/>
<path style="mix-blend-mode:multiply" opacity="0.83" d="M72.246 25.5644C72.246 25.5644 72.246 26.0384 72.7727 26.3018C73.2993 26.5651 73.6153 26.5651 73.7207 26.3018C73.826 26.0384 73.7207 25.8278 73.1413 25.6171C72.562 25.4064 72.2986 25.3011 72.246 25.5644Z" fill="url(#paint60_linear_78_172831)"/>
<path style="mix-blend-mode:screen" d="M7.20013 46.6843C7.20013 43.5242 9.62287 43.1555 11.7296 43.7348C11.7823 45.1042 10.6762 46.3683 7.20013 46.6843Z" fill="url(#paint61_radial_78_172831)"/>
<path style="mix-blend-mode:screen" opacity="0.38" d="M31.0067 10.2379C32.7975 7.70983 41.5404 4.9711 50.02 3.33839C55.0283 1.78206 60.4065 1.89293 65.3464 3.65438C72.8253 7.97318 70.6132 16.7688 76.2487 20.4556C78.6715 25.2484 73.0886 21.9829 72.1933 21.0349C71.2979 20.0869 67.4531 10.5012 60.2376 8.23651C49.5986 4.6024 41.8037 8.39452 31.0067 10.2379Z" fill="url(#paint62_linear_78_172831)"/>
<path style="mix-blend-mode:screen" opacity="0.77" d="M16.944 43.0504C16.944 45.6838 15.8379 50.8453 13.2045 49.6339C15.8379 48.7912 16.8913 44.4198 16.944 43.0504Z" fill="url(#paint63_linear_78_172831)"/>
<path d="M18.577 24.5636C19.0404 24.5809 19.4959 24.6893 19.9174 24.8826C20.3389 25.0759 20.7182 25.3504 21.0336 25.6903C21.3491 26.0302 21.5945 26.4289 21.7559 26.8636C21.9172 27.2984 21.9914 27.7606 21.9741 28.224C21.9568 28.6874 21.8484 29.1429 21.6551 29.5644C21.4618 29.9859 21.1873 30.3652 20.8474 30.6807C20.5075 30.9961 20.1088 31.2415 19.6741 31.4029C19.2393 31.5643 18.7771 31.6384 18.3137 31.6211C17.4195 31.5277 16.5962 31.0915 16.0168 30.4041C15.4374 29.7166 15.1469 28.8315 15.2062 27.9344C15.2062 27.0404 15.5614 26.183 16.1935 25.5509C16.8256 24.9187 17.683 24.5636 18.577 24.5636Z" fill="black"/>
<path d="M18.5763 24.9327C19.0053 24.953 19.4261 25.0577 19.8146 25.2408C20.203 25.4239 20.5516 25.6818 20.8402 25.9998C21.1289 26.3178 21.352 26.6896 21.4967 27.094C21.6415 27.4983 21.705 27.9272 21.6838 28.3562C21.6564 29.2318 21.2892 30.0623 20.66 30.6718C20.0308 31.2814 19.189 31.622 18.313 31.6216C17.4985 31.4917 16.7598 31.0677 16.2369 30.4298C15.714 29.7919 15.4431 28.9845 15.4756 28.1603C15.508 27.3361 15.8415 26.5524 16.413 25.9576C16.9844 25.3628 17.7541 24.9982 18.5763 24.9327Z" fill="url(#paint64_radial_78_172831)"/>
<path style="mix-blend-mode:screen" opacity="0.9" d="M17.0496 25.8801C17.0481 25.966 17.0658 26.051 17.1013 26.1292C17.1367 26.2073 17.1891 26.2766 17.2546 26.3321C17.3201 26.3875 17.3972 26.4277 17.4801 26.4497C17.5631 26.4718 17.6499 26.4751 17.7343 26.4595C17.8174 26.4529 17.8983 26.4298 17.9725 26.3918C18.0467 26.3537 18.1126 26.3014 18.1664 26.2377C18.2203 26.1741 18.261 26.1004 18.2863 26.021C18.3115 25.9415 18.3208 25.8579 18.3136 25.7748C18.2605 25.636 18.1668 25.5165 18.0446 25.4319C17.9224 25.3473 17.7775 25.3016 17.6289 25.3008C17.4793 25.3128 17.3388 25.3777 17.2327 25.4839C17.1265 25.59 17.0616 25.7305 17.0496 25.8801Z" fill="url(#paint65_radial_78_172831)"/>
<path d="M18.4188 31.6739C17.9773 31.6588 17.5436 31.5528 17.1448 31.3625C16.7461 31.1722 16.3909 30.9017 16.1014 30.5679C15.4771 29.8754 15.1384 28.972 15.1534 28.0398C15.181 27.155 15.5554 26.3166 16.196 25.7056C16.8365 25.0946 17.6917 24.7601 18.5768 24.7744C19.4415 24.8115 20.2561 25.1903 20.8416 25.8277C21.1477 26.1494 21.385 26.5302 21.539 26.9468C21.6929 27.3634 21.7603 27.807 21.7369 28.2505C21.7439 28.6931 21.6636 29.1328 21.5006 29.5445C21.3376 29.9561 21.0951 30.3316 20.787 30.6495C20.4789 30.9674 20.1112 31.2215 19.7048 31.3973C19.2985 31.573 18.8615 31.667 18.4188 31.6739ZM18.4188 24.985C17.5759 24.9988 16.7722 25.3434 16.181 25.9444C15.5899 26.5455 15.2586 27.3548 15.2587 28.1978C15.2297 28.6339 15.2947 29.0712 15.4491 29.48C15.6036 29.8889 15.844 30.2599 16.1541 30.5679C16.4252 30.8572 16.751 31.0899 17.1126 31.2526C17.4742 31.4153 17.8645 31.5048 18.2608 31.5159C18.8583 31.4876 19.4366 31.2957 19.9325 30.9611C20.4284 30.6266 20.8228 30.1622 21.0728 29.6188C21.3228 29.0753 21.4187 28.4736 21.3501 27.8794C21.2814 27.2852 21.0509 26.7212 20.6836 26.2491C20.4135 25.9366 20.0829 25.6822 19.7118 25.5012C19.3406 25.3201 18.9366 25.2162 18.5242 25.1957L18.4188 24.985Z" fill="black"/>
<path d="M18.5769 26.2495C18.895 26.2487 19.2098 26.3135 19.5018 26.4397C19.7938 26.5659 20.0567 26.7509 20.274 26.9831C20.4914 27.2153 20.6587 27.4898 20.7654 27.7895C20.8721 28.0891 20.916 28.4075 20.8943 28.7249C20.8537 29.3628 20.5678 29.9604 20.0966 30.3923C19.6254 30.8243 19.0053 31.0572 18.3662 31.0423C18.0217 31.0935 17.6703 31.0698 17.3358 30.9729C17.0012 30.876 16.6916 30.7081 16.4278 30.4807C16.1641 30.2532 15.9524 29.9716 15.8074 29.655C15.6623 29.3383 15.5872 28.9941 15.5872 28.6459C15.5872 28.2976 15.6623 27.9534 15.8074 27.6368C15.9524 27.3202 16.1641 27.0386 16.4278 26.8111C16.6916 26.5837 17.0012 26.4158 17.3358 26.3189C17.6703 26.2219 18.0217 26.1983 18.3662 26.2495H18.5769Z" fill="url(#paint66_radial_78_172831)"/>
<path d="M18.5244 26.9863C18.7816 26.9417 19.0455 26.9539 19.2975 27.022C19.5495 27.0901 19.7836 27.2125 19.9833 27.3805C20.1831 27.5486 20.3437 27.7584 20.4538 27.995C20.564 28.2317 20.6211 28.4896 20.6211 28.7507C20.6211 29.0117 20.564 29.2697 20.4538 29.5063C20.3437 29.743 20.1831 29.9527 19.9833 30.1208C19.7836 30.2889 19.5495 30.4113 19.2975 30.4794C19.0455 30.5475 18.7816 30.5597 18.5244 30.5151C18.2706 30.5542 18.0113 30.5366 17.7651 30.4636C17.5189 30.3905 17.292 30.2638 17.1006 30.0926C16.9092 29.9213 16.7582 29.7098 16.6583 29.4733C16.5584 29.2367 16.5122 28.9809 16.523 28.7244C16.5362 28.4774 16.5989 28.2356 16.7075 28.0133C16.8161 27.7911 16.9683 27.593 17.1551 27.4309C17.3418 27.2687 17.5593 27.1457 17.7945 27.0694C18.0298 26.993 18.278 26.9647 18.5244 26.9863Z" fill="black"/>
<path style="mix-blend-mode:screen" opacity="0.5" d="M20.0513 28.7247C20.0066 28.8399 19.9263 28.9378 19.8221 29.0041C19.7179 29.0705 19.5952 29.1017 19.4719 29.0934C19.3462 29.0934 19.2256 29.0434 19.1367 28.9545C19.0478 28.8656 18.9979 28.7451 18.9979 28.6194C18.9979 28.4937 19.0478 28.3731 19.1367 28.2842C19.2256 28.1953 19.3462 28.1454 19.4719 28.1454C19.5521 28.1242 19.6364 28.1244 19.7165 28.146C19.7965 28.1676 19.8695 28.2098 19.9281 28.2685C19.9868 28.3271 20.029 28.4001 20.0506 28.4802C20.0722 28.5602 20.0724 28.6445 20.0513 28.7247Z" fill="url(#paint67_radial_78_172831)"/>
<path style="mix-blend-mode:screen" d="M17.5757 26.618C16.891 26.9867 16.5223 27.6187 16.733 27.9874C16.9437 28.3561 17.6284 28.3561 18.3131 27.9874C18.9977 27.6187 19.3137 27.0394 19.1557 26.6707C18.9977 26.302 18.2077 26.2494 17.5757 26.618Z" fill="url(#paint68_linear_78_172831)"/>
<path style="mix-blend-mode:screen" opacity="0.21" d="M31.691 36.467C32.007 33.8335 36.9578 25.3013 39.1699 25.038C43.2253 26.4073 45.0687 30.6734 44.4367 36.7303C41.0337 38.7815 37.139 39.8734 33.1657 39.8904C33.3516 39.2372 33.3064 38.5399 33.0377 37.9162C32.769 37.2925 32.2933 36.7806 31.691 36.467Z" fill="url(#paint69_linear_78_172831)"/>
<path style="mix-blend-mode:screen" opacity="0.69" d="M1.51226 41.1018C0.616897 39.5744 1.51226 38.2577 4.40901 37.6257C6.24853 37.144 8.18032 37.1378 10.0229 37.6076C11.8655 38.0775 13.5584 39.008 14.9426 40.3118C13.5206 41.3651 11.5719 42.2605 10.4132 41.6812C9.58276 40.8895 8.59669 40.2793 7.51768 39.8894C6.43866 39.4995 5.29031 39.3385 4.14567 39.4164C1.72293 39.6271 1.67026 40.3118 1.51226 41.1018Z" fill="url(#paint70_linear_78_172831)"/>
<path style="mix-blend-mode:screen" opacity="0.69" d="M10.5182 39.2582C7.3581 36.7301 1.98595 36.7301 1.51193 39.6795C2.98664 37.5201 6.35741 37.4148 10.5182 39.2582Z" fill="url(#paint71_linear_78_172831)"/>
<path style="mix-blend-mode:screen" opacity="0.52" d="M28.5841 58.6401C27.0567 60.1675 24.8446 66.277 26.7934 68.6998C26.1182 65.2405 26.7567 61.6539 28.5841 58.6401Z" fill="url(#paint72_linear_78_172831)"/>
<path style="mix-blend-mode:screen" opacity="0.21" d="M32.3234 35.8344C33.3768 33.4644 37.5902 25.3008 40.2763 26.3542C42.9624 27.4075 43.9631 29.5669 43.8051 32.8324C39.381 30.5676 36.3262 31.8843 32.3234 35.8344Z" fill="url(#paint73_linear_78_172831)"/>
<path style="mix-blend-mode:screen" opacity="0.52" d="M30.9542 58.1663C31.8495 62.7484 37.485 72.3867 42.3305 70.1219C36.063 69.2792 32.3235 61.8004 30.9542 58.1663Z" fill="url(#paint74_linear_78_172831)"/>
<path style="mix-blend-mode:screen" opacity="0.77" d="M79.9877 28.461C82.6211 25.0902 96.1042 17.5587 100.107 18.7701C99.8057 21.3481 98.9037 23.8196 97.4735 25.9856C93.7341 23.1415 82.5684 26.8283 79.9877 28.461Z" fill="url(#paint75_linear_78_172831)"/>
<defs>
<linearGradient id="paint0_linear_78_172831" x1="83.6218" y1="17.9276" x2="108.218" y2="42.155" gradientUnits="userSpaceOnUse">
<stop stop-color="#FBEF07"/>
<stop offset="0.97" stop-color="#DFA901"/>
</linearGradient>
<linearGradient id="paint1_linear_78_172831" x1="77.7229" y1="28.8826" x2="104.215" y2="28.8826" gradientUnits="userSpaceOnUse">
<stop stop-color="#FDF762"/>
<stop offset="0.45" stop-color="#FBF207"/>
<stop offset="1" stop-color="#F9CB0B"/>
</linearGradient>
<linearGradient id="paint2_linear_78_172831" x1="74.5629" y1="31.3579" x2="101.055" y2="31.3579" gradientUnits="userSpaceOnUse">
<stop stop-color="white"/>
<stop offset="1"/>
</linearGradient>
<linearGradient id="paint3_linear_78_172831" x1="89.0997" y1="21.7721" x2="94.8932" y2="40.364" gradientUnits="userSpaceOnUse">
<stop stop-color="#B0B8C8"/>
<stop offset="0.33" stop-color="#939AA7"/>
<stop offset="1"/>
</linearGradient>
<radialGradient id="paint4_radial_78_172831" cx="0" cy="0" r="1" gradientUnits="userSpaceOnUse" gradientTransform="translate(54.6018 44.6302) scale(31.8116 31.8116)">
<stop stop-color="#0A86E2"/>
<stop offset="0.49" stop-color="#0A42E2"/>
<stop offset="0.87" stop-color="#03123F"/>
</radialGradient>
<linearGradient id="paint5_linear_78_172831" x1="23.3171" y1="38.9423" x2="106.322" y2="57.3761" gradientUnits="userSpaceOnUse">
<stop offset="0.09" stop-color="#0AA4E2"/>
<stop offset="0.59" stop-color="#0A42E2"/>
<stop offset="1" stop-color="#03123F"/>
</linearGradient>
<radialGradient id="paint6_radial_78_172831" cx="0" cy="0" r="1" gradientUnits="userSpaceOnUse" gradientTransform="translate(47.0175 12.2396) scale(50.4561 50.4561)">
<stop stop-color="#0A86E2"/>
<stop offset="0.49" stop-color="#0A42E2"/>
<stop offset="0.87" stop-color="#03123F"/>
</radialGradient>
<linearGradient id="paint7_linear_78_172831" x1="30.4797" y1="6.60406" x2="113.485" y2="25.0379" gradientUnits="userSpaceOnUse">
<stop offset="0.09" stop-color="#0AA4E2"/>
<stop offset="0.59" stop-color="#0A42E2"/>
<stop offset="1" stop-color="#03123F"/>
</linearGradient>
<radialGradient id="paint8_radial_78_172831" cx="0" cy="0" r="1" gradientUnits="userSpaceOnUse" gradientTransform="translate(11.6439 28.9092) scale(3.35128 3.35128)">
<stop stop-color="white"/>
<stop offset="0.54" stop-color="#ECECEC"/>
<stop offset="0.66" stop-color="#E9E9EA"/>
<stop offset="0.73" stop-color="#E1E1E2"/>
<stop offset="0.8" stop-color="#D2D2D6"/>
<stop offset="0.85" stop-color="#BDBDC4"/>
<stop offset="0.91" stop-color="#A2A2AD"/>
<stop offset="0.94" stop-color="#8C8C9A"/>
<stop offset="1" stop-color="#C5C5C5"/>
</radialGradient>
<radialGradient id="paint9_radial_78_172831" cx="0" cy="0" r="1" gradientUnits="userSpaceOnUse" gradientTransform="translate(12.3907 19.5649) rotate(173.991) scale(0.603735 0.603736)">
<stop stop-color="white"/>
<stop offset="0.04" stop-color="#EDEDED"/>
<stop offset="0.19" stop-color="#AFAFAF"/>
<stop offset="0.34" stop-color="#7A7A7A"/>
<stop offset="0.49" stop-color="#4E4E4E"/>
<stop offset="0.63" stop-color="#2C2C2C"/>
<stop offset="0.76" stop-color="#141414"/>
<stop offset="0.88" stop-color="#050505"/>
<stop offset="0.98"/>
</radialGradient>
<radialGradient id="paint10_radial_78_172831" cx="0" cy="0" r="1" gradientUnits="userSpaceOnUse" gradientTransform="translate(19.0503 21.3033) rotate(8.9726) scale(0.445761 0.449374)">
<stop stop-color="white"/>
<stop offset="0.22" stop-color="#B3B3B3"/>
<stop offset="0.62" stop-color="#333333"/>
<stop offset="0.79"/>
<stop offset="1"/>
</radialGradient>
<radialGradient id="paint11_radial_78_172831" cx="0" cy="0" r="1" gradientUnits="userSpaceOnUse" gradientTransform="translate(-1.17255 30.7328) scale(3.61673 4.65008)">
<stop stop-color="#FFE100"/>
<stop offset="0.53" stop-color="#FF7900"/>
<stop offset="0.63" stop-color="#FA6C00"/>
<stop offset="0.83" stop-color="#EE4B00"/>
<stop offset="1" stop-color="#E22A00"/>
</radialGradient>
<linearGradient id="paint12_linear_78_172831" x1="7.3229" y1="26.3291" x2="7.97588" y2="27.6313" gradientUnits="userSpaceOnUse">
<stop stop-color="#B9B9B9"/>
<stop offset="0.04" stop-color="#ADADAD"/>
<stop offset="0.33" stop-color="#646464"/>
<stop offset="0.57" stop-color="#2E2E2E"/>
<stop offset="0.75" stop-color="#0D0D0D"/>
<stop offset="0.85"/>
<stop offset="0.98"/>
</linearGradient>
<radialGradient id="paint13_radial_78_172831" cx="0" cy="0" r="1" gradientUnits="userSpaceOnUse" gradientTransform="translate(23.8962 64.2754) scale(38.1845 38.1845)">
<stop stop-color="#0A86E2"/>
<stop offset="0.49" stop-color="#0A42E2"/>
<stop offset="0.87" stop-color="#03123F"/>
</radialGradient>
<linearGradient id="paint14_linear_78_172831" x1="23.4749" y1="63.222" x2="59.2893" y2="62.6427" gradientUnits="userSpaceOnUse">
<stop offset="0.09" stop-color="#0AA4E2"/>
<stop offset="0.59" stop-color="#0A42E2"/>
<stop offset="1" stop-color="#03123F"/>
</linearGradient>
<linearGradient id="paint15_linear_78_172831" x1="25.6869" y1="62.8007" x2="34.4298" y2="62.8007" gradientUnits="userSpaceOnUse">
<stop stop-color="white"/>
<stop offset="1"/>
</linearGradient>
<radialGradient id="paint16_radial_78_172831" cx="0" cy="0" r="1" gradientUnits="userSpaceOnUse" gradientTransform="translate(27.9519 11.5545) scale(51.0355 51.0355)">
<stop stop-color="#0437B9"/>
<stop offset="1" stop-color="#002882"/>
</radialGradient>
<radialGradient id="paint17_radial_78_172831" cx="0" cy="0" r="1" gradientUnits="userSpaceOnUse" gradientTransform="translate(29.3213 12.1339) scale(48.5074 48.5074)">
<stop stop-color="#0A5EF6"/>
<stop offset="1" stop-color="#002FA0"/>
</radialGradient>
<linearGradient id="paint18_linear_78_172831" x1="39.6969" y1="12.0288" x2="41.2243" y2="37.8889" gradientUnits="userSpaceOnUse">
<stop stop-color="white"/>
<stop offset="1"/>
</linearGradient>
<radialGradient id="paint19_radial_78_172831" cx="0" cy="0" r="1" gradientUnits="userSpaceOnUse" gradientTransform="translate(44.2982 37.4679) rotate(1.99) scale(21.4886)">
<stop stop-color="#898989"/>
<stop offset="1"/>
</radialGradient>
<radialGradient id="paint20_radial_78_172831" cx="0" cy="0" r="1" gradientUnits="userSpaceOnUse" gradientTransform="translate(27.9521 11.5546) scale(51.0355 51.0355)">
<stop stop-color="#0437B9"/>
<stop offset="1" stop-color="#002882"/>
</radialGradient>
<radialGradient id="paint21_radial_78_172831" cx="0" cy="0" r="1" gradientUnits="userSpaceOnUse" gradientTransform="translate(29.3215 12.1339) scale(48.5074 48.5075)">
<stop stop-color="#0A5EF6"/>
<stop offset="1" stop-color="#002FA0"/>
</radialGradient>
<radialGradient id="paint22_radial_78_172831" cx="0" cy="0" r="1" gradientUnits="userSpaceOnUse" gradientTransform="translate(29.3212 12.1341) scale(48.5074 48.5074)">
<stop stop-color="#0A5EF6"/>
<stop offset="1" stop-color="#002FA0"/>
</radialGradient>
<linearGradient id="paint23_linear_78_172831" x1="4.40921" y1="47.0535" x2="12.8361" y2="47.0535" gradientUnits="userSpaceOnUse">
<stop stop-color="#0A5EF6"/>
<stop offset="1"/>
</linearGradient>
<radialGradient id="paint24_radial_78_172831" cx="0" cy="0" r="1" gradientUnits="userSpaceOnUse" gradientTransform="translate(11.1504 42.5762) scale(5.26682 5.26682)">
<stop stop-color="#150000"/>
<stop offset="0.97" stop-color="#3A0000"/>
</radialGradient>
<radialGradient id="paint25_radial_78_172831" cx="0" cy="0" r="1" gradientUnits="userSpaceOnUse" gradientTransform="translate(13.7312 42.0497) scale(2.3174 2.3174)">
<stop stop-color="#180000"/>
<stop offset="1" stop-color="#970000"/>
</radialGradient>
<radialGradient id="paint26_radial_78_172831" cx="0" cy="0" r="1" gradientUnits="userSpaceOnUse" gradientTransform="translate(8.5697 42.6288) scale(5.10882 5.10881)">
<stop stop-color="#180000"/>
<stop offset="1" stop-color="#970000"/>
</radialGradient>
<radialGradient id="paint27_radial_78_172831" cx="0" cy="0" r="1" gradientUnits="userSpaceOnUse" gradientTransform="translate(3.61907 45.7891) scale(4.31879 4.3188)">
<stop stop-color="#F5B8B8"/>
<stop offset="0.03" stop-color="#E6ADAD"/>
<stop offset="0.15" stop-color="#AA8080"/>
<stop offset="0.27" stop-color="#765959"/>
<stop offset="0.39" stop-color="#4C3939"/>
<stop offset="0.5" stop-color="#2B2020"/>
<stop offset="0.61" stop-color="#130E0E"/>
<stop offset="0.71" stop-color="#050404"/>
<stop offset="0.79"/>
<stop offset="1"/>
</radialGradient>
<radialGradient id="paint28_radial_78_172831" cx="0" cy="0" r="1" gradientUnits="userSpaceOnUse" gradientTransform="translate(23.8967 64.2753) scale(38.1844 38.1845)">
<stop stop-color="#0A86E2"/>
<stop offset="0.49" stop-color="#0A42E2"/>
<stop offset="0.87" stop-color="#03123F"/>
</radialGradient>
<linearGradient id="paint29_linear_78_172831" x1="23.5279" y1="64.5386" x2="59.2896" y2="63.9593" gradientUnits="userSpaceOnUse">
<stop offset="0.09" stop-color="#0AA4E2"/>
<stop offset="0.59" stop-color="#0A42E2"/>
<stop offset="1" stop-color="#03123F"/>
</linearGradient>
<linearGradient id="paint30_linear_78_172831" x1="29.9007" y1="64.1173" x2="44.3318" y2="64.1173" gradientUnits="userSpaceOnUse">
<stop stop-color="white"/>
<stop offset="1"/>
</linearGradient>
<linearGradient id="paint31_linear_78_172831" x1="18.7347" y1="21.7201" x2="19.4194" y2="32.833" gradientUnits="userSpaceOnUse">
<stop stop-color="#0A5EF6"/>
<stop offset="1"/>
</linearGradient>
<radialGradient id="paint32_radial_78_172831" cx="0" cy="0" r="1" gradientUnits="userSpaceOnUse" gradientTransform="translate(30.6902 30.3575) scale(24.4907 24.4907)">
<stop stop-color="#0A86E2"/>
<stop offset="0.49" stop-color="#0A42E2"/>
<stop offset="0.87" stop-color="#03123F"/>
</radialGradient>
<linearGradient id="paint33_linear_78_172831" x1="29.2681" y1="24.7746" x2="55.5496" y2="37.6256" gradientUnits="userSpaceOnUse">
<stop offset="0.09" stop-color="#0AA4E2"/>
<stop offset="0.59" stop-color="#0A42E2"/>
<stop offset="1" stop-color="#03123F"/>
</linearGradient>
<linearGradient id="paint34_linear_78_172831" x1="39.486" y1="22.6152" x2="50.0196" y2="34.0442" gradientUnits="userSpaceOnUse">
<stop stop-color="#FBEF07"/>
<stop offset="0.97" stop-color="#DFA901"/>
</linearGradient>
<linearGradient id="paint35_linear_78_172831" x1="37.9588" y1="22.1412" x2="56.024" y2="35.9403" gradientUnits="userSpaceOnUse">
<stop offset="0.01" stop-color="#FEFBB6"/>
<stop offset="0.49" stop-color="#FBF207"/>
<stop offset="0.92" stop-color="#F9CB0B"/>
</linearGradient>
<linearGradient id="paint36_linear_78_172831" x1="40.276" y1="28.7244" x2="49.7036" y2="26.091" gradientUnits="userSpaceOnUse">
<stop stop-color="#B0B8C8"/>
<stop offset="0.33" stop-color="#939AA7"/>
<stop offset="1"/>
</linearGradient>
<radialGradient id="paint37_radial_78_172831" cx="0" cy="0" r="1" gradientUnits="userSpaceOnUse" gradientTransform="translate(28.4255 12.1871) scale(47.5594 47.5593)">
<stop stop-color="#0A5EF6"/>
<stop offset="1" stop-color="#002FA0"/>
</radialGradient>
<linearGradient id="paint38_linear_78_172831" x1="35.536" y1="12.5555" x2="37.7481" y2="24.3005" gradientUnits="userSpaceOnUse">
<stop stop-color="#B0B8C8"/>
<stop offset="0.33" stop-color="#939AA7"/>
<stop offset="1"/>
</linearGradient>
<linearGradient id="paint39_linear_78_172831" x1="24.0661" y1="13.5012" x2="57.5457" y2="29.1582" gradientUnits="userSpaceOnUse">
<stop stop-color="#7FD6FF"/>
<stop offset="1" stop-color="#2963C2"/>
</linearGradient>
<linearGradient id="paint40_linear_78_172831" x1="20.9919" y1="12.1278" x2="55.0636" y2="27.0677" gradientUnits="userSpaceOnUse">
<stop stop-color="#7FD6FF"/>
<stop offset="1" stop-color="#2963C2"/>
</linearGradient>
<linearGradient id="paint41_linear_78_172831" x1="27.2144" y1="6.28796" x2="79.9347" y2="50.6347" gradientUnits="userSpaceOnUse">
<stop stop-color="#7FD6FF"/>
<stop offset="1" stop-color="#2963C2"/>
</linearGradient>
<linearGradient id="paint42_linear_78_172831" x1="64.4132" y1="15.5011" x2="107.339" y2="69.3863" gradientUnits="userSpaceOnUse">
<stop stop-color="#7FD6FF"/>
<stop offset="1" stop-color="#2963C2"/>
</linearGradient>
<linearGradient id="paint43_linear_78_172831" x1="65.0084" y1="13.5579" x2="99.0442" y2="73.6958" gradientUnits="userSpaceOnUse">
<stop stop-color="#7FD6FF"/>
<stop offset="1" stop-color="#2963C2"/>
</linearGradient>
<linearGradient id="paint44_linear_78_172831" x1="25.3133" y1="13.1538" x2="61.796" y2="42.9944" gradientUnits="userSpaceOnUse">
<stop stop-color="#7FD6FF"/>
<stop offset="1" stop-color="#2963C2"/>
</linearGradient>
<linearGradient id="paint45_linear_78_172831" x1="17.4996" y1="14.4963" x2="56.8589" y2="41.1877" gradientUnits="userSpaceOnUse">
<stop stop-color="#7FD6FF"/>
<stop offset="1" stop-color="#2963C2"/>
</linearGradient>
<linearGradient id="paint46_linear_78_172831" x1="31.0242" y1="3.56139" x2="59.2529" y2="28.2619" gradientUnits="userSpaceOnUse">
<stop stop-color="#7FD6FF"/>
<stop offset="1" stop-color="#2963C2"/>
</linearGradient>
<linearGradient id="paint47_linear_78_172831" x1="34.8506" y1="3.46633" x2="63.1057" y2="28.166" gradientUnits="userSpaceOnUse">
<stop stop-color="#7FD6FF"/>
<stop offset="1" stop-color="#2963C2"/>
</linearGradient>
<linearGradient id="paint48_linear_78_172831" x1="21.9427" y1="4.06087" x2="51.9764" y2="25.8985" gradientUnits="userSpaceOnUse">
<stop stop-color="#7FD6FF"/>
<stop offset="1" stop-color="#2963C2"/>
</linearGradient>
<linearGradient id="paint49_linear_78_172831" x1="24.8997" y1="0.602973" x2="75.4491" y2="47.4103" gradientUnits="userSpaceOnUse">
<stop stop-color="#7FD6FF"/>
<stop offset="1" stop-color="#2963C2"/>
</linearGradient>
<linearGradient id="paint50_linear_78_172831" x1="33.2618" y1="-0.052418" x2="83.8103" y2="46.7549" gradientUnits="userSpaceOnUse">
<stop stop-color="#7FD6FF"/>
<stop offset="1" stop-color="#2963C2"/>
</linearGradient>
<linearGradient id="paint51_linear_78_172831" x1="28.8958" y1="0.846323" x2="79.4448" y2="47.6537" gradientUnits="userSpaceOnUse">
<stop stop-color="#7FD6FF"/>
<stop offset="1" stop-color="#2963C2"/>
</linearGradient>
<linearGradient id="paint52_linear_78_172831" x1="7.8746" y1="6.13964" x2="68.4068" y2="39.0325" gradientUnits="userSpaceOnUse">
<stop stop-color="#7FD6FF"/>
<stop offset="1" stop-color="#2963C2"/>
</linearGradient>
<linearGradient id="paint53_linear_78_172831" x1="15.5045" y1="1.83337" x2="47.0353" y2="36.4308" gradientUnits="userSpaceOnUse">
<stop stop-color="#7FD6FF"/>
<stop offset="1" stop-color="#2963C2"/>
</linearGradient>
<linearGradient id="paint54_linear_78_172831" x1="76.3865" y1="5.16463" x2="41.9238" y2="18.4641" gradientUnits="userSpaceOnUse">
<stop stop-color="#7FD6FF"/>
<stop offset="1" stop-color="#2963C2"/>
</linearGradient>
<linearGradient id="paint55_linear_78_172831" x1="68.1399" y1="2.67774" x2="34.0245" y2="16.5168" gradientUnits="userSpaceOnUse">
<stop stop-color="#7FD6FF"/>
<stop offset="1" stop-color="#2963C2"/>
</linearGradient>
<linearGradient id="paint56_linear_78_172831" x1="94.9511" y1="12.1296" x2="29.1526" y2="32.3672" gradientUnits="userSpaceOnUse">
<stop stop-color="#7FD6FF"/>
<stop offset="1" stop-color="#2963C2"/>
</linearGradient>
<linearGradient id="paint57_linear_78_172831" x1="75.77" y1="1.01774" x2="16.4812" y2="36.4856" gradientUnits="userSpaceOnUse">
<stop stop-color="#7FD6FF"/>
<stop offset="1" stop-color="#2963C2"/>
</linearGradient>
<linearGradient id="paint58_linear_78_172831" x1="82.4079" y1="9.14678" x2="19.3788" y2="36.9575" gradientUnits="userSpaceOnUse">
<stop stop-color="#7FD6FF"/>
<stop offset="1" stop-color="#2963C2"/>
</linearGradient>
<linearGradient id="paint59_linear_78_172831" x1="92.2594" y1="13.9248" x2="39.5915" y2="58.2715" gradientUnits="userSpaceOnUse">
<stop stop-color="#7FD6FF"/>
<stop offset="1" stop-color="#2963C2"/>
</linearGradient>
<linearGradient id="paint60_linear_78_172831" x1="88.6489" y1="21.4921" x2="21.052" y2="34.2405" gradientUnits="userSpaceOnUse">
<stop stop-color="#7FD6FF"/>
<stop offset="1" stop-color="#2963C2"/>
</linearGradient>
<radialGradient id="paint61_radial_78_172831" cx="0" cy="0" r="1" gradientUnits="userSpaceOnUse" gradientTransform="translate(6.93679 46.1576) scale(4.79281 4.79282)">
<stop stop-color="#F5B8B8"/>
<stop offset="0.03" stop-color="#E6ADAD"/>
<stop offset="0.15" stop-color="#AA8080"/>
<stop offset="0.27" stop-color="#765959"/>
<stop offset="0.39" stop-color="#4C3939"/>
<stop offset="0.5" stop-color="#2B2020"/>
<stop offset="0.61" stop-color="#130E0E"/>
<stop offset="0.71" stop-color="#050404"/>
<stop offset="0.79"/>
<stop offset="1"/>
</radialGradient>
<linearGradient id="paint62_linear_78_172831" x1="43.3838" y1="3.23304" x2="64.135" y2="19.0335" gradientUnits="userSpaceOnUse">
<stop stop-color="white"/>
<stop offset="1"/>
</linearGradient>
<linearGradient id="paint63_linear_78_172831" x1="14.7319" y1="40.891" x2="15.5219" y2="53.6894" gradientUnits="userSpaceOnUse">
<stop stop-color="#0A5EF6"/>
<stop offset="1"/>
</linearGradient>
<radialGradient id="paint64_radial_78_172831" cx="0" cy="0" r="1" gradientUnits="userSpaceOnUse" gradientTransform="translate(9.48685 27.6836) scale(3.35128 3.35128)">
<stop stop-color="white"/>
<stop offset="0.54" stop-color="#ECECEC"/>
<stop offset="0.66" stop-color="#E9E9EA"/>
<stop offset="0.73" stop-color="#E1E1E2"/>
<stop offset="0.8" stop-color="#D2D2D6"/>
<stop offset="0.85" stop-color="#BDBDC4"/>
<stop offset="0.91" stop-color="#A2A2AD"/>
<stop offset="0.94" stop-color="#8C8C9A"/>
<stop offset="1" stop-color="#C5C5C5"/>
</radialGradient>
<radialGradient id="paint65_radial_78_172831" cx="0" cy="0" r="1" gradientUnits="userSpaceOnUse" gradientTransform="translate(19.7367 21.4528) rotate(174.289) scale(0.635171 0.635175)">
<stop stop-color="white"/>
<stop offset="0.04" stop-color="#EDEDED"/>
<stop offset="0.19" stop-color="#AFAFAF"/>
<stop offset="0.34" stop-color="#7A7A7A"/>
<stop offset="0.49" stop-color="#4E4E4E"/>
<stop offset="0.63" stop-color="#2C2C2C"/>
<stop offset="0.76" stop-color="#141414"/>
<stop offset="0.88" stop-color="#050505"/>
<stop offset="0.98"/>
</radialGradient>
<radialGradient id="paint66_radial_78_172831" cx="0" cy="0" r="1" gradientUnits="userSpaceOnUse" gradientTransform="translate(9.75287 30.3903) scale(4.65007)">
<stop stop-color="#FFE100"/>
<stop offset="0.53" stop-color="#FF7900"/>
<stop offset="0.63" stop-color="#FA6C00"/>
<stop offset="0.83" stop-color="#EE4B00"/>
<stop offset="1" stop-color="#E22A00"/>
</radialGradient>
<radialGradient id="paint67_radial_78_172831" cx="0" cy="0" r="1" gradientUnits="userSpaceOnUse" gradientTransform="translate(25.4234 30.4312) rotate(11.31) scale(0.472659 0.472662)">
<stop stop-color="white"/>
<stop offset="0.22" stop-color="#B3B3B3"/>
<stop offset="0.62" stop-color="#333333"/>
<stop offset="0.79"/>
<stop offset="1"/>
</radialGradient>
<linearGradient id="paint68_linear_78_172831" x1="17.5674" y1="26.5982" x2="18.2588" y2="27.9642" gradientUnits="userSpaceOnUse">
<stop stop-color="#B9B9B9"/>
<stop offset="0.04" stop-color="#ADADAD"/>
<stop offset="0.33" stop-color="#646464"/>
<stop offset="0.57" stop-color="#2E2E2E"/>
<stop offset="0.75" stop-color="#0D0D0D"/>
<stop offset="0.85"/>
<stop offset="0.98"/>
</linearGradient>
<linearGradient id="paint69_linear_78_172831" x1="31.691" y1="32.4642" x2="44.7" y2="32.4642" gradientUnits="userSpaceOnUse">
<stop stop-color="white"/>
<stop offset="1"/>
</linearGradient>
<linearGradient id="paint70_linear_78_172831" x1="1.19625" y1="39.4164" x2="14.8373" y2="39.4164" gradientUnits="userSpaceOnUse">
<stop stop-color="#0A5EF6"/>
<stop offset="1"/>
</linearGradient>
<linearGradient id="paint71_linear_78_172831" x1="1.51193" y1="38.5208" x2="10.5182" y2="38.5208" gradientUnits="userSpaceOnUse">
<stop stop-color="#0A5EF6"/>
<stop offset="1"/>
</linearGradient>
<linearGradient id="paint72_linear_78_172831" x1="6.09476" y1="45.5258" x2="66.5052" y2="96.2979" gradientUnits="userSpaceOnUse">
<stop stop-color="white"/>
<stop offset="1"/>
</linearGradient>
<linearGradient id="paint73_linear_78_172831" x1="34.9042" y1="29.1983" x2="40.6977" y2="35.4658" gradientUnits="userSpaceOnUse">
<stop stop-color="white"/>
<stop offset="1"/>
</linearGradient>
<linearGradient id="paint74_linear_78_172831" x1="26.3194" y1="48.528" x2="45.0165" y2="78.6015" gradientUnits="userSpaceOnUse">
<stop stop-color="white"/>
<stop offset="1"/>
</linearGradient>
<linearGradient id="paint75_linear_78_172831" x1="80.3037" y1="23.4575" x2="112.221" y2="23.8262" gradientUnits="userSpaceOnUse">
<stop stop-color="#B0B8C8"/>
<stop offset="0.33" stop-color="#939AA7"/>
<stop offset="1"/>
</linearGradient>
</defs>
</svg>
