<svg width="87" height="58" viewBox="0 0 87 58" fill="none" xmlns="http://www.w3.org/2000/svg">
<path d="M51.2111 13.6164C50.4407 13.6164 46.5886 5.61259 48.643 2.87331C50.6975 0.134033 55.0204 0.519244 58.7441 0.990057C62.4678 1.46087 67.604 4.45695 66.3199 7.41024C64.6635 10.856 61.8225 13.5906 58.3161 15.1145C55.9959 14.4092 53.6185 13.9079 51.2111 13.6164Z" fill="url(#paint0_linear_78_172369)"/>
<path d="M61.184 1.63201C60.3954 1.33337 59.5777 1.11819 58.7443 0.989988C55.0206 0.390772 50.6121 0.219567 48.6432 2.87324C46.6743 5.52692 50.4409 13.7019 51.2113 13.6163C53.6187 13.9079 55.9961 14.4091 58.3163 15.1144L57.1606 14.772C61.7832 11.7331 68.7598 5.1417 61.184 1.63201Z" fill="url(#paint1_linear_78_172369)"/>
<path d="M58.316 15.2429C56.0997 14.5959 53.8397 14.1095 51.5534 13.7876C51.1254 13.7876 50.4834 12.5892 50.141 11.9044C49.0282 9.67872 47.3161 4.92779 48.857 2.87333C49.588 2.06877 50.4909 1.43931 51.4987 1.03176C52.5065 0.624204 53.5931 0.449032 54.6779 0.519263C56.0416 0.535762 57.4015 0.664602 58.744 0.904474C60.2185 1.06905 61.6437 1.53369 62.9319 2.26978C64.22 3.00586 65.3439 3.99783 66.2342 5.18459C66.4334 5.57568 66.5373 6.00834 66.5373 6.44723C66.5373 6.88612 66.4334 7.31878 66.2342 7.70987C64.537 11.0548 61.7414 13.7145 58.316 15.2429ZM58.316 15.2429C61.7756 13.6113 64.5599 10.8271 66.1914 7.36746C66.3788 7.01874 66.4768 6.62906 66.4768 6.23322C66.4768 5.83738 66.3788 5.44771 66.1914 5.09899C65.2833 3.96685 64.1552 3.03046 62.8752 2.34632C61.5952 1.66219 60.1899 1.2445 58.744 1.11848C57.401 0.882328 56.0414 0.753518 54.6779 0.733269C53.5802 0.596153 52.4657 0.726993 51.4296 1.11459C50.3935 1.5022 49.4667 2.13502 48.7286 2.95893C47.3161 4.79938 48.7286 9.25071 50.0126 11.776C50.6546 13.06 51.1682 13.6164 51.2966 13.6164C53.6718 13.8904 56.0198 14.3628 58.316 15.0289V15.2429Z" fill="#C44F00"/>
<path d="M52.4523 13.9161C51.7807 10.9165 51.3513 7.86782 51.1683 4.79944C51.393 7.9024 51.8798 10.9808 52.6235 14.0017L52.4523 13.9161Z" fill="#C44F00"/>
<path d="M54.5068 14.2584C54.1718 10.945 54.0147 7.61602 54.036 4.28577C54.024 7.57803 54.2385 10.8672 54.678 14.13L54.5068 14.2584Z" fill="#C44F00"/>
<path d="M55.6627 14.5153C55.9623 14.2156 57.8455 8.48029 59.044 4.71378C58.9155 4.54258 56.0479 14.2585 55.6627 14.5153Z" fill="#C44F00"/>
<path d="M56.5184 14.7292C59.0721 12.1438 61.1062 9.09259 62.5106 5.74097C61.1358 9.10836 59.098 12.165 56.5184 14.7292Z" fill="#C44F00"/>
<path d="M57.3748 14.9859C59.6005 14.1299 64.3514 7.62414 64.3942 7.53854C64.437 7.45293 59.6433 14.1299 57.3748 14.9859Z" fill="#C44F00"/>
<path d="M66.5341 32.8342C68.4601 31.6786 75.7364 30.4374 75.822 31.6358C75.822 32.1494 73.0399 31.6358 72.9971 41.0949C72.9971 45.8886 66.7053 52.9936 60.5847 47.0442C56.433 42.9781 63.2384 34.7603 66.5341 32.8342Z" fill="url(#paint2_linear_78_172369)"/>
<path d="M70.5574 44.3052C72.8259 40.7527 71.9698 33.2625 75.7364 31.4648C72.597 31.051 69.4048 31.541 66.5341 32.8773C63.2384 34.8461 56.433 43.0212 60.5847 47.0873L61.4408 47.8149C63.1209 48.5065 65.0023 48.5282 66.6979 47.8754C68.3936 47.2226 69.7748 45.945 70.5574 44.3052Z" fill="url(#paint3_linear_78_172369)"/>
<path style="mix-blend-mode:screen" opacity="0.7" d="M70.3434 43.7058C72.5691 40.1961 70.3434 33.9043 74.1955 32.0639C73.3395 31.2078 68.3745 32.8771 66.5341 33.9899C63.2384 35.9588 56.433 42.9782 60.5847 46.8303C60.8843 47.0871 61.4836 46.5307 61.7404 46.8303C62.5082 47.2031 63.343 47.4179 64.1954 47.4621C65.0478 47.5063 65.9004 47.3789 66.7027 47.0876C67.505 46.7962 68.2406 46.3468 68.866 45.7658C69.4914 45.1849 69.9937 44.4844 70.3434 43.7058Z" fill="url(#paint4_linear_78_172369)"/>
<path d="M65.4641 49.3982C64.5252 49.3583 63.6034 49.1335 62.7515 48.7369C61.8996 48.3404 61.1342 47.7797 60.4992 47.087C59.9815 46.5751 59.5946 45.9463 59.3711 45.2535C59.1476 44.5607 59.0941 43.8243 59.2151 43.1064C60.2643 38.879 62.8409 35.1893 66.4485 32.7485C68.9282 31.6895 71.5857 31.1086 74.2812 31.0365C75.3512 31.0365 75.9076 31.0365 75.9504 31.5929C75.9932 32.1493 75.9504 31.8925 75.608 31.9781C75.2656 32.0637 73.1255 33.5618 73.0827 41.0948C73.0331 43.1665 72.2335 45.15 70.8325 46.677C69.4314 48.204 67.524 49.1709 65.4641 49.3982ZM74.2812 31.2505C71.6276 31.3264 69.0129 31.9075 66.5769 32.9626C62.9898 35.4068 60.4416 39.0994 59.4291 43.3204C59.3022 44.0151 59.3491 44.7304 59.5657 45.4025C59.7823 46.0746 60.1618 46.6827 60.6704 47.1726C61.9118 48.5182 63.635 49.3183 65.4641 49.3982C67.4852 49.1233 69.3417 48.1357 70.6992 46.6134C72.0568 45.0911 72.8261 43.134 72.8687 41.0948C72.8687 33.4334 74.7948 32.2349 75.5224 31.8069C76.25 31.3789 75.7364 31.8069 75.7364 31.8069C75.7364 31.8069 75.18 31.2505 74.2812 31.2505Z" fill="#C44F00"/>
<path d="M69.0595 16.7838C69.0595 16.7838 76.9349 5.69825 82.1994 9.07955C87.464 12.4608 87.7208 21.1923 85.8376 25.3868C83.9543 29.5813 75.3513 24.8304 70.7715 26.628C67.9895 27.7409 69.0595 16.7838 69.0595 16.7838Z" fill="url(#paint5_linear_78_172369)"/>
<path d="M81.8997 24.4449C83.173 24.1121 84.3195 23.4105 85.1952 22.4281C86.071 21.4458 86.6369 20.2266 86.8219 18.9236C86.8555 17.0385 86.4563 15.1707 85.655 13.4641C84.8536 11.7575 83.6714 10.2574 82.1993 9.07932C76.9348 5.65523 69.0594 16.7407 69.0594 16.7407C68.8253 19.2606 68.8253 21.7967 69.0594 24.3165C72.9115 22.9469 77.7052 25.515 81.8997 24.4449Z" fill="url(#paint6_linear_78_172369)"/>
<path d="M82.0706 27.5271C80.6317 27.452 79.2008 27.266 77.7905 26.9707C76.2912 26.5718 74.758 26.3139 73.2108 26.2002C72.3951 26.1821 71.5828 26.3126 70.8139 26.5855C70.6259 26.6705 70.4152 26.6914 70.2141 26.645C70.0131 26.5986 69.8328 26.4875 69.7011 26.3286C68.1602 24.6594 68.9306 16.9124 68.9734 16.6128C69.2303 16.2704 74.9656 8.26654 79.9734 8.26654C80.7819 8.25649 81.5739 8.49559 82.2418 8.95136C87.2496 12.2043 87.9344 21.0213 85.9227 25.387C85.5786 26.0913 85.021 26.6691 84.3293 27.038C83.6377 27.4069 82.8472 27.5481 82.0706 27.4415V27.5271ZM73.2108 26.2002C74.7667 26.2575 76.3141 26.4581 77.8333 26.7995C79.2445 27.0816 80.6755 27.2533 82.1134 27.3131C84.0395 27.3131 85.1951 26.7139 85.7515 25.4298C87.7204 21.1497 87.0784 12.5895 82.1562 9.25097C81.5231 8.82787 80.7776 8.60424 80.0162 8.60895C75.2652 8.60895 69.5727 16.356 69.2303 16.8696C68.8878 17.3832 68.4598 24.7878 69.8723 26.2002C69.9937 26.2975 70.1447 26.3505 70.3003 26.3505C70.4559 26.3505 70.6068 26.2975 70.7283 26.2002C71.5492 26.0528 72.3898 26.0528 73.2108 26.2002Z" fill="#C44F00"/>
<path d="M70.7716 16.6555H70.5576C71.8845 14.3014 79.1179 11.0057 79.1179 11.0057C76.0249 12.3831 73.1995 14.2957 70.7716 16.6555Z" fill="#C44F00"/>
<path d="M71.8846 17.8963C74.7924 15.6178 78.0238 13.7857 81.4721 12.4606C78.035 13.8094 74.807 15.6396 71.8846 17.8963Z" fill="#C44F00"/>
<path d="M72.6549 19.3516C75.8071 17.7584 79.122 16.5099 82.542 15.6279C79.129 16.532 75.8164 17.7796 72.6549 19.3516Z" fill="#C44F00"/>
<path d="M73.5535 22.8612C76.9101 21.8551 80.3711 21.2376 83.8686 21.0208C80.3787 21.2988 76.9241 21.9152 73.5535 22.8612Z" fill="#C44F00"/>
<path d="M77.1489 24.4023C75.912 24.3991 74.6787 24.27 73.468 24.0171C77.1322 24.6392 80.8928 24.3601 84.4251 23.2039C82.0873 24.0213 79.6254 24.4268 77.1489 24.4023Z" fill="#C44F00"/>
<path d="M67.6466 35.06C69.1714 33.8382 70.9839 33.0277 72.9112 32.7059C70.9968 33.0695 69.1939 33.8756 67.6466 35.06Z" fill="#C44F00"/>
<path d="M67.6045 37.6707C68.9215 36.3628 70.516 35.3681 72.2698 34.7603C70.5376 35.4124 68.9519 36.4016 67.6045 37.6707Z" fill="#C44F00"/>
<path d="M67.3046 40.0676H67.0905C67.6898 38.7836 71.9699 36.9431 71.9699 36.9431C71.9699 36.9431 67.861 39.0404 67.3046 40.0676Z" fill="#C44F00"/>
<path d="M66.5766 42.6356V42.4216C68.1936 41.7268 69.6504 40.707 70.8567 39.4255C69.7147 40.8302 68.2449 41.9326 66.5766 42.6356Z" fill="#C44F00"/>
<path d="M65.5493 44.947V44.733C67.2293 44.4695 68.8177 43.793 70.1718 42.7642C68.863 43.906 67.2626 44.6617 65.5493 44.947Z" fill="#C44F00"/>
<path d="M65.0361 47.2153C64.5288 47.2196 64.0238 47.1475 63.538 47.0013C64.2575 47.2324 65.022 47.2869 65.767 47.1603C66.5119 47.0336 67.2155 46.7295 67.8181 46.2737C67.4398 46.6069 66.9991 46.8618 66.5215 47.0234C66.0439 47.1851 65.539 47.2503 65.0361 47.2153Z" fill="#C44F00"/>
<path d="M2.67474 42.4642C3.70197 42.2074 3.14555 41.2658 6.95486 38.6977C10.7642 36.1297 8.15329 29.7523 9.69414 25.8574C11.235 21.9625 16.5851 19.052 19.0676 20.5072C20.7456 19.4515 22.6922 18.9017 24.6746 18.9236C32.6394 14.911 41.4368 12.8289 50.3553 12.8458C59.3007 13.231 63.6664 19.9936 68.8454 16.3127C71.1567 14.6863 75.4368 22.1765 72.7403 26.1998C72.0983 27.227 67.0049 25.6434 67.3902 31.2503C67.7326 35.5304 68.3746 45.7171 61.5692 48.0284C54.7638 50.3397 46.5032 51.1101 42.1802 55.219C38.5849 58.5575 26.3866 57.4875 21.1649 55.7326C15.9431 53.9778 10.165 49.184 7.55408 50.4253C4.17278 52.0517 3.27396 50.7249 3.27396 49.5264C3.27396 48.328 5.58522 47.1296 2.84595 46.5732C2.30107 46.5959 1.76949 46.4012 1.36815 46.0319C0.966814 45.6627 0.728589 45.1492 0.705886 44.6043C0.683183 44.0594 0.877861 43.5278 1.24709 43.1265C1.61632 42.7252 2.12987 42.4869 2.67474 42.4642Z" fill="url(#paint7_linear_78_172369)"/>
<path d="M69.0593 16.27C66.0204 18.624 63.0243 16.9976 59.2578 15.2855C56.6006 13.8831 53.6904 13.0246 50.6975 12.7603C41.7758 12.7583 32.9786 14.8549 25.0168 18.8808C22.9579 18.8771 20.9399 19.4557 19.1959 20.5501C16.6278 19.0948 11.2348 21.6629 9.65118 25.515C8.06754 29.3671 10.4216 36.0441 7.04031 38.3554C5.84777 39.181 4.75604 40.1434 3.78742 41.2231C3.44501 41.6083 3.40221 42.1219 2.9742 42.2075C2.40662 42.2075 1.86229 42.433 1.46095 42.8343C1.05961 43.2356 0.834137 43.78 0.834137 44.3475C0.834137 44.9151 1.05961 45.4595 1.46095 45.8608C1.86229 46.2621 2.40662 46.4876 2.9742 46.4876C5.71347 47.044 3.48781 48.0712 3.35941 49.3553C3.231 50.6393 3.35941 50.7249 4.64344 50.7677C6.27783 50.5813 7.79377 49.8233 8.92356 48.6277C8.73771 48.8744 8.56622 49.1316 8.40995 49.3981C10.6104 48.0476 13.2277 47.5455 15.7718 47.9856C23.048 50.1257 30.4954 54.1062 37.7716 50.6821C46.0322 46.83 50.6119 46.402 56.6469 43.0635C57.9044 42.5648 58.9692 41.6767 59.6855 40.5291C60.4017 39.3816 60.7318 38.0348 60.6274 36.6861C60.3422 32.806 61.4838 28.9553 63.8375 25.8574C65.8064 23.5462 70.6857 23.7602 73.2538 24.017C73.9814 20.0365 70.5573 15.1143 69.0593 16.27Z" fill="url(#paint8_linear_78_172369)"/>
<path d="M14.5309 27.4413L31.6514 21.4919C28.6881 19.6123 25.1563 18.8392 21.6787 19.3091C18.383 20.3363 16.5425 22.3908 14.5309 27.4413Z" fill="url(#paint9_linear_78_172369)"/>
<path d="M3.48755 45.2891C4.58525 45.7789 5.77381 46.032 6.97585 46.032C8.17788 46.032 9.36644 45.7789 10.4641 45.2891C10.2073 45.9739 9.13731 46.6587 7.08285 46.7443C5.78886 46.5407 4.55885 46.0428 3.48755 45.2891Z" fill="url(#paint10_linear_78_172369)"/>
<path d="M32.935 57.4449C28.9381 57.4501 24.9608 56.8881 21.1218 55.7756C18.9988 54.9903 16.9504 54.0162 15.0013 52.8651C13.0421 51.5735 10.8449 50.6859 8.53829 50.2543C8.21237 50.2544 7.89063 50.3275 7.59667 50.4683C5.71341 51.3671 4.34377 51.4527 3.65895 50.7251C3.50719 50.5507 3.39433 50.346 3.3279 50.1246C3.26148 49.9032 3.24302 49.6701 3.27374 49.441C3.34219 48.9842 3.53465 48.5549 3.83016 48.1998C4.08697 47.8146 4.30097 47.4722 4.21537 47.2154C4.12977 46.9586 3.70176 46.7446 2.93133 46.6162C2.41908 46.539 1.94865 46.2889 1.59825 45.9074C1.24786 45.5258 1.0386 45.0358 1.00528 44.5189C0.991283 44.0189 1.14945 43.5292 1.45331 43.1318C1.75718 42.7345 2.1883 42.4535 2.67453 42.336C3.05974 42.336 3.18814 42.0792 3.48775 41.694C4.42753 40.447 5.60604 39.3994 6.95465 38.6123C9.13751 37.0715 9.09471 34.3322 9.05191 31.2077C8.9031 29.3347 9.09155 27.4501 9.60832 25.6436C10.3079 24.109 11.3932 22.7819 12.7584 21.7918C14.1237 20.8016 15.7222 20.1821 17.3981 19.9938C17.9782 19.9787 18.5526 20.1113 19.0674 20.379C20.7242 19.3159 22.6639 18.7788 24.6315 18.8382L26.6432 17.9822C33.4666 14.7016 40.9039 12.8933 48.4718 12.6748H50.2695C53.6476 12.9448 56.9371 13.8909 59.9425 15.4569C61.6473 16.4472 63.5447 17.0602 65.5067 17.2545C66.6522 17.2611 67.7671 16.8844 68.674 16.1845C68.8989 16.023 69.1675 15.9334 69.4444 15.9277C70.386 15.9277 71.4561 16.8693 72.3549 18.453C73.087 19.5961 73.518 20.9059 73.6079 22.2604C73.6977 23.615 73.4433 24.9702 72.8685 26.2C72.8685 26.5424 72.0553 26.628 71.3277 26.7564C69.6156 26.7564 67.2615 27.3556 67.5183 31.0365C67.7751 34.7174 68.5028 45.5461 61.6118 47.9002C59.2577 48.7134 56.9036 49.3126 54.5924 49.9118C50.1128 50.6187 45.8697 52.3952 42.2228 55.0908C39.4681 56.8711 36.2052 57.6981 32.935 57.4449ZM8.53829 50.0402C10.8819 50.4598 13.1123 51.3636 15.0869 52.6939C17.0458 53.8144 19.0928 54.7735 21.2074 55.5616C25.0187 56.6618 28.9681 57.2095 32.935 57.188C36.1421 57.5283 39.3701 56.7741 42.0944 55.048C45.7595 52.32 50.0349 50.5275 54.5496 49.8262C56.818 49.227 59.1721 48.6278 61.5262 47.8146C68.2888 45.5033 67.6039 35.4878 67.3043 31.2077C67.0047 26.9276 69.5728 26.9276 71.2849 26.4568C71.9269 26.4568 72.4833 26.4568 72.6545 26.0288C73.1916 24.8492 73.426 23.5543 73.3363 22.2614C73.2466 20.9684 72.8357 19.7182 72.1409 18.6242C71.3276 17.1261 70.3004 16.1845 69.4444 16.1845C69.2338 16.1301 69.0129 16.1301 68.8024 16.1845C67.8616 16.9181 66.6996 17.3105 65.5067 17.2973C63.5038 17.1054 61.564 16.4928 59.8141 15.4997C56.855 13.9327 53.6071 12.986 50.2695 12.7176H48.4718C40.9193 12.9926 33.5099 14.8595 26.7288 18.1962L24.7171 19.0522C22.7613 18.9795 20.8314 19.5181 19.1958 20.593C18.6909 20.3401 18.134 20.2083 17.5693 20.2078C15.8766 20.3369 14.2494 20.9171 12.8569 21.8881C11.4643 22.8591 10.3574 24.1854 9.65112 25.7292C9.15311 27.51 8.9649 29.3631 9.09471 31.2077C9.09471 34.161 9.09471 37.1999 6.91185 38.7835C5.62343 39.569 4.50331 40.6018 3.61615 41.8224C3.31654 42.2076 3.14534 42.4644 2.71733 42.55C2.28399 42.6644 1.90126 42.9203 1.62987 43.277C1.35848 43.6336 1.21398 44.0707 1.21929 44.5189C1.25347 44.9858 1.44607 45.427 1.7652 45.7694C2.08433 46.1119 2.51084 46.3351 2.97414 46.4021C3.83016 46.4021 4.25817 46.7874 4.42938 47.1298C4.60058 47.4722 4.42938 47.9002 4.04417 48.3282C3.76724 48.6459 3.57575 49.0289 3.48775 49.441C3.46766 49.64 3.48761 49.841 3.54642 50.0321C3.60522 50.2232 3.7017 50.4006 3.83016 50.5539C4.42938 51.1959 5.71341 51.1103 7.51106 50.2543C7.83509 50.113 8.1848 50.0401 8.53829 50.0402Z" fill="#C44F00"/>
<path d="M41.1962 43.8339C41.7526 46.3163 49.4996 43.2774 51.3401 37.1997C52.9237 32.0207 51.3401 29.5811 49.9276 29.5811C48.5152 29.5811 40.4685 41.4798 41.1962 43.8339Z" fill="url(#paint11_linear_78_172369)"/>
<path d="M38.6276 39.8536C39.6308 36.8074 41.0726 33.9237 42.9077 31.2934C44.6198 29.3245 47.1879 27.4413 49.0711 28.8537C50.9544 30.2662 52.0672 41.3089 40.9817 43.5773C40.3553 42.2428 39.5645 40.9918 38.6276 39.8536Z" fill="url(#paint12_linear_78_172369)"/>
<path d="M49.7559 29.9663C49.5953 29.596 49.3625 29.2613 49.0711 28.9819C47.3163 27.5695 44.791 29.4527 42.9077 31.4216C41.0726 34.0518 39.6308 36.9356 38.6276 39.9818C39.5163 41.122 40.2771 42.3563 40.8961 43.6627C43.3262 42.2143 45.3897 40.2251 46.9263 37.8497C48.4629 35.4743 49.4312 32.7767 49.7559 29.9663Z" fill="url(#paint13_linear_78_172369)"/>
<path d="M40.8962 43.8341C40.295 42.4691 39.518 41.1884 38.5849 40.0248C39.5985 36.9829 41.0397 34.1006 42.865 31.4645C44.0298 29.8788 45.763 28.8051 47.7016 28.4685C48.2452 28.4615 48.7745 28.643 49.1996 28.9821C49.9078 29.9736 50.3736 31.1174 50.5594 32.3217C50.7452 33.5259 50.646 34.757 50.2696 35.9159C49.7007 37.9803 48.5371 39.8318 46.9237 41.2397C45.3102 42.6477 43.3182 43.5499 41.1958 43.8341H40.8962ZM38.7561 39.8108C39.6545 40.9749 40.4157 42.2388 41.0246 43.5773C43.0872 43.2881 45.0178 42.3936 46.572 41.007C48.1263 39.6203 49.2343 37.8039 49.756 35.7875C50.1329 34.669 50.2403 33.4774 50.0692 32.3096C49.8981 31.1418 49.4535 30.031 48.7716 29.0677C48.3968 28.7625 47.9281 28.5962 47.4447 28.5969C45.5753 28.9364 43.9063 29.9776 42.7794 31.5073C41.0353 34.0611 39.6795 36.8593 38.7561 39.8108Z" fill="#C44F00"/>
<path d="M39.1416 40.4526C41.03 36.4127 43.7416 32.8118 47.1026 29.8807C43.7785 32.8459 41.073 36.4387 39.1416 40.4526Z" fill="#C44F00"/>
<path d="M39.7407 41.2235H39.5267C41.3187 37.858 43.6298 34.7958 46.3749 32.1497C43.7241 34.8271 41.488 37.8855 39.7407 41.2235Z" fill="#C44F00"/>
<path d="M40.1262 41.9937C42.7352 39.873 45.0777 37.4442 47.1028 34.7603C45.0957 37.4595 42.7511 39.8904 40.1262 41.9937Z" fill="#C44F00"/>
<path d="M40.5107 42.7211C44.1068 41.1435 47.1057 38.4595 49.071 35.0597C47.1633 38.5058 44.1465 41.2058 40.5107 42.7211Z" fill="#C44F00"/>
<path d="M36.0597 37.7565C37.8632 38.7591 39.3539 40.2416 40.3662 42.0397C41.3786 43.8378 41.8732 45.8811 41.7951 47.9432C41.5636 45.9494 40.9373 44.0217 39.9525 42.2726C38.9678 40.5236 37.6444 38.9883 36.0597 37.7565Z" fill="#C44F00"/>
<path d="M6.95523 46.9584C5.33987 46.6301 3.85365 45.8424 2.67511 44.6899C3.88714 45.7532 5.36752 46.4638 6.95523 46.7444C9.13809 46.7444 9.78011 46.0168 10.1225 45.4604C9.5661 46.402 8.53887 46.83 6.74122 46.8728L6.95523 46.9584Z" fill="#C44F00"/>
<path d="M5.11461 46.3591C5.37142 47.9 4.34419 48.9272 4.60099 49.4408C4.8578 49.9544 8.2391 48.4992 8.88111 46.7015H7.38307C6.61061 46.7645 5.83408 46.6473 5.11461 46.3591Z" fill="#2D0404"/>
<path d="M4.60077 49.4411C5.07158 50.2115 7.51125 48.8847 8.41007 47.3438C8.12262 47.2069 7.80824 47.1359 7.48985 47.1359C7.17146 47.1359 6.85708 47.2069 6.56962 47.3438C6.32874 47.2068 6.04782 47.1575 5.77469 47.2044C5.50155 47.2512 5.25309 47.3912 5.07158 47.6006C4.85758 48.4994 4.42956 49.0987 4.60077 49.4411Z" fill="url(#paint14_radial_78_172369)"/>
<path d="M4.90029 48.1142C4.68629 48.7134 4.47228 49.1414 4.60068 49.441C4.72909 49.7406 6.44114 49.441 7.51117 48.4138C8.5812 47.3865 7.51117 46.9157 6.01312 47.9857C6.09873 46.9585 4.94309 47.9001 4.90029 48.1142Z" fill="url(#paint15_linear_78_172369)"/>
<path d="M5.11405 49.7833C4.99687 49.7889 4.88023 49.7642 4.7753 49.7118C4.67038 49.6593 4.58069 49.5808 4.51483 49.4837C4.51483 49.2269 4.51483 48.8845 4.51483 48.4565L4.94284 47.6004C5.54206 47.1296 6.05567 47.0012 6.52649 47.3008C6.8944 47.156 7.28675 47.0834 7.68212 47.0868C7.93426 47.0176 8.2004 47.0176 8.45254 47.0868C8.1282 47.7538 7.66093 48.3412 7.08393 48.8073C6.50694 49.2733 5.83438 49.6065 5.11405 49.7833ZM5.11405 47.7288C5.04011 48.0088 4.93979 48.2811 4.81444 48.5421C4.81444 48.9273 4.55763 49.1841 4.81444 49.3553C5.07125 49.5265 4.81444 49.3553 5.19965 49.3553C5.84384 49.2293 6.45458 48.9701 6.99266 48.5942C7.53074 48.2182 7.98427 47.734 8.32414 47.1724H7.81052C7.41731 47.1903 7.02843 47.2623 6.65489 47.3864C6.09848 47.2152 5.67046 47.3008 5.15685 47.6004L5.11405 47.7288Z" fill="#DD3E3E"/>
<path d="M5.11405 49.7832C4.99687 49.7888 4.88023 49.7642 4.7753 49.7117C4.67038 49.6593 4.58069 49.5807 4.51483 49.4836C4.51483 49.2268 4.51483 48.8844 4.51483 48.4564C4.82308 47.8033 4.92748 47.0725 4.81444 46.3591V46.1451H5.02845C5.61852 46.4842 6.2762 46.6888 6.9545 46.7444C7.45263 46.7936 7.95441 46.7936 8.45254 46.7444C8.17284 47.4769 7.72503 48.1335 7.14516 48.6613C6.5653 49.1892 5.86958 49.5735 5.11405 49.7832ZM5.11405 46.5304C5.16534 47.2231 5.03244 47.9172 4.72884 48.542C4.72884 48.9272 4.47203 49.184 4.72884 49.3552C4.98564 49.5264 4.72884 49.3552 5.11405 49.3552C5.84952 49.2022 6.53872 48.8784 7.12606 48.41C7.7134 47.9416 8.18244 47.3417 8.49534 46.6588C8.05439 46.7072 7.60946 46.7072 7.16851 46.6588C6.52509 46.7632 5.86632 46.7193 5.24245 46.5304H5.11405Z" fill="#C44F00"/>
<path d="M10.3787 45.7176C9.97354 45.3915 9.66317 44.9629 9.47983 44.4763C9.75735 44.8901 10.105 45.2522 10.5071 45.5463C11.0195 45.7724 11.5734 45.8891 12.1335 45.8888C11.5445 46.0064 10.9338 45.9468 10.3787 45.7176Z" fill="#C44F00"/>
<path d="M7.25433 50.6393V50.4253C8.04967 49.9988 8.72631 49.3811 9.22319 48.6277C8.77877 49.4771 8.09398 50.1768 7.25433 50.6393Z" fill="#C44F00"/>
<path d="M5.71368 48.5849C5.81242 48.2768 5.97359 47.9924 6.18715 47.7494C6.40071 47.5064 6.66207 47.31 6.95492 47.1725C6.40596 47.5047 5.97258 47.9978 5.71368 48.5849Z" fill="#DD3E3E"/>
<path d="M5.71392 43.8769C5.71392 43.8769 4.04467 42.3361 2.71783 42.5501V42.3361C4.13027 42.1221 5.71392 43.8769 5.71392 43.8769Z" fill="#C44F00"/>
<path d="M14.5309 27.4411C15.4614 24.3294 17.4239 21.6273 20.095 19.7797C22.0329 19.0798 24.1138 18.8698 26.1524 19.1685C28.191 19.4672 30.1241 20.2653 31.7798 21.4917C30.1067 20.3344 28.1826 19.5912 26.1659 19.3233C24.1493 19.0554 22.0978 19.2705 20.1806 19.9509C17.5397 21.7738 15.5581 24.4009 14.5309 27.4411Z" fill="#C44F00"/>
<path style="mix-blend-mode:multiply" d="M14.1025 27.9122C14.0695 28.2074 13.9519 28.4867 13.7638 28.7166C13.5757 28.9465 13.3252 29.1171 13.0424 29.208C12.7595 29.2988 12.4565 29.3059 12.1697 29.2285C11.8829 29.1511 11.6247 28.9925 11.4259 28.7717C11.2272 28.5509 11.0966 28.2774 11.0497 27.9841C11.0028 27.6907 11.0417 27.3901 11.1617 27.1184C11.2818 26.8467 11.4777 26.6154 11.7261 26.4525C11.9745 26.2896 12.2647 26.2019 12.5617 26.2001C12.7793 26.1988 12.9947 26.2435 13.1938 26.3314C13.3928 26.4193 13.571 26.5484 13.7165 26.7101C13.8621 26.8719 13.9718 27.0626 14.0383 27.2698C14.1048 27.477 14.1267 27.6959 14.1025 27.9122Z" fill="url(#paint16_linear_78_172369)"/>
<path style="mix-blend-mode:multiply" d="M14.3594 34.2464C14.3594 34.6019 14.254 34.9495 14.0565 35.2451C13.8589 35.5407 13.5782 35.7711 13.2497 35.9072C12.9212 36.0433 12.5598 36.0789 12.2111 36.0095C11.8624 35.9401 11.5421 35.7689 11.2907 35.5175C11.0392 35.2661 10.868 34.9458 10.7987 34.5971C10.7293 34.2484 10.7649 33.8869 10.901 33.5585C11.037 33.23 11.2674 32.9492 11.5631 32.7517C11.8587 32.5542 12.2062 32.4487 12.5618 32.4487C13.0385 32.4487 13.4958 32.6381 13.8329 32.9752C14.17 33.3124 14.3594 33.7696 14.3594 34.2464Z" fill="url(#paint17_linear_78_172369)"/>
<path style="mix-blend-mode:multiply" d="M9.6939 40.5384C9.6939 40.8335 9.57666 41.1166 9.36796 41.3253C9.15926 41.534 8.87621 41.6512 8.58107 41.6512C8.43332 41.6572 8.28591 41.6326 8.14817 41.5788C8.01042 41.525 7.88532 41.4433 7.78075 41.3387C7.67619 41.2341 7.59443 41.109 7.54064 40.9713C7.48685 40.8335 7.4622 40.6861 7.46824 40.5384C7.46824 40.2432 7.58548 39.9602 7.79418 39.7515C8.00288 39.5428 8.28593 39.4255 8.58107 39.4255C8.87621 39.4255 9.15926 39.5428 9.36796 39.7515C9.57666 39.9602 9.6939 40.2432 9.6939 40.5384Z" fill="url(#paint18_linear_78_172369)"/>
<path style="mix-blend-mode:multiply" d="M14.4026 43.0637C14.4084 43.2134 14.3839 43.3627 14.3305 43.5027C14.2772 43.6427 14.1961 43.7705 14.0922 43.8784C13.9883 43.9863 13.8637 44.0721 13.7258 44.1307C13.5879 44.1893 13.4396 44.2194 13.2898 44.2193C13.1224 44.252 12.9499 44.2472 12.7846 44.2053C12.6193 44.1634 12.4653 44.0855 12.3337 43.9771C12.2021 43.8687 12.0961 43.7324 12.0233 43.5782C11.9505 43.424 11.9128 43.2556 11.9128 43.0851C11.9128 42.9145 11.9505 42.7461 12.0233 42.5919C12.0961 42.4377 12.2021 42.3015 12.3337 42.1931C12.4653 42.0847 12.6193 42.0067 12.7846 41.9648C12.9499 41.923 13.1224 41.9182 13.2898 41.9508C13.5849 41.9508 13.868 42.0681 14.0767 42.2768C14.2854 42.4855 14.4026 42.7685 14.4026 43.0637Z" fill="url(#paint19_linear_78_172369)"/>
<path style="mix-blend-mode:multiply" d="M18.8963 39.6824C18.8963 40.284 18.6573 40.861 18.2319 41.2865C17.8065 41.7119 17.2295 41.9509 16.6278 41.9509C16.0262 41.9509 15.4492 41.7119 15.0238 41.2865C14.5984 40.861 14.3594 40.284 14.3594 39.6824C14.3594 39.3845 14.4181 39.0895 14.5321 38.8143C14.6461 38.5391 14.8131 38.289 15.0238 38.0784C15.2344 37.8677 15.4845 37.7006 15.7597 37.5866C16.035 37.4726 16.3299 37.4139 16.6278 37.4139C16.9257 37.4139 17.2207 37.4726 17.4959 37.5866C17.7712 37.7006 18.0212 37.8677 18.2319 38.0784C18.4425 38.289 18.6096 38.5391 18.7236 38.8143C18.8376 39.0895 18.8963 39.3845 18.8963 39.6824Z" fill="url(#paint20_linear_78_172369)"/>
<path style="mix-blend-mode:multiply" d="M22.8771 40.3672C22.8771 40.5534 22.8218 40.7355 22.7184 40.8903C22.6149 41.0452 22.4678 41.1658 22.2958 41.2371C22.1237 41.3084 21.9344 41.327 21.7517 41.2907C21.5691 41.2544 21.4013 41.1647 21.2696 41.033C21.1379 40.9013 21.0482 40.7335 21.0119 40.5509C20.9756 40.3682 20.9942 40.1789 21.0655 40.0068C21.1368 39.8348 21.2574 39.6877 21.4123 39.5842C21.5671 39.4808 21.7492 39.4255 21.9354 39.4255C22.1852 39.4255 22.4247 39.5247 22.6013 39.7013C22.7779 39.8779 22.8771 40.1174 22.8771 40.3672Z" fill="url(#paint21_linear_78_172369)"/>
<path style="mix-blend-mode:multiply" d="M21.8068 46.6161C21.8068 47.1723 21.5858 47.7058 21.1925 48.0991C20.7992 48.4924 20.2657 48.7133 19.7095 48.7133C19.1419 48.7133 18.5976 48.4879 18.1963 48.0865C17.7949 47.6852 17.5695 47.1409 17.5695 46.5733C17.5695 46.0057 17.7949 45.4614 18.1963 45.06C18.5976 44.6587 19.1419 44.4332 19.7095 44.4332C19.9923 44.433 20.2722 44.4899 20.5324 44.6006C20.7926 44.7114 21.0277 44.8735 21.2236 45.0774C21.4195 45.2814 21.5722 45.5228 21.6724 45.7872C21.7726 46.0516 21.8183 46.3336 21.8068 46.6161Z" fill="url(#paint22_linear_78_172369)"/>
<path style="mix-blend-mode:multiply" d="M14.3596 49.4411C14.3596 49.793 14.2198 50.1305 13.971 50.3793C13.7222 50.6281 13.3847 50.7679 13.0328 50.7679C12.6809 50.7679 12.3434 50.6281 12.0946 50.3793C11.8458 50.1305 11.706 49.793 11.706 49.4411C11.706 49.0892 11.8458 48.7517 12.0946 48.5029C12.3434 48.2541 12.6809 48.1143 13.0328 48.1143C13.3847 48.1143 13.7222 48.2541 13.971 48.5029C14.2198 48.7517 14.3596 49.0892 14.3596 49.4411Z" fill="url(#paint23_linear_78_172369)"/>
<path style="mix-blend-mode:multiply" d="M26.1728 46.1454C26.1728 46.5086 26.0285 46.857 25.7717 47.1139C25.5148 47.3707 25.1665 47.515 24.8032 47.515C24.44 47.515 24.0916 47.3707 23.8347 47.1139C23.5779 46.857 23.4336 46.5086 23.4336 46.1454C23.4336 45.7821 23.5779 45.4338 23.8347 45.1769C24.0916 44.9201 24.44 44.7758 24.8032 44.7758C25.1665 44.7758 25.5148 44.9201 25.7717 45.1769C26.0285 45.4338 26.1728 45.7821 26.1728 46.1454Z" fill="url(#paint24_linear_78_172369)"/>
<path style="mix-blend-mode:multiply" d="M26.6864 52.3944C26.6864 52.8515 26.5508 53.2984 26.2969 53.6785C26.0429 54.0585 25.6819 54.3548 25.2596 54.5297C24.8373 54.7047 24.3725 54.7504 23.9242 54.6612C23.4759 54.5721 23.064 54.3519 22.7408 54.0287C22.4176 53.7055 22.1974 53.2936 22.1083 52.8453C22.0191 52.397 22.0648 51.9322 22.2398 51.5099C22.4147 51.0876 22.711 50.7266 23.091 50.4726C23.4711 50.2187 23.918 50.0831 24.3751 50.0831C24.9881 50.0831 25.576 50.3266 26.0094 50.7601C26.4429 51.1935 26.6864 51.7814 26.6864 52.3944Z" fill="url(#paint25_linear_78_172369)"/>
<path style="mix-blend-mode:multiply" d="M24.3749 50.0831C23.9858 50.0959 23.6049 50.1984 23.2621 50.3827C24.2037 50.7251 25.3593 51.0248 26.4293 51.3244C26.2297 50.9522 25.9337 50.6406 25.5722 50.4222C25.2107 50.2038 24.7972 50.0867 24.3749 50.0831Z" fill="url(#paint26_linear_78_172369)"/>
<path style="mix-blend-mode:multiply" d="M32.0793 48.414C32.0709 48.7591 31.9608 49.0941 31.763 49.377C31.5651 49.6599 31.2882 49.8781 30.9669 50.0044C30.6455 50.1307 30.2941 50.1594 29.9566 50.0869C29.619 50.0145 29.3104 49.844 29.0692 49.597C28.8281 49.35 28.6651 49.0373 28.6008 48.6981C28.5365 48.3589 28.5737 48.0083 28.7077 47.6901C28.8416 47.3719 29.0665 47.1004 29.3541 46.9094C29.6417 46.7184 29.9792 46.6164 30.3244 46.6163C30.5585 46.6163 30.7903 46.663 31.006 46.7539C31.2218 46.8447 31.4172 46.9778 31.5807 47.1454C31.7442 47.3129 31.8726 47.5114 31.9582 47.7293C32.0438 47.9472 32.085 48.18 32.0793 48.414Z" fill="url(#paint27_linear_78_172369)"/>
<path style="mix-blend-mode:multiply" d="M27.6706 44.4336C29.1362 44.4336 30.3243 43.2455 30.3243 41.7799C30.3243 40.3143 29.1362 39.1262 27.6706 39.1262C26.205 39.1262 25.0169 40.3143 25.0169 41.7799C25.0169 43.2455 26.205 44.4336 27.6706 44.4336Z" fill="url(#paint28_linear_78_172369)"/>
<path style="mix-blend-mode:multiply" d="M33.0639 37.414C33.0528 37.7698 32.9036 38.1072 32.648 38.3549C32.3923 38.6026 32.0503 38.741 31.6943 38.7408C31.4972 38.7761 31.2947 38.7677 31.1011 38.7162C30.9075 38.6647 30.7276 38.5714 30.574 38.4429C30.4205 38.3143 30.2969 38.1537 30.2122 37.9722C30.1274 37.7907 30.0835 37.5929 30.0835 37.3926C30.0835 37.1923 30.1274 36.9945 30.2122 36.813C30.2969 36.6315 30.4205 36.4708 30.574 36.3423C30.7276 36.2137 30.9075 36.1204 31.1011 36.069C31.2947 36.0175 31.4972 36.0091 31.6943 36.0443C31.8742 36.0443 32.0523 36.0798 32.2184 36.1486C32.3846 36.2174 32.5356 36.3183 32.6628 36.4455C32.79 36.5727 32.8909 36.7237 32.9597 36.8898C33.0285 37.056 33.0639 37.2341 33.0639 37.414Z" fill="url(#paint29_linear_78_172369)"/>
<path style="mix-blend-mode:multiply" d="M36.1022 28.126C36.1022 28.4308 36.0118 28.7287 35.8425 28.9821C35.6732 29.2355 35.4326 29.433 35.151 29.5496C34.8695 29.6662 34.5596 29.6967 34.2607 29.6373C33.9619 29.5778 33.6873 29.4311 33.4718 29.2156C33.2563 29.0001 33.1096 28.7255 33.0501 28.4267C32.9907 28.1278 33.0212 27.8179 33.1378 27.5364C33.2544 27.2548 33.4519 27.0142 33.7053 26.8449C33.9587 26.6756 34.2566 26.5852 34.5614 26.5852C34.97 26.5852 35.3619 26.7475 35.6509 27.0365C35.9399 27.3255 36.1022 27.7174 36.1022 28.126Z" fill="url(#paint30_linear_78_172369)"/>
<path style="mix-blend-mode:multiply" d="M24.0751 21.9196C24.0165 22.2574 23.8406 22.5637 23.5783 22.7844C23.3159 23.0051 22.9841 23.1262 22.6413 23.1262C22.2984 23.1262 21.9666 23.0051 21.7043 22.7844C21.442 22.5637 21.266 22.2574 21.2074 21.9196C21.266 21.5818 21.442 21.2755 21.7043 21.0548C21.9666 20.8341 22.2984 20.713 22.6413 20.713C22.9841 20.713 23.3159 20.8341 23.5783 21.0548C23.8406 21.2755 24.0165 21.5818 24.0751 21.9196Z" fill="url(#paint31_linear_78_172369)"/>
<path style="mix-blend-mode:screen" opacity="0.7" d="M15.7721 37.8847C12.134 29.7097 15.13 22.3051 20.6514 19.951C23.6652 18.9813 26.9408 19.2481 29.758 20.6928C32.5752 22.1375 34.7033 24.6419 35.6746 27.6552C38.6279 36.1726 17.3985 40.9236 15.7721 37.8847Z" fill="url(#paint32_linear_78_172369)"/>
<path style="mix-blend-mode:multiply" d="M36.2738 18.5386C36.2654 18.816 36.1755 19.0847 36.0153 19.3113C35.8551 19.5379 35.6316 19.7123 35.3729 19.8126C35.1142 19.913 34.8317 19.9349 34.5605 19.8757C34.2894 19.8165 34.0418 19.6787 33.8485 19.4795C33.6552 19.2804 33.5249 19.0288 33.4738 18.756C33.4227 18.4832 33.453 18.2015 33.5611 17.9459C33.6691 17.6903 33.8501 17.4722 34.0813 17.3188C34.3126 17.1654 34.5839 17.0835 34.8614 17.0834C35.0506 17.0833 35.2378 17.1212 35.412 17.1948C35.5862 17.2685 35.7439 17.3764 35.8756 17.5121C36.0073 17.6478 36.1105 17.8086 36.1789 17.9849C36.2473 18.1613 36.2796 18.3496 36.2738 18.5386Z" fill="url(#paint33_linear_78_172369)"/>
<path style="mix-blend-mode:multiply" d="M40.9389 22.4335C40.9474 22.801 40.8456 23.1627 40.6466 23.4718C40.4477 23.7809 40.1608 24.0234 39.8228 24.168C39.4848 24.3125 39.1113 24.3526 38.7503 24.283C38.3893 24.2133 38.0575 24.0372 37.7976 23.7772C37.5376 23.5173 37.3615 23.1855 37.2918 22.8245C37.2222 22.4635 37.2622 22.09 37.4068 21.752C37.5514 21.414 37.7939 21.1271 38.103 20.9281C38.4121 20.7292 38.7738 20.6274 39.1413 20.6359C39.618 20.6359 40.0753 20.8253 40.4124 21.1624C40.7495 21.4995 40.9389 21.9567 40.9389 22.4335Z" fill="url(#paint34_linear_78_172369)"/>
<path style="mix-blend-mode:multiply" d="M41.4097 18.5384C42.3553 18.5384 43.1218 17.7718 43.1218 16.8263C43.1218 15.8808 42.3553 15.1143 41.4097 15.1143C40.4642 15.1143 39.6977 15.8808 39.6977 16.8263C39.6977 17.7718 40.4642 18.5384 41.4097 18.5384Z" fill="url(#paint35_linear_78_172369)"/>
<path style="mix-blend-mode:multiply" d="M50.6122 18.5383C50.6038 18.9511 50.4737 19.3523 50.2382 19.6915C50.0027 20.0308 49.6722 20.2929 49.2883 20.4451C48.9045 20.5973 48.4842 20.6328 48.0802 20.5471C47.6762 20.4614 47.3066 20.2583 47.0175 19.9634C46.7285 19.6684 46.5329 19.2947 46.4554 18.8891C46.3779 18.4835 46.4219 18.064 46.5818 17.6833C46.7417 17.3026 47.0105 16.9775 47.3544 16.7489C47.6983 16.5203 48.102 16.3983 48.515 16.3982C48.794 16.3981 49.0703 16.4538 49.3276 16.5618C49.5849 16.6699 49.818 16.8282 50.0133 17.0275C50.2086 17.2268 50.3622 17.4631 50.465 17.7225C50.5679 17.9819 50.6179 18.2593 50.6122 18.5383Z" fill="url(#paint36_linear_78_172369)"/>
<path style="mix-blend-mode:multiply" d="M57.9315 21.5345C57.9373 21.7946 57.8904 22.0533 57.7935 22.2948C57.6966 22.5363 57.5518 22.7557 57.3678 22.9397C57.1838 23.1237 56.9644 23.2685 56.7229 23.3654C56.4814 23.4623 56.2228 23.5092 55.9626 23.5033C55.4479 23.4921 54.958 23.2798 54.598 22.9118C54.238 22.5437 54.0364 22.0493 54.0366 21.5345C54.0366 21.2703 54.0886 21.0087 54.1897 20.7647C54.2908 20.5206 54.439 20.2988 54.6258 20.112C54.8126 19.9252 55.0343 19.7771 55.2784 19.676C55.5225 19.5749 55.784 19.5228 56.0482 19.5228C56.5629 19.5451 57.0484 19.7682 57.4004 20.1443C57.7525 20.5204 57.9431 21.0195 57.9315 21.5345Z" fill="url(#paint37_linear_78_172369)"/>
<path style="mix-blend-mode:multiply" d="M46.418 25.6007C46.4265 25.9428 46.3322 26.2796 46.1474 26.5676C45.9626 26.8556 45.6957 27.0816 45.3811 27.2165C45.0666 27.3513 44.7189 27.3888 44.3829 27.3241C44.0468 27.2595 43.7379 27.0955 43.4959 26.8536C43.2539 26.6116 43.09 26.3026 43.0253 25.9666C42.9606 25.6305 42.9981 25.2828 43.133 24.9683C43.2678 24.6538 43.4938 24.3869 43.7819 24.2021C44.0699 24.0172 44.4067 23.923 44.7488 23.9314C45.1915 23.9314 45.6161 24.1073 45.9291 24.4203C46.2422 24.7334 46.418 25.158 46.418 25.6007Z" fill="url(#paint38_linear_78_172369)"/>
<path style="mix-blend-mode:multiply" d="M44.7481 29.5383C44.7481 29.8221 44.6354 30.0942 44.4347 30.2949C44.234 30.4956 43.9619 30.6083 43.6781 30.6083C43.3943 30.6083 43.1221 30.4956 42.9214 30.2949C42.7208 30.0942 42.608 29.8221 42.608 29.5383C42.608 29.2545 42.7208 28.9823 42.9214 28.7817C43.1221 28.581 43.3943 28.4683 43.6781 28.4683C43.9619 28.4683 44.234 28.581 44.4347 28.7817C44.6354 28.9823 44.7481 29.2545 44.7481 29.5383Z" fill="url(#paint39_linear_78_172369)"/>
<path style="mix-blend-mode:multiply" d="M37.6432 37.5849C39.0615 37.5849 40.2113 36.4351 40.2113 35.0168C40.2113 33.5985 39.0615 32.4487 37.6432 32.4487C36.2249 32.4487 35.0751 33.5985 35.0751 35.0168C35.0751 36.4351 36.2249 37.5849 37.6432 37.5849Z" fill="url(#paint40_linear_78_172369)"/>
<path style="mix-blend-mode:multiply" d="M54.3788 28.1261C54.3704 28.4967 54.2528 28.8565 54.0409 29.1605C53.8289 29.4645 53.5319 29.6992 53.1871 29.8352C52.8423 29.9712 52.4651 30.0025 52.1026 29.925C51.7402 29.8476 51.4087 29.6649 51.1495 29.3999C50.8904 29.1349 50.7153 28.7994 50.646 28.4353C50.5767 28.0712 50.6164 27.6947 50.7602 27.3531C50.9039 27.0115 51.1452 26.7198 51.4539 26.5147C51.7626 26.3096 52.125 26.2002 52.4956 26.2001C52.7465 26.2 52.995 26.2501 53.2263 26.3474C53.4576 26.4447 53.6672 26.5873 53.8426 26.7667C54.0181 26.9461 54.1559 27.1588 54.248 27.3923C54.34 27.6257 54.3845 27.8752 54.3788 28.1261Z" fill="url(#paint41_linear_78_172369)"/>
<path style="mix-blend-mode:multiply" d="M60.8415 31.6355C61.7162 31.6355 62.4252 30.9265 62.4252 30.0519C62.4252 29.1773 61.7162 28.4683 60.8415 28.4683C59.9669 28.4683 59.2579 29.1773 59.2579 30.0519C59.2579 30.9265 59.9669 31.6355 60.8415 31.6355Z" fill="url(#paint42_linear_78_172369)"/>
<path style="mix-blend-mode:multiply" d="M60.5422 28.511C60.3277 28.5533 60.1243 28.6395 59.9447 28.7643C59.7652 28.889 59.6134 29.0496 59.499 29.2359C59.3845 29.4222 59.3099 29.6302 59.2798 29.8467C59.2497 30.0633 59.2648 30.2837 59.324 30.4942C59.3833 30.7046 59.4855 30.9005 59.6242 31.0695C59.763 31.2385 59.9352 31.377 60.13 31.4761C60.3249 31.5753 60.5381 31.6331 60.7564 31.6458C60.9747 31.6584 61.1932 31.6258 61.3982 31.5499C61.4495 30.6699 61.6827 29.81 62.0831 29.0246C61.8995 28.804 61.658 28.6391 61.3858 28.5483C61.1136 28.4576 60.8214 28.4446 60.5422 28.511Z" fill="url(#paint43_linear_78_172369)"/>
<path style="mix-blend-mode:multiply" d="M66.1918 23.6747C66.2002 24.1099 66.0784 24.5378 65.8418 24.9032C65.6052 25.2687 65.2648 25.555 64.8642 25.7255C64.4637 25.896 64.0213 25.9429 63.5939 25.86C63.1665 25.7771 62.7737 25.5684 62.4658 25.2606C62.158 24.9527 61.9492 24.5599 61.8664 24.1325C61.7835 23.7051 61.8304 23.2627 62.0008 22.8622C62.1713 22.4616 62.4577 22.1212 62.8232 21.8846C63.1886 21.648 63.6165 21.5261 64.0517 21.5346C64.6159 21.5455 65.1539 21.7745 65.5529 22.1735C65.9518 22.5725 66.1808 23.1105 66.1918 23.6747Z" fill="url(#paint44_linear_78_172369)"/>
<path style="mix-blend-mode:multiply" d="M64.0519 21.5345C63.7351 21.4708 63.4081 21.4783 63.0945 21.5563C62.7809 21.6344 62.4886 21.7811 62.2386 21.9858C61.9886 22.1905 61.7872 22.4482 61.6489 22.7403C61.5106 23.0323 61.4388 23.3514 61.4388 23.6746C61.4388 23.9977 61.5106 24.3168 61.6489 24.6088C61.7872 24.9009 61.9886 25.1586 62.2386 25.3633C62.4886 25.5681 62.7809 25.7148 63.0945 25.7928C63.4081 25.8708 63.7351 25.8783 64.0519 25.8146C64.6339 25.271 65.2984 24.8232 66.0207 24.4878C66.0896 24.2066 66.0896 23.9129 66.0207 23.6318C66.0025 23.1029 65.7928 22.5987 65.4306 22.2129C65.0684 21.8272 64.5785 21.5861 64.0519 21.5345Z" fill="url(#paint45_linear_78_172369)"/>
<path style="mix-blend-mode:multiply" d="M71.1566 20.4644C71.1651 20.8555 71.0569 21.2403 70.8458 21.5696C70.6347 21.899 70.3303 22.158 69.9713 22.3136C69.6124 22.4692 69.2152 22.5143 68.8306 22.4433C68.4459 22.3722 68.0911 22.1882 67.8114 21.9146C67.5318 21.641 67.3399 21.2903 67.2604 20.9073C67.1809 20.5243 67.2174 20.1262 67.365 19.764C67.5127 19.4017 67.765 19.0916 68.0896 18.8733C68.4142 18.6551 68.7965 18.5384 69.1878 18.5383C69.7026 18.5382 70.197 18.7398 70.565 19.0998C70.933 19.4598 71.1454 19.9497 71.1566 20.4644Z" fill="url(#paint46_linear_78_172369)"/>
<path style="mix-blend-mode:multiply" d="M56.9898 36.1725C56.9898 36.5704 56.8719 36.9593 56.6508 37.2902C56.4298 37.621 56.1156 37.8788 55.748 38.0311C55.3804 38.1833 54.9759 38.2232 54.5857 38.1455C54.1955 38.0679 53.8371 37.8763 53.5557 37.595C53.2744 37.3137 53.0828 36.9552 53.0052 36.565C52.9276 36.1748 52.9674 35.7703 53.1197 35.4027C53.2719 35.0351 53.5297 34.721 53.8606 34.4999C54.1914 34.2789 54.5803 34.1609 54.9782 34.1609C55.5117 34.1609 56.0234 34.3728 56.4006 34.7501C56.7779 35.1273 56.9898 35.639 56.9898 36.1725Z" fill="url(#paint47_linear_78_172369)"/>
<path style="mix-blend-mode:multiply" d="M65.3355 37.2855C65.3355 37.7003 65.2125 38.1058 64.9821 38.4507C64.7516 38.7956 64.4241 39.0644 64.0408 39.2231C63.6576 39.3818 63.2359 39.4234 62.8291 39.3425C62.4223 39.2615 62.0486 39.0618 61.7553 38.7685C61.462 38.4752 61.2622 38.1015 61.1813 37.6946C61.1004 37.2878 61.1419 36.8661 61.3006 36.4829C61.4594 36.0997 61.7282 35.7721 62.0731 35.5417C62.418 35.3112 62.8234 35.1882 63.2382 35.1882C63.7945 35.1882 64.3279 35.4092 64.7212 35.8025C65.1145 36.1958 65.3355 36.7293 65.3355 37.2855Z" fill="url(#paint48_linear_78_172369)"/>
<path style="mix-blend-mode:multiply" d="M62.9385 43.3204C62.9384 43.6354 62.8444 43.9433 62.6684 44.2045C62.4924 44.4658 62.2425 44.6687 61.9506 44.7872C61.6587 44.9057 61.3382 44.9344 61.0298 44.8698C60.7215 44.8051 60.4395 44.65 60.2198 44.4242C60.0002 44.1984 59.8528 43.9123 59.7966 43.6023C59.7404 43.2923 59.778 42.9727 59.9044 42.6841C60.0309 42.3956 60.2405 42.1514 60.5065 41.9826C60.7725 41.8139 61.0828 41.7283 61.3977 41.7368C61.8102 41.7479 62.2021 41.9197 62.4899 42.2155C62.7777 42.5113 62.9387 42.9077 62.9385 43.3204Z" fill="url(#paint49_linear_78_172369)"/>
<path style="mix-blend-mode:multiply" d="M55.9195 41.7796C55.9173 42.2031 55.7869 42.6159 55.5456 42.9639C55.3042 43.3119 54.9632 43.5786 54.5674 43.7291C54.1716 43.8795 53.7394 43.9066 53.3279 43.8068C52.9164 43.707 52.5447 43.485 52.2618 43.1699C51.9788 42.8548 51.7979 42.4615 51.7428 42.0416C51.6877 41.6217 51.761 41.195 51.953 40.8176C52.145 40.4402 52.4468 40.1297 52.8187 39.9271C53.1905 39.7245 53.615 39.6391 54.0362 39.6823C54.5546 39.7355 55.0346 39.9797 55.3827 40.3674C55.7308 40.7551 55.9222 41.2585 55.9195 41.7796Z" fill="url(#paint50_linear_78_172369)"/>
<g style="mix-blend-mode:multiply">
<path d="M47.4446 50.5965C48.3428 50.5965 49.071 49.8683 49.071 48.9701C49.071 48.0718 48.3428 47.3436 47.4446 47.3436C46.5463 47.3436 45.8181 48.0718 45.8181 48.9701C45.8181 49.8683 46.5463 50.5965 47.4446 50.5965Z" fill="url(#paint51_linear_78_172369)"/>
</g>
<path style="mix-blend-mode:multiply" d="M39.0131 47.3437C39.0474 47.6876 39.0042 48.0347 38.8867 48.3597C38.7691 48.6846 38.5802 48.9791 38.3338 49.2213C38.0874 49.4636 37.7898 49.6476 37.463 49.7597C37.1361 49.8717 36.7882 49.9091 36.445 49.869C36.0121 49.8184 35.6022 49.6464 35.2629 49.3729C34.9235 49.0993 34.6684 48.7354 34.527 48.323C34.3856 47.9107 34.3637 47.4668 34.4638 47.0425C34.5639 46.6183 34.7819 46.231 35.0928 45.9254C35.4036 45.6197 35.7945 45.4082 36.2203 45.3153C36.6462 45.2223 37.0897 45.2517 37.4996 45.4C37.9095 45.5483 38.2691 45.8095 38.5369 46.1534C38.8047 46.4973 38.9698 46.91 39.0131 47.3437Z" fill="url(#paint52_linear_78_172369)"/>
<path style="mix-blend-mode:multiply" d="M32.721 55.9468C33.7848 55.9468 34.6471 55.0845 34.6471 54.0208C34.6471 52.957 33.7848 52.0947 32.721 52.0947C31.6573 52.0947 30.795 52.957 30.795 54.0208C30.795 55.0845 31.6573 55.9468 32.721 55.9468Z" fill="url(#paint53_linear_78_172369)"/>
<path d="M19.795 31.1649C19.872 32.7016 20.5371 34.1498 21.6526 35.2096C22.7681 36.2693 24.2486 36.8594 25.7872 36.8574C28.4837 36.515 30.0673 33.3905 29.4681 29.9236C28.8689 26.4567 26.0868 23.8459 23.4331 24.1883C20.7795 24.5307 19.1958 27.6552 19.795 31.1649Z" fill="url(#paint54_linear_78_172369)"/>
<path d="M19.7951 32.3634C19.8889 33.0299 20.1149 33.671 20.46 34.249C20.8051 34.827 21.2622 35.3301 21.8045 35.7289C22.3468 36.1276 22.9634 36.414 23.6179 36.571C24.2725 36.7281 24.9518 36.7527 25.6161 36.6435C26.882 36.1781 27.9188 35.2408 28.5092 34.0281C29.0996 32.8154 29.1979 31.4212 28.7833 30.1377C27.9273 26.5852 25.3593 24.4451 22.7484 25.13C21.4332 25.7393 20.3975 26.824 19.8496 28.166C19.3017 29.508 19.2822 31.0076 19.7951 32.3634Z" fill="black"/>
<path d="M28.6119 30.1805C29.0857 31.4294 29.0455 32.8151 28.5 34.0344C27.9545 35.2536 26.9483 36.2072 25.7015 36.6863C25.0354 36.7965 24.3541 36.7742 23.6965 36.6208C23.039 36.4674 22.4182 36.1858 21.8696 35.7923C21.321 35.3987 20.8554 34.9009 20.4994 34.3272C20.1434 33.7535 19.904 33.1153 19.7949 32.449C19.3311 31.1934 19.3757 29.8064 19.9194 28.5832C20.463 27.3601 21.4626 26.3975 22.7054 25.9004C23.3753 25.7847 24.0615 25.8042 24.7237 25.9579C25.3859 26.1115 26.0107 26.3962 26.5611 26.7951C27.1116 27.1939 27.5766 27.699 27.9289 28.2804C28.2811 28.8619 28.5133 29.5079 28.6119 30.1805Z" fill="url(#paint55_radial_78_172369)"/>
<path style="mix-blend-mode:screen" opacity="0.9" d="M21.8499 27.5269C21.9366 27.7485 22.104 27.9291 22.3184 28.0323C22.5327 28.1355 22.7783 28.1538 23.0056 28.0833C23.2553 28.0039 23.4632 27.8285 23.5836 27.5957C23.704 27.3629 23.727 27.0918 23.6476 26.8421C23.5681 26.5924 23.3927 26.3844 23.1599 26.264C22.9271 26.1436 22.6561 26.1206 22.4063 26.2001C22.2756 26.2411 22.1555 26.3102 22.0542 26.4025C21.9529 26.4947 21.873 26.608 21.8201 26.7343C21.7671 26.8606 21.7423 26.997 21.7475 27.1339C21.7526 27.2708 21.7876 27.4049 21.8499 27.5269Z" fill="url(#paint56_radial_78_172369)"/>
<path d="M19.7951 32.4062C19.3418 31.1061 19.4203 29.6797 20.0134 28.4373C20.6066 27.1948 21.6664 26.2369 22.9623 25.772C24.2973 25.5975 25.648 25.9452 26.7326 26.7428C27.8172 27.5403 28.5519 28.7259 28.7833 30.0521C29.2162 31.3475 29.133 32.7599 28.5511 33.9956C27.9691 35.2312 26.9332 36.195 25.6588 36.6863C24.3189 36.8618 22.9627 36.5153 21.8712 35.7186C20.7797 34.9218 20.0363 33.7359 19.7951 32.4062ZM20.0519 32.4062C20.2333 33.6901 20.9056 34.8536 21.9274 35.6519C22.9492 36.4501 24.2408 36.8209 25.5304 36.6863C26.7047 36.2081 27.6515 35.2988 28.1768 34.1448C28.702 32.9909 28.7659 31.6797 28.3553 30.4801C28.1743 29.2204 27.5205 28.0769 26.5268 27.2819C25.533 26.4869 24.2738 26.1 23.0052 26.2C21.8413 26.6698 20.8962 27.5596 20.3572 28.6931C19.8182 29.8266 19.7245 31.1212 20.0947 32.3206L20.0519 32.4062Z" fill="black"/>
<path d="M23.6904 28.2116C24.6096 28.0768 25.5449 28.3119 26.291 28.8655C27.0372 29.4191 27.5334 30.246 27.6709 31.1649C27.794 31.6061 27.8285 32.0674 27.7723 32.5221C27.7161 32.9767 27.5704 33.4157 27.3436 33.8137C27.1167 34.2117 26.8132 34.5608 26.4507 34.8408C26.0881 35.1208 25.6736 35.3262 25.2312 35.445C24.3119 35.5799 23.3767 35.3447 22.6305 34.7911C21.8844 34.2375 21.3882 33.4106 21.2507 32.4917C21.1215 32.0505 21.0825 31.5878 21.136 31.1311C21.1894 30.6745 21.3343 30.2333 21.562 29.8338C21.7897 29.4344 22.0955 29.0849 22.4612 28.8062C22.8268 28.5275 23.2449 28.3253 23.6904 28.2116Z" fill="url(#paint57_radial_78_172369)"/>
<path d="M24.0756 29.8381C24.746 29.7265 25.4338 29.8722 26.0014 30.246C26.569 30.6198 26.9745 31.1942 27.1368 31.8541C27.2991 32.5141 27.2062 33.211 26.8767 33.8054C26.5472 34.3998 26.0054 34.8478 25.3597 35.0599C24.6851 35.1723 23.9933 35.0156 23.4331 34.6234C22.8728 34.2313 22.4888 33.6349 22.3636 32.9626C22.1894 32.3215 22.2704 31.6378 22.5897 31.0552C22.9089 30.4726 23.4415 30.0363 24.0756 29.8381Z" fill="black"/>
<path style="mix-blend-mode:screen" opacity="0.5" d="M26.7291 32.1063C26.7414 32.2813 26.6861 32.4543 26.5746 32.5897C26.4632 32.725 26.304 32.8125 26.1299 32.834C26.04 32.8398 25.9497 32.8277 25.8644 32.7986C25.7791 32.7694 25.7004 32.7237 25.6328 32.6641C25.5652 32.6044 25.51 32.532 25.4705 32.451C25.4309 32.37 25.4078 32.2819 25.4023 32.1919C25.3964 32.1041 25.4087 32.016 25.4383 31.9331C25.4679 31.8502 25.5143 31.7743 25.5745 31.71C25.6347 31.6458 25.7075 31.5947 25.7883 31.5598C25.8692 31.5248 25.9563 31.5069 26.0443 31.5071C26.1299 31.4948 26.2171 31.5011 26.3 31.5256C26.3829 31.5501 26.4595 31.5923 26.5245 31.6492C26.5896 31.7062 26.6416 31.7765 26.6769 31.8554C26.7122 31.9343 26.73 32.0199 26.7291 32.1063Z" fill="url(#paint58_radial_78_172369)"/>
<path style="mix-blend-mode:screen" d="M22.5343 29.4528C21.721 30.2233 21.4642 31.2077 21.8494 31.6785C22.2346 32.1493 23.2619 31.6785 24.0323 31.1649C24.8027 30.6513 25.1023 29.4528 24.6743 28.982C24.2463 28.5112 23.3047 28.7252 22.5343 29.4528Z" fill="url(#paint59_linear_78_172369)"/>
<path style="mix-blend-mode:screen" opacity="0.7" d="M50.612 11.6477C50.612 11.6477 46.9311 4.4143 50.0556 2.27424C52.3669 0.733401 61.2267 0.819004 62.5964 3.30147C63.966 5.78394 63.2812 8.48042 58.3162 13.1029C57.0739 13.8354 55.6077 14.0916 54.1905 13.8239C52.7733 13.5563 51.5016 12.7829 50.612 11.6477Z" fill="url(#paint60_linear_78_172369)"/>
<path style="mix-blend-mode:screen" d="M49.7559 9.42192C49.7559 9.42192 48.1295 4.79939 50.0555 2.78773C51.916 1.85732 53.9676 1.37292 56.0477 1.37292C58.1279 1.37292 60.1794 1.85732 62.0399 2.78773C58.3534 1.66979 54.3948 1.8511 50.826 3.30135C49.7559 4.28578 49.7559 7.83828 49.7559 9.42192Z" fill="url(#paint61_linear_78_172369)"/>
<path style="mix-blend-mode:screen" opacity="0.7" d="M70.7712 15.6708C70.7712 14.8576 78.1758 7.88098 80.7011 9.20782C82.3578 10.4451 83.658 12.0983 84.4698 14C85.2816 15.9017 85.5762 17.9843 85.3236 20.0365C84.1252 23.3322 74.7945 24.0598 74.1953 23.4178C74.4949 21.9198 72.1837 15.7136 70.7712 15.6708Z" fill="url(#paint62_linear_78_172369)"/>
<path style="mix-blend-mode:screen" d="M74.2382 12.8031C73.425 13.2739 78.9036 7.96653 81.0864 9.80698C82.4142 11.2081 83.409 12.8905 83.9969 14.7291C83.4958 13.9466 82.8416 13.2736 82.0736 12.7505C81.3057 12.2273 80.4399 11.8649 79.5283 11.685C78.6167 11.5051 77.6781 11.5114 76.769 11.7035C75.8599 11.8956 74.9991 12.2697 74.2382 12.8031Z" fill="url(#paint63_linear_78_172369)"/>
<path style="mix-blend-mode:screen" opacity="0.7" d="M39.6546 38.655C39.9114 36.9002 43.5495 29.3672 47.102 28.982C52.9658 28.3828 45.0476 39.6823 42.4795 41.3943C39.9114 43.1064 39.4834 40.1103 39.6546 38.655Z" fill="url(#paint64_linear_78_172369)"/>
<path style="mix-blend-mode:screen" d="M40.2113 39.2545C39.6548 37.2856 43.5925 29.667 47.1022 29.1962C44.1277 32.0307 41.7803 35.4571 40.2113 39.2545Z" fill="url(#paint65_linear_78_172369)"/>
<path style="mix-blend-mode:screen" opacity="0.7" d="M27.0715 18.881C27.0715 18.881 43.2076 10.3208 54.7211 14.6009C58.2308 15.8421 59.472 16.4414 62.8961 17.7682C64.8222 18.4958 62.5965 22.7331 58.616 25.0872C54.6355 27.4413 42.6084 30.4801 37.729 25.6008C32.8497 20.7215 30.196 18.5386 27.0715 18.881Z" fill="url(#paint66_linear_78_172369)"/>
<path style="mix-blend-mode:screen" d="M16.2431 26.9276C17.3559 20.9354 22.8773 17.4257 30.3247 22.6475C23.6049 20.1222 19.4104 21.5347 16.2431 26.9276Z" fill="url(#paint67_linear_78_172369)"/>
<path style="mix-blend-mode:screen" opacity="0.8" d="M4.55816 42.7214C2.84611 41.6514 6.48421 40.7097 8.49587 37.4141C9.47301 35.2421 9.78574 32.8296 9.3947 30.4803C9.26505 29.2902 9.37676 28.0861 9.72315 26.9402C10.0695 25.7943 10.6435 24.73 11.4107 23.811C12.1778 22.8919 13.1225 22.1371 14.1881 21.5916C15.2537 21.046 16.4184 20.721 17.6125 20.636C19.1106 20.636 15.9861 23.9317 15.3441 25.3869C14.1685 28.0786 13.84 31.0643 14.4024 33.9472C15.5153 39.6825 19.7954 42.807 18.8966 43.5346C16.7828 45.0822 14.1971 45.8473 11.5815 45.6989C8.96604 45.5506 6.48335 44.4981 4.55816 42.7214Z" fill="url(#paint68_linear_78_172369)"/>
<path style="mix-blend-mode:screen" opacity="0.6" d="M4.90063 41.309C6.38943 40.5629 7.64418 39.4215 8.52747 38.0097C9.41075 36.598 9.8885 34.9704 9.90838 33.3052C10.1224 27.9979 8.49594 23.7177 15.9861 20.9357C8.79555 24.6594 11.2352 29.4959 11.0212 33.776C10.751 35.458 10.0432 37.0394 8.96898 38.3616C7.89472 39.6837 6.4917 40.7002 4.90063 41.309Z" fill="url(#paint69_linear_78_172369)"/>
<path style="mix-blend-mode:screen" d="M1.51933 45.161C1.36046 44.7372 1.35954 44.2703 1.51674 43.8459C1.67394 43.4214 1.97874 43.0678 2.37536 42.8497C2.94435 42.7758 3.52281 42.8424 4.06006 43.0439C4.59731 43.2454 5.07697 43.5755 5.45704 44.0053C6.4301 44.7857 7.63405 45.2222 8.88114 45.2466C8.20673 45.6472 7.4443 45.8763 6.66074 45.9136C5.87718 45.9509 5.09644 45.7953 4.38701 45.4606C3.14578 44.6046 2.93177 44.2193 2.63216 44.3906C2.33255 44.5618 2.63216 44.947 2.63216 45.2894C2.63216 45.6318 1.99014 46.0598 1.51933 45.161Z" fill="url(#paint70_linear_78_172369)"/>
<path style="mix-blend-mode:screen" d="M5.9275 48.9275C5.9275 48.9275 5.9275 48.5851 5.9275 48.5423C5.9275 48.4995 5.71349 48.5423 5.62789 48.5423C5.54229 48.5423 5.62789 48.8847 5.62789 48.9275C5.62789 48.9704 5.79909 49.0988 5.9275 48.9275Z" fill="url(#paint71_linear_78_172369)"/>
<path style="mix-blend-mode:screen" d="M29.1683 18.881C31.0515 16.3985 47.316 10.7487 55.9618 15.5853C50.6117 13.3596 34.0048 16.4841 29.1683 18.881Z" fill="url(#paint72_linear_78_172369)"/>
<path style="mix-blend-mode:screen" opacity="0.32" d="M63.8803 18.5812C64.6079 17.7679 67.2187 18.2387 69.4016 16.5267C70.0864 15.9703 73.6817 21.406 72.7829 22.2193C71.8841 23.0325 68.5028 22.7329 66.1915 23.6745C63.8803 24.6161 62.5962 19.7796 63.8803 18.5812Z" fill="url(#paint73_linear_78_172369)"/>
<path style="mix-blend-mode:screen" opacity="0.8" d="M21.7641 36.7717C22.5116 37.3274 23.384 37.6912 24.3048 37.8312C25.2256 37.9712 26.1667 37.8831 27.0455 37.5746C27.9244 37.2662 28.7141 36.7468 29.3455 36.0621C29.9768 35.3773 30.4305 34.5481 30.6668 33.6472C30.7178 34.7063 30.4255 35.7536 29.8334 36.6331C29.2412 37.5127 28.3808 38.1775 27.3804 38.5286C26.3799 38.8798 25.2927 38.8984 24.2808 38.5819C23.2688 38.2653 22.3861 37.6304 21.7641 36.7717Z" fill="url(#paint74_linear_78_172369)"/>
<path style="mix-blend-mode:screen" d="M3.65952 49.1411C3.65952 48.6703 4.42994 48.3707 4.30153 49.1411C4.17313 49.9115 5.28596 49.9544 5.79958 49.7831C6.31319 49.6119 6.01358 50.9816 4.21593 50.5108C3.40271 50.3396 3.57391 49.3551 3.65952 49.1411Z" fill="url(#paint75_linear_78_172369)"/>
<defs>
<linearGradient id="paint0_linear_78_172369" x1="48.215" y1="6.59701" x2="69.8724" y2="9.6787" gradientUnits="userSpaceOnUse">
<stop stop-color="#F69807"/>
<stop offset="0.61" stop-color="#ED7D02"/>
<stop offset="1" stop-color="#E97200"/>
</linearGradient>
<linearGradient id="paint1_linear_78_172369" x1="51.2113" y1="4.24288" x2="65.4213" y2="13.7019" gradientUnits="userSpaceOnUse">
<stop stop-color="#FAE134"/>
<stop offset="0.43" stop-color="#F7B619"/>
<stop offset="0.79" stop-color="#F69707"/>
<stop offset="1" stop-color="#F58C00"/>
</linearGradient>
<linearGradient id="paint2_linear_78_172369" x1="60.2851" y1="38.1844" x2="76.464" y2="41.6085" gradientUnits="userSpaceOnUse">
<stop stop-color="#F69807"/>
<stop offset="0.61" stop-color="#ED7D02"/>
<stop offset="1" stop-color="#E97200"/>
</linearGradient>
<linearGradient id="paint3_linear_78_172369" x1="64.7364" y1="38.1846" x2="76.1644" y2="42.3791" gradientUnits="userSpaceOnUse">
<stop stop-color="#FAE134"/>
<stop offset="0.43" stop-color="#F7B619"/>
<stop offset="0.79" stop-color="#F69707"/>
<stop offset="1" stop-color="#F58C00"/>
</linearGradient>
<linearGradient id="paint4_linear_78_172369" x1="74.6663" y1="39.1261" x2="61.2695" y2="40.4529" gradientUnits="userSpaceOnUse">
<stop stop-color="white"/>
<stop offset="0.17" stop-color="#BEBEBE"/>
<stop offset="0.33" stop-color="#848484"/>
<stop offset="0.49" stop-color="#555555"/>
<stop offset="0.64" stop-color="#303030"/>
<stop offset="0.78" stop-color="#161616"/>
<stop offset="0.9" stop-color="#060606"/>
<stop offset="1"/>
</linearGradient>
<linearGradient id="paint5_linear_78_172369" x1="74.966" y1="10.92" x2="81.3862" y2="32.4918" gradientUnits="userSpaceOnUse">
<stop stop-color="#F69807"/>
<stop offset="0.61" stop-color="#ED7D02"/>
<stop offset="1" stop-color="#E97200"/>
</linearGradient>
<linearGradient id="paint6_linear_78_172369" x1="75.3083" y1="11.9042" x2="79.8025" y2="27.1842" gradientUnits="userSpaceOnUse">
<stop stop-color="#FAE134"/>
<stop offset="0.43" stop-color="#F7B619"/>
<stop offset="0.79" stop-color="#F69707"/>
<stop offset="1" stop-color="#F58C00"/>
</linearGradient>
<linearGradient id="paint7_linear_78_172369" x1="26.4722" y1="18.41" x2="50.3981" y2="51.9661" gradientUnits="userSpaceOnUse">
<stop stop-color="#EF9D0A"/>
<stop offset="0.32" stop-color="#EB8C07"/>
<stop offset="0.95" stop-color="#E26101"/>
<stop offset="1" stop-color="#E15D00"/>
</linearGradient>
<linearGradient id="paint8_linear_78_172369" x1="28.4409" y1="14.7291" x2="47.359" y2="54.149" gradientUnits="userSpaceOnUse">
<stop stop-color="#F8AD06"/>
<stop offset="1" stop-color="#E87700"/>
</linearGradient>
<linearGradient id="paint9_linear_78_172369" x1="20.3518" y1="18.5815" x2="39.27" y2="58.0442" gradientUnits="userSpaceOnUse">
<stop stop-color="#F8AD06"/>
<stop offset="1" stop-color="#E87700"/>
</linearGradient>
<linearGradient id="paint10_linear_78_172369" x1="-0.963776" y1="28.8106" x2="17.9544" y2="68.2733" gradientUnits="userSpaceOnUse">
<stop stop-color="#F8AD06"/>
<stop offset="1" stop-color="#E87700"/>
</linearGradient>
<linearGradient id="paint11_linear_78_172369" x1="45.6903" y1="28.8106" x2="46.3751" y2="38.1413" gradientUnits="userSpaceOnUse">
<stop stop-color="#EF9D0A"/>
<stop offset="0.32" stop-color="#EB8C07"/>
<stop offset="0.95" stop-color="#E26101"/>
<stop offset="1" stop-color="#E15D00"/>
</linearGradient>
<linearGradient id="paint12_linear_78_172369" x1="40.8105" y1="33.6047" x2="49.7131" y2="39.4256" gradientUnits="userSpaceOnUse">
<stop stop-color="#F69807"/>
<stop offset="0.61" stop-color="#ED7D02"/>
<stop offset="1" stop-color="#E97200"/>
</linearGradient>
<linearGradient id="paint13_linear_78_172369" x1="41.7521" y1="32.7912" x2="47.6587" y2="39.1686" gradientUnits="userSpaceOnUse">
<stop stop-color="#FAE134"/>
<stop offset="0.43" stop-color="#F7B619"/>
<stop offset="0.79" stop-color="#F69707"/>
<stop offset="1" stop-color="#F58C00"/>
</linearGradient>
<radialGradient id="paint14_radial_78_172369" cx="0" cy="0" r="1" gradientUnits="userSpaceOnUse" gradientTransform="translate(5.7564 46.9158) scale(2.35407)">
<stop stop-color="#FD9F9F"/>
<stop offset="1" stop-color="#F37171"/>
</radialGradient>
<linearGradient id="paint15_linear_78_172369" x1="5.45671" y1="47.6861" x2="6.56954" y2="49.1414" gradientUnits="userSpaceOnUse">
<stop stop-color="#F5B8B8"/>
<stop offset="1" stop-color="#FF9999"/>
</linearGradient>
<linearGradient id="paint16_linear_78_172369" x1="10.3788" y1="23.3752" x2="29.297" y2="62.8379" gradientUnits="userSpaceOnUse">
<stop stop-color="#F8AD06"/>
<stop offset="1" stop-color="#E87700"/>
</linearGradient>
<linearGradient id="paint17_linear_78_172369" x1="7.89645" y1="24.5733" x2="26.8574" y2="63.9932" gradientUnits="userSpaceOnUse">
<stop stop-color="#F8AD06"/>
<stop offset="1" stop-color="#E87700"/>
</linearGradient>
<linearGradient id="paint18_linear_78_172369" x1="2.20369" y1="27.27" x2="21.1218" y2="66.7327" gradientUnits="userSpaceOnUse">
<stop stop-color="#F8AD06"/>
<stop offset="1" stop-color="#E87700"/>
</linearGradient>
<linearGradient id="paint19_linear_78_172369" x1="5.07195" y1="25.9432" x2="23.9901" y2="65.3631" gradientUnits="userSpaceOnUse">
<stop stop-color="#F8AD06"/>
<stop offset="1" stop-color="#E87700"/>
</linearGradient>
<linearGradient id="paint20_linear_78_172369" x1="9.09483" y1="23.9744" x2="28.013" y2="63.4371" gradientUnits="userSpaceOnUse">
<stop stop-color="#F8AD06"/>
<stop offset="1" stop-color="#E87700"/>
</linearGradient>
<linearGradient id="paint21_linear_78_172369" x1="13.1184" y1="22.0483" x2="32.0793" y2="61.5109" gradientUnits="userSpaceOnUse">
<stop stop-color="#F8AD06"/>
<stop offset="1" stop-color="#E87700"/>
</linearGradient>
<linearGradient id="paint22_linear_78_172369" x1="8.88082" y1="24.1027" x2="27.7989" y2="63.5226" gradientUnits="userSpaceOnUse">
<stop stop-color="#F8AD06"/>
<stop offset="1" stop-color="#E87700"/>
</linearGradient>
<linearGradient id="paint23_linear_78_172369" x1="2.3753" y1="27.2273" x2="21.2934" y2="66.6472" gradientUnits="userSpaceOnUse">
<stop stop-color="#F8AD06"/>
<stop offset="1" stop-color="#E87700"/>
</linearGradient>
<linearGradient id="paint24_linear_78_172369" x1="13.2041" y1="22.0055" x2="32.1222" y2="61.4682" gradientUnits="userSpaceOnUse">
<stop stop-color="#F8AD06"/>
<stop offset="1" stop-color="#E87700"/>
</linearGradient>
<linearGradient id="paint25_linear_78_172369" x1="10.4647" y1="23.3324" x2="29.3828" y2="62.7951" gradientUnits="userSpaceOnUse">
<stop stop-color="#F8AD06"/>
<stop offset="1" stop-color="#E87700"/>
</linearGradient>
<linearGradient id="paint26_linear_78_172369" x1="11.4061" y1="22.8616" x2="30.367" y2="62.3243" gradientUnits="userSpaceOnUse">
<stop stop-color="#F8AD06"/>
<stop offset="1" stop-color="#E87700"/>
</linearGradient>
<linearGradient id="paint27_linear_78_172369" x1="16.842" y1="20.2936" x2="35.7602" y2="59.7135" gradientUnits="userSpaceOnUse">
<stop stop-color="#F8AD06"/>
<stop offset="1" stop-color="#E87700"/>
</linearGradient>
<linearGradient id="paint28_linear_78_172369" x1="17.2271" y1="20.0797" x2="36.1452" y2="59.5424" gradientUnits="userSpaceOnUse">
<stop stop-color="#F8AD06"/>
<stop offset="1" stop-color="#E87700"/>
</linearGradient>
<linearGradient id="paint29_linear_78_172369" x1="22.2352" y1="17.6826" x2="41.1534" y2="57.1454" gradientUnits="userSpaceOnUse">
<stop stop-color="#F8AD06"/>
<stop offset="1" stop-color="#E87700"/>
</linearGradient>
<linearGradient id="paint30_linear_78_172369" x1="28.184" y1="14.8149" x2="47.1021" y2="54.2776" gradientUnits="userSpaceOnUse">
<stop stop-color="#F8AD06"/>
<stop offset="1" stop-color="#E87700"/>
</linearGradient>
<linearGradient id="paint31_linear_78_172369" x1="21.1218" y1="18.2387" x2="40.0399" y2="57.6586" gradientUnits="userSpaceOnUse">
<stop stop-color="#F8AD06"/>
<stop offset="1" stop-color="#E87700"/>
</linearGradient>
<linearGradient id="paint32_linear_78_172369" x1="23.1767" y1="19.4374" x2="26.8576" y2="41.0092" gradientUnits="userSpaceOnUse">
<stop stop-color="white"/>
<stop offset="0.17" stop-color="#BEBEBE"/>
<stop offset="0.33" stop-color="#848484"/>
<stop offset="0.49" stop-color="#555555"/>
<stop offset="0.64" stop-color="#303030"/>
<stop offset="0.78" stop-color="#161616"/>
<stop offset="0.9" stop-color="#060606"/>
<stop offset="1"/>
</linearGradient>
<linearGradient id="paint33_linear_78_172369" x1="32.1649" y1="12.9317" x2="51.0831" y2="52.3516" gradientUnits="userSpaceOnUse">
<stop stop-color="#F8AD06"/>
<stop offset="1" stop-color="#E87700"/>
</linearGradient>
<linearGradient id="paint34_linear_78_172369" x1="34.1335" y1="11.99" x2="53.0517" y2="51.4527" gradientUnits="userSpaceOnUse">
<stop stop-color="#F8AD06"/>
<stop offset="1" stop-color="#E87700"/>
</linearGradient>
<linearGradient id="paint35_linear_78_172369" x1="38.1568" y1="10.0637" x2="57.0749" y2="49.4836" gradientUnits="userSpaceOnUse">
<stop stop-color="#F8AD06"/>
<stop offset="1" stop-color="#E87700"/>
</linearGradient>
<linearGradient id="paint36_linear_78_172369" x1="43.2504" y1="7.58115" x2="62.2114" y2="47.0438" gradientUnits="userSpaceOnUse">
<stop stop-color="#F8AD06"/>
<stop offset="1" stop-color="#E87700"/>
</linearGradient>
<linearGradient id="paint37_linear_78_172369" x1="48.13" y1="5.27003" x2="67.0909" y2="44.6899" gradientUnits="userSpaceOnUse">
<stop stop-color="#F8AD06"/>
<stop offset="1" stop-color="#E87700"/>
</linearGradient>
<linearGradient id="paint38_linear_78_172369" x1="37.4298" y1="10.4062" x2="56.3479" y2="49.8262" gradientUnits="userSpaceOnUse">
<stop stop-color="#F8AD06"/>
<stop offset="1" stop-color="#E87700"/>
</linearGradient>
<linearGradient id="paint39_linear_78_172369" x1="35.0322" y1="11.5618" x2="53.9503" y2="50.9817" gradientUnits="userSpaceOnUse">
<stop stop-color="#F8AD06"/>
<stop offset="1" stop-color="#E87700"/>
</linearGradient>
<linearGradient id="paint40_linear_78_172369" x1="28.0129" y1="14.9002" x2="46.931" y2="54.363" gradientUnits="userSpaceOnUse">
<stop stop-color="#F8AD06"/>
<stop offset="1" stop-color="#E87700"/>
</linearGradient>
<linearGradient id="paint41_linear_78_172369" x1="42.7369" y1="7.83835" x2="61.6979" y2="47.3011" gradientUnits="userSpaceOnUse">
<stop stop-color="#F8AD06"/>
<stop offset="1" stop-color="#E87700"/>
</linearGradient>
<linearGradient id="paint42_linear_78_172369" x1="48.8144" y1="4.92761" x2="67.7325" y2="44.3903" gradientUnits="userSpaceOnUse">
<stop stop-color="#F8AD06"/>
<stop offset="1" stop-color="#E87700"/>
</linearGradient>
<linearGradient id="paint43_linear_78_172369" x1="48.7719" y1="4.92754" x2="67.7328" y2="44.3903" gradientUnits="userSpaceOnUse">
<stop stop-color="#F8AD06"/>
<stop offset="1" stop-color="#E87700"/>
</linearGradient>
<linearGradient id="paint44_linear_78_172369" x1="53.865" y1="2.48806" x2="72.7832" y2="41.9508" gradientUnits="userSpaceOnUse">
<stop stop-color="#F8AD06"/>
<stop offset="1" stop-color="#E87700"/>
</linearGradient>
<linearGradient id="paint45_linear_78_172369" x1="53.8652" y1="2.48797" x2="72.7833" y2="41.9507" gradientUnits="userSpaceOnUse">
<stop stop-color="#F8AD06"/>
<stop offset="1" stop-color="#E87700"/>
</linearGradient>
<linearGradient id="paint46_linear_78_172369" x1="59.3435" y1="-0.122993" x2="78.2616" y2="39.3397" gradientUnits="userSpaceOnUse">
<stop stop-color="#F8AD06"/>
<stop offset="1" stop-color="#E87700"/>
</linearGradient>
<linearGradient id="paint47_linear_78_172369" x1="41.6242" y1="8.39458" x2="60.5423" y2="47.8145" gradientUnits="userSpaceOnUse">
<stop stop-color="#F8AD06"/>
<stop offset="1" stop-color="#E87700"/>
</linearGradient>
<linearGradient id="paint48_linear_78_172369" x1="47.9582" y1="5.3558" x2="66.8764" y2="44.8185" gradientUnits="userSpaceOnUse">
<stop stop-color="#F8AD06"/>
<stop offset="1" stop-color="#E87700"/>
</linearGradient>
<linearGradient id="paint49_linear_78_172369" x1="44.0632" y1="7.23901" x2="62.9813" y2="46.6589" gradientUnits="userSpaceOnUse">
<stop stop-color="#F8AD06"/>
<stop offset="1" stop-color="#E87700"/>
</linearGradient>
<linearGradient id="paint50_linear_78_172369" x1="38.4994" y1="9.89269" x2="57.4175" y2="49.3126" gradientUnits="userSpaceOnUse">
<stop stop-color="#F8AD06"/>
<stop offset="1" stop-color="#E87700"/>
</linearGradient>
<linearGradient id="paint51_linear_78_172369" x1="30.4953" y1="13.7019" x2="49.4562" y2="53.1646" gradientUnits="userSpaceOnUse">
<stop stop-color="#F8AD06"/>
<stop offset="1" stop-color="#E87700"/>
</linearGradient>
<linearGradient id="paint52_linear_78_172369" x1="22.3634" y1="17.6397" x2="41.2816" y2="57.1024" gradientUnits="userSpaceOnUse">
<stop stop-color="#F8AD06"/>
<stop offset="1" stop-color="#E87700"/>
</linearGradient>
<linearGradient id="paint53_linear_78_172369" x1="16.585" y1="20.3791" x2="35.5031" y2="59.8417" gradientUnits="userSpaceOnUse">
<stop stop-color="#F8AD06"/>
<stop offset="1" stop-color="#E87700"/>
</linearGradient>
<linearGradient id="paint54_linear_78_172369" x1="23.1763" y1="24.2311" x2="26.472" y2="38.6123" gradientUnits="userSpaceOnUse">
<stop stop-color="#EF9D0A"/>
<stop offset="0.32" stop-color="#EB8C07"/>
<stop offset="0.95" stop-color="#E26101"/>
<stop offset="1" stop-color="#E15D00"/>
</linearGradient>
<radialGradient id="paint55_radial_78_172369" cx="0" cy="0" r="1" gradientUnits="userSpaceOnUse" gradientTransform="translate(63.9178 15.2027) rotate(74.4049) scale(6.37628 5.20045)">
<stop stop-color="white"/>
<stop offset="0.54" stop-color="#ECECEC"/>
<stop offset="0.66" stop-color="#E9E9EA"/>
<stop offset="0.73" stop-color="#E1E1E2"/>
<stop offset="0.8" stop-color="#D2D2D6"/>
<stop offset="0.85" stop-color="#BDBDC4"/>
<stop offset="0.91" stop-color="#A2A2AD"/>
<stop offset="0.94" stop-color="#8C8C9A"/>
<stop offset="1" stop-color="#C5C5C5"/>
</radialGradient>
<radialGradient id="paint56_radial_78_172369" cx="0" cy="0" r="1" gradientUnits="userSpaceOnUse" gradientTransform="translate(17.8061 23.3718) rotate(160.71) scale(0.906941 0.938048)">
<stop stop-color="white"/>
<stop offset="0.04" stop-color="#EDEDED"/>
<stop offset="0.19" stop-color="#AFAFAF"/>
<stop offset="0.34" stop-color="#7A7A7A"/>
<stop offset="0.49" stop-color="#4E4E4E"/>
<stop offset="0.63" stop-color="#2C2C2C"/>
<stop offset="0.76" stop-color="#141414"/>
<stop offset="0.88" stop-color="#050505"/>
<stop offset="0.98"/>
</radialGradient>
<radialGradient id="paint57_radial_78_172369" cx="0" cy="0" r="1" gradientUnits="userSpaceOnUse" gradientTransform="translate(23.7096 37.003) rotate(166.103) scale(7.14244)">
<stop stop-color="#28F7FF"/>
<stop offset="0.06" stop-color="#23E8FF"/>
<stop offset="0.18" stop-color="#17C0FF"/>
<stop offset="0.34" stop-color="#037FFE"/>
<stop offset="0.35" stop-color="#0077FE"/>
<stop offset="0.9" stop-color="#0022A7"/>
<stop offset="1" stop-color="#001297"/>
</radialGradient>
<radialGradient id="paint58_radial_78_172369" cx="0" cy="0" r="1" gradientUnits="userSpaceOnUse" gradientTransform="translate(26.2669 34.7001) rotate(-3.2397) scale(0.636186 0.654135)">
<stop stop-color="white"/>
<stop offset="0.22" stop-color="#B3B3B3"/>
<stop offset="0.62" stop-color="#333333"/>
<stop offset="0.79"/>
<stop offset="1"/>
</radialGradient>
<linearGradient id="paint59_linear_78_172369" x1="22.5817" y1="29.4545" x2="23.9932" y2="31.1245" gradientUnits="userSpaceOnUse">
<stop stop-color="#B9B9B9"/>
<stop offset="0.04" stop-color="#ADADAD"/>
<stop offset="0.33" stop-color="#646464"/>
<stop offset="0.57" stop-color="#2E2E2E"/>
<stop offset="0.75" stop-color="#0D0D0D"/>
<stop offset="0.85"/>
<stop offset="0.98"/>
</linearGradient>
<linearGradient id="paint60_linear_78_172369" x1="53.7365" y1="0.562197" x2="59.0439" y2="13.2314" gradientUnits="userSpaceOnUse">
<stop stop-color="white"/>
<stop offset="0.17" stop-color="#BEBEBE"/>
<stop offset="0.33" stop-color="#848484"/>
<stop offset="0.49" stop-color="#555555"/>
<stop offset="0.64" stop-color="#303030"/>
<stop offset="0.78" stop-color="#161616"/>
<stop offset="0.9" stop-color="#060606"/>
<stop offset="1"/>
</linearGradient>
<linearGradient id="paint61_linear_78_172369" x1="52.7948" y1="2.27412" x2="54.7637" y2="4.71379" gradientUnits="userSpaceOnUse">
<stop stop-color="white"/>
<stop offset="0.17" stop-color="#BEBEBE"/>
<stop offset="0.33" stop-color="#848484"/>
<stop offset="0.49" stop-color="#555555"/>
<stop offset="0.64" stop-color="#303030"/>
<stop offset="0.78" stop-color="#161616"/>
<stop offset="0.9" stop-color="#060606"/>
<stop offset="1"/>
</linearGradient>
<linearGradient id="paint62_linear_78_172369" x1="75.6078" y1="10.1922" x2="81.0435" y2="22.7758" gradientUnits="userSpaceOnUse">
<stop stop-color="white"/>
<stop offset="0.17" stop-color="#BEBEBE"/>
<stop offset="0.33" stop-color="#848484"/>
<stop offset="0.49" stop-color="#555555"/>
<stop offset="0.64" stop-color="#303030"/>
<stop offset="0.78" stop-color="#161616"/>
<stop offset="0.9" stop-color="#060606"/>
<stop offset="1"/>
</linearGradient>
<linearGradient id="paint63_linear_78_172369" x1="77.6195" y1="10.4062" x2="79.9308" y2="15.5423" gradientUnits="userSpaceOnUse">
<stop stop-color="white"/>
<stop offset="0.17" stop-color="#BEBEBE"/>
<stop offset="0.33" stop-color="#848484"/>
<stop offset="0.49" stop-color="#555555"/>
<stop offset="0.64" stop-color="#303030"/>
<stop offset="0.78" stop-color="#161616"/>
<stop offset="0.9" stop-color="#060606"/>
<stop offset="1"/>
</linearGradient>
<linearGradient id="paint64_linear_78_172369" x1="41.8803" y1="33.7329" x2="47.3588" y2="37.3282" gradientUnits="userSpaceOnUse">
<stop stop-color="white"/>
<stop offset="0.17" stop-color="#BEBEBE"/>
<stop offset="0.33" stop-color="#848484"/>
<stop offset="0.49" stop-color="#555555"/>
<stop offset="0.64" stop-color="#303030"/>
<stop offset="0.78" stop-color="#161616"/>
<stop offset="0.9" stop-color="#060606"/>
<stop offset="1"/>
</linearGradient>
<linearGradient id="paint65_linear_78_172369" x1="42.3085" y1="33.3479" x2="44.0634" y2="34.5035" gradientUnits="userSpaceOnUse">
<stop stop-color="white"/>
<stop offset="0.17" stop-color="#BEBEBE"/>
<stop offset="0.33" stop-color="#848484"/>
<stop offset="0.49" stop-color="#555555"/>
<stop offset="0.64" stop-color="#303030"/>
<stop offset="0.78" stop-color="#161616"/>
<stop offset="0.9" stop-color="#060606"/>
<stop offset="1"/>
</linearGradient>
<linearGradient id="paint66_linear_78_172369" x1="44.7484" y1="14.3013" x2="46.6745" y2="29.5385" gradientUnits="userSpaceOnUse">
<stop stop-color="white"/>
<stop offset="0.17" stop-color="#BEBEBE"/>
<stop offset="0.33" stop-color="#848484"/>
<stop offset="0.49" stop-color="#555555"/>
<stop offset="0.64" stop-color="#303030"/>
<stop offset="0.78" stop-color="#161616"/>
<stop offset="0.9" stop-color="#060606"/>
<stop offset="1"/>
</linearGradient>
<linearGradient id="paint67_linear_78_172369" x1="21.6788" y1="19.951" x2="23.8189" y2="26.4568" gradientUnits="userSpaceOnUse">
<stop stop-color="white"/>
<stop offset="0.17" stop-color="#BEBEBE"/>
<stop offset="0.33" stop-color="#848484"/>
<stop offset="0.49" stop-color="#555555"/>
<stop offset="0.64" stop-color="#303030"/>
<stop offset="0.78" stop-color="#161616"/>
<stop offset="0.9" stop-color="#060606"/>
<stop offset="1"/>
</linearGradient>
<linearGradient id="paint68_linear_78_172369" x1="7.76825" y1="29.3246" x2="22.1923" y2="38.9977" gradientUnits="userSpaceOnUse">
<stop stop-color="#989898"/>
<stop offset="0.08" stop-color="#838383"/>
<stop offset="0.3" stop-color="#555555"/>
<stop offset="0.51" stop-color="#303030"/>
<stop offset="0.7" stop-color="#161616"/>
<stop offset="0.87" stop-color="#060606"/>
<stop offset="1"/>
</linearGradient>
<linearGradient id="paint69_linear_78_172369" x1="9.65157" y1="30.7799" x2="16.9278" y2="34.7177" gradientUnits="userSpaceOnUse">
<stop stop-color="white"/>
<stop offset="0.17" stop-color="#BEBEBE"/>
<stop offset="0.33" stop-color="#848484"/>
<stop offset="0.49" stop-color="#555555"/>
<stop offset="0.64" stop-color="#303030"/>
<stop offset="0.78" stop-color="#161616"/>
<stop offset="0.9" stop-color="#060606"/>
<stop offset="1"/>
</linearGradient>
<linearGradient id="paint70_linear_78_172369" x1="4.55822" y1="42.6357" x2="5.49984" y2="46.3594" gradientUnits="userSpaceOnUse">
<stop stop-color="#FFFF9D"/>
<stop offset="0.02" stop-color="#F8F898"/>
<stop offset="0.34" stop-color="#8F8F58"/>
<stop offset="0.59" stop-color="#424229"/>
<stop offset="0.77" stop-color="#12120B"/>
<stop offset="0.86"/>
<stop offset="1"/>
</linearGradient>
<linearGradient id="paint71_linear_78_172369" x1="5.71349" y1="48.7563" x2="6.0987" y2="49.0132" gradientUnits="userSpaceOnUse">
<stop stop-color="#F5B8B8"/>
<stop offset="0.02" stop-color="#E6ADAD"/>
<stop offset="0.13" stop-color="#AA8080"/>
<stop offset="0.24" stop-color="#765959"/>
<stop offset="0.34" stop-color="#4C3939"/>
<stop offset="0.44" stop-color="#2B2020"/>
<stop offset="0.53" stop-color="#130E0E"/>
<stop offset="0.62" stop-color="#050404"/>
<stop offset="0.69"/>
<stop offset="1"/>
</linearGradient>
<linearGradient id="paint72_linear_78_172369" x1="41.923" y1="14.0872" x2="42.7363" y2="18.1105" gradientUnits="userSpaceOnUse">
<stop stop-color="white"/>
<stop offset="0.17" stop-color="#BEBEBE"/>
<stop offset="0.33" stop-color="#848484"/>
<stop offset="0.49" stop-color="#555555"/>
<stop offset="0.64" stop-color="#303030"/>
<stop offset="0.78" stop-color="#161616"/>
<stop offset="0.9" stop-color="#060606"/>
<stop offset="1"/>
</linearGradient>
<linearGradient id="paint73_linear_78_172369" x1="67.2615" y1="16.1843" x2="68.5028" y2="22.3905" gradientUnits="userSpaceOnUse">
<stop stop-color="white"/>
<stop offset="0.17" stop-color="#BEBEBE"/>
<stop offset="0.33" stop-color="#848484"/>
<stop offset="0.49" stop-color="#555555"/>
<stop offset="0.64" stop-color="#303030"/>
<stop offset="0.78" stop-color="#161616"/>
<stop offset="0.9" stop-color="#060606"/>
<stop offset="1"/>
</linearGradient>
<linearGradient id="paint74_linear_78_172369" x1="24.589" y1="34.2892" x2="33.4489" y2="40.1958" gradientUnits="userSpaceOnUse">
<stop stop-color="#FFFFE2"/>
<stop offset="0.21" stop-color="#BEBEA8"/>
<stop offset="0.5" stop-color="#6E6E61"/>
<stop offset="0.74" stop-color="#32322D"/>
<stop offset="0.91" stop-color="#0E0E0C"/>
<stop offset="1"/>
</linearGradient>
<linearGradient id="paint75_linear_78_172369" x1="3.91632" y1="48.4991" x2="5.32877" y2="50.7676" gradientUnits="userSpaceOnUse">
<stop stop-color="#FFFF9D"/>
<stop offset="0.02" stop-color="#F8F898"/>
<stop offset="0.34" stop-color="#8F8F58"/>
<stop offset="0.59" stop-color="#424229"/>
<stop offset="0.77" stop-color="#12120B"/>
<stop offset="0.86"/>
<stop offset="1"/>
</linearGradient>
</defs>
</svg>
