<svg width="50" height="50" viewBox="0 0 50 50" fill="none" xmlns="http://www.w3.org/2000/svg">
<path fill-rule="evenodd" clip-rule="evenodd" d="M40.0124 26.2067C39.0453 28.1797 38.9427 29.5515 39.7096 30.3223C40.9307 30.6131 42.4107 30.8216 43.8321 31.6214C49.1221 34.5881 50.5387 34.1615 49.762 29.4255C49.3371 26.8321 47.8717 26.1001 44.0324 27.3314C45.2584 26.5364 46.9094 24.9415 47.437 23.8945C48.6581 21.4901 47.6421 19.8807 46.2402 21.9409C44.8872 23.9429 42.1714 25.9207 40.0124 26.2067Z" fill="#41369D"/>
<path fill-rule="evenodd" clip-rule="evenodd" d="M47.0511 33.1775C49.6838 34.1179 50.3481 32.9981 49.762 29.4255C49.508 27.8646 48.873 26.9775 47.5737 26.7884C48.0915 27.3314 48.365 28.9214 48.365 29.4788C48.365 31.1997 47.5591 32.2274 47.0511 33.1775ZM47.0608 24.4956C47.2171 24.2823 47.349 24.0787 47.4418 23.8945C48.663 21.4901 47.647 19.8807 46.2451 21.9409C45.9716 22.3481 45.6394 22.7505 45.2682 23.1431C45.996 23.2837 46.6456 23.8508 47.0608 24.4956Z" fill="#6761B8"/>
<path fill-rule="evenodd" clip-rule="evenodd" d="M49.4349 33.1968C49.5522 33.095 49.645 32.9641 49.7231 32.809C49.0979 32.4358 48.2968 32.048 47.3346 31.6699C45.8057 31.0591 43.8568 30.4531 41.5659 29.8957C41.434 29.8666 41.307 29.9441 41.2728 30.075C41.2435 30.2059 41.3217 30.3319 41.4536 30.3659C43.72 30.9185 45.6445 31.5196 47.1587 32.1207C48.077 32.4794 48.839 32.843 49.4349 33.1968ZM49.9478 31.03C49.1223 30.807 48.1894 30.5985 47.1539 30.4046C45.4833 30.0944 43.549 29.8278 41.3559 29.6436C41.224 29.6339 41.1214 29.5175 41.1361 29.3818C41.1458 29.2509 41.2631 29.1491 41.3998 29.1637C43.6028 29.3479 45.5566 29.6145 47.2467 29.9296C48.2236 30.1138 49.1174 30.3125 49.9136 30.521C49.9283 30.7003 49.9429 30.8652 49.9478 31.03ZM49.4691 28.3154C49.4056 28.1505 49.3275 28.0003 49.2444 27.8597C48.4873 27.9615 47.6667 28.0391 46.7777 28.1069C45.0144 28.2378 43.0117 28.3105 40.7697 28.3541C40.6378 28.359 40.5304 28.4656 40.5304 28.5965C40.5353 28.7274 40.6427 28.834 40.7746 28.834C43.0362 28.7904 45.0535 28.7177 46.807 28.5868C47.7742 28.519 48.6583 28.4269 49.4691 28.3154ZM45.0339 27.0405C44.7702 27.1423 44.5064 27.2344 44.2426 27.3216C42.9775 27.7434 41.7369 28.0342 40.5157 28.1942C40.3838 28.2136 40.2617 28.1166 40.2422 27.9857C40.2226 27.8548 40.3203 27.7337 40.4522 27.7143C41.644 27.5592 42.8554 27.2731 44.0912 26.8611C44.4478 26.7399 44.8044 26.6139 45.1609 26.4733C44.7751 26.8029 44.3892 27.0938 44.0375 27.3265C44.3843 27.215 44.7164 27.118 45.0339 27.0405ZM47.9842 22.0572C47.994 21.7761 47.9598 21.5385 47.8865 21.364C47.149 22.4256 46.2991 23.4533 45.2733 24.3743C44.145 25.3923 42.8017 26.2842 41.1556 26.9726C41.0335 27.0259 40.9749 27.1665 41.0286 27.2877C41.0823 27.4089 41.224 27.467 41.3461 27.4137C43.0459 26.7011 44.4331 25.7801 45.6006 24.7282C46.514 23.9041 47.2955 22.9976 47.9842 22.0572Z" fill="#7A77C5"/>
<path fill-rule="evenodd" clip-rule="evenodd" d="M26.038 39.901C24.9097 39.4017 24.4408 39.6004 24.0256 40.5021C25.4714 44.0602 27.1566 47.4437 29.7552 48.2824C30.7712 48.612 31.3964 47.8558 29.7552 45.4902C28.3289 43.4203 26.546 41.8352 26.038 39.901Z" fill="#FCCC00"/>
<path fill-rule="evenodd" clip-rule="evenodd" d="M26.038 39.9011C25.3639 39.6054 24.9292 39.5569 24.597 39.7508C25.9794 43.0277 27.6011 46.009 30.0189 46.7943C30.2143 46.8573 30.395 46.8815 30.5465 46.8621C30.3853 46.484 30.1313 46.0283 29.7552 45.4903C28.3289 43.4204 26.546 41.8352 26.038 39.9011Z" fill="#DF9A00"/>
<path fill-rule="evenodd" clip-rule="evenodd" d="M30.6634 40.4006C29.159 39.6395 28.9245 39.6734 28.7535 40.2988C30.1066 44.1235 32.6172 47.667 35.0888 48.7771C36.7349 49.5188 37.1208 48.5735 34.8886 46.0819C33.2669 44.2786 31.3277 42.1457 30.6634 40.4006Z" fill="#FCCC00"/>
<path fill-rule="evenodd" clip-rule="evenodd" d="M30.6636 40.4003C30.0872 40.1094 29.6964 39.9349 29.4278 39.8622C30.8346 43.3766 33.1645 46.5178 35.4651 47.5504C35.7338 47.6715 35.9682 47.7443 36.1636 47.7782C35.9145 47.3322 35.5042 46.7651 34.8936 46.0816C33.2671 44.2783 31.3279 42.1454 30.6636 40.4003Z" fill="#DF9A00"/>
<path fill-rule="evenodd" clip-rule="evenodd" d="M34.581 40.4976C34.1414 39.882 33.0472 40.391 32.7737 40.9969C33.6724 43.4207 37.5801 46.8624 39.2067 47.0806C41.2289 47.352 39.4997 45.796 37.9611 44.1284C36.8279 42.9069 35.4993 41.7871 34.581 40.4976Z" fill="#FCCC00"/>
<path fill-rule="evenodd" clip-rule="evenodd" d="M34.5805 40.4974C34.2532 40.0418 33.5743 40.2017 33.1249 40.5605C34.4291 42.8873 37.7408 45.694 39.2013 45.8927C39.3576 45.9121 39.4895 45.9218 39.6018 45.9218C39.1769 45.408 38.5516 44.7778 37.9508 44.1331C36.8274 42.9067 35.4988 41.7869 34.5805 40.4974Z" fill="#DF9A00"/>
<path fill-rule="evenodd" clip-rule="evenodd" d="M38.8057 40.0999C37.653 39.5715 37.1499 39.7363 37.0961 40.4004C38.9474 44.1136 42.7671 46.8089 42.6255 44.7923C42.5522 43.7258 40.0366 42.1601 38.8057 40.0999Z" fill="#FCCC00"/>
<path fill-rule="evenodd" clip-rule="evenodd" d="M38.8062 40.1C38.225 39.8333 37.8098 39.7412 37.5363 39.8043C39.07 42.6013 41.6344 44.7148 42.5332 44.453C42.0594 43.406 39.915 41.9517 38.8062 40.1Z" fill="#DF9A00"/>
<path fill-rule="evenodd" clip-rule="evenodd" d="M23.7225 14.5583C23.2829 15.0285 22.7505 15.0964 22.1155 14.757C20.191 11.3444 19.2092 7.65056 21.1093 3.28295C21.9738 1.30031 23.3073 1.76567 22.6186 5.67762C21.8566 9.99677 22.6088 12.3333 23.7225 14.5583Z" fill="#FCCC00"/>
<path fill-rule="evenodd" clip-rule="evenodd" d="M23.7227 14.5583C23.4589 14.8443 23.1561 14.98 22.8191 14.9703C21.0753 11.6934 20.2791 8.14499 22.0864 3.99067C22.2915 3.51561 22.526 3.18598 22.7507 3.00177C22.8533 3.58347 22.8337 4.46572 22.6188 5.6776C21.8568 9.99675 22.609 12.3333 23.7227 14.5583Z" fill="#DF9A00"/>
<path fill-rule="evenodd" clip-rule="evenodd" d="M25.8374 14.5583C25.1047 15.2224 25.0364 14.5243 24.2304 13.8602C23.6003 8.69276 24.2402 4.42209 27.0439 1.29059C28.6509 -0.502996 28.7535 1.26635 27.8499 3.28777C25.5688 8.37282 25.4955 11.6643 25.8374 14.5583Z" fill="#FCCC00"/>
<path fill-rule="evenodd" clip-rule="evenodd" d="M25.8377 14.5582C25.5349 14.8345 25.3444 14.8733 25.1685 14.7812C25.1441 14.7569 25.1197 14.7376 25.0904 14.7133C24.4603 9.54586 25.1002 5.27519 27.9039 2.14369C28.0749 1.95464 28.2263 1.80436 28.3631 1.69287C28.28 2.15339 28.1042 2.706 27.8453 3.28286C25.5691 8.37276 25.4958 11.6642 25.8377 14.5582Z" fill="#DF9A00"/>
<path fill-rule="evenodd" clip-rule="evenodd" d="M26.741 13.4628C27.1513 14.3499 27.586 14.4178 28.2503 14.2627C28.8658 10.2053 29.9159 7.98996 32.6757 4.3834C34.019 2.62859 34.2339 0.490834 32.3729 1.88692C29.1246 4.32523 26.9168 8.67346 26.741 13.4628Z" fill="#E40059"/>
<path fill-rule="evenodd" clip-rule="evenodd" d="M27.1807 14.1074C27.4786 14.3692 27.8157 14.3595 28.2504 14.2577C28.8658 10.2003 29.916 7.98503 32.6758 4.37847C33.135 3.77737 33.4622 3.13265 33.6185 2.59943C33.4085 2.63821 33.135 2.77394 32.7833 3.0357C29.6474 5.3916 27.4884 9.52169 27.1807 14.1074Z" fill="#AE0047"/>
<path fill-rule="evenodd" clip-rule="evenodd" d="M29.4568 13.6615C29.7597 14.7376 30.0967 14.8734 30.8636 14.4613C32.329 9.72044 34.9422 8.21771 36.5932 6.77799C39.5044 4.23789 38.6447 3.21021 36.8961 4.08277C33.0421 6.01208 30.424 9.25992 29.4568 13.6615Z" fill="#E40059"/>
<path fill-rule="evenodd" clip-rule="evenodd" d="M29.7159 14.3399C29.9699 14.7713 30.302 14.7568 30.8589 14.4611C32.3242 9.72018 34.9375 8.21745 36.5885 6.77774C37.3602 6.10393 37.8682 5.53677 38.1613 5.08595C37.878 5.05687 37.4726 5.15382 37.0037 5.3865C33.3402 7.22371 30.7905 10.2534 29.7159 14.3399Z" fill="#AE0047"/>
<path fill-rule="evenodd" clip-rule="evenodd" d="M41.7218 18.0484C37.9168 15.9736 34.7027 14.7133 32.4705 14.2576C34.4096 10.3748 36.0948 8.57147 37.7995 7.67468C40.0953 6.4628 44.3009 11.6981 45.0385 14.0589C45.3462 15.0381 43.7148 17.0159 41.7218 18.0484Z" fill="#E40059"/>
<path fill-rule="evenodd" clip-rule="evenodd" d="M40.1595 17.2293C40.0081 17.1517 39.8616 17.079 39.715 17.0063C41.2244 15.2855 42.9193 13.7973 44.3652 12.6193C44.4482 12.7647 44.5263 12.9102 44.5996 13.0459C43.2124 14.1802 41.6005 15.6005 40.1595 17.2293ZM37.8833 16.1338C39.3878 14.6795 40.7115 13.4482 41.8496 12.4448C42.4064 11.9552 42.9193 11.5238 43.3882 11.1408C43.2905 11.0148 43.1929 10.8887 43.0952 10.7579C42.6165 11.1457 42.0938 11.5868 41.5321 12.0861C40.3452 13.1332 38.9677 14.4081 37.4095 15.9253C37.5609 15.9932 37.7221 16.0611 37.8833 16.1338ZM36.0321 15.3582C36.0858 15.3485 36.1346 15.3194 36.1688 15.2758C37.6196 13.5064 38.9433 12.057 40.1253 10.9227C40.7457 10.3264 41.3318 9.82229 41.874 9.4054C41.7568 9.28906 41.6396 9.17757 41.5223 9.07093C40.9801 9.49266 40.3989 9.99195 39.7883 10.5785C38.5916 11.7225 37.2581 13.1913 35.7927 14.9752C35.7243 15.0625 35.7195 15.1837 35.783 15.2661C35.8709 15.2951 35.9539 15.3291 36.0321 15.3582ZM39.8616 7.86389C39.1191 8.36803 38.3278 9.06608 37.4926 9.94833C36.457 11.039 35.3433 12.4254 34.1613 14.0978C34.0831 14.2045 34.1124 14.3547 34.2199 14.4323C34.3274 14.5098 34.4788 14.4808 34.5569 14.3741C35.7292 12.7211 36.8283 11.3541 37.8442 10.278C38.7332 9.34239 39.5587 8.62495 40.3305 8.13535C40.1742 8.02871 40.0179 7.94145 39.8616 7.86389Z" fill="#F28FBB"/>
<path opacity="0.53" fill-rule="evenodd" clip-rule="evenodd" d="M41.7218 18.0483C37.9168 15.9736 34.7027 14.7132 32.4705 14.2575C33.2569 12.6869 33.9993 11.4557 34.7174 10.4862C36.4318 9.62815 38.5078 9.59422 40.2662 11.8483C41.3946 13.2929 43.2898 14.3254 44.6624 15.4549C44.086 16.3759 42.9772 17.3987 41.7218 18.0483Z" fill="#AE0047"/>
<path fill-rule="evenodd" clip-rule="evenodd" d="M14.5738 33.2164C5.54708 33.1631 1.09235 32.8383 0.799277 31.9173C0.384088 30.6084 3.97914 30.2691 11.9605 29.9201C14.6129 29.8037 15.6044 27.5399 16.4836 24.2339C18.4179 16.9481 21.6173 13.0507 24.7288 12.8616C32.2755 12.4011 38.0051 14.0493 42.323 16.2549C43.764 16.9917 44.1548 18.4848 43.0264 21.5436C41.986 24.3745 41.5366 28.8003 42.323 34.8112C42.8115 38.5681 41.6734 41.4232 38.1028 41.6947C35.1427 41.9177 31.6307 41.1954 27.5472 41.5929C24.9388 41.845 22.4135 41.2924 21.1142 38.8977C19.2385 35.4608 17.485 33.2309 14.5738 33.2164Z" fill="url(#paint0_linear_78_171260)"/>
<path opacity="0.34" fill-rule="evenodd" clip-rule="evenodd" d="M15.4871 27.2104C15.873 26.3718 16.1856 25.3635 16.4836 24.2389C17.4361 20.642 18.7012 17.8741 20.1079 15.969C20.9432 15.683 21.842 15.523 22.7749 15.523C27.2736 15.523 30.9175 19.1441 30.9175 23.6038C30.9175 28.0684 27.2687 31.6847 22.7749 31.6847C19.5853 31.6847 16.8206 29.862 15.4871 27.2104Z" fill="#A4DFED"/>
<path opacity="0.72" fill-rule="evenodd" clip-rule="evenodd" d="M23.0094 32.8675C23.8153 32.8675 24.465 33.5122 24.465 34.3121C24.465 35.1119 23.8153 35.7566 23.0094 35.7566C22.2034 35.7566 21.5538 35.1119 21.5538 34.3121C21.5538 33.5122 22.2034 32.8675 23.0094 32.8675ZM21.0751 14.8105C22.2523 13.5938 23.4978 12.9345 24.7287 12.8618C24.8264 12.8569 24.9241 12.8521 25.0218 12.8472C25.2612 13.2011 25.4028 13.6277 25.4028 14.0834C25.4028 15.3049 24.4064 16.2938 23.1754 16.2938C22.2083 16.2938 21.3828 15.6734 21.0751 14.8105ZM29.1639 12.8327C30.7514 12.9103 32.2412 13.0896 33.6431 13.3417C33.7457 13.6132 33.7994 13.904 33.7994 14.2094C33.7994 15.5958 32.6662 16.7156 31.2741 16.7156C29.8771 16.7156 28.7487 15.5909 28.7487 14.2094C28.7439 13.7004 28.9002 13.2302 29.1639 12.8327ZM40.1542 15.2516C40.9162 15.5667 41.6391 15.906 42.323 16.2551C43.7639 16.9919 44.1547 18.4849 43.0263 21.5437C42.8798 21.946 42.743 22.3823 42.616 22.8525C42.2644 22.9543 41.8882 23.0077 41.5024 23.0077C39.2799 23.0077 37.4775 21.2189 37.4775 19.0133C37.4824 17.2779 38.596 15.7994 40.1542 15.2516ZM41.9713 27.3026C41.8638 29.3046 41.9371 31.6266 42.2546 34.2588C41.8589 34.3993 41.434 34.4769 40.9944 34.4769C38.9624 34.4769 37.3114 32.8384 37.3114 30.8219C37.3114 28.8053 38.9624 27.1668 40.9944 27.1668C41.3314 27.1717 41.6587 27.2153 41.9713 27.3026ZM41.4975 39.9449C40.799 40.9435 39.6902 41.5785 38.1027 41.6949C37.1307 41.7676 36.1 41.7385 35.0108 41.6852C34.7812 41.2295 34.6542 40.7157 34.6542 40.1727C34.6542 38.2967 36.1879 36.7746 38.0783 36.7746C39.8953 36.7746 41.3802 38.1756 41.4975 39.9449ZM31.191 41.4864C30.0285 41.4573 28.8171 41.4719 27.5471 41.5931C26.7265 41.6706 25.9206 41.6706 25.1537 41.5591C24.8264 41.0308 24.6408 40.4103 24.6408 39.7462C24.6408 37.8217 26.2136 36.2608 28.1528 36.2608C30.092 36.2608 31.6648 37.8217 31.6648 39.7462C31.6599 40.3812 31.489 40.9774 31.191 41.4864ZM32.9837 20.4579C33.9557 20.4579 34.7372 21.2383 34.7372 22.1981C34.7372 23.1628 33.9508 23.9384 32.9837 23.9384C32.0165 23.9384 31.2301 23.1579 31.2301 22.1981C31.2301 21.2383 32.0165 20.4579 32.9837 20.4579Z" fill="url(#paint1_linear_78_171260)"/>
<path fill-rule="evenodd" clip-rule="evenodd" d="M28.4752 33.9C30.3558 35.3737 32.505 36.474 33.775 36.1105C36.8865 35.2234 36.5201 28.1557 34.9815 27.6273C33.7554 27.2104 30.6635 27.6952 28.5485 29.7214C30.0041 30.7491 30.0969 33.0274 28.4752 33.9Z" fill="#FCCC00"/>
<path fill-rule="evenodd" clip-rule="evenodd" d="M28.4752 33.8997C29.0516 34.3505 29.6524 34.7674 30.2483 35.1164C31.8847 34.9225 33.5503 33.953 33.648 31.8686C33.775 29.1394 32.2608 28.1942 30.6782 28.2766C29.9308 28.6256 29.1933 29.1007 28.5485 29.7211C30.0041 30.7488 30.0969 33.0272 28.4752 33.8997Z" fill="#F0A600"/>
<path fill-rule="evenodd" clip-rule="evenodd" d="M34.9424 35.3445C35.0548 35.2184 35.1573 35.0779 35.2501 34.9276C34.7373 34.8016 34.1804 34.6416 33.5845 34.4525C32.3731 34.0696 30.9908 33.5557 29.4326 32.911C29.3642 33.0565 29.2763 33.197 29.1737 33.3231C30.7661 33.9823 32.1875 34.5107 33.438 34.9082C33.9704 35.0779 34.4686 35.2233 34.9424 35.3445ZM35.9193 33.231C35.2404 33.0516 34.4735 32.8868 33.6285 32.7511C32.4317 32.5572 31.0836 32.4214 29.6133 32.373C29.6475 32.2178 29.6622 32.0579 29.6622 31.893C31.1422 31.9464 32.5001 32.0821 33.7017 32.276C34.5468 32.4117 35.3234 32.5765 36.0073 32.7559C35.9877 32.9159 35.9535 33.0758 35.9193 33.231ZM36.1391 31.069C36.1391 30.9041 36.1294 30.7393 36.1196 30.5794C35.4162 30.4727 34.5956 30.4194 33.6675 30.4291C32.4366 30.4485 31.025 30.5842 29.4668 30.8751C29.5303 31.0253 29.5743 31.1805 29.6085 31.3356C31.1178 31.0593 32.4855 30.9235 33.6724 30.909C34.6151 30.8993 35.4406 30.9526 36.1391 31.069ZM35.8265 28.8536C34.7568 28.8488 33.6578 28.9603 32.5587 29.2172C31.4402 29.4741 30.3265 29.8813 29.2421 30.4485C29.1542 30.3128 29.0516 30.1819 28.9393 30.0607C30.0823 29.4547 31.2643 29.0233 32.4464 28.747C33.521 28.4998 34.5956 28.3786 35.6409 28.3689C35.7093 28.5192 35.7679 28.6791 35.8265 28.8536Z" fill="#C87B00"/>
<path fill-rule="evenodd" clip-rule="evenodd" d="M2.11343 32.0868C1.98154 32.0868 1.87408 31.9753 1.87408 31.8445C1.87408 31.7136 1.98643 31.6069 2.11831 31.6069L18.5158 31.9026C18.6477 31.9026 18.7552 32.0141 18.7552 32.145C18.7552 32.2759 18.6428 32.3825 18.5109 32.3825L2.11343 32.0868Z" fill="#FCCC00"/>
<path d="M22.3646 30.6084C26.3248 30.6084 29.5351 27.4224 29.5351 23.4922C29.5351 19.5621 26.3248 16.376 22.3646 16.376C18.4044 16.376 15.194 19.5621 15.194 23.4922C15.194 27.4224 18.4044 30.6084 22.3646 30.6084Z" fill="url(#paint2_linear_78_171260)"/>
<path d="M25.9007 27.9036C27.9017 25.9178 27.9017 22.6982 25.9007 20.7123C23.8997 18.7265 20.6554 18.7265 18.6544 20.7123C16.6534 22.6982 16.6534 25.9178 18.6544 27.9036C20.6554 29.8894 23.8997 29.8894 25.9007 27.9036Z" fill="white"/>
<path fill-rule="evenodd" clip-rule="evenodd" d="M23.1217 28.7323C25.5054 28.7323 27.4446 26.803 27.4446 24.4422C27.4446 22.0766 25.5005 20.1522 23.1217 20.1522C20.7381 20.1522 18.7989 22.0815 18.7989 24.4422C18.794 26.803 20.7381 28.7323 23.1217 28.7323Z" fill="url(#paint3_linear_78_171260)"/>
<path fill-rule="evenodd" clip-rule="evenodd" d="M23.1169 20.1522C24.7043 20.1522 26.0916 21.0005 26.8438 22.2657V22.2754C26.8438 24.2047 24.7288 25.7704 22.1204 25.7704C20.8309 25.7704 19.6586 25.3875 18.8087 24.767C18.7989 24.6604 18.7989 24.5537 18.7989 24.4422C18.794 22.0718 20.7332 20.1522 23.1169 20.1522Z" fill="url(#paint4_linear_78_171260)"/>
<path fill-rule="evenodd" clip-rule="evenodd" d="M23.8299 26.4056C24.9192 26.4056 25.8082 25.5233 25.8082 24.4423C25.8082 23.3613 24.9192 22.4791 23.8299 22.4791C22.7407 22.4791 21.8517 23.3613 21.8517 24.4423C21.8517 25.5233 22.7407 26.4056 23.8299 26.4056Z" fill="#141414"/>
<path fill-rule="evenodd" clip-rule="evenodd" d="M21.959 24.961C22.76 24.961 23.4097 24.3163 23.4097 23.5213C23.4097 22.7263 22.76 22.0815 21.959 22.0815C21.1579 22.0815 20.5082 22.7263 20.5082 23.5213C20.5082 24.3163 21.1628 24.961 21.959 24.961Z" fill="white"/>
<path opacity="0.51" fill-rule="evenodd" clip-rule="evenodd" d="M20.5428 15.4114C21.8714 13.8069 23.3123 12.9489 24.7289 12.8616C32.2755 12.4011 38.0051 14.0493 42.3231 16.2549C43.764 16.9917 44.1548 18.4848 43.0265 21.5436C41.9861 24.3745 41.5367 28.8003 42.3231 34.8112C42.8116 38.5681 41.6735 41.4232 38.1028 41.6947C35.1428 41.9177 31.6308 41.1954 27.5473 41.5929C25.6716 41.7771 23.8448 41.5396 22.482 40.5071C23.6543 40.3762 24.6165 40.318 25.0171 40.3083C30.6539 40.1338 36.0806 40.6525 39.0211 38.1754C40.887 36.6048 40.5647 33.2552 40.3448 32.2857C38.9332 26.0614 44.2281 21.3884 37.7902 16.7639C34.4345 14.3547 25.0268 14.1656 21.1973 15.2418C20.958 15.3048 20.7431 15.363 20.5428 15.4114Z" fill="#41369D"/>
<defs>
<linearGradient id="paint0_linear_78_171260" x1="10.7634" y1="27.1597" x2="45.8757" y2="27.3315" gradientUnits="userSpaceOnUse">
<stop stop-color="#479ED0"/>
<stop offset="1" stop-color="#C33EA4"/>
</linearGradient>
<linearGradient id="paint1_linear_78_171260" x1="24.983" y1="27.4239" x2="45.8148" y2="26.9657" gradientUnits="userSpaceOnUse">
<stop stop-color="#8DD5E7"/>
<stop offset="1" stop-color="#A9D10D"/>
</linearGradient>
<linearGradient id="paint2_linear_78_171260" x1="21.9462" y1="16.7532" x2="22.7613" y2="30.0217" gradientUnits="userSpaceOnUse">
<stop stop-color="#51229B"/>
<stop offset="1" stop-color="#3C61AF"/>
</linearGradient>
<linearGradient id="paint3_linear_78_171260" x1="20.807" y1="24.4337" x2="27.8936" y2="24.4572" gradientUnits="userSpaceOnUse">
<stop stop-color="#479ED0"/>
<stop offset="1" stop-color="#C33EA4"/>
</linearGradient>
<linearGradient id="paint4_linear_78_171260" x1="21.9266" y1="20.868" x2="23.615" y2="25.9093" gradientUnits="userSpaceOnUse">
<stop stop-color="#6EBFE2"/>
<stop offset="1" stop-color="#E79ACF"/>
</linearGradient>
</defs>
</svg>
